<svg width="46" height="42" viewBox="0 0 46 42" fill="none" xmlns="http://www.w3.org/2000/svg">
<path fill-rule="evenodd" clip-rule="evenodd" d="M0.955919 7.61407C0.609893 8.03622 0.573906 8.63207 0.866645 9.09229C1.12893 9.50475 1.45558 10.0196 1.74348 10.4716C1.92479 10.7581 2.21407 10.9588 2.54557 11.0293C2.87706 11.0999 3.22309 11.0349 3.50613 10.8473C4.53453 10.1671 5.93109 9.24247 5.93109 9.24247C5.93109 9.24247 0.835502 26.9016 0.661797 33.1197C0.488092 39.3371 7.12765 33.7958 7.12765 33.7958C7.12765 33.7958 5.6951 33.1716 6.28957 29.9065C6.88405 26.6407 12.5215 4.35588 12.5215 4.35588C12.0585 2.34547 10.9471 1.07833 9.29585 0.429185C8.2121 -0.0151125 6.96571 0.299757 6.22244 1.20565C4.75598 2.97939 2.11995 6.19467 0.955919 7.61407Z" fill="#EB2027"/>
<path fill-rule="evenodd" clip-rule="evenodd" d="M19.4691 1.58005C21.339 2.03404 22.056 3.45136 22.0919 5.43616C22.0919 5.43616 12.2461 24.6842 16.8123 24.8635C21.3784 25.0427 26.3751 10.3145 25.4636 8.75457C24.7086 7.46181 23.3674 7.47703 23.3674 7.47703C23.3674 7.47703 24.7031 4.3877 26.1591 4.48043C28.9536 4.65898 30.1405 9.24522 26.2685 18.7942C22.9708 26.9258 16.9431 32.0006 13.4579 31.303C7.73877 30.1584 12.1285 11.0183 19.4691 1.58005Z" fill="#EB2027"/>
<path fill-rule="evenodd" clip-rule="evenodd" d="M36.1639 1.93875C37.8319 2.3437 38.4714 3.60795 38.5035 5.3784C38.5035 5.3784 29.721 22.5477 33.794 22.7076C37.8671 22.8674 42.324 9.72983 41.511 8.33841C40.8376 7.18528 39.6412 7.19885 39.6412 7.19885C39.6412 7.19885 40.8326 4.44317 42.1314 4.52589C44.6241 4.68515 45.6828 8.77608 42.229 17.2937C39.2875 24.5471 33.9107 29.0739 30.8019 28.4516C25.7005 27.4306 29.6161 10.3576 36.1639 1.93875Z" fill="#EB2027"/>
<path fill-rule="evenodd" clip-rule="evenodd" d="M12.1638 36.7018C13.8884 34.7813 17.1189 33.2775 27.8741 31.3868C33.722 30.3591 36.6701 28.6532 38.8411 26.8089C39.0279 26.6414 39.3047 26.6248 39.5103 26.768C39.7151 26.912 39.794 27.1777 39.7006 27.4103C38.9061 28.8442 37.3642 30.7674 34.3137 32.2103C27.717 35.3294 20.8858 34.0664 14.5293 39.0188C13.042 38.6056 12.5659 37.5343 12.1638 36.7018Z" fill="#EB2027"/>
<path fill-rule="evenodd" clip-rule="evenodd" d="M22.7729 39.3013C24.069 37.5841 26.6407 36.1331 35.4166 33.9301C39.8772 32.8108 42.1985 31.3346 43.8476 29.7765C44.0264 29.5952 44.3072 29.569 44.5201 29.7129C44.7329 29.8568 44.8198 30.132 44.7275 30.3713C44.0917 31.5568 42.9489 33.0334 40.8055 34.2603C35.5574 37.264 29.814 36.5853 24.8907 41.1214C23.6309 40.8572 23.163 39.9806 22.7729 39.3013Z" fill="#EB2027"/>
</svg>
