<svg width="20" height="16" viewBox="0 0 20 16" fill="none" xmlns="http://www.w3.org/2000/svg">
<path d="M7.23003 9.2613C6.37871 9.26125 5.54651 9.00877 4.83868 8.53577C4.13085 8.06277 3.57917 7.3905 3.2534 6.60397C2.92763 5.81744 2.84241 4.95197 3.0085 4.117C3.1746 3.28204 3.58456 2.51508 4.18653 1.9131C4.78851 1.31112 5.55548 0.901162 6.39044 0.735066C7.22541 0.56897 8.09087 0.654194 8.87741 0.979962C9.66394 1.30573 10.3362 1.85741 10.8092 2.56524C11.2822 3.27308 11.5347 4.10527 11.5347 4.9566C11.5335 6.09789 11.0796 7.19209 10.2726 7.99911C9.46553 8.80613 8.37133 9.26006 7.23003 9.2613ZM7.23003 2.04773C6.65467 2.04777 6.09224 2.21843 5.61387 2.53812C5.1355 2.85781 4.76267 3.31217 4.54253 3.84376C4.32238 4.37534 4.26482 4.96026 4.3771 5.52456C4.48939 6.08886 4.76649 6.60719 5.17336 7.014C5.58023 7.42082 6.0986 7.69785 6.66292 7.81005C7.22723 7.92226 7.81215 7.86461 8.3437 7.6444C8.87525 7.42418 9.32956 7.05129 9.64919 6.57287C9.96881 6.09445 10.1394 5.532 10.1394 4.95663C10.1384 4.18535 9.83161 3.44593 9.28619 2.90059C8.74078 2.35526 8.00131 2.04854 7.23003 2.04773Z" fill="black"/>
<path d="M13.7206 15.7928C13.5675 15.7927 13.4187 15.7422 13.2971 15.6491C13.1755 15.556 13.0879 15.4255 13.0479 15.2777L12.3471 12.6941C12.226 12.2509 11.9628 11.8598 11.5979 11.5807C11.233 11.3016 10.7865 11.1501 10.3271 11.1493H4.09146C3.63206 11.1501 3.18562 11.3016 2.8207 11.5807C2.45578 11.8598 2.19258 12.2509 2.07152 12.6941L1.37065 15.2777C1.34667 15.3661 1.30551 15.449 1.24953 15.5215C1.19354 15.594 1.12383 15.6547 1.04437 15.7003C0.9649 15.7458 0.877242 15.7753 0.786394 15.7869C0.695546 15.7986 0.603287 15.7923 0.514887 15.7683C0.426486 15.7443 0.343674 15.7032 0.271179 15.6472C0.198684 15.5912 0.137926 15.5215 0.0923728 15.442C0.0468201 15.3626 0.0173651 15.2749 0.00568962 15.1841C-0.00598583 15.0932 0.000346966 15.0009 0.0243263 14.9125L0.725199 12.3289C0.926696 11.5902 1.36524 10.9381 1.97343 10.4729C2.58161 10.0076 3.32575 9.75504 4.09146 9.75391H10.3271C11.0928 9.75504 11.8369 10.0076 12.4451 10.4729C13.0533 10.9381 13.4918 11.5902 13.6933 12.3289L14.3942 14.9125C14.4183 15.001 14.4247 15.0932 14.413 15.1841C14.4014 15.275 14.372 15.3627 14.3264 15.4422C14.2808 15.5217 14.22 15.5914 14.1475 15.6473C14.075 15.7033 13.9921 15.7444 13.9037 15.7683C13.844 15.7847 13.7824 15.7929 13.7206 15.7928Z" fill="black"/>
<path d="M13.7857 7.52564C13.4186 7.52559 13.0535 7.47188 12.702 7.36621C12.5252 7.31274 12.3768 7.19132 12.2894 7.0286C12.202 6.86589 12.1827 6.67515 12.2358 6.49822C12.2888 6.3213 12.4099 6.17263 12.5724 6.08483C12.7349 5.99703 12.9256 5.97727 13.1026 6.02987C13.428 6.12732 13.7706 6.1536 14.107 6.10692C14.4435 6.06024 14.7659 5.94169 15.0525 5.75933C15.339 5.57696 15.583 5.33506 15.7678 5.05005C15.9526 4.76504 16.0738 4.4436 16.1234 4.10756C16.1729 3.77152 16.1495 3.42875 16.0549 3.10255C15.9602 2.77634 15.7964 2.47434 15.5746 2.21705C15.3529 1.95976 15.0783 1.75321 14.7696 1.61144C14.461 1.46967 14.1254 1.39599 13.7857 1.39541C13.2672 1.3932 12.7633 1.56695 12.3563 1.88825C12.2842 1.94503 12.2017 1.98705 12.1134 2.01191C12.0251 2.03677 11.9328 2.04397 11.8417 2.03311C11.7506 2.02225 11.6626 1.99353 11.5826 1.94861C11.5026 1.90369 11.4323 1.84343 11.3756 1.7713C11.319 1.69917 11.2771 1.61657 11.2524 1.52823C11.2277 1.4399 11.2206 1.34755 11.2316 1.25649C11.2426 1.16542 11.2715 1.07742 11.3165 0.997521C11.3616 0.917619 11.422 0.847385 11.4942 0.790836C12.1466 0.275651 12.9544 -0.00312453 13.7857 2.64204e-05C14.7837 2.64204e-05 15.7408 0.396464 16.4464 1.10213C17.1521 1.80779 17.5485 2.76487 17.5485 3.76283C17.5485 4.76079 17.1521 5.71788 16.4464 6.42354C15.7408 7.1292 14.7837 7.52564 13.7857 7.52564Z" fill="black"/>
<path d="M19.3014 13.4887C19.1457 13.4885 18.9946 13.4363 18.872 13.3404C18.7494 13.2446 18.6623 13.1105 18.6246 12.9595L18.1967 11.2384C18.0716 10.7458 17.7858 10.3089 17.3845 9.99699C16.9832 9.68509 16.4893 9.51599 15.981 9.51648H11.8598C11.6748 9.51648 11.4973 9.44297 11.3665 9.31213C11.2356 9.18129 11.1621 9.00382 11.1621 8.81879C11.1621 8.63375 11.2356 8.45629 11.3665 8.32544C11.4973 8.1946 11.6748 8.12109 11.8598 8.12109H15.981C16.8003 8.12053 17.5963 8.39346 18.2429 8.89662C18.8895 9.39978 19.3496 10.1044 19.5503 10.8987L19.9791 12.6224C20.0048 12.7253 20.0067 12.8327 19.9847 12.9365C19.9626 13.0402 19.9172 13.1376 19.8518 13.2211C19.7865 13.3046 19.7029 13.3722 19.6075 13.4185C19.5122 13.4649 19.4074 13.4889 19.3014 13.4887Z" fill="black"/>
</svg>
