<svg width="20" height="20" viewBox="0 0 20 20" fill="none" xmlns="http://www.w3.org/2000/svg">
<g clip-path="url(#clip0_143_2984)">
<path d="M9.5727 19.9858H2.39321C1.76354 19.9858 1.15966 19.7356 0.714421 19.2904C0.269178 18.8451 0.019043 18.2413 0.019043 17.6116L0.019043 2.37417C0.019043 1.7445 0.269178 1.14062 0.714421 0.695378C1.15966 0.250135 1.76354 0 2.39321 0L13.3856 0C14.0153 0 14.6192 0.250135 15.0644 0.695378C15.5096 1.14062 15.7598 1.7445 15.7598 2.37417V8.07218C15.7668 8.14656 15.7582 8.22159 15.7346 8.29246C15.7109 8.36333 15.6727 8.42848 15.6224 8.48374C15.5721 8.53899 15.5109 8.58314 15.4425 8.61335C15.3742 8.64355 15.3003 8.65916 15.2256 8.65916C15.1509 8.65916 15.077 8.64355 15.0087 8.61335C14.9403 8.58314 14.879 8.53899 14.8288 8.48374C14.7785 8.42848 14.7403 8.36333 14.7166 8.29246C14.693 8.22159 14.6844 8.14656 14.6914 8.07218V2.37417C14.6914 2.20478 14.658 2.03707 14.593 1.88063C14.528 1.7242 14.4328 1.58213 14.3128 1.46258C14.1928 1.34303 14.0504 1.24834 13.8938 1.18395C13.7371 1.11957 13.5692 1.08674 13.3999 1.08737H2.39321C2.22303 1.08549 2.05417 1.11738 1.8964 1.1812C1.73863 1.24503 1.59509 1.33951 1.47408 1.45919C1.35308 1.57887 1.25702 1.72136 1.19146 1.87842C1.12591 2.03548 1.09216 2.20398 1.09217 2.37417V17.6258C1.09216 17.796 1.12591 17.9645 1.19146 18.1216C1.25702 18.2786 1.35308 18.4211 1.47408 18.5408C1.59509 18.6605 1.73863 18.755 1.8964 18.8188C2.05417 18.8826 2.22303 18.9145 2.39321 18.9126H9.5727C9.715 18.9126 9.85148 18.9692 9.95211 19.0698C10.0527 19.1704 10.1093 19.3069 10.1093 19.4492C10.1093 19.5915 10.0527 19.728 9.95211 19.8286C9.85148 19.9292 9.715 19.9858 9.5727 19.9858Z" fill="#2F3642"/>
<path d="M12.3884 5.73603H3.36652C3.29214 5.74305 3.21711 5.73446 3.14624 5.71081C3.07537 5.68716 3.01022 5.64897 2.95496 5.59868C2.89971 5.54839 2.85556 5.48712 2.82535 5.41878C2.79514 5.35045 2.77954 5.27656 2.77954 5.20185C2.77954 5.12713 2.79514 5.05324 2.82535 4.98491C2.85556 4.91657 2.89971 4.8553 2.95496 4.80501C3.01022 4.75473 3.07537 4.71653 3.14624 4.69288C3.21711 4.66923 3.29214 4.66064 3.36652 4.66766H12.3884C12.5214 4.68021 12.6449 4.74191 12.7348 4.8407C12.8247 4.9395 12.8745 5.06827 12.8745 5.20185C12.8745 5.33542 12.8247 5.4642 12.7348 5.56299C12.6449 5.66178 12.5214 5.72348 12.3884 5.73603Z" fill="#2F3642"/>
<path d="M8.34281 9.90503H3.3808C3.2385 9.90503 3.10202 9.8485 3.00139 9.74788C2.90077 9.64725 2.84424 9.51078 2.84424 9.36847C2.84424 9.22617 2.90077 9.08969 3.00139 8.98906C3.10202 8.88844 3.2385 8.83191 3.3808 8.83191H8.34281C8.48512 8.83191 8.6216 8.88844 8.72222 8.98906C8.82285 9.08969 8.87938 9.22617 8.87938 9.36847C8.87938 9.51078 8.82285 9.64725 8.72222 9.74788C8.6216 9.8485 8.48512 9.90503 8.34281 9.90503Z" fill="#2F3642"/>
<path d="M19.3828 20C19.2251 20 19.0736 19.9387 18.9602 19.829L16.8995 17.7683C16.7874 17.6556 16.7247 17.5029 16.7251 17.344C16.7255 17.185 16.7891 17.0328 16.9018 16.9207C17.0145 16.8086 17.1672 16.7459 17.3261 16.7463C17.4851 16.7468 17.6373 16.8104 17.7494 16.9231L19.8054 18.9933C19.8889 19.077 19.9458 19.1835 19.9688 19.2995C19.9918 19.4154 19.9799 19.5356 19.9347 19.6448C19.8895 19.754 19.813 19.8474 19.7148 19.9131C19.6165 19.9789 19.501 20.0141 19.3828 20.0142V20Z" fill="#2F3642"/>
<path d="M13.8131 17.6021C13.0618 17.6021 12.3273 17.3793 11.7026 16.9619C11.078 16.5445 10.5911 15.9512 10.3036 15.2571C10.0161 14.563 9.94082 13.7992 10.0874 13.0623C10.234 12.3255 10.5958 11.6486 11.127 11.1174C11.6583 10.5861 12.3351 10.2243 13.072 10.0778C13.8089 9.93118 14.5726 10.0064 15.2668 10.2939C15.9609 10.5814 16.5542 11.0683 16.9716 11.693C17.389 12.3177 17.6117 13.0521 17.6117 13.8034C17.6117 14.8109 17.2115 15.7771 16.4991 16.4895C15.7868 17.2019 14.8205 17.6021 13.8131 17.6021ZM13.8131 11.0209C13.2644 11.02 12.7278 11.1818 12.2712 11.4859C11.8145 11.7901 11.4584 12.2228 11.2477 12.7294C11.0371 13.2361 10.9815 13.7938 11.088 14.332C11.1945 14.8702 11.4582 15.3648 11.8458 15.7531C12.2334 16.1414 12.7275 16.4059 13.2656 16.5133C13.8036 16.6207 14.3614 16.5661 14.8684 16.3563C15.3754 16.1466 15.8088 15.7912 16.1137 15.335C16.4186 14.8789 16.5814 14.3426 16.5814 13.7939C16.5801 13.0597 16.2882 12.3558 15.7695 11.8362C15.2507 11.3165 14.5473 11.0234 13.8131 11.0209Z" fill="#2F3642"/>
</g>
<defs>
<clipPath id="clip0_143_2984">
<rect width="20" height="20" fill="white"/>
</clipPath>
</defs>
</svg>
