<svg width="15" height="15" viewBox="0 0 15 15" fill="none" xmlns="http://www.w3.org/2000/svg">
<path d="M7.5506 0.0917969C3.52946 0.0917969 0.269531 3.35172 0.269531 7.37286C0.269531 11.394 3.52946 14.6539 7.5506 14.6539C11.5717 14.6539 14.8317 11.394 14.8317 7.37286C14.8317 3.35172 11.5717 0.0917969 7.5506 0.0917969ZM7.5506 13.4404C4.19966 13.4404 1.48305 10.7238 1.48305 7.37286C1.48305 4.02192 4.19966 1.30532 7.5506 1.30532C10.9015 1.30532 13.6181 4.02192 13.6181 7.37286C13.6181 10.7238 10.9015 13.4404 7.5506 13.4404Z" fill="#0071BC"/>
<path d="M6.76602 3.91001C6.52907 3.67306 6.14488 3.67306 5.90794 3.91001C5.67099 4.14696 5.67099 4.53115 5.90794 4.7681L8.51268 7.37284L5.90794 9.97759C5.67099 10.2145 5.67099 10.5987 5.90794 10.8357C6.14488 11.0726 6.52907 11.0726 6.76602 10.8357L9.79981 7.80188C10.0368 7.56494 10.0368 7.18075 9.79981 6.9438L6.76602 3.91001Z" fill="#0071BC"/>
</svg>
