<svg width="23" height="25" viewBox="0 0 23 25" fill="none" xmlns="http://www.w3.org/2000/svg">
<path d="M22.0097 18.4431L20.4832 16.2471C20.2748 15.9486 20.1627 15.5935 20.1618 15.2294V8.92697C20.1618 6.55939 19.2213 4.28878 17.5472 2.61465C15.873 0.940518 13.6024 0 11.2348 0C8.86727 0 6.59666 0.940518 4.92253 2.61465C3.24839 4.28878 2.30788 6.55939 2.30788 8.92697V15.2294C2.30701 15.5935 2.19488 15.9486 1.9865 16.2471L0.459993 18.4431C0.228855 18.6992 0.0768625 19.0168 0.0223948 19.3575C-0.0320729 19.6981 0.0133172 20.0472 0.153076 20.3626C0.292835 20.6781 0.520977 20.9462 0.809914 21.1347C1.09885 21.3232 1.43621 21.4239 1.78118 21.4247H6.86063C7.06552 22.4337 7.61294 23.3409 8.41012 23.9925C9.20731 24.6441 10.2053 25 11.2348 25C12.2644 25 13.2624 24.6441 14.0596 23.9925C14.8568 23.3409 15.4042 22.4337 15.6091 21.4247H20.6885C21.0335 21.4239 21.3708 21.3232 21.6598 21.1347C21.9487 20.9462 22.1769 20.6781 22.3166 20.3626C22.4564 20.0472 22.5018 19.6981 22.4473 19.3575C22.3928 19.0168 22.2408 18.6992 22.0097 18.4431ZM11.2348 23.2101C10.6823 23.2086 10.1438 23.0362 9.6931 22.7165C9.24241 22.3969 8.90162 21.9457 8.71744 21.4247H13.7523C13.5681 21.9457 13.2273 22.3969 12.7766 22.7165C12.3259 23.0362 11.7874 23.2086 11.2348 23.2101ZM1.78118 19.6393C1.82153 19.6019 1.85747 19.56 1.88831 19.5144L3.45053 17.2648C3.86728 16.6677 4.09155 15.9575 4.09327 15.2294V8.92697C4.09327 7.03291 4.84568 5.21642 6.18499 3.87711C7.5243 2.53781 9.34079 1.78539 11.2348 1.78539C13.1289 1.78539 14.9454 2.53781 16.2847 3.87711C17.624 5.21642 18.3764 7.03291 18.3764 8.92697V15.2294C18.3782 15.9575 18.6024 16.6677 19.0192 17.2648L20.5814 19.5144C20.6122 19.56 20.6482 19.6019 20.6885 19.6393H1.78118Z" fill="#AAAAAA"/>
</svg>
