<svg width="200" height="234" viewBox="0 0 200 234" fill="none" xmlns="http://www.w3.org/2000/svg">
<rect x="0.5" y="0.5" width="199" height="232.284" rx="9.5" fill="white" stroke="#E6E6E6"/>
<path d="M39.3577 196.593C72.785 214.185 126.981 214.186 160.408 196.593C193.835 179 193.835 150.478 160.408 132.885C126.981 115.292 72.7846 115.292 39.3573 132.885C5.92999 150.477 5.92999 179.001 39.3577 196.593Z" fill="#F5F5F5"/>
<path d="M25.0272 174.584L26.5784 175.469C27.075 175.754 27.8799 175.753 28.376 175.467L100.07 134.135C100.566 133.849 100.565 133.387 100.069 133.102L98.5285 132.225C98.0314 131.94 97.2266 131.941 96.7304 132.227L25.026 173.551C24.5298 173.837 24.5306 174.299 25.0272 174.584Z" fill="#E0E0E0"/>
<path d="M144.003 185.967C135.459 190.646 121.606 190.646 113.061 185.967C104.517 181.29 104.517 173.705 113.061 169.027C121.606 164.349 135.458 164.349 144.003 169.027C152.548 173.705 152.548 181.29 144.003 185.967Z" fill="#FFE1E2"/>
<path d="M26.9524 173.541L26.6375 173.36C26.1338 173.07 25.7256 172.364 25.7256 171.783V65.6205C25.7256 65.0396 26.1338 64.3337 26.6375 64.0433L95.1395 24.5528C95.6432 24.2624 96.4597 24.2624 96.9633 24.5528L97.2782 24.7342C97.7818 25.0246 98.1901 25.7306 98.1901 26.3114V132.474C98.1901 133.055 97.7818 133.76 97.2782 134.051L28.7761 173.541C28.2725 173.832 27.4556 173.832 26.9524 173.541Z" fill="#0071BC"/>
<path opacity="0.4" d="M98.1821 26.1651C98.1199 25.6928 97.7378 25.5213 97.2794 25.7835L28.7752 65.2773C28.5222 65.4203 28.2977 65.673 28.1305 65.9547L25.9956 64.7243C26.1578 64.438 26.3872 64.1902 26.6403 64.0423L95.1399 24.5531C95.646 24.2623 96.4629 24.2623 96.9641 24.5531L97.2794 24.7345C97.7382 25.0018 98.1249 25.617 98.1821 26.1651Z" fill="white"/>
<path opacity="0.1" d="M28.6217 173.613C28.1201 173.828 27.4086 173.804 26.9547 173.542L26.6349 173.36C26.1333 173.069 25.7275 172.363 25.7275 171.782V65.6211C25.7275 65.3303 25.8279 65.0059 25.9951 64.7246L28.1301 65.955C27.9678 66.2413 27.8625 66.5653 27.8625 66.8515V173.017C27.8625 173.537 28.1919 173.78 28.6217 173.613Z" fill="black"/>
<path d="M35.9433 135.146L35.6284 134.965C35.1248 134.675 34.7166 133.968 34.7166 133.388V114.306C34.7166 113.725 35.1248 113.019 35.6284 112.729L97.8203 76.8399C98.324 76.5495 99.1404 76.5495 99.6441 76.8399L99.959 77.0213C100.463 77.3118 100.871 78.0177 100.871 78.5985V97.6801C100.871 98.2609 100.463 98.9669 99.959 99.2573L37.7671 135.146C37.2634 135.437 36.447 135.437 35.9433 135.146Z" fill="#EBEBEB"/>
<path d="M100.861 78.4522C100.799 77.9799 100.417 77.8084 99.9582 78.0706L37.7642 113.963C37.5112 114.106 37.2867 114.36 37.1195 114.641L34.9846 113.41C35.1472 113.124 35.3763 112.876 35.6293 112.728L97.8187 76.8402C98.3249 76.5494 99.1418 76.5494 99.6429 76.8402L99.9582 77.0212C100.417 77.2884 100.804 77.9037 100.861 78.4522Z" fill="#FAFAFA"/>
<path d="M37.6126 135.218C37.1111 135.432 36.3996 135.408 35.9457 135.146L35.6258 134.965C35.1242 134.674 34.7185 133.968 34.7185 133.387V114.307C34.7185 114.016 34.8189 113.691 34.9861 113.41L37.121 114.641C36.9588 114.927 36.8534 115.251 36.8534 115.537V134.622C36.8534 135.141 37.1828 135.385 37.6126 135.218Z" fill="#E0E0E0"/>
<path d="M46.5618 112.683C50.1089 110.638 52.9844 112.229 52.9839 116.237C52.9835 120.245 50.1047 125.119 46.5543 127.123C43.0034 129.127 40.1251 127.534 40.1267 123.568C40.1284 119.6 43.0146 114.728 46.5618 112.683Z" fill="#0071BC"/>
<path d="M35.9433 161.006L35.6284 160.824C35.1248 160.534 34.7166 159.828 34.7166 159.247V140.166C34.7166 139.585 35.1248 138.879 35.6284 138.588L97.8203 102.699C98.324 102.409 99.1404 102.409 99.6441 102.699L99.959 102.881C100.463 103.171 100.871 103.877 100.871 104.458V123.539C100.871 124.12 100.463 124.826 99.959 125.117L37.7671 161.006C37.2634 161.296 36.447 161.296 35.9433 161.006Z" fill="#EBEBEB"/>
<path d="M100.861 104.312C100.799 103.839 100.417 103.668 99.9582 103.93L37.7642 139.823C37.5112 139.966 37.2867 140.219 37.1195 140.5L34.9846 139.27C35.1472 138.984 35.3763 138.736 35.6293 138.588L97.8187 102.7C98.3249 102.409 99.1418 102.409 99.6429 102.7L99.9582 102.881C100.417 103.148 100.804 103.763 100.861 104.312Z" fill="#FAFAFA"/>
<path d="M37.6126 161.078C37.1111 161.292 36.3996 161.268 35.9457 161.006L35.6258 160.824C35.1242 160.534 34.7185 159.828 34.7185 159.246V140.166C34.7185 139.875 34.8189 139.551 34.9861 139.27L37.121 140.5C36.9588 140.786 36.8534 141.11 36.8534 141.396V160.481C36.8534 161.001 37.1828 161.244 37.6126 161.078Z" fill="#E0E0E0"/>
<path d="M46.5618 138.542C50.1089 136.497 52.9844 138.088 52.9839 142.096C52.9835 146.104 50.1047 150.978 46.5543 152.982C43.0034 154.986 40.1251 153.394 40.1267 149.427C40.1284 145.46 43.0146 140.587 46.5618 138.542Z" fill="#0071BC"/>
<path d="M35.9433 91.9013L35.6284 91.7198C35.1248 91.4294 34.7166 90.7231 34.7166 90.1426V71.0611C34.7166 70.4802 35.1248 69.7743 35.6284 69.4839L97.8203 33.5948C98.324 33.3043 99.1404 33.3043 99.6441 33.5948L99.959 33.7762C100.463 34.0666 100.871 34.7726 100.871 35.3534V54.435C100.871 55.0158 100.463 55.7217 99.959 56.0122L37.7671 91.9013C37.2634 92.1917 36.447 92.1917 35.9433 91.9013Z" fill="#EBEBEB"/>
<path d="M100.861 35.2071C100.799 34.7348 100.417 34.5633 99.9582 34.8255L37.7642 70.7184C37.5112 70.8613 37.2867 71.114 37.1195 71.3957L34.9846 70.1653C35.1472 69.879 35.3763 69.6313 35.6293 69.4834L97.8187 33.5951C98.3249 33.3042 99.1418 33.3042 99.6429 33.5951L99.9582 33.7765C100.417 34.0433 100.804 34.6585 100.861 35.2071Z" fill="#FAFAFA"/>
<path d="M37.6126 91.9726C37.1111 92.1872 36.3996 92.1636 35.9457 91.9009L35.6258 91.7199C35.1242 91.4291 34.7185 90.7231 34.7185 90.1415V71.0616C34.7185 70.7707 34.8189 70.4463 34.9861 70.165L37.121 71.3955C36.9588 71.6817 36.8534 72.0057 36.8534 72.292V91.3764C36.8534 91.8964 37.1828 92.1396 37.6126 91.9726Z" fill="#E0E0E0"/>
<path d="M46.5618 69.4377C50.1089 67.3928 52.9844 68.9837 52.9839 72.9919C52.9835 76.9997 50.1047 81.8737 46.5543 83.8776C43.0034 85.8819 40.1251 84.289 40.1267 80.3222C40.1284 76.355 43.0146 71.4826 46.5618 69.4377Z" fill="#0071BC"/>
<path d="M40.3176 116.128L40.0027 115.946C39.4991 115.656 39.0908 114.95 39.0908 114.369V95.2876C39.0908 94.7068 39.4991 94.0009 40.0027 93.7104L102.195 57.8213C102.698 57.5309 103.515 57.5309 104.018 57.8213L104.333 58.0028C104.837 58.2932 105.245 58.9996 105.245 59.58V78.6615C105.245 79.2424 104.837 79.9483 104.333 80.2387L42.1414 116.128C41.6377 116.418 40.8212 116.418 40.3176 116.128Z" fill="#EB2027"/>
<path d="M105.235 59.4336C105.173 58.9613 104.791 58.7898 104.332 59.0521L42.1385 94.9449C41.8854 95.0878 41.661 95.341 41.4938 95.6223L39.3589 94.3918C39.5211 94.1056 39.7505 93.8578 40.0036 93.7099L102.193 57.8216C102.699 57.5308 103.516 57.5308 104.017 57.8216L104.332 58.0031C104.791 58.2699 105.178 58.8851 105.235 59.4336Z" fill="#A6080E"/>
<path d="M41.9865 116.199C41.4849 116.414 40.7734 116.39 40.32 116.127L40.0001 115.946C39.4985 115.656 39.0928 114.95 39.0928 114.368V95.2881C39.0928 94.9973 39.1932 94.6729 39.3604 94.3916L41.4953 95.622C41.3331 95.9083 41.2277 96.2323 41.2277 96.5185V115.603C41.2269 116.123 41.5567 116.366 41.9865 116.199Z" fill="#82060B"/>
<path d="M50.9355 93.6635C54.4827 91.6182 57.3581 93.2094 57.3577 97.2176C57.3573 101.225 54.4785 106.1 50.9281 108.103C47.3772 110.108 44.4988 108.515 44.5005 104.548C44.5026 100.581 47.3884 95.7084 50.9355 93.6635Z" fill="#F5F5F5"/>
<path d="M51.0613 105.192C50.7593 105.366 50.4718 105.381 50.2734 105.231L47.4523 103.1C47.0752 102.816 47.1225 102.03 47.5581 101.344C47.9929 100.657 48.6525 100.334 49.0276 100.619L50.9941 102.104L56.4546 90.3841C56.796 89.6521 57.4478 89.162 57.9112 89.2871C58.3754 89.4122 58.475 90.1074 58.1344 90.8382L51.901 104.218C51.713 104.621 51.4193 104.97 51.1024 105.168C51.0891 105.176 51.075 105.184 51.0613 105.192Z" fill="#0071BC"/>
<path d="M105.226 87.7721L103.423 86.7323V86.7368C102.638 86.2869 101.68 86.7319 101.172 87.043L100.047 86.3946C98.6815 85.571 96.7834 87.2936 96.3586 87.7071L95.872 87.4266L95.8724 87.4274C94.4245 86.5554 91.7934 88.8882 91.7934 88.8882V80.2081L92.9364 79.655L91.1176 78.6048C91.1163 78.604 91.1151 78.6032 91.1134 78.6023L91.101 78.5949L91.1006 78.5961C90.6828 78.3637 90.1111 78.401 89.4792 78.7652C88.201 79.5022 87.1651 81.2944 87.1651 82.768V102.889C85.5019 101.657 83.7329 100.901 82.1813 101.177C80.7823 101.425 79.5323 102.615 79.1693 103.254C78.4039 104.601 79.6667 105.447 81.2934 107.305C82.9056 109.146 84.3282 111.364 85.7969 112.732C87.2659 114.1 88.3305 114.456 88.3305 114.456V117.079L90.1177 118.109L101.929 109.239V106.616C101.929 106.616 103.617 99.8978 104.156 97.0898C104.675 94.3858 105.152 90.0756 104.261 87.8372L105.226 87.7717L105.226 87.7721Z" fill="#0071BC"/>
<path opacity="0.4" d="M105.226 87.7721L103.423 86.7323V86.7368C102.638 86.2869 101.68 86.7319 101.172 87.043L100.047 86.3946C98.6815 85.571 96.7834 87.2936 96.3586 87.7071L95.872 87.4266L95.8724 87.4274C94.4245 86.5554 91.7934 88.8882 91.7934 88.8882V80.2081L92.9364 79.655L91.1176 78.6048C91.1163 78.604 91.1151 78.6032 91.1134 78.6023L91.101 78.5949L91.1006 78.5961C90.6828 78.3637 90.1111 78.401 89.4792 78.7652C88.201 79.5022 87.1651 81.2944 87.1651 82.768V102.889C85.5019 101.657 83.7329 100.901 82.1813 101.177C80.7823 101.425 79.5323 102.615 79.1693 103.254C78.4039 104.601 79.6667 105.447 81.2934 107.305C82.9056 109.146 84.3282 111.364 85.7969 112.732C87.2659 114.1 88.3305 114.456 88.3305 114.456V117.079L90.1177 118.109L101.929 109.239V106.616C101.929 106.616 103.617 99.8978 104.156 97.0898C104.675 94.3858 105.152 90.0756 104.261 87.8372L105.226 87.7717L105.226 87.7721Z" fill="white"/>
<path d="M91.9026 110.898L82.9672 105.746L79.0537 103.49C78.5559 104.706 79.7631 105.558 81.2927 107.305C82.9049 109.146 84.3275 111.364 85.7962 112.732C87.2652 114.1 88.3298 114.456 88.3298 114.456V117.079L90.117 118.11L92.7266 116.15C92.3889 113.921 91.9026 110.898 91.9026 110.898Z" fill="#0071BC"/>
<path d="M88.9535 83.7989L87.1663 82.7686V103.874L88.9535 103.92V83.7989Z" fill="#0071BC"/>
<path d="M102.968 89.127L104.352 88.107C104.322 88.0163 104.294 87.9231 104.261 87.8381L104.763 87.8038L103.653 87.7532L101.797 86.7324C101.556 86.8269 101.338 86.9412 101.172 87.0431L101.752 87.3799L102.968 89.127Z" fill="#0071BC"/>
<path d="M98.059 88.8244L99.3601 87.8359L97.567 86.7529C96.9982 87.1084 96.5418 87.5285 96.3589 87.7066L97.6035 88.4254L98.059 88.8244Z" fill="#0071BC"/>
<path d="M95.3469 88.7285L93.5737 87.6923L93.5812 87.6758V89.9183L95.6481 89.161L95.3469 88.7285Z" fill="#0071BC"/>
<g opacity="0.15">
<path d="M91.9026 110.898L82.9672 105.746L79.0537 103.49C78.5559 104.706 79.7631 105.558 81.2927 107.305C82.9049 109.146 84.3275 111.364 85.7962 112.732C87.2652 114.1 88.3298 114.456 88.3298 114.456V117.079L90.117 118.11L92.7266 116.15C92.3889 113.921 91.9026 110.898 91.9026 110.898Z" fill="black"/>
<path d="M88.9535 83.7989L87.1663 82.7686V103.874L88.9535 103.92V83.7989Z" fill="black"/>
<path d="M102.968 89.127L104.352 88.107C104.322 88.0163 104.294 87.9231 104.261 87.8381L104.763 87.8038L103.653 87.7532L101.797 86.7324C101.556 86.8269 101.338 86.9412 101.172 87.0431L101.752 87.3799L102.968 89.127Z" fill="black"/>
<path d="M98.059 88.8244L99.3601 87.8359L97.567 86.7529C96.9982 87.1084 96.5418 87.5285 96.3589 87.7066L97.6035 88.4254L98.059 88.8244Z" fill="black"/>
<path d="M95.3469 88.7285L93.5737 87.6923L93.5812 87.6758V89.9183L95.6481 89.161L95.3469 88.7285Z" fill="black"/>
</g>
<path d="M90.1226 118.11V115.487C90.1226 115.487 89.0581 115.131 87.589 113.763C86.12 112.395 84.6978 110.177 83.0856 108.336C81.4589 106.478 80.1956 105.633 80.9615 104.285C81.3245 103.646 82.5741 102.456 83.9734 102.208C85.5254 101.932 87.294 102.688 88.9573 103.92V83.799C88.9573 82.325 89.9932 80.5332 91.2714 79.7962C92.5496 79.0592 93.5855 79.6566 93.5855 81.1306V89.9192C93.5855 89.9192 96.7746 87.0909 98.0632 88.8255C98.0632 88.8255 101.196 85.5481 102.611 88.3164C102.611 88.3164 104.911 86.4612 105.949 88.6142C106.986 90.7673 106.488 95.3141 105.949 98.1217C105.41 100.929 103.722 107.648 103.722 107.648V110.271L90.1226 118.11Z" fill="#0071BC"/>
<path d="M93.5882 93.693C93.5882 93.693 93.8787 89.6832 95.3539 88.7295C95.3535 88.7295 95.3328 88.7357 95.3012 88.7448C94.362 89.2341 93.5882 89.9193 93.5882 89.9193V89.8435C93.5721 89.8941 93.5882 89.9193 93.5882 89.9193V93.693Z" fill="#455A64"/>
<path d="M98.0659 88.8246V92.4931C98.0659 92.4931 98.4733 88.721 99.3201 87.8096C98.599 88.2686 98.0692 88.8217 98.0659 88.8246Z" fill="#455A64"/>
<path d="M102.613 88.3158V91.9976C102.613 91.9976 102.838 88.2885 103.638 87.7412C103.056 87.96 102.616 88.3138 102.613 88.3158Z" fill="#455A64"/>
<path d="M89.473 76.231C89.1859 76.3963 88.9531 76.2981 88.9531 76.0114V73.1003C88.9531 72.8136 89.1859 72.4469 89.473 72.2816C89.76 72.1159 89.9928 72.2145 89.9928 72.5008V75.412C89.9928 75.6991 89.76 76.0657 89.473 76.231Z" fill="#EBEBEB"/>
<path d="M85.1159 80.8226C84.913 81.1735 84.5836 81.3633 84.3808 81.2464L82.6939 80.2737C82.491 80.1569 82.491 79.7774 82.6939 79.4261C82.8968 79.0752 83.2262 78.8854 83.4291 79.0022L85.1159 79.9746C85.3192 80.0918 85.3192 80.4713 85.1159 80.8226Z" fill="#EBEBEB"/>
<path d="M83.3124 86.8427V86.9259C83.3124 87.2337 83.0623 87.6277 82.754 87.8055L80.4461 89.1361C80.1379 89.3139 79.8877 89.2082 79.8877 88.9004V88.8171C79.8877 88.5093 80.1379 88.1153 80.4461 87.9372L82.754 86.6065C83.0627 86.4292 83.3124 86.5348 83.3124 86.8427Z" fill="#EBEBEB"/>
<path d="M95.6287 79.8236V79.7403C95.6287 79.4325 95.8788 79.0385 96.1871 78.8603L98.495 77.5297C98.8032 77.3519 99.0534 77.4576 99.0534 77.7654V77.8487C99.0534 78.1565 98.8032 78.5505 98.495 78.7286L96.1871 80.0593C95.8788 80.237 95.6287 80.1314 95.6287 79.8236Z" fill="#EBEBEB"/>
<path d="M93.827 75.8005C93.6241 75.6832 93.6241 75.3037 93.827 74.9528L95.5138 72.0354C95.7167 71.6845 96.0457 71.4948 96.249 71.6116C96.4518 71.7284 96.4518 72.1079 96.249 72.4593L94.5621 75.3766C94.3592 75.728 94.0302 75.9177 93.827 75.8005Z" fill="#EBEBEB"/>
<path d="M138.424 124.66C138.743 112.825 137.793 109.989 134.637 107.821L133.415 114.679C133.415 114.679 134.852 122.76 134.698 125.451C134.562 127.816 134.332 130.774 133.772 132.685C133.673 133.024 133.444 133.309 133.144 133.496C132.341 133.997 132.017 134.513 131.412 135.145C130.938 135.641 130.534 135.764 130.597 135.922C130.677 136.124 131.015 136.452 131.596 136.275C131.888 136.186 132.265 135.958 132.736 135.658C132.736 135.658 132.4 136.644 131.569 137.661C130.442 139.04 130.392 139.887 132.667 139.907C134.092 139.92 135.23 139.042 136.302 135.906C136.611 135.002 137.095 133.576 137.304 132.384C137.849 129.28 138.372 126.565 138.424 124.66Z" fill="#B16668"/>
<path d="M131.981 106.922C133.487 106.704 135.534 107.019 136.856 109.381C138.178 111.742 138.503 115.805 138.653 119.845C138.653 119.845 136.027 122.038 132.876 120.959L131.981 106.922Z" fill="#0071BC"/>
<path opacity="0.1" d="M131.981 106.922C133.487 106.704 135.534 107.019 136.856 109.381C138.178 111.742 138.503 115.805 138.653 119.845C138.653 119.845 136.027 122.038 132.876 120.959L131.981 106.922Z" fill="black"/>
<path d="M136.414 172.012C136.653 172.103 136.714 172.558 136.75 173.462C136.777 174.146 136.924 175.341 136.121 175.579C135.318 175.818 134.143 175.696 133.628 175.051C132.986 174.246 132.552 173.537 131.636 172.555C130.841 171.702 129.981 170.907 129.66 169.712C129.37 168.632 129.611 168.163 130.349 167.849C131.364 167.418 132.958 168.828 133.753 169.05C134.438 169.242 136.175 171.922 136.414 172.012Z" fill="#263238"/>
<path d="M136.413 171.175V172.286C136.413 172.286 135.257 173.173 133.603 172.362C133.555 172.255 133.311 170.773 133.311 170.773L136.413 171.175Z" fill="#B16668"/>
<path d="M127.408 178.412C127.408 178.412 127.727 179.378 127.9 180.223C128.036 180.894 128.232 182.016 127.997 182.521C127.761 183.026 126.843 183.352 125.419 183.341C124.497 183.334 123.06 183.959 122.076 184.507C121.06 185.074 118.946 185.299 117.871 185.173C116.605 185.025 115.292 184.291 115.088 183.767C114.883 183.244 115.155 182.7 118.14 181.429C118.168 181.418 122.29 180.079 123.735 178.487L127.408 178.412Z" fill="#263238"/>
<path d="M127.407 177.212C127.407 177.212 127.403 178.036 127.407 178.507C127.411 178.978 126.854 179.68 125.412 179.628C124.4 179.592 123.693 179.321 123.733 178.487V177.287L127.407 177.212Z" fill="#B16668"/>
<path d="M137.139 156.439C136.63 152.81 135.826 150.655 135.826 150.655C135.826 150.655 136.223 145.666 136.413 140.935C136.619 135.824 136.402 129.401 136.499 128.126C136.499 128.126 119.987 124.79 119.692 130.697C119.398 136.604 120.344 151.641 120.539 154.236C120.734 156.832 121.184 159.127 121.72 163.332C122.25 167.484 123.735 177.286 123.735 177.286C125.622 178.305 127.41 177.211 127.41 177.211C127.41 177.211 128.572 165.4 128.45 162.406C128.301 158.749 127.312 155.87 127.312 155.87C127.312 155.87 127.626 150.999 127.902 146.762C128.178 142.525 128.471 140.49 128.535 138.648L128.891 138.472C128.891 138.472 129.253 145.781 129.448 148.376C129.644 150.971 130.057 153.46 130.809 158.28C131.461 162.461 133.403 171.309 133.403 171.309C135.29 172.327 136.415 171.175 136.415 171.175C136.415 171.175 137.648 160.067 137.139 156.439Z" fill="#37474F"/>
<path d="M128.534 138.647C128.534 138.647 132.539 136.676 134.545 134.898C134.545 134.898 132.683 137.518 130.239 138.679C130.239 138.679 129.37 147.759 129.375 147.579L128.873 138.634L128.534 138.647Z" fill="#263238"/>
<path d="M124.969 105.051L125.947 110.422L130.805 110.067L129.784 103.979L124.969 105.051Z" fill="#B16668"/>
<path d="M135.936 109.675C135.455 108.215 133.6 106.626 131.744 106.971C128.334 107.603 125.628 108.279 123.614 108.998C121.915 109.604 120.367 111.071 120.226 116.653C120.226 116.653 119.657 129.668 119.646 132.184C123.914 133.871 128.353 133.819 130.806 133.283C135.913 132.169 136.529 130.054 136.529 130.054C136.529 130.054 136.595 120.695 136.442 116.653C136.312 113.219 136.266 110.678 135.936 109.675Z" fill="#0071BC"/>
<path d="M121.218 98.5186C121.218 98.5186 119.986 100.48 120.135 100.666C120.285 100.853 121.227 101.003 121.227 101.003L121.218 98.5186Z" fill="#B16668"/>
<path d="M124.639 93.0925C122.07 93.6945 121.351 94.8441 121.2 98.9439C121.042 103.228 121.51 104.563 122.085 105.126C122.474 105.506 124.587 105.529 125.646 105.212C126.97 104.815 129.959 103.681 131.322 101.498C132.924 98.9282 133.283 95.4871 131.474 94.1196C128.929 92.1948 125.684 92.8477 124.639 93.0925Z" fill="#B16668"/>
<path d="M125.02 105.345C125.892 104.645 125.814 104.193 125.814 104.193C125.188 104.776 122.875 105.276 122.085 105.126C122.407 105.441 123.911 105.51 125.02 105.345Z" fill="#9A4A4D"/>
<path d="M121.235 94.1596C121.989 95.4484 123.625 96.0645 123.625 96.0645C124.117 96.625 123.846 98.8104 124.713 99.1571C124.713 99.1571 125.085 97.5667 126.424 97.7353C127.772 97.9051 127.992 99.6112 127.17 100.669C126.346 101.727 125.548 101.347 125.548 101.347C125.548 101.347 125.64 103.606 126.672 104.863C126.672 104.863 127.822 105.207 129.911 104.712C131.195 104.409 132.983 102.757 133.711 101.035C135.252 97.3906 135.293 94.1422 132.964 93.2212C132.677 91.5645 131.35 90.8486 129.848 90.5396C126.615 89.8742 124.531 91.8889 122.043 91.7141C120.618 91.6138 120.352 92.6495 121.235 94.1596Z" fill="#263238"/>
<path d="M133.009 93.7765L134.533 92.8327C134.272 92.4126 133.719 92.283 133.298 92.544C132.878 92.8041 132.748 93.356 133.009 93.7765Z" fill="#263238"/>
<path d="M123.743 108.975C123.743 108.975 121.328 109.42 120.066 111.327C118.804 113.234 113.348 120.067 113.348 120.067C113.348 120.067 105.497 116.144 105.111 115.679C104.725 115.213 104.942 114.273 105.049 113.755C105.155 113.238 105.331 112.088 105.446 111.765C105.648 111.201 104.812 111.353 104.32 111.88C103.816 112.42 103.609 113.438 103.363 113.615C103.118 113.792 101.25 111.647 100.343 110.611C99.4366 109.576 99.0114 108.852 98.404 109.279C97.9663 109.587 98.2472 110.201 98.8973 111.089C99.5474 111.976 99.642 112.071 99.7366 112.264C99.8145 112.422 99.5747 112.549 99.4793 112.634C99.3034 112.792 98.991 113.049 98.969 113.295C98.957 113.429 98.9815 113.567 98.9446 113.697C98.8599 113.992 98.494 114.13 98.3907 114.419C98.316 114.628 98.3982 114.863 98.3563 115.081C98.3293 115.221 98.2517 115.348 98.2264 115.489C98.1771 115.766 98.3359 116.036 98.5172 116.251C99.1541 117.008 100.025 117.297 100.86 117.758C101.554 118.142 102.27 118.31 103.07 118.664C103.869 119.019 113.28 125.965 114.748 125.156C116.215 124.347 123.744 115.564 123.744 115.564C125.929 111.947 123.743 108.975 123.743 108.975Z" fill="#B16668"/>
<path d="M124.583 108.691C123.544 108.811 122.09 108.618 120.056 110.8C118.022 112.981 115.479 116.681 115.479 116.681C115.479 116.681 116.185 120.218 120.031 120.96C120.031 120.96 123.592 117.317 124.583 115.311C125.573 113.304 125.806 110.045 124.583 108.691Z" fill="#0071BC"/>
<path opacity="0.1" d="M124.583 108.691C123.544 108.811 122.09 108.618 120.056 110.8C118.022 112.981 115.479 116.681 115.479 116.681C115.479 116.681 116.185 120.218 120.031 120.96C120.031 120.96 123.592 117.317 124.583 115.311C125.573 113.304 125.806 110.045 124.583 108.691Z" fill="black"/>
</svg>
