<svg width="200" height="234" viewBox="0 0 200 234" fill="none" xmlns="http://www.w3.org/2000/svg">
<rect x="0.5" y="0.5" width="199" height="232.284" rx="9.5" fill="white" stroke="#E6E6E6"/>
<path opacity="0.5" d="M96.679 190.688L24.0145 148.794C21.9589 147.609 22.2165 145.539 24.5905 144.17L74.0697 115.654C76.4432 114.285 80.0337 114.136 82.0894 115.322L154.754 157.216C156.81 158.401 156.552 160.471 154.178 161.839L104.699 190.356C102.325 191.724 98.7347 191.873 96.679 190.688Z" fill="#0071BC"/>
<path d="M179.004 68.1602L100.916 23.1394C100.009 22.6164 99.0867 22.5359 98.2696 22.8156L98.2745 22.8076L98.1328 22.8613C98.1213 22.8657 98.1094 22.8697 98.098 22.8742L95.2758 23.9524L97.8085 25.1907C97.797 25.2374 97.7826 25.2806 97.7722 25.3282L83.9744 87.9871C83.3378 90.8807 84.6125 94.2586 86.8214 95.5321L163.032 139.47L162.76 142.695L165.844 141.502C166.88 141.017 167.71 139.923 168.053 138.365L181.851 75.7057C182.488 72.8121 181.213 69.4337 179.004 68.1602Z" fill="#0071BC"/>
<path d="M179.002 68.1602L100.914 23.1394C100.007 22.6164 99.0848 22.5359 98.2676 22.8156L98.2726 22.8076L98.1308 22.8613C98.1194 22.8657 98.1074 22.8697 98.096 22.8742L95.2739 23.9524L97.8065 25.1907C97.7951 25.2374 97.7807 25.2806 97.7702 25.3282L88.3091 68.2754L126.517 98.0011L181.468 71.2679C180.951 69.9279 180.091 68.788 179.002 68.1602Z" fill="#396CAA"/>
<path d="M176.058 77.0475L182.002 74.5199C182.111 72.2213 181.158 69.8462 179.593 68.5762L170.184 72.5287L176.058 77.0475Z" fill="#274F89"/>
<path d="M160.046 142.388L81.9571 97.3674C79.7483 96.0939 78.4735 92.716 79.1102 89.8223L92.9079 27.1635C93.5446 24.2699 95.8514 22.9572 98.0603 24.2306L176.149 69.2515C178.357 70.525 179.632 73.9029 178.996 76.7965L165.198 139.455C164.561 142.349 162.255 143.662 160.046 142.388Z" fill="#D4ECFF"/>
<path d="M176.901 68.9776L98.8123 23.9572C97.742 23.3404 96.6527 23.3409 95.7375 23.8236C96.4722 23.6632 97.272 23.775 98.0623 24.2309L176.151 69.2512C178.36 70.5247 179.634 73.9031 178.998 76.7968L165.2 139.456C164.872 140.947 164.097 142.008 163.123 142.522C164.441 142.234 165.542 141.04 165.95 139.181L179.748 76.5226C180.384 73.6294 179.11 70.2511 176.901 68.9776Z" fill="white"/>
<path d="M158.353 138.088L84.9131 95.768C82.8917 94.6028 81.7249 91.5114 82.3078 88.8636L95.0253 31.1145C95.6077 28.4667 97.7186 27.2652 99.7399 28.4304L173.18 70.7508C175.202 71.916 176.368 75.0073 175.786 77.6551L163.068 135.404C162.486 138.053 160.375 139.254 158.353 138.088Z" fill="white"/>
<path d="M158.353 138.088L84.9131 95.768C82.8917 94.6028 81.7249 91.5114 82.3078 88.8636L95.0253 31.1145C95.6077 28.4667 97.7186 27.2652 99.7399 28.4304L173.18 70.7508C175.202 71.916 176.368 75.0073 175.786 77.6551L163.068 135.404C162.486 138.053 160.375 139.254 158.353 138.088Z" fill="#0071BC"/>
<path d="M158.993 137.828L85.5525 95.5077C83.5312 94.3425 82.3648 91.2512 82.9472 88.6039L95.6647 30.8542C95.9597 29.5142 96.647 28.5491 97.5154 28.0693C96.3511 28.3683 95.3892 29.4585 95.0251 31.1145L82.3076 88.8636C81.7252 91.5114 82.8915 94.6027 84.9129 95.768L158.354 138.088C159.352 138.664 160.371 138.658 161.218 138.189C160.52 138.369 159.75 138.265 158.993 137.828Z" fill="#5793CE"/>
<path d="M161.125 144.35L150.451 142.942L81.5471 103.216C79.3382 101.943 75.4796 102.102 72.9285 103.573L24.1034 131.712L17.6489 130.861V134.518L17.6554 134.519C17.6131 135.364 18.0951 136.177 19.1371 136.778L97.2255 181.799C99.4343 183.072 103.293 182.913 105.844 181.442L159.016 150.796C160.451 149.969 161.166 148.903 161.125 147.902L161.125 144.35Z" fill="#0071BC"/>
<path d="M109.353 119.247L104.457 116.425H50.6365L24.1034 131.712L17.6489 130.861V134.518L17.6554 134.519C17.6131 135.364 18.0951 136.177 19.1371 136.778L97.2255 181.798C98.3928 182.471 100.021 182.74 101.674 182.631L109.353 119.247Z" fill="#396CAA"/>
<path d="M20.5133 131.239L17.6489 130.861V134.518L17.6554 134.519C17.6131 135.365 18.0951 136.178 19.1371 136.778L20.5133 137.571V131.239Z" fill="#5793CE"/>
<path d="M98.0083 182.164C100.102 182.956 103.095 182.784 105.331 181.71V173.553H98.0083V182.164Z" fill="#274F89"/>
<path d="M97.2246 178.145L19.1362 133.125C16.9274 131.851 17.2044 129.627 19.7549 128.156L72.9272 97.5104C75.4777 96.0397 79.3364 95.8803 81.5457 97.1538L159.634 142.175C161.843 143.448 161.566 145.673 159.015 147.143L105.843 177.789C103.292 179.26 99.4339 179.419 97.2246 178.145Z" fill="#D4ECFF"/>
<path d="M159.017 145.808L105.844 176.454C103.294 177.924 99.4353 178.084 97.2259 176.811L19.1376 131.79C18.4134 131.372 17.9613 130.852 17.7643 130.29C17.4186 131.334 17.8593 132.388 19.1376 133.126L97.2259 178.147C99.4348 179.42 103.293 179.261 105.844 177.79L159.017 147.145C160.731 146.156 161.413 144.828 161.009 143.676C160.757 144.435 160.092 145.188 159.017 145.808Z" fill="white"/>
<path d="M52.3472 118.221L48.8138 116.184C48.5303 116.021 48.5656 115.735 48.8934 115.546L53.0639 113.141C53.3916 112.953 53.887 112.932 54.1705 113.096L57.7039 115.133C57.9874 115.296 57.9521 115.582 57.6243 115.771L53.4538 118.175C53.126 118.364 52.6307 118.384 52.3472 118.221Z" fill="#5793CE"/>
<path d="M57.8022 121.366L54.2689 119.33C53.9853 119.166 54.0207 118.881 54.3484 118.691L58.519 116.287C58.8467 116.098 59.3421 116.078 59.6256 116.241L63.159 118.278C63.4425 118.442 63.4072 118.727 63.0794 118.916L58.9089 121.321C58.5811 121.509 58.0857 121.53 57.8022 121.366Z" fill="#5793CE"/>
<path d="M63.2593 124.512L59.7259 122.475C59.4424 122.312 59.4777 122.026 59.8055 121.837L63.976 119.433C64.3038 119.244 64.7991 119.223 65.0826 119.387L68.616 121.424C68.8995 121.587 68.8642 121.873 68.5364 122.062L64.3659 124.466C64.0382 124.655 63.5428 124.676 63.2593 124.512Z" fill="#5793CE"/>
<path d="M70.8049 121.915L67.2715 119.878C66.988 119.715 67.0233 119.429 67.3511 119.24L70.8517 117.221C71.1794 117.033 71.6748 117.012 71.9583 117.176L75.4917 119.213C75.7752 119.376 75.7399 119.662 75.4121 119.851L71.9116 121.869C71.5843 122.058 71.0884 122.078 70.8049 121.915Z" fill="#5793CE"/>
<path d="M76.2619 125.061L72.7286 123.024C72.4451 122.86 72.4804 122.575 72.8082 122.385L76.3087 120.367C76.6365 120.178 77.1319 120.158 77.4154 120.321L80.9487 122.358C81.2322 122.522 81.1969 122.807 80.8692 122.996L77.3686 125.015C77.0413 125.204 76.5455 125.224 76.2619 125.061Z" fill="#5793CE"/>
<path d="M81.7187 128.206L78.1854 126.169C77.9019 126.006 77.9372 125.72 78.2649 125.531L81.766 123.513C82.0938 123.324 82.5891 123.303 82.8727 123.467L86.406 125.504C86.6895 125.667 86.6542 125.953 86.3264 126.142L82.8254 128.161C82.4981 128.349 82.0027 128.37 81.7187 128.206Z" fill="#5793CE"/>
<path d="M87.1738 131.352L83.6404 129.315C83.3569 129.151 83.3922 128.865 83.72 128.677L87.2211 126.658C87.5488 126.469 88.0442 126.449 88.3277 126.612L91.8611 128.649C92.1446 128.813 92.1093 129.099 91.7815 129.287L88.2805 131.306C87.9532 131.495 87.4578 131.516 87.1738 131.352Z" fill="#5793CE"/>
<path d="M92.6306 134.497L89.0972 132.46C88.8137 132.297 88.849 132.011 89.1768 131.822L92.6773 129.804C93.0051 129.615 93.5005 129.594 93.784 129.758L97.3174 131.795C97.6009 131.958 97.5656 132.244 97.2378 132.433L93.7373 134.452C93.41 134.64 92.9146 134.661 92.6306 134.497Z" fill="#5793CE"/>
<path d="M98.0876 137.644L94.5543 135.607C94.2707 135.443 94.3061 135.157 94.6338 134.969L98.1349 132.95C98.4627 132.761 98.958 132.741 99.2415 132.904L102.775 134.941C103.058 135.105 103.023 135.391 102.695 135.579L99.1943 137.598C98.8665 137.787 98.3711 137.808 98.0876 137.644Z" fill="#5793CE"/>
<path d="M103.544 140.789L100.011 138.752C99.7275 138.589 99.7629 138.303 100.091 138.114L103.592 136.096C103.919 135.907 104.415 135.886 104.698 136.05L108.232 138.087C108.515 138.25 108.48 138.536 108.152 138.725L104.651 140.744C104.323 140.932 103.828 140.953 103.544 140.789Z" fill="#5793CE"/>
<path d="M108.998 143.935L105.464 141.898C105.181 141.735 105.216 141.449 105.544 141.26L109.044 139.241C109.372 139.052 109.867 139.032 110.151 139.196L113.684 141.232C113.968 141.396 113.933 141.682 113.605 141.871L110.104 143.889C109.776 144.078 109.281 144.098 108.998 143.935Z" fill="#5793CE"/>
<path d="M114.456 147.08L110.923 145.043C110.639 144.88 110.675 144.594 111.002 144.405L114.504 142.387C114.831 142.198 115.327 142.177 115.61 142.341L119.144 144.378C119.427 144.541 119.392 144.827 119.064 145.016L115.563 147.034C115.236 147.223 114.74 147.244 114.456 147.08Z" fill="#5793CE"/>
<path d="M119.913 150.227L116.38 148.19C116.096 148.027 116.132 147.741 116.46 147.552L119.961 145.533C120.288 145.344 120.784 145.324 121.067 145.488L124.601 147.524C124.884 147.688 124.849 147.973 124.521 148.163L121.02 150.181C120.693 150.37 120.197 150.39 119.913 150.227Z" fill="#5793CE"/>
<path d="M78.8476 120.425L75.3143 118.388C75.0308 118.225 75.0661 117.939 75.3938 117.75L78.8944 115.731C79.2222 115.543 79.7176 115.522 80.0011 115.686L83.5344 117.722C83.8179 117.886 83.7826 118.171 83.4549 118.361L79.9538 120.379C79.6265 120.568 79.1311 120.588 78.8476 120.425Z" fill="#5793CE"/>
<path d="M73.3066 117.232L69.7732 115.196C69.4897 115.032 69.5251 114.747 69.8528 114.557L73.3539 112.539C73.6816 112.35 74.177 112.33 74.4605 112.493L77.9939 114.53C78.2774 114.693 78.2421 114.979 77.9143 115.168L74.4133 117.187C74.086 117.376 73.5901 117.396 73.3066 117.232Z" fill="#5793CE"/>
<path d="M67.7615 114.035L60.1522 109.648C59.8686 109.484 59.904 109.198 60.2317 109.01L63.7323 106.991C64.0601 106.802 64.5554 106.782 64.839 106.945L72.4483 111.332C72.7318 111.496 72.6965 111.781 72.3687 111.971L68.8677 113.989C68.5409 114.178 68.045 114.198 67.7615 114.035Z" fill="#5793CE"/>
<path d="M71.6379 110.146L65.4625 106.585C65.179 106.422 65.2143 106.136 65.542 105.947L69.0426 103.929C69.3704 103.74 69.8657 103.719 70.1493 103.883L76.3247 107.443C76.6082 107.607 76.5729 107.892 76.2451 108.081L72.7446 110.1C72.4173 110.289 71.9219 110.309 71.6379 110.146Z" fill="#5793CE"/>
<path d="M84.3005 123.57L80.7671 121.533C80.4836 121.37 80.519 121.084 80.8467 120.895L84.3478 118.877C84.6755 118.688 85.1709 118.668 85.4544 118.831L88.9878 120.868C89.2713 121.031 89.236 121.317 88.9082 121.506L85.4072 123.525C85.0799 123.713 84.584 123.734 84.3005 123.57Z" fill="#5793CE"/>
<path d="M89.7576 126.717L86.2242 124.68C85.9407 124.517 85.976 124.231 86.3038 124.042L89.8048 122.023C90.1326 121.835 90.628 121.814 90.9115 121.978L94.4448 124.015C94.7283 124.178 94.693 124.464 94.3653 124.653L90.8642 126.671C90.5369 126.86 90.0411 126.88 89.7576 126.717Z" fill="#5793CE"/>
<path d="M95.2124 129.862L91.679 127.825C91.3955 127.662 91.4308 127.376 91.7586 127.187L95.2591 125.169C95.5869 124.98 96.0823 124.96 96.3658 125.123L99.8992 127.16C100.183 127.323 100.147 127.609 99.8196 127.798L96.3191 129.817C95.9918 130.005 95.4964 130.026 95.2124 129.862Z" fill="#5793CE"/>
<path d="M100.671 133.008L97.1377 130.971C96.8542 130.808 96.8896 130.522 97.2173 130.333L100.718 128.314C101.046 128.126 101.542 128.105 101.825 128.269L105.358 130.306C105.642 130.469 105.607 130.755 105.279 130.944L101.778 132.962C101.451 133.151 100.955 133.172 100.671 133.008Z" fill="#5793CE"/>
<path d="M106.126 136.155L102.593 134.118C102.309 133.954 102.345 133.669 102.672 133.479L106.173 131.461C106.501 131.272 106.997 131.251 107.28 131.415L110.813 133.452C111.097 133.616 111.062 133.902 110.734 134.09L107.233 136.109C106.906 136.298 106.41 136.318 106.126 136.155Z" fill="#5793CE"/>
<path d="M111.583 139.299L108.05 137.262C107.766 137.099 107.801 136.813 108.129 136.624L111.63 134.605C111.958 134.417 112.453 134.396 112.736 134.56L116.27 136.597C116.553 136.76 116.518 137.046 116.19 137.235L112.69 139.253C112.362 139.442 111.866 139.463 111.583 139.299Z" fill="#5793CE"/>
<path d="M117.038 142.446L113.505 140.409C113.221 140.245 113.256 139.959 113.584 139.77L117.085 137.752C117.413 137.563 117.908 137.542 118.191 137.706L121.725 139.743C122.008 139.907 121.973 140.193 121.645 140.381L118.145 142.4C117.817 142.589 117.322 142.609 117.038 142.446Z" fill="#5793CE"/>
<path d="M122.495 145.592L118.961 143.555C118.678 143.392 118.713 143.105 119.041 142.917L122.542 140.898C122.87 140.71 123.365 140.689 123.649 140.853L127.182 142.889C127.466 143.053 127.43 143.338 127.103 143.528L123.602 145.546C123.274 145.735 122.778 145.755 122.495 145.592Z" fill="#5793CE"/>
<path d="M127.954 148.737L124.42 146.7C124.137 146.536 124.172 146.251 124.5 146.061L128.001 144.043C128.328 143.854 128.824 143.833 129.107 143.997L132.641 146.034C132.924 146.198 132.889 146.484 132.561 146.672L129.06 148.691C128.733 148.88 128.237 148.9 127.954 148.737Z" fill="#5793CE"/>
<path d="M137.651 154.33L129.942 149.885C129.658 149.722 129.694 149.436 130.022 149.247L133.523 147.228C133.85 147.04 134.346 147.019 134.629 147.183L142.338 151.627C142.622 151.791 142.586 152.076 142.259 152.266L138.757 154.284C138.431 154.473 137.935 154.493 137.651 154.33Z" fill="#5793CE"/>
<path d="M148.274 148.205L141.767 144.454C141.484 144.29 141.519 144.004 141.847 143.815L145.347 141.797C145.675 141.608 146.17 141.587 146.454 141.751L152.961 145.503C153.244 145.666 153.209 145.952 152.881 146.141L149.38 148.159C149.053 148.348 148.557 148.369 148.274 148.205Z" fill="#5793CE"/>
<path d="M93.8569 122.955L90.3235 120.918C90.04 120.755 90.0754 120.469 90.4031 120.28L93.9042 118.262C94.2319 118.073 94.7273 118.052 95.0108 118.216L98.5442 120.253C98.8277 120.416 98.7924 120.702 98.4646 120.891L94.9636 122.91C94.6363 123.098 94.1404 123.119 93.8569 122.955Z" fill="#5793CE"/>
<path d="M88.2651 119.732L84.7317 117.695C84.4482 117.531 84.4836 117.245 84.8113 117.057L88.3124 115.038C88.6401 114.849 89.1355 114.829 89.419 114.992L92.9524 117.029C93.2359 117.193 93.2006 117.478 92.8728 117.668L89.3718 119.686C89.0445 119.875 88.5486 119.895 88.2651 119.732Z" fill="#5793CE"/>
<path d="M82.6714 116.507L79.138 114.47C78.8545 114.307 78.8898 114.021 79.2176 113.832L82.7186 111.813C83.0464 111.625 83.5418 111.604 83.8253 111.768L87.3587 113.805C87.6422 113.968 87.6068 114.254 87.2791 114.443L83.778 116.461C83.4508 116.65 82.9549 116.67 82.6714 116.507Z" fill="#5793CE"/>
<path d="M77.0813 113.283L73.5479 111.246C73.2644 111.083 73.2997 110.797 73.6275 110.608L77.1285 108.59C77.4563 108.401 77.9517 108.381 78.2352 108.544L81.7686 110.581C82.0521 110.744 82.0168 111.03 81.689 111.219L78.188 113.238C77.8607 113.426 77.3648 113.447 77.0813 113.283Z" fill="#5793CE"/>
<path d="M99.3139 126.102L95.7806 124.065C95.4971 123.902 95.5324 123.616 95.8602 123.427L99.3607 121.408C99.6885 121.219 100.184 121.199 100.467 121.363L104.001 123.399C104.284 123.563 104.249 123.848 103.921 124.038L100.42 126.056C100.093 126.245 99.5975 126.265 99.3139 126.102Z" fill="#5793CE"/>
<path d="M104.771 129.247L101.237 127.21C100.954 127.047 100.989 126.761 101.317 126.572L104.817 124.554C105.145 124.365 105.641 124.344 105.924 124.508L109.458 126.545C109.741 126.708 109.706 126.994 109.378 127.183L105.877 129.202C105.55 129.39 105.055 129.411 104.771 129.247Z" fill="#5793CE"/>
<path d="M110.226 132.393L106.692 130.356C106.409 130.193 106.444 129.906 106.772 129.718L110.273 127.699C110.601 127.51 111.096 127.49 111.38 127.654L114.913 129.69C115.197 129.854 115.161 130.139 114.834 130.329L111.332 132.347C111.005 132.536 110.51 132.556 110.226 132.393Z" fill="#5793CE"/>
<path d="M115.681 135.538L112.147 133.501C111.864 133.338 111.899 133.052 112.227 132.863L115.728 130.845C116.056 130.656 116.551 130.635 116.835 130.799L120.368 132.836C120.651 132.999 120.616 133.285 120.288 133.474L116.788 135.493C116.46 135.681 115.965 135.702 115.681 135.538Z" fill="#5793CE"/>
<path d="M121.138 138.685L117.604 136.648C117.321 136.484 117.356 136.198 117.684 136.01L121.184 133.991C121.512 133.802 122.008 133.782 122.291 133.945L125.824 135.982C126.108 136.146 126.073 136.432 125.745 136.62L122.244 138.639C121.917 138.828 121.421 138.849 121.138 138.685Z" fill="#5793CE"/>
<path d="M126.596 141.83L123.063 139.793C122.78 139.63 122.815 139.344 123.143 139.155L126.644 137.137C126.971 136.948 127.467 136.927 127.75 137.091L131.284 139.128C131.567 139.291 131.532 139.577 131.204 139.766L127.704 141.785C127.375 141.973 126.88 141.994 126.596 141.83Z" fill="#5793CE"/>
<path d="M132.05 144.976L128.516 142.939C128.233 142.775 128.268 142.489 128.596 142.301L132.097 140.282C132.425 140.093 132.92 140.073 133.203 140.236L136.737 142.273C137.02 142.437 136.985 142.723 136.657 142.911L133.156 144.93C132.828 145.118 132.333 145.139 132.05 144.976Z" fill="#5793CE"/>
<path d="M137.506 148.121L133.973 146.084C133.689 145.921 133.725 145.635 134.053 145.446L137.553 143.428C137.881 143.239 138.376 143.218 138.66 143.382L142.193 145.419C142.477 145.582 142.441 145.868 142.114 146.057L138.612 148.076C138.286 148.264 137.79 148.285 137.506 148.121Z" fill="#5793CE"/>
<path d="M142.963 151.268L139.43 149.231C139.146 149.068 139.182 148.782 139.51 148.593L143.011 146.574C143.338 146.385 143.834 146.365 144.117 146.529L147.651 148.565C147.934 148.729 147.899 149.014 147.571 149.204L144.071 151.222C143.743 151.411 143.247 151.431 142.963 151.268Z" fill="#5793CE"/>
<path d="M90.9839 115.175L87.4505 113.138C87.167 112.975 87.2023 112.689 87.5301 112.5L91.0311 110.481C91.3589 110.293 91.8543 110.272 92.1378 110.436L95.6712 112.472C95.9547 112.636 95.9194 112.922 95.5916 113.111L92.0905 115.129C91.7628 115.318 91.2674 115.339 90.9839 115.175Z" fill="#5793CE"/>
<path d="M85.5542 112.044L82.0208 110.007C81.7373 109.844 81.7726 109.558 82.1004 109.369L85.6014 107.35C85.9292 107.162 86.4246 107.141 86.7081 107.305L90.2415 109.342C90.525 109.505 90.4897 109.791 90.1619 109.98L86.6608 111.998C86.3336 112.187 85.8377 112.208 85.5542 112.044Z" fill="#5793CE"/>
<path d="M80.1267 108.914L76.5933 106.877C76.3098 106.714 76.3451 106.428 76.6729 106.239L80.1734 104.221C80.5012 104.032 80.9966 104.011 81.2801 104.175L84.8135 106.212C85.097 106.375 85.0617 106.661 84.7339 106.85L81.2334 108.869C80.9061 109.057 80.4107 109.078 80.1267 108.914Z" fill="#5793CE"/>
<path d="M74.6972 105.784L71.1639 103.748C70.8804 103.584 70.9157 103.299 71.2435 103.109L74.744 101.091C75.0718 100.902 75.5672 100.881 75.8507 101.045L79.384 103.082C79.6676 103.245 79.6322 103.531 79.3045 103.72L75.8034 105.739C75.4761 105.927 74.9808 105.948 74.6972 105.784Z" fill="#5793CE"/>
<path d="M80.2793 102.566L76.7459 100.529C76.4624 100.366 76.4977 100.08 76.8255 99.8907L77.9829 99.2236C78.3107 99.0349 78.806 99.014 79.0896 99.178L82.6229 101.215C82.9064 101.378 82.8711 101.664 82.5433 101.853L81.3859 102.52C81.0587 102.709 80.5633 102.729 80.2793 102.566Z" fill="#5793CE"/>
<path d="M87.3635 106.651L83.8301 104.614C83.5466 104.45 83.5819 104.165 83.9097 103.976L85.0671 103.309C85.3949 103.12 85.8903 103.099 86.1738 103.263L89.7071 105.3C89.9907 105.463 89.9553 105.749 89.6276 105.938L88.4702 106.605C88.1429 106.794 87.6475 106.814 87.3635 106.651Z" fill="#5793CE"/>
<path d="M92.7695 109.768L89.2361 107.731C88.9526 107.567 88.9879 107.282 89.3157 107.093L90.4731 106.426C90.8009 106.237 91.2963 106.216 91.5798 106.38L95.1131 108.417C95.3967 108.58 95.3614 108.866 95.0336 109.055L93.8762 109.722C93.5489 109.911 93.0535 109.931 92.7695 109.768Z" fill="#5793CE"/>
<path d="M98.1775 112.885L94.6441 110.848C94.3606 110.685 94.3959 110.399 94.7237 110.21L95.8811 109.543C96.2088 109.354 96.7042 109.334 96.9877 109.497L100.521 111.534C100.805 111.697 100.769 111.983 100.442 112.172L99.2841 112.839C98.9569 113.028 98.4615 113.048 98.1775 112.885Z" fill="#5793CE"/>
<path d="M103.585 116.002L100.052 113.965C99.7686 113.802 99.8039 113.516 100.132 113.327L101.289 112.66C101.617 112.471 102.112 112.451 102.396 112.614L105.929 114.651C106.213 114.815 106.177 115.101 105.849 115.29L104.692 115.957C104.365 116.145 103.869 116.166 103.585 116.002Z" fill="#5793CE"/>
<path d="M133.769 133.404L130.235 131.367C129.952 131.203 129.987 130.918 130.315 130.729L131.472 130.062C131.8 129.873 132.296 129.852 132.579 130.016L136.112 132.053C136.396 132.216 136.361 132.502 136.033 132.691L134.875 133.358C134.548 133.547 134.053 133.568 133.769 133.404Z" fill="#5793CE"/>
<path d="M139.175 136.521L135.641 134.484C135.358 134.321 135.393 134.035 135.721 133.846L136.878 133.179C137.206 132.99 137.702 132.969 137.985 133.133L141.518 135.17C141.802 135.333 141.767 135.619 141.439 135.808L140.281 136.475C139.954 136.664 139.459 136.685 139.175 136.521Z" fill="#5793CE"/>
<path d="M144.581 139.638L141.047 137.601C140.764 137.438 140.799 137.151 141.127 136.963L142.284 136.296C142.612 136.107 143.108 136.087 143.391 136.25L146.924 138.287C147.208 138.45 147.173 138.736 146.845 138.925L145.687 139.592C145.36 139.781 144.865 139.802 144.581 139.638Z" fill="#5793CE"/>
<path d="M149.987 142.755L146.453 140.718C146.17 140.555 146.205 140.269 146.533 140.08L147.69 139.413C148.018 139.224 148.514 139.203 148.797 139.367L152.33 141.404C152.614 141.568 152.579 141.854 152.251 142.043L151.093 142.71C150.766 142.898 150.271 142.919 149.987 142.755Z" fill="#5793CE"/>
<path d="M96.4387 118.321L92.9053 116.284C92.6218 116.12 92.6571 115.835 92.9849 115.645L96.486 113.627C96.8137 113.438 97.3091 113.417 97.5926 113.581L101.126 115.618C101.41 115.782 101.374 116.067 101.046 116.256L97.5454 118.275C97.2176 118.464 96.7222 118.484 96.4387 118.321Z" fill="#5793CE"/>
<path d="M101.896 121.466L98.3624 119.429C98.0789 119.266 98.1142 118.98 98.4419 118.791L101.943 116.772C102.271 116.584 102.766 116.563 103.05 116.727L106.583 118.764C106.867 118.927 106.831 119.213 106.503 119.402L103.003 121.42C102.675 121.609 102.179 121.629 101.896 121.466Z" fill="#5793CE"/>
<path d="M107.353 124.611L103.819 122.575C103.536 122.411 103.571 122.126 103.899 121.936L107.4 119.918C107.728 119.729 108.223 119.709 108.506 119.872L112.04 121.909C112.323 122.072 112.288 122.358 111.96 122.547L108.46 124.566C108.132 124.754 107.636 124.775 107.353 124.611Z" fill="#5793CE"/>
<path d="M112.81 127.758L109.276 125.721C108.993 125.558 109.028 125.272 109.356 125.083L112.857 123.064C113.185 122.876 113.68 122.855 113.963 123.019L117.497 125.055C117.78 125.219 117.745 125.505 117.417 125.694L113.916 127.712C113.589 127.901 113.093 127.921 112.81 127.758Z" fill="#5793CE"/>
<path d="M118.264 130.903L114.731 128.866C114.448 128.703 114.483 128.417 114.811 128.228L118.311 126.21C118.639 126.021 119.134 126.001 119.418 126.164L122.951 128.201C123.235 128.364 123.199 128.65 122.872 128.839L119.371 130.858C119.044 131.046 118.548 131.067 118.264 130.903Z" fill="#5793CE"/>
<path d="M123.723 134.049L120.19 132.012C119.906 131.849 119.942 131.563 120.27 131.374L123.77 129.355C124.098 129.167 124.593 129.146 124.877 129.31L128.41 131.347C128.694 131.51 128.658 131.796 128.331 131.985L124.83 134.003C124.503 134.192 124.007 134.212 123.723 134.049Z" fill="#5793CE"/>
<path d="M129.176 137.195L125.643 135.158C125.359 134.995 125.395 134.709 125.722 134.52L129.224 132.502C129.551 132.313 130.047 132.293 130.33 132.456L133.864 134.493C134.147 134.656 134.112 134.942 133.784 135.131L130.283 137.15C129.956 137.338 129.46 137.359 129.176 137.195Z" fill="#5793CE"/>
<path d="M134.633 140.34L131.1 138.303C130.816 138.14 130.851 137.854 131.179 137.665L134.68 135.647C135.008 135.458 135.503 135.437 135.786 135.601L139.32 137.638C139.603 137.801 139.568 138.087 139.24 138.276L135.74 140.294C135.412 140.483 134.917 140.504 134.633 140.34Z" fill="#5793CE"/>
<path d="M140.092 143.487L136.559 141.45C136.275 141.286 136.31 141 136.638 140.811L140.139 138.793C140.467 138.604 140.962 138.583 141.245 138.747L144.779 140.784C145.062 140.948 145.027 141.234 144.699 141.422L141.198 143.441C140.871 143.63 140.376 143.65 140.092 143.487Z" fill="#5793CE"/>
<path d="M65.2456 118.709L54.8399 112.709C54.5564 112.546 54.5917 112.26 54.9195 112.071L58.4205 110.053C58.7483 109.864 59.2437 109.843 59.5272 110.007L69.9328 116.006C70.2163 116.17 70.181 116.455 69.8533 116.644L66.3522 118.663C66.0244 118.852 65.5291 118.872 65.2456 118.709Z" fill="#5793CE"/>
<path d="M132.276 157.355L121.87 151.356C121.586 151.193 121.622 150.906 121.95 150.718L125.451 148.699C125.778 148.51 126.274 148.49 126.557 148.654L136.963 154.653C137.246 154.816 137.211 155.102 136.883 155.291L133.383 157.31C133.055 157.498 132.56 157.519 132.276 157.355Z" fill="#5793CE"/>
<path d="M110.457 151.723L106.923 149.686C106.64 149.523 106.675 149.237 107.003 149.048L111.173 146.644C111.501 146.455 111.996 146.434 112.28 146.598L115.813 148.635C116.097 148.798 116.061 149.084 115.734 149.273L111.563 151.677C111.236 151.866 110.741 151.887 110.457 151.723Z" fill="#5793CE"/>
<path d="M70.8334 128.878L65.1827 125.621C64.8992 125.457 64.9345 125.172 65.2623 124.983L69.4328 122.578C69.7605 122.389 70.2559 122.369 70.5394 122.532L76.1902 125.79C76.4737 125.954 76.4383 126.24 76.1106 126.428L71.94 128.833C71.6128 129.022 71.1169 129.042 70.8334 128.878Z" fill="#5793CE"/>
<path d="M105.2 148.693L99.5494 145.435C99.2659 145.272 99.3012 144.986 99.629 144.797L103.799 142.393C104.127 142.204 104.623 142.183 104.906 142.347L110.557 145.605C110.84 145.768 110.805 146.054 110.477 146.243L106.307 148.647C105.979 148.836 105.484 148.856 105.2 148.693Z" fill="#5793CE"/>
<path d="M78.704 133.418L73.0533 130.161C72.7698 129.997 72.8051 129.712 73.1329 129.522L77.3034 127.118C77.6311 126.929 78.1265 126.909 78.41 127.072L84.0607 130.33C84.3442 130.493 84.3089 130.779 83.9812 130.968L79.8107 133.373C79.4829 133.561 78.9875 133.582 78.704 133.418Z" fill="#5793CE"/>
<path d="M78.4512 127.094L103.018 141.257C103.323 141.433 103.323 141.718 103.018 141.894L98.7657 144.345C98.4608 144.521 97.9664 144.521 97.6615 144.345L73.0945 130.182L78.4512 127.094Z" fill="#5793CE"/>
<path d="M125.707 157.427L129.643 159.696C129.875 159.83 129.846 160.064 129.577 160.219L127.871 161.203C127.603 161.358 127.197 161.374 126.964 161.24L123.028 158.972C122.796 158.837 122.825 158.604 123.094 158.449L124.8 157.465C125.068 157.31 125.475 157.293 125.707 157.427Z" fill="#5793CE"/>
<path d="M120.205 154.256L124.141 156.525C124.373 156.659 124.344 156.893 124.076 157.048L122.369 158.031C122.101 158.186 121.695 158.203 121.462 158.069L117.527 155.8C117.294 155.666 117.323 155.432 117.592 155.277L119.298 154.293C119.566 154.138 119.972 154.122 120.205 154.256Z" fill="#5793CE"/>
<path d="M114.748 151.11L118.684 153.379C118.916 153.513 118.887 153.747 118.619 153.902L116.913 154.885C116.644 155.04 116.238 155.057 116.006 154.923L112.07 152.654C111.837 152.52 111.866 152.286 112.135 152.131L113.841 151.148C114.109 150.993 114.515 150.976 114.748 151.11Z" fill="#5793CE"/>
<path d="M123.219 152.518L127.155 154.787C127.387 154.921 127.358 155.155 127.09 155.31L125.384 156.293C125.115 156.448 124.709 156.465 124.476 156.331L120.541 154.062C120.308 153.928 120.337 153.694 120.606 153.539L122.312 152.556C122.58 152.401 122.986 152.384 123.219 152.518Z" fill="#5793CE"/>
<path d="M144.769 91.1361L115.379 74.1914L115.757 72.2832L145.147 89.2278L144.769 91.1361Z" fill="#D4ECFF"/>
<path d="M134.244 94.3553L113.729 82.5269L114.107 80.6191L134.622 92.447L134.244 94.3553Z" fill="#D4ECFF"/>
<path d="M132.303 88.592L114.554 78.3589L114.932 76.4512L132.681 86.6837L132.303 88.592Z" fill="white"/>
<path d="M143.948 95.3033L135.073 90.187L135.451 88.2793L144.326 93.3956L143.948 95.3033Z" fill="#EB2027"/>
<path d="M112.252 57.5445L103.378 52.4282L103.756 50.5205L112.63 55.6368L112.252 57.5445Z" fill="#D4ECFF"/>
<path d="M111.289 61.9786L102.414 56.8618L102.792 54.9541L111.667 60.0704L111.289 61.9786Z" fill="white"/>
<path d="M154.845 123.481L145.971 118.365L146.349 116.457L155.223 121.573L154.845 123.481Z" fill="#D4ECFF"/>
<path d="M109.362 70.8468L100.487 65.73L100.865 63.8223L109.74 68.9385L109.362 70.8468Z" fill="#D4ECFF"/>
<path d="M128.537 72.2205C128.254 72.8364 127.54 73.0564 126.942 72.7113C126.343 72.3661 126.088 71.5873 126.37 70.9714C126.653 70.3555 127.367 70.1355 127.966 70.4807C128.564 70.8254 128.82 71.6047 128.537 72.2205Z" fill="#EB2027"/>
<path d="M132.359 74.4242C132.076 75.04 131.362 75.2601 130.764 74.9149C130.165 74.5697 129.91 73.7909 130.192 73.1745C130.475 72.5586 131.189 72.3386 131.788 72.6838C132.386 73.0295 132.642 73.8083 132.359 74.4242Z" fill="white"/>
<path d="M136.183 76.6283C135.9 77.2441 135.186 77.4642 134.587 77.119C133.989 76.7738 133.733 75.995 134.016 75.3786C134.299 74.7627 135.013 74.5427 135.612 74.8879C136.21 75.2336 136.466 76.0124 136.183 76.6283Z" fill="#D4ECFF"/>
<path d="M140.003 78.8319C139.72 79.4478 139.006 79.6678 138.407 79.3226C137.809 78.9774 137.553 78.1986 137.836 77.5827C138.119 76.9668 138.833 76.7468 139.432 77.092C140.03 77.4367 140.286 78.2155 140.003 78.8319Z" fill="#EB2027"/>
<path d="M42.0061 163.698C42.0061 163.698 40.1409 162.759 38.996 164.158C37.8505 165.556 36.2136 168.857 36.1629 171.088C36.1122 173.319 37.9306 173.168 39.0114 172.64C40.0922 172.112 43.25 167.538 43.4415 166.642C43.6325 165.746 43.2162 164.534 42.9123 164.297C42.6079 164.059 42.0061 163.698 42.0061 163.698Z" fill="#EB2027"/>
<path d="M42.4137 163.25L42.5003 165.18C42.5187 165.59 42.3118 165.981 41.9542 166.184C41.6284 166.368 41.1554 166.509 40.5153 166.407C39.1107 166.182 38.9848 165.781 38.8844 163.852C38.7844 161.922 42.4137 163.25 42.4137 163.25Z" fill="#D4ECFF"/>
<path d="M35.178 159.988C35.178 159.988 33.3128 159.049 32.1679 160.448C31.0224 161.846 29.385 165.147 29.3348 167.378C29.284 169.609 31.1025 169.458 32.1838 168.93C33.2646 168.402 36.4224 163.828 36.6139 162.932C36.8054 162.036 36.3886 160.824 36.0847 160.587C35.7803 160.349 35.178 159.988 35.178 159.988Z" fill="#EB2027"/>
<path d="M35.5859 159.539L35.6719 161.469C35.6903 161.879 35.4839 162.27 35.1258 162.473C34.8 162.657 34.327 162.798 33.6874 162.696C32.2823 162.471 32.1569 162.07 32.0565 160.141C31.957 158.212 35.5859 159.539 35.5859 159.539Z" fill="#D4ECFF"/>
<path d="M52.2266 124.117C51.6745 115.148 42.5003 125.436 42.5003 125.436L36.2209 131.582L30.5667 137.785C29.4626 138.996 28.9488 140.632 29.1621 142.256L31.4496 159.648C31.5625 160.507 32.2986 161.141 33.166 161.134C33.4112 161.132 33.6918 161.109 34.0136 161.06C36.0538 160.742 35.9036 158.805 35.9036 158.805L35.4853 142.539L47.3597 135.39C47.3597 135.39 52.7782 133.085 52.2266 124.117Z" fill="#0071BC"/>
<path d="M59.0525 127.534C58.5004 118.565 49.3263 128.853 49.3263 128.853L43.0469 134.999L37.3927 141.202C36.2885 142.413 35.7747 144.049 35.9881 145.673L38.2755 163.065C38.3884 163.924 39.1245 164.558 39.992 164.551C40.2372 164.549 40.5177 164.526 40.8395 164.477C42.8797 164.159 42.7295 162.222 42.7295 162.222L42.3237 146.423L54.1861 138.807C54.1861 138.807 59.6046 136.502 59.0525 127.534Z" fill="#0071BC"/>
<path d="M53.6252 98.7451C60.5805 101.625 60.4412 105.73 60.4412 105.73C60.4412 105.73 59.0789 120.782 59.5439 130.835C59.7384 135.037 37.1853 135.358 40.5486 124.147C44.5142 110.928 43.028 100.226 44.8842 98.6119C46.7404 96.9982 51.8256 98.0005 53.6252 98.7451Z" fill="#EB2027"/>
<path d="M55.8621 102.386C55.4985 103.796 53.6482 104.539 51.7293 104.046C49.811 103.552 48.5501 102.009 48.9142 100.599C49.2778 99.1886 51.128 98.4451 53.0469 98.9388C54.9653 99.4325 56.2256 100.976 55.8621 102.386Z" fill="#FFC2B0"/>
<path d="M52.919 104.53C52.5022 104.53 52.074 104.476 51.6487 104.367C50.653 104.11 49.787 103.581 49.2106 102.875C48.6107 102.14 48.3919 101.302 48.5948 100.516C48.7977 99.7288 49.3946 99.1 50.2759 98.7469C51.122 98.4071 52.1356 98.3619 53.1324 98.6172C54.1281 98.8735 54.9941 99.403 55.5705 100.109C56.1704 100.843 56.3892 101.682 56.1863 102.468C55.9834 103.255 55.3865 103.884 54.5051 104.238C54.0202 104.432 53.48 104.53 52.919 104.53ZM51.8611 99.1174C51.3856 99.1174 50.9305 99.1993 50.5236 99.3627C49.8437 99.6359 49.3876 100.104 49.2384 100.681C49.0892 101.259 49.2628 101.889 49.7253 102.456C50.2128 103.052 50.9549 103.502 51.8143 103.724C52.6743 103.945 53.5422 103.909 54.2565 103.621C54.9364 103.348 55.3925 102.88 55.5417 102.303C55.6909 101.725 55.5173 101.095 55.0548 100.528C54.5673 99.9319 53.8252 99.4819 52.9658 99.2604C52.5947 99.1646 52.2217 99.1174 51.8611 99.1174Z" fill="white"/>
<path d="M50.8387 98.4322C50.8387 98.4322 50.8989 98.7108 50.7785 100.912C50.7407 101.603 53.1669 102.25 53.7941 101.624C54.4213 100.998 54.1706 100.346 54.3208 97.9911C54.4711 95.6364 50.8387 98.4322 50.8387 98.4322Z" fill="#FFC2B0"/>
<path d="M54.3209 97.9912C54.3209 97.9912 53.7235 100.175 50.7781 101.012L50.8228 99.0278L54.3209 97.9912Z" fill="#EA9C92"/>
<path d="M56.1843 92.4439C56.9244 95.3028 55.204 98.2193 52.3411 98.9583C49.4782 99.6974 46.5576 97.9794 45.8175 95.1205C45.0774 92.2616 46.7978 89.3451 49.6607 88.6061C52.5231 87.867 55.4442 89.585 56.1843 92.4439Z" fill="#FFC2B0"/>
<path d="M52.2306 93.9774C52.2306 93.9774 49.2827 95.2385 47.2419 95.2529C45.2007 95.2673 45.6508 93.5607 45.6508 93.5607L51.7099 92.6865L52.2306 93.9774Z" fill="#EA9C92"/>
<path d="M46.6353 94.3101C46.6353 94.3101 49.2033 93.2213 51.4559 93.6753C51.9856 93.7821 52.4765 94.0647 52.8172 94.4834C52.9287 94.62 53.0694 94.7451 53.2291 94.7809C53.6285 94.8713 54.2825 93.2164 55.0589 93.1786C55.8353 93.1409 56.3536 93.6897 55.717 94.7074C55.0803 95.7251 55.2957 96.8645 55.5886 97.0274C55.8816 97.1903 59.5075 94.6637 56.7669 89.2425C54.0264 83.8212 46.5453 86.8917 45.4625 87.9903C45.4625 87.9903 44.322 88.9827 43.3944 88.0996C43.3944 88.0996 42.3544 95.8781 46.6353 94.3101Z" fill="#D4ECFF"/>
<path d="M56.5396 116.727V120.794C56.5396 121.26 56.3432 121.705 55.998 122.019L47.6311 129.636L48.5816 131.088L60.1088 123.541C60.6246 123.167 60.9574 122.592 61.024 121.96L61.8123 114.412L56.5396 116.727Z" fill="#FFC2B0"/>
<path d="M59.8532 103.696C59.8532 103.696 62.3913 107.508 63.3374 117.543C63.3374 117.543 59.0012 118.943 56.5407 118.148C54.0792 117.353 59.8532 103.696 59.8532 103.696Z" fill="#EB2027"/>
<path d="M56.0787 108.517C56.0787 108.517 55.0849 113.828 55.0287 116.324C55.0133 117.01 55.4326 117.629 56.0787 117.863V108.517Z" fill="#EB2027"/>
<path d="M53.9053 134.926L52.0561 134.682L40.1185 127.799C39.736 127.579 39.0675 127.606 38.6254 127.861L30.1664 132.736L29.0483 132.588V133.7H29.0493C29.0419 133.846 29.1254 133.987 29.306 134.091L42.8347 141.891C43.2171 142.112 43.8856 142.084 44.3278 141.83L53.5397 136.52C53.7884 136.377 53.9123 136.192 53.9048 136.018L53.9053 134.926Z" fill="#5793CE"/>
<path d="M44.9356 130.577L44.0876 130.088H34.7632L30.1664 132.736L29.0483 132.589V133.7H29.0493C29.0419 133.847 29.1254 133.987 29.306 134.092L42.8347 141.891C43.0371 142.008 43.3191 142.054 43.6051 142.035L44.9356 130.577Z" fill="#396CAA"/>
<path d="M29.5421 132.653L29.0464 132.588V133.699H29.0474C29.0399 133.846 29.1234 133.987 29.3037 134.091L29.5416 134.228V132.653H29.5421Z" fill="#5793CE"/>
<path d="M42.9702 141.954C43.3328 142.092 43.8516 142.061 44.239 141.876V139.984H42.9702V141.954Z" fill="#5793CE"/>
<path d="M42.8336 140.78L29.3049 132.981C28.9219 132.76 28.9702 132.375 29.4118 132.12L38.6238 126.81C39.0655 126.556 39.7339 126.528 40.1169 126.749L53.6456 134.549C54.0281 134.769 53.9803 135.155 53.5382 135.409L44.3262 140.719C43.8845 140.974 43.2161 141.001 42.8336 140.78Z" fill="white"/>
<path d="M42.6053 139.599L31.3561 133.113C31.0377 132.93 31.0775 132.609 31.4451 132.397L36.3816 129.625C36.7491 129.414 37.3047 129.39 37.623 129.574L48.8722 136.06C49.1906 136.243 49.1508 136.564 48.7832 136.776L43.8467 139.547C43.4792 139.759 42.9236 139.782 42.6053 139.599Z" fill="#D4ECFF"/>
<path d="M39.1475 126.555L39.0077 127.487C38.8883 128.281 38.9092 129.09 39.0689 129.877L39.2355 130.698C39.3295 131.162 39.6966 131.521 40.1621 131.606C40.5257 131.672 40.8694 131.417 40.9107 131.05L41.134 129.057C41.134 129.057 41.6443 129.725 41.891 129.725C42.1377 129.725 41.615 127.73 41.0579 126.6C40.4998 125.47 39.1475 126.555 39.1475 126.555Z" fill="#FFC2B0"/>
<path d="M43.7375 111.739L42.2856 114.608C41.9424 115.286 41.7405 116.027 41.6918 116.786L41.0616 126.599L39.1517 126.554L38.2847 115.533C38.2579 115.193 38.2743 114.851 38.334 114.514L39.3242 108.926L43.7375 111.739Z" fill="#FFC2B0"/>
<path d="M42.3794 141.53L41.2449 140.051L29.3158 133.154C28.9333 132.933 28.6239 132.341 28.6244 131.831L28.6349 122.078L27.949 121.184L28.5936 120.812L28.5941 120.813C28.7174 120.733 28.8816 120.735 29.0621 120.84L42.5813 128.656C42.9638 128.877 43.2732 129.469 43.2727 129.979L43.2613 140.6C43.2608 140.887 43.1623 141.087 43.0081 141.167L42.3794 141.53Z" fill="#0071BC"/>
<path d="M34.1299 135.937L33.2824 135.446L28.6299 127.377L28.6349 122.077L27.949 121.183L28.5936 120.811L28.5941 120.812C28.7174 120.732 28.8816 120.734 29.0621 120.839L42.5813 128.655C42.7833 128.772 42.9648 128.993 43.0912 129.25L34.1299 135.937Z" fill="#396CAA"/>
<path d="M28.2534 121.58L27.949 121.183L28.5936 120.811L28.5941 120.812C28.7174 120.732 28.8816 120.734 29.0621 120.839L29.3003 120.976L28.2534 121.58Z" fill="#5793CE"/>
<path d="M42.7032 128.741C43.0036 128.987 43.2363 129.45 43.2677 129.878L41.9466 130.64L41.3135 129.542L42.7032 128.741Z" fill="#274F89"/>
<path d="M41.9369 129.026L28.4177 121.21C28.0352 120.989 27.7248 121.223 27.7238 121.732L27.7124 132.354C27.7119 132.863 28.0213 133.455 28.4038 133.677L41.923 141.493C42.3055 141.714 42.6158 141.48 42.6168 140.971L42.6283 130.349C42.6288 129.84 42.3194 129.248 41.9369 129.026Z" fill="#5793CE"/>
<path d="M48.5824 131.088L48.3655 131.536C48.1163 132.052 47.7239 132.486 47.2355 132.787L45.8925 133.613C45.4747 133.87 44.946 133.891 44.5218 133.645C44.5064 133.636 44.4914 133.627 44.476 133.617C44.0493 133.35 44.0105 132.738 44.3616 132.378L45.7652 130.938C45.7652 130.938 44.9769 131.54 44.756 131.298C44.5939 131.12 45.5205 130.251 46.2318 130.222C46.943 130.194 47.6314 129.636 47.6314 129.636L48.5824 131.088Z" fill="#FFC2B0"/>
<path d="M45.0241 98.5908C45.0241 98.5908 39.8797 104.18 37.8047 109.308C37.8047 109.308 39.5639 112.473 43.8697 113.715C48.1755 114.957 45.0241 98.5908 45.0241 98.5908Z" fill="#EB2027"/>
<path d="M42.9023 113.383L43.7359 105.34L41.7712 112.876C42.1214 113.058 42.5004 113.227 42.9023 113.383Z" fill="#EB2027"/>
<path d="M48.8783 97.4634L47.4961 97.084C47.4961 97.084 48.1561 98.1206 49.1195 98.3848C50.083 98.649 50.2327 97.8345 50.2327 97.8345L48.8783 97.4634Z" fill="white"/>
<path d="M56.2591 95.2532C56.2591 95.6779 55.9144 96.0221 55.4892 96.0221C55.0639 96.0221 54.7192 95.6779 54.7192 95.2532C54.7192 94.8286 55.0639 94.4844 55.4892 94.4844C55.9144 94.4844 56.2591 94.8286 56.2591 95.2532Z" fill="white"/>
<path d="M76.9593 158.825L53.9069 145.534C53.2359 145.147 53.3199 144.471 54.0949 144.025L68.006 136.004C68.7809 135.558 69.9528 135.509 70.6242 135.896L93.6767 149.187C94.3477 149.573 94.2636 150.249 93.4887 150.696L79.5775 158.716C78.8026 159.163 77.6303 159.211 76.9593 158.825Z" fill="white"/>
<path opacity="0.5" d="M102.19 170.085L68.9414 150.916C68.1943 150.485 68.1943 149.408 68.9414 148.978L100.555 130.753L135.927 151.146C136.674 151.577 136.674 152.654 135.927 153.085L106.436 170.085C105.122 170.843 103.504 170.843 102.19 170.085Z" fill="#EB2027"/>
<path d="M101.229 117.462C101.231 115.354 99.7441 114.495 97.9148 115.547L66.8187 133.439C66.3158 133.728 65.9075 134.432 65.907 135.012C65.9065 135.592 66.3138 135.827 66.8167 135.537L97.9133 117.646C98.7384 117.171 99.4089 117.559 99.4079 118.51L99.4049 121.983C100.008 121.945 100.614 121.944 101.225 121.955L101.229 117.462Z" fill="#EB2027"/>
<path d="M66.8045 141.782L97.9006 130.467C99.7299 129.414 101.22 126.842 101.222 124.734L101.225 121.955C100.613 121.945 100.007 121.945 99.4041 121.982L99.4006 125.782C99.3997 126.733 98.7282 127.892 97.903 128.367L66.807 139.682C66.3041 139.972 65.8958 140.676 65.8953 141.256C65.8943 141.836 66.3016 142.071 66.8045 141.782Z" fill="#EB2027"/>
<path d="M66.1309 141.823L103.958 163.681L135.985 144.608L138.526 140.821L138.262 142.163L137.579 138.65L78.1296 140.915L67.6553 140.241L66.1309 141.823Z" fill="#EB2027"/>
<path d="M67.3867 135.228L67.3767 139.877L103.936 160.999L104.924 156.567L67.3867 135.228Z" fill="#FA595F"/>
<path d="M138.055 137.155L100.288 115.336L66.2366 135.11L66.166 135.596L103.989 157.447L138.055 137.155Z" fill="#EB2027"/>
<path d="M126.019 148.361L134.899 143.101C135.647 142.576 136.233 141.515 136.234 140.628L136.24 139.932C136.241 139.369 136.005 139.005 135.642 138.899L118.161 148.61L103.926 156.298L103.939 161L126.019 148.361Z" fill="white"/>
<path d="M105.199 156.727L67.6717 135.046L66.8764 134.587L66.1497 134.167C66.001 134.439 65.908 134.739 65.908 135.012C65.9075 135.297 66.0069 135.498 66.1666 135.595V135.596L66.1726 135.6L66.1755 135.601L103.99 157.448L105.199 156.727Z" fill="#EB2027"/>
<path d="M103.488 163.408L103.96 163.681L104.047 163.531L103.753 163.3L103.488 163.408Z" fill="white"/>
<path d="M103.5 157.163L103.983 157.443L103.862 157.179L103.5 157.163Z" fill="white"/>
<path d="M104.638 155.289L135.734 137.398C137.563 136.345 139.05 137.204 139.049 139.313L139.042 140.009C139.04 142.118 137.55 144.689 135.721 145.742L104.625 163.633C104.122 163.922 103.714 163.687 103.715 163.108C103.715 162.528 104.124 161.823 104.627 161.534L135.723 143.643C136.548 143.168 137.22 142.009 137.22 141.058L137.227 140.361C137.228 139.41 136.557 139.023 135.732 139.498L104.635 157.389C104.133 157.679 103.725 157.443 103.726 156.864C103.727 156.283 104.135 155.579 104.638 155.289Z" fill="#EB2027"/>
<path d="M103.72 163.107C103.721 162.528 104.129 161.823 104.632 161.534L135.728 143.643C136.553 143.168 137.225 142.009 137.225 141.058L137.232 140.362C137.232 139.739 136.944 139.36 136.514 139.305C136.652 139.486 136.734 139.746 136.734 140.074L136.727 140.77C136.726 141.721 136.054 142.881 135.229 143.356L104.133 161.247C103.63 161.536 103.222 162.241 103.221 162.82C103.221 163.259 103.455 163.5 103.787 163.465C103.744 163.367 103.72 163.248 103.72 163.107Z" fill="white"/>
<path d="M103.733 156.863C103.734 156.283 104.142 155.578 104.645 155.289L135.742 137.398C136.529 136.945 137.253 136.848 137.822 137.051C137.214 136.534 136.285 136.511 135.243 137.111L104.147 155.002C103.644 155.291 103.235 155.996 103.235 156.576C103.234 157.015 103.469 157.255 103.801 157.22C103.758 157.123 103.733 157.003 103.733 156.863Z" fill="white"/>
<path d="M89.3491 137.586L106.506 127.715L121.387 136.311L104.229 146.183L89.3491 137.586Z" fill="white"/>
<path opacity="0.5" d="M151.039 210.296L127.847 196.925C126.997 196.435 127.103 195.579 128.085 195.013L152.666 180.805C153.647 180.239 155.132 180.178 155.982 180.668L179.174 194.039C180.024 194.529 179.917 195.385 178.936 195.951L154.355 210.159C153.373 210.725 151.889 210.786 151.039 210.296Z" fill="#0071BC"/>
<path d="M179.701 185.146L154.903 170.849C153.939 170.293 153.157 168.801 153.157 167.517V108.26C153.157 106.976 153.939 106.386 154.903 106.942L179.701 121.238C180.665 121.794 181.447 123.286 181.447 124.57V183.828C181.447 185.112 180.665 185.702 179.701 185.146Z" fill="url(#paint0_linear_1_1328)"/>
<path d="M179.702 121.239L154.904 106.942C154.473 106.693 154.079 106.675 153.774 106.844L125.464 123.154L126.798 128.083L152.612 201.498L180.809 185.257C180.814 185.255 180.818 185.252 180.823 185.249L180.873 185.221L180.872 185.218C181.225 184.996 181.448 184.512 181.448 183.828V124.57C181.448 123.286 180.666 121.794 179.702 121.239Z" fill="#396CAA"/>
<path d="M179.702 121.239L154.904 106.942C154.473 106.693 154.079 106.675 153.774 106.844L125.464 123.154L126.798 128.083L133.896 148.271L135.233 149.042L180.96 122.678C180.642 122.055 180.196 121.524 179.702 121.239Z" fill="#D4ECFF"/>
<path d="M151.411 201.443L126.613 187.146C125.649 186.59 124.867 185.098 124.867 183.814V124.557C124.867 123.273 125.649 122.683 126.613 123.238L151.411 137.535C152.375 138.091 153.157 139.583 153.157 140.867V200.125C153.157 201.409 152.375 201.999 151.411 201.443Z" fill="#5793CE"/>
<path d="M149.851 197.875L128.173 185.377C127.33 184.891 126.647 183.587 126.647 182.464V127.43C126.647 126.308 127.33 125.791 128.173 126.278L149.851 138.776C150.694 139.262 151.378 140.566 151.378 141.688V196.722C151.378 197.845 150.694 198.361 149.851 197.875Z" fill="url(#paint1_linear_1_1328)"/>
<path d="M149.851 197.875L128.173 185.377C127.33 184.891 126.647 183.587 126.647 182.464V127.43C126.647 126.308 127.33 125.791 128.173 126.278L149.851 138.776C150.694 139.262 151.378 140.566 151.378 141.688V196.722C151.378 197.845 150.694 198.361 149.851 197.875Z" fill="url(#paint2_linear_1_1328)"/>
<path d="M149.851 197.875L128.173 185.377C127.33 184.891 126.647 183.587 126.647 182.464V127.43C126.647 126.308 127.33 125.791 128.173 126.278L149.851 138.776C150.694 139.262 151.378 140.566 151.378 141.688V196.722C151.378 197.845 150.694 198.361 149.851 197.875Z" fill="#0071BC"/>
<path d="M150.559 197.459L128.882 184.961C128.039 184.475 127.355 183.171 127.355 182.048V127.015C127.355 126.632 127.436 126.322 127.575 126.096C127.029 126.092 126.647 126.591 126.647 127.431V182.465C126.647 183.587 127.33 184.891 128.173 185.377L149.851 197.875C150.407 198.195 150.892 198.078 151.159 197.642C150.975 197.64 150.772 197.582 150.559 197.459Z" fill="#396CAA"/>
<path d="M149.847 172.608L141.79 167.963L128.939 175.372L151.374 188.306V175.521C151.374 174.398 150.691 173.094 149.847 172.608Z" fill="#0071BC"/>
<path d="M149.847 161.331L141.79 156.686L128.939 164.094L151.374 177.029V164.243C151.374 163.121 150.691 161.817 149.847 161.331Z" fill="#0071BC"/>
<path d="M149.847 150.054L141.79 145.408L128.939 152.817L151.374 165.752V152.966C151.374 151.844 150.691 150.539 149.847 150.054Z" fill="#0071BC"/>
<path d="M149.847 138.776L141.79 134.131L128.939 141.54L151.374 154.474V141.689C151.374 140.566 150.691 139.263 149.847 138.776Z" fill="#0071BC"/>
<path d="M149.849 138.776L132.011 128.492L128.941 130.262L151.376 143.197V141.689C151.375 140.566 150.692 139.263 149.849 138.776Z" fill="#0071BC"/>
<path d="M151.374 143.197L128.939 130.263V137.391L151.374 150.325V143.197Z" fill="#5793CE"/>
<path d="M151.374 154.475L128.939 141.54V148.668L151.374 161.602V154.475Z" fill="#5793CE"/>
<path d="M151.374 165.752L128.939 152.817V159.945L151.374 172.88V165.752Z" fill="#5793CE"/>
<path d="M151.374 177.029L128.939 164.095V171.223L151.374 184.157V177.029Z" fill="#5793CE"/>
<path d="M151.374 188.307L128.939 175.372V182.5L151.374 195.434V188.307Z" fill="#5793CE"/>
<path d="M149.4 147.785L132.502 138.042C132.025 137.767 131.638 137.029 131.638 136.394V134.485C131.638 133.85 132.025 133.558 132.502 133.833L149.4 143.575C149.877 143.851 150.264 144.589 150.264 145.224V147.133C150.264 147.768 149.877 148.06 149.4 147.785Z" fill="#0071BC"/>
<path opacity="0.3" d="M133.356 137.678C132.879 137.403 132.492 136.665 132.492 136.029V134.121C132.492 134.019 132.505 133.93 132.524 133.846L132.502 133.834C132.025 133.559 131.638 133.851 131.638 134.486V136.395C131.638 137.03 132.025 137.768 132.502 138.043L149.4 147.786C149.801 148.017 150.135 147.844 150.232 147.408L133.356 137.678Z" fill="#0071BC"/>
<path d="M144.098 142.553L133.929 136.69C133.762 136.593 133.625 136.334 133.625 136.111C133.625 135.887 133.761 135.784 133.929 135.881L144.098 141.744C144.266 141.841 144.402 142.1 144.402 142.324C144.402 142.547 144.266 142.65 144.098 142.553Z" fill="white"/>
<path d="M149.4 158.993L132.502 149.25C132.025 148.975 131.638 148.237 131.638 147.602V145.693C131.638 145.058 132.025 144.766 132.502 145.041L149.4 154.783C149.877 155.059 150.264 155.796 150.264 156.431V158.34C150.264 158.976 149.877 159.268 149.4 158.993Z" fill="#0071BC"/>
<path opacity="0.3" d="M133.356 148.885C132.879 148.61 132.492 147.872 132.492 147.236V145.328C132.492 145.226 132.505 145.136 132.524 145.053L132.502 145.041C132.025 144.766 131.638 145.058 131.638 145.693V147.602C131.638 148.237 132.025 148.975 132.502 149.25L149.4 158.993C149.801 159.224 150.135 159.051 150.232 158.615L133.356 148.885Z" fill="#0071BC"/>
<path d="M144.098 153.761L133.929 147.898C133.762 147.801 133.625 147.542 133.625 147.319C133.625 147.095 133.761 146.992 133.929 147.089L144.098 152.951C144.266 153.048 144.402 153.308 144.402 153.531C144.402 153.755 144.266 153.858 144.098 153.761Z" fill="white"/>
<path d="M149.4 170.304L132.502 160.562C132.025 160.287 131.638 159.549 131.638 158.913V157.005C131.638 156.369 132.025 156.077 132.502 156.353L149.4 166.095C149.877 166.37 150.264 167.108 150.264 167.743V169.652C150.264 170.287 149.877 170.579 149.4 170.304Z" fill="#0071BC"/>
<path opacity="0.3" d="M133.356 160.197C132.879 159.922 132.492 159.185 132.492 158.549V156.64C132.492 156.538 132.505 156.449 132.524 156.366L132.502 156.354C132.025 156.078 131.638 156.37 131.638 157.006V158.914C131.638 159.55 132.025 160.288 132.502 160.563L149.4 170.305C149.801 170.536 150.135 170.364 150.232 169.927L133.356 160.197Z" fill="#0071BC"/>
<path d="M144.098 165.073L133.929 159.21C133.762 159.113 133.625 158.854 133.625 158.63C133.625 158.407 133.761 158.304 133.929 158.401L144.098 164.263C144.266 164.36 144.402 164.62 144.402 164.843C144.402 165.067 144.266 165.169 144.098 165.073Z" fill="#D4ECFF"/>
<path d="M149.4 181.721L132.502 171.979C132.025 171.704 131.638 170.966 131.638 170.33V168.422C131.638 167.786 132.025 167.494 132.502 167.77L149.4 177.512C149.877 177.787 150.264 178.525 150.264 179.16V181.069C150.264 181.704 149.877 181.996 149.4 181.721Z" fill="#0071BC"/>
<path opacity="0.3" d="M133.356 171.613C132.879 171.338 132.492 170.6 132.492 169.965V168.056C132.492 167.954 132.505 167.865 132.524 167.782L132.502 167.77C132.025 167.494 131.638 167.786 131.638 168.422V170.33C131.638 170.966 132.025 171.704 132.502 171.979L149.4 181.721C149.801 181.952 150.135 181.78 150.232 181.343L133.356 171.613Z" fill="#0071BC"/>
<path d="M144.098 176.49L133.929 170.627C133.762 170.53 133.625 170.271 133.625 170.047C133.625 169.824 133.761 169.721 133.929 169.818L144.098 175.68C144.266 175.777 144.402 176.037 144.402 176.26C144.402 176.484 144.266 176.586 144.098 176.49Z" fill="#EB2027"/>
<path d="M149.4 192.911L132.502 183.168C132.025 182.893 131.638 182.155 131.638 181.52V179.611C131.638 178.976 132.025 178.684 132.502 178.959L149.4 188.701C149.877 188.977 150.264 189.715 150.264 190.35V192.259C150.264 192.894 149.877 193.186 149.4 192.911Z" fill="#0071BC"/>
<path opacity="0.3" d="M133.356 182.803C132.879 182.528 132.492 181.79 132.492 181.154V179.246C132.492 179.144 132.505 179.054 132.524 178.971L132.502 178.959C132.025 178.684 131.638 178.976 131.638 179.611V181.52C131.638 182.155 132.025 182.893 132.502 183.168L149.4 192.911C149.801 193.142 150.135 192.969 150.232 192.533L133.356 182.803Z" fill="#0071BC"/>
<path d="M144.098 187.679L133.929 181.816C133.762 181.719 133.625 181.46 133.625 181.237C133.625 181.013 133.761 180.91 133.929 181.007L144.098 186.87C144.266 186.967 144.402 187.226 144.402 187.45C144.402 187.673 144.266 187.776 144.098 187.679Z" fill="#D4ECFF"/>
<path opacity="0.5" d="M128.943 130.263L130.71 131.281V138.409L128.943 137.391V130.263Z" fill="#0071BC"/>
<path opacity="0.5" d="M128.943 141.54L130.71 142.559V149.687L128.943 148.668V141.54Z" fill="#0071BC"/>
<path opacity="0.5" d="M128.943 152.817L130.71 153.836V160.963L128.943 159.945V152.817Z" fill="#0071BC"/>
<path opacity="0.5" d="M128.943 164.095L130.71 165.113V172.241L128.943 171.223V164.095Z" fill="#0071BC"/>
<path opacity="0.5" d="M128.943 175.372L130.71 176.39V183.519L128.943 182.5V175.372Z" fill="#0071BC"/>
<path d="M146.1 143.257C146.1 143.485 145.94 143.577 145.742 143.463C145.545 143.349 145.384 143.072 145.384 142.844C145.384 142.616 145.545 142.524 145.742 142.638C145.94 142.752 146.1 143.029 146.1 143.257Z" fill="#D4ECFF"/>
<path d="M147.616 144.131C147.616 144.359 147.456 144.452 147.258 144.337C147.06 144.224 146.9 143.946 146.9 143.718C146.9 143.49 147.06 143.398 147.258 143.512C147.456 143.626 147.616 143.903 147.616 144.131Z" fill="#EB2027"/>
<path d="M149.132 145.005C149.132 145.233 148.972 145.326 148.774 145.211C148.576 145.098 148.416 144.82 148.416 144.592C148.416 144.364 148.576 144.272 148.774 144.386C148.972 144.5 149.132 144.777 149.132 145.005Z" fill="#D4ECFF"/>
<path d="M146.1 154.529C146.1 154.757 145.94 154.849 145.742 154.735C145.545 154.621 145.384 154.344 145.384 154.116C145.384 153.887 145.545 153.795 145.742 153.909C145.94 154.024 146.1 154.301 146.1 154.529Z" fill="#EB2027"/>
<path d="M147.616 155.403C147.616 155.631 147.456 155.723 147.258 155.609C147.06 155.495 146.9 155.218 146.9 154.99C146.9 154.762 147.06 154.669 147.258 154.783C147.456 154.898 147.616 155.175 147.616 155.403Z" fill="#D4ECFF"/>
<path d="M149.132 156.277C149.132 156.505 148.972 156.597 148.774 156.483C148.576 156.369 148.416 156.092 148.416 155.863C148.416 155.635 148.576 155.543 148.774 155.657C148.972 155.772 149.132 156.049 149.132 156.277Z" fill="white"/>
<path d="M146.1 165.885C146.1 166.113 145.94 166.206 145.742 166.091C145.545 165.977 145.384 165.7 145.384 165.472C145.384 165.244 145.545 165.152 145.742 165.266C145.94 165.38 146.1 165.657 146.1 165.885Z" fill="white"/>
<path d="M147.616 166.76C147.616 166.988 147.456 167.081 147.258 166.966C147.06 166.853 146.9 166.575 146.9 166.347C146.9 166.119 147.06 166.026 147.258 166.141C147.456 166.255 147.616 166.532 147.616 166.76Z" fill="#EB2027"/>
<path d="M149.132 167.634C149.132 167.862 148.972 167.955 148.774 167.84C148.576 167.727 148.416 167.449 148.416 167.221C148.416 166.993 148.576 166.901 148.774 167.015C148.972 167.129 149.132 167.406 149.132 167.634Z" fill="white"/>
<path d="M146.1 177.077C146.1 177.305 145.94 177.397 145.742 177.283C145.545 177.169 145.384 176.892 145.384 176.664C145.384 176.435 145.545 176.343 145.742 176.457C145.94 176.571 146.1 176.848 146.1 177.077Z" fill="white"/>
<path d="M147.616 177.951C147.616 178.179 147.456 178.271 147.258 178.157C147.06 178.043 146.9 177.766 146.9 177.538C146.9 177.309 147.06 177.217 147.258 177.331C147.456 177.446 147.616 177.722 147.616 177.951Z" fill="#D4ECFF"/>
<path d="M149.132 178.825C149.132 179.053 148.972 179.146 148.774 179.031C148.576 178.918 148.416 178.64 148.416 178.413C148.416 178.184 148.576 178.092 148.774 178.206C148.972 178.32 149.132 178.597 149.132 178.825Z" fill="#D4ECFF"/>
<path d="M146.1 188.42C146.1 188.649 145.94 188.741 145.742 188.627C145.545 188.513 145.384 188.235 145.384 188.007C145.384 187.779 145.545 187.687 145.742 187.801C145.94 187.915 146.1 188.193 146.1 188.42Z" fill="white"/>
<path d="M147.616 189.295C147.616 189.523 147.456 189.616 147.258 189.502C147.06 189.388 146.9 189.11 146.9 188.882C146.9 188.654 147.06 188.562 147.258 188.676C147.456 188.79 147.616 189.067 147.616 189.295Z" fill="#EB2027"/>
<path d="M149.132 190.169C149.132 190.397 148.972 190.489 148.774 190.375C148.576 190.261 148.416 189.984 148.416 189.756C148.416 189.528 148.576 189.436 148.774 189.55C148.972 189.664 149.132 189.941 149.132 190.169Z" fill="#D4ECFF"/>
<path d="M156.895 193.433V142.974L156.999 142.914L178.118 130.738V181.197L178.013 181.257L156.895 193.433ZM157.313 143.215V192.709L177.699 180.956V131.462L157.313 143.215Z" fill="#0071BC"/>
<path d="M172.628 153.442L163.159 158.901C162.523 159.268 162.007 158.879 162.007 158.031V152.789C162.007 151.942 162.523 150.958 163.159 150.592L172.628 145.132C173.264 144.766 173.78 145.154 173.78 146.002V151.245C173.78 152.091 173.264 153.074 172.628 153.442Z" fill="#0071BC"/>
<path d="M172.858 145.03C172.912 145.177 172.944 145.353 172.944 145.556V150.799C172.944 151.646 172.428 152.63 171.792 152.996L162.323 158.456C162.244 158.501 162.167 158.535 162.093 158.557C162.264 159.02 162.676 159.18 163.16 158.901L172.629 153.442C173.265 153.075 173.78 152.091 173.78 151.245V146.002C173.78 145.259 173.384 144.869 172.858 145.03Z" fill="#5793CE"/>
<path d="M170.901 150.284C171.075 150.184 171.217 150.265 171.217 150.467V151.662C171.217 151.863 171.075 152.109 170.901 152.21C170.726 152.311 170.584 152.229 170.584 152.027V150.833C170.584 150.631 170.725 150.385 170.901 150.284Z" fill="white"/>
<path d="M169.543 151.217C169.718 151.116 169.86 151.198 169.86 151.4V152.445C169.86 152.647 169.718 152.892 169.543 152.993C169.368 153.094 169.227 153.012 169.227 152.81V151.765C169.226 151.563 169.368 151.318 169.543 151.217Z" fill="#D4ECFF"/>
<path d="M168.186 150.833C168.361 150.732 168.502 150.814 168.502 151.016V153.227C168.502 153.428 168.361 153.674 168.186 153.775C168.011 153.876 167.87 153.794 167.87 153.592V151.382C167.87 151.179 168.011 150.935 168.186 150.833Z" fill="#EB2027"/>
<path d="M166.829 150.343C167.003 150.242 167.145 150.324 167.145 150.526V154.01C167.145 154.213 167.003 154.458 166.829 154.559C166.654 154.66 166.512 154.578 166.512 154.376V150.891C166.512 150.689 166.654 150.444 166.829 150.343Z" fill="#D4ECFF"/>
<path d="M165.469 151.491C165.644 151.391 165.786 151.473 165.786 151.674V154.794C165.786 154.995 165.644 155.241 165.469 155.342C165.294 155.443 165.153 155.361 165.153 155.159V152.04C165.153 151.838 165.294 151.592 165.469 151.491Z" fill="#D4ECFF"/>
<path d="M164.11 153.7C164.285 153.6 164.426 153.681 164.426 153.883V155.577C164.426 155.779 164.285 156.024 164.11 156.126C163.935 156.227 163.793 156.145 163.793 155.943V154.249C163.793 154.047 163.935 153.801 164.11 153.7Z" fill="white"/>
<path d="M170.588 149.682C170.588 149.88 170.728 149.961 170.9 149.861C171.072 149.762 171.211 149.52 171.211 149.322C171.211 149.123 171.072 149.043 170.9 149.142C170.728 149.241 170.588 149.483 170.588 149.682Z" fill="#EB2027"/>
<path d="M170.588 148.559C170.588 148.758 170.728 148.838 170.9 148.739C171.072 148.64 171.211 148.398 171.211 148.199C171.211 148 171.072 147.92 170.9 148.019C170.728 148.119 170.588 148.36 170.588 148.559Z" fill="white"/>
<defs>
<linearGradient id="paint0_linear_1_1328" x1="167.302" y1="177.998" x2="194.956" y2="130.034" gradientUnits="userSpaceOnUse">
<stop stop-color="#2D0979"/>
<stop offset="1" stop-color="#5B04F7"/>
</linearGradient>
<linearGradient id="paint1_linear_1_1328" x1="125.691" y1="158.415" x2="148.241" y2="154.92" gradientUnits="userSpaceOnUse">
<stop stop-color="#3919BB"/>
<stop offset="1" stop-color="#6507FA"/>
</linearGradient>
<linearGradient id="paint2_linear_1_1328" x1="125.691" y1="158.415" x2="148.241" y2="154.92" gradientUnits="userSpaceOnUse">
<stop stop-color="#3919BB"/>
<stop offset="1" stop-color="#6507FA"/>
</linearGradient>
</defs>
</svg>
