<svg width="60" height="12" viewBox="0 0 60 12" fill="none" xmlns="http://www.w3.org/2000/svg">
<path d="M58.5659 6.25675H1.17888C0.839567 6.25675 0.56543 5.98261 0.56543 5.64329C0.56543 5.30397 0.839567 5.02984 1.17888 5.02984H57.084L53.3611 1.30693C53.1214 1.0673 53.1214 0.678143 53.3611 0.438512C53.6007 0.198881 53.9899 0.198881 54.2295 0.438512L59.001 5.21004C59.1774 5.38641 59.2292 5.64904 59.1333 5.87909C59.0375 6.10722 58.8132 6.25675 58.5659 6.25675Z" fill="#323232"/>
<path d="M53.788 11.0341C53.6308 11.0341 53.4736 10.9746 53.3548 10.8539C53.1151 10.6142 53.1151 10.2251 53.3548 9.98544L58.1321 5.20817C58.3717 4.96853 58.7608 4.96853 59.0005 5.20817C59.2401 5.4478 59.2401 5.83696 59.0005 6.07659L54.2232 10.8539C54.1024 10.9746 53.9452 11.0341 53.788 11.0341Z" fill="#323232"/>
</svg>
