<?xml version="1.0" encoding="iso-8859-1"?>
<!-- Uploaded to: SVG Repo, www.svgrepo.com, Generator: SVG Repo Mixer Tools -->
<svg fill="#000000" version="1.1" id="Capa_1" xmlns="http://www.w3.org/2000/svg" xmlns:xlink="http://www.w3.org/1999/xlink" 
	 viewBox="0 0 611.998 611.998" xml:space="preserve">
<g>
	<g>
		<path d="M488.538,304.237l79.602-129.842l-89.765,123.046l0.002,0.002L445.8,346.078
			c-27.095-27.247-119.391-120.05-120.76-121.263c17.643-17.839,28.636-42.249,28.96-69.187
			c12.99-3.082,22.486-14.669,22.486-28.564c0-13.899-9.501-25.491-22.497-28.569C353.082,44.033,308.527,0,253.852,0
			c-54.674,0-99.231,44.033-100.135,98.496c-12.996,3.078-22.495,14.669-22.495,28.567c0,13.895,9.493,25.482,22.483,28.564
			c0.322,26.936,11.316,51.347,28.958,69.186c-5.543,4.896-127.5,128.722-127.5,128.722c-7.29,7.29-11.304,16.98-11.304,27.289
			c0,10.311,4.015,20.003,11.304,27.291c7.296,7.297,16.994,11.316,27.305,11.316c10.312,0,20.007-4.021,27.293-11.316
			l36.726-36.726v82.377h31.023v158.232h152.685V453.766h31.023v-83.05l37.397,37.397c1.125,1.126,2.314,2.162,3.547,3.13
			l-14.787,22.08l10.158,6.802l15.362-22.94c4.125,1.475,8.515,2.243,13.025,2.243c10.312,0,20.006-4.019,27.294-11.315
			c7.29-7.29,11.304-16.98,11.304-27.291c0-9.652-3.52-18.764-9.952-25.867L488.538,304.237L488.538,304.237z M354.03,111.362
			c6.055,2.647,10.23,8.665,10.23,15.701c0,7.036-4.174,13.054-10.23,15.701V111.362z M153.674,142.764
			c-6.053-2.647-10.227-8.663-10.227-15.701c0-7.037,4.174-13.054,10.227-15.701V142.764z M307.865,30.84
			c20.509,16.011,33.766,40.889,33.927,68.827c-14.003-5.957-24.991-16.862-31.017-30.867
			C305.555,56.67,304.589,43.435,307.865,30.84z M208.957,24.586c13.153-7.84,28.503-12.36,44.895-12.36
			c15.762,0,30.557,4.189,43.365,11.48c-5.318,16.405-4.545,33.957,2.326,49.926c6.581,15.294,18.051,27.539,32.687,35.062
			l-11.665,7.667c-6.353-7.497-15.828-12.27-26.402-12.27c-18.592,0-33.801,14.741-34.567,33.149h-11.489
			c-0.766-18.407-15.975-33.149-34.567-33.149c-10.004,0-19.025,4.271-25.349,11.081l-11.972-7.869
			c13.413-7.598,23.943-19.282,30.135-33.673C213.102,57.949,213.968,40.738,208.957,24.586z M316.542,138.697
			c0,12.339-10.039,22.379-22.378,22.379c-12.339,0-22.379-10.039-22.379-22.379s10.039-22.379,22.379-22.379
			C306.504,116.318,316.542,126.358,316.542,138.697z M235.919,138.697c0,12.339-10.039,22.379-22.379,22.379
			c-12.34,0-22.379-10.039-22.379-22.379s10.039-22.379,22.379-22.379C225.879,116.318,235.919,126.358,235.919,138.697z
			 M198.342,32.018c2.917,12.24,1.838,25.031-3.218,36.783c-5.763,13.392-16.059,23.955-29.191,30.063
			C166.332,71.933,178.877,47.899,198.342,32.018z M165.899,154.415v-39.262l15.675,10.303c-1.696,4.082-2.639,8.553-2.639,13.241
			c0,19.08,15.524,34.605,34.605,34.605c15.32,0,28.339-10.011,32.88-23.834h14.867c4.539,13.821,17.559,23.834,32.88,23.834
			c19.081,0,34.604-15.524,34.604-34.605c0-4.122-0.727-8.075-2.055-11.744l15.091-9.92v37.382
			c0,48.497-39.456,87.952-87.952,87.952h-0.002C205.355,242.367,165.899,202.911,165.899,154.415z M253.852,401.218l-21.261-25.512
			l21.261-68.95l21.262,68.95L253.852,401.218z M253.846,277.171l-26.032-26.032c8.309,2.239,17.032,3.452,26.038,3.452
			c9.003,0,17.724-1.213,26.03-3.451L253.846,277.171z M239.946,280.562l-25.173,11.064l-27.647-54.276
			c1.522-1.49,3.108-2.928,4.739-4.326C192.668,233.658,239.946,280.562,239.946,280.562z M315.841,233.022
			c1.516,1.302,3.006,2.668,4.464,4.091l-27.768,54.513l-24.909-10.948C267.63,280.678,315.04,233.655,315.841,233.022z
			 M101.115,399.475c-4.98,4.987-11.602,7.733-18.646,7.733c-7.045,0-13.673-2.748-18.661-7.734
			c-4.979-4.98-7.722-11.602-7.722-18.647c0-7.044,2.743-13.665,7.722-18.646l13.922-13.922l38.034,36.569L101.115,399.475z
			 M146.488,305.177V354.1l-22.077,22.077l-38.034-36.569l64.292-64.292C147.923,284.882,146.488,294.91,146.488,305.177z
			 M158.714,441.542V305.179c0-21.369,7.021-41.563,19.705-57.987l30.702,60.273l36.691-16.126l-26.859,87.101l28.824,34.587v28.515
			L158.714,441.542L158.714,441.542z M190.461,599.774c2.919-13.286,14.477-22.373,28.274-22.373
			c13.798,0,25.355,9.087,28.274,22.373H190.461z M247.733,577.059c-7.455-7.36-17.701-11.883-29-11.883
			c-11.297,0-21.543,4.524-28.998,11.883V453.768h57.996v123.291H247.733z M260.695,599.774
			c2.919-13.286,14.477-22.373,28.275-22.373s25.355,9.087,28.274,22.373H260.695z M317.97,577.06
			c-7.455-7.361-17.703-11.885-29-11.885c-11.303,0-21.556,4.528-29.012,11.896V453.766h58.011V577.06z M348.993,441.542h-88.988
			v-28.608l28.746-34.494l-26.797-86.901l36.236,15.926l30.85-60.56c12.924,16.6,19.954,36.887,19.954,58.274V441.542z
			 M356.741,274.35l65.249,65.247l-38.034,36.569l-22.737-22.737v-48.252C361.219,294.582,359.684,284.224,356.741,274.35z
			 M444.566,399.475c-4.98,4.987-11.602,7.731-18.646,7.731c-7.045,0-13.673-2.746-18.66-7.733l-14.659-14.659l38.034-36.569
			l13.934,13.934c4.98,4.98,7.722,11.602,7.722,18.646C452.293,387.871,449.55,394.493,444.566,399.475z"/>
		<circle cx="213.54" cy="138.697" r="8.654"/>
		<circle cx="294.165" cy="138.697" r="8.654"/>
		<rect x="175.035" y="319.101" width="47.375" height="12.226"/>
	</g>
</g>
</svg>