<svg width="200" height="234" viewBox="0 0 200 234" fill="none" xmlns="http://www.w3.org/2000/svg">
<rect x="0.5" y="0.5" width="199" height="232.284" rx="9.5" fill="white" stroke="#E6E6E6"/>
<path d="M33.5486 180.129L89.6294 211.889L170.982 165.347L114.901 133.587L33.5486 180.129Z" fill="#0071BC"/>
<path opacity="0.4" d="M33.5486 180.129L89.6294 211.889L170.982 165.347L114.901 133.587L33.5486 180.129Z" fill="black"/>
<path d="M90.0479 210.31L35.2653 179.148C36.1891 176.525 36.1192 175.355 35.0706 171.866L89.6284 202.805C89.6284 202.805 90.3025 203.133 90.0479 210.31Z" fill="#F5F5F5"/>
<path d="M87.8218 199.943C88.8148 200.58 89.6427 201.441 90.238 202.458C90.8334 203.474 91.1792 204.616 91.2473 205.791V210.734C91.2473 212.889 89.7193 213.76 87.8418 212.685L33.5686 181.826V180.134L87.3724 210.604C88.5059 211.251 89.4197 210.729 89.4147 209.434L89.3847 204.99C89.3409 204.29 89.1328 203.61 88.7773 203.005C88.4217 202.4 87.9285 201.886 87.3375 201.506L33.5486 170.99V169.074L87.8218 199.943Z" fill="#0071BC"/>
<path opacity="0.3" d="M87.8218 199.943C88.8148 200.58 89.6427 201.441 90.238 202.458C90.8334 203.474 91.1792 204.616 91.2473 205.791V210.734C91.2473 212.889 89.7193 213.76 87.8418 212.685L33.5686 181.826V180.134L87.3724 210.604C88.5059 211.251 89.4197 210.729 89.4147 209.434L89.3847 204.99C89.3409 204.29 89.1328 203.61 88.7773 203.005C88.4217 202.4 87.9285 201.886 87.3375 201.506L33.5486 170.99V169.074L87.8218 199.943Z" fill="black"/>
<path d="M33.5488 169.084L114.901 122.542L169.164 153.401C170.155 154.039 170.98 154.902 171.572 155.918C172.165 156.934 172.509 158.075 172.575 159.249V164.191C172.575 165.266 172.195 166.023 171.576 166.376L90.2488 212.918C90.868 212.565 91.2475 211.808 91.2475 210.738V205.786C91.1803 204.613 90.8364 203.473 90.2438 202.458C89.6512 201.442 88.8266 200.581 87.837 199.943L33.5488 169.084Z" fill="#0071BC"/>
<path opacity="0.2" d="M33.5488 169.084L114.901 122.542L169.164 153.401C170.155 154.039 170.98 154.902 171.572 155.918C172.165 156.934 172.509 158.075 172.575 159.249V164.191C172.575 165.266 172.195 166.023 171.576 166.376L90.2488 212.918C90.868 212.565 91.2475 211.808 91.2475 210.738V205.786C91.1803 204.613 90.8364 203.473 90.2438 202.458C89.6512 201.442 88.8266 200.581 87.837 199.943L33.5488 169.084Z" fill="black"/>
<path d="M90.2478 202.461C90.8595 203.466 91.2033 204.611 91.2465 205.786V210.738C91.2465 211.808 90.867 212.565 90.2478 212.918L171.6 166.376C172.219 166.023 172.599 165.266 172.599 164.191V159.249C172.556 158.074 172.213 156.929 171.6 155.924L90.2478 202.461Z" fill="#0071BC"/>
<path d="M90.2478 202.461C90.8624 203.465 91.2064 204.61 91.2465 205.786V210.733C91.2465 211.808 90.867 212.565 90.2478 212.918L171.595 166.376C172.214 166.018 172.594 165.266 172.594 164.191V159.244C172.553 158.068 172.209 156.923 171.595 155.919L90.2478 202.461Z" fill="#0071BC"/>
<path d="M163.571 160.453C164.674 165.231 164.659 167.476 163.571 170.98L160.75 172.603C161.838 169.118 161.853 166.854 160.75 162.076L163.571 160.453Z" fill="#0071BC"/>
<path d="M102.61 195.379C103.713 200.157 103.698 202.347 102.61 205.831L99.7886 207.444C100.877 203.935 100.892 201.765 99.7886 196.992L102.61 195.379Z" fill="#0071BC"/>
<g opacity="0.4">
<path d="M163.573 160.453C164.676 165.231 164.661 167.476 163.573 170.98L160.751 172.603C161.84 169.118 161.855 166.854 160.751 162.076L163.573 160.453Z" fill="white"/>
<path d="M102.614 195.378C103.717 200.156 103.702 202.346 102.614 205.83L99.7925 207.443C100.881 203.934 100.896 201.764 99.7925 196.991L102.614 195.378Z" fill="white"/>
</g>
<path d="M27.9001 168.322L83.986 200.082L165.333 153.54L109.253 121.775L27.9001 168.322Z" fill="#0071BC"/>
<path opacity="0.2" d="M27.9001 168.322L83.986 200.082L165.333 153.54L109.253 121.775L27.9001 168.322Z" fill="white"/>
<path d="M84.402 198.494L29.6194 167.342C30.5482 164.719 30.4783 163.923 29.4297 160.438L83.9875 191.397C83.9875 191.397 84.6566 191.327 84.402 198.494Z" fill="#F5F5F5"/>
<path d="M82.1723 188.515C83.1642 189.156 83.9899 190.022 84.5818 191.042C85.1737 192.062 85.515 193.207 85.5778 194.383V198.952C85.5778 201.107 84.0548 201.978 82.1723 200.903L27.9041 169.995V168.303L81.7079 198.773C82.8364 199.42 83.7502 198.898 83.7502 197.603L83.7152 193.537C83.672 192.838 83.4647 192.158 83.11 191.553C82.7553 190.948 82.2631 190.434 81.6729 190.053L27.9041 159.573V157.651L82.1723 188.515Z" fill="#0071BC"/>
<path opacity="0.4" d="M82.1723 188.515C83.1642 189.156 83.9899 190.022 84.5818 191.042C85.1737 192.062 85.515 193.207 85.5778 194.383V198.952C85.5778 201.107 84.0548 201.978 82.1723 200.903L27.9041 169.995V168.303L81.7079 198.773C82.8364 199.42 83.7502 198.898 83.7502 197.603L83.7152 193.537C83.672 192.838 83.4647 192.158 83.11 191.553C82.7553 190.948 82.2631 190.434 81.6729 190.053L27.9041 159.573V157.651L82.1723 188.515Z" fill="white"/>
<path d="M27.9041 157.656L109.251 111.114L163.52 141.973C164.508 142.611 165.332 143.473 165.924 144.489C166.515 145.504 166.859 146.644 166.925 147.816V152.385C166.925 153.46 166.551 154.217 165.927 154.57L84.5791 201.112C85.1983 200.759 85.5778 200.002 85.5778 198.932V194.383C85.5111 193.211 85.168 192.071 84.5763 191.055C83.9846 190.04 83.1609 189.178 82.1723 188.54L27.9041 157.656Z" fill="#0071BC"/>
<path opacity="0.85" d="M27.9041 157.656L109.251 111.114L163.52 141.973C164.508 142.611 165.332 143.473 165.924 144.489C166.515 145.504 166.859 146.644 166.925 147.816V152.385C166.925 153.46 166.551 154.217 165.927 154.57L84.5791 201.112C85.1983 200.759 85.5778 200.002 85.5778 198.932V194.383C85.5111 193.211 85.168 192.071 84.5763 191.055C83.9846 190.04 83.1609 189.178 82.1723 188.54L27.9041 157.656Z" fill="white"/>
<path d="M84.5874 191.033C85.202 192.037 85.546 193.183 85.5861 194.358V198.932C85.5861 200.002 85.2066 200.759 84.5874 201.112L165.93 154.565C166.554 154.212 166.929 153.455 166.929 152.38V147.811C166.888 146.636 166.544 145.491 165.93 144.486L84.5874 191.033Z" fill="#0071BC"/>
<path opacity="0.6" d="M84.5874 191.033C85.202 192.037 85.546 193.183 85.5861 194.358V198.932C85.5861 200.002 85.2066 200.759 84.5874 201.112L165.93 154.565C166.554 154.212 166.929 153.455 166.929 152.38V147.811C166.888 146.636 166.544 145.491 165.93 144.486L84.5874 191.033Z" fill="white"/>
<path d="M157.928 149.021C159.031 153.804 159.012 155.67 157.928 159.174L155.107 160.797C156.195 157.313 156.21 155.426 155.107 150.643L157.928 149.021Z" fill="white"/>
<path d="M96.9612 183.931C98.0697 188.709 98.0497 190.516 96.9612 194.019L94.1399 195.642C95.2285 192.158 95.2434 190.331 94.1399 185.553L96.9612 183.931Z" fill="white"/>
<path opacity="0.2" d="M30.5942 156.118L81.9813 185.693C82.737 186.076 83.5728 186.275 84.4206 186.275C85.2683 186.275 86.1041 186.076 86.8598 185.693L163.179 141.774L109.25 111.114L30.5942 156.118Z" fill="#0071BC"/>
<path d="M29.9673 149.852C30.0203 150.573 30.2427 151.272 30.6165 151.892C30.9904 152.512 31.5052 153.036 32.1194 153.421L82.5527 182.438C83.2201 182.777 83.9585 182.953 84.7074 182.953C85.4563 182.953 86.1946 182.777 86.862 182.438L165.518 137.17C166.17 136.828 166.715 136.316 167.096 135.688C167.476 135.06 167.677 134.34 167.677 133.606C167.677 132.873 167.476 132.153 167.096 131.525C166.715 130.897 166.17 130.384 165.518 130.043L115.085 101.02C114.417 100.684 113.679 100.509 112.93 100.509C112.182 100.509 111.444 100.684 110.775 101.02L32.1144 146.313C31.5045 146.695 30.9926 147.214 30.6198 147.829C30.247 148.443 30.0235 149.136 29.9673 149.852Z" fill="#37474F"/>
<path d="M32.1168 148.767L82.5501 177.789C83.2182 178.125 83.9563 178.3 84.7048 178.3C85.4533 178.3 86.1913 178.125 86.8594 177.789L165.515 132.496C166.709 131.809 166.709 130.699 165.515 130.007L115.082 100.985C114.414 100.649 113.676 100.474 112.927 100.474C112.179 100.474 111.441 100.649 110.773 100.985L32.1118 146.278C30.9284 146.975 30.9284 148.095 32.1168 148.767Z" fill="#455A64"/>
<path d="M84.7009 178.306V182.935C83.9528 182.952 83.2125 182.781 82.5487 182.437L32.1154 153.415C31.4853 153.082 30.9547 152.59 30.5774 151.987C30.2001 151.384 29.9896 150.692 29.9673 149.982C29.945 149.272 30.1116 148.568 30.4503 147.943C30.789 147.318 31.2877 146.793 31.8957 146.422C30.932 147.109 31.0069 148.124 32.1154 148.761L82.5487 177.783C83.2094 178.138 83.9504 178.318 84.7009 178.306Z" fill="#263238"/>
<path d="M111.634 32.9858C110.635 32.1894 108.892 32.1944 107.704 32.8763L29.0428 78.1689C28.4163 78.5767 27.895 79.1257 27.5211 79.7717C27.1472 80.4176 26.9312 81.1423 26.8906 81.8869V143.266C26.8906 144.635 27.7445 146.138 28.9479 146.601C30.1513 147.064 30.9453 146.954 32.1287 146.272L110.785 100.98C111.412 100.572 111.934 100.024 112.309 99.3776C112.684 98.7316 112.901 98.0066 112.942 97.2616V35.8974C112.937 34.5287 112.687 33.8269 111.634 32.9858Z" fill="#37474F"/>
<path d="M112.937 35.8981C112.937 34.5294 111.968 33.9769 110.78 34.6588L32.1188 79.9067C31.4921 80.3068 30.9769 80.858 30.6207 81.5093L27.5498 79.7275C27.9129 79.0732 28.437 78.5217 29.0728 78.1248L107.729 32.8769C108.917 32.1951 110.655 32.1801 111.654 32.9864C112.652 33.7927 112.937 34.5294 112.937 35.8981Z" fill="#455A64"/>
<path d="M29.9705 145.044V83.645C29.9961 82.898 30.2127 82.1699 30.5996 81.5297L27.5237 79.7578C27.1363 80.396 26.9197 81.1226 26.8945 81.8682V143.277C26.8945 144.646 27.7484 146.149 28.9518 146.612C30.1552 147.075 30.9492 146.965 32.1326 146.283C30.9392 146.965 29.9755 146.413 29.9705 145.044Z" fill="#263238"/>
<path d="M33.2769 82.3957L108.977 38.8451C109.691 38.4369 110.27 38.7704 110.27 39.5916V96.7002C110.246 97.1472 110.116 97.5821 109.891 97.9695C109.667 98.357 109.353 98.6861 108.977 98.93L33.2769 142.481C32.5629 142.894 31.9836 142.56 31.9836 141.739V84.6355C32.0075 84.1871 32.137 83.7506 32.3617 83.3615C32.5864 82.9724 32.9 82.6415 33.2769 82.3957Z" fill="black"/>
<path d="M33.2769 82.3956C32.9006 82.6409 32.5875 82.971 32.3628 83.3592C32.1381 83.7474 32.0082 84.1829 31.9836 84.6304V140.744L106.82 97.6906C107.196 97.4464 107.509 97.1172 107.734 96.7298C107.958 96.3424 108.088 95.9076 108.113 95.4608V39.3477L33.2769 82.3956Z" fill="white"/>
<path d="M38.7753 146.651L111.06 105.052C111.375 104.894 111.723 104.813 112.076 104.812C112.429 104.813 112.777 104.894 113.092 105.052L115.724 106.545C115.846 106.586 115.953 106.665 116.029 106.77C116.104 106.875 116.145 107 116.145 107.13C116.145 107.259 116.104 107.385 116.029 107.49C115.953 107.595 115.846 107.673 115.724 107.714L43.4292 149.289C43.1137 149.446 42.7658 149.528 42.413 149.528C42.0603 149.528 41.7124 149.446 41.3969 149.289L38.7753 147.821C38.6526 147.78 38.5458 147.701 38.4703 147.596C38.3947 147.491 38.354 147.365 38.354 147.236C38.354 147.107 38.3947 146.981 38.4703 146.876C38.5458 146.771 38.6526 146.692 38.7753 146.651Z" fill="#263238"/>
<path d="M45.8716 150.827L118.156 109.228C118.436 109.068 118.75 108.975 119.073 108.958C119.395 108.941 119.718 108.999 120.013 109.128L138.829 119.954C139.293 120.223 139.213 120.7 138.654 121.024L66.4543 162.564C66.1731 162.724 65.8586 162.816 65.5354 162.834C65.2122 162.852 64.8892 162.796 64.5918 162.668L45.7018 151.893C45.2324 151.624 45.3123 151.151 45.8716 150.827Z" fill="#263238"/>
<path d="M108.508 126.692L110.77 125.393C110.87 125.333 110.875 125.249 110.77 125.204L108.608 123.955C108.556 123.929 108.5 123.915 108.443 123.915C108.385 123.915 108.329 123.929 108.278 123.955L106.011 125.259C105.916 125.314 105.906 125.398 106.011 125.448L108.178 126.692C108.23 126.717 108.286 126.729 108.343 126.729C108.4 126.729 108.456 126.717 108.508 126.692ZM105.202 122.213L102.94 123.517C102.845 123.571 102.835 123.656 102.94 123.706L105.107 124.95C105.158 124.976 105.215 124.989 105.272 124.989C105.329 124.989 105.386 124.976 105.437 124.95L107.699 123.646C107.794 123.591 107.804 123.507 107.699 123.457L105.532 122.213C105.481 122.187 105.424 122.173 105.367 122.173C105.31 122.173 105.253 122.187 105.202 122.213ZM97.8917 126.418L94.0618 128.623C93.9669 128.678 93.9569 128.763 94.0618 128.813L96.2289 130.057C96.2791 130.083 96.3347 130.096 96.3912 130.096C96.4476 130.096 96.5033 130.083 96.5535 130.057L100.383 127.852C100.483 127.797 100.488 127.713 100.383 127.663L98.2213 126.418C98.1718 126.39 98.1161 126.373 98.0589 126.369C98.0016 126.366 97.9443 126.376 97.8917 126.399V126.418ZM101.886 124.114L99.6244 125.418C99.5245 125.473 99.5195 125.557 99.6244 125.607L101.787 126.851C101.838 126.877 101.894 126.891 101.951 126.891C102.009 126.891 102.065 126.877 102.116 126.851L104.378 125.547C104.478 125.493 104.483 125.408 104.378 125.358L102.216 124.114C102.168 124.087 102.114 124.071 102.058 124.067C102.003 124.064 101.948 124.073 101.896 124.094L101.886 124.114ZM93.0082 129.226L90.7511 130.51C90.6563 130.564 90.6463 130.649 90.7511 130.699L92.9133 131.943C92.9644 131.969 93.0208 131.982 93.0781 131.982C93.1353 131.982 93.1918 131.969 93.2428 131.943L95.5049 130.639C95.5997 130.584 95.6097 130.5 95.5049 130.45L93.3477 129.181C93.2947 129.159 93.2372 129.15 93.1799 129.154C93.1227 129.158 93.0672 129.176 93.0181 129.206L93.0082 129.226ZM89.6975 131.127L87.4355 132.431C87.3406 132.486 87.3307 132.57 87.4355 132.62L89.6027 133.864C89.6537 133.89 89.7102 133.904 89.7674 133.904C89.8247 133.904 89.8811 133.89 89.9322 133.864L92.1942 132.56C92.2891 132.506 92.2991 132.421 92.1942 132.371L90.0271 131.127C89.9789 131.1 89.925 131.084 89.8696 131.08C89.8142 131.077 89.7588 131.086 89.7075 131.107L89.6975 131.127ZM98.1863 136.214L100.448 134.91C100.543 134.855 100.553 134.77 100.448 134.72L98.2812 133.476C98.231 133.45 98.1753 133.437 98.1189 133.437C98.0624 133.437 98.0068 133.45 97.9566 133.476L95.7445 134.77C95.6497 134.825 95.6397 134.91 95.7445 134.959L97.9117 136.204C97.9573 136.221 98.0061 136.229 98.055 136.228C98.1039 136.226 98.1519 136.214 98.1963 136.194L98.1863 136.214ZM94.8757 138.115L97.1427 136.816C97.2376 136.761 97.2475 136.677 97.1427 136.627L94.9756 135.377C94.9247 135.351 94.8682 135.337 94.8108 135.337C94.7534 135.337 94.6968 135.351 94.646 135.377L92.384 136.677C92.2891 136.731 92.2791 136.816 92.384 136.866L94.5511 138.115C94.6046 138.138 94.6627 138.148 94.7207 138.144C94.7788 138.141 94.8353 138.124 94.8857 138.095L94.8757 138.115ZM91.5701 140.021L93.8321 138.717C93.9269 138.662 93.9369 138.578 93.8321 138.528L91.6699 137.284C91.6188 137.258 91.5624 137.244 91.5051 137.244C91.4479 137.244 91.3914 137.258 91.3404 137.284L89.0734 138.588C88.9785 138.643 88.9685 138.727 89.0734 138.777L91.2355 140.021C91.2901 140.047 91.3502 140.058 91.4103 140.054C91.4704 140.051 91.5287 140.033 91.58 140.001L91.5701 140.021ZM88.2544 141.903L90.5164 140.604C90.6113 140.549 90.6213 140.459 90.5164 140.414L88.3493 139.165C88.2985 139.139 88.2419 139.125 88.1845 139.125C88.1271 139.125 88.0706 139.139 88.0197 139.165L85.7577 140.464C85.6629 140.519 85.6529 140.604 85.7577 140.653L87.9249 141.903C87.9764 141.927 88.0327 141.94 88.0897 141.94C88.1467 141.94 88.2029 141.927 88.2544 141.903ZM105.182 128.603L107.444 127.299C107.539 127.245 107.549 127.16 107.444 127.11L105.277 125.866C105.226 125.84 105.169 125.827 105.112 125.827C105.055 125.827 104.998 125.84 104.947 125.866L102.735 127.19C102.64 127.245 102.63 127.329 102.735 127.379L104.902 128.623C104.951 128.641 105.003 128.649 105.054 128.646C105.106 128.642 105.156 128.628 105.202 128.603H105.182ZM101.482 134.287L106.53 131.386C106.63 131.331 106.635 131.246 106.53 131.197L101.312 128.185C101.261 128.16 101.205 128.146 101.147 128.146C101.09 128.146 101.034 128.16 100.983 128.185L98.3711 129.679C98.2762 129.733 98.2662 129.818 98.3711 129.868L101.157 131.47C101.242 131.52 101.232 131.605 101.157 131.659L99.0701 132.859C98.9703 132.914 98.9653 133.003 99.0701 133.048L101.232 134.297C101.276 134.314 101.322 134.321 101.368 134.319C101.414 134.318 101.46 134.307 101.502 134.287H101.482ZM86.3819 133.013L84.1199 134.317C84.02 134.372 84.015 134.457 84.1199 134.506L86.282 135.751C86.3331 135.777 86.3896 135.79 86.4468 135.79C86.5041 135.79 86.5605 135.777 86.6116 135.751L88.8736 134.447C88.9735 134.392 88.9785 134.307 88.8736 134.258L86.7115 133.013C86.663 132.991 86.6102 132.979 86.5567 132.979C86.5032 132.979 86.4503 132.991 86.4019 133.013H86.3819ZM83.0713 134.915L80.8093 136.219C80.7144 136.273 80.7044 136.358 80.8093 136.408L82.9764 137.652C83.0275 137.678 83.0839 137.691 83.1412 137.691C83.1985 137.691 83.2549 137.678 83.306 137.652L85.568 136.348C85.6629 136.293 85.6728 136.209 85.568 136.159L83.4009 134.915C83.3524 134.892 83.2996 134.88 83.2461 134.88C83.1926 134.88 83.1397 134.892 83.0913 134.915H83.0713ZM64.7855 155.242C64.8357 155.267 64.8913 155.281 64.9478 155.281C65.0042 155.281 65.0599 155.267 65.11 155.242L67.3771 153.937C67.4719 153.883 67.4819 153.798 67.3771 153.748L65.2099 152.499C65.1584 152.475 65.1021 152.462 65.0451 152.462C64.9881 152.462 64.9319 152.475 64.8804 152.499L62.6183 153.798C62.5235 153.858 62.5135 153.942 62.6183 153.987L64.7855 155.242ZM56.6263 150.145L54.3643 151.449C54.2644 151.504 54.2594 151.588 54.3643 151.638L56.5264 152.882C56.5775 152.908 56.6339 152.922 56.6912 152.922C56.7484 152.922 56.8049 152.908 56.856 152.882L59.118 151.578C59.2178 151.524 59.2228 151.439 59.118 151.389L56.9558 150.145C56.9054 150.12 56.8499 150.107 56.7935 150.107C56.7372 150.107 56.6817 150.12 56.6313 150.145H56.6263ZM60.8207 153.962C60.8718 153.988 60.9282 154.002 60.9855 154.002C61.0428 154.002 61.0992 153.988 61.1503 153.962L63.4123 152.658C63.5072 152.604 63.5172 152.519 63.4123 152.469L61.2901 151.21C61.2386 151.186 61.1823 151.173 61.1253 151.173C61.0683 151.173 61.012 151.186 60.9605 151.21L58.6985 152.509C58.6037 152.569 58.5937 152.653 58.6985 152.698L60.8207 153.962ZM69.9486 156.008L72.2107 154.704C72.3055 154.649 72.3155 154.565 72.2107 154.515L70.0435 153.271C69.9924 153.245 69.936 153.231 69.8787 153.231C69.8215 153.231 69.765 153.245 69.714 153.271L67.4769 154.565C67.382 154.619 67.3721 154.704 67.4769 154.754L69.644 155.998C69.6918 156.022 69.7442 156.036 69.7977 156.037C69.8512 156.039 69.9045 156.029 69.9536 156.008H69.9486ZM66.3085 157.924C66.36 157.949 66.4162 157.961 66.4732 157.961C66.5302 157.961 66.5865 157.949 66.638 157.924L68.9 156.625C68.9999 156.57 69.0049 156.486 68.9 156.436L66.7828 155.172C66.7321 155.145 66.6755 155.131 66.6181 155.131C66.5606 155.131 66.504 155.145 66.4533 155.172L64.1913 156.471C64.0914 156.526 64.0864 156.61 64.1913 156.66L66.3085 157.924ZM59.9369 148.244L57.6749 149.543C57.58 149.597 57.57 149.682 57.6749 149.732L59.842 150.981C59.8935 151.005 59.9498 151.018 60.0068 151.018C60.0638 151.018 60.1201 151.005 60.1716 150.981L62.4336 149.682C62.5285 149.627 62.5384 149.543 62.4336 149.493L60.2914 148.229C60.2362 148.2 60.1744 148.186 60.1121 148.189C60.0499 148.191 59.9895 148.21 59.9369 148.244ZM76.475 138.722L74.213 140.026C74.1181 140.081 74.1081 140.166 74.213 140.215L76.3801 141.46C76.4312 141.485 76.4877 141.499 76.5449 141.499C76.6022 141.499 76.6586 141.485 76.7097 141.46L78.9717 140.156C79.0666 140.101 79.0766 140.016 78.9717 139.966L76.8046 138.722C76.7535 138.696 76.6971 138.683 76.6398 138.683C76.5825 138.683 76.5261 138.696 76.475 138.722ZM63.2475 146.337L60.9805 147.641C60.8856 147.696 60.8756 147.781 60.9805 147.83L63.1426 149.075C63.1937 149.101 63.2502 149.114 63.3074 149.114C63.3647 149.114 63.4211 149.101 63.4722 149.075L65.7342 147.771C65.8341 147.716 65.8391 147.631 65.7342 147.582L63.5721 146.337C63.5217 146.312 63.4661 146.299 63.4098 146.299C63.3535 146.299 63.2979 146.312 63.2475 146.337ZM79.7657 136.821L77.5236 138.14C77.4238 138.2 77.4188 138.284 77.5236 138.329L79.6858 139.578C79.7368 139.604 79.7933 139.617 79.8506 139.617C79.9078 139.617 79.9643 139.604 80.0153 139.578L82.2773 138.274C82.3772 138.219 82.3822 138.135 82.2773 138.085L80.1152 136.836C80.0623 136.806 80.003 136.789 79.9422 136.786C79.8815 136.784 79.821 136.796 79.7657 136.821ZM73.1694 140.628L70.9074 141.927C70.8125 141.982 70.8025 142.072 70.9074 142.117L73.0745 143.366C73.1245 143.392 73.1802 143.406 73.2368 143.406C73.2934 143.406 73.3491 143.392 73.3991 143.366L75.6661 142.067C75.761 142.012 75.7709 141.927 75.6661 141.878L73.499 140.628C73.4475 140.604 73.3912 140.591 73.3342 140.591C73.2772 140.591 73.2209 140.604 73.1694 140.628ZM69.8638 142.53L67.5968 143.834C67.5019 143.889 67.4919 143.973 67.5968 144.023L69.7639 145.267C69.815 145.293 69.8714 145.306 69.9287 145.306C69.9859 145.306 70.0424 145.293 70.0935 145.267L72.3555 143.963C72.4503 143.908 72.4603 143.824 72.3555 143.774L70.1883 142.53C70.1381 142.504 70.0825 142.491 70.026 142.491C69.9696 142.491 69.914 142.504 69.8638 142.53ZM66.5531 144.436L64.2861 145.735C64.1913 145.79 64.1813 145.874 64.2861 145.924L66.4533 147.173C66.5032 147.2 66.5589 147.214 66.6156 147.214C66.6722 147.214 66.7279 147.2 66.7778 147.173L69.0448 145.874C69.1397 145.82 69.1497 145.735 69.0448 145.685L66.8777 144.436C66.8272 144.411 66.7717 144.399 66.7154 144.399C66.6592 144.399 66.6037 144.411 66.5531 144.436ZM81.6582 145.71L83.9202 144.411C84.015 144.351 84.025 144.267 83.9202 144.222L81.763 142.973C81.712 142.947 81.6555 142.933 81.5982 142.933C81.541 142.933 81.4845 142.947 81.4335 142.973L79.1714 144.277C79.0766 144.331 79.0666 144.416 79.1714 144.466L81.3386 145.71C81.3884 145.734 81.443 145.747 81.4984 145.747C81.5537 145.747 81.6084 145.734 81.6582 145.71ZM112.517 117.982L110.25 119.286C110.155 119.341 110.145 119.425 110.25 119.475L112.417 120.72C112.469 120.745 112.525 120.759 112.582 120.759C112.64 120.759 112.696 120.745 112.747 120.72L115.009 119.421C115.104 119.361 115.114 119.276 115.009 119.231L112.842 117.982C112.792 117.956 112.736 117.943 112.68 117.943C112.623 117.943 112.568 117.956 112.517 117.982ZM108.523 120.287L106.231 121.591C106.136 121.645 106.126 121.73 106.231 121.78L108.393 123.024C108.444 123.05 108.5 123.063 108.558 123.063C108.615 123.063 108.671 123.05 108.722 123.024L110.984 121.725C111.084 121.665 111.089 121.581 110.984 121.531L108.822 120.287C108.774 120.264 108.721 120.252 108.667 120.252C108.614 120.252 108.561 120.264 108.513 120.287H108.523ZM115.833 116.081L113.571 117.385C113.476 117.44 113.466 117.524 113.571 117.574L115.738 118.818C115.788 118.844 115.844 118.857 115.9 118.857C115.957 118.857 116.012 118.844 116.063 118.818L118.33 117.514C118.425 117.459 118.435 117.375 118.33 117.325L116.168 116.081C116.115 116.052 116.055 116.038 115.995 116.038C115.935 116.038 115.876 116.052 115.823 116.081H115.833ZM97.5521 133.003L99.8141 131.704C99.909 131.65 99.919 131.565 99.8141 131.515L97.647 130.266C97.5955 130.242 97.5392 130.229 97.4822 130.229C97.4252 130.229 97.3689 130.242 97.3174 130.266L95.0554 131.565C94.9606 131.62 94.9506 131.704 95.0554 131.754L97.2226 133.003C97.2717 133.029 97.3263 133.043 97.3818 133.044C97.4373 133.045 97.4922 133.032 97.5422 133.008L97.5521 133.003ZM119.468 114.16C119.417 114.134 119.361 114.12 119.303 114.12C119.246 114.12 119.19 114.134 119.139 114.16L116.877 115.464C116.782 115.518 116.772 115.603 116.877 115.653L119.044 116.902C119.095 116.926 119.152 116.939 119.209 116.939C119.266 116.939 119.322 116.926 119.373 116.902L121.635 115.603C121.73 115.543 121.74 115.459 121.635 115.414L119.468 114.16ZM84.9738 143.804L87.2358 142.5C87.3357 142.445 87.3406 142.36 87.2358 142.311L85.0736 141.066C85.0226 141.041 84.9661 141.027 84.9089 141.027C84.8516 141.027 84.7952 141.041 84.7441 141.066L82.4821 142.37C82.3822 142.425 82.3772 142.51 82.4821 142.56L84.6442 143.804C84.6936 143.829 84.7481 143.842 84.8034 143.843C84.8588 143.844 84.9136 143.832 84.9638 143.809L84.9738 143.804ZM125.54 120.461L127.802 119.157C127.897 119.102 127.907 119.017 127.802 118.968L125.635 117.723C125.584 117.697 125.527 117.684 125.47 117.684C125.413 117.684 125.357 117.697 125.305 117.723L123.043 119.022C122.949 119.082 122.939 119.167 123.043 119.211L125.211 120.461C125.26 120.486 125.314 120.499 125.37 120.5C125.425 120.501 125.48 120.489 125.53 120.466L125.54 120.461ZM119.139 120.58L121.401 119.281C121.495 119.226 121.505 119.142 121.401 119.092L119.233 117.843C119.184 117.816 119.128 117.802 119.071 117.802C119.015 117.802 118.959 117.816 118.909 117.843L116.642 119.142C116.547 119.197 116.537 119.281 116.642 119.331L118.809 120.58C118.858 120.606 118.913 120.62 118.968 120.621C119.024 120.621 119.079 120.609 119.129 120.585L119.139 120.58ZM122.564 115.941C122.513 115.916 122.457 115.902 122.399 115.902C122.342 115.902 122.286 115.916 122.235 115.941L119.972 117.245C119.873 117.3 119.868 117.385 119.972 117.435L122.135 118.679C122.186 118.705 122.242 118.718 122.299 118.718C122.357 118.718 122.413 118.705 122.464 118.679L124.726 117.375C124.826 117.32 124.836 117.235 124.726 117.186L122.564 115.941ZM123.258 115.538L128.516 118.564C128.567 118.59 128.624 118.604 128.681 118.604C128.738 118.604 128.795 118.59 128.846 118.564L131.098 117.235C131.198 117.181 131.203 117.096 131.098 117.046L125.84 114.02C125.788 113.996 125.732 113.983 125.675 113.983C125.618 113.983 125.562 113.996 125.51 114.02L123.248 115.319C123.173 115.409 123.163 115.498 123.248 115.543L123.258 115.538ZM115.618 119.759L113.356 121.063C113.261 121.118 113.251 121.202 113.356 121.252L115.523 122.496C115.574 122.522 115.629 122.536 115.686 122.536C115.742 122.536 115.798 122.522 115.848 122.496L118.115 121.192C118.21 121.138 118.22 121.053 118.115 121.003L115.948 119.759C115.895 119.732 115.837 119.719 115.777 119.72C115.718 119.72 115.66 119.736 115.608 119.764L115.618 119.759ZM90.7212 134.088L88.4592 135.387C88.3643 135.442 88.3543 135.527 88.4592 135.577L90.6263 136.826C90.6778 136.85 90.7341 136.863 90.7911 136.863C90.8481 136.863 90.9044 136.85 90.9559 136.826L93.2179 135.527C93.3127 135.472 93.3227 135.387 93.2179 135.338L91.0507 134.088C90.9982 134.061 90.9397 134.047 90.8803 134.048C90.821 134.049 90.7628 134.064 90.7112 134.093L90.7212 134.088ZM121.9 122.372C121.951 122.398 122.007 122.411 122.065 122.411C122.122 122.411 122.178 122.398 122.23 122.372L124.497 121.068C124.591 121.013 124.601 120.929 124.497 120.879L122.334 119.635C122.283 119.609 122.227 119.595 122.17 119.595C122.112 119.595 122.056 119.609 122.005 119.635L119.743 120.939C119.643 120.993 119.638 121.078 119.743 121.128L121.9 122.372ZM94.0218 132.167L91.7498 133.491C91.6549 133.546 91.6499 133.63 91.7498 133.68L93.912 134.925C93.963 134.95 94.0195 134.964 94.0767 134.964C94.134 134.964 94.1904 134.95 94.2415 134.925L96.5035 133.621C96.6034 133.566 96.6084 133.481 96.5035 133.431L94.3414 132.187C94.2932 132.16 94.2393 132.144 94.1839 132.14C94.1285 132.137 94.0731 132.146 94.0218 132.167ZM68.0961 153.315C68.1472 153.341 68.2036 153.355 68.2609 153.355C68.3181 153.355 68.3746 153.341 68.4257 153.315L70.6877 152.011C70.7825 151.957 70.7925 151.872 70.6877 151.822L68.5205 150.578C68.4703 150.552 68.4147 150.539 68.3583 150.539C68.3018 150.539 68.2462 150.552 68.196 150.578L65.929 151.882C65.8341 151.937 65.8241 152.021 65.929 152.071L68.0961 153.315ZM64.2512 149.299L61.9892 150.603C61.8893 150.658 61.8843 150.742 61.9892 150.792L64.1513 152.036C64.2024 152.062 64.2588 152.075 64.3161 152.075C64.3734 152.075 64.4298 152.062 64.4809 152.036L66.7429 150.732C66.8428 150.677 66.8477 150.593 66.7429 150.543L64.5807 149.299C64.5281 149.276 64.4708 149.266 64.4136 149.269C64.3563 149.273 64.3007 149.29 64.2512 149.319V149.299ZM71.7413 151.404L74.0083 150.1C74.1032 150.045 74.1131 149.961 74.0083 149.911L71.8461 148.667C71.7951 148.641 71.7386 148.627 71.6814 148.627C71.6241 148.627 71.5676 148.641 71.5166 148.667L69.2795 149.996C69.1847 150.055 69.1747 150.14 69.2795 150.19L71.4417 151.434C71.4881 151.452 71.5377 151.461 71.5875 151.459C71.6373 151.457 71.6863 151.445 71.7313 151.424L71.7413 151.404ZM75.0519 149.498L77.3139 148.194C77.4088 148.139 77.4188 148.054 77.3139 148.005L75.1468 146.76C75.0957 146.735 75.0392 146.721 74.982 146.721C74.9247 146.721 74.8683 146.735 74.8172 146.76L72.5652 148.094C72.4703 148.149 72.4603 148.234 72.5652 148.283L74.7323 149.528C74.7815 149.549 74.8347 149.559 74.8882 149.557C74.9417 149.555 74.9942 149.542 75.0419 149.518L75.0519 149.498ZM78.3575 147.597L80.6195 146.292C80.7194 146.238 80.7244 146.153 80.6195 146.103L78.4574 144.859C78.4063 144.833 78.3499 144.82 78.2926 144.82C78.2354 144.82 78.1789 144.833 78.1278 144.859L75.8658 146.163C75.766 146.218 75.761 146.302 75.8658 146.352L78.028 147.597C78.0777 147.621 78.1324 147.633 78.1877 147.633C78.2431 147.633 78.2978 147.621 78.3475 147.597H78.3575ZM67.5668 147.397L65.2848 148.716C65.1899 148.776 65.18 148.861 65.2848 148.911L67.4519 150.155C67.503 150.181 67.5595 150.194 67.6167 150.194C67.674 150.194 67.7304 150.181 67.7815 150.155L70.0435 148.851C70.1384 148.796 70.1484 148.711 70.0435 148.662L67.8764 147.417C67.8266 147.393 67.772 147.381 67.7166 147.381C67.6612 147.381 67.6066 147.393 67.5568 147.417L67.5668 147.397ZM70.8774 145.491L68.6104 146.795C68.5155 146.85 68.5056 146.935 68.6104 146.984L70.7776 148.229C70.8286 148.254 70.8851 148.268 70.9423 148.268C70.9996 148.268 71.056 148.254 71.1071 148.229L73.3691 146.925C73.464 146.87 73.474 146.785 73.3691 146.735L71.207 145.491C71.153 145.467 71.0939 145.456 71.0347 145.459C70.9756 145.463 70.9181 145.48 70.8674 145.511L70.8774 145.491ZM84.1049 137.881L81.8429 139.18C81.748 139.235 81.7381 139.319 81.8429 139.369L84.0101 140.618C84.0615 140.643 84.1178 140.655 84.1748 140.655C84.2318 140.655 84.2881 140.643 84.3396 140.618L86.6016 139.319C86.6965 139.265 86.7065 139.175 86.6016 139.13L84.4345 137.881C84.3808 137.856 84.3215 137.844 84.2622 137.848C84.2028 137.851 84.1453 137.869 84.0949 137.901L84.1049 137.881ZM80.7993 139.782L78.5273 141.126C78.4274 141.181 78.4224 141.266 78.5273 141.315L80.6894 142.56C80.7405 142.585 80.797 142.599 80.8542 142.599C80.9115 142.599 80.9679 142.585 81.019 142.56L83.261 141.226C83.3559 141.171 83.3659 141.086 83.261 141.037L81.0989 139.792C81.0497 139.771 80.9965 139.761 80.943 139.763C80.8895 139.765 80.837 139.778 80.7893 139.802L80.7993 139.782ZM87.4156 135.975L85.1535 137.279C85.0537 137.333 85.0487 137.418 85.1535 137.468L87.3157 138.712C87.3668 138.738 87.4232 138.751 87.4805 138.751C87.5377 138.751 87.5942 138.738 87.6452 138.712L89.9073 137.408C90.0071 137.353 90.0121 137.269 89.9073 137.219L87.7451 135.975C87.6912 135.95 87.632 135.939 87.5729 135.943C87.5137 135.946 87.4563 135.964 87.4056 135.995L87.4156 135.975ZM74.1731 143.615L71.9111 144.919C71.8162 144.974 71.8062 145.058 71.9111 145.108L74.0782 146.352C74.1284 146.378 74.184 146.391 74.2405 146.391C74.2969 146.391 74.3526 146.378 74.4028 146.352L76.6698 145.048C76.7646 144.993 76.7746 144.909 76.6698 144.859L74.5026 143.615C74.4516 143.589 74.3951 143.576 74.3378 143.576C74.2806 143.576 74.2241 143.589 74.1731 143.615ZM77.4837 141.708L75.2167 143.013C75.1218 143.067 75.1118 143.152 75.2167 143.202L77.3838 144.446C77.4349 144.472 77.4913 144.485 77.5486 144.485C77.6059 144.485 77.6623 144.472 77.7134 144.446L79.9754 143.147C80.0703 143.087 80.0802 143.003 79.9754 142.958L77.8083 141.708C77.7585 141.682 77.703 141.668 77.6466 141.667C77.5901 141.666 77.5343 141.679 77.4837 141.704V141.708ZM73.2742 154.102L75.5363 152.803C75.6311 152.748 75.6411 152.663 75.5363 152.614L73.3691 151.364C73.3189 151.339 73.2633 151.325 73.2068 151.325C73.1504 151.325 73.0947 151.339 73.0446 151.364L70.7776 152.678C70.6827 152.733 70.6727 152.818 70.7776 152.867L72.9397 154.117C72.9924 154.142 73.0505 154.154 73.1088 154.151C73.1672 154.148 73.224 154.132 73.2742 154.102ZM55.7974 153.285L53.6302 152.036C53.5792 152.01 53.5227 151.997 53.4654 151.997C53.4082 151.997 53.3517 152.01 53.3007 152.036L51.0387 153.34C50.9438 153.395 50.9338 153.48 51.0387 153.529L53.2058 154.779C53.2573 154.803 53.3136 154.816 53.3706 154.816C53.4276 154.816 53.4839 154.803 53.5354 154.779L55.7974 153.48C55.8922 153.415 55.9022 153.33 55.7974 153.285ZM60.1067 154.361L57.9445 153.116C57.8935 153.09 57.837 153.077 57.7797 153.077C57.7225 153.077 57.666 153.09 57.615 153.116L54.1196 155.107C54.0197 155.162 54.0147 155.247 54.1196 155.296L56.2967 156.556C56.3478 156.581 56.4042 156.595 56.4615 156.595C56.5187 156.595 56.5752 156.581 56.6263 156.556L60.1216 154.565C60.2065 154.495 60.2115 154.41 60.1266 154.361H60.1067ZM52.5666 150.822L50.4195 149.587C50.3684 149.562 50.312 149.548 50.2547 149.548C50.1974 149.548 50.141 149.562 50.0899 149.587L47.3086 151.19C47.2137 151.245 47.2037 151.329 47.3086 151.379L49.4757 152.624C49.5268 152.649 49.5832 152.663 49.6405 152.663C49.6978 152.663 49.7542 152.649 49.8053 152.624L52.5916 151.021C52.6615 150.956 52.6715 150.872 52.5866 150.822H52.5666ZM54.6988 149.592C54.7499 149.618 54.8063 149.632 54.8636 149.632C54.9209 149.632 54.9773 149.618 55.0284 149.592L57.2904 148.288C57.3903 148.234 57.3952 148.149 57.2904 148.099L55.1283 146.855C55.0772 146.829 55.0207 146.816 54.9635 146.816C54.9062 146.816 54.8498 146.829 54.7987 146.855L52.5367 148.159C52.4368 148.214 52.4318 148.298 52.5367 148.348L54.6988 149.592ZM64.0714 155.64L61.9093 154.395C61.8582 154.37 61.8018 154.356 61.7445 154.356C61.6872 154.356 61.6308 154.37 61.5797 154.395L57.2255 156.884C57.1306 156.944 57.1206 157.028 57.2255 157.073L59.3926 158.322C59.4437 158.348 59.5001 158.362 59.5574 158.362C59.6146 158.362 59.6711 158.348 59.7222 158.322L64.0714 155.834C64.1713 155.774 64.1763 155.689 64.0914 155.64H64.0714ZM65.5994 158.322L63.4323 157.078C63.3812 157.052 63.3247 157.039 63.2675 157.039C63.2102 157.039 63.1538 157.052 63.1027 157.078L60.3164 158.681C60.2215 158.736 60.2115 158.82 60.3164 158.87L62.4785 160.114C62.5296 160.14 62.5861 160.153 62.6433 160.153C62.7006 160.153 62.757 160.14 62.8081 160.114L65.5944 158.512C65.6943 158.457 65.7043 158.372 65.6194 158.322H65.5994ZM79.2963 135.427C79.3469 135.451 79.4024 135.464 79.4586 135.464C79.5148 135.464 79.5702 135.451 79.6209 135.427L81.8879 134.128C81.9827 134.073 81.9927 133.984 81.8879 133.939L79.7657 132.69C79.7148 132.663 79.6583 132.649 79.6009 132.649C79.5435 132.649 79.4869 132.663 79.4361 132.69L77.1741 133.989C77.0792 134.044 77.0692 134.128 77.1741 134.178L79.2963 135.427ZM72.68 139.23C72.7311 139.256 72.7876 139.269 72.8448 139.269C72.9021 139.269 72.9585 139.256 73.0096 139.23L75.2716 137.931C75.3665 137.871 75.3765 137.786 75.2716 137.742L73.1045 136.492C73.0534 136.467 72.997 136.453 72.9397 136.453C72.8824 136.453 72.826 136.467 72.7749 136.492L70.5129 137.796C70.418 137.851 70.408 137.936 70.5129 137.986L72.68 139.23ZM58.0094 147.691C58.0603 147.718 58.1168 147.732 58.1742 147.732C58.2316 147.732 58.2882 147.718 58.339 147.691L60.601 146.392C60.6959 146.337 60.7059 146.253 60.601 146.203L58.4339 144.954C58.3824 144.929 58.3261 144.917 58.2691 144.917C58.2121 144.917 58.1558 144.929 58.1043 144.954L55.8423 146.253C55.7474 146.307 55.7374 146.397 55.8423 146.442L58.0094 147.691ZM75.9857 137.343C76.0367 137.369 76.0932 137.383 76.1504 137.383C76.2077 137.383 76.2642 137.369 76.3152 137.343L78.5772 136.039C78.6721 135.985 78.6821 135.9 78.5772 135.85L76.4151 134.606C76.364 134.58 76.3076 134.567 76.2503 134.567C76.1931 134.567 76.1366 134.58 76.0855 134.606L73.8185 135.91C73.7237 135.965 73.7137 136.049 73.8185 136.099L75.9857 137.343ZM69.3694 141.151C69.4205 141.177 69.4769 141.19 69.5342 141.19C69.5915 141.19 69.6479 141.177 69.699 141.151L71.961 139.847C72.0609 139.792 72.0658 139.708 71.961 139.658L69.7988 138.414C69.7478 138.388 69.6913 138.374 69.6341 138.374C69.5768 138.374 69.5204 138.388 69.4693 138.414L67.2073 139.718C67.1074 139.772 67.1024 139.857 67.2073 139.907L69.3694 141.151ZM67.2223 158.457C67.1712 158.431 67.1147 158.418 67.0575 158.418C67.0002 158.418 66.9438 158.431 66.8927 158.457L63.3973 160.448C63.3024 160.502 63.2925 160.587 63.3973 160.637L65.5644 161.881C65.6155 161.907 65.672 161.92 65.7292 161.92C65.7865 161.92 65.8429 161.907 65.894 161.881L69.3894 159.89C69.4843 159.836 69.4942 159.751 69.3894 159.701L67.2223 158.457ZM64.6257 143.884C64.6759 143.909 64.7315 143.923 64.788 143.923C64.8444 143.923 64.9001 143.909 64.9503 143.884L67.2173 142.579C67.3121 142.525 67.3221 142.44 67.2173 142.39L65.0901 141.126C65.0386 141.102 64.9823 141.089 64.9253 141.089C64.8683 141.089 64.812 141.102 64.7605 141.126L62.4985 142.425C62.4036 142.485 62.3936 142.57 62.4985 142.614L64.6257 143.884ZM61.3151 145.785C61.3661 145.811 61.4226 145.824 61.4798 145.824C61.5371 145.824 61.5936 145.811 61.6446 145.785L63.9066 144.481C64.0015 144.426 64.0115 144.341 63.9066 144.292L61.7445 143.047C61.6934 143.022 61.637 143.008 61.5797 143.008C61.5225 143.008 61.466 143.022 61.4149 143.047L59.1479 144.351C59.0531 144.406 59.0431 144.491 59.1479 144.541L61.3151 145.785ZM128.526 123.208C128.475 123.182 128.419 123.168 128.361 123.168C128.304 123.168 128.247 123.182 128.197 123.208L122.624 126.413C122.529 126.468 122.519 126.553 122.624 126.603L124.791 127.847C124.842 127.873 124.899 127.886 124.956 127.886C125.013 127.886 125.07 127.873 125.121 127.847L130.688 124.642C130.788 124.587 130.793 124.502 130.688 124.452L128.526 123.208ZM121.211 127.399C121.161 127.373 121.105 127.36 121.049 127.36C120.992 127.36 120.936 127.373 120.886 127.399L118.619 128.703C118.524 128.758 118.514 128.842 118.619 128.892L120.786 130.136C120.837 130.162 120.894 130.176 120.951 130.176C121.008 130.176 121.065 130.162 121.116 130.136L123.378 128.832C123.473 128.778 123.483 128.693 123.378 128.643L121.211 127.399ZM76.5649 152.2L78.8319 150.896C78.9268 150.842 78.9368 150.757 78.8319 150.707L76.6648 149.463C76.6137 149.437 76.5572 149.424 76.5 149.424C76.4427 149.424 76.3863 149.437 76.3352 149.463L74.0732 150.767C73.9783 150.822 73.9683 150.906 74.0732 150.956L76.2403 152.2C76.2905 152.226 76.3462 152.24 76.4026 152.24C76.4591 152.24 76.5147 152.226 76.5649 152.2ZM114.595 131.207C114.544 131.181 114.489 131.167 114.432 131.167C114.376 131.167 114.32 131.181 114.27 131.207L112.003 132.511C111.908 132.565 111.898 132.65 112.003 132.7L114.165 133.944C114.216 133.97 114.273 133.983 114.33 133.983C114.387 133.983 114.444 133.97 114.495 133.944L116.757 132.64C116.852 132.585 116.862 132.501 116.757 132.451L114.595 131.207ZM131.832 121.287C131.781 121.261 131.724 121.248 131.667 121.248C131.61 121.248 131.553 121.261 131.502 121.287L129.24 122.591C129.145 122.646 129.135 122.73 129.24 122.78L131.407 124.024C131.458 124.05 131.515 124.064 131.572 124.064C131.629 124.064 131.686 124.05 131.737 124.024L133.999 122.72C134.094 122.666 134.104 122.581 133.999 122.531L131.832 121.287ZM137.325 120.63L132.067 117.604C132.015 117.578 131.959 117.565 131.902 117.565C131.844 117.565 131.788 117.578 131.737 117.604L129.475 118.908C129.38 118.963 129.37 119.047 129.475 119.097L134.693 122.133C134.744 122.16 134.8 122.174 134.858 122.174C134.915 122.174 134.972 122.16 135.023 122.133L137.285 120.834C137.384 120.764 137.389 120.68 137.305 120.63H137.325ZM102.236 138.319C102.185 138.293 102.128 138.28 102.071 138.28C102.014 138.28 101.957 138.293 101.906 138.319L99.1201 139.922C99.0252 139.976 99.0152 140.061 99.1201 140.111L101.287 141.36C101.339 141.384 101.395 141.397 101.452 141.397C101.509 141.397 101.565 141.384 101.617 141.36L104.403 139.757C104.498 139.703 104.508 139.618 104.403 139.568L102.236 138.319ZM110.595 133.511C110.544 133.485 110.487 133.472 110.43 133.472C110.373 133.472 110.316 133.485 110.265 133.511L106.77 135.502C106.675 135.562 106.665 135.646 106.77 135.691L108.932 136.94C108.983 136.966 109.04 136.98 109.097 136.98C109.154 136.98 109.211 136.966 109.262 136.94L112.757 134.949C112.857 134.895 112.862 134.81 112.757 134.76L110.595 133.511ZM94.5761 142.729C94.525 142.703 94.4686 142.69 94.4113 142.69C94.354 142.69 94.2976 142.703 94.2465 142.729L75.6211 153.45C75.5213 153.504 75.5163 153.589 75.6211 153.639L77.7833 154.883C77.8344 154.909 77.8908 154.922 77.9481 154.922C78.0053 154.922 78.0618 154.909 78.1129 154.883L96.7432 144.162C96.8381 144.108 96.8481 144.023 96.7432 143.973L94.5761 142.729ZM74.9021 154.067C74.851 154.041 74.7946 154.028 74.7373 154.028C74.6801 154.028 74.6236 154.041 74.5725 154.067L71.7762 155.66C71.6814 155.719 71.6714 155.804 71.7762 155.854L73.9384 157.098C73.9894 157.124 74.0459 157.137 74.1032 157.137C74.1604 157.137 74.2169 157.124 74.2679 157.098L77.0543 155.495C77.1491 155.436 77.1591 155.351 77.0543 155.306L74.9021 154.067ZM98.406 140.544C98.3549 140.518 98.2985 140.505 98.2412 140.505C98.184 140.505 98.1275 140.518 98.0764 140.544L95.2901 142.122C95.1953 142.176 95.1853 142.261 95.2901 142.311L97.4573 143.555C97.5083 143.581 97.5648 143.594 97.622 143.594C97.6793 143.594 97.7358 143.581 97.7868 143.555L100.573 141.952C100.668 141.898 100.678 141.813 100.573 141.763L98.406 140.544ZM71.0722 156.272C71.0211 156.246 70.9646 156.233 70.9074 156.233C70.8501 156.233 70.7937 156.246 70.7426 156.272L67.9563 157.874C67.8614 157.929 67.8514 158.014 67.9563 158.064L70.1184 159.313C70.1692 159.339 70.2258 159.353 70.2832 159.353C70.3406 159.353 70.3972 159.339 70.448 159.313L73.2343 157.71C73.3292 157.655 73.3392 157.571 73.2343 157.521L71.0722 156.272ZM106.066 136.134C106.015 136.108 105.958 136.095 105.901 136.095C105.844 136.095 105.787 136.108 105.736 136.134L102.95 137.737C102.855 137.791 102.845 137.876 102.95 137.926L105.112 139.175C105.163 139.202 105.22 139.216 105.277 139.216C105.334 139.216 105.391 139.202 105.442 139.175L108.228 137.572C108.323 137.518 108.333 137.433 108.228 137.383L106.066 136.134ZM117.905 129.32C117.854 129.294 117.798 129.281 117.74 129.281C117.683 129.281 117.627 129.294 117.576 129.32L115.314 130.624C115.219 130.679 115.209 130.764 115.314 130.813L117.481 132.058C117.531 132.083 117.587 132.097 117.643 132.097C117.7 132.097 117.755 132.083 117.805 132.058L120.072 130.759C120.167 130.699 120.177 130.614 120.072 130.569L117.905 129.32ZM125.315 124.169L127.577 122.865C127.672 122.81 127.682 122.725 127.577 122.676L125.41 121.431C125.359 121.405 125.303 121.392 125.246 121.392C125.188 121.392 125.132 121.405 125.081 121.431L122.839 122.71C122.744 122.765 122.734 122.85 122.839 122.9L125.006 124.144C125.054 124.167 125.107 124.18 125.16 124.181C125.214 124.182 125.267 124.171 125.315 124.149V124.169ZM111.833 124.816L114.1 123.512C114.195 123.457 114.205 123.372 114.1 123.323L111.933 122.078C111.882 122.053 111.826 122.039 111.768 122.039C111.711 122.039 111.655 122.053 111.604 122.078L109.342 123.382C109.247 123.437 109.237 123.522 109.342 123.572L111.509 124.816C111.558 124.835 111.611 124.844 111.663 124.84C111.716 124.837 111.767 124.822 111.813 124.796L111.833 124.816ZM103.05 136.99L109.646 133.163C109.741 133.108 109.751 133.023 109.646 132.973L107.479 131.729C107.428 131.703 107.371 131.69 107.314 131.69C107.257 131.69 107.201 131.703 107.149 131.729L100.533 135.537C100.438 135.591 100.428 135.676 100.533 135.726L102.695 136.975C102.748 136.999 102.805 137.012 102.863 137.011C102.921 137.01 102.978 136.996 103.03 136.97L103.05 136.99ZM121.695 126.08C121.746 126.106 121.803 126.119 121.86 126.119C121.917 126.119 121.974 126.106 122.025 126.08L124.292 124.776C124.387 124.721 124.397 124.637 124.292 124.587L122.13 123.343C122.079 123.317 122.022 123.303 121.965 123.303C121.908 123.303 121.851 123.317 121.8 123.343L119.538 124.647C119.438 124.701 119.433 124.786 119.538 124.836L121.695 126.08ZM118.934 124.293L121.196 122.989C121.291 122.934 121.301 122.85 121.196 122.8L119.029 121.551C118.978 121.526 118.923 121.514 118.866 121.514C118.81 121.514 118.755 121.526 118.704 121.551L116.437 122.85C116.342 122.91 116.332 122.994 116.437 123.039L118.604 124.288C118.654 124.309 118.707 124.318 118.761 124.315C118.814 124.313 118.867 124.298 118.914 124.273L118.934 124.293ZM99.7392 138.876L102.001 137.572C102.096 137.518 102.106 137.433 102.001 137.383L99.8391 136.149C99.788 136.123 99.7316 136.11 99.6743 136.11C99.6171 136.11 99.5606 136.123 99.5095 136.149L97.2426 137.453C97.1477 137.508 97.1377 137.592 97.2426 137.642L99.4097 138.886C99.4615 138.911 99.5184 138.922 99.5757 138.921C99.6329 138.919 99.689 138.904 99.7392 138.876ZM114.38 130.271C114.431 130.297 114.487 130.31 114.545 130.31C114.602 130.31 114.658 130.297 114.709 130.271L116.971 128.967C117.066 128.912 117.076 128.827 116.971 128.778L114.804 127.533C114.754 127.508 114.698 127.494 114.642 127.494C114.586 127.494 114.53 127.508 114.48 127.533L112.223 128.832C112.128 128.892 112.118 128.977 112.223 129.022L114.38 130.271ZM83.1811 148.393L85.4482 147.089C85.543 147.034 85.553 146.949 85.4482 146.9L83.286 145.655C83.2349 145.63 83.1785 145.616 83.1212 145.616C83.064 145.616 83.0075 145.63 82.9564 145.655L80.6944 146.959C80.5946 147.014 80.5896 147.099 80.6944 147.149L82.8566 148.393C82.907 148.418 82.9625 148.431 83.0189 148.431C83.0752 148.431 83.1307 148.418 83.1811 148.393ZM86.4918 146.492L88.7538 145.188C88.8487 145.133 88.8586 145.048 88.7538 144.998L86.5866 143.749C86.5351 143.725 86.4789 143.712 86.4219 143.712C86.3649 143.712 86.3086 143.725 86.2571 143.749L83.9951 145.048C83.9002 145.108 83.8902 145.193 83.9951 145.237L86.1622 146.487C86.2129 146.513 86.2691 146.527 86.3264 146.528C86.3837 146.529 86.4403 146.517 86.4918 146.492ZM79.8755 150.294L82.1375 148.995C82.2324 148.94 82.2424 148.856 82.1375 148.806L79.9704 147.557C79.9198 147.532 79.8643 147.52 79.8081 147.52C79.7519 147.52 79.6965 147.532 79.6458 147.557L77.3788 148.856C77.2839 148.911 77.274 149 77.3788 149.045L79.546 150.294C79.5968 150.321 79.6533 150.335 79.7107 150.335C79.7681 150.335 79.8247 150.321 79.8755 150.294ZM93.108 142.684L95.37 141.38C95.4649 141.325 95.4749 141.241 95.37 141.191L93.2029 139.947C93.1518 139.921 93.0954 139.907 93.0381 139.907C92.9809 139.907 92.9244 139.921 92.8733 139.947L90.6113 141.251C90.5164 141.305 90.5065 141.39 90.6113 141.44L92.7785 142.684C92.8295 142.71 92.886 142.723 92.9432 142.723C93.0005 142.723 93.0569 142.71 93.108 142.684ZM89.7974 144.61L92.0594 143.306C92.1593 143.251 92.1643 143.167 92.0594 143.117L89.8973 141.873C89.8462 141.847 89.7897 141.833 89.7325 141.833C89.6752 141.833 89.6188 141.847 89.5677 141.873L87.3057 143.177C87.2058 143.232 87.2008 143.316 87.3057 143.366L89.4678 144.61C89.5189 144.636 89.5754 144.649 89.6326 144.649C89.6899 144.649 89.7463 144.636 89.7974 144.61ZM96.4136 140.803L98.6757 139.499C98.7755 139.444 98.7805 139.359 98.6757 139.309L96.5135 138.065C96.4624 138.039 96.406 138.026 96.3487 138.026C96.2915 138.026 96.235 138.039 96.184 138.065L93.9169 139.369C93.8221 139.424 93.8171 139.509 93.9169 139.558L96.0791 140.803C96.1328 140.825 96.1912 140.835 96.2494 140.831C96.3076 140.826 96.364 140.808 96.4136 140.778V140.803ZM114.465 114.324C114.516 114.348 114.573 114.361 114.63 114.361C114.687 114.361 114.743 114.348 114.794 114.324L117.056 113.025C117.151 112.97 117.161 112.885 117.056 112.836L116.482 112.502C116.431 112.476 116.375 112.463 116.317 112.463C116.26 112.463 116.204 112.476 116.153 112.502L113.886 113.806C113.791 113.861 113.786 113.946 113.886 113.995L114.465 114.324ZM98.0215 124.696C98.0726 124.722 98.129 124.736 98.1863 124.736C98.2436 124.736 98.3 124.722 98.3511 124.696L100.618 123.392C100.713 123.338 100.723 123.253 100.618 123.203L98.4559 121.959C98.4049 121.933 98.3484 121.92 98.2912 121.92C98.2339 121.92 98.1775 121.933 98.1264 121.959L95.8644 123.263C95.7645 123.318 95.7595 123.402 95.8644 123.452L98.0215 124.696ZM104.638 120.889C104.689 120.915 104.745 120.928 104.803 120.928C104.86 120.928 104.916 120.915 104.967 120.889L107.229 119.585C107.329 119.53 107.334 119.445 107.229 119.396L105.067 118.151C105.016 118.126 104.96 118.112 104.902 118.112C104.845 118.112 104.789 118.126 104.738 118.151L102.476 119.455C102.376 119.51 102.371 119.595 102.476 119.644L104.638 120.889ZM93.9869 127.021C94.037 127.046 94.0927 127.06 94.1491 127.06C94.2056 127.06 94.2612 127.046 94.3114 127.021L96.5784 125.717C96.6733 125.662 96.6833 125.577 96.5784 125.528L94.4113 124.283C94.3602 124.257 94.3038 124.244 94.2465 124.244C94.1893 124.244 94.1328 124.257 94.0817 124.283L91.8197 125.587C91.7248 125.642 91.7149 125.727 91.8197 125.776L93.9869 127.021ZM101.332 122.795C101.383 122.821 101.44 122.834 101.497 122.834C101.554 122.834 101.611 122.821 101.662 122.795L103.924 121.491C104.019 121.436 104.029 121.352 103.924 121.302L101.757 120.058C101.706 120.032 101.649 120.018 101.592 120.018C101.535 120.018 101.478 120.032 101.427 120.058L99.165 121.357C99.0701 121.416 99.0602 121.501 99.165 121.546L101.332 122.795ZM87.3506 130.828C87.4017 130.854 87.4582 130.868 87.5154 130.868C87.5727 130.868 87.6291 130.854 87.6802 130.828L89.9422 129.524C90.0371 129.47 90.0471 129.385 89.9422 129.335L87.7751 128.091C87.724 128.065 87.6676 128.052 87.6103 128.052C87.553 128.052 87.4966 128.065 87.4455 128.091L85.1835 129.395C85.0886 129.45 85.0786 129.534 85.1835 129.584L87.3506 130.828ZM90.6563 128.927C90.7073 128.953 90.7638 128.966 90.821 128.966C90.8783 128.966 90.9348 128.953 90.9858 128.927L93.2478 127.588C93.3427 127.533 93.3527 127.449 93.2478 127.399L91.0807 126.15C91.0301 126.125 90.9746 126.113 90.9184 126.113C90.8622 126.113 90.8068 126.125 90.7561 126.15L88.4891 127.449C88.3943 127.508 88.3843 127.593 88.4891 127.638L90.6563 128.927ZM107.829 118.131C107.88 118.156 107.936 118.168 107.993 118.168C108.05 118.168 108.107 118.156 108.158 118.131L110.42 116.832C110.515 116.773 110.525 116.688 110.42 116.643L109.846 116.31C109.795 116.284 109.738 116.27 109.681 116.27C109.624 116.27 109.567 116.284 109.516 116.31L107.254 117.614C107.154 117.669 107.149 117.753 107.254 117.803L107.829 118.131ZM117.75 112.418C117.802 112.443 117.858 112.457 117.915 112.457C117.972 112.457 118.029 112.443 118.08 112.418L120.347 111.114C120.442 111.059 120.452 110.974 120.347 110.924L119.773 110.596C119.722 110.57 119.665 110.557 119.608 110.557C119.551 110.557 119.494 110.57 119.443 110.596L117.216 111.87C117.121 111.93 117.111 112.014 117.216 112.064L117.75 112.418ZM122.299 115.036C122.35 115.061 122.407 115.075 122.464 115.075C122.521 115.075 122.578 115.061 122.629 115.036L124.891 113.732C124.991 113.677 124.996 113.592 124.891 113.542L122.729 112.298C122.678 112.272 122.621 112.259 122.564 112.259C122.507 112.259 122.45 112.272 122.399 112.298L120.137 113.602C120.037 113.657 120.032 113.741 120.137 113.791L122.299 115.036ZM128.601 122.267L130.863 120.968C130.963 120.909 130.968 120.824 130.863 120.779L128.701 119.53C128.65 119.504 128.593 119.491 128.536 119.491C128.479 119.491 128.422 119.504 128.371 119.53L126.109 120.834C126.01 120.889 126.005 120.973 126.109 121.023L128.272 122.267C128.327 122.293 128.388 122.304 128.449 122.3C128.511 122.295 128.57 122.276 128.621 122.243L128.601 122.267ZM111.124 116.225C111.174 116.251 111.23 116.264 111.286 116.264C111.343 116.264 111.399 116.251 111.449 116.225L113.716 114.921C113.811 114.866 113.821 114.782 113.716 114.732L113.137 114.403C113.085 114.378 113.029 114.364 112.972 114.364C112.914 114.364 112.858 114.378 112.807 114.403L110.545 115.703C110.45 115.762 110.44 115.847 110.545 115.892L111.124 116.225ZM84.06 132.71C84.1108 132.736 84.1674 132.75 84.2248 132.75C84.2822 132.75 84.3387 132.736 84.3895 132.71L86.6516 131.411C86.7514 131.356 86.7564 131.271 86.6516 131.221L84.4894 129.972C84.4379 129.948 84.3816 129.935 84.3246 129.935C84.2676 129.935 84.2114 129.948 84.1599 129.972L81.8928 131.271C81.798 131.326 81.793 131.411 81.8928 131.46L84.06 132.71Z" fill="#455A64"/>
<path d="M93.5374 151.469L94.0317 151.753L107.099 159.273L130.344 145.899L130.828 145.621L117.266 137.816L93.5374 151.469Z" fill="#263238"/>
<path d="M130.048 146.069L117.265 138.718L94.3254 151.927L107.099 159.274L130.048 146.069Z" fill="#37474F"/>
<path d="M39.3748 118.127C39.3285 118.133 39.2814 118.133 39.235 118.127H39.1601L39.1002 118.092L39.0303 118.047C38.9018 117.978 38.7965 117.873 38.7273 117.744C38.6581 117.616 38.628 117.47 38.6408 117.325V59.9978C38.6408 58.3952 39.3149 57.4346 39.9491 57.0663L101.917 21.509C102.069 21.4172 102.24 21.3626 102.416 21.3497C102.499 21.348 102.581 21.365 102.656 21.3995L102.741 21.4443C102.765 21.4619 102.785 21.4839 102.801 21.509L102.826 21.5488V21.5737C102.853 21.6115 102.873 21.6536 102.886 21.6981C102.887 21.7197 102.887 21.7413 102.886 21.7628L102.916 21.8425C102.919 21.8706 102.919 21.899 102.916 21.9271C102.916 21.9769 102.916 22.0316 102.916 22.0814V80.1755C102.89 80.6285 102.759 81.0694 102.531 81.4626C102.304 81.8559 101.988 82.1906 101.608 82.4401L41.1375 117.221L39.8192 117.982H39.7893C39.6837 118.047 39.5636 118.085 39.4397 118.092L39.3748 118.127Z" fill="#FAFAFA"/>
<path d="M102.602 21.5835C102.552 21.5591 102.497 21.5471 102.442 21.5487C102.291 21.5594 102.145 21.6073 102.017 21.688L40.0894 57.2403C39.5051 57.5787 38.881 58.5045 38.881 59.9977V116.693V117.405C38.8791 117.508 38.9062 117.609 38.9592 117.697C39.0121 117.785 39.0888 117.856 39.1806 117.903L39.2105 117.928H39.2505H39.2804C39.3103 117.931 39.3405 117.931 39.3703 117.928C39.4655 117.924 39.5584 117.897 39.64 117.848H39.6749L39.7149 117.823L41.0231 117.047L101.573 82.2657C101.922 82.0336 102.213 81.7241 102.423 81.3615C102.632 80.9989 102.755 80.593 102.781 80.1753V22.0514C102.784 22.0049 102.784 21.9584 102.781 21.912C102.784 21.8988 102.784 21.8854 102.781 21.8722V21.8473L102.742 21.7328C102.735 21.7121 102.727 21.6921 102.717 21.6731L102.687 21.6283L102.652 21.5835H102.627H102.602Z" fill="#0071BC"/>
<path d="M102.767 21.2153C102.611 21.1576 102.443 21.1383 102.278 21.1591C102.112 21.1799 101.955 21.2402 101.818 21.3348L39.8399 56.892C39.4288 57.1594 39.0866 57.5195 38.8411 57.9432C38.5956 58.3669 38.4537 58.8423 38.4268 59.3309V62.0783L36.6292 61.0281V58.3105C36.6553 57.8236 36.7959 57.3497 37.0396 56.9269C37.2834 56.5041 37.6234 56.1444 38.0323 55.8767L100.015 20.3194C100.16 20.2196 100.329 20.1597 100.504 20.1457C100.679 20.1318 100.855 20.1642 101.014 20.2398C101.294 20.3891 102.467 21.061 102.767 21.2153Z" fill="#0071BC"/>
<path d="M103.226 22.1359C103.226 21.25 102.592 20.8916 101.818 21.3396L39.8396 56.8968C39.4283 57.1628 39.0859 57.5219 38.8404 57.9449C38.5948 58.3679 38.453 58.8427 38.4265 59.3307V62.0781L103.226 24.8834V22.1359Z" fill="#0071BC"/>
<g opacity="0.2">
<path d="M101.818 21.3348L39.8404 56.8921C39.4258 57.1527 39.0827 57.5118 38.8417 57.9373L37.0491 56.902C37.2882 56.4805 37.6321 56.1274 38.0478 55.8767L100.016 20.3195C100.16 20.2189 100.328 20.1581 100.504 20.1432C100.679 20.1284 100.855 20.16 101.014 20.2348C101.269 20.3891 102.438 21.0561 102.737 21.2303C102.587 21.1746 102.425 21.1551 102.265 21.1732C102.106 21.1914 101.953 21.2467 101.818 21.3348Z" fill="white"/>
</g>
<path opacity="0.15" d="M36.6448 61.0085V58.3109C36.6652 57.8126 36.813 57.3277 37.0742 56.9023L38.8718 57.9326C38.6131 58.3549 38.4686 58.8367 38.4524 59.3312V62.0787L36.6448 61.0085Z" fill="black"/>
<path d="M97.1038 25.4356C96.9218 25.5659 96.7728 25.7368 96.6687 25.9347C96.5647 26.1326 96.5085 26.352 96.5046 26.5754C96.5046 27.0134 96.7743 27.2175 97.1038 27.0283C97.2856 26.8977 97.4344 26.7268 97.5384 26.5289C97.6424 26.3311 97.6988 26.1118 97.7031 25.8885C97.7031 25.4456 97.4334 25.2465 97.1038 25.4356Z" fill="#FAFAFA"/>
<path d="M99.2572 24.1917C99.0754 24.3223 98.9266 24.4933 98.8226 24.6911C98.7186 24.8889 98.6622 25.1082 98.658 25.3315C98.658 25.7745 98.9276 25.9736 99.2572 25.7844C99.4401 25.655 99.5898 25.4842 99.6939 25.2862C99.798 25.0881 99.8537 24.8683 99.8564 24.6446C99.8564 24.2067 99.5917 24.0026 99.2572 24.1917Z" fill="#FAFAFA"/>
<path d="M101.414 22.9525C101.232 23.0828 101.083 23.2537 100.979 23.4516C100.875 23.6495 100.819 23.8689 100.815 24.0922C100.815 24.5302 101.085 24.7343 101.414 24.5402C101.597 24.4105 101.746 24.2397 101.851 24.0416C101.955 23.8436 102.011 23.6239 102.014 23.4004C102.014 22.9624 101.744 22.7583 101.414 22.9525Z" fill="#FAFAFA"/>
<path d="M38.9359 118.186L38.861 118.146L37.3629 117.29C37.1654 117.176 36.9965 117.019 36.8693 116.83C36.7421 116.641 36.6599 116.426 36.6289 116.2C36.624 116.131 36.624 116.061 36.6289 115.991V61.0029L38.4315 62.0581V117.325C38.4299 117.484 38.4695 117.641 38.5464 117.781C38.6234 117.92 38.7352 118.038 38.871 118.121L38.9159 118.151L38.9359 118.186Z" fill="#0071BC"/>
<path opacity="0.5" d="M38.9359 118.186L38.861 118.146L37.3629 117.29C37.1654 117.176 36.9965 117.019 36.8693 116.83C36.7421 116.641 36.6599 116.426 36.6289 116.2C36.624 116.131 36.624 116.061 36.6289 115.991V61.0029L38.4315 62.0581V117.325C38.4299 117.484 38.4695 117.641 38.5464 117.781C38.6234 117.92 38.7352 118.038 38.871 118.121L38.9159 118.151L38.9359 118.186Z" fill="white"/>
<path d="M76.7057 46.0716L41.4124 66.2642V63.7258L76.7057 43.5332V46.0716Z" fill="#0071BC"/>
<path d="M84.9638 41.1985L79.2214 44.5034V41.965L84.9638 38.6602V41.1985Z" fill="#455A64"/>
<path d="M92.7424 36.7239L87 40.0288V37.4904L92.7424 34.1855V36.7239Z" fill="#E0E0E0"/>
<path d="M100.519 32.2503L94.7766 35.5552V33.0168L100.519 29.7119V32.2503Z" fill="#E0E0E0"/>
<path d="M94.0661 40.2231L99.3591 37.1919C99.9982 36.8236 100.518 37.1222 100.518 37.8589V78.8911C100.495 79.2904 100.379 79.6789 100.178 80.0249C99.9764 80.3709 99.6959 80.6645 99.3591 80.8819L94.0661 83.923C93.4319 84.2913 92.9126 83.9927 92.9126 83.2561V42.2189C92.9353 41.8196 93.0515 41.4311 93.2517 41.0846C93.452 40.738 93.7309 40.443 94.0661 40.2231Z" fill="#455A64"/>
<path d="M96.698 41.5966C96.3191 41.8424 96.0036 42.1737 95.7772 42.5637C95.5508 42.9537 95.4197 43.3914 95.3948 43.8414C95.3948 44.6676 95.979 45.0011 96.698 44.588C97.0763 44.342 97.3911 44.0105 97.6166 43.6204C97.8422 43.2304 97.9723 42.7928 97.9963 42.3432C97.9963 41.517 97.4171 41.1736 96.698 41.5966ZM96.6331 42.0545C96.8479 41.9301 97.0226 42.0297 97.0226 42.2785C97.0154 42.4132 96.9763 42.5442 96.9086 42.661C96.841 42.7778 96.7466 42.8769 96.6331 42.9504C96.4184 43.0749 96.2436 42.9504 96.2436 42.7265C96.2505 42.5917 96.2894 42.4605 96.3571 42.3437C96.4248 42.2269 96.5194 42.1278 96.6331 42.0545ZM97.4021 43.5477C97.2546 43.8979 96.99 44.1864 96.6531 44.364C96.0539 44.7174 95.9041 44.4088 95.9041 44.4088V44.2993C95.9216 44.0797 95.9903 43.8673 96.1047 43.6789C96.2192 43.4905 96.3762 43.3314 96.5632 43.2142L96.7879 43.0848C97.1375 42.8808 97.4271 43.0848 97.4271 43.4681L97.4021 43.5477Z" fill="#FAFAFA"/>
<path d="M97.969 74.8801H97.6944C97.6944 74.8801 97.6594 74.8502 97.6594 74.8204C97.667 74.7442 97.667 74.6676 97.6594 74.5914C97.6491 74.5607 97.6491 74.5275 97.6594 74.4969L97.9291 74.1136C97.9353 74.1004 97.9385 74.0859 97.9385 74.0713C97.9385 74.0567 97.9353 74.0422 97.9291 74.029L97.7892 73.7403C97.7892 73.7105 97.7543 73.7005 97.7393 73.7403L97.4397 74.0589C97.4315 74.0662 97.4208 74.0703 97.4098 74.0703C97.3987 74.0703 97.388 74.0662 97.3798 74.0589C97.3398 74.0248 97.2941 73.9979 97.245 73.9792C97.245 73.9792 97.215 73.9444 97.245 73.9095L97.3099 73.4815C97.3099 73.4516 97.3099 73.4268 97.2849 73.4268L96.9653 73.4666C96.9653 73.4666 96.9254 73.4666 96.9154 73.5213L96.7806 73.9743C96.773 74.0001 96.7573 74.0228 96.7356 74.039C96.6623 74.0755 96.5936 74.1206 96.5309 74.1733C96.5309 74.1733 96.491 74.1733 96.476 74.1733L96.3262 73.9494C96.3262 73.9494 96.2862 73.9195 96.2713 73.9494L95.9517 74.3376C95.9451 74.3507 95.9416 74.3652 95.9416 74.3799C95.9416 74.3946 95.9451 74.4091 95.9517 74.4222L96.0416 74.7159C96.054 74.7461 96.054 74.7801 96.0416 74.8104C95.9907 74.9021 95.9456 74.9968 95.9067 75.0941C95.897 75.1176 95.8793 75.1369 95.8568 75.1489L95.5522 75.2335C95.5401 75.2386 95.5296 75.2469 95.5217 75.2573C95.5138 75.2678 95.5088 75.2802 95.5073 75.2932L95.3974 75.7909C95.3904 75.7983 95.3865 75.8081 95.3865 75.8183C95.3865 75.8285 95.3904 75.8383 95.3974 75.8457H95.672C95.6834 75.8508 95.6928 75.8593 95.6991 75.87C95.7053 75.8807 95.7081 75.8931 95.707 75.9054C95.6993 75.9815 95.6993 76.0582 95.707 76.1344C95.7181 76.1649 95.7181 76.1984 95.707 76.2289L95.4374 76.6122C95.4311 76.6254 95.4279 76.6399 95.4279 76.6545C95.4279 76.6691 95.4311 76.6835 95.4374 76.6968L95.5772 76.9904C95.5772 76.9904 95.6121 77.0253 95.6271 76.9904L95.9267 76.6719C95.9305 76.6677 95.9351 76.6643 95.9402 76.6619C95.9454 76.6596 95.951 76.6584 95.9567 76.6584C95.9623 76.6584 95.9679 76.6596 95.9731 76.6619C95.9783 76.6643 95.9829 76.6677 95.9866 76.6719C96.0253 76.7078 96.0713 76.7349 96.1214 76.7515C96.1323 76.7592 96.1405 76.77 96.1449 76.7825C96.1494 76.7949 96.1499 76.8085 96.1464 76.8212L96.0815 77.2542C96.0815 77.2841 96.0815 77.304 96.1065 77.304L96.4261 77.2642C96.4261 77.2642 96.466 77.2642 96.476 77.2094L96.6108 76.7615C96.617 76.7337 96.6329 76.709 96.6557 76.6918C96.7279 76.6552 96.7965 76.6119 96.8605 76.5624C96.8605 76.5624 96.9004 76.5624 96.9154 76.5624L97.0652 76.7914C97.0685 76.7955 97.0726 76.7988 97.0774 76.8011C97.0822 76.8034 97.0874 76.8046 97.0927 76.8046C97.098 76.8046 97.1032 76.8034 97.1079 76.8011C97.1127 76.7988 97.1169 76.7955 97.1201 76.7914L97.4397 76.4081C97.4461 76.394 97.4493 76.3788 97.4493 76.3633C97.4493 76.3479 97.4461 76.3326 97.4397 76.3185L97.3498 76.0249C97.3373 75.9946 97.3373 75.9606 97.3498 75.9303C97.3998 75.8399 97.4448 75.7468 97.4847 75.6516C97.4945 75.6269 97.512 75.6059 97.5346 75.5918L97.8392 75.5122C97.8514 75.5059 97.8618 75.4967 97.8697 75.4854C97.8775 75.4741 97.8824 75.4611 97.8841 75.4475L97.994 74.9498C97.999 74.905 97.989 74.8801 97.969 74.8801ZM97.215 75.2634C97.1101 75.7113 96.7956 76.0995 96.501 76.1344C96.2063 76.1692 96.0515 75.8357 96.1514 75.3878C96.2513 74.9398 96.5709 74.5516 96.8655 74.5168C97.1601 74.4819 97.3149 74.8154 97.215 75.2634Z" fill="#FAFAFA"/>
<path d="M97.5554 49.62V48.8037L97.2259 48.9928V49.4159L96.7065 49.0924L95.3733 51.4566L95.8577 51.1778V52.9497L96.4419 52.6163V51.5312L96.9712 51.2276V52.3127L97.5504 51.9742V50.2023L98.0398 49.9236L97.5554 49.62Z" fill="#FAFAFA"/>
<path d="M96.5934 67.3894L95.3301 66.7224L97.9916 65.1895L96.7332 67.3097C96.6933 67.3794 96.6334 67.4143 96.5934 67.3894Z" fill="#FAFAFA"/>
<path d="M96.7432 67.7419L97.9916 65.2832V67.8216L95.3301 69.3496V66.8112L96.5784 67.8365C96.6284 67.8714 96.6983 67.8315 96.7432 67.7419Z" fill="#FAFAFA"/>
<path d="M95.3301 60.7493L96.0891 60.3163V57.3896L95.3301 57.8276V60.7493ZM96.2938 60.1968L97.0528 59.7638V57.6833L96.2938 58.1163V60.1968ZM97.2376 58.5941V59.6344L97.9916 59.2014V58.181L97.2376 58.5941Z" fill="#0071BC"/>
<path opacity="0.35" d="M95.3301 60.7493L96.0891 60.3163V57.3896L95.3301 57.8276V60.7493ZM96.2938 60.1968L97.0528 59.7638V57.6833L96.2938 58.1163V60.1968ZM97.2376 58.5941V59.6344L97.9916 59.2014V58.181L97.2376 58.5941Z" fill="white"/>
<path d="M55.3689 89.632L41.4124 97.6653V72.1172L55.3689 64.084V89.632Z" stroke="#0071BC" stroke-width="0.46" stroke-linejoin="round"/>
<path d="M50.858 69.176L42.8686 73.765C42.7138 73.8545 42.584 73.765 42.584 73.5509V73.4912C42.5865 73.3851 42.6135 73.2809 42.6628 73.1869C42.7122 73.0928 42.7826 73.0113 42.8686 72.9487L50.858 68.3597C51.0128 68.2701 51.1427 68.3597 51.1427 68.5737V68.6334C51.1402 68.7396 51.1132 68.8437 51.0638 68.9378C51.0145 69.0319 50.9441 69.1134 50.858 69.176Z" fill="#455A64"/>
<path d="M50.3036 90.8668L42.8135 95.1771C42.6936 95.2468 42.5938 95.1771 42.5938 95.0128V94.968C42.5957 94.8862 42.6165 94.8059 42.6546 94.7334C42.6927 94.6609 42.7471 94.5981 42.8135 94.55L50.3036 90.2397C50.4234 90.17 50.5233 90.2397 50.5233 90.4089V90.4487C50.5221 90.5307 50.5016 90.6113 50.4635 90.6839C50.4253 90.7565 50.3705 90.8192 50.3036 90.8668Z" fill="#0071BC"/>
<path d="M42.7021 76.0142L54.117 69.4243C54.1528 69.3982 54.1816 69.3635 54.2008 69.3236C54.2199 69.2837 54.2289 69.2396 54.2269 69.1954C54.2269 69.1008 54.1819 69.056 54.117 69.0909L42.6821 75.6707C42.6475 75.698 42.6196 75.7329 42.6006 75.7725C42.5816 75.8122 42.5719 75.8557 42.5723 75.8997C42.5923 76.0142 42.6322 76.044 42.7021 76.0142ZM54.117 70.3302L42.6821 76.9101C42.6475 76.9374 42.6196 76.9722 42.6006 77.0119C42.5816 77.0516 42.5719 77.095 42.5723 77.139C42.5723 77.2336 42.6222 77.2834 42.6821 77.2485L54.117 70.6637C54.1528 70.6375 54.1816 70.6029 54.2008 70.5629C54.2199 70.523 54.2289 70.4789 54.2269 70.4347C54.2468 70.3402 54.2019 70.2954 54.117 70.3302ZM54.117 71.5695L42.6821 78.1494C42.6475 78.1767 42.6196 78.2115 42.6006 78.2512C42.5816 78.2909 42.5719 78.3344 42.5723 78.3784C42.5723 78.4729 42.6222 78.5227 42.6821 78.4879L54.117 71.903C54.1528 71.8768 54.1816 71.8422 54.2008 71.8023C54.2199 71.7623 54.2289 71.7183 54.2269 71.674C54.2468 71.5795 54.2019 71.5347 54.117 71.5695ZM42.6821 79.7272L46.7867 77.363C46.8226 77.3357 46.8513 77.3002 46.8705 77.2595C46.8896 77.2188 46.8985 77.174 46.8966 77.1291C46.8966 77.0395 46.8516 76.9897 46.7867 77.0246L42.6821 79.3887C42.6475 79.416 42.6196 79.4509 42.6006 79.4905C42.5816 79.5302 42.5719 79.5737 42.5723 79.6177C42.5923 79.7123 42.6322 79.762 42.7021 79.7272H42.6821ZM54.117 75.0187L42.6821 81.5986C42.6475 81.6259 42.6196 81.6607 42.6006 81.7004C42.5816 81.7401 42.5719 81.7836 42.5723 81.8276C42.5723 81.9221 42.6222 81.9669 42.6821 81.9321L54.117 75.3472C54.1522 75.3205 54.1805 75.2857 54.1996 75.2459C54.2187 75.2061 54.228 75.1624 54.2269 75.1183C54.2468 75.0187 54.2019 74.9789 54.117 75.0187ZM49.2435 79.0602L42.6821 82.8379C42.6475 82.8652 42.6196 82.9001 42.6006 82.9397C42.5816 82.9794 42.5719 83.0229 42.5723 83.0669C42.5723 83.1615 42.6222 83.2063 42.6821 83.1714L49.2435 79.3987C49.2781 79.3714 49.3059 79.3366 49.325 79.2969C49.344 79.2572 49.3537 79.2137 49.3533 79.1697C49.3733 79.0702 49.3233 79.0005 49.2634 79.0553L49.2435 79.0602Z" fill="#E0E0E0"/>
<path d="M42.7021 85.0784L54.117 78.5034C54.1528 78.4773 54.1816 78.4426 54.2008 78.4027C54.2199 78.3628 54.2289 78.3187 54.2269 78.2745C54.2269 78.1799 54.1819 78.1351 54.117 78.17L42.6821 84.7499C42.6475 84.7772 42.6196 84.812 42.6006 84.8517C42.5816 84.8913 42.5719 84.9348 42.5723 84.9788C42.5923 85.0634 42.6322 85.1132 42.7021 85.0784ZM54.117 79.3993L42.7021 85.9693C42.6675 85.9966 42.6396 86.0314 42.6206 86.0711C42.6015 86.1107 42.5918 86.1542 42.5922 86.1982C42.5922 86.2928 42.6422 86.3426 42.7021 86.3077L54.117 79.7328C54.1528 79.7066 54.1816 79.672 54.2008 79.6321C54.2199 79.5921 54.2289 79.5481 54.2269 79.5039C54.2468 79.4093 54.2019 79.3645 54.117 79.3993ZM54.117 80.6387L42.6821 87.2185C42.6475 87.2458 42.6196 87.2807 42.6006 87.3203C42.5816 87.36 42.5719 87.4035 42.5723 87.4475C42.5723 87.5421 42.6222 87.5918 42.6821 87.557L54.117 80.9921C54.1529 80.9648 54.1816 80.9293 54.2008 80.8885C54.2199 80.8478 54.2288 80.8031 54.2269 80.7581C54.2468 80.6486 54.2019 80.6038 54.117 80.6387ZM42.6821 88.7963L46.7867 86.4321C46.8226 86.4049 46.8513 86.3694 46.8705 86.3286C46.8896 86.2879 46.8985 86.2432 46.8966 86.1982C46.8966 86.1086 46.8516 86.0589 46.7867 86.0937L42.7021 88.4579C42.6675 88.4852 42.6396 88.52 42.6206 88.5597C42.6015 88.5994 42.5918 88.6429 42.5922 88.6868C42.5922 88.7814 42.6322 88.8312 42.7021 88.7963H42.6821ZM54.117 84.0829L42.6821 90.6628C42.6475 90.6901 42.6196 90.7249 42.6006 90.7646C42.5816 90.8043 42.5719 90.8478 42.5723 90.8917C42.5723 90.9863 42.6222 91.0361 42.6821 91.0012L54.117 84.4164C54.1528 84.3902 54.1816 84.3556 54.2008 84.3156C54.2199 84.2757 54.2289 84.2317 54.2269 84.1874C54.2468 84.0929 54.2019 84.0481 54.117 84.0829ZM49.2435 88.1294L42.6821 91.9021C42.6475 91.9294 42.6196 91.9642 42.6006 92.0039C42.5816 92.0436 42.5719 92.0871 42.5723 92.1311C42.5723 92.2256 42.6222 92.2754 42.6821 92.2356L49.2634 88.4579C49.298 88.4306 49.3259 88.3958 49.345 88.3561C49.364 88.3164 49.3737 88.2729 49.3733 88.2289C49.3733 88.1393 49.3233 88.0945 49.2634 88.1294H49.2435Z" fill="#E0E0E0"/>
<path d="M55.3689 105.783L41.4124 113.812V100.209L55.3689 92.1758V105.783Z" fill="#0071BC"/>
<g opacity="0.4">
<path d="M55.3687 105.783L41.4121 113.812V100.209L55.3687 92.1758V105.783Z" fill="#EB2027"/>
</g>
<path d="M51.1212 102.17L46.4573 107.197C46.2177 107.451 45.958 107.366 45.958 107.023V102.344C45.958 102.006 46.2127 101.623 46.4573 101.608L51.1212 101.259C51.4557 101.239 51.4557 101.832 51.1212 102.17Z" fill="#FAFAFA"/>
<path d="M72.7499 79.628L58.7983 87.6613V62.1132L72.7499 54.085V79.628Z" stroke="#0071BC" stroke-width="0.46" stroke-linejoin="round"/>
<path d="M68.2418 59.1721L60.2524 63.7611C60.0926 63.8506 59.9678 63.7611 59.9678 63.547V63.4873C59.9691 63.3809 59.9956 63.2764 60.045 63.1821C60.0945 63.0879 60.1655 63.0066 60.2524 62.9448L68.2418 58.3558C68.4016 58.2662 68.5265 58.3558 68.5265 58.5698V58.6295C68.5251 58.7359 68.4986 58.8404 68.4492 58.9347C68.3997 59.029 68.3287 59.1103 68.2418 59.1721Z" fill="#455A64"/>
<path d="M67.6854 80.8627L60.1953 85.173C60.0705 85.2427 59.9756 85.173 59.9756 85.0087V84.9739C59.9747 84.8915 59.9942 84.8102 60.0326 84.7372C60.0709 84.6643 60.1269 84.6019 60.1953 84.5558L67.6854 80.2455C67.8053 80.1759 67.9051 80.2455 67.9051 80.4148V80.4546C67.9024 80.5349 67.8812 80.6135 67.8431 80.6842C67.805 80.755 67.7511 80.8161 67.6854 80.8627Z" fill="#0071BC"/>
<path d="M60.1116 66.0053L71.5464 59.4204C71.5813 59.3934 71.6094 59.3586 71.6285 59.3189C71.6476 59.2791 71.6571 59.2355 71.6563 59.1915C71.6563 59.0969 71.6064 59.0521 71.5464 59.087L60.1116 65.6668C60.077 65.6941 60.0491 65.729 60.03 65.7686C60.011 65.8083 60.0013 65.8518 60.0017 65.8958C59.9817 65.9904 60.0317 66.06 60.1116 66.0053ZM71.5464 60.3263L60.1116 66.9062C60.077 66.9335 60.0491 66.9683 60.03 67.008C60.011 67.0476 60.0013 67.0911 60.0017 67.1351C60.0017 67.2297 60.0517 67.2795 60.1116 67.2446L71.5464 60.6598C71.5813 60.6327 71.6094 60.598 71.6285 60.5582C71.6476 60.5185 71.6571 60.4749 71.6563 60.4308C71.6363 60.3362 71.5964 60.2915 71.5265 60.3263H71.5464ZM71.5464 61.5656L60.1116 68.1455C60.077 68.1728 60.0491 68.2076 60.03 68.2473C60.011 68.287 60.0013 68.3305 60.0017 68.3745C60.0017 68.469 60.0517 68.5188 60.1116 68.484L71.5464 61.9041C71.5812 61.8758 71.6091 61.84 71.6281 61.7996C71.6471 61.7591 71.6567 61.7148 71.6563 61.6701C71.6363 61.5805 71.5964 61.5308 71.5265 61.5805L71.5464 61.5656ZM60.1116 69.7233L64.2161 67.3591C64.2511 67.331 64.2792 67.2954 64.2983 67.2548C64.3173 67.2143 64.3268 67.1699 64.326 67.1252C64.326 67.0356 64.2761 66.9858 64.2161 67.0206L60.1116 69.3848C60.077 69.4121 60.0491 69.4469 60.03 69.4866C60.011 69.5263 60.0013 69.5698 60.0017 69.6138C59.9817 69.7083 60.0317 69.7581 60.1116 69.7233ZM71.5464 65.0099L60.1116 71.5897C60.077 71.617 60.0491 71.6519 60.03 71.6915C60.011 71.7312 60.0013 71.7747 60.0017 71.8187C60.0017 71.9133 60.0517 71.958 60.1116 71.9232L71.5464 65.3433C71.581 65.316 71.6089 65.2812 71.628 65.2415C71.647 65.2018 71.6567 65.1584 71.6563 65.1144C71.6363 65.0198 71.5964 64.975 71.5265 65.0099H71.5464ZM66.6479 69.0464L60.1116 72.8291C60.077 72.8564 60.0491 72.8912 60.03 72.9309C60.011 72.9705 60.0013 73.014 60.0017 73.058C60.0017 73.1526 60.0517 73.1974 60.1116 73.1625L66.6679 69.3898C66.7025 69.3625 66.7304 69.3277 66.7494 69.288C66.7685 69.2483 66.7782 69.2048 66.7778 69.1609C66.7578 69.0464 66.7078 69.0165 66.6479 69.0464Z" fill="#E0E0E0"/>
<path d="M60.1116 75.0737L71.5464 68.4938C71.5814 68.4657 71.6095 68.43 71.6286 68.3895C71.6476 68.3489 71.6571 68.3046 71.6563 68.2598C71.6563 68.1653 71.6064 68.1205 71.5464 68.1553L60.1116 74.7352C60.0766 74.7633 60.0485 74.7989 60.0295 74.8395C60.0104 74.88 60.0009 74.9244 60.0017 74.9691C59.9817 75.0587 60.0317 75.1085 60.1116 75.0737ZM71.5464 69.3946L60.1116 75.9745C60.077 76.0018 60.0491 76.0366 60.03 76.0763C60.011 76.116 60.0013 76.1595 60.0017 76.2035C60.0017 76.2981 60.0517 76.3478 60.1116 76.313L71.5464 69.7331C71.5814 69.705 71.6095 69.6694 71.6286 69.6288C71.6476 69.5883 71.6571 69.5439 71.6563 69.4992C71.6363 69.4046 71.5964 69.3598 71.5265 69.3946H71.5464ZM71.5464 70.634L60.1116 77.2139C60.0766 77.2419 60.0485 77.2776 60.0295 77.3181C60.0104 77.3587 60.0009 77.403 60.0017 77.4478C60.0017 77.5374 60.0517 77.5871 60.1116 77.5523L71.5464 70.9724C71.5814 70.9444 71.6095 70.9087 71.6286 70.8681C71.6476 70.8276 71.6571 70.7833 71.6563 70.7385C71.6363 70.6439 71.5964 70.5991 71.5265 70.634H71.5464ZM60.1116 78.7916L64.2161 76.4275C64.2507 76.4002 64.2786 76.3653 64.2977 76.3257C64.3167 76.286 64.3264 76.2425 64.326 76.1985C64.326 76.1039 64.2761 76.0542 64.2161 76.089L60.1116 78.4532C60.0766 78.4812 60.0485 78.5169 60.0295 78.5575C60.0104 78.598 60.0009 78.6424 60.0017 78.6871C59.9817 78.7767 60.0317 78.8265 60.1116 78.7916ZM71.5464 74.0782L60.1116 80.6581C60.077 80.6854 60.0491 80.7202 60.03 80.7599C60.011 80.7996 60.0013 80.8431 60.0017 80.887C60.0017 80.9816 60.0517 81.0314 60.1116 80.9965L71.5464 74.4117C71.5813 74.3846 71.6094 74.3499 71.6285 74.3101C71.6476 74.2704 71.6571 74.2268 71.6563 74.1827C71.6363 74.0882 71.5964 74.0235 71.5265 74.0782H71.5464ZM66.6679 78.1247L60.1116 81.8974C60.077 81.9247 60.0491 81.9595 60.03 81.9992C60.011 82.0389 60.0013 82.0824 60.0017 82.1264C60.0017 82.2209 60.0517 82.2707 60.1116 82.2359L66.6679 78.4582C66.7025 78.4309 66.7304 78.396 66.7494 78.3564C66.7685 78.3167 66.7782 78.2732 66.7778 78.2292C66.7578 78.1346 66.7078 78.0899 66.6479 78.1247H66.6679Z" fill="#E0E0E0"/>
<path d="M72.7499 95.7786L58.7983 103.812V90.2041L72.7499 82.1709V95.7786Z" fill="#0071BC"/>
<g opacity="0.4">
<path d="M72.7263 95.7786L58.7698 103.812V90.2041L72.7263 82.1709V95.7786Z" fill="#EB2027"/>
</g>
<path d="M62.532 90.1499V99.527L66.3769 97.3171V93.8878L68.9535 92.3947V86.4668L62.532 90.1499ZM68.1146 91.6431L63.3709 94.3706V93.8729L68.1146 91.1454V91.6431ZM68.1146 90.1748L63.3709 92.9023V92.4046L68.1146 89.6771V90.1748ZM68.1146 88.7065L63.3709 91.4341V90.9363L68.1146 88.2088V88.7065ZM66.7864 97.0683L68.9535 92.9372L66.7864 94.1865V97.0683Z" fill="white"/>
<path d="M90.1367 69.6241L76.1802 77.6574V52.1093L90.1367 44.0811V69.6241Z" stroke="#0071BC" stroke-width="0.46" stroke-linejoin="round"/>
<path d="M85.62 49.1672L77.6306 53.7562C77.4758 53.8458 77.3459 53.7562 77.3459 53.5421V53.4824C77.3481 53.3769 77.3749 53.2734 77.4243 53.18C77.4737 53.0867 77.5444 53.0062 77.6306 52.9449L85.62 48.3509C85.7798 48.2613 85.9096 48.3509 85.9096 48.5649V48.6396C85.905 48.7437 85.8765 48.8455 85.8263 48.9369C85.7761 49.0284 85.7055 49.1072 85.62 49.1672Z" fill="#455A64"/>
<path d="M85.0792 70.8584L77.5891 75.1687C77.4693 75.2383 77.3694 75.1687 77.3694 75.0044V74.9596C77.3682 74.8744 77.3876 74.7902 77.4258 74.714C77.464 74.6377 77.52 74.5718 77.5891 74.5216L85.0792 70.2163C85.2041 70.1466 85.299 70.2163 85.299 70.3806V70.4204C85.3033 70.5061 85.2854 70.5914 85.2469 70.6682C85.2084 70.7449 85.1506 70.8105 85.0792 70.8584Z" fill="#0071BC"/>
<path d="M77.4734 56.0014L88.9083 49.4215C88.9433 49.3934 88.9714 49.3578 88.9904 49.3172C89.0095 49.2767 89.019 49.2323 89.0182 49.1876C89.0182 49.093 88.9682 49.0482 88.9083 49.0831L77.4734 55.6629C77.4388 55.6902 77.4109 55.7251 77.3919 55.7647C77.3729 55.8044 77.3632 55.8479 77.3636 55.8919C77.3636 55.9865 77.4135 56.0362 77.4734 56.0014ZM88.9083 50.3224L77.4734 56.9023C77.4388 56.9296 77.4109 56.9644 77.3919 57.0041C77.3729 57.0437 77.3632 57.0872 77.3636 57.1312C77.3636 57.2258 77.4135 57.2756 77.4734 57.2407L88.9083 50.6608C88.943 50.6325 88.9709 50.5968 88.9899 50.5563C89.0089 50.5158 89.0186 50.4716 89.0182 50.4269C89.0182 50.3323 88.9682 50.2875 88.9083 50.3224ZM88.9083 51.5617L77.4734 58.1416C77.4384 58.1697 77.4103 58.2053 77.3913 58.2459C77.3723 58.2864 77.3628 58.3308 77.3636 58.3755C77.3636 58.4651 77.4135 58.5149 77.4734 58.48L88.9083 51.9002C88.9433 51.8721 88.9714 51.8364 88.9904 51.7959C89.0095 51.7553 89.019 51.711 89.0182 51.6662C89.0182 51.5717 88.9682 51.5269 88.9083 51.5617ZM77.4734 59.7194L81.583 57.3552C81.6176 57.3279 81.6455 57.2931 81.6645 57.2534C81.6836 57.2137 81.6932 57.1702 81.6928 57.1262C81.6928 57.0317 81.6429 56.9819 81.583 57.0167L77.4784 59.3809C77.4438 59.4082 77.4159 59.443 77.3969 59.4827C77.3779 59.5224 77.3682 59.5659 77.3686 59.6099C77.3636 59.7044 77.4135 59.7542 77.4734 59.7194ZM88.9083 55.0059L77.4734 61.5809C77.4388 61.6081 77.4109 61.643 77.3919 61.6826C77.3729 61.7223 77.3632 61.7658 77.3636 61.8098C77.3636 61.9044 77.4135 61.9541 77.4734 61.9193L88.9083 55.3344C88.9432 55.3074 88.9713 55.2726 88.9904 55.2329C89.0094 55.1932 89.0189 55.1495 89.0182 55.1055C89.0182 55.0159 88.9682 54.9711 88.9083 55.0059ZM84.0297 59.0524L77.4734 62.8252C77.4388 62.8525 77.4109 62.8873 77.3919 62.927C77.3729 62.9666 77.3632 63.0101 77.3636 63.0541C77.3636 63.1487 77.4135 63.1984 77.4734 63.1636L84.0297 59.3859C84.0643 59.3586 84.0922 59.3238 84.1113 59.2841C84.1303 59.2444 84.14 59.2009 84.1396 59.1569C84.1396 59.0624 84.0797 59.0176 84.0297 59.0524Z" fill="#E0E0E0"/>
<path d="M77.4734 65.0649L88.9083 58.485C88.9433 58.4569 88.9714 58.4212 88.9904 58.3807C89.0095 58.3402 89.019 58.2958 89.0182 58.2511C89.0182 58.1565 88.9682 58.1117 88.9083 58.1465L77.4734 64.7264C77.4384 64.7545 77.4103 64.7901 77.3913 64.8307C77.3723 64.8712 77.3628 64.9156 77.3636 64.9603C77.3636 65.0649 77.4135 65.1047 77.4734 65.0649ZM88.9083 59.3859L77.4734 65.9657C77.4384 65.9938 77.4103 66.0295 77.3913 66.07C77.3723 66.1106 77.3628 66.1549 77.3636 66.1997C77.3636 66.2893 77.4135 66.339 77.4734 66.3042L88.9083 59.7243C88.9433 59.6962 88.9714 59.6606 88.9904 59.62C89.0095 59.5795 89.019 59.5351 89.0182 59.4904C89.0182 59.4008 88.9682 59.356 88.9083 59.3908V59.3859ZM88.9083 60.6252L77.4734 67.2051C77.4384 67.2331 77.4103 67.2688 77.3913 67.3093C77.3723 67.3499 77.3628 67.3942 77.3636 67.439C77.3636 67.5286 77.4135 67.5784 77.4734 67.5435L88.9083 60.9636C88.9433 60.9356 88.9714 60.8999 88.9904 60.8594C89.0095 60.8188 89.019 60.7745 89.0182 60.7297C89.0182 60.6401 88.9682 60.5854 88.9083 60.6302V60.6252ZM77.4734 68.7828L81.578 66.4187C81.6126 66.3914 81.6405 66.3566 81.6595 66.3169C81.6786 66.2772 81.6882 66.2337 81.6878 66.1897C81.6878 66.0952 81.6379 66.0454 81.578 66.0802L77.4734 68.4444C77.4384 68.4725 77.4103 68.5081 77.3913 68.5487C77.3723 68.5892 77.3628 68.6336 77.3636 68.6783C77.3636 68.7729 77.4135 68.8227 77.4734 68.7878V68.7828ZM88.9083 64.0694L77.4734 70.6493C77.4388 70.6766 77.4109 70.7114 77.3919 70.7511C77.3729 70.7908 77.3632 70.8343 77.3636 70.8783C77.3636 70.9728 77.4135 71.0226 77.4734 70.9878L88.9083 64.4029C88.9432 64.3759 88.9713 64.3411 88.9904 64.3013C89.0094 64.2616 89.0189 64.218 89.0182 64.1739C89.0182 64.0694 88.9682 64.0396 88.9083 64.0694ZM84.0297 68.1159L77.4734 71.8886C77.4388 71.9159 77.4109 71.9507 77.3919 71.9904C77.3729 72.0301 77.3632 72.0736 77.3636 72.1176C77.3636 72.2122 77.4135 72.2619 77.4734 72.2271L84.0297 68.4494C84.0646 68.4223 84.0927 68.3876 84.1118 68.3478C84.1309 68.3081 84.1404 68.2645 84.1396 68.2204C84.1396 68.1308 84.0797 68.086 84.0297 68.1209V68.1159Z" fill="#E0E0E0"/>
<path d="M90.1367 85.7747L76.1802 93.8079V80.2002L90.1367 72.167V85.7747Z" fill="#0071BC"/>
<g opacity="0.4">
<path d="M90.1367 85.7747L76.1802 93.8079V80.2002L90.1367 72.167V85.7747Z" fill="#EB2027"/>
</g>
<path d="M85.6039 83.3063C86.6475 81.3154 86.6475 79.0558 85.6039 78.2644C84.5603 77.473 82.8575 78.4536 81.8089 80.4494C80.8452 82.291 80.7703 84.3565 81.5892 85.2823L81.0899 86.213L80.8552 86.0339L79.5868 88.4578C79.3272 88.9555 79.3771 89.3537 79.6368 89.5478C79.8964 89.7419 80.2709 89.6622 80.5306 89.1645L81.8139 86.7257L81.5792 86.5465L82.0785 85.6207C83.1122 86.1234 84.6352 85.1479 85.6039 83.3063ZM82.2983 84.5606C81.5193 83.9783 81.5193 82.296 82.2983 80.8177C83.0772 79.3395 84.3356 78.6078 85.1145 79.1952C85.8935 79.7825 85.8935 81.4548 85.1145 82.938C84.3356 84.4212 83.0822 85.1479 82.2983 84.5606Z" fill="#FAFAFA"/>
</svg>
