<svg width="10" height="20" viewBox="0 0 10 20" fill="none" xmlns="http://www.w3.org/2000/svg">
<path d="M3.51562 20C1.57711 20 0 18.4229 0 16.4844V4.6875C0 2.10281 2.10281 0 4.6875 0C7.27219 0 9.375 2.10281 9.375 4.6875V16.4844H8.20312V4.6875C8.20312 2.74898 6.62602 1.17188 4.6875 1.17188C2.74898 1.17188 1.17188 2.74898 1.17188 4.6875V16.4844C1.17188 17.7767 2.22328 18.8281 3.51562 18.8281C4.80797 18.8281 5.85938 17.7767 5.85938 16.4844V7.03125C5.85938 6.38508 5.33367 5.85938 4.6875 5.85938C4.04133 5.85938 3.51562 6.38508 3.51562 7.03125V16.4844H2.34375V7.03125C2.34375 5.73891 3.39516 4.6875 4.6875 4.6875C5.97984 4.6875 7.03125 5.73891 7.03125 7.03125V16.4844C7.03125 18.4229 5.45414 20 3.51562 20Z" fill="#4B5261"/>
</svg>
