<svg width="16" height="22" viewBox="0 0 16 22" fill="none" xmlns="http://www.w3.org/2000/svg">
<path d="M13.7769 13.1835V5.81211C13.7769 2.60731 11.1695 0 7.96474 0C4.75995 0 2.15263 2.60731 2.15263 5.81211V13.1835C0.885938 13.7466 0 15.016 0 16.4893V21.5695C0 21.8072 0.192747 22 0.430527 22H15.499C15.7367 22 15.9295 21.8072 15.9295 21.5695V16.4893C15.9295 15.016 15.0435 13.7466 13.7769 13.1835ZM3.01369 12.9233V5.81211C3.01369 3.0821 5.23473 0.861053 7.96474 0.861053C10.6948 0.861053 12.9158 3.0821 12.9158 5.81211V12.9233C12.8074 12.905 12.6363 12.8843 12.4831 12.8771C12.311 12.8691 12.4305 12.8745 9.90211 12.8728V11.3511C11.1522 10.6776 12.0056 9.3708 12.0525 7.87816C12.0568 7.74126 12.0538 7.89698 12.0547 5.16632C12.0547 4.92858 11.862 4.73579 11.6242 4.73579C10.8708 4.73579 10.1506 4.50159 9.54133 4.05853L8.21798 3.09609C8.06661 2.986 7.86159 2.98631 7.71052 3.09682L6.40439 4.0525C5.79231 4.5003 5.06898 4.73579 4.31323 4.73579H4.30527C4.06749 4.73579 3.87474 4.92858 3.87474 5.16632C3.87564 7.81307 3.87018 7.8271 3.88499 8.03677C3.98719 9.50241 4.85884 10.7215 6.02737 11.3512V12.8729C3.52334 12.8745 3.40848 12.8565 3.01369 12.9233ZM11.7534 18.0392C11.9908 18.0392 12.1839 18.2323 12.1839 18.4697C12.1839 18.7071 11.9908 18.9002 11.7534 18.9002C11.516 18.9002 11.3229 18.7071 11.3229 18.4697C11.3229 18.2323 11.516 18.0392 11.7534 18.0392ZM7.96474 14.3717L6.88843 13.1416V11.6955C7.57202 11.8821 8.31834 11.8928 9.04106 11.6955V13.1416L7.96474 14.3717ZM4.73579 7.74948V5.57691C5.52237 5.50235 6.26787 5.21927 6.91284 4.74737L7.96552 3.97712L9.03486 4.75487C9.67531 5.22061 10.4144 5.50071 11.1937 5.5761C11.1922 7.75775 11.2069 7.89345 11.159 8.21996C10.9273 9.78561 9.57849 10.9784 7.96474 10.9784C6.18895 10.9784 4.73579 9.53255 4.73579 7.74948ZM0.861053 16.4893C0.861053 15.0197 2.02085 13.8062 3.48748 13.7372C3.59623 13.7321 3.63532 13.7345 3.74558 13.7339V15.9298C2.7642 16.1299 2.02348 16.9996 2.02348 18.0392V19.3307C2.02348 19.5685 2.21622 19.7613 2.454 19.7613H3.31506C3.55284 19.7613 3.74558 19.5685 3.74558 19.3307C3.74558 19.093 3.55284 18.9002 3.31506 18.9002H2.88453V18.0392C2.88453 17.327 3.46393 16.7476 4.17611 16.7476C4.88829 16.7476 5.46769 17.327 5.46769 18.0392V18.9002H5.03716C4.79938 18.9002 4.60664 19.093 4.60664 19.3307C4.60664 19.5685 4.79938 19.7613 5.03716 19.7613H5.89822C6.136 19.7613 6.32874 19.5685 6.32874 19.3307V18.0392C6.32874 16.9996 5.58802 16.1299 4.60664 15.9298V13.7339H6.26253L7.53422 15.1872V21.1389H0.861053V16.4893ZM15.0684 21.1389H8.39527V15.1872L9.66692 13.7339H11.3229V17.2522C10.8218 17.4299 10.4618 17.9084 10.4618 18.4697C10.4618 19.1819 11.0412 19.7613 11.7534 19.7613C12.4656 19.7613 13.045 19.1819 13.045 18.4697C13.045 17.9084 12.685 17.4299 12.1839 17.2522V13.7339C12.3012 13.7346 12.3979 13.7304 12.5691 13.7462C13.9678 13.8763 15.0684 15.0557 15.0684 16.4893V21.1389Z" fill="black"/>
</svg>
