<svg width="50" height="50" viewBox="0 0 50 50" fill="none" xmlns="http://www.w3.org/2000/svg">
<g clip-path="url(#clip0_302_2)">
<path d="M24.5975 20.7803C24.5975 18.0849 22.2438 16.6162 19.91 16.6162C17.617 16.6162 15.3636 18.0246 15.3636 20.4786C15.3636 21.7462 15.9675 22.1082 16.772 22.1082C17.7978 22.1082 18.4215 21.5448 18.4215 20.9615C18.4215 19.8549 19.1257 19.4528 19.9302 19.4528C21.0567 19.4528 21.4592 20.2375 21.4592 20.881C21.4592 23.4357 15.1226 25.2462 15.1226 28.4048V30.356C15.1226 30.9393 15.9271 31.3215 16.4905 31.3215H23.6518C24.1546 31.3215 24.5975 30.6577 24.5975 29.9337C24.5975 29.2093 24.1546 28.5856 23.6518 28.5856H18.3815V28.4048C18.3815 26.5741 24.5975 25.1459 24.5975 20.7803Z" fill="#F58D91"/>
<path d="M31.94 31.3215C32.7247 31.3215 33.509 30.9995 33.509 30.356V28.2236H34.3741C34.8567 28.2236 35.3396 27.4995 35.3396 26.7751C35.3396 26.0511 35.0181 25.3267 34.3741 25.3267H33.509V23.9187C33.509 23.2549 32.7247 22.973 31.94 22.973C31.1557 22.973 30.371 23.2549 30.371 23.9187V25.3267H28.641L32.2017 18.1856C32.2619 18.0444 32.302 17.9239 32.302 17.8033C32.302 17.0789 31.2762 16.6162 30.7334 16.6162C30.2302 16.6162 29.7271 16.8375 29.4253 17.4211L24.7787 26.5337C24.3831 27.2588 24.7191 28.2236 25.6637 28.2236H30.371V30.356C30.371 30.9995 31.1557 31.3215 31.94 31.3215Z" fill="#F58D91"/>
<path d="M48.0469 23.0469C46.9681 23.0469 46.0938 23.9212 46.0938 25C46.0938 36.6581 36.6596 46.0938 25 46.0938C13.3419 46.0938 3.90625 36.6596 3.90625 25C3.90625 13.3419 13.3404 3.90625 25 3.90625C29.2763 3.90625 33.2798 5.17197 36.6661 7.42188H34.52C33.4412 7.42188 32.5668 8.2962 32.5668 9.375C32.5668 10.4538 33.4412 11.3281 34.52 11.3281H41.9418C43.0202 11.3281 43.895 10.4401 43.895 9.375V1.95312C43.895 0.874329 43.0202 0 41.9418 0C40.863 0 39.9887 0.874329 39.9887 1.95312V4.98734C35.8578 1.88751 30.6656 0 25 0C11.1832 0 0 11.1813 0 25C0 38.8168 11.1813 50 25 50C38.8168 50 50 38.8187 50 25C50 23.9212 49.1257 23.0469 48.0469 23.0469Z" fill="#F58D91"/>
</g>
<defs>
<clipPath id="clip0_302_2">
<rect width="50" height="50" fill="white"/>
</clipPath>
</defs>
</svg>
