<svg width="50" height="50" viewBox="0 0 50 50" fill="none" xmlns="http://www.w3.org/2000/svg">
<g clip-path="url(#clip0_302_34)">
<path d="M22.3136 11.92H26.5164L22.268 21.5844C21.9424 22.325 22.2789 23.1894 23.0195 23.5148C23.7602 23.8404 24.6244 23.5039 24.95 22.7633L30.1014 11.0445C30.527 10.0765 29.8179 8.99023 28.7604 8.99023H22.3135C21.5045 8.99023 20.8486 9.64609 20.8486 10.4551C20.8486 11.2641 21.5046 11.92 22.3136 11.92Z" fill="#F58D91"/>
<path d="M23.577 27.5303C23.5728 27.5191 23.5684 27.5081 23.564 27.4972C23.344 26.9624 22.8288 26.6172 22.2508 26.6172H22.249C21.667 26.6172 21.1446 26.9731 20.9305 27.5144C20.9288 27.5187 20.927 27.5229 20.9255 27.5272L17.6252 36.1925C17.3852 36.8226 17.7015 37.5278 18.3315 37.7678C18.9615 38.0077 19.6668 37.6915 19.9067 37.0614L20.4293 35.6895H24.0467L24.5631 37.0579C24.8012 37.6887 25.5055 38.007 26.1362 37.7689C26.767 37.5309 27.0853 36.8267 26.8473 36.1959L23.577 27.5303ZM21.3592 33.248L22.2463 30.9187L23.1253 33.248H21.3592Z" fill="#F58D91"/>
<path d="M12.3524 26.6172H9.86328C9.53916 26.6172 9.22832 26.7461 8.99922 26.9755C8.77022 27.205 8.64199 27.516 8.64258 27.8401C8.64258 27.8402 8.66035 36.5994 8.66045 36.6312C8.66162 36.9551 8.79141 37.2651 9.02119 37.4933C9.2499 37.7203 9.55899 37.8476 9.88115 37.8476H9.88584C9.96114 37.8473 11.7367 37.8403 12.4468 37.8279C15.1561 37.7807 17.1226 35.4272 17.1226 32.2322C17.1225 28.8737 15.2056 26.6172 12.3524 26.6172ZM12.404 35.387C12.1015 35.3923 11.5852 35.3966 11.0978 35.3998C11.0945 34.3668 11.088 30.1323 11.0862 29.0586H12.3525C14.5132 29.0586 14.6812 31.4878 14.6812 32.2324C14.6811 33.7828 13.977 35.3595 12.404 35.387Z" fill="#F58D91"/>
<path d="M33.3083 26.8373C32.7433 26.4697 31.9871 26.6294 31.6193 27.1945L29.8564 29.9025L28.0726 27.1707C27.704 26.6062 26.9475 26.4472 26.3831 26.8161C25.8186 27.1846 25.6597 27.9411 26.0283 28.5055L28.6363 32.4996L28.6261 36.6242C28.6245 37.2983 29.1696 37.8462 29.8438 37.8479H29.8469C30.5197 37.8479 31.0659 37.3034 31.0675 36.6302L31.0777 32.5012L33.6652 28.5263C34.0332 27.9614 33.8733 27.2052 33.3083 26.8373Z" fill="#F58D91"/>
<path d="M39.6586 31.1662C38.6026 30.7766 37.6179 30.3528 37.2938 30.2112C37.1238 30.0659 37.1208 29.8733 37.1365 29.7654C37.1552 29.6342 37.2525 29.3132 37.7466 29.1643C38.878 28.8236 39.713 29.3987 39.8636 29.5134C40.2224 29.9713 40.8686 30.1195 41.3992 29.8358C41.9937 29.518 42.2181 28.7784 41.9003 28.1838C41.4595 27.3592 39.3453 26.133 37.0425 26.8266C35.785 27.2054 34.8951 28.1985 34.72 29.4184C34.5551 30.5659 35.0527 31.67 36.0184 32.2996C36.0724 32.3347 36.129 32.3656 36.1878 32.3918C36.2387 32.4145 37.4499 32.9536 38.8138 33.4567C39.0909 33.5588 39.9868 33.937 39.884 34.5118C39.8055 34.9514 39.257 35.4062 38.4747 35.4062C37.6377 35.4062 36.8334 35.0702 36.3235 34.5074C35.8707 34.0078 35.0989 33.9699 34.5993 34.4225C34.0997 34.8753 34.0617 35.6472 34.5144 36.1467C35.4939 37.2277 36.9374 37.8476 38.4748 37.8476C40.3833 37.8476 41.9868 36.6252 42.2875 34.9409C42.5145 33.6686 41.9432 32.0089 39.6586 31.1662Z" fill="#F58D91"/>
<path d="M42.6777 7.32227C37.9558 2.60049 31.6777 0 25 0C18.5274 0 12.4304 2.44326 7.76191 6.89326H1.46484C0.655859 6.89326 0 7.54912 0 8.35811C0 9.16709 0.655859 9.82295 1.46484 9.82295H5.13076C1.80342 14.1606 0 19.4414 0 25C0 31.6777 2.60049 37.9558 7.32227 42.6777C12.0442 47.3995 18.3223 50 25 50C31.6777 50 37.9558 47.3995 42.6777 42.6777C47.3995 37.9558 50 31.6777 50 25C50 18.3223 47.3995 12.0442 42.6777 7.32227ZM25 47.0703C12.8304 47.0703 2.92969 37.1696 2.92969 25C2.92969 20.3101 4.40127 15.9579 6.90537 12.3787V15.2635C6.90537 16.0725 7.56123 16.7283 8.37021 16.7283C9.1792 16.7283 9.83506 16.0725 9.83506 15.2635V8.98008C13.7924 5.23203 19.1321 2.92969 25 2.92969C37.1696 2.92969 47.0703 12.8304 47.0703 25C47.0703 37.1696 37.1696 47.0703 25 47.0703Z" fill="#F58D91"/>
</g>
<defs>
<clipPath id="clip0_302_34">
<rect width="50" height="50" fill="white"/>
</clipPath>
</defs>
</svg>
