<svg width="612" height="462" viewBox="0 0 612 462" fill="none" xmlns="http://www.w3.org/2000/svg">
<path fill-rule="evenodd" clip-rule="evenodd" d="M329.598 0.422546L612 168.046L583.571 460.5H82.856L0 235.572L329.598 0.422546Z" fill="#E7ECFF"/>
<path fill-rule="evenodd" clip-rule="evenodd" d="M428.832 460.5L425.956 204.063C425.956 204.063 397.596 222.842 396.054 225.603C394.744 228.025 398.725 234.015 398.339 236.802C396.492 250.033 388.559 274.174 387.483 290.505C385.174 324.886 389.588 417.992 389.15 460.5H428.832Z" fill="white"/>
<path fill-rule="evenodd" clip-rule="evenodd" d="M428.928 461.577C429.186 461.577 429.445 461.476 429.622 461.292C429.803 461.109 429.908 460.847 429.908 460.586L427.02 203.983C427.02 203.618 426.814 203.28 426.504 203.098C426.193 202.941 425.805 202.941 425.499 203.149C425.499 203.149 407.222 215.19 399.131 221.444C396.936 223.112 395.491 224.469 395.157 225.068C394.851 225.589 394.722 226.24 394.769 226.996C394.798 227.882 395.056 228.924 395.415 230.045C395.908 231.53 396.601 233.147 397.012 234.554C397.247 235.336 397.4 236.04 397.323 236.587C395.444 249.852 387.501 274.063 386.396 290.429C384.1 324.834 388.533 418.03 388.093 460.586C388.093 460.847 388.199 461.109 388.38 461.292C388.557 461.476 388.816 461.577 389.074 461.577H428.928ZM427.924 459.6H390.078C390.442 416.623 386.085 324.674 388.38 290.56C389.485 274.223 397.428 250.113 399.284 236.874C399.413 236.092 399.231 235.075 398.92 233.981C398.485 232.548 397.816 230.931 397.299 229.393C397.041 228.638 396.835 227.908 396.754 227.257C396.706 226.761 396.706 226.345 396.883 226.032C397.17 225.537 398.485 224.468 400.341 223.035C406.992 217.9 420.55 208.831 425.059 205.834L427.924 459.6Z" fill="#000045"/>
<path fill-rule="evenodd" clip-rule="evenodd" d="M401.292 460.5H544.121C537.36 414.038 516.717 244.302 457.514 200.831L442.238 204.534C442.238 204.534 422.723 213.071 414.471 227.386C407.109 240.151 401.921 256.516 401.292 284.305C400.769 307.002 400.561 411.408 401.292 460.5Z" fill="#4E53D3"/>
<path fill-rule="evenodd" clip-rule="evenodd" d="M336.17 222.831C336.17 217.217 331.632 212.683 326.04 212.683C286.716 212.683 144.25 212.683 104.925 212.683C99.358 212.683 94.8184 217.217 94.8184 222.831C94.8184 250.949 94.8184 329.547 94.8184 357.665C94.8184 363.28 99.358 367.838 104.925 367.838C144.25 367.838 286.716 367.838 326.04 367.838C331.632 367.838 336.17 363.28 336.17 357.665C336.17 329.547 336.17 250.949 336.17 222.831Z" fill="white"/>
<path fill-rule="evenodd" clip-rule="evenodd" d="M337.247 222.774C337.247 216.601 332.25 211.606 326.079 211.606C286.551 211.606 143.355 211.606 103.829 211.606C97.6807 211.606 92.6621 216.601 92.6621 222.774C92.6621 250.921 92.6621 329.602 92.6621 357.751C92.6621 363.923 97.6807 368.915 103.829 368.915C143.355 368.915 286.551 368.915 326.079 368.915C332.25 368.915 337.247 363.923 337.247 357.751V222.774ZM335.251 222.774V357.751C335.251 362.816 331.148 366.924 326.079 366.924C286.551 366.924 143.355 366.924 103.829 366.924C98.7854 366.924 94.6797 362.816 94.6797 357.751V222.774C94.6797 217.706 98.7854 213.623 103.829 213.623C143.355 213.623 286.551 213.623 326.079 213.623C331.148 213.623 335.251 217.706 335.251 222.774Z" fill="#000045"/>
<path fill-rule="evenodd" clip-rule="evenodd" d="M305.999 349.596C305.999 346.994 304.96 344.512 303.129 342.681C301.279 340.85 298.803 339.824 296.187 339.824C258.114 339.824 120.077 339.824 81.9803 339.824C79.388 339.824 76.8885 340.85 75.0601 342.681C73.2317 344.512 72.1895 346.994 72.1895 349.596C72.1895 364.061 72.1895 391.015 72.1895 405.475C72.1895 408.062 73.2317 410.549 75.0601 412.38C76.8885 414.211 79.388 415.246 81.9803 415.246C120.077 415.246 258.114 415.246 296.187 415.246C298.803 415.246 301.279 414.211 303.129 412.38C304.96 410.549 305.999 408.062 305.999 405.475C305.999 391.015 305.999 364.061 305.999 349.596Z" fill="#000045"/>
<path fill-rule="evenodd" clip-rule="evenodd" d="M110.915 290.261H213.4C213.955 290.261 214.414 290.013 214.414 289.715C214.414 289.418 213.955 289.183 213.4 289.183H110.915C110.359 289.183 109.9 289.418 109.9 289.715C109.9 290.013 110.359 290.261 110.915 290.261Z" fill="#4E53D3"/>
<path fill-rule="evenodd" clip-rule="evenodd" d="M110.896 313.965H267.293C267.846 313.965 268.288 313.72 268.288 313.42C268.288 313.122 267.846 312.887 267.293 312.887H110.896C110.343 312.887 109.9 313.122 109.9 313.42C109.9 313.72 110.343 313.965 110.896 313.965Z" fill="#000045"/>
<path fill-rule="evenodd" clip-rule="evenodd" d="M92.5975 398.007H182.155C182.71 398.007 183.168 397.542 183.168 396.945C183.168 396.344 182.71 395.852 182.155 395.852H92.5975C92.0424 395.852 91.584 396.344 91.584 396.945C91.584 397.542 92.0424 398.007 92.5975 398.007Z" fill="white"/>
<path fill-rule="evenodd" clip-rule="evenodd" d="M92.6018 379.69H142.285C142.847 379.69 143.302 379.457 143.302 379.159C143.302 378.861 142.847 378.613 142.285 378.613H92.6018C92.0394 378.613 91.584 378.861 91.584 379.159C91.584 379.457 92.0394 379.69 92.6018 379.69Z" fill="white"/>
<path fill-rule="evenodd" clip-rule="evenodd" d="M271.8 380.252L286.047 394.501C286.416 394.867 287.031 394.867 287.407 394.492C287.775 394.126 287.775 393.51 287.407 393.14L273.16 378.891C272.784 378.515 272.175 378.525 271.807 378.891C271.431 379.266 271.424 379.877 271.8 380.252Z" fill="white"/>
<path fill-rule="evenodd" clip-rule="evenodd" d="M286.045 378.892L271.797 393.139C271.429 393.505 271.428 394.121 271.804 394.5C272.172 394.866 272.789 394.866 273.157 394.5L287.405 380.248C287.78 379.873 287.773 379.267 287.405 378.896C287.029 378.521 286.42 378.517 286.045 378.892Z" fill="white"/>
<path fill-rule="evenodd" clip-rule="evenodd" d="M279.988 152.963L262.613 125.874C262.297 125.399 261.682 125.272 261.215 125.565C260.749 125.858 260.607 126.487 260.903 126.949L278.277 154.038C278.573 154.499 279.209 154.64 279.675 154.347C280.142 154.054 280.284 153.425 279.988 152.963Z" fill="#000045"/>
<path fill-rule="evenodd" clip-rule="evenodd" d="M467.236 154.202L479.193 142.136C479.574 141.758 479.569 141.14 479.149 140.758C478.733 140.395 478.085 140.401 477.704 140.799L465.742 152.845C465.361 153.243 465.371 153.861 465.786 154.223C466.187 154.61 466.85 154.58 467.236 154.202Z" fill="#000045"/>
<path fill-rule="evenodd" clip-rule="evenodd" d="M184.246 154.452C184.246 150.923 181.384 148.035 177.83 148.035C171.117 148.035 159.69 148.035 152.952 148.035C149.423 148.035 146.535 150.923 146.535 154.452V179.329C146.535 182.883 149.423 185.746 152.952 185.746H177.83C181.384 185.746 184.246 182.883 184.246 179.329V154.452ZM182.198 154.452V179.329C182.198 181.748 180.248 183.698 177.83 183.698H152.952C150.558 183.698 148.608 181.748 148.608 179.329C148.608 172.617 148.608 161.165 148.608 154.452C148.608 152.058 150.558 150.108 152.952 150.108C159.69 150.108 171.117 150.108 177.83 150.108C180.248 150.108 182.198 152.058 182.198 154.452Z" fill="#000045"/>
<path fill-rule="evenodd" clip-rule="evenodd" d="M227.345 173.504C227.345 171.344 225.517 169.585 223.24 169.585H207.746C205.483 169.585 203.641 171.344 203.641 173.504C203.641 177.437 203.641 184.359 203.641 188.293C203.641 190.467 205.483 192.211 207.746 192.211C211.867 192.211 219.134 192.211 223.24 192.211C225.517 192.211 227.345 190.467 227.345 188.293C227.345 184.359 227.345 177.437 227.345 173.504ZM225.277 173.504C225.277 177.437 225.277 184.359 225.277 188.293C225.277 189.366 224.364 190.238 223.24 190.238C219.134 190.238 211.867 190.238 207.746 190.238C206.622 190.238 205.708 189.366 205.708 188.293C205.708 184.359 205.708 177.437 205.708 173.504C205.708 172.431 206.622 171.559 207.746 171.559H223.24C224.364 171.559 225.277 172.431 225.277 173.504Z" fill="#4E53D3"/>
<path fill-rule="evenodd" clip-rule="evenodd" d="M351.268 412.014C347.683 412.014 344.789 415.149 344.789 419.007C344.789 422.886 347.683 426.021 351.268 426.021C354.825 426.021 357.719 422.886 357.719 419.007C357.719 415.149 354.825 412.014 351.268 412.014ZM351.268 414.121C353.758 414.121 355.774 416.305 355.774 419.007C355.774 421.73 353.758 423.914 351.268 423.914C348.75 423.914 346.734 421.73 346.734 419.007C346.734 416.305 348.75 414.121 351.268 414.121Z" fill="#000045"/>
<path fill-rule="evenodd" clip-rule="evenodd" d="M509.63 193.289C506.666 193.289 504.252 195.944 504.252 199.225C504.252 202.485 506.666 205.141 509.63 205.141C512.612 205.141 515.027 202.485 515.027 199.225C515.027 195.944 512.612 193.289 509.63 193.289ZM509.63 195.513C511.495 195.513 513.006 197.175 513.006 199.225C513.006 201.276 511.495 202.939 509.63 202.939C507.764 202.939 506.253 201.276 506.253 199.225C506.253 197.175 507.764 195.513 509.63 195.513Z" fill="#4E53D3"/>
<path fill-rule="evenodd" clip-rule="evenodd" d="M435.062 66.5137C436.591 60.6822 442.423 57.2361 448.091 58.7891C453.759 60.3426 457.164 66.3205 455.634 72.1519C454.358 77.0349 450.018 80.2505 445.28 80.1955C443.073 80.1927 441.132 81.6945 440.562 83.8727C439.687 87.2098 438.471 91.847 438.471 91.847C438.336 92.3736 438.64 92.9088 439.154 93.0504C439.668 93.1915 440.192 92.8825 440.328 92.3554C440.328 92.3554 441.544 87.7183 442.451 84.3902C442.792 83.0907 443.957 82.1666 445.276 82.1896C450.864 82.2149 455.98 78.4215 457.491 72.6604C459.292 65.7747 455.288 58.7279 448.587 56.8922C441.89 55.0564 434.978 59.1105 433.173 65.9962C433.032 66.5233 433.369 67.0666 433.883 67.2077C434.398 67.3488 434.922 67.0408 435.062 66.5137Z" fill="#4E53D3"/>
<path fill-rule="evenodd" clip-rule="evenodd" d="M376.016 56.7317C374.976 52.8464 377.295 48.868 381.158 47.8338C385.045 46.7927 389.019 49.086 390.064 52.9709C390.889 56.0548 389.573 59.2169 387.057 60.9057C385.357 62.0379 384.587 64.1187 385.109 66.0612C385.668 68.2533 386.36 70.8269 386.36 70.8269C386.498 71.3366 387.02 71.6389 387.529 71.5025C388.043 71.3655 388.345 70.8424 388.208 70.3322C388.208 70.3322 387.525 67.7829 386.929 65.5729C386.617 64.4077 387.094 63.1619 388.107 62.4739C391.292 60.3716 392.928 56.3681 391.883 52.4831C390.577 47.6025 385.549 44.6803 380.663 45.9884C375.778 47.2961 372.886 52.3389 374.196 57.2195C374.325 57.705 374.847 58.0073 375.361 57.8708C375.869 57.7343 376.149 57.2172 376.016 56.7317Z" fill="#4E53D3"/>
<path d="M435.938 103.73C437.947 104.269 440.016 103.075 440.556 101.063C441.089 99.0527 439.898 96.9851 437.888 96.4463C435.873 95.9074 433.81 97.1013 433.27 99.112C432.731 101.123 433.922 103.191 435.938 103.73Z" fill="#4E53D3"/>
<path d="M389.923 80.081C390.785 79.7732 391.295 78.5914 391.066 77.442C390.834 76.2926 389.947 75.6112 389.085 75.919C388.223 76.2269 387.712 77.4082 387.945 78.5571C388.174 79.7065 389.06 80.3889 389.923 80.081Z" fill="#4E53D3"/>
<path fill-rule="evenodd" clip-rule="evenodd" d="M85.1599 272.566C88.7715 279.125 82.6649 289.633 71.4443 296.129C60.2154 302.629 48.0909 302.668 44.2205 296.26C44.204 296.231 44.1919 296.211 44.1759 296.182C44.1638 296.158 44.1517 296.139 44.1352 296.109C40.5318 289.546 46.6258 279.033 57.8547 272.532C69.0753 266.04 81.2124 266.001 85.0746 272.416L85.0828 272.411C85.0988 272.44 85.1109 272.46 85.1235 272.484C85.1395 272.513 85.1516 272.532 85.1681 272.562L85.1599 272.566Z" fill="white"/>
<path fill-rule="evenodd" clip-rule="evenodd" d="M44.3485 295.779C44.2939 295.716 44.2429 295.642 44.2119 295.569C42.698 292.686 42.7661 289.111 44.1934 285.398C46.2301 280.145 51.0288 274.579 57.68 270.535C64.3232 266.493 71.306 264.893 76.6373 265.668C80.4037 266.222 83.3783 267.949 84.9963 270.764L84.2216 272.198L84.2253 272.208L84.1771 272.291L84.1692 272.296L84.2216 272.198C84.1706 271.74 84.0303 270.764 83.8622 270.574C83.8122 270.447 83.7534 270.379 83.6978 270.413C83.1958 270.715 83.294 271.169 83.5278 271.554C83.6399 271.798 83.8237 272.018 83.9766 272.179L84.1692 272.296C84.1414 272.266 83.7649 271.949 83.5278 271.554C83.3569 271.203 83.3292 270.823 83.7751 270.554C83.7992 270.54 83.8349 270.544 83.8622 270.574C84.0396 271.032 84.1655 272.232 84.1692 272.296L84.1771 272.291L84.2327 272.276L84.2253 272.208L85.0042 270.779L85.0857 270.93C85.0973 270.949 85.1089 270.969 85.1246 270.998C86.595 273.876 86.5232 277.427 85.1042 281.115C83.0754 286.364 78.2688 291.935 71.6255 295.974C64.9739 300.023 57.9995 301.618 52.6599 300.847C48.9175 300.296 45.9624 298.584 44.3402 295.803C44.317 295.779 44.305 295.755 44.2934 295.735L44.2119 295.589C44.2508 295.657 44.2934 295.715 44.3443 295.769L44.3485 295.779ZM83.3625 271.832L83.4209 271.94C83.5918 272.252 83.9062 272.437 84.2466 272.442C83.8983 272.442 83.576 272.242 83.4088 271.92C84.655 274.31 84.518 277.276 83.3269 280.354C81.424 285.271 76.8869 290.442 70.6655 294.223C64.4362 298.013 57.9176 299.569 52.922 298.842C49.8039 298.389 47.2883 297.033 45.9467 294.701L45.8999 294.618L45.8884 294.594C44.6384 292.198 44.7875 289.233 45.9708 286.159C47.8695 281.237 52.4107 276.071 58.64 272.286C64.8609 268.501 71.3759 266.94 76.3756 267.671C79.5016 268.125 82.0051 269.476 83.3509 271.813L83.3625 271.832ZM44.7347 294.369C44.6847 294.242 44.6259 294.174 44.5703 294.208C44.0683 294.511 44.167 294.959 44.4004 295.35C44.5435 295.647 44.8019 295.925 44.9626 296.086L44.9862 296.091H45.0418C45.0182 296.091 44.9982 296.091 44.9668 296.091L44.9626 296.086C44.9191 296.081 44.8839 296.076 44.8482 296.067C44.8839 296.076 44.9311 296.086 44.9668 296.091L44.9904 296.115C45.0135 296.14 45.045 296.159 45.0686 296.179L45.1275 296.228L45.1163 296.15L45.1052 296.091L45.0497 296.086C45.0145 296.062 44.6375 295.745 44.4004 295.35C44.2295 294.998 44.21 294.613 44.6481 294.35C44.6718 294.335 44.7074 294.34 44.7347 294.369C44.9121 294.828 45.0385 296.028 45.0497 296.086L45.0941 295.994C45.0436 295.535 44.9028 294.559 44.7347 294.369ZM84.2327 272.276L84.2438 272.354L84.2466 272.442L84.1877 272.388C84.1646 272.369 84.141 272.344 84.1174 272.32L84.0938 272.296C84.1178 272.301 84.1452 272.296 84.1692 272.296L84.2327 272.276Z" fill="#000045"/>
<path fill-rule="evenodd" clip-rule="evenodd" d="M114.506 259.307C114.447 259.247 114.393 259.175 114.36 259.1C112.731 256.257 112.763 252.702 114.225 248.995C116.312 243.748 121.306 238.161 128.271 234.062C135.227 229.968 142.568 228.296 148.196 229.002C152.172 229.509 155.326 231.189 157.063 233.968L156.255 235.409C156.192 234.945 156.041 233.974 155.866 233.794C155.812 233.665 155.749 233.597 155.69 233.632C155.157 233.946 155.27 234.4 155.52 234.782C155.646 235.011 155.842 235.226 156.004 235.386L156.196 235.5C156.171 235.477 155.779 235.159 155.52 234.782C155.336 234.436 155.307 234.047 155.774 233.772C155.799 233.757 155.828 233.769 155.866 233.794C156.054 234.241 156.192 235.436 156.196 235.5L156.267 235.486L156.255 235.409L157.071 233.982L157.159 234.129C157.172 234.15 157.184 234.171 157.201 234.199C158.784 237.041 158.748 240.57 157.294 244.253C155.216 249.495 150.212 255.088 143.257 259.181C136.292 263.28 128.959 264.948 123.323 264.246C119.372 263.743 116.239 262.079 114.497 259.331C114.473 259.308 114.46 259.287 114.447 259.266L114.36 259.119C114.401 259.189 114.447 259.247 114.501 259.3L114.506 259.307ZM155.353 235.05L155.416 235.155C155.595 235.456 155.929 235.638 156.284 235.647C155.921 235.643 155.583 235.454 155.403 235.134C156.744 237.494 156.633 240.444 155.412 243.517C153.463 248.428 148.739 253.619 142.225 257.452C135.703 261.291 128.85 262.913 123.576 262.253C120.285 261.835 117.618 260.52 116.178 258.219L116.128 258.135L116.116 258.114C114.771 255.746 114.894 252.799 116.107 249.731C118.052 244.814 122.78 239.629 129.302 235.791C135.816 231.957 142.665 230.328 147.943 230.996C151.242 231.408 153.896 232.721 155.341 235.029L155.353 235.05ZM114.897 257.904C114.843 257.775 114.78 257.708 114.722 257.743C114.188 258.057 114.301 258.51 114.559 258.888C114.714 259.184 114.973 259.448 115.149 259.609L115.169 259.607L115.228 259.61C115.207 259.613 115.182 259.609 115.149 259.609C115.107 259.596 115.061 259.595 115.023 259.589C115.065 259.602 115.111 259.603 115.149 259.609L115.177 259.64C115.198 259.656 115.232 259.674 115.257 259.697L115.319 259.746L115.307 259.668L115.303 259.604L115.236 259.606C115.202 259.587 114.81 259.27 114.559 258.888C114.376 258.542 114.338 258.157 114.805 257.883C114.83 257.868 114.868 257.874 114.897 257.904C115.085 258.352 115.223 259.547 115.236 259.606L115.286 259.519C115.223 259.055 115.072 258.085 114.897 257.904ZM156.267 235.486L156.276 235.557L156.28 235.639L156.217 235.591C156.192 235.569 156.167 235.545 156.146 235.529L156.117 235.499C156.142 235.503 156.175 235.502 156.196 235.5L156.267 235.486Z" fill="#4E53D3"/>
<path d="M71.6499 295.997C78.3485 292.28 80.6434 284.043 76.776 277.603C72.9085 271.163 64.3436 268.952 57.6456 272.674C50.947 276.391 48.6521 284.629 52.519 291.069C56.3865 297.509 64.9519 299.714 71.6499 295.997Z" fill="#000045"/>
<path fill-rule="evenodd" clip-rule="evenodd" d="M128.356 236.11C121.963 239.898 119.843 248.182 123.631 254.575C127.419 260.968 135.696 263.074 142.089 259.286C148.482 255.498 150.596 247.235 146.808 240.842C143.02 234.449 134.749 232.322 128.356 236.11ZM129.376 237.831C134.829 234.599 141.869 236.401 145.1 241.854C148.331 247.307 146.53 254.348 141.077 257.579C135.624 260.81 128.57 259.017 125.338 253.563C122.107 248.11 123.923 241.062 129.376 237.831Z" fill="#4E53D3"/>
<path fill-rule="evenodd" clip-rule="evenodd" d="M43.2469 249.658L54.0254 266.073C54.3265 266.532 54.9731 266.692 55.4883 266.431C56.0036 266.169 56.1843 265.588 55.8832 265.13L45.1052 248.715C44.8098 248.265 44.1414 248.103 43.6261 248.365C43.1109 248.627 42.952 249.209 43.2469 249.658Z" fill="#4E53D3"/>
<path fill-rule="evenodd" clip-rule="evenodd" d="M70.5081 241.519L67.8959 257.807C67.8082 258.353 68.1131 258.888 68.5622 258.998C69.0256 259.097 69.4743 258.739 69.562 258.193L72.1758 241.896C72.2631 241.35 71.9578 240.816 71.494 240.717C71.0453 240.607 70.597 240.965 70.5081 241.519Z" fill="#4E53D3"/>
<path fill-rule="evenodd" clip-rule="evenodd" d="M25.4793 270.7L41.7059 276.198C42.2493 276.381 42.8475 276.095 43.0455 275.561C43.2243 275.038 42.9336 274.45 42.3901 274.267L26.1727 268.769C25.6196 268.581 25.0225 268.868 24.8437 269.391C24.6456 269.925 24.9353 270.518 25.4793 270.7Z" fill="#4E53D3"/>
<path fill-rule="evenodd" clip-rule="evenodd" d="M298.48 240.822C283.964 239.48 272.6 227.198 272.6 212.279C272.6 196.448 285.396 183.592 301.154 183.592C316.911 183.592 329.705 196.448 329.705 212.279C329.705 225.424 320.875 236.505 308.863 239.887L314.571 290.88C314.739 292.439 313.615 293.853 312.063 294.022C310.583 294.191 308.796 294.384 307.312 294.553C305.76 294.722 304.376 293.617 304.184 292.058L298.48 240.822ZM301.154 192.323C312.111 192.323 321.019 201.27 321.019 212.279C321.019 223.289 312.111 232.212 301.154 232.212C290.196 232.212 281.314 223.289 281.314 212.279C281.314 201.27 290.196 192.323 301.154 192.323Z" fill="white"/>
<path fill-rule="evenodd" clip-rule="evenodd" d="M297.549 241.737L303.201 292.22C303.437 294.332 305.331 295.845 307.437 295.627C308.921 295.463 310.718 295.245 312.202 295.076C314.308 294.834 315.816 292.94 315.58 290.828L309.952 240.608C322.022 236.862 330.782 225.574 330.782 212.246C330.782 195.843 317.493 182.514 301.14 182.514C284.786 182.514 271.521 195.843 271.521 212.246C271.521 227.423 282.895 239.96 297.549 241.737ZM299.44 240.729C299.392 240.248 299.008 239.888 298.53 239.84C284.499 238.519 273.508 226.655 273.508 212.246C273.508 196.948 285.888 184.507 301.14 184.507C316.394 184.507 328.773 196.948 328.773 212.246C328.773 224.95 320.249 235.661 308.612 238.927C308.13 239.071 307.822 239.528 307.894 240.008L313.59 291.041C313.71 292.075 312.992 292.988 311.961 293.085C310.501 293.249 308.684 293.467 307.22 293.636C306.193 293.733 305.283 293.012 305.186 292.002L299.44 240.729ZM301.14 191.28C289.599 191.28 280.237 200.67 280.237 212.246C280.237 223.821 289.599 233.212 301.14 233.212C312.679 233.212 322.041 223.821 322.041 212.246C322.041 200.67 312.679 191.28 301.14 191.28ZM301.14 193.273C311.58 193.273 320.056 201.775 320.056 212.246C320.056 222.717 311.58 231.194 301.14 231.194C290.7 231.194 282.224 222.717 282.224 212.246C282.224 201.775 290.7 193.273 301.14 193.273Z" fill="#4E53D3"/>
<path fill-rule="evenodd" clip-rule="evenodd" d="M330.782 270.601C330.782 270.601 321.815 257.948 319.049 253.146C316.277 248.345 306.006 244.672 302.293 243.039C298.578 241.407 297.063 250.938 307.996 252.883L311.544 260.829L314.549 287.313L318.22 289.183L330.782 270.601Z" fill="white"/>
<path fill-rule="evenodd" clip-rule="evenodd" d="M331.692 270.521C331.932 270.194 331.908 269.744 331.669 269.417C331.669 269.417 322.704 257.051 319.919 252.363C318.732 250.337 316.306 248.499 313.501 246.921C309.529 244.707 304.867 243.011 302.607 242.045C301.75 241.669 300.966 241.716 300.324 241.998C299.682 242.281 299.159 242.822 298.826 243.553C298.445 244.424 298.326 245.579 298.635 246.827C299.277 249.348 301.703 252.363 307.27 253.47L310.553 260.654L313.573 286.496C313.597 286.823 313.807 287.108 314.094 287.25L317.78 289.084C318.234 289.298 318.78 289.155 319.043 288.757L331.692 270.521ZM329.649 269.981L317.899 286.942L315.473 285.742L312.501 260.277C312.501 260.183 312.477 260.089 312.429 259.994L308.863 252.198C308.72 251.892 308.456 251.679 308.126 251.632C302.298 250.62 300.276 247.416 300.443 245.179C300.491 244.543 300.681 244.024 301.109 243.812C301.3 243.695 301.561 243.718 301.823 243.836C304.058 244.778 308.624 246.45 312.525 248.641C314.975 250.007 317.186 251.585 318.21 253.352C320.656 257.474 327.864 267.511 329.649 269.981Z" fill="#000045"/>
<path fill-rule="evenodd" clip-rule="evenodd" d="M297.725 249.317C297.725 249.317 294.562 250.108 293.828 252.139C293.117 254.146 294.47 258.422 294.47 258.422C294.47 258.422 291.21 261.904 294.641 266.896C294.641 266.896 292.73 271.46 295.509 275.399C295.509 275.399 294.122 277.587 296.324 280.233C298.525 282.884 306.368 283.778 308.148 281.099C309.046 279.7 308.138 276.868 308.138 276.868C308.138 276.868 310.073 273.272 308.773 270.496C308.773 270.496 310.564 264.968 307.072 262.295C307.072 262.295 308.223 258.283 306.397 255.716L302.401 250.983L297.725 249.317Z" fill="white"/>
<path fill-rule="evenodd" clip-rule="evenodd" d="M298.1 247.225C297.893 247.145 297.668 247.142 297.451 247.212C297.451 247.212 296.141 247.559 294.924 248.365C294.034 248.943 293.194 249.787 292.826 250.884C292.496 251.853 292.535 253.282 292.713 254.623C292.885 255.891 293.173 257.073 293.333 257.7C292.506 258.939 290.702 262.442 293.489 267.091C293.076 268.488 292.189 272.475 294.332 276.125C293.957 277.144 293.545 279.33 295.503 281.838C296.978 283.722 300.706 284.949 303.91 284.87C306.219 284.825 308.208 284.044 309.07 282.654C309.544 281.892 309.664 280.819 309.619 279.815C309.559 278.954 309.385 278.133 309.29 277.673C309.734 276.615 310.895 273.419 309.888 270.724C310.092 269.992 310.441 268.182 310.257 266.271C310.102 264.656 309.544 262.981 308.248 261.671C308.487 260.291 308.881 256.871 307.306 254.477C307.281 254.455 307.281 254.43 307.251 254.383L303.232 249.357C303.118 249.219 302.958 249.111 302.779 249.029L298.1 247.225ZM297.698 249.263L301.782 250.852L305.6 255.626C307.176 258.045 306.119 261.774 306.119 261.774C306.009 262.179 306.149 262.586 306.468 262.828C307.635 263.804 308.063 265.17 308.213 266.465C308.412 268.567 307.829 270.501 307.829 270.501C307.749 270.729 307.774 271.001 307.869 271.213C308.318 272.208 308.298 273.345 308.143 274.325C307.899 275.902 307.271 277.119 307.271 277.119C307.146 277.381 307.121 277.629 307.196 277.891C307.196 277.891 307.49 278.88 307.565 279.933C307.595 280.522 307.58 281.14 307.296 281.561C307.066 281.981 306.618 282.243 306.114 282.441C305.466 282.674 304.678 282.797 303.86 282.827C301.328 282.891 298.312 282.065 297.123 280.576C295.393 278.366 296.366 276.57 296.366 276.57C296.582 276.229 296.567 275.813 296.362 275.487C293.835 271.728 295.578 267.339 295.578 267.339C295.698 267.031 295.665 266.688 295.489 266.408C292.508 261.802 295.237 258.606 295.237 258.606C295.46 258.338 295.548 257.959 295.441 257.624C295.441 257.624 294.992 256.062 294.753 254.356C294.63 253.331 294.551 252.252 294.804 251.512C295.017 250.875 295.543 250.404 296.082 250.057C296.691 249.654 297.338 249.396 297.698 249.263Z" fill="#000045"/>
<path fill-rule="evenodd" clip-rule="evenodd" d="M294.787 258.787L306.788 263.255C307.317 263.457 307.9 263.199 308.094 262.674C308.284 262.173 308.017 261.596 307.516 261.396L295.514 256.928C294.985 256.726 294.403 256.984 294.211 257.51C294.018 258.01 294.287 258.587 294.787 258.787Z" fill="#000045"/>
<path fill-rule="evenodd" clip-rule="evenodd" d="M295.888 266.599L308.037 270.818C308.526 270.996 309.051 270.666 309.195 270.055C309.34 269.465 309.06 268.864 308.575 268.68L296.424 264.439C295.938 264.286 295.411 264.615 295.265 265.202C295.119 265.815 295.402 266.418 295.888 266.599Z" fill="#000045"/>
<path fill-rule="evenodd" clip-rule="evenodd" d="M294.972 275.633L306.973 277.319C307.507 277.393 308.036 277.125 308.138 276.708C308.24 276.273 307.881 275.871 307.327 275.796L295.348 274.11C294.793 274.036 294.262 274.323 294.159 274.739C294.081 275.156 294.442 275.558 294.972 275.633Z" fill="#000045"/>
<path fill-rule="evenodd" clip-rule="evenodd" d="M311.485 262.561C311.485 262.561 314.305 268.661 320.747 271.842C321.239 272.079 321.825 271.89 322.062 271.396C322.298 270.903 322.109 270.311 321.617 270.078C315.809 267.202 313.273 261.736 313.273 261.736C313.037 261.242 312.45 261.03 311.954 261.265C311.462 261.501 311.249 262.066 311.485 262.561Z" fill="#000045"/>
<path fill-rule="evenodd" clip-rule="evenodd" d="M365.253 289.519C365.253 289.519 348.069 273.444 340.548 273.371C340.548 273.371 334.871 270.509 331.889 268.988C330.837 268.46 329.55 268.702 328.762 269.593C325.871 272.863 319.094 281.048 315.872 289.379C315.588 290.1 315.66 290.895 316.016 291.568C316.995 293.37 319.19 297.104 321.745 300.257C321.745 300.257 319.55 306.752 335.587 321.481C351.623 336.215 372.457 353.685 391.12 358.141L382.1 298.015L365.253 289.519Z" fill="#4E53D3"/>
<path fill-rule="evenodd" clip-rule="evenodd" d="M326.1 297.224C326.1 297.224 330.7 286.023 339.05 279.086C339.452 278.757 339.519 278.143 339.206 277.714C338.898 277.29 338.321 277.194 337.919 277.547C329.211 284.746 324.392 296.419 324.392 296.419C324.191 296.915 324.415 297.506 324.88 297.72C325.345 297.934 325.881 297.72 326.1 297.224Z" fill="#000045"/>
<path fill-rule="evenodd" clip-rule="evenodd" d="M384.655 246.202C384.655 246.202 382.796 226.368 375.134 213.048C375.134 213.048 361.766 210.675 345.558 218.037C345.558 218.037 339.064 228.765 350.429 236.055C350.429 236.055 353.623 241.19 360.334 244.071L362.217 251.87L375.134 261.169L384.655 246.202Z" fill="white"/>
<path fill-rule="evenodd" clip-rule="evenodd" d="M385.555 247.872C385.679 247.677 385.753 247.459 385.728 247.216C385.728 247.216 383.766 227.08 375.759 213.551C375.611 213.284 375.364 213.114 375.072 213.065C375.072 213.065 361.046 210.612 344.05 218.142C343.882 218.215 343.709 218.36 343.61 218.53C343.61 218.53 340.071 224.215 342.285 230.36C343.195 232.91 345.107 235.558 348.745 237.89C349.432 238.861 352.699 243.209 358.788 245.905L360.631 253.24C360.68 253.459 360.824 253.677 361.021 253.823L374.287 263.126C374.529 263.296 374.801 263.369 375.072 263.296C375.364 263.247 375.586 263.101 375.735 262.858L385.555 247.872ZM383.642 247.07L374.603 260.867L362.519 252.39L360.656 244.933C360.582 244.617 360.359 244.375 360.068 244.253C353.509 241.484 350.341 236.602 350.341 236.602C350.267 236.48 350.143 236.359 350.02 236.286C346.753 234.246 345.033 231.939 344.198 229.679C342.577 225.161 344.618 220.911 345.206 219.842C359.647 213.551 371.781 214.668 374.262 214.984C381.235 227.129 383.371 244.422 383.642 247.07Z" fill="#000045"/>
<path fill-rule="evenodd" clip-rule="evenodd" d="M351.201 236.197C350.738 234.713 350.306 231.17 350.652 228.867C350.721 228.357 350.462 227.87 350.067 227.782C349.691 227.693 349.31 228.025 349.241 228.512C348.847 231.147 349.345 235.199 349.877 236.882C350.033 237.369 350.444 237.591 350.807 237.392C351.167 237.215 351.353 236.661 351.201 236.197Z" fill="#000045"/>
<path fill-rule="evenodd" clip-rule="evenodd" d="M405.551 276.242C409.215 285.63 413.144 296.922 413.144 296.922L428.457 248.824C428.457 248.824 439.714 231.831 459.337 239.413C478.959 246.996 480.777 274.198 473.111 290.494C465.445 306.789 442.756 369.594 418.414 376.235C394.1 382.881 385.306 363.093 377.255 338.659C377.255 338.659 350.377 277.565 361.489 268.971C361.489 268.971 359.792 261.728 359.768 255.661C359.792 254.241 360.675 253.013 362.02 252.556C366.74 250.967 378.118 247.163 384.058 245.623C385.355 245.334 386.671 245.864 387.389 246.971C389.284 249.836 392.803 255.349 394.192 258.598C394.192 258.598 397.379 258.598 401.188 266.012C402.364 268.299 403.945 272.076 405.551 276.242Z" fill="#4E53D3"/>
<path fill-rule="evenodd" clip-rule="evenodd" d="M414.596 296.864C414.596 296.864 428.877 251.986 429.778 249.16C430.755 247.747 441.344 233.353 459.194 240.274C468.595 243.914 473.715 252.296 475.592 261.684C477.474 271.215 476.071 281.799 472.335 289.727C467.786 299.452 457.862 325.795 445.439 346.75C440.515 355.058 435.18 362.509 429.663 367.704C426.066 371.083 422.378 373.478 418.643 374.504C418.116 374.649 417.809 375.203 417.953 375.728C418.097 376.254 418.643 376.567 419.165 376.423C426.593 374.413 433.92 367.275 440.678 357.767C456.1 336.07 468.787 301.968 474.141 290.589C478.02 282.305 479.495 271.24 477.522 261.302C475.52 251.243 469.974 242.31 459.907 238.406C439.658 230.551 428.068 248.153 428.068 248.153C427.996 248.249 427.972 248.321 427.948 248.417L412.718 296.243C412.551 296.768 412.833 297.346 413.36 297.51C413.882 297.679 414.428 297.394 414.596 296.864Z" fill="black"/>
<path fill-rule="evenodd" clip-rule="evenodd" d="M377.037 337.337C377.037 337.337 367.396 313.219 362.747 293.173C362.615 292.644 362.115 292.304 361.636 292.449C361.153 292.595 360.85 293.124 360.982 293.677C365.671 313.845 375.377 338.133 375.377 338.133C375.575 338.663 376.119 338.881 376.58 338.663C377.037 338.42 377.234 337.842 377.037 337.337Z" fill="black"/>
<path fill-rule="evenodd" clip-rule="evenodd" d="M406.279 280.86C406.279 280.86 416.777 307.375 416.143 324.784C416.12 325.339 416.531 325.792 417.051 325.816C417.572 325.84 418.005 325.406 418.028 324.857C418.662 307.134 408.023 280.094 408.023 280.094C407.818 279.588 407.274 279.352 406.777 279.564C406.298 279.781 406.074 280.354 406.279 280.86Z" fill="#000045"/>
<path fill-rule="evenodd" clip-rule="evenodd" d="M364.472 267.572C364.472 267.572 379.284 262.01 389.145 260.907C389.698 260.861 390.087 260.379 390.038 259.85C389.965 259.322 389.46 258.953 388.927 259.022C378.871 260.126 363.749 265.779 363.749 265.779C363.22 265.986 362.978 266.537 363.172 267.02C363.366 267.526 363.968 267.753 364.472 267.572Z" fill="#000045"/>
<path fill-rule="evenodd" clip-rule="evenodd" d="M116.294 461.577H580.823C581.373 461.577 581.831 461.107 581.831 460.51C581.831 459.919 581.373 459.423 580.823 459.423H116.294C115.746 459.423 115.289 459.919 115.289 460.51C115.289 461.107 115.746 461.577 116.294 461.577Z" fill="#000045"/>
<path fill-rule="evenodd" clip-rule="evenodd" d="M331.859 172.681C331.859 172.681 337.903 187.345 343.026 193.115C343.026 193.115 342.857 209.488 352.179 203.192C352.179 203.192 368.058 224.244 386.852 206.183L399.264 223.458L436.373 197.888L417.802 175.659L384.388 144.803L344.596 146.065L331.859 172.681Z" fill="white"/>
<path fill-rule="evenodd" clip-rule="evenodd" d="M330.884 171.541C330.768 171.792 330.744 172.11 330.845 172.363C330.845 172.363 336.81 186.971 341.98 193.105C341.994 194.244 342.14 197.679 343.09 200.549C343.886 202.943 345.282 204.908 347.397 205.335C348.604 205.597 350.093 205.362 351.907 204.287C353.968 206.733 361.295 214.448 371.043 214.434C375.781 214.434 381.11 212.649 386.692 207.519L398.457 224.102C398.772 224.574 399.388 224.665 399.854 224.351L437.015 198.41C437.258 198.238 437.403 198.001 437.432 197.706C437.491 197.425 437.403 197.143 437.219 196.94L418.611 174.346C418.578 174.31 418.548 174.296 418.515 174.259L385.053 142.928C384.874 142.746 384.621 142.637 384.355 142.649L344.487 143.938C344.123 143.956 343.774 144.163 343.619 144.523L330.884 171.541ZM332.887 172.004C332.887 172.004 343.372 149.751 345.18 145.934C345.18 145.934 379.806 144.829 383.991 144.694C383.991 144.694 415.716 174.382 417.103 175.684L434.979 197.363L399.519 222.12L387.667 205.398C387.497 205.166 387.226 205.012 386.949 204.982C386.648 204.958 386.367 205.071 386.154 205.257C380.742 210.525 375.611 212.413 371.043 212.407C360.393 212.421 352.94 202.362 352.94 202.362C352.61 201.919 352.018 201.821 351.572 202.128C350.001 203.198 348.793 203.556 347.799 203.347C346.339 203.048 345.554 201.556 344.996 199.922C343.939 196.704 343.968 192.737 343.968 192.737C343.983 192.47 343.886 192.239 343.73 192.05C339.167 186.845 333.891 174.427 332.887 172.004Z" fill="#000045"/>
<path fill-rule="evenodd" clip-rule="evenodd" d="M386.929 156.96C386.929 156.96 381.755 161.484 378.279 169.249C378.028 169.781 378.325 170.382 378.925 170.593C379.554 170.796 380.24 170.536 380.463 170.007C383.762 162.69 388.632 158.416 388.632 158.416C389.084 158.014 389.073 157.36 388.61 156.957C388.146 156.554 387.409 156.553 386.929 156.96Z" fill="#000045"/>
<path fill-rule="evenodd" clip-rule="evenodd" d="M388.17 164.194C388.17 164.194 384.162 163.134 381.393 163.12C380.816 163.117 380.351 163.605 380.346 164.212C380.341 164.815 380.811 165.309 381.388 165.312C383.944 165.326 387.659 166.319 387.659 166.319C388.231 166.466 388.798 166.111 388.935 165.526C389.071 164.939 388.742 164.341 388.17 164.194Z" fill="#000045"/>
<path d="M351.094 185.49C352.17 184.857 352.633 183.253 352.125 181.907C351.62 180.561 350.337 179.983 349.26 180.616C348.184 181.249 347.721 182.853 348.226 184.199C348.734 185.545 350.018 186.123 351.094 185.49Z" fill="#000045"/>
<path fill-rule="evenodd" clip-rule="evenodd" d="M372.558 157.953C372.558 157.953 384.965 202.39 383.54 204.017C382.032 205.724 365.441 160.095 365.441 160.095C363.643 160.882 361.72 161.601 359.517 162.216L350.086 147.254L354.232 164.38C354.232 164.38 342.515 171.561 328.992 176.632C328.992 176.632 306.902 140.921 336.563 115.316C366.223 89.7125 427.458 87.6838 428.83 167.889L412.447 182.262C412.447 182.262 399.46 182.87 388.42 173.806C388.42 173.806 391.536 172.274 393.782 168.582C395.42 165.903 395.73 161.155 392.41 156.569C384.545 145.628 372.558 157.953 372.558 157.953Z" fill="#000045"/>
<path fill-rule="evenodd" clip-rule="evenodd" d="M343.654 178.398C343.78 177.28 344.691 175.876 346.061 174.738C348.221 172.962 351.554 171.806 355.14 173.464C355.651 173.689 356.278 173.502 356.541 172.991C356.789 172.512 356.557 171.907 356.046 171.682C351.539 169.598 347.382 171 344.696 173.258C342.855 174.777 341.727 176.733 341.56 178.212C341.514 178.738 341.934 179.235 342.511 179.278C343.088 179.322 343.583 178.932 343.654 178.398Z" fill="#000045"/>
<path fill-rule="evenodd" clip-rule="evenodd" d="M393.519 169.018C393.519 169.018 391.206 173.033 384.307 175.15C383.749 175.323 383.457 175.882 383.625 176.407C383.793 176.932 384.367 177.248 384.895 177.083C392.787 174.659 395.308 170 395.308 170C395.57 169.508 395.401 168.9 394.902 168.643C394.423 168.353 393.791 168.549 393.519 169.018Z" fill="#000045"/>
<path fill-rule="evenodd" clip-rule="evenodd" d="M432.263 168.742C430.927 167.146 428.622 166.99 427.098 168.359C423.551 171.544 417.464 177.016 413.936 180.183C412.412 181.551 412.233 183.939 413.569 185.534C414.881 187.105 417.186 187.26 418.71 185.893C422.238 182.725 428.325 177.254 431.872 174.068C433.396 172.7 433.575 170.313 432.263 168.742Z" fill="white"/>
<path fill-rule="evenodd" clip-rule="evenodd" d="M432.001 168.035C430.297 166.003 427.353 165.785 425.412 167.523C421.832 170.728 415.684 176.233 412.129 179.42C410.187 181.158 409.954 184.22 411.659 186.252C413.344 188.258 416.311 188.458 418.248 186.72C421.809 183.533 427.956 178.028 431.536 174.823C433.478 173.085 433.687 170.042 432.001 168.035ZM430.525 169.358C431.493 170.511 431.384 172.279 430.249 173.293L416.966 185.19C415.832 186.203 414.123 186.066 413.159 184.912C412.167 183.733 412.281 181.964 413.41 180.95L426.694 169.054C427.828 168.04 429.537 168.178 430.525 169.358Z" fill="#000045"/>
<path fill-rule="evenodd" clip-rule="evenodd" d="M362.112 204.01C364.238 203.178 366.398 202.795 368.619 202.974C369.113 203.02 369.529 202.593 369.568 202.008C369.607 201.422 369.246 200.927 368.752 200.882C366.304 200.68 363.916 201.084 361.562 202.008C361.09 202.187 360.845 202.795 360.995 203.335C361.146 203.898 361.657 204.191 362.112 204.01Z" fill="#000045"/>
<path fill-rule="evenodd" clip-rule="evenodd" d="M416.66 185.867C416.66 185.867 410.191 211.48 435.004 236.387L466.067 212.237L461.624 204.574L469.135 208.629L480.548 200.194C480.548 200.194 465.005 169.286 431.039 173.151L416.66 185.867Z" fill="#000045"/>
</svg>
