<svg width="34" height="35" viewBox="0 0 34 35" fill="none" xmlns="http://www.w3.org/2000/svg">
<path d="M33.7616 12.7713V22.2762C33.7645 22.4707 33.7289 22.664 33.6569 22.8448C33.5849 23.0257 33.4777 23.1905 33.3417 23.33C33.2057 23.4695 33.0434 23.5809 32.8642 23.6578C32.6849 23.7346 32.4922 23.7755 32.2971 23.7779H24.708C24.1216 23.7742 23.5468 23.6135 23.0439 23.3125C22.541 23.0115 22.1283 22.5814 21.849 22.0671C19.6452 18.0661 16.4213 14.7163 12.5033 12.3563C11.9195 12.0015 11.4373 11.5025 11.1035 10.9075C10.7696 10.3125 10.5952 9.64172 10.5973 8.95989V1.50176C10.593 1.10929 10.7446 0.731079 11.019 0.449711C11.2934 0.168342 11.6682 0.00667213 12.0617 0H21.3281C21.7218 0.00584166 22.0972 0.16725 22.3717 0.448802C22.6463 0.730353 22.7976 1.10905 22.7925 1.50176V11.2664H32.3067C32.6993 11.2747 33.0727 11.4377 33.3453 11.7196C33.6179 12.0016 33.7675 12.3797 33.7616 12.7713Z" fill="#EB2027"/>
<path d="M1.89654 15.3724C1.72118 15.865 1.73334 16.4046 1.9307 16.8889C2.12806 17.3731 2.49687 17.7681 2.96707 17.9989L2.23009 18.5502L1.59475 19.0286L0.91812 16.494L0.476562 14.8433L1.46451 14.1495L1.88701 13.8802L4.02173 12.3784L4.41564 14.0481C4.08478 13.9658 3.73895 13.964 3.40725 14.0429C3.07556 14.1217 2.76771 14.2789 2.50964 14.5012C2.38377 14.6094 2.27079 14.7316 2.17291 14.8655C2.0577 15.0209 1.96469 15.1915 1.89654 15.3724Z" fill="#0071BC"/>
<path d="M17.9705 18.5472C15.6261 15.8922 13.2753 13.9183 10.1876 12.7144C10.1529 12.6974 10.1168 12.6836 10.0796 12.6732C9.39642 12.4097 8.69722 12.1896 7.98616 12.0142C6.6979 11.5667 5.33729 11.3625 3.97402 11.4122C3.71036 11.4122 3.44034 11.4407 3.17032 11.4661H3.08455C2.88442 11.4883 2.67794 11.5136 2.47463 11.5453C2.47463 11.5453 2.63029 11.5706 2.8876 11.6372C3.23269 11.7284 3.57124 11.8428 3.90096 11.9793C4.77454 12.3278 5.83555 12.9298 6.42324 13.9342C6.70658 14.4282 6.87227 14.9805 6.90752 15.5485C6.94278 16.1166 6.84664 16.6851 6.62655 17.2102C6.58767 17.318 6.54314 17.4238 6.49313 17.527C6.44548 17.6252 6.39783 17.7234 6.34382 17.8153C6.28982 17.9072 6.21993 18.0244 6.15004 18.1321C5.82863 18.6245 5.39271 19.0321 4.87937 19.3202L4.71736 19.3963C4.34088 19.5587 3.93878 19.6542 3.52929 19.6783C2.85602 19.7218 2.1823 19.6002 1.56706 19.3241C0.951809 19.0479 0.413773 18.6256 0 18.0941C0.36979 19.1511 1.09632 20.047 2.05531 20.6287C2.39926 20.9211 2.76104 21.192 3.13855 21.4398C3.72089 21.8242 4.33394 22.1601 4.9715 22.4442C6.7547 23.2157 8.6601 23.6683 10.6006 23.7812C11.5123 23.8477 12.4208 23.8921 13.3007 23.9428H13.3198L13.9297 23.9776L14.6318 24.0283C17.405 24.2406 19.7303 24.662 20.7532 26.1701C21.5061 27.2853 21.433 28.2896 21.433 29.6552V33.0167C21.433 33.1007 21.3996 33.1813 21.34 33.2407C21.2804 33.3002 21.1996 33.3335 21.1154 33.3335H12.5796C12.4954 33.3335 12.4146 33.3002 12.355 33.2407C12.2954 33.1813 12.262 33.1007 12.262 33.0167V27.4595C12.262 25.3368 10.6037 25.1562 10.6037 25.1562V33.0167C10.6046 33.543 10.8148 34.0475 11.1882 34.4193C11.5617 34.7912 12.0678 35.0001 12.5955 35.0001H21.0868C21.6145 35.0001 22.1206 34.7912 22.494 34.4193C22.8675 34.0475 23.0777 33.543 23.0785 33.0167V28.1978C23.0785 24.9408 19.6414 20.4355 17.9705 18.5472Z" fill="#0071BC"/>
<path d="M2.45257 15.2933C2.45257 15.2933 2.45257 15.2584 2.47798 15.2457C2.47798 15.2457 2.47798 15.2457 2.45574 15.2964C2.39891 15.3972 2.3521 15.5033 2.31597 15.6132C2.31597 15.6386 2.31597 15.6481 2.31597 15.6671C2.31492 15.6492 2.31492 15.6312 2.31597 15.6132C2.34528 15.4942 2.3868 15.3785 2.43986 15.2679" fill="#FFA900"/>
<path d="M2.47133 15.3155L2.49674 15.2743C2.49854 15.288 2.49854 15.3018 2.49674 15.3155C2.49084 15.3326 2.48226 15.3486 2.47133 15.363C2.411 15.4533 2.36092 15.55 2.32202 15.6513V15.6957V15.6418C2.36035 15.5323 2.40818 15.4262 2.46497 15.325" fill="#FFA900"/>
<path d="M2.47152 15.382C2.47152 15.382 2.49058 15.3535 2.50011 15.3503V15.42L2.47152 15.4644C2.4116 15.5275 2.36129 15.599 2.32222 15.6767V15.7084C2.32131 15.6925 2.32131 15.6767 2.32222 15.6608C2.36126 15.5646 2.41136 15.4731 2.47152 15.3884" fill="#FFA900"/>
<path d="M2.47148 15.4834C2.47148 15.4834 2.49371 15.4644 2.50007 15.4834V15.5721C2.49411 15.5846 2.48401 15.5947 2.47148 15.6007C2.41915 15.6311 2.37198 15.6696 2.3317 15.7147C2.32986 15.7042 2.32986 15.6935 2.3317 15.683C2.37173 15.6115 2.42084 15.5455 2.47783 15.4866" fill="#FFA900"/>
<path d="M2.47132 15.6196H2.49673L2.47767 15.721C2.47767 15.721 2.47767 15.721 2.45226 15.721C2.41208 15.7181 2.37173 15.7181 2.33154 15.721C2.37137 15.685 2.41634 15.6551 2.46497 15.6323" fill="#FFA900"/>
<path d="M2.43955 15.7812H2.47132C2.47132 15.7812 2.47132 15.8446 2.44908 15.8763C2.42684 15.9079 2.44908 15.8763 2.42684 15.8763C2.3902 15.8414 2.35817 15.802 2.33154 15.759L2.4459 15.7875" fill="#FFA900"/>
<path d="M2.40802 15.9079C2.40802 15.9079 2.40802 15.9301 2.40802 15.9428C2.40102 15.9717 2.39253 16.0003 2.38261 16.0283C2.38261 16.0283 2.38261 16.0283 2.36355 16.0062C2.33184 15.9379 2.31043 15.8653 2.30001 15.7907C2.29811 15.7802 2.29811 15.7695 2.30001 15.759V15.778C2.3215 15.8292 2.35158 15.8764 2.38896 15.9174" fill="#FFA900"/>
<path d="M2.36968 16.0315C2.3713 16.0473 2.3713 16.0632 2.36968 16.079L2.34427 16.1456C2.34144 16.1341 2.34144 16.1222 2.34427 16.1107C2.32151 16.0131 2.30979 15.9132 2.30933 15.8129V15.7622C2.3109 15.7738 2.3109 15.7855 2.30933 15.7971C2.31892 15.8775 2.33921 15.9564 2.36968 16.0315Z" fill="#FFA900"/>
<path d="M2.32845 16.1266C2.3323 16.1454 2.3323 16.1648 2.32845 16.1836L2.30621 16.2216C2.30528 16.2058 2.30528 16.1899 2.30621 16.1741C2.29506 16.0582 2.29506 15.9415 2.30621 15.8256C2.30621 15.8256 2.30621 15.7939 2.30621 15.7717C2.30792 15.7865 2.30792 15.8013 2.30621 15.8161C2.30573 15.9224 2.3153 16.0284 2.3348 16.1329" fill="#FFA900"/>
<path d="M2.29361 16.1868C2.29456 16.2047 2.29456 16.2227 2.29361 16.2406C2.29361 16.2406 2.29361 16.2406 2.27137 16.2406C2.27014 16.2227 2.27014 16.2047 2.27137 16.1868C2.26511 16.065 2.27149 15.9429 2.29043 15.8224C2.29153 15.8045 2.29153 15.7865 2.29043 15.7686C2.29043 15.7876 2.29043 15.8066 2.29043 15.8224C2.27773 15.9414 2.27773 16.0614 2.29043 16.1804" fill="#FFA900"/>
<path d="M2.78904 14.8307C2.81763 14.8022 2.82716 14.7959 2.83351 14.7959C2.83974 14.7969 2.84562 14.7995 2.85061 14.8034C2.85561 14.8073 2.85955 14.8123 2.8621 14.8181C2.8621 14.8181 2.8621 14.8371 2.82716 14.8624C2.7435 14.9434 2.66698 15.0314 2.59844 15.1254L2.56667 15.1666C2.56209 15.1595 2.55544 15.154 2.54761 15.1507C2.54761 15.1507 2.54761 15.1507 2.57302 15.1064C2.63688 15.0084 2.70915 14.9162 2.78904 14.8307Z" fill="#FFA900"/>
<path d="M2.83032 14.8624C2.8462 14.8624 2.86208 14.837 2.87161 14.837C2.874 14.8644 2.874 14.892 2.87161 14.9194C2.87161 14.9194 2.87161 14.9479 2.83349 14.9669C2.74799 15.0364 2.66831 15.1127 2.59524 15.1951L2.56348 15.2236C2.56434 15.2067 2.56434 15.1898 2.56348 15.1729C2.56348 15.1729 2.56348 15.1729 2.59207 15.1222C2.66164 15.029 2.73923 14.9421 2.82396 14.8624" fill="#FFA900"/>
<path d="M2.85254 15.005C2.87795 14.986 2.89066 14.9828 2.89383 15.005V15.1412C2.89383 15.1412 2.87477 15.1697 2.85254 15.1856C2.76754 15.2324 2.68676 15.2864 2.61111 15.3471C2.61111 15.3471 2.5857 15.3662 2.58252 15.3471V15.2648C2.58252 15.2648 2.58252 15.2394 2.61429 15.2172C2.68595 15.1373 2.7658 15.0651 2.85254 15.0018" fill="#FFA900"/>
<path d="M2.84936 15.2268C2.8716 15.2268 2.88431 15.2268 2.88431 15.2268C2.88431 15.2268 2.88431 15.344 2.88431 15.4106C2.88009 15.4197 2.87393 15.4279 2.86625 15.4344C2.85858 15.441 2.84956 15.4458 2.83983 15.4486C2.76162 15.4662 2.68509 15.4906 2.61111 15.5215C2.5857 15.5215 2.58252 15.5215 2.58252 15.5215C2.58252 15.5215 2.58252 15.4454 2.58252 15.4106C2.58993 15.3938 2.60207 15.3794 2.61746 15.3694C2.69196 15.3132 2.77175 15.2644 2.85571 15.2236" fill="#FFA900"/>
<path d="M2.81469 15.5214C2.83693 15.5214 2.84963 15.5214 2.84963 15.5467C2.84963 15.5721 2.8274 15.6798 2.81469 15.7463C2.80198 15.8128 2.78928 15.7812 2.78928 15.7812L2.57326 15.7558C2.57326 15.7558 2.55103 15.7558 2.55103 15.7336L2.57008 15.6132C2.57008 15.6132 2.57008 15.5911 2.60503 15.5847C2.67898 15.562 2.75432 15.544 2.83057 15.5309" fill="#FFA900"/>
<path d="M2.75732 15.8382C2.76629 15.8397 2.77443 15.8444 2.78026 15.8513C2.78608 15.8583 2.78921 15.8671 2.78909 15.8762L2.74144 16.0695C2.74144 16.0695 2.72238 16.0885 2.70332 16.0695C2.63025 16.0283 2.56672 15.9871 2.50954 15.9491C2.50394 15.9444 2.49937 15.9385 2.49609 15.932C2.49281 15.9255 2.4909 15.9183 2.49048 15.9111L2.51907 15.7938C2.51907 15.7938 2.51907 15.7938 2.54766 15.7938L2.75732 15.8413" fill="#FFA900"/>
<path d="M2.68421 16.1424C2.69335 16.1471 2.70075 16.1545 2.70533 16.1636C2.7099 16.1727 2.71141 16.1831 2.70963 16.1931C2.70963 16.2533 2.67786 16.3104 2.6588 16.3642C2.63974 16.4181 2.63974 16.3642 2.62068 16.3642C2.55983 16.2993 2.50457 16.2293 2.45549 16.1551C2.45549 16.1329 2.43643 16.1171 2.45549 16.1076C2.47455 16.0981 2.47773 16.0379 2.48726 16.003C2.49679 15.9682 2.48726 16.003 2.51585 16.003C2.57359 16.0551 2.63518 16.1028 2.7001 16.1456" fill="#FFA900"/>
<path d="M2.60504 16.4148C2.61185 16.422 2.61707 16.4305 2.62035 16.4397C2.62364 16.449 2.62491 16.4589 2.6241 16.4687C2.60504 16.5194 2.58915 16.5638 2.57009 16.6049C2.55103 16.6461 2.57009 16.6049 2.53515 16.5828C2.48098 16.4938 2.43424 16.4006 2.39538 16.304C2.39034 16.2864 2.39034 16.2677 2.39538 16.2501C2.39538 16.2248 2.41761 16.1962 2.42714 16.1677C2.42714 16.1677 2.42714 16.1677 2.44938 16.1899C2.49617 16.2708 2.55041 16.3472 2.61139 16.418" fill="#FFA900"/>
<path d="M2.51904 16.6208C2.52489 16.6393 2.52489 16.6592 2.51904 16.6778L2.47457 16.7538C2.47457 16.7538 2.47457 16.7538 2.4428 16.7158C2.39532 16.6141 2.35807 16.508 2.33161 16.399C2.32957 16.38 2.32957 16.3609 2.33161 16.342L2.35703 16.2944C2.36488 16.3052 2.37129 16.3169 2.37609 16.3293C2.41 16.4319 2.45473 16.5307 2.50951 16.6239" fill="#FFA900"/>
<path d="M2.43642 16.7317C2.43642 16.7633 2.45548 16.7792 2.43642 16.7855C2.41736 16.7919 2.40783 16.8077 2.39513 16.8045C2.38364 16.7905 2.375 16.7743 2.36971 16.757C2.32938 16.6468 2.29856 16.5334 2.27759 16.418C2.27759 16.418 2.27759 16.38 2.27759 16.3673H2.303C2.303 16.3673 2.303 16.3673 2.303 16.4148C2.33052 16.5231 2.36664 16.6291 2.41101 16.7317" fill="#FFA900"/>
<path d="M3.24028 14.4696C3.25727 14.4599 3.27542 14.4525 3.29428 14.4474C3.30339 14.4485 3.31204 14.452 3.31931 14.4575C3.32658 14.4631 3.3322 14.4706 3.33558 14.4791C3.33558 14.4791 3.33558 14.4981 3.29428 14.5139C3.18935 14.5642 3.09028 14.6258 2.99885 14.6977L2.95438 14.723C2.94505 14.7097 2.93169 14.6997 2.91626 14.6945C2.92647 14.6825 2.93822 14.6718 2.9512 14.6628C3.04095 14.5891 3.13778 14.5243 3.24028 14.4696Z" fill="#FFA900"/>
<path d="M3.30696 14.5392C3.33555 14.5392 3.35143 14.5392 3.35778 14.5392C3.36971 14.5773 3.37717 14.6166 3.38002 14.6564C3.38002 14.6564 3.38002 14.6818 3.33555 14.6976C3.22528 14.7386 3.11895 14.7895 3.01788 14.8497C2.98929 14.8497 2.97658 14.8687 2.97341 14.8497C2.97166 14.8183 2.96524 14.7873 2.95435 14.7578C2.95435 14.7578 2.95435 14.7356 2.99564 14.7166C3.089 14.6468 3.18902 14.5863 3.29425 14.536" fill="#FFA900"/>
<path d="M3.33865 14.7421C3.36724 14.7421 3.38312 14.7421 3.3863 14.7421C3.38948 14.8054 3.38948 14.8688 3.3863 14.9322C3.3863 14.9512 3.36724 14.967 3.33548 14.9765C3.22733 15.0042 3.1212 15.0391 3.01781 15.0811C2.99239 15.0811 2.97969 15.0811 2.97651 15.0811C2.97333 15.0811 2.97651 14.9765 2.97651 14.9353C2.97651 14.8941 2.97651 14.9036 3.01781 14.8878C3.11911 14.8307 3.22544 14.783 3.33548 14.7452" fill="#FFA900"/>
<path d="M3.33236 15.0588C3.36095 15.0588 3.37683 15.0588 3.37683 15.0842C3.37683 15.1634 3.37683 15.2489 3.35142 15.3408C3.35142 15.3662 3.32918 15.3788 3.29742 15.3852C3.19259 15.3852 3.09411 15.4042 2.99881 15.4169C2.9734 15.4169 2.96387 15.4169 2.96387 15.3947C2.96387 15.3218 2.96387 15.2553 2.98293 15.1951C2.98584 15.1845 2.99148 15.1748 2.99927 15.167C3.00707 15.1592 3.01676 15.1536 3.0274 15.1507C3.13126 15.1135 3.23736 15.0828 3.34507 15.0588" fill="#FFA900"/>
<path d="M3.28476 15.4802C3.31335 15.4802 3.32606 15.4802 3.32606 15.5214L3.27841 15.8034C3.2754 15.8149 3.26819 15.8248 3.2582 15.8313C3.2482 15.8377 3.23615 15.8402 3.22441 15.8382L2.93851 15.7939C2.91309 15.7939 2.90356 15.7749 2.90356 15.7559C2.92051 15.6819 2.93321 15.6091 2.94169 15.5373C2.94443 15.5266 2.95056 15.5172 2.95915 15.5103C2.96774 15.5035 2.97834 15.4996 2.98933 15.4992C3.08252 15.4992 3.18099 15.4929 3.28476 15.4802Z" fill="#FFA900"/>
<path d="M3.20202 15.9365C3.20788 15.9372 3.21353 15.9392 3.21864 15.9422C3.22375 15.9451 3.2282 15.9491 3.23175 15.9538C3.2353 15.9585 3.23787 15.9639 3.23931 15.9696C3.24075 15.9754 3.24103 15.9813 3.24013 15.9872C3.22107 16.079 3.19884 16.1709 3.1766 16.2596C3.1766 16.2818 3.15119 16.2881 3.1226 16.2818C3.0273 16.2406 2.93835 16.2026 2.85576 16.1614C2.84604 16.1573 2.83795 16.1501 2.83278 16.1409C2.8276 16.1318 2.82563 16.1211 2.82717 16.1107L2.87482 15.8984C2.87482 15.8794 2.89705 15.8731 2.92247 15.8763L3.20202 15.9365Z" fill="#FFA900"/>
<path d="M3.10681 16.3705C3.11788 16.3758 3.12695 16.3845 3.13267 16.3954C3.1384 16.4062 3.14047 16.4186 3.13857 16.4307C3.11316 16.5131 3.09093 16.5955 3.06551 16.6715C3.06551 16.6905 3.0401 16.6937 3.01468 16.6715C2.92795 16.6149 2.84517 16.5524 2.7669 16.4846C2.74467 16.4624 2.73831 16.4466 2.74149 16.4275C2.74467 16.4085 2.77961 16.304 2.79867 16.2375C2.79867 16.2375 2.81773 16.2184 2.84314 16.2375C2.92864 16.2873 3.01664 16.3328 3.10681 16.3737" fill="#FFA900"/>
<path d="M2.97972 16.7539C2.9902 16.7599 2.99876 16.7688 3.00439 16.7794C3.01001 16.7901 3.01248 16.8021 3.01148 16.8141C2.98607 16.8838 2.96066 16.9504 2.93525 17.0074C2.90983 17.0644 2.90983 17.0074 2.88442 17.0074C2.80269 16.9324 2.72726 16.8508 2.65887 16.7634C2.65116 16.7555 2.6452 16.7461 2.64137 16.7357C2.63754 16.7253 2.63593 16.7143 2.63664 16.7032C2.6557 16.6589 2.67793 16.6082 2.69699 16.5543C2.71605 16.5005 2.71605 16.5543 2.73829 16.5543C2.81367 16.6277 2.89436 16.6955 2.97972 16.7571" fill="#FFA900"/>
<path d="M2.85883 17.0485C2.88107 17.0738 2.8906 17.0928 2.88425 17.1087C2.86637 17.1464 2.84511 17.1825 2.82071 17.2164C2.82071 17.2164 2.7953 17.2164 2.77306 17.191C2.69692 17.1037 2.62788 17.0105 2.56658 16.9122C2.55175 16.8827 2.5454 16.8636 2.54752 16.8552C2.56837 16.8292 2.58547 16.8004 2.59834 16.7697C2.59834 16.7697 2.6174 16.7697 2.63646 16.795C2.70365 16.8843 2.77802 16.968 2.85883 17.0453" fill="#FFA900"/>
<path d="M2.74464 17.2322C2.7637 17.2576 2.77323 17.2734 2.77005 17.2797C2.75485 17.2955 2.73466 17.3056 2.71287 17.3083C2.69657 17.2973 2.68255 17.2833 2.67157 17.2671C2.59864 17.1775 2.5348 17.0809 2.48097 16.9788C2.47326 16.9635 2.46689 16.9476 2.46191 16.9312C2.47048 16.9309 2.47888 16.9288 2.48655 16.9249C2.49422 16.9211 2.50098 16.9157 2.50639 16.9091C2.50639 16.9091 2.50639 16.9091 2.54133 16.9471C2.5996 17.0485 2.6677 17.144 2.74464 17.2322Z" fill="#FFA900"/>
<path d="M3.78032 14.2826H3.84385C3.85449 14.2851 3.8645 14.2898 3.87325 14.2963C3.88199 14.3028 3.88929 14.3111 3.89468 14.3206C3.89468 14.3206 3.89468 14.3206 3.84703 14.3396C3.73148 14.3598 3.6178 14.3895 3.50713 14.4283C3.48834 14.4329 3.46873 14.4329 3.44995 14.4283C3.44995 14.4062 3.42136 14.3935 3.40547 14.3935C3.38959 14.3935 3.40547 14.3935 3.44677 14.3713C3.55507 14.3311 3.66668 14.3003 3.78032 14.2794" fill="#FFA900"/>
<path d="M3.86289 14.3682C3.89466 14.3682 3.91372 14.3682 3.92007 14.3682C3.93455 14.4135 3.94414 14.4602 3.94867 14.5076C3.94867 14.5076 3.92961 14.5329 3.89466 14.5393C3.77761 14.5519 3.6618 14.5742 3.5484 14.6058C3.51981 14.6058 3.50076 14.6058 3.49758 14.6058C3.49312 14.5641 3.48569 14.5228 3.47534 14.4822C3.47534 14.4822 3.47534 14.4632 3.51982 14.4505C3.6312 14.4119 3.74611 14.3844 3.86289 14.3682Z" fill="#FFA900"/>
<path d="M3.90099 14.6089C3.93276 14.6089 3.95182 14.6089 3.95499 14.6342C3.95499 14.7018 3.95499 14.7779 3.95499 14.8623C3.95499 14.8845 3.93276 14.8972 3.89781 14.9004C3.78183 14.9055 3.66624 14.9172 3.55156 14.9352C3.52297 14.9352 3.50391 14.9352 3.50391 14.913C3.50391 14.837 3.50391 14.7705 3.50391 14.7134C3.50391 14.6944 3.52297 14.6818 3.55473 14.6723C3.66849 14.6429 3.7842 14.6218 3.90099 14.6089Z" fill="#FFA900"/>
<path d="M3.8915 14.9955C3.92644 14.9955 3.94232 14.9955 3.94232 15.0367C3.94232 15.1286 3.94232 15.2299 3.91056 15.3535C3.90823 15.3666 3.90109 15.3785 3.89053 15.3867C3.87996 15.3949 3.86672 15.3988 3.85338 15.3979H3.51029C3.4817 15.3979 3.46582 15.3979 3.46582 15.3567C3.46582 15.2616 3.48806 15.1697 3.49441 15.0874C3.49441 15.0652 3.51665 15.0493 3.54841 15.043C3.66203 15.0265 3.77668 15.018 3.8915 15.0177" fill="#FFA900"/>
<path d="M3.83743 15.5023C3.84399 15.5027 3.8504 15.5044 3.85625 15.5074C3.86211 15.5104 3.86729 15.5145 3.87147 15.5196C3.87565 15.5246 3.87873 15.5305 3.88052 15.5368C3.88232 15.5431 3.88279 15.5497 3.8819 15.5562L3.82472 15.892C3.821 15.9054 3.81248 15.917 3.80078 15.9246C3.78907 15.9322 3.77499 15.9353 3.76119 15.9332L3.44352 15.873C3.43733 15.8723 3.43137 15.8703 3.42601 15.8671C3.42066 15.8639 3.41603 15.8596 3.41244 15.8545C3.40884 15.8495 3.40636 15.8437 3.40515 15.8376C3.40393 15.8315 3.40402 15.8252 3.4054 15.8192C3.4054 15.7209 3.44034 15.6227 3.45623 15.5245C3.45854 15.5122 3.46534 15.5012 3.47531 15.4936C3.48528 15.486 3.49772 15.4823 3.51023 15.4833C3.62485 15.4835 3.73938 15.4898 3.85331 15.5023" fill="#FFA900"/>
<path d="M3.74205 16.0505C3.75525 16.0536 3.76682 16.0614 3.77447 16.0726C3.78212 16.0837 3.78529 16.0974 3.78335 16.1107L3.70711 16.4276C3.70535 16.434 3.70224 16.44 3.69799 16.4452C3.69374 16.4504 3.68844 16.4546 3.68245 16.4576C3.67645 16.4606 3.66989 16.4623 3.66319 16.4625C3.65649 16.4628 3.64981 16.4617 3.64358 16.4592C3.53239 16.4244 3.42439 16.3895 3.32591 16.3515C3.3133 16.3478 3.30247 16.3397 3.29545 16.3286C3.28844 16.3175 3.28571 16.3043 3.28779 16.2913C3.3132 16.2005 3.33544 16.1054 3.3545 16.0062C3.35817 15.9944 3.366 15.9844 3.37651 15.978C3.38703 15.9716 3.39953 15.9692 3.41168 15.9713L3.72935 16.0442" fill="#FFA900"/>
<path d="M3.61189 16.5733C3.61868 16.5748 3.62509 16.5776 3.63073 16.5816C3.63637 16.5857 3.64113 16.5908 3.6447 16.5967C3.64827 16.6027 3.65059 16.6093 3.6515 16.6161C3.65242 16.623 3.65191 16.63 3.65002 16.6367C3.62143 16.738 3.59284 16.8331 3.56425 16.925C3.56425 16.9471 3.53248 16.9535 3.50071 16.944C3.3927 16.8965 3.29105 16.8458 3.18304 16.7919C3.15763 16.7729 3.14492 16.7539 3.15128 16.7317C3.17669 16.6493 3.2021 16.5638 3.22752 16.4751C3.22752 16.4529 3.25293 16.4466 3.28152 16.4561C3.38318 16.4972 3.49118 16.5353 3.59919 16.5733" fill="#FFA900"/>
<path d="M3.47227 17.0485C3.48394 17.0533 3.49369 17.0618 3.50001 17.0727C3.50633 17.0836 3.50886 17.0963 3.50722 17.1087C3.47545 17.1911 3.44686 17.2671 3.41509 17.3368C3.41509 17.3368 3.3865 17.3558 3.35473 17.3368C3.25102 17.2832 3.15218 17.2206 3.0593 17.1499C3.03389 17.1309 3.02436 17.1119 3.03071 17.0929C3.05613 17.0327 3.08154 16.963 3.11013 16.8901C3.11013 16.8711 3.13554 16.8711 3.16413 16.8901C3.26578 16.9519 3.37197 17.0059 3.4818 17.0517" fill="#FFA900"/>
<path d="M3.32274 17.3938C3.35133 17.4128 3.36404 17.4287 3.35769 17.4477C3.33508 17.4926 3.30961 17.5359 3.28145 17.5776C3.28145 17.5776 3.24968 17.5776 3.22109 17.5776C3.12091 17.5151 3.02632 17.444 2.93837 17.3653C2.91613 17.3431 2.9066 17.3273 2.90978 17.3146C2.93475 17.2783 2.95705 17.2401 2.97649 17.2006C2.97649 17.2006 3.00508 17.2006 3.03049 17.2006C3.12266 17.2726 3.22038 17.3372 3.32274 17.3938Z" fill="#FFA900"/>
<path d="M3.18614 17.6125C3.21156 17.6125 3.22426 17.641 3.21791 17.6505C3.20064 17.6693 3.17672 17.6807 3.1512 17.6822C3.13135 17.6767 3.11293 17.667 3.0972 17.6537C2.99862 17.5907 2.90704 17.5174 2.824 17.4351C2.824 17.4351 2.79541 17.4066 2.79541 17.4002C2.81832 17.3983 2.83976 17.3882 2.85577 17.3717C2.85577 17.3717 2.878 17.3717 2.90342 17.3971C2.99072 17.4775 3.08537 17.5496 3.18614 17.6125Z" fill="#FFA900"/>
<path d="M4.02789 14.2573H4.15813C4.2439 14.2573 4.35508 14.2763 4.44085 14.289C4.46259 14.2955 4.48087 14.3103 4.49168 14.3302C4.47597 14.3335 4.45974 14.3335 4.44403 14.3302C4.32433 14.3108 4.20312 14.3024 4.08189 14.3048C4.04695 14.3048 4.02789 14.3048 4.02153 14.3048C4.01598 14.2946 4.00829 14.2856 3.99898 14.2785C3.98967 14.2714 3.97895 14.2663 3.96753 14.2637H4.02789" fill="#FFA900"/>
<path d="M4.45984 14.3713C4.49161 14.3713 4.51385 14.3713 4.5202 14.3967C4.53184 14.4446 4.54033 14.4933 4.54561 14.5424C4.54561 14.5424 4.54561 14.5646 4.49479 14.5614C4.37433 14.5393 4.2519 14.5298 4.12947 14.5329C4.0977 14.5329 4.07864 14.5329 4.07547 14.5044C4.0706 14.4571 4.06102 14.4104 4.04688 14.365C4.04688 14.365 4.06276 14.365 4.09453 14.346C4.21685 14.3419 4.33927 14.3504 4.45984 14.3713Z" fill="#FFA900"/>
<path d="M4.50135 14.6311C4.53312 14.6311 4.55218 14.6501 4.55536 14.6722C4.55536 14.7419 4.55536 14.8243 4.55536 14.913C4.55536 14.9352 4.53312 14.9447 4.49817 14.9415C4.37757 14.9195 4.25543 14.9068 4.13286 14.9035C4.10109 14.9035 4.08203 14.8845 4.08203 14.8623C4.08203 14.7768 4.08203 14.6976 4.08203 14.6279C4.08203 14.6089 4.10109 14.5994 4.13603 14.5994C4.25851 14.599 4.38077 14.6096 4.50135 14.6311Z" fill="#FFA900"/>
<path d="M4.49186 15.0429C4.52363 15.0429 4.54269 15.0683 4.54269 15.0968C4.54269 15.1982 4.52363 15.3059 4.51092 15.4136C4.50787 15.4274 4.4995 15.4395 4.48761 15.4472C4.47573 15.4549 4.46128 15.4576 4.44739 15.4548C4.32668 15.4326 4.20596 15.4136 4.08525 15.401C4.05348 15.401 4.0376 15.3756 4.0376 15.3439C4.0376 15.233 4.06301 15.1285 4.06936 15.0271C4.07236 15.0145 4.07979 15.0035 4.09028 14.9959C4.10078 14.9884 4.11365 14.9848 4.12654 14.9859C4.24915 14.9929 4.37117 15.0077 4.49186 15.0303" fill="#FFA900"/>
<path d="M4.43141 15.5847C4.44569 15.5878 4.45839 15.5958 4.46715 15.6075C4.47591 15.6192 4.48014 15.6336 4.47906 15.6481C4.46 15.7685 4.43776 15.8857 4.41552 16.0061C4.41247 16.0199 4.4041 16.032 4.39222 16.0397C4.38033 16.0474 4.36588 16.0501 4.35199 16.0473L3.98985 15.9744C3.98312 15.9733 3.97669 15.9708 3.97094 15.9672C3.96519 15.9635 3.96024 15.9587 3.95639 15.9531C3.95253 15.9475 3.94986 15.9411 3.94851 15.9345C3.94716 15.9278 3.94718 15.9209 3.94855 15.9142C3.96973 15.8002 3.98879 15.6861 4.00573 15.5721C4.00688 15.5649 4.00945 15.5581 4.01329 15.552C4.01713 15.5459 4.02216 15.5406 4.02809 15.5365C4.03401 15.5323 4.04071 15.5294 4.04778 15.5279C4.05486 15.5264 4.06216 15.5263 4.06927 15.5277L4.43141 15.5847Z" fill="#FFA900"/>
<path d="M4.32669 16.1709C4.33388 16.1724 4.34069 16.1753 4.34671 16.1795C4.35273 16.1837 4.35783 16.1891 4.3617 16.1953C4.36556 16.2015 4.36811 16.2085 4.36919 16.2157C4.37028 16.223 4.36986 16.2304 4.36799 16.2375C4.34575 16.3515 4.31716 16.4687 4.28857 16.5796C4.28417 16.5931 4.2749 16.6045 4.26257 16.6115C4.25024 16.6185 4.23573 16.6207 4.22186 16.6176C4.10115 16.5923 3.98043 16.5606 3.86607 16.5289C3.85934 16.5278 3.85291 16.5253 3.84716 16.5217C3.84141 16.518 3.83646 16.5132 3.83261 16.5076C3.82876 16.502 3.82607 16.4956 3.82473 16.489C3.82338 16.4823 3.8234 16.4754 3.82477 16.4687C3.85231 16.361 3.87772 16.2554 3.90101 16.1519C3.90541 16.1384 3.91468 16.1271 3.92701 16.1201C3.93934 16.113 3.95386 16.1108 3.96772 16.1139L4.32669 16.1868" fill="#FFA900"/>
<path d="M4.19014 16.7316C4.22509 16.7316 4.23779 16.7602 4.23144 16.7918C4.20285 16.8964 4.17426 16.9978 4.14249 17.1087C4.1359 17.1208 4.12551 17.1305 4.11289 17.1362C4.10027 17.142 4.08612 17.1434 4.07261 17.1404C3.95189 17.1118 3.83435 17.077 3.71999 17.039C3.6914 17.039 3.6787 17.0041 3.68187 16.9788C3.71364 16.8837 3.74223 16.7855 3.77082 16.6841C3.77516 16.6716 3.78424 16.6613 3.79612 16.6554C3.80799 16.6495 3.82171 16.6484 3.83435 16.6524C3.95189 16.6873 4.06943 16.7158 4.19014 16.7443" fill="#FFA900"/>
<path d="M4.04088 17.2291C4.07265 17.2291 4.08535 17.2544 4.079 17.2798C4.04723 17.3685 4.01547 17.4508 3.9837 17.5206C3.95193 17.5903 3.94876 17.5491 3.91699 17.5427C3.79745 17.5148 3.68054 17.4766 3.56755 17.4287C3.53896 17.4287 3.52626 17.397 3.53261 17.378C3.5612 17.3083 3.59297 17.2291 3.62473 17.1435C3.62473 17.1213 3.6565 17.115 3.68827 17.1245C3.80372 17.166 3.92144 17.2009 4.04088 17.2291Z" fill="#FFA900"/>
<path d="M3.88213 17.6125C3.9139 17.6125 3.9266 17.6347 3.92343 17.6537C3.89947 17.7012 3.87186 17.7467 3.84083 17.7899C3.83028 17.7944 3.81894 17.7966 3.80748 17.7966C3.79602 17.7966 3.78468 17.7944 3.77412 17.7899C3.65476 17.7641 3.53785 17.728 3.42469 17.6822C3.3961 17.6822 3.38657 17.6537 3.38974 17.641V17.6252C3.41856 17.5839 3.44405 17.5405 3.46598 17.4953C3.46598 17.4953 3.49775 17.4763 3.52952 17.4953C3.64141 17.5432 3.75727 17.5814 3.87577 17.6093" fill="#FFA900"/>
<path d="M3.74212 17.8437C3.77071 17.8437 3.78342 17.8437 3.78659 17.8659C3.7667 17.8851 3.74105 17.8974 3.71353 17.9007H3.65C3.53296 17.8706 3.41913 17.8292 3.31009 17.7772L3.27197 17.755C3.29752 17.7512 3.32103 17.7389 3.33868 17.7201C3.35834 17.7141 3.37939 17.7141 3.39904 17.7201C3.50929 17.7711 3.62418 17.8114 3.74212 17.8405" fill="#FFA900"/>
<path d="M4.69492 14.3618C4.78873 14.3942 4.87916 14.4356 4.96494 14.4854L5.01259 14.5139C5.02541 14.522 5.03627 14.5328 5.04435 14.5456C5.03159 14.5375 5.02076 14.5267 5.01259 14.5139C4.91106 14.459 4.80473 14.4134 4.69492 14.3777C4.6729 14.3729 4.65226 14.3631 4.63456 14.3492C4.62953 14.34 4.62272 14.3319 4.61455 14.3254C4.60637 14.3189 4.59698 14.314 4.58691 14.3112L4.72033 14.3492" fill="#FFA900"/>
<path d="M5.01302 14.5582C5.03281 14.568 5.05017 14.5821 5.06385 14.5994C5.078 14.6448 5.08757 14.6915 5.09244 14.7388C5.09244 14.7547 5.09244 14.7547 5.04797 14.7388C4.94648 14.6863 4.84008 14.6439 4.7303 14.6121C4.69853 14.6121 4.67947 14.5867 4.6763 14.5709C4.67164 14.5205 4.66206 14.4706 4.64771 14.422C4.64771 14.422 4.66359 14.422 4.69536 14.422C4.80515 14.4564 4.91149 14.501 5.01302 14.5551" fill="#FFA900"/>
<path d="M5.06381 14.8085C5.07486 14.8135 5.0846 14.821 5.09231 14.8303C5.10002 14.8396 5.10549 14.8506 5.10828 14.8624C5.10828 14.93 5.10828 15.006 5.10828 15.0905C5.10828 15.1137 5.0924 15.1201 5.06063 15.1095C4.95747 15.0643 4.85134 15.0262 4.74297 14.9954C4.7112 14.9954 4.69532 14.9669 4.69214 14.9416C4.69214 14.8529 4.69214 14.7705 4.69214 14.7008C4.69214 14.6818 4.71438 14.6755 4.74614 14.7008C4.85548 14.7326 4.96179 14.7739 5.06381 14.8244" fill="#FFA900"/>
<path d="M5.05411 15.2046C5.06638 15.2092 5.07693 15.2174 5.08432 15.2282C5.09171 15.239 5.09558 15.2518 5.09541 15.2648C5.09541 15.3599 5.07953 15.4644 5.06364 15.5817C5.06364 15.6102 5.04141 15.6229 5.01282 15.6165C4.91116 15.5817 4.79998 15.55 4.69515 15.5215C4.6812 15.5172 4.66916 15.5082 4.66106 15.4961C4.65296 15.484 4.64929 15.4694 4.65068 15.4549C4.65068 15.3409 4.67609 15.2332 4.68244 15.1381C4.68244 15.1128 4.70786 15.1033 4.73962 15.1064C4.84763 15.137 4.95371 15.1741 5.05729 15.2173" fill="#FFA900"/>
<path d="M5.01283 15.7242C5.02528 15.73 5.03563 15.7395 5.04246 15.7514C5.04928 15.7633 5.05225 15.777 5.05095 15.7907C5.03189 15.9016 5.01283 16.0156 4.99059 16.1297C4.98985 16.1359 4.98783 16.1418 4.98464 16.1472C4.98145 16.1525 4.97717 16.1571 4.97207 16.1607C4.96698 16.1643 4.96119 16.1668 4.95508 16.168C4.94897 16.1692 4.94267 16.1691 4.93659 16.1677L4.61892 16.0948C4.60522 16.0912 4.59326 16.0828 4.58513 16.0712C4.577 16.0596 4.57322 16.0456 4.57445 16.0315C4.59986 15.9142 4.61892 15.7939 4.63798 15.6766C4.63912 15.6699 4.6416 15.6635 4.64528 15.6578C4.64896 15.652 4.65376 15.6471 4.65939 15.6433C4.66502 15.6394 4.67138 15.6367 4.67807 15.6354C4.68476 15.6341 4.69165 15.6341 4.69834 15.6354C4.8127 15.664 4.92388 15.6925 5.016 15.7242" fill="#FFA900"/>
<path d="M4.89515 16.2882C4.90153 16.2896 4.90754 16.2924 4.9128 16.2963C4.91807 16.3001 4.92248 16.3051 4.92576 16.3107C4.92903 16.3163 4.93111 16.3226 4.93186 16.3291C4.9326 16.3356 4.932 16.3421 4.93009 16.3484C4.90786 16.4593 4.88244 16.567 4.85385 16.6652C4.85085 16.6778 4.84343 16.6888 4.83294 16.6964C4.82244 16.704 4.80957 16.7075 4.79667 16.7064C4.68867 16.7064 4.5743 16.6779 4.45677 16.6557C4.45011 16.6546 4.44375 16.6521 4.43812 16.6484C4.43249 16.6447 4.42771 16.6399 4.42411 16.6342C4.42051 16.6285 4.41816 16.6221 4.41721 16.6154C4.41627 16.6088 4.41676 16.602 4.41865 16.5955C4.44406 16.4846 4.47265 16.3706 4.49806 16.2533C4.50111 16.2395 4.50949 16.2275 4.52137 16.2198C4.53326 16.2121 4.54771 16.2093 4.5616 16.2121L4.87927 16.2787" fill="#FFA900"/>
<path d="M4.76501 16.8267C4.77107 16.827 4.77698 16.8287 4.78234 16.8315C4.78769 16.8343 4.79236 16.8383 4.796 16.8432C4.79963 16.848 4.80216 16.8536 4.80339 16.8595C4.80463 16.8654 4.80453 16.8715 4.80313 16.8774C4.77454 16.9788 4.74595 17.077 4.71418 17.1689C4.70948 17.1808 4.7011 17.1909 4.69024 17.1978C4.67939 17.2046 4.66663 17.2078 4.65382 17.2069C4.53889 17.2039 4.42428 17.1934 4.31074 17.1752C4.27898 17.1752 4.26309 17.1499 4.26945 17.1246C4.30121 17.0263 4.33298 16.925 4.36157 16.8077C4.36532 16.7937 4.37432 16.7816 4.38673 16.7739C4.39913 16.7663 4.41399 16.7636 4.42828 16.7665C4.54582 16.7887 4.657 16.8046 4.76501 16.8141" fill="#FFA900"/>
<path d="M4.61899 17.302C4.65075 17.302 4.66028 17.302 4.6571 17.34C4.62534 17.4256 4.59675 17.5016 4.56498 17.5713C4.55797 17.5816 4.54845 17.5898 4.53733 17.5954C4.52622 17.6009 4.51387 17.6035 4.50145 17.603C4.38515 17.6123 4.26831 17.6123 4.15201 17.603C4.12025 17.603 4.10754 17.584 4.11389 17.5618C4.14566 17.4889 4.17743 17.4097 4.20919 17.321C4.21522 17.3091 4.22504 17.2995 4.23712 17.2938C4.24919 17.2881 4.26284 17.2865 4.2759 17.2893C4.38971 17.3046 4.50422 17.3141 4.61899 17.3179" fill="#FFA900"/>
<path d="M4.46967 17.6821C4.50144 17.6821 4.51097 17.6821 4.50779 17.7043C4.48586 17.7496 4.46037 17.793 4.43155 17.8342C4.41318 17.848 4.39098 17.8557 4.36802 17.8564C4.24968 17.8675 4.13056 17.8675 4.01223 17.8564C3.98046 17.8564 3.96776 17.8564 3.97093 17.8342C4.004 17.7856 4.03372 17.7348 4.05988 17.6821C4.05988 17.6631 4.09482 17.6568 4.12977 17.66C4.24605 17.6694 4.36291 17.6694 4.4792 17.66" fill="#FFA900"/>
<path d="M4.32636 17.8945C4.3486 17.8945 4.35813 17.8945 4.36766 17.8945C4.35091 17.9105 4.33 17.9214 4.3073 17.9262C4.24377 17.9262 4.158 17.9262 4.09446 17.9262H3.84351C3.87043 17.924 3.89547 17.9115 3.91339 17.8913C3.93527 17.8857 3.95823 17.8857 3.9801 17.8913C4.09844 17.9024 4.21756 17.9024 4.33589 17.8913" fill="#FFA900"/>
<path d="M5.22251 14.6469C5.3001 14.7049 5.37143 14.7707 5.43534 14.8434L5.47664 14.8846L5.44805 14.8561C5.37065 14.772 5.28438 14.6966 5.19074 14.6311C5.1731 14.6195 5.15707 14.6057 5.14309 14.5899C5.13628 14.5791 5.12769 14.5694 5.11768 14.5614L5.21297 14.6311" fill="#FFA900"/>
<path d="M5.47023 14.9005C5.48475 14.916 5.49753 14.9329 5.50835 14.9512C5.51877 14.9896 5.5262 15.0288 5.53059 15.0684C5.53059 15.0684 5.53059 15.0684 5.49882 15.0684C5.4223 14.9925 5.33821 14.9245 5.24787 14.8656C5.22245 14.8466 5.20657 14.8308 5.20339 14.8118C5.19946 14.7656 5.19095 14.72 5.17798 14.6755C5.17798 14.6755 5.17798 14.6755 5.2161 14.6755C5.30798 14.7409 5.39312 14.8152 5.47023 14.8973" fill="#FFA900"/>
<path d="M5.50197 15.1127C5.52108 15.1274 5.53363 15.1491 5.53691 15.1729C5.53691 15.2299 5.53691 15.2933 5.53691 15.3662C5.53691 15.3662 5.53691 15.3852 5.50197 15.3662C5.42314 15.3034 5.33919 15.2472 5.25101 15.1983C5.2398 15.1923 5.23019 15.1837 5.223 15.1732C5.21582 15.1627 5.21126 15.1507 5.20972 15.1381C5.20972 15.0557 5.20972 14.9828 5.20972 14.9163C5.20972 14.9163 5.2256 14.8973 5.25101 14.9163C5.33886 14.9749 5.42174 15.0406 5.49879 15.1127" fill="#FFA900"/>
<path d="M5.49571 15.4643C5.50557 15.4717 5.51358 15.4813 5.51909 15.4923C5.5246 15.5033 5.52748 15.5154 5.52748 15.5277C5.52748 15.6069 5.51159 15.6924 5.50206 15.7875C5.50206 15.8097 5.483 15.8192 5.46077 15.8097C5.37819 15.7652 5.29337 15.725 5.20663 15.6893C5.19418 15.6835 5.18383 15.6739 5.177 15.662C5.17018 15.6501 5.16721 15.6364 5.16851 15.6227C5.16851 15.5182 5.19392 15.4168 5.20028 15.3249C5.20028 15.3027 5.21934 15.2964 5.24475 15.3059C5.33241 15.3521 5.41631 15.4051 5.49571 15.4643Z" fill="#FFA900"/>
<path d="M5.44821 15.8984C5.45812 15.9046 5.46587 15.9138 5.47042 15.9245C5.47496 15.9353 5.47608 15.9472 5.47363 15.9586C5.46092 16.0537 5.44504 16.1487 5.42598 16.2437C5.42598 16.2691 5.40374 16.2818 5.3815 16.2786L5.11784 16.2152C5.10542 16.2115 5.09488 16.2032 5.08838 16.1921C5.08189 16.1809 5.07992 16.1676 5.0829 16.155L5.14008 15.8382C5.14008 15.8097 5.16231 15.797 5.1909 15.8034C5.28303 15.8382 5.3688 15.8731 5.44821 15.9111" fill="#FFA900"/>
<path d="M5.3591 16.38C5.36918 16.3836 5.37763 16.3907 5.38289 16.4C5.38814 16.4093 5.38984 16.4202 5.38769 16.4307C5.36863 16.5257 5.34639 16.6176 5.32416 16.7063C5.32114 16.7171 5.31501 16.7267 5.30654 16.7341C5.29806 16.7414 5.28762 16.7461 5.2765 16.7475C5.19073 16.7475 5.09861 16.7475 4.99696 16.7475C4.97154 16.7475 4.96201 16.7285 4.96519 16.7C4.9906 16.5954 5.01602 16.4877 5.03825 16.3832C5.04058 16.3711 5.0475 16.3604 5.05757 16.3533C5.06764 16.3462 5.08007 16.3433 5.09226 16.3452L5.3591 16.3958" fill="#FFA900"/>
<path d="M5.25102 16.8427C5.27326 16.8427 5.28279 16.8427 5.27644 16.8807C5.2542 16.9662 5.22878 17.0486 5.20337 17.1246C5.1991 17.1356 5.19225 17.1453 5.18341 17.153C5.17456 17.1607 5.16397 17.1662 5.15255 17.169C5.05618 17.1887 4.9585 17.2014 4.86029 17.207C4.83488 17.207 4.82217 17.207 4.82852 17.169C4.85711 17.0771 4.8857 16.9852 4.91112 16.8838C4.91606 16.8719 4.92441 16.8616 4.93513 16.8543C4.94586 16.8469 4.95849 16.8429 4.97148 16.8427C5.06455 16.849 5.15795 16.849 5.25102 16.8427Z" fill="#FFA900"/>
<path d="M5.12408 17.2512C5.14949 17.2512 5.15902 17.2512 5.15585 17.2702C5.13297 17.3371 5.10646 17.4027 5.07643 17.4667C5.06412 17.4865 5.04489 17.5012 5.02243 17.5079C4.91956 17.5444 4.81306 17.5699 4.70476 17.5839C4.67617 17.5839 4.66346 17.5839 4.66982 17.5585C4.67617 17.5332 4.73017 17.416 4.75876 17.3368C4.76371 17.3248 4.77206 17.3145 4.78278 17.3072C4.7935 17.2999 4.80613 17.2958 4.81912 17.2956C4.91747 17.2877 5.01513 17.2729 5.11137 17.2512" fill="#FFA900"/>
<path d="M5.01286 17.5681C5.04463 17.5681 5.04781 17.5681 5.04463 17.5681C5.02597 17.6071 5.00363 17.6442 4.97792 17.679C4.96096 17.6937 4.94163 17.7055 4.92074 17.7139C4.81823 17.7574 4.71188 17.7913 4.60307 17.8152C4.56177 17.8152 4.56177 17.8152 4.56495 17.8152C4.59384 17.7752 4.61934 17.7328 4.64119 17.6885C4.64887 17.6787 4.65846 17.6706 4.66938 17.6646C4.6803 17.6586 4.69232 17.6549 4.70472 17.6537C4.81294 17.6376 4.91933 17.6111 5.02239 17.5745" fill="#FFA900"/>
<path d="M4.87295 17.7582H4.91107L4.87931 17.7835L4.67282 17.8659C4.60293 17.8881 4.50763 17.9134 4.43457 17.9293C4.45474 17.9229 4.47321 17.9121 4.48857 17.8976L4.55211 17.8754C4.66127 17.8528 4.76775 17.8188 4.86978 17.774" fill="#FFA900"/>
<path d="M5.61944 15.0683L5.71791 15.2363C5.68259 15.1689 5.64224 15.1043 5.5972 15.043L5.56226 14.9923L5.62579 15.0747" fill="#FFA900"/>
<path d="M5.77506 15.3535L5.80048 15.4105C5.80048 15.4327 5.80048 15.4612 5.80048 15.496C5.7995 15.4865 5.7995 15.477 5.80048 15.4675C5.75845 15.3771 5.70736 15.2911 5.648 15.2109C5.63521 15.1932 5.62454 15.174 5.61623 15.1539C5.61405 15.1153 5.60766 15.077 5.59717 15.0398L5.61941 15.0683C5.68355 15.1578 5.73887 15.2533 5.78459 15.3535" fill="#FFA900"/>
<path d="M5.8007 15.5119C5.81096 15.5294 5.81745 15.5488 5.81976 15.5689C5.82294 15.6164 5.82294 15.664 5.81976 15.7115C5.77185 15.6328 5.71422 15.5604 5.64822 15.4961C5.63101 15.4793 5.6208 15.4567 5.61963 15.4327C5.62282 15.3725 5.62282 15.3123 5.61963 15.2521C5.61963 15.2331 5.64186 15.2521 5.64822 15.2521C5.71097 15.3296 5.76528 15.4135 5.81023 15.5024" fill="#FFA900"/>
<path d="M5.79422 15.7622C5.8062 15.7788 5.81285 15.7987 5.81328 15.8192C5.81328 15.8763 5.81328 15.9396 5.79422 16.0062C5.79422 16.022 5.79422 16.0252 5.7688 16.0062C5.71806 15.9545 5.66157 15.9088 5.60044 15.8699C5.59205 15.863 5.58539 15.8543 5.58097 15.8444C5.57656 15.8345 5.57453 15.8237 5.57502 15.8129C5.57502 15.7242 5.59726 15.6418 5.60044 15.5658C5.60044 15.5468 5.61632 15.5436 5.63221 15.5658C5.6941 15.6232 5.74853 15.6881 5.79422 15.759" fill="#FFA900"/>
<path d="M5.75931 16.0979C5.76505 16.1044 5.76943 16.1119 5.77216 16.1201C5.77489 16.1282 5.77592 16.1369 5.77519 16.1455C5.77519 16.2152 5.75295 16.2849 5.74025 16.3514C5.74025 16.3704 5.72436 16.3799 5.71166 16.3768L5.52741 16.3229C5.50835 16.3229 5.502 16.3007 5.50517 16.2754L5.55282 16.0029C5.55282 15.9807 5.55282 15.9712 5.58777 15.9807C5.6486 16.0142 5.70605 16.0534 5.75931 16.0979Z" fill="#FFA900"/>
<path d="M5.69592 16.4465C5.69592 16.4465 5.71498 16.4623 5.69592 16.4813C5.69592 16.5479 5.66732 16.6144 5.64826 16.6809C5.65273 16.6887 5.65508 16.6974 5.65508 16.7063C5.65508 16.7152 5.65273 16.7239 5.64826 16.7316C5.58244 16.746 5.51547 16.7544 5.44814 16.757C5.42908 16.757 5.41954 16.757 5.42272 16.7221C5.44496 16.6366 5.46719 16.5479 5.48625 16.4592C5.48625 16.437 5.50532 16.4243 5.52755 16.4275L5.7118 16.4623" fill="#FFA900"/>
<path d="M5.61311 16.7855C5.61311 16.7855 5.63535 16.7855 5.63217 16.8045C5.63217 16.8679 5.59723 16.9281 5.57817 16.982C5.57129 16.9999 5.5591 17.0154 5.54322 17.0263C5.47234 17.0659 5.39789 17.0988 5.32086 17.1245C5.29862 17.1245 5.29227 17.1245 5.29544 17.1024C5.31768 17.0295 5.3431 16.9503 5.36533 16.8711C5.36775 16.8605 5.37329 16.851 5.38122 16.8437C5.38915 16.8363 5.39911 16.8315 5.40981 16.8299C5.47885 16.8217 5.54694 16.8068 5.61311 16.7855Z" fill="#FFA900"/>
<path d="M5.52118 17.0865C5.54342 17.0707 5.5466 17.0865 5.54342 17.0865L5.48942 17.2259L5.44812 17.2734C5.37196 17.3332 5.29002 17.3852 5.20352 17.4287C5.17175 17.4445 5.17175 17.4287 5.17493 17.4287C5.20034 17.3748 5.22258 17.3115 5.24799 17.2449C5.25792 17.2248 5.27487 17.2091 5.29564 17.2006C5.3741 17.1706 5.44961 17.1335 5.52118 17.0897" fill="#FFA900"/>
<path d="M5.42586 17.3179H5.45127C5.43748 17.3465 5.42155 17.374 5.40362 17.4002L5.36233 17.4446C5.28086 17.5173 5.19257 17.582 5.09866 17.6379H5.06372C5.08657 17.6047 5.10675 17.5697 5.12408 17.5333C5.13732 17.5143 5.15621 17.4999 5.17808 17.4921C5.26562 17.4454 5.34767 17.3891 5.42268 17.3242" fill="#FFA900"/>
<path d="M5.33063 17.4604L5.35604 17.4351C5.30522 17.4794 5.23533 17.5396 5.18133 17.5808C5.12732 17.622 5.04791 17.6727 4.98755 17.7075L5.01296 17.6822L5.06697 17.6473C5.16028 17.593 5.24852 17.5304 5.33063 17.4604Z" fill="#FFA900"/>
<path d="M5.86743 15.6069C5.89479 15.711 5.91495 15.8169 5.92779 15.9237C5.91855 15.8301 5.89938 15.7377 5.87061 15.6481V15.591C5.87289 15.5647 5.87289 15.5382 5.87061 15.5118L5.89602 15.6006" fill="#FFA900"/>
<path d="M5.93085 15.9714C5.93085 15.9936 5.93085 16.0252 5.93085 16.0474V16.0981C5.93085 16.0981 5.93085 16.0981 5.93085 16.0759C5.9212 15.9968 5.90201 15.9192 5.87367 15.8447C5.87024 15.8269 5.87024 15.8086 5.87367 15.7908C5.87367 15.7433 5.87367 15.7021 5.87367 15.6641C5.87367 15.6641 5.87367 15.6641 5.87367 15.6926C5.90215 15.7844 5.9213 15.8789 5.93085 15.9746" fill="#FFA900"/>
<path d="M5.92795 16.0981C5.92899 16.1129 5.92899 16.1277 5.92795 16.1424V16.2407C5.91303 16.191 5.89053 16.144 5.86124 16.1013C5.85615 16.0858 5.85615 16.0692 5.86124 16.0537C5.86124 15.9935 5.86124 15.9365 5.86124 15.8858C5.88951 15.9538 5.90873 16.0251 5.91842 16.0981" fill="#FFA900"/>
<path d="M5.90854 16.2849C5.91011 16.2954 5.91011 16.3061 5.90854 16.3166L5.88948 16.4243C5.86194 16.4094 5.83326 16.3967 5.80371 16.3863C5.80371 16.3863 5.80371 16.3863 5.80371 16.3515C5.80371 16.3166 5.82912 16.2279 5.83865 16.1645C5.83865 16.1497 5.84501 16.1497 5.85772 16.1645C5.88833 16.1988 5.91205 16.2386 5.9276 16.2818" fill="#FFA900"/>
<path d="M5.87366 16.4782C5.87366 16.4782 5.87366 16.5479 5.85143 16.5796C5.84735 16.5898 5.84202 16.5993 5.83554 16.6081C5.8041 16.6345 5.76873 16.6559 5.73071 16.6715C5.73071 16.6715 5.73071 16.6715 5.73071 16.6525C5.73071 16.6335 5.76248 16.5321 5.77519 16.4719C5.78789 16.4117 5.77519 16.4466 5.79742 16.4466H5.88637" fill="#FFA900"/>
<path d="M5.82926 16.6588C5.82311 16.69 5.81462 16.7207 5.80385 16.7507L5.78479 16.7887C5.74844 16.8469 5.70345 16.8992 5.65137 16.944C5.66831 16.8933 5.68419 16.8394 5.69902 16.7824C5.7048 16.7681 5.71477 16.756 5.72761 16.7475C5.7706 16.7276 5.80859 16.6984 5.83879 16.662" fill="#FFA900"/>
<path d="M5.78146 16.8236C5.78146 16.8236 5.78146 16.8077 5.78146 16.8046C5.78146 16.8331 5.7624 16.8553 5.75287 16.8774C5.74702 16.894 5.73958 16.9099 5.73063 16.925C5.68616 17.0055 5.63289 17.081 5.5718 17.1499L5.54956 17.1689C5.54956 17.1309 5.5845 17.0897 5.60039 17.0422C5.60848 17.0258 5.61921 17.0108 5.63215 16.9978C5.6865 16.9488 5.73357 16.8922 5.77193 16.8299" fill="#FFA900"/>
<path d="M5.72752 16.9471C5.72856 16.9397 5.72856 16.9323 5.72752 16.9249L5.71163 16.9534C5.67666 17.0224 5.63741 17.089 5.5941 17.153L5.50833 17.2639V17.2861C5.50833 17.2861 5.48927 17.3083 5.47974 17.3146C5.49667 17.2917 5.51155 17.2673 5.52421 17.2418C5.53468 17.2251 5.54636 17.2092 5.55915 17.1942C5.62446 17.1226 5.68001 17.0427 5.72434 16.9566" fill="#FFA900"/>
<path d="M5.91817 16.3426C5.91676 16.332 5.91676 16.3213 5.91817 16.3107C5.9166 16.2916 5.9166 16.2724 5.91817 16.2533C5.91817 16.3075 5.91817 16.3171 5.91817 16.3522" fill="#FFA900"/>
<path d="M5.91484 16.3673V16.4152V16.4694C5.9138 16.4641 5.9138 16.4587 5.91484 16.4534C5.91484 16.4247 5.91484 16.3992 5.91484 16.3705" fill="#FFA900"/>
<path d="M5.896 16.4783V16.5038V16.5516V16.5708L5.91518 16.491" fill="#FFA900"/>
<path d="M5.8705 16.5828V16.6052C5.86549 16.6258 5.85908 16.646 5.85132 16.6658L5.8705 16.5956V16.5669" fill="#FFA900"/>
</svg>
