<svg width="46" height="50" viewBox="0 0 46 50" fill="none" xmlns="http://www.w3.org/2000/svg">
<path d="M13.3721 10.4651C12.4186 10.4651 11.6279 9.67442 11.6279 8.72093V1.74419C11.6279 0.790698 12.4186 0 13.3721 0C14.3256 0 15.1163 0.790698 15.1163 1.74419V8.72093C15.1163 9.67442 14.3256 10.4651 13.3721 10.4651Z" fill="#F58D91"/>
<path d="M31.9766 10.4651C31.0231 10.4651 30.2324 9.67442 30.2324 8.72093V1.74419C30.2324 0.790698 31.0231 0 31.9766 0C32.9301 0 33.7208 0.790698 33.7208 1.74419V8.72093C33.7208 9.67442 32.9301 10.4651 31.9766 10.4651Z" fill="#F58D91"/>
<path d="M14.5351 30.814C14.2327 30.814 13.9304 30.7443 13.6513 30.628C13.349 30.5117 13.1164 30.3489 12.8839 30.1396C12.4653 29.6977 12.2095 29.1163 12.2095 28.4884C12.2095 28.1861 12.2792 27.8838 12.3955 27.6047C12.5118 27.3257 12.6746 27.0698 12.8839 26.8373C13.1164 26.628 13.349 26.4652 13.6513 26.3489C14.4885 26.0001 15.5351 26.1861 16.1862 26.8373C16.6048 27.2791 16.8606 27.8838 16.8606 28.4884C16.8606 28.628 16.8374 28.7908 16.8141 28.9536C16.7909 29.0931 16.7444 29.2326 16.6746 29.3722C16.6281 29.5117 16.5583 29.6512 16.4653 29.7908C16.3955 29.907 16.2792 30.0233 16.1862 30.1396C15.7444 30.5582 15.1397 30.814 14.5351 30.814Z" fill="#F58D91"/>
<path d="M22.6742 30.8136C22.3719 30.8136 22.0696 30.7439 21.7905 30.6276C21.4882 30.5113 21.2556 30.3485 21.0231 30.1392C20.6044 29.6973 20.3486 29.1159 20.3486 28.488C20.3486 28.1857 20.4184 27.8834 20.5347 27.6043C20.651 27.3252 20.8137 27.0694 21.0231 26.8369C21.2556 26.6276 21.4882 26.4648 21.7905 26.3485C22.6277 25.9764 23.6742 26.1857 24.3254 26.8369C24.744 27.2787 24.9998 27.8834 24.9998 28.488C24.9998 28.6276 24.9765 28.7904 24.9533 28.9532C24.93 29.0927 24.8835 29.2322 24.8137 29.3718C24.7672 29.5113 24.6975 29.6508 24.6044 29.7904C24.5347 29.9066 24.4184 30.0229 24.3254 30.1392C23.8835 30.5578 23.2789 30.8136 22.6742 30.8136Z" fill="#F58D91"/>
<path d="M30.8139 30.8136C30.5115 30.8136 30.2092 30.7439 29.9301 30.6276C29.6278 30.5113 29.3953 30.3485 29.1627 30.1392C29.0697 30.0229 28.9767 29.9066 28.8836 29.7904C28.7906 29.6508 28.7208 29.5113 28.6743 29.3718C28.6046 29.2322 28.558 29.0927 28.5348 28.9532C28.5115 28.7904 28.4883 28.6276 28.4883 28.488C28.4883 27.8834 28.7441 27.2787 29.1627 26.8369C29.3953 26.6276 29.6278 26.4648 29.9301 26.3485C30.7906 25.9764 31.8139 26.1857 32.465 26.8369C32.8836 27.2787 33.1394 27.8834 33.1394 28.488C33.1394 28.6276 33.1162 28.7904 33.0929 28.9532C33.0697 29.0927 33.0232 29.2322 32.9534 29.3718C32.9069 29.5113 32.8371 29.6508 32.7441 29.7904C32.6743 29.9066 32.558 30.0229 32.465 30.1392C32.0232 30.5578 31.4185 30.8136 30.8139 30.8136Z" fill="#F58D91"/>
<path d="M14.5351 38.9534C14.2327 38.9534 13.9304 38.8839 13.6513 38.7676C13.3723 38.6513 13.1164 38.4883 12.8839 38.279C12.4653 37.8371 12.2095 37.2325 12.2095 36.6278C12.2095 36.3255 12.2792 36.0232 12.3955 35.7441C12.5118 35.4418 12.6746 35.1862 12.8839 34.9769C13.7444 34.1164 15.3258 34.1164 16.1862 34.9769C16.6048 35.4188 16.8606 36.0232 16.8606 36.6278C16.8606 37.2325 16.6048 37.8371 16.1862 38.279C15.7444 38.6976 15.1397 38.9534 14.5351 38.9534Z" fill="#F58D91"/>
<path d="M22.6742 38.9534C22.0696 38.9534 21.4649 38.6976 21.0231 38.279C20.6044 37.8371 20.3486 37.2325 20.3486 36.6278C20.3486 36.3255 20.4184 36.0232 20.5347 35.7441C20.651 35.4418 20.8137 35.1862 21.0231 34.9769C21.8835 34.1164 23.4649 34.1164 24.3254 34.9769C24.5347 35.1862 24.6975 35.4418 24.8137 35.7441C24.93 36.0232 24.9998 36.3255 24.9998 36.6278C24.9998 37.2325 24.744 37.8371 24.3254 38.279C23.8835 38.6976 23.2789 38.9534 22.6742 38.9534Z" fill="#F58D91"/>
<path d="M30.8139 38.953C30.2092 38.953 29.6046 38.6972 29.1627 38.2786C28.9534 38.0693 28.7906 37.8135 28.6743 37.5112C28.558 37.2321 28.4883 36.9298 28.4883 36.6274C28.4883 36.3251 28.558 36.0228 28.6743 35.7437C28.7906 35.4414 28.9534 35.1856 29.1627 34.9763C29.6976 34.4414 30.5115 34.1856 31.2557 34.3484C31.4185 34.3716 31.558 34.4181 31.6976 34.4879C31.8371 34.5344 31.9767 34.6042 32.1162 34.6972C32.2325 34.767 32.3487 34.8832 32.465 34.9763C32.8836 35.4181 33.1394 36.0228 33.1394 36.6274C33.1394 37.2321 32.8836 37.8367 32.465 38.2786C32.0232 38.6972 31.4185 38.953 30.8139 38.953Z" fill="#F58D91"/>
<path d="M42.4417 19.9762H2.90678C1.9533 19.9762 1.1626 19.1855 1.1626 18.232C1.1626 17.2785 1.9533 16.4878 2.90678 16.4878H42.4417C43.3952 16.4878 44.1859 17.2785 44.1859 18.232C44.1859 19.1855 43.3952 19.9762 42.4417 19.9762Z" fill="#F58D91"/>
<path d="M31.9767 49.9999H13.3721C4.88372 49.9999 0 45.1162 0 36.6278V16.8604C0 8.372 4.88372 3.48828 13.3721 3.48828H31.9767C40.4651 3.48828 45.3488 8.372 45.3488 16.8604V36.6278C45.3488 45.1162 40.4651 49.9999 31.9767 49.9999ZM13.3721 6.97665C6.72093 6.97665 3.48837 10.2092 3.48837 16.8604V36.6278C3.48837 43.279 6.72093 46.5115 13.3721 46.5115H31.9767C38.6279 46.5115 41.8605 43.279 41.8605 36.6278V16.8604C41.8605 10.2092 38.6279 6.97665 31.9767 6.97665H13.3721Z" fill="#F58D91"/>
</svg>
