<svg width="56" height="49" viewBox="0 0 56 49" fill="none" xmlns="http://www.w3.org/2000/svg">
<path fill-rule="evenodd" clip-rule="evenodd" d="M37.4276 41.2723L39.8119 45.2847C39.8571 45.3607 39.8864 45.4446 39.8982 45.5316C39.91 45.6186 39.904 45.707 39.8806 45.7918C39.8572 45.8766 39.8168 45.956 39.7618 46.0256C39.7068 46.0953 39.6382 46.1537 39.5599 46.1975C39.4817 46.2414 39.3953 46.2699 39.3057 46.2813C39.2161 46.2927 39.1251 46.2869 39.0378 46.2642C38.9506 46.2415 38.8687 46.2023 38.7971 46.1488C38.7254 46.0954 38.6653 46.0288 38.6201 45.9528L36.2341 41.9404C36.189 41.8643 36.1597 41.7803 36.148 41.6932C36.1362 41.6061 36.1423 41.5176 36.1657 41.4327C36.1892 41.3479 36.2297 41.2684 36.2848 41.1987C36.3399 41.1291 36.4086 41.0706 36.4869 41.0268C36.5653 40.9829 36.6518 40.9545 36.7415 40.9431C36.8311 40.9317 36.9223 40.9375 37.0096 40.9603C37.097 40.9831 37.1788 41.0224 37.2505 41.0759C37.3222 41.1295 37.3824 41.1962 37.4276 41.2723ZM18.3386 10.5514C18.3991 10.6532 18.4861 10.7377 18.591 10.7965C18.6958 10.8552 18.8147 10.8862 18.9357 10.8861C19.0565 10.8863 19.1751 10.8551 19.2793 10.7958C19.3576 10.752 19.4263 10.6937 19.4813 10.6241C19.5364 10.5545 19.5768 10.4751 19.6002 10.3903C19.6236 10.3055 19.6295 10.2171 19.6177 10.1301C19.6058 10.0431 19.5764 9.95924 19.5311 9.8833L15.947 3.85367C15.9026 3.77631 15.8427 3.7083 15.771 3.65359C15.6992 3.59888 15.617 3.55857 15.5291 3.53499C15.4412 3.51141 15.3493 3.50504 15.2588 3.51625C15.1683 3.52746 15.081 3.55602 15.002 3.60028C14.923 3.64453 14.8538 3.7036 14.7985 3.77404C14.7432 3.84449 14.7029 3.92491 14.6798 4.01063C14.6568 4.09635 14.6515 4.18567 14.6644 4.27338C14.6772 4.36109 14.7078 4.44546 14.7545 4.52158L18.3386 10.5514ZM48.2681 37.3441C48.3478 37.3872 48.4179 37.4453 48.4743 37.515C48.5306 37.5847 48.5722 37.6645 48.5965 37.75C48.6208 37.8354 48.6273 37.9246 48.6158 38.0126C48.6042 38.1005 48.5748 38.1853 48.5292 38.262C48.4836 38.3388 48.4227 38.4059 48.3501 38.4596C48.2776 38.5134 48.1947 38.5525 48.1064 38.5748C48.0181 38.5971 47.9261 38.6022 47.8358 38.5896C47.7455 38.5771 47.6586 38.5473 47.5803 38.5018L43.0349 35.9533C42.9552 35.9102 42.8851 35.8521 42.8287 35.7824C42.7724 35.7127 42.7308 35.6329 42.7065 35.5474C42.6822 35.462 42.6757 35.3728 42.6872 35.2849C42.6988 35.1969 42.7282 35.1122 42.7738 35.0354C42.8194 34.9586 42.8803 34.8915 42.9528 34.8378C43.0254 34.784 43.1083 34.7449 43.1966 34.7226C43.2849 34.7003 43.3769 34.6952 43.4672 34.7078C43.5575 34.7203 43.6444 34.7501 43.7227 34.7956L48.2681 37.3441ZM13.2159 35.0397C13.2612 35.1157 13.2905 35.1997 13.3023 35.2868C13.3142 35.3739 13.3082 35.4624 13.2848 35.5473C13.2614 35.6321 13.2209 35.7117 13.1659 35.7813C13.1108 35.851 13.0421 35.9095 12.9637 35.9533L8.41883 38.5018C8.3405 38.5473 8.25364 38.5771 8.16332 38.5896C8.073 38.6022 7.98101 38.5971 7.89271 38.5748C7.80441 38.5525 7.72156 38.5134 7.64898 38.4596C7.5764 38.4059 7.51553 38.3388 7.46993 38.262C7.42433 38.1853 7.3949 38.1005 7.38335 38.0126C7.3718 37.9246 7.37836 37.8354 7.40265 37.75C7.42695 37.6645 7.46849 37.5847 7.52485 37.515C7.58122 37.4453 7.6513 37.3872 7.731 37.3441L12.2759 34.7956C12.3541 34.7516 12.4405 34.723 12.5301 34.7115C12.6196 34.7 12.7107 34.7057 12.798 34.7284C12.8853 34.7511 12.9671 34.7902 13.0388 34.8436C13.1106 34.897 13.1707 34.9636 13.2159 35.0397ZM36.7196 10.7963C36.8238 10.8556 36.9425 10.8868 37.0632 10.8866C37.1843 10.8866 37.3033 10.8557 37.4082 10.7969C37.5131 10.7382 37.6002 10.6537 37.6609 10.5519L41.245 4.52209C41.2917 4.44597 41.3223 4.36161 41.3351 4.27389C41.3479 4.18618 41.3427 4.09687 41.3196 4.01114C41.2966 3.92542 41.2563 3.845 41.2009 3.77456C41.1456 3.70411 41.0765 3.64504 40.9974 3.60079C40.9184 3.55653 40.8311 3.52797 40.7407 3.51676C40.6502 3.50556 40.5583 3.51193 40.4704 3.5355C40.3825 3.55908 40.3002 3.59939 40.2285 3.6541C40.1567 3.70881 40.0969 3.77682 40.0525 3.85419L36.4684 9.88381C36.423 9.95972 36.3936 10.0436 36.3817 10.1305C36.3698 10.2175 36.3757 10.3059 36.3991 10.3907C36.4224 10.4755 36.4627 10.5549 36.5178 10.6245C36.5728 10.6941 36.6414 10.7525 36.7196 10.7963ZM19.5137 41.0272C19.6716 41.116 19.7868 41.262 19.834 41.4332C19.8812 41.6044 19.8565 41.7868 19.7653 41.9404L17.3799 45.9528C17.3195 46.0546 17.2325 46.1392 17.1277 46.198C17.0229 46.2568 16.904 46.2876 16.7829 46.2875C16.6623 46.2876 16.5438 46.2565 16.4397 46.1974C16.3614 46.1536 16.2926 46.0953 16.2375 46.0257C16.1824 45.9561 16.142 45.8767 16.1186 45.7919C16.0951 45.7071 16.0892 45.6186 16.101 45.5316C16.1128 45.4446 16.1423 45.3607 16.1876 45.2847L18.573 41.2723C18.6181 41.1962 18.6783 41.1294 18.75 41.0759C18.8217 41.0224 18.9036 40.9831 18.991 40.9603C19.0784 40.9376 19.1695 40.9318 19.2592 40.9432C19.3489 40.9547 19.4354 40.9832 19.5137 41.0272ZM27.3118 7.82536V0.668589C27.3118 0.491268 27.3843 0.321211 27.5134 0.195826C27.6425 0.0704407 27.8176 0 28.0002 0C28.1827 0 28.3578 0.0704407 28.4869 0.195826C28.616 0.321211 28.6885 0.491268 28.6885 0.668589V7.82536C28.6885 8.00268 28.616 8.17274 28.4869 8.29812C28.3578 8.42351 28.1827 8.49395 28.0002 8.49395C27.8176 8.49395 27.6425 8.42351 27.5134 8.29812C27.3843 8.17274 27.3118 8.00268 27.3118 7.82536ZM27.9996 43.1984C28.0901 43.1982 28.1796 43.2154 28.2632 43.2489C28.3468 43.2824 28.4227 43.3316 28.4867 43.3937C28.5507 43.4557 28.6014 43.5294 28.6361 43.6105C28.6707 43.6917 28.6885 43.7786 28.6885 43.8664V48.3314C28.6885 48.5087 28.616 48.6788 28.4869 48.8042C28.3578 48.9296 28.1827 49 28.0002 49C27.8176 49 27.6425 48.9296 27.5134 48.8042C27.3843 48.6788 27.3118 48.5087 27.3118 48.3314V43.8664C27.3118 43.7787 27.3296 43.6918 27.3641 43.6108C27.3987 43.5297 27.4493 43.456 27.5132 43.394C27.5771 43.332 27.6529 43.2827 27.7364 43.2492C27.8199 43.2156 27.9093 43.1983 27.9996 43.1984ZM48.0376 27.822L40.8048 13.6771C40.7145 13.4975 40.7008 13.2905 40.7668 13.1011C40.8327 12.9117 40.9729 12.7553 41.157 12.6658L47.6451 9.53574C47.7516 9.48409 47.8691 9.45716 47.9881 9.45707C48.1334 9.45704 48.2758 9.49643 48.3993 9.57081C48.5227 9.64518 48.6223 9.75157 48.6869 9.87799L55.919 24.0212C56.0106 24.2006 56.0251 24.4079 55.9595 24.5977C55.8938 24.7875 55.7533 24.9443 55.5688 25.0336L49.082 28.1618C48.8972 28.2511 48.6835 28.2655 48.4878 28.2018C48.292 28.138 48.1304 28.0014 48.0383 27.822H48.0376ZM43.4802 28.7658L46.1479 27.1339L40.2899 15.6757L39.2877 16.1472C39.1648 16.205 39.0271 16.226 38.892 16.2078L27.2861 14.6223C26.9802 14.5743 26.6673 14.5878 26.367 14.6619C26.0666 14.736 25.7851 14.8692 25.5399 15.0533L17.2281 21.0489C17.7647 22.4993 18.813 23.0329 21.0723 23.0115C21.2761 22.9549 22.1993 22.5535 26.1087 19.8181C26.2522 19.718 26.4298 19.6753 26.6048 19.6988C26.7798 19.7223 26.9388 19.8102 27.0489 19.9443C28.1076 21.2326 29.475 22.2493 31.0317 22.9058C32.5884 23.5622 34.2869 23.8384 35.9788 23.7101C36.1407 23.6976 36.3019 23.7413 36.4338 23.8334L43.4809 28.766L43.4802 28.7658ZM43.8852 32.6029C44.1317 32.2759 44.2349 31.8675 44.1722 31.4668C44.1095 31.0662 43.886 30.7059 43.5506 30.4649L35.8297 25.0601C34.0645 25.1572 32.2996 24.8664 30.6661 24.2095C29.0327 23.5525 27.5728 22.5463 26.395 21.2656C21.9674 24.3357 21.4643 24.3443 21.1278 24.3484C19.1907 24.3749 16.8451 24.0667 15.9079 21.4354C15.8167 21.1817 15.8115 20.9063 15.8931 20.6495C15.9747 20.3928 16.1389 20.1682 16.3615 20.0086L22.5369 15.5548C20.2751 15.2113 17.9694 15.2464 15.7197 15.6584L9.59323 27.639L10.0018 27.9347C17.1654 33.0973 21.8977 36.5084 29.4077 40.5423C30.1146 40.9212 31.1286 40.9969 31.6838 40.2616C31.9301 39.9347 32.033 39.5263 31.9701 39.1258C31.9072 38.7253 31.6835 38.3654 31.348 38.1247C31.348 38.1231 31.3469 38.1231 31.3464 38.1231L27.5011 35.3771C27.4262 35.3259 27.3626 35.2607 27.3139 35.1853C27.2653 35.1099 27.2327 35.0258 27.2179 34.938C27.2031 34.8502 27.2066 34.7604 27.228 34.6739C27.2494 34.5874 27.2884 34.5059 27.3426 34.4342C27.3969 34.3625 27.4653 34.3021 27.5439 34.2564C27.6225 34.2107 27.7097 34.1807 27.8004 34.1682C27.8911 34.1556 27.9835 34.1608 28.0721 34.1834C28.1607 34.2059 28.2438 34.2454 28.3164 34.2996L33.7871 38.2054C33.9535 38.3268 34.1431 38.4149 34.3448 38.4647C34.5465 38.5145 34.7564 38.5249 34.9623 38.4955C35.1682 38.466 35.366 38.3972 35.5444 38.293C35.7227 38.1889 35.878 38.0514 36.0014 37.8886C36.1247 37.7258 36.2136 37.5408 36.2629 37.3444C36.3122 37.148 36.3209 36.9441 36.2886 36.7444C36.2563 36.5447 36.1835 36.3533 36.0746 36.181C35.9656 36.0088 35.8226 35.8593 35.6537 35.7411L31.6496 32.8834C31.5742 32.8323 31.5102 32.7671 31.4611 32.6916C31.4121 32.6162 31.3791 32.5319 31.3641 32.4438C31.3491 32.3558 31.3524 32.2657 31.3738 32.1789C31.3952 32.0921 31.4343 32.0103 31.4887 31.9384C31.5431 31.8665 31.6118 31.8059 31.6908 31.7602C31.7697 31.7145 31.8572 31.6846 31.9482 31.6722C32.0392 31.6598 32.1319 31.6653 32.2207 31.6883C32.3095 31.7112 32.3927 31.7512 32.4653 31.8058L36.4685 34.6622V34.6637L37.9367 35.7117C38.2733 35.9519 38.6943 36.0523 39.1072 35.991C39.5201 35.9297 39.8909 35.7116 40.1382 35.3846C40.3855 35.0577 40.489 34.6488 40.4258 34.2477C40.3627 33.8467 40.1381 33.4865 39.8015 33.2463L35.3979 30.1019C35.2563 29.9952 35.1632 29.8389 35.1384 29.6665C35.1136 29.4941 35.1591 29.3191 35.2651 29.1787C35.3711 29.0383 35.5293 28.9437 35.7061 28.9148C35.8828 28.886 36.0642 28.9253 36.2116 29.0244L40.6167 32.166V32.1674C40.6167 32.1674 40.6177 32.1684 40.6199 32.1684L41.6854 32.9302C42.0221 33.1696 42.4427 33.2696 42.8551 33.2083C43.2675 33.1469 43.6381 32.9293 43.8856 32.603L43.8852 32.6029ZM6.91919 28.162L0.431224 25.0337C0.246712 24.9444 0.106208 24.7877 0.0405434 24.5979C-0.0251216 24.4081 -0.0105839 24.2007 0.0809658 24.0213L7.31259 9.87817C7.35792 9.78912 7.42088 9.70962 7.49787 9.64423C7.57486 9.57884 7.66436 9.52882 7.76127 9.49705C7.85817 9.46528 7.96058 9.45238 8.06262 9.45907C8.16466 9.46577 8.26434 9.49194 8.35597 9.53609L14.8425 12.6661C14.9343 12.7096 15.0161 12.7706 15.0831 12.8454C15.1502 12.9202 15.201 13.0073 15.2328 13.1016C15.2657 13.1953 15.2793 13.2944 15.2726 13.3933C15.266 13.4921 15.2392 13.5887 15.194 13.6774L7.96116 27.8223C7.8693 28.0015 7.70795 28.138 7.51256 28.2017C7.31718 28.2654 7.10375 28.2511 6.91919 28.162Z" fill="#F39F21"/>
</svg>
