<svg width="24" height="20" viewBox="0 0 24 20" fill="none" xmlns="http://www.w3.org/2000/svg">
<path d="M19.3094 10.9049C18.9273 10.9049 18.6177 11.2146 18.6177 11.5967V18.6164H4.57784V11.5967C4.57784 11.2146 4.26821 10.9049 3.88609 10.9049C3.50396 10.9049 3.19434 11.2146 3.19434 11.5967V19.3082C3.19434 19.6902 3.50396 19.9999 3.88609 19.9999H19.3094C19.6916 19.9999 20.0012 19.6902 20.0012 19.3082V11.5967C20.0012 11.2146 19.6915 10.9049 19.3094 10.9049Z" fill="#2F3642"/>
<path d="M22.9921 11.1076L12.0858 0.202579C11.8157 -0.0675724 11.3777 -0.0674802 11.1075 0.202579L0.202613 11.1076C-0.0675378 11.3778 -0.0675378 11.8158 0.202613 12.0858C0.337735 12.2209 0.514823 12.2885 0.691819 12.2885C0.868907 12.2885 1.0459 12.2209 1.18102 12.0858L11.5968 1.66992L22.0139 12.0858C22.284 12.356 22.722 12.3559 22.9923 12.0857C23.2622 11.8157 23.2622 11.3777 22.9921 11.1076Z" fill="#2F3642"/>
</svg>
