<svg width="188" height="64" viewBox="0 0 188 64" fill="none" xmlns="http://www.w3.org/2000/svg">
<g clip-path="url(#clip0_74_79)">
<path d="M62.4806 23.3533V40.7336C62.486 41.0894 62.4202 41.4427 62.287 41.7734C62.1537 42.1041 61.9556 42.4056 61.704 42.6607C61.4523 42.9158 61.1521 43.1194 60.8206 43.2599C60.489 43.4005 60.1326 43.4751 59.7717 43.4797H45.7337C44.6488 43.4728 43.5857 43.1789 42.6555 42.6286C41.7252 42.0783 40.9618 41.2918 40.4452 40.3512C36.3686 33.0351 30.4052 26.9097 23.1577 22.5944C22.0779 21.9456 21.186 21.0331 20.5684 19.9452C19.9508 18.8572 19.6283 17.6306 19.6321 16.3838V2.74608C19.6242 2.02842 19.9046 1.33683 20.4122 0.822329C20.9197 0.307826 21.6131 0.0122005 22.3409 0H39.4815C40.2099 0.0106819 40.9042 0.305829 41.412 0.820667C41.9199 1.3355 42.1998 2.02797 42.1904 2.74608V20.6014H59.7893C60.5156 20.6166 61.2063 20.9146 61.7106 21.4302C62.2148 21.9458 62.4916 22.6372 62.4806 23.3533Z" fill="#EB2027"/>
<path d="M3.53742 28.1097C3.21305 29.0104 3.23554 29.9972 3.60061 30.8826C3.96568 31.768 4.6479 32.4904 5.51766 32.9125L4.1544 33.9205L2.97918 34.7953L1.72758 30.1606L0.910797 27.1422L2.73827 25.8734L3.51979 25.381L7.46852 22.6349L8.19717 25.6881C7.58516 25.5376 6.94545 25.5343 6.33189 25.6785C5.71833 25.8227 5.14889 26.1101 4.6715 26.5165C4.43869 26.7143 4.2297 26.9379 4.04863 27.1828C3.83553 27.4669 3.66349 27.7789 3.53742 28.1097Z" fill="#0071BC"/>
<path d="M33.2705 33.9147C28.9339 29.0598 24.5856 25.4505 18.874 23.249C18.8099 23.218 18.743 23.1928 18.6742 23.1737C17.4106 22.6919 16.1172 22.2894 14.8019 21.9687C12.4189 21.1503 9.9021 20.777 7.38039 20.8679C6.89267 20.8679 6.3932 20.9201 5.89373 20.9664H5.73507C5.36488 21.007 4.98293 21.0533 4.60686 21.1112C4.60686 21.1112 4.89479 21.1576 5.37076 21.2792C6.00909 21.4462 6.63533 21.6552 7.24523 21.9049C8.86116 22.5422 10.8238 23.643 11.9109 25.4795C12.435 26.3828 12.7415 27.3928 12.8067 28.4315C12.8719 29.4702 12.6941 30.5097 12.2869 31.4699C12.215 31.6671 12.1326 31.8605 12.0401 32.0492C11.952 32.2288 11.8639 32.4084 11.764 32.5764C11.6641 32.7444 11.5348 32.9588 11.4055 33.1558C10.811 34.0561 10.0046 34.8014 9.05507 35.3283L8.75539 35.4674C8.05898 35.7644 7.3152 35.9389 6.55773 35.983C5.31235 36.0626 4.06613 35.8403 2.92807 35.3353C1.79 34.8303 0.794763 34.0581 0.0293808 33.0863C0.713405 35.019 2.05732 36.6573 3.83122 37.721C4.46745 38.2557 5.13665 38.751 5.83497 39.2041C6.91216 39.9069 8.04615 40.5211 9.22548 41.0406C12.524 42.4514 16.0485 43.279 19.6379 43.4855C21.3244 43.6071 23.0049 43.6882 24.6326 43.7809H24.6679L25.7961 43.8447L27.0947 43.9373C32.2245 44.3255 36.5259 45.096 38.418 47.8537C39.8106 49.893 39.6754 51.7295 39.6754 54.2265V60.3733C39.6754 60.5269 39.6135 60.6743 39.5033 60.783C39.3931 60.8916 39.2437 60.9526 39.0878 60.9526H23.2987C23.1429 60.9526 22.9934 60.8916 22.8832 60.783C22.773 60.6743 22.7111 60.5269 22.7111 60.3733V50.2116C22.7111 46.33 19.6438 45.9998 19.6438 45.9998V60.3733C19.6454 61.3357 20.0342 62.2581 20.725 62.9381C21.4158 63.6181 22.352 64 23.3281 64H39.0349C40.0111 64 40.9473 63.6181 41.6381 62.9381C42.3288 62.2581 42.7177 61.3357 42.7193 60.3733V51.5615C42.7193 45.6059 36.3613 37.3676 33.2705 33.9147Z" fill="#0071BC"/>
<path d="M4.56573 27.9649C4.56573 27.9649 4.56572 27.9012 4.61273 27.878C4.61273 27.878 4.61273 27.878 4.5716 27.9707C4.46647 28.155 4.37988 28.3491 4.31305 28.55C4.31305 28.5964 4.31305 28.6138 4.31305 28.6485C4.31111 28.6157 4.31111 28.5828 4.31305 28.55C4.36727 28.3323 4.44407 28.1207 4.54222 27.9185" fill="#FFA900"/>
<path d="M4.60099 28.0054L4.648 27.9301C4.65133 27.9551 4.65133 27.9804 4.648 28.0054C4.63708 28.0367 4.62122 28.066 4.60099 28.0923C4.4894 28.2574 4.39677 28.4342 4.32481 28.6195V28.7006V28.6022C4.39571 28.4018 4.48419 28.208 4.58924 28.0228" fill="#FFA900"/>
<path d="M4.60099 28.1271C4.60099 28.1271 4.63624 28.0749 4.65387 28.0692V28.1966L4.60099 28.2777C4.49014 28.3931 4.39709 28.5239 4.32481 28.6659V28.7238C4.32313 28.6949 4.32313 28.6659 4.32481 28.6369C4.39703 28.4609 4.4897 28.2937 4.60099 28.1387" fill="#FFA900"/>
<path d="M4.60099 28.3125C4.60099 28.3125 4.64212 28.2777 4.65387 28.3125V28.4747C4.64285 28.4975 4.62418 28.516 4.60099 28.5268C4.5042 28.5825 4.41694 28.6529 4.34244 28.7354C4.33904 28.7162 4.33904 28.6966 4.34244 28.6775C4.41647 28.5468 4.50733 28.426 4.61274 28.3183" fill="#FFA900"/>
<path d="M4.60099 28.5616H4.648L4.61274 28.747C4.61274 28.747 4.61274 28.747 4.56573 28.747C4.4914 28.7416 4.41677 28.7416 4.34244 28.747C4.41611 28.6812 4.49929 28.6265 4.58924 28.5848" fill="#FFA900"/>
<path d="M4.54223 28.8571H4.60099C4.60099 28.8571 4.60099 28.973 4.55986 29.0309C4.51872 29.0888 4.55986 29.0309 4.51872 29.0309C4.45093 28.9671 4.39169 28.8951 4.34244 28.8165L4.55398 28.8687" fill="#FFA900"/>
<path d="M4.48346 29.0888C4.48346 29.0888 4.48346 29.1294 4.48346 29.1525C4.4705 29.2054 4.45481 29.2577 4.43645 29.309C4.43645 29.309 4.43645 29.309 4.4012 29.2684C4.34254 29.1435 4.30294 29.0108 4.28367 28.8745C4.28015 28.8553 4.28015 28.8357 4.28367 28.8165V28.8513C4.32342 28.9449 4.37906 29.0311 4.4482 29.1062" fill="#FFA900"/>
<path d="M4.41296 29.3147C4.41594 29.3436 4.41594 29.3727 4.41296 29.4016L4.36595 29.5233C4.36072 29.5024 4.36072 29.4805 4.36595 29.4596C4.32385 29.281 4.30217 29.0983 4.30131 28.915V28.8223C4.30421 28.8434 4.30421 28.8649 4.30131 28.886C4.31905 29.0332 4.35659 29.1774 4.41296 29.3147Z" fill="#FFA900"/>
<path d="M4.33717 29.4886C4.34437 29.523 4.34437 29.5584 4.33717 29.5928L4.2956 29.6624C4.29386 29.6334 4.29386 29.6044 4.2956 29.5755C4.27476 29.3635 4.27476 29.1501 4.2956 28.9382C4.2956 28.9382 4.2956 28.8802 4.2956 28.8397C4.29879 28.8666 4.29879 28.8939 4.2956 28.9208C4.29469 29.1151 4.31258 29.3091 4.34904 29.5001" fill="#FFA900"/>
<path d="M4.27241 29.5986C4.2742 29.6314 4.2742 29.6643 4.27241 29.6971C4.27241 29.6971 4.27241 29.6971 4.23084 29.6971C4.22855 29.6643 4.22855 29.6314 4.23084 29.5986C4.21914 29.3759 4.23108 29.1527 4.26647 28.9324C4.26853 28.8996 4.26853 28.8667 4.26647 28.8339C4.26647 28.8687 4.26647 28.9034 4.26647 28.9324C4.24274 29.15 4.24274 29.3694 4.26647 29.587" fill="#FFA900"/>
<path d="M5.1886 27.119C5.24148 27.0669 5.25911 27.0553 5.27086 27.0553C5.2824 27.0572 5.29327 27.0619 5.3025 27.069C5.31174 27.0761 5.31904 27.0853 5.32375 27.0959C5.32375 27.0959 5.32375 27.1306 5.25911 27.177C5.10436 27.325 4.96282 27.4859 4.83603 27.6578L4.77727 27.7331C4.76881 27.7201 4.7565 27.71 4.74201 27.7042C4.74201 27.7042 4.74201 27.7042 4.78902 27.6231C4.90714 27.4439 5.04084 27.2753 5.1886 27.119Z" fill="#FFA900"/>
<path d="M5.26498 27.177C5.29436 27.177 5.32375 27.1306 5.34138 27.1306C5.3458 27.1807 5.3458 27.2311 5.34138 27.2812C5.34138 27.2812 5.34137 27.3334 5.27086 27.3681C5.11269 27.4951 4.9653 27.6346 4.83015 27.7853L4.77139 27.8374C4.77299 27.8065 4.77299 27.7756 4.77139 27.7447C4.77139 27.7447 4.77139 27.7447 4.82428 27.652C4.95297 27.4817 5.0965 27.3227 5.25323 27.177" fill="#FFA900"/>
<path d="M5.30612 27.4377C5.35312 27.4029 5.37663 27.3971 5.38251 27.4377V27.6868C5.38251 27.6868 5.34725 27.7389 5.30612 27.7679C5.14889 27.8535 4.99948 27.9524 4.85954 28.0634C4.85954 28.0634 4.81252 28.0981 4.80665 28.0634V27.9127C4.80665 27.9127 4.80665 27.8664 4.86541 27.8258C4.99797 27.6797 5.14568 27.5477 5.30612 27.4319" fill="#FFA900"/>
<path d="M5.30024 27.8432C5.34138 27.8432 5.36488 27.8432 5.36488 27.8432C5.36488 27.8432 5.36488 28.0576 5.36488 28.1792C5.35709 28.196 5.34569 28.2109 5.33149 28.2229C5.31729 28.2349 5.30061 28.2437 5.28262 28.2488C5.13793 28.281 4.99637 28.3256 4.85954 28.382C4.81253 28.382 4.80665 28.382 4.80665 28.382C4.80665 28.382 4.80665 28.243 4.80665 28.1792C4.82036 28.1485 4.84281 28.1224 4.87129 28.1039C5.00909 28.0012 5.15669 27.912 5.31199 27.8374" fill="#FFA900"/>
<path d="M5.2356 28.382C5.27674 28.382 5.30024 28.382 5.30024 28.4284C5.30024 28.4747 5.25911 28.6717 5.2356 28.7934C5.2121 28.915 5.18859 28.8571 5.18859 28.8571L4.78902 28.8107C4.78902 28.8107 4.74789 28.8107 4.74789 28.7702L4.78314 28.55C4.78314 28.55 4.78314 28.5095 4.84778 28.4979C4.98457 28.4563 5.12393 28.4234 5.26498 28.3994" fill="#FFA900"/>
<path d="M5.12984 28.9614C5.14644 28.9641 5.16149 28.9727 5.17226 28.9854C5.18304 28.9982 5.18884 29.0143 5.1886 29.0309L5.10046 29.3843C5.10046 29.3843 5.0652 29.419 5.02995 29.3843C4.8948 29.309 4.77728 29.2336 4.67151 29.1641C4.66115 29.1555 4.65269 29.1449 4.64662 29.1329C4.64056 29.121 4.63703 29.1079 4.63625 29.0946L4.68913 28.8802C4.68913 28.8802 4.68913 28.8802 4.74202 28.8802L5.12984 28.9672" fill="#FFA900"/>
<path d="M4.99469 29.5175C5.01158 29.5259 5.02527 29.5395 5.03374 29.5562C5.04221 29.5729 5.045 29.5918 5.0417 29.6102C5.0417 29.7203 4.98294 29.8246 4.94768 29.9231C4.91242 30.0215 4.91242 29.9231 4.87717 29.9231C4.76461 29.8043 4.6624 29.6764 4.57161 29.5407C4.57161 29.5001 4.53635 29.4712 4.57161 29.4538C4.60686 29.4364 4.61274 29.3263 4.63037 29.2626C4.648 29.1989 4.63037 29.2626 4.68326 29.2626C4.79006 29.3578 4.90399 29.445 5.02407 29.5233" fill="#FFA900"/>
<path d="M4.84778 30.0158C4.86038 30.0288 4.87004 30.0443 4.87612 30.0613C4.88219 30.0783 4.88455 30.0963 4.88304 30.1142C4.84778 30.2069 4.8184 30.2881 4.78314 30.3634C4.74789 30.4387 4.78314 30.3634 4.71851 30.3228C4.61831 30.1601 4.53184 29.9896 4.45996 29.813C4.45065 29.7808 4.45065 29.7467 4.45996 29.7145C4.45996 29.6682 4.50109 29.616 4.51872 29.5639C4.51872 29.5639 4.51872 29.5639 4.55985 29.6044C4.64641 29.7523 4.74673 29.892 4.85954 30.0216" fill="#FFA900"/>
<path d="M4.68913 30.3923C4.69995 30.4263 4.69995 30.4627 4.68913 30.4966L4.60686 30.6356C4.60686 30.6356 4.60686 30.6356 4.5481 30.5661C4.46027 30.3802 4.39138 30.1861 4.34243 29.9868C4.33864 29.9521 4.33864 29.9172 4.34243 29.8825L4.38944 29.7956C4.40397 29.8152 4.41582 29.8367 4.4247 29.8593C4.48744 30.047 4.57017 30.2276 4.6715 30.3981" fill="#FFA900"/>
<path d="M4.53635 30.5951C4.53635 30.653 4.57161 30.682 4.53635 30.6936C4.50109 30.7052 4.48347 30.7341 4.45996 30.7283C4.43871 30.7027 4.42274 30.6731 4.41295 30.6414C4.33835 30.44 4.28134 30.2326 4.24255 30.0215C4.24255 30.0215 4.24255 29.952 4.24255 29.9288H4.28956C4.28956 29.9288 4.28956 29.9288 4.28956 30.0157C4.34047 30.2138 4.40727 30.4075 4.48934 30.5951" fill="#FFA900"/>
<path d="M6.02301 26.4586C6.05444 26.441 6.088 26.4273 6.1229 26.418C6.13975 26.42 6.15575 26.4264 6.1692 26.4366C6.18264 26.4468 6.19304 26.4604 6.19929 26.476C6.19929 26.476 6.19929 26.5107 6.1229 26.5397C5.9288 26.6316 5.74554 26.7443 5.57642 26.8757L5.49416 26.9221C5.4769 26.8977 5.4522 26.8794 5.42365 26.8699C5.44253 26.8479 5.46426 26.8284 5.48828 26.812C5.65429 26.6771 5.8334 26.5587 6.02301 26.4586Z" fill="#FFA900"/>
<path d="M6.1464 26.5861C6.19929 26.5861 6.22867 26.5861 6.24042 26.5861C6.26249 26.6557 6.27629 26.7276 6.28156 26.8004C6.28156 26.8004 6.28156 26.8468 6.19929 26.8757C5.99531 26.9508 5.79864 27.0438 5.61168 27.1538C5.5588 27.1538 5.53529 27.1886 5.52942 27.1538C5.52619 27.0964 5.5143 27.0398 5.49416 26.9858C5.49416 26.9858 5.49416 26.9452 5.57055 26.9105C5.74324 26.7828 5.92824 26.6722 6.1229 26.5803" fill="#FFA900"/>
<path d="M6.20516 26.9568C6.25805 26.9568 6.28742 26.9568 6.2933 26.9568C6.29918 27.0726 6.29918 27.1886 6.2933 27.3044C6.2933 27.3392 6.25804 27.3681 6.19928 27.3855C5.99925 27.4361 5.80293 27.4999 5.61167 27.5767C5.56466 27.5767 5.54116 27.5767 5.53528 27.5767C5.5294 27.5767 5.53528 27.3855 5.53528 27.3102C5.53528 27.2349 5.53528 27.2523 5.61167 27.2233C5.79906 27.1189 5.99575 27.0316 6.19928 26.9626" fill="#FFA900"/>
<path d="M6.19341 27.5362C6.2463 27.5362 6.27568 27.5362 6.27568 27.5825C6.27568 27.7273 6.27568 27.8838 6.22867 28.0518C6.22867 28.0981 6.18754 28.1213 6.12878 28.1329C5.93486 28.1329 5.75271 28.1676 5.57642 28.1908C5.52942 28.1908 5.51179 28.1908 5.51179 28.1503C5.51179 28.017 5.51179 27.8954 5.54704 27.7853C5.55244 27.7659 5.56286 27.7482 5.57728 27.734C5.59171 27.7198 5.60964 27.7095 5.62931 27.7042C5.82143 27.6361 6.01768 27.58 6.21692 27.5362" fill="#FFA900"/>
<path d="M6.10527 28.3067C6.15815 28.3067 6.18166 28.3067 6.18166 28.382L6.09352 28.8976C6.08795 28.9186 6.07461 28.9368 6.05613 28.9486C6.03764 28.9604 6.01534 28.965 5.99363 28.9614L5.46478 28.8802C5.41777 28.8802 5.40014 28.8455 5.40014 28.8107C5.43148 28.6755 5.45498 28.5423 5.47065 28.411C5.47573 28.3916 5.48707 28.3743 5.50296 28.3617C5.51886 28.3492 5.53845 28.3421 5.55879 28.3415C5.73116 28.3415 5.91332 28.3299 6.10527 28.3067Z" fill="#FFA900"/>
<path d="M5.95249 29.1409C5.96334 29.1424 5.97379 29.1459 5.98324 29.1513C5.99269 29.1568 6.00093 29.1641 6.0075 29.1727C6.01407 29.1813 6.01882 29.1912 6.02148 29.2016C6.02414 29.2121 6.02466 29.223 6.023 29.2336C5.98774 29.4017 5.94661 29.5697 5.90548 29.7319C5.90548 29.7724 5.85847 29.784 5.80559 29.7724C5.6293 29.6971 5.46477 29.6276 5.31199 29.5523C5.29401 29.5448 5.27906 29.5316 5.26949 29.5148C5.25992 29.4981 5.25627 29.4786 5.25911 29.4596L5.34725 29.0714C5.34725 29.0367 5.38838 29.0251 5.43539 29.0309L5.95249 29.1409Z" fill="#FFA900"/>
<path d="M5.77621 29.9346C5.7967 29.9443 5.81347 29.9603 5.82406 29.9801C5.83464 29.9999 5.83847 30.0226 5.83497 30.0447C5.78796 30.1954 5.74683 30.346 5.69982 30.485C5.69982 30.5198 5.65281 30.5256 5.6058 30.485C5.44536 30.3814 5.29223 30.2672 5.14747 30.1432C5.10633 30.1027 5.09458 30.0737 5.10046 30.0389C5.10633 30.0042 5.17097 29.813 5.20623 29.6913C5.20623 29.6913 5.24148 29.6566 5.28849 29.6913C5.44664 29.7825 5.60943 29.8657 5.77621 29.9404" fill="#FFA900"/>
<path d="M5.54116 30.6357C5.56056 30.6466 5.57639 30.6628 5.5868 30.6823C5.5972 30.7018 5.60176 30.7238 5.59992 30.7457C5.55291 30.8732 5.50591 30.9948 5.4589 31.0991C5.41189 31.2034 5.41189 31.0991 5.36488 31.0991C5.2137 30.9619 5.07417 30.8127 4.94768 30.653C4.93341 30.6385 4.92239 30.6212 4.9153 30.6023C4.90822 30.5833 4.90523 30.5631 4.90654 30.543C4.9418 30.4619 4.98293 30.3692 5.01819 30.2707C5.05345 30.1722 5.05344 30.2707 5.09458 30.2707C5.23401 30.4049 5.38328 30.5288 5.54116 30.6414" fill="#FFA900"/>
<path d="M5.31787 31.1744C5.35901 31.2208 5.37664 31.2555 5.36488 31.2845C5.33183 31.3535 5.29249 31.4195 5.24736 31.4815C5.24736 31.4815 5.20035 31.4815 5.15922 31.4351C5.01838 31.2755 4.89066 31.105 4.77727 30.9253C4.74985 30.8712 4.7381 30.8365 4.74201 30.821C4.78058 30.7735 4.81223 30.7208 4.83603 30.6646C4.83603 30.6646 4.87129 30.6646 4.90654 30.711C5.03082 30.8743 5.16839 31.0273 5.31787 31.1686" fill="#FFA900"/>
<path d="M5.10633 31.5105C5.14159 31.5568 5.15922 31.5858 5.15334 31.5974C5.12523 31.6262 5.08787 31.6446 5.04757 31.6495C5.01742 31.6295 4.99148 31.6039 4.97118 31.5742C4.83627 31.4104 4.71817 31.2338 4.61861 31.047C4.60435 31.0191 4.59256 30.99 4.58336 30.9601C4.59921 30.9595 4.61474 30.9555 4.62893 30.9485C4.64311 30.9416 4.65562 30.9317 4.66562 30.9195C4.66562 30.9195 4.66562 30.9195 4.73026 30.989C4.83805 31.1745 4.96401 31.3492 5.10633 31.5105Z" fill="#FFA900"/>
<path d="M7.02194 26.1168H7.13946C7.15914 26.1214 7.17765 26.1299 7.19383 26.1419C7.21001 26.1538 7.22351 26.169 7.23348 26.1863C7.23348 26.1863 7.23348 26.1863 7.14534 26.2211C6.9316 26.2581 6.72132 26.3123 6.5166 26.3833C6.48185 26.3916 6.44557 26.3916 6.41083 26.3833C6.41083 26.3427 6.35794 26.3196 6.32856 26.3196C6.29918 26.3196 6.32856 26.3196 6.40495 26.279C6.60528 26.2055 6.81172 26.1492 7.02194 26.111" fill="#FFA900"/>
<path d="M7.17472 26.2732C7.23348 26.2732 7.26874 26.2732 7.28049 26.2732C7.30727 26.3561 7.325 26.4415 7.33338 26.5281C7.33338 26.5281 7.29812 26.5745 7.23349 26.586C7.01697 26.6092 6.80275 26.6499 6.59299 26.7077C6.5401 26.7077 6.50485 26.7077 6.49897 26.7077C6.49073 26.6315 6.47698 26.556 6.45784 26.4818C6.45784 26.4818 6.45784 26.447 6.54011 26.4238C6.74613 26.3533 6.95869 26.3028 7.17472 26.2732Z" fill="#FFA900"/>
<path d="M7.24523 26.7135C7.30399 26.7135 7.33925 26.7135 7.34512 26.7598C7.34512 26.8834 7.34512 27.0225 7.34512 27.177C7.34512 27.2175 7.30399 27.2407 7.23935 27.2465C7.02482 27.256 6.81099 27.2772 6.59886 27.3102C6.54598 27.3102 6.51072 27.3102 6.51072 27.2697C6.51072 27.1306 6.51072 27.009 6.51072 26.9047C6.51072 26.8699 6.54598 26.8467 6.60474 26.8294C6.81516 26.7757 7.02921 26.737 7.24523 26.7135Z" fill="#FFA900"/>
<path d="M7.22761 27.4203C7.29225 27.4203 7.32162 27.4203 7.32162 27.4956C7.32162 27.6636 7.32162 27.849 7.26286 28.0749C7.25856 28.099 7.24536 28.1206 7.22582 28.1356C7.20628 28.1506 7.18178 28.1579 7.15709 28.1561H6.52247C6.46959 28.1561 6.44021 28.1561 6.44021 28.0807C6.44021 27.9069 6.48134 27.7389 6.4931 27.5883C6.4931 27.5477 6.53423 27.5188 6.59299 27.5072C6.80315 27.4769 7.01522 27.4614 7.22761 27.4608" fill="#FFA900"/>
<path d="M7.12771 28.3473C7.13985 28.3479 7.1517 28.3511 7.16254 28.3565C7.17338 28.3619 7.18296 28.3695 7.19068 28.3788C7.19841 28.388 7.20411 28.3987 7.20743 28.4103C7.21075 28.4218 7.21162 28.4339 7.20998 28.4457L7.10421 29.0598C7.09732 29.0844 7.08156 29.1056 7.05992 29.1195C7.03827 29.1333 7.01222 29.1389 6.98668 29.1352L6.39907 29.0251C6.38763 29.0237 6.37659 29.02 6.36669 29.0142C6.35678 29.0084 6.34823 29.0006 6.34158 28.9913C6.33493 28.982 6.33034 28.9715 6.32809 28.9603C6.32585 28.9492 6.32601 28.9377 6.32856 28.9266C6.32856 28.747 6.3932 28.5674 6.42258 28.3878C6.42686 28.3653 6.43943 28.3452 6.45787 28.3313C6.47632 28.3174 6.49933 28.3107 6.52247 28.3125C6.73449 28.3128 6.94634 28.3244 7.15709 28.3473" fill="#FFA900"/>
<path d="M6.95143 29.3495C6.97585 29.3551 6.99725 29.3695 7.0114 29.3899C7.02555 29.4102 7.03141 29.4351 7.02782 29.4596L6.8868 30.0389C6.88353 30.0507 6.87779 30.0617 6.86993 30.0712C6.86206 30.0806 6.85227 30.0883 6.84118 30.0938C6.83008 30.0993 6.81795 30.1024 6.80556 30.1029C6.79317 30.1034 6.7808 30.1014 6.76928 30.0969C6.56361 30.0331 6.36382 29.9694 6.18167 29.8999C6.15834 29.8931 6.13831 29.8782 6.12533 29.858C6.11235 29.8377 6.10731 29.8135 6.11115 29.7898C6.15816 29.6237 6.19929 29.4499 6.23455 29.2684C6.24134 29.2469 6.25581 29.2286 6.27527 29.2169C6.29473 29.2052 6.31785 29.2008 6.34032 29.2047L6.92793 29.3379" fill="#FFA900"/>
<path d="M6.7105 30.3054C6.72305 30.3081 6.73492 30.3133 6.74535 30.3207C6.75579 30.3281 6.76458 30.3375 6.77119 30.3483C6.77779 30.3592 6.78208 30.3713 6.78377 30.3838C6.78546 30.3964 6.78452 30.4091 6.78102 30.4213C6.72813 30.6067 6.67525 30.7805 6.62237 30.9485C6.62237 30.9891 6.5636 31.0006 6.50484 30.9833C6.30505 30.8964 6.11702 30.8037 5.91723 30.7052C5.87022 30.6704 5.84672 30.6357 5.85847 30.5951C5.90548 30.4445 5.95249 30.2881 5.9995 30.1258C5.9995 30.0853 6.04651 30.0737 6.09939 30.0911C6.28743 30.1664 6.48722 30.2359 6.687 30.3054" fill="#FFA900"/>
<path d="M6.45196 31.1744C6.47354 31.1832 6.49158 31.1987 6.50327 31.2186C6.51496 31.2386 6.51965 31.2617 6.5166 31.2845C6.45784 31.4352 6.40496 31.5742 6.34619 31.7016C6.34619 31.7016 6.29331 31.7364 6.23455 31.7016C6.04271 31.6035 5.85986 31.4891 5.68807 31.3598C5.64106 31.3251 5.62343 31.2903 5.63519 31.2556C5.6822 31.1455 5.7292 31.018 5.78209 30.8848C5.78209 30.85 5.8291 30.85 5.88198 30.8848C6.07 30.9977 6.26644 31.0965 6.46959 31.1802" fill="#FFA900"/>
<path d="M6.17578 31.8059C6.22866 31.8407 6.25217 31.8696 6.24042 31.9044C6.19859 31.9865 6.15148 32.0658 6.09939 32.1419C6.09939 32.1419 6.04063 32.1419 5.98774 32.1419C5.80244 32.0276 5.62747 31.8977 5.46477 31.7538C5.42364 31.7132 5.40601 31.6842 5.41188 31.6611C5.45809 31.5946 5.49933 31.5249 5.53528 31.4525C5.53528 31.4525 5.58817 31.4525 5.63518 31.4525C5.80566 31.5842 5.98642 31.7023 6.17578 31.8059Z" fill="#FFA900"/>
<path d="M5.92311 32.2057C5.97012 32.2057 5.99362 32.2578 5.98187 32.2752C5.94992 32.3096 5.90567 32.3303 5.85847 32.3331C5.82175 32.3231 5.78768 32.3053 5.75858 32.281C5.57624 32.1658 5.40684 32.0318 5.25324 31.8813C5.25324 31.8813 5.20035 31.8291 5.20035 31.8175C5.24272 31.814 5.28238 31.7955 5.312 31.7654C5.312 31.7654 5.35313 31.7654 5.40014 31.8117C5.56162 31.9588 5.73671 32.0907 5.92311 32.2057Z" fill="#FFA900"/>
<path d="M7.48028 26.0704H7.72119C7.87985 26.0704 8.08551 26.1052 8.24417 26.1284C8.28438 26.1402 8.31819 26.1673 8.33819 26.2037C8.30913 26.2098 8.2791 26.2098 8.25004 26.2037C8.02863 26.1683 7.80442 26.1528 7.58017 26.1573C7.51553 26.1573 7.48027 26.1573 7.46852 26.1573C7.45825 26.1385 7.44403 26.1221 7.4268 26.1091C7.40958 26.0961 7.38975 26.0869 7.36863 26.082H7.48028" fill="#FFA900"/>
<path d="M8.27943 26.279C8.33819 26.279 8.37932 26.279 8.39107 26.3253C8.41261 26.4131 8.42831 26.5021 8.43808 26.5918C8.43808 26.5918 8.43808 26.6324 8.34407 26.6266C8.12125 26.5863 7.89479 26.5688 7.66831 26.5745C7.60955 26.5745 7.5743 26.5745 7.56842 26.5223C7.55942 26.4358 7.5417 26.3504 7.51553 26.2674C7.51553 26.2674 7.54491 26.2674 7.60368 26.2327C7.82994 26.2252 8.05639 26.2407 8.27943 26.279Z" fill="#FFA900"/>
<path d="M8.35581 26.7541C8.41458 26.7541 8.44983 26.7888 8.45571 26.8294C8.45571 26.9568 8.45571 27.1075 8.45571 27.2697C8.45571 27.3102 8.41457 27.3276 8.34994 27.3218C8.12684 27.2815 7.90092 27.2582 7.67419 27.2523C7.61543 27.2523 7.58017 27.2175 7.58017 27.177C7.58017 27.0206 7.58017 26.8757 7.58017 26.7483C7.58017 26.7135 7.61543 26.6961 7.68006 26.6961C7.90662 26.6955 8.13277 26.7149 8.35581 26.7541Z" fill="#FFA900"/>
<path d="M8.33819 27.5072C8.39695 27.5072 8.43221 27.5536 8.43221 27.6057C8.43221 27.7911 8.39695 27.9881 8.37345 28.185C8.36781 28.2103 8.35232 28.2323 8.33033 28.2464C8.30835 28.2605 8.28162 28.2655 8.25593 28.2604C8.03264 28.2198 7.80934 28.185 7.58605 28.1619C7.52729 28.1619 7.49791 28.1155 7.49791 28.0576C7.49791 27.8548 7.54492 27.6636 7.55667 27.4782C7.56222 27.4553 7.57595 27.435 7.59536 27.4212C7.61478 27.4074 7.63858 27.4009 7.66244 27.4029C7.88922 27.4156 8.11494 27.4427 8.33819 27.484" fill="#FFA900"/>
<path d="M8.22655 28.4979C8.25297 28.5034 8.27646 28.5182 8.29267 28.5395C8.30887 28.5608 8.3167 28.5872 8.31469 28.6137C8.27943 28.8339 8.2383 29.0482 8.19717 29.2684C8.19153 29.2936 8.17604 29.3157 8.15405 29.3298C8.13207 29.3439 8.10534 29.3489 8.07964 29.3437L7.40977 29.2105C7.39732 29.2084 7.38542 29.2039 7.37479 29.1971C7.36416 29.1904 7.355 29.1817 7.34787 29.1714C7.34074 29.1611 7.33579 29.1496 7.3333 29.1374C7.33081 29.1252 7.33084 29.1126 7.33338 29.1004C7.37255 28.8918 7.40781 28.6833 7.43915 28.4747C7.44127 28.4617 7.44602 28.4492 7.45312 28.438C7.46023 28.4268 7.46954 28.4172 7.4805 28.4096C7.49146 28.4021 7.50385 28.3967 7.51693 28.394C7.53002 28.3912 7.54353 28.3911 7.55667 28.3936L8.22655 28.4979Z" fill="#FFA900"/>
<path d="M8.03263 29.5697C8.04594 29.5724 8.05854 29.5777 8.06968 29.5854C8.08081 29.5931 8.09024 29.6029 8.09739 29.6143C8.10454 29.6257 8.10926 29.6384 8.11126 29.6516C8.11326 29.6649 8.1125 29.6784 8.10902 29.6913C8.06789 29.8999 8.01501 30.1142 7.96212 30.317C7.95398 30.3416 7.93684 30.3624 7.91403 30.3753C7.89122 30.3881 7.86438 30.3921 7.83872 30.3865C7.61543 30.3402 7.39214 30.2823 7.1806 30.2243C7.16815 30.2222 7.15625 30.2177 7.14562 30.211C7.13499 30.2043 7.12583 30.1955 7.1187 30.1853C7.11158 30.175 7.10662 30.1634 7.10413 30.1512C7.10164 30.139 7.10167 30.1264 7.10421 30.1142C7.15514 29.9173 7.20214 29.7242 7.24524 29.5349C7.25337 29.5103 7.27052 29.4895 7.29333 29.4767C7.31614 29.4638 7.34298 29.4598 7.36863 29.4654L8.03263 29.5986" fill="#FFA900"/>
<path d="M7.77996 30.5951C7.8446 30.5951 7.8681 30.6472 7.85635 30.7052C7.80346 30.8963 7.75058 31.0817 7.69182 31.2845C7.67963 31.3067 7.66039 31.3244 7.63706 31.3349C7.61372 31.3454 7.58755 31.348 7.56254 31.3424C7.33925 31.2903 7.12183 31.2266 6.91029 31.157C6.85741 31.157 6.8339 31.0933 6.83978 31.047C6.89854 30.8732 6.95142 30.6936 7.00431 30.5082C7.01235 30.4853 7.02914 30.4664 7.0511 30.4556C7.07307 30.4448 7.09845 30.4429 7.12183 30.4503C7.33925 30.514 7.55667 30.5661 7.77996 30.6183" fill="#FFA900"/>
<path d="M7.50378 31.5047C7.56255 31.5047 7.58605 31.551 7.57429 31.5974C7.51553 31.7596 7.45678 31.9102 7.39801 32.0377C7.33925 32.1651 7.33338 32.0898 7.27462 32.0782C7.05349 32.0271 6.83723 31.9573 6.62824 31.8697C6.57536 31.8697 6.55185 31.8117 6.5636 31.777C6.61649 31.6495 6.67525 31.5047 6.73401 31.3482C6.73401 31.3077 6.79278 31.2961 6.85154 31.3135C7.06509 31.3894 7.28286 31.4532 7.50378 31.5047Z" fill="#FFA900"/>
<path d="M7.20998 32.2057C7.26874 32.2057 7.29224 32.2462 7.28637 32.281C7.24206 32.3678 7.19098 32.4511 7.13359 32.5301C7.11406 32.5382 7.09309 32.5424 7.07189 32.5424C7.0507 32.5424 7.02972 32.5382 7.01019 32.5301C6.78939 32.4829 6.57314 32.417 6.36382 32.3331C6.31094 32.3331 6.29331 32.281 6.29918 32.2578V32.2288C6.35249 32.1535 6.39964 32.074 6.44021 31.9913C6.44021 31.9913 6.49897 31.9565 6.55773 31.9913C6.76471 32.079 6.97901 32.1487 7.19823 32.1999" fill="#FFA900"/>
<path d="M6.95143 32.6286C7.00431 32.6286 7.02782 32.6286 7.03369 32.6691C6.9969 32.7044 6.94944 32.7267 6.89855 32.7329H6.78102C6.56453 32.6778 6.35397 32.6021 6.15228 32.5069L6.08176 32.4664C6.12901 32.4595 6.17251 32.437 6.20517 32.4026C6.24152 32.3915 6.28045 32.3915 6.31681 32.4026C6.52075 32.4958 6.73326 32.5695 6.95143 32.6228" fill="#FFA900"/>
<path d="M8.71426 26.2616C8.88778 26.3208 9.05506 26.3965 9.21373 26.4876L9.30187 26.5397C9.32559 26.5544 9.34567 26.5742 9.36063 26.5976C9.33703 26.5827 9.31698 26.563 9.30187 26.5397C9.11406 26.4393 8.91738 26.3559 8.71426 26.2906C8.67353 26.2817 8.63536 26.2639 8.60261 26.2384C8.59329 26.2217 8.58071 26.2069 8.56558 26.195C8.55046 26.1831 8.53309 26.1742 8.51447 26.1689L8.76127 26.2384" fill="#FFA900"/>
<path d="M9.30187 26.6208C9.33847 26.6387 9.37059 26.6644 9.39589 26.6961C9.42206 26.7791 9.43977 26.8645 9.44877 26.951C9.44877 26.98 9.44877 26.98 9.3665 26.951C9.17878 26.855 8.98197 26.7774 8.77889 26.7193C8.72013 26.7193 8.68488 26.6729 8.679 26.644C8.67039 26.5517 8.65268 26.4605 8.62611 26.3717C8.62611 26.3717 8.6555 26.3717 8.71426 26.3717C8.91735 26.4347 9.11406 26.5161 9.30187 26.615" fill="#FFA900"/>
<path d="M9.39589 27.0785C9.41632 27.0876 9.43435 27.1013 9.44861 27.1183C9.46287 27.1354 9.47298 27.1555 9.47815 27.177C9.47815 27.3006 9.47815 27.4396 9.47815 27.5941C9.47815 27.6366 9.44877 27.6482 9.39001 27.6289C9.19919 27.5462 9.00286 27.4766 8.8024 27.4203C8.74364 27.4203 8.71426 27.3682 8.70838 27.3218C8.70838 27.1596 8.70838 27.009 8.70838 26.8815C8.70838 26.8468 8.74952 26.8352 8.80828 26.8815C9.01053 26.9396 9.20717 27.0152 9.39589 27.1075" fill="#FFA900"/>
<path d="M9.37825 27.8027C9.40094 27.811 9.42045 27.8261 9.43413 27.8458C9.4478 27.8655 9.45497 27.8889 9.45465 27.9128C9.45465 28.0866 9.42527 28.2777 9.39588 28.4921C9.39588 28.5442 9.35475 28.5674 9.30187 28.5558C9.11383 28.4921 8.90817 28.4342 8.71426 28.382C8.68845 28.3742 8.66618 28.3578 8.6512 28.3356C8.63622 28.3134 8.62943 28.2869 8.63199 28.2604C8.63199 28.0518 8.679 27.8548 8.69075 27.681C8.69075 27.6347 8.73776 27.6173 8.79652 27.6231C8.99631 27.6791 9.19253 27.7468 9.38413 27.8259" fill="#FFA900"/>
<path d="M9.30187 28.7528C9.32491 28.7634 9.34405 28.7808 9.35668 28.8026C9.3693 28.8244 9.37479 28.8495 9.37238 28.8745C9.33713 29.0772 9.30187 29.2858 9.26074 29.4944C9.25938 29.5056 9.25562 29.5165 9.24972 29.5263C9.24382 29.5361 9.23591 29.5445 9.22649 29.551C9.21707 29.5576 9.20636 29.5621 9.19505 29.5643C9.18374 29.5666 9.17209 29.5664 9.16084 29.5639L8.57323 29.4306C8.5479 29.4239 8.52577 29.4086 8.51073 29.3874C8.49568 29.3663 8.48869 29.3405 8.49097 29.3148C8.53798 29.1004 8.57323 28.8803 8.60849 28.6659C8.6106 28.6536 8.61519 28.6419 8.622 28.6314C8.6288 28.6209 8.63768 28.6119 8.6481 28.6049C8.65852 28.5978 8.67026 28.593 8.68264 28.5905C8.69502 28.5881 8.70777 28.5881 8.72014 28.5906C8.93168 28.6427 9.13734 28.6949 9.30775 28.7528" fill="#FFA900"/>
<path d="M9.08445 29.784C9.09625 29.7867 9.10737 29.7917 9.11711 29.7988C9.12685 29.8059 9.135 29.8148 9.14107 29.8252C9.14713 29.8355 9.15097 29.8469 9.15235 29.8588C9.15373 29.8707 9.15262 29.8827 9.14909 29.8941C9.10796 30.0969 9.06095 30.2938 9.00806 30.4734C9.00252 30.4964 8.98879 30.5166 8.96937 30.5305C8.94996 30.5443 8.92615 30.5508 8.90229 30.5487C8.70251 30.5487 8.49097 30.4966 8.27355 30.456C8.26123 30.4541 8.24947 30.4495 8.23905 30.4428C8.22864 30.436 8.21981 30.4271 8.21314 30.4167C8.20647 30.4063 8.20213 30.3946 8.20039 30.3824C8.19864 30.3702 8.19955 30.3578 8.20304 30.346C8.25005 30.1432 8.30293 29.9346 8.34994 29.7203C8.35558 29.695 8.37107 29.673 8.39305 29.6589C8.41504 29.6448 8.44177 29.6398 8.46746 29.645L9.05507 29.7666" fill="#FFA900"/>
<path d="M8.84353 30.7689C8.85474 30.7694 8.86568 30.7724 8.87559 30.7776C8.88549 30.7828 8.89412 30.7901 8.90085 30.7989C8.90759 30.8078 8.91226 30.818 8.91454 30.8288C8.91682 30.8396 8.91665 30.8508 8.91404 30.8616C8.86116 31.047 8.80827 31.2266 8.74951 31.3946C8.74082 31.4164 8.72531 31.4349 8.70523 31.4474C8.68516 31.4599 8.66156 31.4657 8.63787 31.4641C8.42526 31.4586 8.21326 31.4393 8.00325 31.4062C7.94449 31.4062 7.91511 31.3598 7.92686 31.3135C7.98562 31.1339 8.04438 30.9485 8.09727 30.7341C8.10421 30.7084 8.12086 30.6863 8.1438 30.6723C8.16674 30.6583 8.19424 30.6535 8.22067 30.6588C8.43808 30.6994 8.64375 30.7283 8.84353 30.7457" fill="#FFA900"/>
<path d="M8.57323 31.6379C8.632 31.6379 8.64962 31.6379 8.64374 31.7074C8.58498 31.8638 8.5321 32.0029 8.47334 32.1303C8.46036 32.1491 8.44276 32.1642 8.4222 32.1743C8.40163 32.1845 8.37879 32.1893 8.35582 32.1883C8.1407 32.2052 7.92456 32.2052 7.70945 32.1883C7.65069 32.1883 7.62718 32.1535 7.63893 32.113C7.69769 31.9797 7.75646 31.8349 7.81522 31.6727C7.82637 31.6509 7.84454 31.6334 7.86687 31.6229C7.88921 31.6124 7.91444 31.6095 7.93861 31.6147C8.14913 31.6427 8.36094 31.6601 8.57323 31.6669" fill="#FFA900"/>
<path d="M8.29706 32.3331C8.35582 32.3331 8.37345 32.3331 8.36757 32.3737C8.32701 32.4564 8.27985 32.5358 8.22654 32.6112C8.19256 32.6364 8.15151 32.6505 8.10902 32.6518C7.89013 32.672 7.66979 32.672 7.4509 32.6518C7.39214 32.6518 7.36863 32.6518 7.37451 32.6112C7.43568 32.5223 7.49065 32.4294 7.53904 32.3331C7.53904 32.2984 7.60368 32.2868 7.66832 32.2926C7.88342 32.3097 8.09958 32.3097 8.31469 32.2926" fill="#FFA900"/>
<path d="M8.03263 32.7213C8.07376 32.7213 8.09139 32.7213 8.10902 32.7213C8.07804 32.7505 8.03936 32.7706 7.99738 32.7792C7.87985 32.7792 7.7212 32.7792 7.60368 32.7792H7.13947C7.18928 32.7752 7.23559 32.7524 7.26874 32.7155C7.30921 32.7052 7.35167 32.7052 7.39214 32.7155C7.61103 32.7357 7.83137 32.7357 8.05026 32.7155" fill="#FFA900"/>
<path d="M9.68969 26.783C9.83323 26.8889 9.96518 27.0093 10.0834 27.1422L10.1598 27.2175L10.1069 27.1654C9.96373 27.0118 9.80414 26.8739 9.63093 26.754C9.59829 26.7329 9.56866 26.7076 9.54279 26.6787C9.5302 26.6589 9.51431 26.6412 9.49578 26.6266L9.67206 26.754" fill="#FFA900"/>
<path d="M10.148 27.2465C10.1749 27.2748 10.1985 27.3058 10.2185 27.3392C10.2378 27.4095 10.2516 27.4811 10.2597 27.5535C10.2597 27.5535 10.2597 27.5535 10.2009 27.5535C10.0594 27.4147 9.90381 27.2905 9.7367 27.1827C9.68969 27.148 9.66031 27.119 9.65443 27.0843C9.64716 26.9999 9.63141 26.9164 9.60742 26.8351C9.60742 26.8351 9.60742 26.8351 9.67794 26.8351C9.8479 26.9546 10.0054 27.0905 10.148 27.2407" fill="#FFA900"/>
<path d="M10.2068 27.6347C10.2421 27.6616 10.2653 27.7011 10.2714 27.7447C10.2714 27.849 10.2714 27.9649 10.2714 28.0981C10.2714 28.0981 10.2714 28.1329 10.2068 28.0981C10.061 27.9832 9.9057 27.8805 9.74258 27.7911C9.72183 27.7801 9.70406 27.7644 9.69077 27.7452C9.67747 27.7261 9.66905 27.704 9.66619 27.681C9.66619 27.5304 9.66619 27.3971 9.66619 27.2755C9.66619 27.2755 9.69557 27.2407 9.74258 27.2755C9.90508 27.3826 10.0584 27.5027 10.2009 27.6347" fill="#FFA900"/>
<path d="M10.195 28.2777C10.2133 28.2912 10.2281 28.3087 10.2383 28.3288C10.2485 28.3489 10.2538 28.3711 10.2538 28.3936C10.2538 28.5384 10.2244 28.6948 10.2068 28.8686C10.2068 28.9092 10.1715 28.9266 10.1304 28.9092C9.97766 28.8279 9.82075 28.7544 9.66031 28.6891C9.63727 28.6784 9.61813 28.661 9.60551 28.6392C9.59289 28.6175 9.5874 28.5924 9.5898 28.5674C9.5898 28.3762 9.63681 28.1908 9.64856 28.0228C9.64856 27.9823 9.68382 27.9707 9.73083 27.988C9.89297 28.0726 10.0482 28.1694 10.195 28.2777Z" fill="#FFA900"/>
<path d="M10.1069 29.0714C10.1252 29.0828 10.1396 29.0995 10.148 29.1192C10.1564 29.1388 10.1584 29.1606 10.1539 29.1815C10.1304 29.3553 10.101 29.5291 10.0658 29.7029C10.0658 29.7492 10.0246 29.7724 9.9835 29.7666L9.49578 29.6508C9.4728 29.644 9.45331 29.6288 9.4413 29.6084C9.42928 29.5879 9.42565 29.5637 9.43115 29.5407L9.53692 28.9613C9.53692 28.9092 9.57805 28.886 9.63093 28.8976C9.80134 28.9613 9.96 29.0251 10.1069 29.0946" fill="#FFA900"/>
<path d="M9.94236 29.952C9.96103 29.9586 9.97665 29.9716 9.98637 29.9886C9.99609 30.0057 9.99924 30.0256 9.99525 30.0447C9.96 30.2185 9.91886 30.3865 9.87773 30.5487C9.87215 30.5684 9.86081 30.5861 9.84514 30.5995C9.82947 30.6129 9.81015 30.6214 9.78959 30.6241C9.63093 30.6241 9.46052 30.6241 9.27249 30.6241C9.22548 30.6241 9.20785 30.5893 9.21373 30.5372C9.26074 30.346 9.30775 30.149 9.34888 29.9578C9.35318 29.9357 9.36599 29.9162 9.38461 29.9032C9.40324 29.8902 9.42624 29.8849 9.44877 29.8883L9.94236 29.981" fill="#FFA900"/>
<path d="M9.74258 30.7979C9.78371 30.7979 9.80134 30.7979 9.78959 30.8674C9.74846 31.0238 9.70145 31.1744 9.65444 31.3135C9.64654 31.3334 9.63387 31.3513 9.6175 31.3654C9.60114 31.3795 9.58156 31.3895 9.56042 31.3946C9.38216 31.4306 9.20149 31.4538 9.01982 31.4641C8.97281 31.4641 8.9493 31.4641 8.96106 31.3946C9.01394 31.2266 9.06683 31.0586 9.11384 30.8732C9.12299 30.8513 9.13843 30.8325 9.15826 30.8191C9.17809 30.8057 9.20146 30.7983 9.22548 30.7979C9.39765 30.8094 9.57041 30.8094 9.74258 30.7979Z" fill="#FFA900"/>
<path d="M9.50752 31.5452C9.55453 31.5452 9.57216 31.5452 9.56628 31.58C9.52397 31.7023 9.47493 31.8222 9.41938 31.9392C9.39661 31.9755 9.36105 32.0024 9.31949 32.0145C9.12921 32.0814 8.93222 32.128 8.73188 32.1535C8.67899 32.1535 8.65549 32.1535 8.66724 32.1072C8.67899 32.0608 8.77889 31.8465 8.83177 31.7017C8.84092 31.6797 8.85636 31.6609 8.8762 31.6476C8.89603 31.6342 8.91939 31.6268 8.94342 31.6263C9.12534 31.612 9.30599 31.5848 9.48402 31.5452" fill="#FFA900"/>
<path d="M9.30187 32.1246C9.36063 32.1246 9.3665 32.1246 9.36063 32.1246C9.32611 32.1959 9.28479 32.2638 9.23723 32.3273C9.20586 32.3543 9.1701 32.3758 9.13146 32.3911C8.94184 32.4707 8.74512 32.5327 8.54385 32.5765C8.46746 32.5765 8.46746 32.5765 8.47334 32.5765C8.52678 32.5032 8.57395 32.4257 8.61437 32.3447C8.62856 32.3268 8.6463 32.3119 8.6665 32.301C8.6867 32.29 8.70894 32.2832 8.73189 32.281C8.93206 32.2516 9.12885 32.2031 9.3195 32.1362" fill="#FFA900"/>
<path d="M9.04332 32.4722H9.11384L9.05508 32.5185L8.67313 32.6691C8.54386 32.7097 8.36757 32.756 8.23242 32.785C8.26974 32.7734 8.30389 32.7536 8.33231 32.7271L8.44984 32.6865C8.65177 32.6452 8.84872 32.5831 9.03745 32.5011" fill="#FFA900"/>
<path d="M10.4242 27.5535L10.6064 27.8606C10.541 27.7374 10.4664 27.6193 10.3831 27.5072L10.3184 27.4145L10.436 27.5651" fill="#FFA900"/>
<path d="M10.7121 28.075L10.7591 28.1792C10.7591 28.2198 10.7591 28.2719 10.7591 28.3357C10.7573 28.3183 10.7573 28.3009 10.7591 28.2835C10.6814 28.1181 10.5869 27.9609 10.4771 27.8142C10.4534 27.7819 10.4337 27.7469 10.4183 27.71C10.4143 27.6394 10.4025 27.5695 10.3831 27.5014L10.4242 27.5535C10.5429 27.7172 10.6452 27.8918 10.7298 28.075" fill="#FFA900"/>
<path d="M10.7591 28.3646C10.7781 28.3966 10.7901 28.4321 10.7944 28.4689C10.8003 28.5557 10.8003 28.6428 10.7944 28.7296C10.7058 28.5857 10.5992 28.4534 10.4771 28.3357C10.4453 28.305 10.4264 28.2636 10.4242 28.2198C10.4301 28.1098 10.4301 27.9996 10.4242 27.8896C10.4242 27.8548 10.4653 27.8896 10.4771 27.8896C10.5932 28.0312 10.6936 28.1846 10.7768 28.3472" fill="#FFA900"/>
<path d="M10.7474 28.8223C10.7696 28.8527 10.7819 28.8891 10.7826 28.9266C10.7826 29.0309 10.7826 29.1467 10.7474 29.2684C10.7474 29.2974 10.7474 29.3031 10.7004 29.2684C10.6065 29.1739 10.502 29.0904 10.389 29.0193C10.3734 29.0067 10.3611 28.9907 10.3529 28.9726C10.3448 28.9545 10.341 28.9348 10.3419 28.915C10.3419 28.7528 10.3831 28.6021 10.389 28.4631C10.389 28.4283 10.4183 28.4225 10.4477 28.4631C10.5622 28.5681 10.6629 28.6868 10.7474 28.8165" fill="#FFA900"/>
<path d="M10.6828 29.4364C10.6934 29.4482 10.7015 29.4619 10.7065 29.4769C10.7116 29.4918 10.7135 29.5076 10.7121 29.5233C10.7121 29.6508 10.671 29.7782 10.6475 29.8999C10.6475 29.9346 10.6181 29.952 10.5946 29.9462L10.2538 29.8477C10.2185 29.8477 10.2068 29.8072 10.2127 29.7608L10.3008 29.2626C10.3008 29.222 10.3008 29.2047 10.3654 29.222C10.478 29.2832 10.5842 29.355 10.6828 29.4364Z" fill="#FFA900"/>
<path d="M10.5652 30.0737C10.5652 30.0737 10.6005 30.1027 10.5652 30.1374C10.5652 30.2591 10.5123 30.3807 10.4771 30.5024C10.4853 30.5165 10.4897 30.5325 10.4897 30.5488C10.4897 30.565 10.4853 30.581 10.4771 30.5951C10.3553 30.6213 10.2314 30.6368 10.1069 30.6415C10.0716 30.6415 10.054 30.6415 10.0599 30.5777C10.101 30.4213 10.1422 30.2591 10.1774 30.0969C10.1774 30.0563 10.2127 30.0331 10.2538 30.0389L10.5946 30.1027" fill="#FFA900"/>
<path d="M10.4125 30.6936C10.4125 30.6936 10.4536 30.6936 10.4477 30.7283C10.4477 30.8442 10.3831 30.9543 10.3478 31.0528C10.3351 31.0856 10.3126 31.1139 10.2832 31.1339C10.1521 31.2063 10.0143 31.2664 9.87185 31.3135C9.83072 31.3135 9.81897 31.3135 9.82484 31.2729C9.86598 31.1397 9.91299 30.9948 9.95412 30.85C9.9586 30.8308 9.96884 30.8133 9.98351 30.7999C9.99817 30.7864 10.0166 30.7777 10.0364 30.7747C10.1641 30.7597 10.29 30.7325 10.4125 30.6936Z" fill="#FFA900"/>
<path d="M10.242 31.244C10.2832 31.215 10.2891 31.244 10.2832 31.244L10.1833 31.4989L10.1069 31.5858C9.96602 31.695 9.81445 31.7901 9.65444 31.8696C9.59567 31.8986 9.59568 31.8696 9.60155 31.8696C9.64856 31.7712 9.68969 31.6553 9.7367 31.5336C9.75507 31.4969 9.78642 31.4681 9.82484 31.4525C9.96998 31.3978 10.1096 31.3299 10.242 31.2497" fill="#FFA900"/>
<path d="M10.0658 31.6669H10.1128C10.0873 31.7192 10.0578 31.7695 10.0246 31.8175L9.94824 31.8986C9.79755 32.0316 9.63422 32.1499 9.46052 32.252H9.39589C9.43816 32.1913 9.47549 32.1274 9.50753 32.0608C9.53204 32.0261 9.56697 31.9997 9.60742 31.9855C9.76936 31.9001 9.92113 31.7971 10.0599 31.6785" fill="#FFA900"/>
<path d="M9.88948 31.9276L9.93649 31.8812C9.84247 31.9623 9.7132 32.0724 9.6133 32.1477C9.51341 32.223 9.36651 32.3157 9.25486 32.3795L9.30187 32.3331L9.40176 32.2694C9.57437 32.17 9.7376 32.0557 9.88948 31.9276Z" fill="#FFA900"/>
<path d="M10.8825 28.5384C10.9331 28.7288 10.9704 28.9224 10.9942 29.1178C10.9771 28.9465 10.9416 28.7776 10.8884 28.6137V28.5095C10.8926 28.4613 10.8926 28.4128 10.8884 28.3646L10.9354 28.5268" fill="#FFA900"/>
<path d="M11.0001 29.2047C11.0001 29.2452 11.0001 29.3032 11.0001 29.3437V29.4364C11.0001 29.4364 11.0001 29.4364 11.0001 29.3958C10.9822 29.2512 10.9467 29.1092 10.8943 28.9729C10.8879 28.9404 10.8879 28.907 10.8943 28.8744C10.8943 28.7875 10.8943 28.7122 10.8943 28.6427C10.8943 28.6427 10.8943 28.6427 10.8943 28.6948C10.947 28.8628 10.9824 29.0355 11.0001 29.2105" fill="#FFA900"/>
<path d="M10.9942 29.4364C10.9961 29.4634 10.9961 29.4905 10.9942 29.5175V29.6971C10.9666 29.6064 10.925 29.5204 10.8708 29.4422C10.8614 29.414 10.8614 29.3835 10.8708 29.3553C10.8708 29.2452 10.8708 29.1409 10.8708 29.0482C10.9231 29.1725 10.9586 29.303 10.9766 29.4364" fill="#FFA900"/>
<path d="M10.9589 29.7782C10.9618 29.7974 10.9618 29.8169 10.9589 29.8361L10.9237 30.0331C10.8727 30.0059 10.8197 29.9826 10.765 29.9636C10.765 29.9636 10.765 29.9636 10.765 29.8999C10.765 29.8361 10.812 29.6739 10.8297 29.5581C10.8297 29.531 10.8414 29.531 10.8649 29.5581C10.9215 29.6207 10.9654 29.6935 10.9942 29.7724" fill="#FFA900"/>
<path d="M10.8943 30.1316C10.8943 30.1316 10.8943 30.2591 10.8532 30.317C10.8456 30.3355 10.8358 30.353 10.8238 30.3691C10.7656 30.4174 10.7002 30.4565 10.6299 30.485C10.6299 30.485 10.6299 30.485 10.6299 30.4503C10.6299 30.4155 10.6886 30.2301 10.7121 30.12C10.7356 30.0099 10.7121 30.0737 10.7533 30.0737H10.9178" fill="#FFA900"/>
<path d="M10.812 30.4619C10.8007 30.5189 10.7849 30.5751 10.765 30.6299L10.7298 30.6994C10.6625 30.8058 10.5793 30.9015 10.483 30.9833C10.5143 30.8906 10.5437 30.7921 10.5711 30.6878C10.5818 30.6618 10.6002 30.6396 10.624 30.6241C10.7035 30.5877 10.7738 30.5343 10.8297 30.4676" fill="#FFA900"/>
<path d="M10.7239 30.7631C10.7239 30.7631 10.7239 30.7341 10.7239 30.7283C10.7239 30.7805 10.6886 30.821 10.671 30.8616C10.6602 30.8918 10.6464 30.9209 10.6299 30.9485C10.5476 31.0958 10.4491 31.2338 10.3361 31.3598L10.2949 31.3946C10.2949 31.3251 10.3596 31.2497 10.3889 31.1628C10.4039 31.1328 10.4238 31.1054 10.4477 31.0817C10.5482 30.992 10.6353 30.8886 10.7063 30.7747" fill="#FFA900"/>
<path d="M10.624 30.989C10.6259 30.9756 10.6259 30.9619 10.624 30.9485L10.5946 31.0006C10.5299 31.1266 10.4573 31.2485 10.3772 31.3656L10.2185 31.5684V31.6089C10.2185 31.6089 10.1833 31.6495 10.1657 31.6611C10.197 31.6191 10.2245 31.5745 10.2479 31.5278C10.2673 31.4973 10.2889 31.4683 10.3126 31.4409C10.4334 31.31 10.5361 31.1639 10.6181 31.0064" fill="#FFA900"/>
<path d="M10.9766 29.8836C10.974 29.8642 10.974 29.8446 10.9766 29.8253C10.9737 29.7903 10.9737 29.7552 10.9766 29.7203C10.9766 29.8194 10.9766 29.8369 10.9766 29.9011" fill="#FFA900"/>
<path d="M10.9707 29.9288V30.0163V30.1155C10.9688 30.1058 10.9688 30.0959 10.9707 30.0863C10.9707 30.0338 10.9707 29.9872 10.9707 29.9347" fill="#FFA900"/>
<path d="M10.9354 30.1316V30.1783V30.2658V30.3008L10.9713 30.155" fill="#FFA900"/>
<path d="M10.889 30.323V30.3638C10.8797 30.4015 10.8677 30.4385 10.8532 30.4746L10.889 30.3463V30.2938" fill="#FFA900"/>
<path d="M79.345 30.5951C78.4271 30.0446 77.7345 29.1936 77.3883 28.1908L76.877 26.9105H70.5896L68.6505 31.1339H67.4224L74.3679 15.8161H75.4256L80.7141 28.2082C81.3017 29.645 82.1244 30.4213 83.1645 30.5256V31.1049C82.7929 31.1908 82.4119 31.2297 82.0304 31.2208C81.0971 31.2294 80.1756 31.0147 79.345 30.5951ZM71.0832 25.8503H76.4011L73.8156 19.7904L71.0832 25.8503Z" fill="#0071BC"/>
<path d="M85.9204 29.7724C85.0265 28.5939 84.5739 27.1467 84.6394 25.6765C84.5751 24.2045 85.0367 22.7571 85.9439 21.5863C86.4002 21.0503 86.9775 20.627 87.6295 20.3504C88.2815 20.0737 88.9901 19.9514 89.6987 19.9931C90.318 20.0036 90.9305 20.1213 91.5085 20.3407C91.7341 20.4448 91.9538 20.5608 92.1667 20.6883V18.8344C92.2056 18.2371 92.0925 17.6397 91.8376 17.0964C91.6941 16.8892 91.495 16.7253 91.2626 16.623C91.0303 16.5208 90.7736 16.4841 90.5213 16.5171H90.2863V15.8161H93.1127C93.5614 15.7895 94.0088 15.8858 94.4055 16.0941C94.7277 16.3108 94.9545 16.6401 95.0401 17.0153C95.1837 17.6109 95.2469 18.2225 95.2281 18.8344V31.1339H93.2302L92.4076 30.0853H92.2901C92.1089 30.3398 91.8842 30.5613 91.6261 30.7399C91.0381 31.1749 90.3156 31.396 89.5812 31.3656C88.8867 31.4037 88.193 31.2792 87.5568 31.0023C86.9205 30.7254 86.3598 30.3039 85.9204 29.7724ZM91.6261 29.5754C91.8432 29.348 92.0254 29.0903 92.1667 28.8107V21.7369C91.9873 21.5958 91.7897 21.4789 91.579 21.3893C91.1335 21.1685 90.6438 21.0478 90.1453 21.0359C88.5783 21.0359 87.7948 22.5808 87.7948 25.6707C87.7473 26.8273 87.9269 27.982 88.3237 29.0714C88.4332 29.4322 88.6585 29.7481 88.9658 29.9717C89.2732 30.1953 89.6458 30.3145 90.0278 30.3112C90.3323 30.3099 90.6329 30.2435 90.9089 30.1165C91.1849 29.9894 91.4295 29.8048 91.6261 29.5754Z" fill="#0071BC"/>
<path d="M99.9349 23.2432C99.9708 22.6473 99.862 22.0514 99.6176 21.5052C99.4769 21.298 99.2801 21.1338 99.0494 21.0314C98.8188 20.929 98.5637 20.8924 98.3131 20.9259H98.078V20.2249H100.428C101.451 20.2249 102.115 20.5203 102.432 21.1113H102.526C103.33 20.3907 104.378 19.9919 105.464 19.9931C106.161 19.9784 106.851 20.1253 107.48 20.4218C107.949 20.6346 108.369 20.9402 108.714 21.3198C109.092 20.9145 109.547 20.5858 110.054 20.3523C110.687 20.0918 111.371 19.9693 112.057 19.9931C114.799 19.9931 116.171 21.4164 116.171 24.2629V31.1339H113.109V24.2223C113.167 23.4169 112.987 22.6121 112.592 21.905C112.449 21.6755 112.249 21.4865 112.01 21.3565C111.771 21.2264 111.502 21.1599 111.229 21.1634C110.824 21.1609 110.423 21.2439 110.054 21.4067C109.722 21.5465 109.431 21.7655 109.207 22.044C109.207 22.1019 109.301 22.2757 109.395 22.5538C109.533 23.1229 109.596 23.707 109.583 24.2918V31.1339H106.528V24.2223C106.584 23.4163 106.403 22.6114 106.005 21.905C105.863 21.6751 105.662 21.4857 105.423 21.3557C105.184 21.2256 104.915 21.1593 104.642 21.1634C104.281 21.1701 103.928 21.27 103.619 21.4531C103.313 21.6062 103.044 21.8237 102.832 22.0903L102.902 22.4148C102.976 22.7103 103.008 23.0145 102.996 23.3186V31.1397H99.9349V23.2432Z" fill="#0071BC"/>
<path d="M120.766 23.2432C120.802 22.6461 120.689 22.0493 120.437 21.5052C120.291 21.2985 120.091 21.1351 119.858 21.033C119.625 20.9308 119.368 20.8937 119.114 20.9259H118.879V20.2249H121.706C122.154 20.1983 122.602 20.2945 122.999 20.5029C123.321 20.7196 123.548 21.0489 123.633 21.4241C123.78 22.0191 123.843 22.6312 123.821 23.2432V31.1339H120.766V23.2432ZM120.989 18.4636C120.682 18.1182 120.518 17.6714 120.531 17.2123C120.518 17.0404 120.542 16.8677 120.602 16.7059C120.663 16.544 120.757 16.3965 120.879 16.2733C121.001 16.15 121.149 16.0538 121.311 15.9909C121.474 15.9281 121.649 15.9001 121.823 15.9087C122.065 15.8949 122.307 15.9333 122.533 16.0214C122.758 16.1094 122.961 16.245 123.128 16.4186C123.436 16.7657 123.599 17.2147 123.586 17.6757C123.598 17.8472 123.573 18.0192 123.512 18.1804C123.452 18.3415 123.358 18.4883 123.235 18.6109C123.113 18.7335 122.966 18.8292 122.804 18.8917C122.641 18.9542 122.468 18.982 122.293 18.9735C122.051 18.9886 121.809 18.9507 121.583 18.8625C121.358 18.7744 121.155 18.6382 120.989 18.4636Z" fill="#0071BC"/>
<path d="M128.687 30.4097C128.433 30.1389 128.278 29.7923 128.246 29.4248C128.178 28.8364 128.149 28.2442 128.158 27.652H128.933C129.027 28.3742 129.345 29.0501 129.844 29.587C130.103 29.8381 130.413 30.0327 130.753 30.1585C131.093 30.2842 131.456 30.3382 131.819 30.317C133.299 30.317 134.04 29.7956 134.04 28.7412C134.043 28.5502 134.002 28.3611 133.92 28.1883C133.837 28.0155 133.715 27.8637 133.564 27.7447C133.092 27.3949 132.582 27.0994 132.042 26.8641L130.867 26.3543C130.071 26.0218 129.348 25.5397 128.74 24.9349C128.478 24.6413 128.282 24.2974 128.162 23.925C128.043 23.5527 128.003 23.1599 128.046 22.7716C128.088 22.3833 128.212 22.008 128.409 21.6693C128.607 21.3306 128.873 21.0361 129.192 20.8042C130.1 20.2278 131.168 19.9444 132.248 19.9931C133.975 19.9931 135.166 20.3098 135.82 20.9432C136.071 21.2137 136.226 21.5574 136.261 21.9223C136.332 22.5145 136.363 23.1105 136.355 23.7067H135.573C135.483 22.9835 135.164 22.3066 134.663 21.7717C134.405 21.5211 134.098 21.3263 133.76 21.1996C133.422 21.0729 133.061 21.0171 132.7 21.0359C132.187 20.9959 131.678 21.1515 131.278 21.4704C131.12 21.6188 130.997 21.7993 130.917 21.9994C130.836 22.1995 130.801 22.4144 130.814 22.6291C130.808 22.807 130.84 22.9842 130.907 23.1496C130.973 23.315 131.074 23.4651 131.202 23.5908C131.548 23.9046 131.945 24.1592 132.377 24.344L133.711 24.9233C134.576 25.2653 135.372 25.7578 136.061 26.3775C136.309 26.6285 136.503 26.926 136.633 27.2524C136.762 27.5788 136.823 27.9275 136.813 28.2777C136.834 28.7391 136.729 29.1976 136.509 29.6053C136.289 30.0129 135.962 30.3548 135.562 30.5951C134.564 31.1686 133.419 31.4462 132.265 31.3946C130.534 31.3753 129.341 31.047 128.687 30.4097Z" fill="#0071BC"/>
<path d="M140.627 30.4097C140.357 30.1466 140.19 29.7976 140.157 29.4248C140.084 28.8368 140.052 28.2444 140.063 27.652H140.885C140.991 28.3814 141.328 29.059 141.849 29.5871C142.132 29.8404 142.463 30.0354 142.823 30.1608C143.183 30.2861 143.566 30.3392 143.947 30.317C145.516 30.317 146.297 29.7956 146.297 28.7412C146.299 28.5475 146.254 28.3562 146.166 28.1829C146.079 28.0097 145.95 27.8595 145.792 27.7447C145.291 27.3915 144.751 27.096 144.182 26.8641L142.954 26.3543C142.118 26.0254 141.352 25.5439 140.697 24.9349C140.452 24.6915 140.259 24.4019 140.13 24.0834C140.001 23.7649 139.938 23.424 139.945 23.081C139.932 22.6284 140.038 22.1801 140.255 21.7806C140.471 21.3812 140.79 21.0446 141.179 20.8042C142.154 20.2247 143.28 19.9425 144.417 19.9931C146.25 19.9931 147.514 20.3098 148.207 20.9433C148.469 21.2092 148.635 21.5536 148.677 21.9223C148.748 22.5145 148.779 23.1105 148.771 23.7067H147.978C147.874 22.9758 147.534 22.2973 147.008 21.7717C146.727 21.5175 146.397 21.3215 146.038 21.1951C145.679 21.0687 145.297 21.0146 144.916 21.0359C144.376 20.9948 143.839 21.1493 143.406 21.4705C143.241 21.6146 143.111 21.7937 143.025 21.9943C142.94 22.1949 142.901 22.4119 142.913 22.6291C142.908 22.8095 142.944 22.9887 143.016 23.1546C143.088 23.3205 143.195 23.4692 143.33 23.5909C143.703 23.9097 144.128 24.1643 144.587 24.344L145.998 24.9233C146.914 25.2586 147.764 25.7509 148.507 26.3775C148.792 26.6726 149.005 27.0272 149.132 27.4149C149.259 27.8027 149.295 28.2136 149.239 28.6171C149.182 29.0207 149.034 29.4065 148.806 29.7459C148.577 30.0854 148.274 30.3697 147.919 30.5777C146.852 31.1551 145.645 31.4317 144.429 31.3772C142.584 31.3695 141.316 31.047 140.627 30.4097Z" fill="#0071BC"/>
<path d="M153.313 23.2432C153.351 22.6454 153.236 22.0479 152.978 21.5052C152.835 21.298 152.636 21.1341 152.403 21.0318C152.171 20.9296 151.914 20.8929 151.662 20.9259H151.427V20.2249H154.254C154.702 20.1983 155.15 20.2945 155.546 20.5029C155.877 20.7154 156.113 21.0452 156.204 21.4241C156.348 22.0197 156.411 22.6313 156.392 23.2432V31.1339H153.337L153.313 23.2432ZM153.537 18.4636C153.225 18.1203 153.059 17.6726 153.072 17.2123C153.061 17.0401 153.086 16.8673 153.147 16.7054C153.207 16.5436 153.302 16.3962 153.425 16.2731C153.548 16.1499 153.695 16.0538 153.858 15.991C154.021 15.9282 154.196 15.9002 154.371 15.9087C154.613 15.8949 154.855 15.9333 155.081 16.0214C155.306 16.1094 155.509 16.245 155.676 16.4186C155.984 16.7657 156.147 17.2147 156.134 17.6757C156.146 17.8472 156.121 18.0192 156.06 18.1804C156 18.3415 155.905 18.4883 155.783 18.6109C155.661 18.7335 155.514 18.8292 155.352 18.8917C155.189 18.9542 155.015 18.982 154.841 18.9735C154.599 18.9886 154.357 18.9507 154.131 18.8625C153.905 18.7744 153.703 18.6382 153.537 18.4636Z" fill="#0071BC"/>
<path d="M162.668 30.5951C161.829 30.1106 161.146 29.4015 160.7 28.55C160.248 27.6492 160.014 26.658 160.014 25.6533C160.014 24.6486 160.248 23.6574 160.7 22.7566C161.152 21.9179 161.834 21.2213 162.668 20.7463C163.588 20.2519 164.62 19.9928 165.668 19.9928C166.716 19.9928 167.747 20.2519 168.668 20.7463C169.504 21.2326 170.184 21.9413 170.63 22.7913C171.082 23.6921 171.316 24.6833 171.316 25.688C171.316 26.6928 171.082 27.684 170.63 28.5848C170.172 29.425 169.484 30.1216 168.644 30.5951C167.727 31.0854 166.7 31.3422 165.656 31.3422C164.613 31.3422 163.586 31.0854 162.668 30.5951ZM167.504 29.0251C167.97 27.9644 168.187 26.8138 168.139 25.6591C168.186 24.5062 167.969 23.3577 167.504 22.2989C167.371 21.9233 167.123 21.5978 166.794 21.3674C166.465 21.1371 166.071 21.0134 165.668 21.0134C165.264 21.0134 164.871 21.1371 164.542 21.3674C164.213 21.5978 163.965 21.9233 163.832 22.2989C163.367 23.3577 163.15 24.5062 163.197 25.6591C163.149 26.8138 163.366 27.9644 163.832 29.0251C163.967 29.398 164.217 29.7206 164.545 29.9486C164.874 30.1766 165.266 30.299 165.668 30.299C166.07 30.299 166.462 30.1766 166.791 29.9486C167.119 29.7206 167.368 29.398 167.504 29.0251Z" fill="#0071BC"/>
<path d="M175.431 23.2432C175.467 22.6473 175.358 22.0514 175.114 21.5052C174.973 21.298 174.776 21.1338 174.546 21.0314C174.315 20.929 174.06 20.8924 173.809 20.9259H173.574V20.2249H175.925C176.355 20.2092 176.784 20.2761 177.188 20.4218C177.496 20.5583 177.749 20.793 177.905 21.0881C178.866 20.3027 180.097 19.9108 181.342 19.9931C182.829 19.9931 183.945 20.3407 184.692 21.0244C185.438 21.708 185.808 22.7971 185.808 24.2629V31.1339H182.753V24.2223C182.819 23.4073 182.612 22.5934 182.165 21.905C181.971 21.6618 181.721 21.4678 181.436 21.3388C181.151 21.2098 180.839 21.1497 180.526 21.1634C180.09 21.155 179.657 21.2216 179.245 21.3604C178.914 21.4642 178.612 21.6428 178.363 21.8818L178.434 22.2062C178.51 22.5012 178.542 22.8058 178.528 23.11V31.1339H175.466L175.431 23.2432Z" fill="#0071BC"/>
<path d="M70.7306 39.7545V51.2429H69.5554V38.7059C69.5843 38.1558 69.4134 37.6136 69.0736 37.1764C68.8597 36.9678 68.6021 36.8079 68.3189 36.7078C68.0357 36.6077 67.7337 36.5699 67.4341 36.5971H67.3166V35.925H68.9678C69.6997 35.904 70.4291 36.0179 71.1185 36.2611C71.6725 36.4847 72.1555 36.8508 72.517 37.3213L80.6142 46.5908V35.925H81.7895V51.3124H80.7083L70.7306 39.7545Z" fill="#0071BC"/>
<path d="M86.8664 50.7331C86.0581 50.2396 85.4034 49.536 84.9743 48.6996C84.5195 47.8006 84.2897 46.8073 84.3044 45.8028C84.2728 44.7354 84.5026 43.6762 84.9743 42.715C85.3838 41.9042 86.0252 41.2294 86.8194 40.7742C87.6323 40.3269 88.5505 40.099 89.4813 40.1137C90.3925 40.103 91.2937 40.3013 92.1138 40.693C92.8761 41.0598 93.5208 41.6272 93.9765 42.3326C94.4363 43.0579 94.673 43.899 94.6581 44.7542C94.6581 45.0497 94.6581 45.3857 94.6111 45.7565L94.5641 46.22H87.454C87.454 47.6857 87.6773 48.7575 88.1357 49.4295C88.3338 49.7493 88.6144 50.0116 88.9488 50.1897C89.2833 50.3678 89.6596 50.4553 90.0395 50.4434C90.7081 50.4652 91.3684 50.2919 91.9375 49.9452C92.5047 49.5523 93.0013 49.0686 93.4065 48.5142L94.1352 49.0472C93.6887 49.7314 93.1096 50.3221 92.4311 50.7852C91.6089 51.2855 90.652 51.528 89.6869 51.4804C88.6947 51.4936 87.7183 51.2348 86.8664 50.7331ZM91.4792 45.1598C91.5553 44.1028 91.3781 43.0431 90.9621 42.0661C90.8302 41.7896 90.6206 41.5563 90.358 41.394C90.0955 41.2317 89.7911 41.1473 89.4813 41.1507C89.1754 41.158 88.8777 41.2498 88.6221 41.4157C88.3665 41.5817 88.1634 41.815 88.0358 42.0893C87.5982 43.0524 87.4085 44.1071 87.4834 45.1598H91.4792Z" fill="#0071BC"/>
<path d="M98.1955 50.6056C97.8805 50.2676 97.6388 49.8697 97.4852 49.4364C97.3316 49.003 97.2694 48.5433 97.3024 48.0855V41.3825H95.8862V40.3338H97.3024V38.2482L98.4776 36.8578H100.381V40.3338H102.973V41.3825H100.381V48.2245C100.334 48.8199 100.439 49.4177 100.687 49.9625C100.784 50.1146 100.919 50.2387 101.08 50.3221C101.241 50.4056 101.422 50.4454 101.604 50.4376C102.061 50.4318 102.512 50.3291 102.926 50.1363C103.096 50.0378 103.278 49.9336 103.466 49.8061L103.795 50.4608C103.564 50.6464 103.321 50.8167 103.067 50.9706C102.337 51.3258 101.53 51.5007 100.716 51.4804C100.258 51.5086 99.7989 51.4456 99.3659 51.2954C98.9328 51.1451 98.5348 50.9105 98.1955 50.6056Z" fill="#0071BC"/>
<path d="M105.582 43.0046C105.329 42.3434 104.972 41.7256 104.524 41.1739C104.24 40.842 103.835 40.6339 103.396 40.5946V40.1543L104.524 40.1079C105.412 40.07 106.292 40.2874 107.057 40.7336C107.843 41.3204 108.453 42.1075 108.82 43.0104L110.823 47.4424L112.398 43.7288L112.069 43.0104C111.804 42.3619 111.448 41.7534 111.011 41.2029C110.759 40.8896 110.396 40.6825 109.995 40.6235V40.1832L110.894 40.1369C111.829 40.1064 112.755 40.3266 113.573 40.7741C114.403 41.3292 115.042 42.119 115.407 43.0394L117.575 47.6741L120.448 40.3396H121.694L117.352 51.4514H116.247L113.185 44.928L110.477 51.4514H109.419L105.582 43.0046Z" fill="#0071BC"/>
<path d="M125.296 50.7215C124.458 50.2353 123.776 49.5266 123.328 48.6764C122.876 47.7756 122.642 46.7844 122.642 45.7797C122.642 44.775 122.876 43.7838 123.328 42.883C123.775 42.0332 124.457 41.3261 125.296 40.8437C126.215 40.3457 127.247 40.0846 128.296 40.0846C129.345 40.0846 130.376 40.3457 131.296 40.8437C132.133 41.3262 132.813 42.0334 133.258 42.883C133.713 43.7826 133.95 44.7743 133.95 45.7797C133.95 46.7851 133.713 47.7767 133.258 48.6764C132.812 49.5264 132.132 50.2352 131.296 50.7215C130.375 51.2158 129.344 51.4749 128.296 51.4749C127.248 51.4749 126.216 51.2158 125.296 50.7215ZM130.132 49.1514C130.978 46.987 130.978 44.5897 130.132 42.4253C129.996 42.0523 129.747 41.7298 129.419 41.5017C129.09 41.2737 128.698 41.1513 128.296 41.1513C127.894 41.1513 127.502 41.2737 127.173 41.5017C126.845 41.7298 126.595 42.0523 126.46 42.4253C125.613 44.5897 125.613 46.987 126.46 49.1514C126.593 49.527 126.841 49.8526 127.17 50.0829C127.499 50.3132 127.892 50.4369 128.296 50.4369C128.699 50.4369 129.093 50.3132 129.422 50.0829C129.751 49.8526 129.999 49.527 130.132 49.1514Z" fill="#0071BC"/>
<path d="M144.37 41.2318C144.44 41.3555 144.503 41.4832 144.558 41.6142L143.353 42.518C143.227 42.3582 143.085 42.2108 142.93 42.0777C142.614 41.7796 142.193 41.6136 141.755 41.6142C141.375 41.5882 140.994 41.6385 140.634 41.7619C140.275 41.8854 139.944 42.0795 139.663 42.3326L139.71 42.6802C139.739 42.9341 139.755 43.1894 139.757 43.4449V51.2429H136.696V43.3406C136.732 42.7446 136.623 42.1488 136.378 41.6026C136.238 41.3954 136.041 41.2312 135.81 41.1288C135.58 41.0264 135.325 40.9898 135.074 41.0233H134.839V40.328H137.189C137.618 40.3122 138.045 40.3791 138.447 40.525C138.758 40.6596 139.013 40.8946 139.17 41.1913C139.977 40.4791 141.024 40.0887 142.108 40.0963C142.701 40.0738 143.287 40.2359 143.782 40.5598C144.028 40.7365 144.229 40.9664 144.37 41.2318Z" fill="#0071BC"/>
<path d="M152.973 51.0459C152.33 50.6972 151.777 50.2076 151.357 49.6149L149.1 46.7182V51.2661H146.039V38.9434C146.075 38.3463 145.962 37.7495 145.71 37.2054C145.566 36.9982 145.367 36.8343 145.135 36.7321C144.902 36.6298 144.646 36.5931 144.393 36.6261H144.158V35.9251H146.979C147.429 35.8986 147.879 35.9948 148.278 36.2031C148.595 36.4246 148.82 36.7518 148.912 37.1243C149.056 37.7199 149.119 38.3315 149.1 38.9434V45.5595L151.944 42.124C152.367 41.5874 152.878 41.1234 153.454 40.751C154.032 40.4478 154.681 40.3037 155.335 40.3339H155.805V40.9132C155.365 40.9054 154.929 41.0028 154.536 41.1971C154.117 41.4131 153.749 41.7131 153.454 42.0777L151.169 44.8122L154.301 48.8676C155.053 49.8756 155.781 50.4608 156.486 50.6346V51.2139C156.264 51.2988 156.031 51.3534 155.793 51.3761C155.486 51.4204 155.175 51.4436 154.865 51.4457C154.211 51.4626 153.562 51.3256 152.973 51.0459Z" fill="#0071BC"/>
<path d="M163.362 49.7134C163.802 49.2847 164.161 48.9429 164.443 48.6938C165.618 47.6451 166.587 46.6661 167.434 45.797C168.276 44.9088 169.024 43.9382 169.667 42.9003C170.257 42.0278 170.59 41.0111 170.63 39.9631C170.699 39.0482 170.432 38.1393 169.878 37.4024C169.658 37.1314 169.379 36.9126 169.062 36.7622C168.744 36.6118 168.397 36.5336 168.045 36.5334C167.577 36.5178 167.112 36.5983 166.678 36.7699C166.244 36.9414 165.851 37.2003 165.524 37.5298C164.775 38.3933 164.308 39.4594 164.184 40.5888H163.362C163.353 39.9232 163.384 39.2577 163.456 38.5958C163.493 38.1441 163.656 37.7112 163.926 37.3444C164.446 36.7615 165.098 36.3071 165.829 36.0177C166.685 35.6485 167.61 35.4591 168.544 35.4616C169.872 35.4346 171.18 35.7737 172.323 36.4407C173.412 37.0895 173.956 38.2482 173.956 39.9167C173.921 41.0784 173.532 42.2028 172.84 43.1437C172.111 44.2244 171.257 45.2178 170.295 46.1041C169.349 46.9789 168.239 47.9059 166.969 48.8965C166.437 49.2977 165.925 49.7251 165.436 50.1769H170.307C171.092 50.2285 171.869 49.9911 172.487 49.5106C172.748 49.2712 172.952 48.9776 173.084 48.651C173.216 48.3244 173.273 47.9729 173.251 47.622H173.956V49.36C173.956 50.5998 173.29 51.2197 171.958 51.2197H163.362V49.7134Z" fill="#0071BC"/>
<path d="M182.823 51.2429V47.2976H175.29V46.3706L183.434 35.9424H185.885V46.2374H188V47.2802H185.885V51.2255L182.823 51.2429ZM176.918 46.2374H182.823V38.6422L176.918 46.2374Z" fill="#0071BC"/>
<path d="M71.4475 61.9607H70.7424V59.7998L68.8679 56.6192H69.6671L71.1008 59.2146L72.5228 56.6192H73.3514L71.4769 59.8056L71.4475 61.9607Z" fill="#6D6E71"/>
<path d="M73.7803 60.1706V59.7766C73.7613 59.5261 73.7948 59.2744 73.8787 59.0372C73.9626 58.7999 74.0951 58.5823 74.268 58.3978C74.6483 58.0904 75.1249 57.9224 75.6166 57.9224C76.1083 57.9224 76.5849 58.0904 76.9652 58.3978C77.1345 58.5845 77.2643 58.8026 77.347 59.0393C77.4297 59.2761 77.4637 59.5267 77.447 59.7766V60.1706C77.4654 60.4206 77.4322 60.6717 77.3494 60.9086C77.2666 61.1456 77.1359 61.3636 76.9652 61.5494C76.5863 61.8599 76.1092 62.0299 75.6166 62.0299C75.124 62.0299 74.6469 61.8599 74.268 61.5494C74.0951 61.3648 73.9626 61.1472 73.8787 60.91C73.7948 60.6728 73.7613 60.4211 73.7803 60.1706ZM76.783 59.794C76.783 58.9365 76.3952 58.5078 75.6078 58.5078C74.8204 58.5078 74.4326 58.9365 74.4326 59.794V60.1416C74.4326 61.0048 74.8204 61.4335 75.6078 61.4335C76.3952 61.4335 76.783 61.0048 76.783 60.1416V59.794Z" fill="#6D6E71"/>
<path d="M78.3813 60.3849V57.998H79.0512V60.3154C79.0512 61.0569 79.3979 61.4219 80.103 61.4219C80.2473 61.4349 80.3927 61.4173 80.5295 61.3703C80.6663 61.3234 80.7914 61.2481 80.8963 61.1496C81.0835 60.9126 81.1737 60.6149 81.149 60.3154V57.998H81.8188V60.3849C81.8336 60.6049 81.8021 60.8255 81.7262 61.0328C81.6504 61.2402 81.5319 61.4299 81.3781 61.5899C81.2026 61.7407 80.9985 61.8557 80.7776 61.9283C80.5567 62.0009 80.3235 62.0296 80.0913 62.0129C79.6282 62.0421 79.1722 61.8901 78.822 61.5899C78.6683 61.4299 78.5498 61.2402 78.4739 61.0328C78.3981 60.8255 78.3665 60.6049 78.3813 60.3849Z" fill="#6D6E71"/>
<path d="M83.5288 57.998V58.5773C83.6581 58.3768 83.8439 58.2177 84.0635 58.1197C84.2973 58.0138 84.5526 57.9623 84.8098 57.969C84.9153 57.96 85.0215 57.96 85.1271 57.969V58.5947C84.9859 58.5533 84.8395 58.5319 84.6923 58.531C84.538 58.5243 84.384 58.5486 84.2395 58.6024C84.0951 58.6562 83.9632 58.7383 83.852 58.8438C83.7436 58.9538 83.6595 59.0847 83.6049 59.2283C83.5503 59.3718 83.5264 59.525 83.5347 59.6781V61.9607H82.8707V57.998H83.5288Z" fill="#6D6E71"/>
<path d="M90.7916 59.3768V61.9607H90.1394V61.5088C89.9739 61.6848 89.7698 61.8211 89.5427 61.9075C89.3156 61.9938 89.0715 62.0279 88.829 62.0071C88.4344 62.0304 88.0432 61.9223 87.7184 61.7C87.5901 61.5913 87.4893 61.4546 87.424 61.3007C87.3587 61.1468 87.3308 60.98 87.3424 60.8136C87.3333 60.65 87.3643 60.4867 87.4329 60.3374C87.5014 60.1882 87.6054 60.0574 87.7361 59.9562C88.0731 59.7375 88.4735 59.6337 88.876 59.6607H90.1276V59.3884C90.1276 58.8091 89.7751 58.4904 89.0641 58.4904C88.8183 58.4747 88.5737 58.5355 88.3648 58.6643C88.2883 58.7193 88.2265 58.7918 88.1845 58.8755C88.1426 58.9593 88.1218 59.0517 88.1239 59.1451H87.454C87.4466 58.9749 87.4819 58.8055 87.5567 58.6519C87.6316 58.4983 87.7436 58.3652 87.883 58.2645C88.2272 58.0309 88.6412 57.9187 89.0582 57.9459C89.5172 57.916 89.9723 58.0451 90.3451 58.3109C90.4975 58.4429 90.617 58.6077 90.6944 58.7925C90.7719 58.9774 90.8051 59.1773 90.7916 59.3768ZM90.1276 60.466V60.1416H88.9877C88.7283 60.1244 88.4694 60.1807 88.2414 60.3038C88.1603 60.3572 88.0953 60.4311 88.0529 60.5176C88.0105 60.6042 87.9924 60.7004 88.0005 60.7962C87.9948 60.892 88.0133 60.9876 88.0543 61.0746C88.0953 61.1615 88.1576 61.2371 88.2355 61.2945C88.4565 61.419 88.7103 61.4755 88.9642 61.4567C89.278 61.4822 89.5908 61.3958 89.8456 61.2134C89.9438 61.1157 90.0197 60.9985 90.0683 60.8697C90.117 60.7408 90.1372 60.6032 90.1276 60.466Z" fill="#6D6E71"/>
<path d="M91.726 60.1879V59.7592C91.6907 59.2702 91.8439 58.7861 92.1549 58.4036C92.3057 58.2471 92.4884 58.1239 92.6909 58.042C92.8935 57.9601 93.1113 57.9214 93.3301 57.9285C93.5958 57.9247 93.859 57.9801 94.0999 58.0907C94.3146 58.1882 94.4991 58.3401 94.6346 58.531V56.625H95.2927V61.9665H94.6346V61.4451C94.5038 61.6357 94.3231 61.7879 94.1117 61.8854C93.8708 61.9886 93.6104 62.04 93.3478 62.036C93.1219 62.0463 92.8965 62.0087 92.6867 61.9257C92.4768 61.8428 92.2875 61.7164 92.1314 61.5552C91.8232 61.1677 91.678 60.6781 91.726 60.1879ZM94.664 60.2401V59.7245C94.681 59.3986 94.5694 59.0788 94.3526 58.8323C94.2407 58.7219 94.1064 58.6359 93.9586 58.58C93.8108 58.5241 93.6527 58.4995 93.4947 58.5078C93.3424 58.4997 93.1901 58.5239 93.0482 58.5789C92.9062 58.6339 92.7779 58.7183 92.672 58.8265C92.4562 59.1043 92.3516 59.4508 92.3782 59.7998V60.1416C92.3504 60.4916 92.4574 60.8391 92.6779 61.1149C92.7831 61.224 92.9113 61.309 93.0534 61.3641C93.1955 61.4191 93.3481 61.4428 93.5005 61.4335C93.6588 61.4437 93.8174 61.42 93.9655 61.364C94.1136 61.308 94.2477 61.221 94.3584 61.1091C94.5743 60.8708 94.6881 60.5593 94.6758 60.2401H94.664Z" fill="#6D6E71"/>
<path d="M97.0497 57.998V58.531C97.1908 58.3422 97.3791 58.1925 97.5962 58.0965C97.8254 57.9963 98.0741 57.9469 98.3248 57.9517C98.5779 57.9489 98.8279 58.0065 99.0534 58.1197C99.2617 58.2278 99.4379 58.3876 99.5647 58.5831C99.7159 58.3776 99.9183 58.214 100.152 58.1081C100.407 57.9973 100.684 57.9439 100.963 57.9517C101.168 57.9393 101.373 57.9684 101.566 58.0371C101.759 58.1059 101.936 58.2128 102.086 58.3514C102.224 58.5022 102.331 58.6788 102.4 58.8708C102.468 59.0628 102.497 59.2663 102.485 59.4695V61.9607H101.815V59.5622C101.826 59.4256 101.809 59.2882 101.766 59.158C101.722 59.0277 101.653 58.9072 101.563 58.8033C101.466 58.7135 101.351 58.6445 101.225 58.6006C101.1 58.5568 100.967 58.539 100.834 58.5484C100.548 58.5322 100.267 58.628 100.052 58.8149C99.8696 59.0206 99.7767 59.2892 99.7938 59.5622V61.9549H99.1181V59.5622C99.1375 59.2892 99.0491 59.0193 98.8713 58.8091C98.78 58.7214 98.6712 58.6535 98.5518 58.6096C98.4325 58.5657 98.3051 58.5468 98.1779 58.5542C98.0291 58.5436 97.8797 58.565 97.74 58.6168C97.6004 58.6685 97.4737 58.7495 97.3688 58.854C97.2638 58.9586 97.183 59.0843 97.132 59.2226C97.081 59.3608 97.0609 59.5083 97.0732 59.6549V61.9723H96.4033V57.998H97.0497Z" fill="#6D6E71"/>
<path d="M104.271 56.6308V57.3434H103.602V56.6308H104.271ZM104.271 57.998V61.9607H103.602V57.998H104.271Z" fill="#6D6E71"/>
<path d="M105.165 60.7731H105.799C105.796 60.8724 105.818 60.9709 105.865 61.0592C105.911 61.1475 105.979 61.2225 106.064 61.2771C106.315 61.4177 106.604 61.4822 106.892 61.4625C107.164 61.474 107.435 61.4182 107.68 61.3003C107.767 61.2552 107.841 61.1869 107.892 61.103C107.943 61.0191 107.969 60.9229 107.967 60.8252C107.971 60.7486 107.953 60.6725 107.915 60.6051C107.878 60.5378 107.823 60.4817 107.756 60.4428C107.552 60.3316 107.325 60.27 107.092 60.2633L106.504 60.1937C106.152 60.1757 105.811 60.0592 105.523 59.8577C105.418 59.7679 105.335 59.6553 105.281 59.5287C105.227 59.402 105.203 59.2648 105.212 59.1277C105.205 58.9595 105.242 58.7924 105.318 58.6416C105.394 58.4908 105.507 58.3612 105.646 58.2645C105.996 58.043 106.407 57.9337 106.822 57.9517C107.256 57.9281 107.687 58.0373 108.056 58.2645C108.198 58.3598 108.313 58.4889 108.391 58.6397C108.469 58.7906 108.507 58.9585 108.502 59.1277H107.903C107.903 59.0308 107.878 58.9355 107.831 58.8504C107.783 58.7654 107.715 58.6934 107.633 58.6411C107.398 58.5197 107.133 58.4637 106.869 58.4789C106.607 58.4639 106.346 58.5158 106.111 58.6295C106.033 58.6756 105.969 58.7413 105.926 58.8196C105.883 58.898 105.861 58.9864 105.864 59.0756C105.86 59.147 105.873 59.2183 105.904 59.2831C105.935 59.3478 105.982 59.404 106.04 59.4464C106.23 59.5536 106.444 59.6133 106.663 59.6202L107.251 59.7013C107.609 59.7198 107.955 59.8361 108.25 60.0373C108.359 60.1284 108.446 60.2432 108.503 60.3729C108.56 60.5026 108.586 60.6435 108.579 60.7847C108.584 60.9614 108.544 61.1368 108.462 61.2939C108.38 61.4511 108.258 61.5849 108.109 61.6826C107.727 61.9171 107.282 62.0304 106.833 62.0071C106.393 62.032 105.956 61.9162 105.588 61.6768C105.448 61.5715 105.336 61.4341 105.263 61.2766C105.189 61.1191 105.155 60.9463 105.165 60.7731Z" fill="#6D6E71"/>
<path d="M109.196 60.7731H109.83C109.827 60.8724 109.849 60.9709 109.896 61.0592C109.942 61.1475 110.01 61.2225 110.095 61.2771C110.346 61.4177 110.635 61.4822 110.923 61.4625C111.195 61.474 111.466 61.4182 111.711 61.3003C111.798 61.2549 111.871 61.1864 111.92 61.1024C111.97 61.0185 111.995 60.9225 111.993 60.8252C111.997 60.749 111.98 60.6731 111.944 60.6057C111.908 60.5383 111.853 60.4819 111.787 60.4428C111.583 60.3316 111.356 60.27 111.123 60.2633L110.535 60.1937C110.183 60.1757 109.842 60.0592 109.554 59.8577C109.449 59.7679 109.366 59.6553 109.312 59.5287C109.258 59.402 109.234 59.2648 109.243 59.1277C109.235 58.9593 109.271 58.7918 109.347 58.6408C109.423 58.4899 109.537 58.3604 109.677 58.2645C110.027 58.043 110.438 57.9337 110.853 57.9517C111.287 57.9281 111.718 58.0373 112.087 58.2645C112.229 58.3598 112.344 58.4889 112.422 58.6397C112.5 58.7906 112.538 58.9585 112.533 59.1277H111.899C111.898 59.0308 111.874 58.9355 111.826 58.8504C111.779 58.7654 111.711 58.6934 111.628 58.6411C111.393 58.5197 111.129 58.4637 110.864 58.4789C110.603 58.4639 110.342 58.5158 110.106 58.6295C110.029 58.6756 109.965 58.7413 109.922 58.8196C109.878 58.898 109.857 58.9864 109.86 59.0756C109.855 59.147 109.869 59.2183 109.9 59.2831C109.931 59.3478 109.977 59.404 110.036 59.4464C110.226 59.5536 110.44 59.6133 110.659 59.6202L111.246 59.7013C111.605 59.7198 111.95 59.8361 112.245 60.0373C112.355 60.1284 112.442 60.2432 112.499 60.3729C112.556 60.5026 112.582 60.6435 112.574 60.7847C112.58 60.9614 112.54 61.1368 112.458 61.2939C112.375 61.4511 112.254 61.5849 112.104 61.6826C111.723 61.9171 111.278 62.0304 110.829 62.0071C110.389 62.0328 109.951 61.9169 109.583 61.6768C109.45 61.5678 109.345 61.4289 109.278 61.2716C109.21 61.1143 109.182 60.9433 109.196 60.7731Z" fill="#6D6E71"/>
<path d="M114.184 56.6308V57.3434H113.52V56.6308H114.184ZM114.184 57.998V61.9607H113.52V57.998H114.184Z" fill="#6D6E71"/>
<path d="M115.183 60.1705V59.7766C115.165 59.5279 115.198 59.2782 115.279 59.0422C115.361 58.8063 115.49 58.5891 115.659 58.4035C115.842 58.2389 116.056 58.1121 116.289 58.0305C116.522 57.9489 116.77 57.9142 117.017 57.9285C117.261 57.9142 117.506 57.949 117.736 58.0307C117.966 58.1123 118.177 58.2392 118.356 58.4035C118.527 58.5898 118.658 58.8077 118.741 59.0444C118.825 59.2812 118.86 59.5321 118.844 59.7824V60.1763C118.862 60.4267 118.828 60.6781 118.744 60.9151C118.66 61.1521 118.528 61.3699 118.356 61.5552C118.178 61.7206 117.967 61.8485 117.737 61.9311C117.506 62.0138 117.261 62.0495 117.017 62.036C116.769 62.0492 116.522 62.0134 116.289 61.9308C116.056 61.8483 115.842 61.7205 115.659 61.5552C115.489 61.3682 115.359 61.1491 115.277 60.9111C115.195 60.673 115.163 60.4211 115.183 60.1705ZM118.186 59.794C118.186 58.9365 117.798 58.5078 117.011 58.5078C116.223 58.5078 115.836 58.9365 115.836 59.794V60.1416C115.836 61.0048 116.229 61.4335 117.011 61.4335C117.792 61.4335 118.186 61.0048 118.186 60.1416V59.794Z" fill="#6D6E71"/>
<path d="M120.448 57.998V58.531C120.586 58.3411 120.773 58.191 120.989 58.0965C121.22 57.9969 121.471 57.9475 121.723 57.9517C121.926 57.9395 122.13 57.9687 122.321 58.0375C122.512 58.1063 122.687 58.2131 122.834 58.3514C123.106 58.6601 123.245 59.0612 123.222 59.4695V61.9607H122.558V59.5622C122.568 59.4252 122.55 59.2876 122.505 59.1573C122.461 59.0271 122.391 58.9068 122.299 58.8033C122.2 58.7135 122.083 58.6445 121.956 58.6007C121.828 58.5569 121.693 58.5391 121.559 58.5484C121.41 58.5379 121.261 58.5592 121.121 58.611C120.981 58.6627 120.855 58.7437 120.75 58.8482C120.645 58.9528 120.564 59.0785 120.513 59.2168C120.462 59.355 120.442 59.5025 120.454 59.6491V61.9665H119.773V57.998H120.448Z" fill="#6D6E71"/>
<path d="M125.86 60.1705V59.7766C125.843 59.5262 125.877 59.2748 125.961 59.0378C126.044 58.8008 126.176 58.5831 126.348 58.3977C126.531 58.2331 126.745 58.1063 126.978 58.0247C127.211 57.9431 127.458 57.9084 127.705 57.9227C127.95 57.9085 128.194 57.9432 128.425 58.0249C128.655 58.1065 128.866 58.2334 129.045 58.3977C129.215 58.584 129.346 58.8019 129.43 59.0386C129.514 59.2754 129.549 59.5263 129.533 59.7766V60.1705C129.55 60.4209 129.516 60.6723 129.432 60.9093C129.349 61.1463 129.217 61.3641 129.045 61.5494C128.866 61.7148 128.656 61.8427 128.425 61.9253C128.195 62.008 127.95 62.0437 127.705 62.0302C127.458 62.0434 127.21 62.0076 126.977 61.925C126.744 61.8425 126.53 61.7147 126.348 61.5494C126.176 61.3641 126.044 61.1463 125.961 60.9093C125.877 60.6723 125.843 60.4209 125.86 60.1705ZM128.863 59.794C128.863 58.9365 128.475 58.5078 127.688 58.5078C126.9 58.5078 126.512 58.9365 126.512 59.794V60.1416C126.512 61.0048 126.906 61.4335 127.688 61.4335C128.469 61.4335 128.863 61.0048 128.863 60.1416V59.794Z" fill="#6D6E71"/>
<path d="M130.467 60.3849V57.998H131.131V60.3154C131.131 61.0569 131.484 61.4219 132.183 61.4219C132.327 61.4353 132.473 61.4179 132.61 61.3709C132.746 61.3239 132.871 61.2485 132.976 61.1496C133.166 60.9134 133.258 60.6156 133.235 60.3154V57.998H133.875V60.3849C133.89 60.6049 133.858 60.8255 133.783 61.0328C133.707 61.2402 133.588 61.4299 133.435 61.5899C133.066 61.8639 132.618 62.0122 132.156 62.0122C131.695 62.0122 131.247 61.8639 130.878 61.5899C130.73 61.4275 130.617 61.2367 130.546 61.0295C130.475 60.8222 130.448 60.6028 130.467 60.3849Z" fill="#6D6E71"/>
<path d="M135.638 57.998V58.5774C135.769 58.3781 135.954 58.2194 136.173 58.1197C136.407 58.015 136.662 57.9635 136.919 57.969C137.027 57.9598 137.135 57.9598 137.242 57.969V58.5947C137.099 58.5529 136.951 58.5315 136.802 58.531C136.644 58.5188 136.486 58.5404 136.338 58.5943C136.189 58.6482 136.055 58.7332 135.943 58.8433C135.831 58.9534 135.745 59.0861 135.691 59.2322C135.636 59.3784 135.614 59.5344 135.626 59.6897V61.9723H134.956V57.998H135.638Z" fill="#6D6E71"/>
<path d="M140.28 57.998V58.5774C140.409 58.3783 140.592 58.2195 140.809 58.1197C141.043 58.015 141.298 57.9635 141.555 57.969C141.663 57.9598 141.771 57.9598 141.878 57.969V58.5947C141.735 58.5529 141.587 58.5315 141.438 58.531C141.28 58.5188 141.122 58.5404 140.974 58.5943C140.826 58.6482 140.691 58.7332 140.579 58.8433C140.468 58.9534 140.381 59.0861 140.327 59.2322C140.272 59.3784 140.25 59.5344 140.263 59.6897V61.9723H139.593V57.998H140.28Z" fill="#6D6E71"/>
<path d="M143.083 60.1705C143.083 61.028 143.489 61.4567 144.299 61.4567C144.559 61.4737 144.815 61.3975 145.022 61.2423C145.102 61.1765 145.167 61.0942 145.212 61.0011C145.257 60.9081 145.28 60.8065 145.281 60.7035H145.945V60.7209C145.941 60.9586 145.868 61.1901 145.733 61.3872C145.586 61.596 145.382 61.7604 145.146 61.8622C144.87 61.9831 144.571 62.0424 144.27 62.036C144.019 62.0508 143.768 62.0153 143.532 61.9316C143.296 61.848 143.079 61.7179 142.895 61.5494C142.72 61.3589 142.586 61.1354 142.501 60.8925C142.416 60.6495 142.383 60.3921 142.401 60.1358V59.8229C142.369 59.3115 142.537 58.8074 142.872 58.4151C143.045 58.2501 143.25 58.1217 143.476 58.038C143.701 57.9543 143.941 57.9171 144.182 57.9285C144.417 57.9148 144.653 57.9478 144.875 58.0254C145.097 58.103 145.301 58.2237 145.475 58.3804C145.64 58.5539 145.768 58.7591 145.85 58.9834C145.932 59.2076 145.966 59.4461 145.951 59.6839V60.1474H143.065L143.083 60.1705ZM143.083 59.6433H145.298V59.5622C145.31 59.4156 145.291 59.2681 145.241 59.1294C145.192 58.9907 145.113 58.8638 145.01 58.757C144.9 58.6622 144.771 58.5899 144.632 58.5442C144.493 58.4984 144.346 58.4802 144.2 58.4904C144.055 58.4818 143.91 58.502 143.774 58.5498C143.638 58.5975 143.513 58.672 143.406 58.7685C143.192 59.0104 143.077 59.3223 143.083 59.6433Z" fill="#6D6E71"/>
<path d="M146.709 60.7731H147.343C147.34 60.8729 147.364 60.9718 147.411 61.0601C147.459 61.1484 147.528 61.2232 147.614 61.2771C147.863 61.4179 148.149 61.4824 148.436 61.4625C148.708 61.4745 148.979 61.4187 149.224 61.3003C149.312 61.2562 149.387 61.1882 149.438 61.104C149.489 61.0199 149.514 60.9232 149.512 60.8252C149.515 60.7485 149.497 60.6725 149.46 60.6051C149.422 60.5377 149.367 60.4817 149.3 60.4428C149.098 60.3322 148.873 60.2706 148.642 60.2632L148.054 60.1937C147.702 60.1748 147.362 60.0583 147.073 59.8577C146.969 59.767 146.886 59.6543 146.832 59.5279C146.779 59.4015 146.754 59.2647 146.762 59.1277C146.755 58.9589 146.792 58.7912 146.869 58.6403C146.946 58.4894 147.061 58.3601 147.202 58.2645C147.551 58.0422 147.962 57.9329 148.377 57.9517C148.81 57.9277 149.239 58.0371 149.606 58.2645C149.748 58.3598 149.863 58.4889 149.941 58.6397C150.019 58.7906 150.057 58.9584 150.052 59.1277H149.447C149.451 59.0301 149.428 58.9332 149.38 58.8475C149.333 58.7617 149.262 58.6904 149.177 58.6411C148.942 58.5197 148.678 58.4637 148.413 58.4789C148.153 58.4633 147.894 58.5152 147.661 58.6295C147.582 58.6744 147.516 58.7396 147.472 58.8182C147.427 58.8967 147.405 58.9857 147.408 59.0756C147.403 59.1476 147.417 59.2197 147.449 59.2847C147.481 59.3497 147.53 59.4054 147.59 59.4464C147.778 59.5547 147.99 59.6145 148.207 59.6202L148.795 59.7013C149.155 59.7199 149.502 59.8362 149.799 60.0373C149.907 60.1295 149.993 60.2447 150.049 60.3742C150.105 60.5037 150.13 60.6441 150.123 60.7846C150.128 60.9607 150.088 61.1353 150.007 61.2922C149.926 61.4492 149.806 61.5834 149.658 61.6826C149.277 61.9164 148.832 62.0296 148.383 62.0071C147.941 62.0328 147.502 61.917 147.132 61.6768C146.993 61.5708 146.882 61.4333 146.808 61.276C146.734 61.1187 146.7 60.9461 146.709 60.7731Z" fill="#6D6E71"/>
<path d="M151.621 57.998V58.531C151.758 58.3397 151.942 58.1861 152.156 58.0849C152.389 57.9771 152.644 57.9235 152.902 57.9285C153.127 57.9182 153.352 57.9553 153.562 58.0372C153.772 58.1191 153.961 58.244 154.118 58.4036C154.445 58.7791 154.609 59.2657 154.577 59.7592V60.1763C154.611 60.6754 154.446 61.1679 154.118 61.5494C153.962 61.7097 153.772 61.8355 153.562 61.9184C153.353 62.0013 153.128 62.0394 152.902 62.0302C152.657 62.0479 152.412 62.004 152.189 61.9027C151.966 61.8014 151.772 61.6459 151.627 61.4509V63.2179H150.963V58.0038L151.621 57.998ZM153.913 60.1474V59.7998C153.939 59.4508 153.835 59.1043 153.619 58.8265C153.512 58.7176 153.383 58.6327 153.24 58.5777C153.097 58.5227 152.944 58.4988 152.79 58.5078C152.633 58.4996 152.475 58.5249 152.328 58.5818C152.181 58.6388 152.048 58.7262 151.938 58.8381C151.722 59.0828 151.611 59.4004 151.627 59.7245V60.2401C151.611 60.5634 151.725 60.8798 151.944 61.1207C152.056 61.2327 152.191 61.3197 152.34 61.3757C152.489 61.4317 152.649 61.4554 152.808 61.4451C152.959 61.4548 153.111 61.4307 153.251 61.3745C153.392 61.3183 153.517 61.2315 153.619 61.1207C153.836 60.8413 153.941 60.4925 153.913 60.1416V60.1474Z" fill="#6D6E71"/>
<path d="M155.394 60.1705V59.7766C155.376 59.5257 155.41 59.2738 155.495 59.0367C155.58 58.7995 155.713 58.582 155.887 58.3978C156.068 58.2328 156.281 58.1056 156.514 58.024C156.746 57.9423 156.992 57.9079 157.239 57.9227C157.479 57.9124 157.72 57.9496 157.946 58.0322C158.172 58.1148 158.379 58.241 158.555 58.4035C158.725 58.5898 158.856 58.8077 158.94 59.0444C159.024 59.2812 159.058 59.5321 159.043 59.7824V60.1763C159.06 60.4267 159.026 60.6781 158.942 60.9151C158.858 61.1521 158.727 61.3699 158.555 61.5552C158.376 61.7206 158.165 61.8485 157.935 61.9311C157.705 62.0138 157.46 62.0495 157.215 62.036C156.969 62.0497 156.722 62.0142 156.49 61.9316C156.257 61.8489 156.044 61.7209 155.864 61.5552C155.693 61.3683 155.564 61.1491 155.483 60.9109C155.402 60.6727 155.372 60.4208 155.394 60.1705ZM158.396 59.794C158.396 58.9365 158.004 58.5078 157.221 58.5078C156.439 58.5078 156.046 58.9365 156.046 59.794V60.1416C156.046 61.0048 156.434 61.4335 157.221 61.4335C158.008 61.4335 158.396 61.0048 158.396 60.1416V59.794Z" fill="#6D6E71"/>
<path d="M160.658 57.998V58.531C160.797 58.3424 160.984 58.1927 161.199 58.0965C161.432 57.9961 161.685 57.9467 161.939 57.9517C162.142 57.9396 162.344 57.9689 162.534 58.0377C162.724 58.1065 162.898 58.2133 163.044 58.3514C163.318 58.6592 163.46 59.0605 163.438 59.4695V61.9607H162.768V59.5622C162.779 59.4256 162.762 59.2882 162.718 59.158C162.675 59.0278 162.606 58.9072 162.515 58.8033C162.416 58.714 162.299 58.6455 162.171 58.6017C162.044 58.5579 161.909 58.5398 161.775 58.5484C161.626 58.538 161.476 58.5594 161.336 58.6111C161.196 58.6628 161.069 58.7436 160.964 58.8481C160.859 58.9525 160.777 59.0782 160.726 59.2164C160.674 59.3546 160.653 59.5022 160.664 59.6491V61.9665H160V57.998H160.658Z" fill="#6D6E71"/>
<path d="M164.284 60.7731H164.919C164.915 60.8724 164.938 60.9709 164.984 61.0592C165.03 61.1475 165.099 61.2225 165.183 61.2771C165.433 61.4179 165.719 61.4824 166.006 61.4625C166.274 61.4709 166.54 61.4152 166.781 61.3003C166.869 61.2549 166.941 61.1864 166.991 61.1024C167.041 61.0185 167.066 60.9225 167.063 60.8252C167.068 60.749 167.051 60.6731 167.015 60.6057C166.979 60.5383 166.924 60.4819 166.858 60.4428C166.654 60.3324 166.426 60.2708 166.194 60.2633L165.606 60.1937C165.253 60.1767 164.913 60.0601 164.625 59.8577C164.519 59.7682 164.435 59.6558 164.38 59.5292C164.325 59.4026 164.3 59.2653 164.308 59.1277C164.301 58.9589 164.338 58.7912 164.415 58.6403C164.492 58.4894 164.607 58.3601 164.748 58.2645C165.098 58.043 165.508 57.9337 165.923 57.9517C166.358 57.9281 166.789 58.0373 167.157 58.2645C167.299 58.3606 167.413 58.4898 167.491 58.6405C167.569 58.7912 167.608 58.9586 167.604 59.1277H166.969C166.969 59.0308 166.944 58.9355 166.897 58.8504C166.85 58.7654 166.782 58.6934 166.699 58.6411C166.462 58.519 166.196 58.4629 165.929 58.4789C165.67 58.4647 165.411 58.5165 165.177 58.6295C165.1 58.6756 165.036 58.7413 164.993 58.8196C164.949 58.898 164.928 58.9864 164.93 59.0756C164.926 59.147 164.94 59.2183 164.971 59.2831C165.002 59.3478 165.048 59.404 165.107 59.4464C165.297 59.5536 165.511 59.6133 165.73 59.6202L166.317 59.7013C166.675 59.7207 167.021 59.8369 167.316 60.0373C167.426 60.1284 167.513 60.2432 167.57 60.3729C167.627 60.5026 167.653 60.6435 167.645 60.7847C167.651 60.9614 167.611 61.1368 167.529 61.2939C167.446 61.4511 167.325 61.5849 167.175 61.6826C166.794 61.9171 166.349 62.0304 165.9 62.0071C165.459 62.0328 165.022 61.9169 164.654 61.6768C164.524 61.5661 164.423 61.4263 164.358 61.2691C164.294 61.1119 164.268 60.9419 164.284 60.7731Z" fill="#6D6E71"/>
<path d="M169.255 56.6308V57.3434H168.591V56.6308H169.255ZM169.255 57.998V61.9607H168.591V57.998H169.255Z" fill="#6D6E71"/>
<path d="M171.03 61.4451V61.9607H170.372V56.6192H171.036V58.531C171.167 58.3372 171.35 58.1829 171.565 58.0849C171.886 57.9363 172.245 57.8867 172.595 57.9425C172.945 57.9983 173.27 58.157 173.527 58.3978C173.852 58.7763 174.016 59.2641 173.985 59.7592V60.1763C174.02 60.6754 173.855 61.1679 173.527 61.5494C173.37 61.7097 173.181 61.8355 172.971 61.9184C172.762 62.0013 172.536 62.0394 172.311 62.0302C172.05 62.0348 171.791 61.9834 171.553 61.8796C171.343 61.783 171.162 61.633 171.03 61.4451ZM173.321 60.1474V59.794C173.349 59.4467 173.244 59.1018 173.028 58.8265C172.922 58.7169 172.792 58.6316 172.649 58.5766C172.506 58.5215 172.352 58.4981 172.199 58.5078C172.041 58.4992 171.884 58.5243 171.737 58.5813C171.59 58.6383 171.457 58.7259 171.347 58.8381C171.131 59.0828 171.02 59.4004 171.036 59.7244V60.2401C171.02 60.5634 171.134 60.8798 171.353 61.1207C171.465 61.2327 171.6 61.3197 171.749 61.3757C171.898 61.4317 172.058 61.4553 172.217 61.4451C172.368 61.4544 172.519 61.4301 172.66 61.3739C172.8 61.3177 172.926 61.2312 173.028 61.1207C173.245 60.8413 173.35 60.4925 173.321 60.1416V60.1474Z" fill="#6D6E71"/>
<path d="M175.643 56.6308V57.3434H174.973V56.6308H175.643ZM175.643 57.998V61.9607H174.973V57.998H175.643Z" fill="#6D6E71"/>
<path d="M176.771 60.7673V56.6192H177.441V60.7209C177.423 60.8995 177.475 61.078 177.588 61.2192C177.658 61.2751 177.739 61.3167 177.825 61.3416C177.912 61.3665 178.003 61.3741 178.093 61.364H178.434V61.9433H178.005C177.838 61.9569 177.67 61.9378 177.511 61.8871C177.351 61.8363 177.204 61.7551 177.076 61.6479C176.969 61.5284 176.886 61.389 176.834 61.2378C176.781 61.0866 176.76 60.9267 176.771 60.7673Z" fill="#6D6E71"/>
<path d="M179.785 56.6308V57.3434H179.121V56.6308H179.785ZM179.785 57.998V61.9607H179.121V57.998H179.785Z" fill="#6D6E71"/>
<path d="M181.971 60.7846C181.964 60.8681 181.973 60.9521 181.999 61.0318C182.026 61.1115 182.068 61.185 182.124 61.2481C182.264 61.3556 182.441 61.4054 182.618 61.3872H182.952V61.9665H182.506C182.346 61.9887 182.184 61.974 182.031 61.9237C181.878 61.8733 181.739 61.7886 181.625 61.6762C181.511 61.5639 181.425 61.4269 181.374 61.2762C181.323 61.1255 181.308 60.9652 181.331 60.8078V58.4904H180.626V57.998H181.331V57.1406L181.995 56.8683V58.027H183.064V58.5194H181.995L181.971 60.7846Z" fill="#6D6E71"/>
<path d="M185.55 62.3547C185.459 62.5951 185.289 62.7988 185.068 62.934C184.815 63.0676 184.531 63.1317 184.245 63.1194H183.963V62.5401H184.245C184.427 62.55 184.608 62.5162 184.774 62.4416C184.901 62.3545 184.994 62.228 185.038 62.0824L185.085 61.9549L183.464 57.9922H184.175L185.409 61.1091L186.584 57.9922H187.283L185.55 62.3547Z" fill="#6D6E71"/>
</g>
<defs>
<clipPath id="clip0_74_79">
<rect width="188" height="64" fill="white"/>
</clipPath>
</defs>
</svg>
