<svg width="35" height="35" viewBox="0 0 35 35" fill="none" xmlns="http://www.w3.org/2000/svg">
<path d="M10.9101 10.4338H1.02539C0.459032 10.4338 0 10.8929 0 11.4592C0 12.0255 0.459032 12.4846 1.02539 12.4846H10.9101C11.4765 12.4846 11.9355 12.0255 11.9355 11.4592C11.9355 10.8929 11.4765 10.4338 10.9101 10.4338Z" fill="#0071BC"/>
<path d="M10.9101 19.2205H1.02539C0.459032 19.2205 0 19.6796 0 20.2458C0 20.8121 0.459032 21.2712 1.02539 21.2712H10.9101C11.4765 21.2712 11.9355 20.8121 11.9355 20.2458C11.9355 19.6796 11.4765 19.2205 10.9101 19.2205Z" fill="#0071BC"/>
<path d="M24.8148 26.1106C24.4143 25.7102 23.7651 25.7102 23.3647 26.1106L19.6965 29.7787L18.2251 28.3072C17.8247 27.9068 17.1754 27.9067 16.775 28.3072C16.3745 28.7076 16.3745 29.3568 16.775 29.7573L18.9716 31.9539C19.1639 32.1462 19.4246 32.2543 19.6965 32.2543C19.9685 32.2543 20.2294 32.1463 20.4216 31.9539L24.8148 27.5607C25.2153 27.1603 25.2153 26.511 24.8148 26.1106Z" fill="#0071BC"/>
<path d="M10.9101 28.0068H1.02539C0.459032 28.0068 0 28.4659 0 29.0322C0 29.5985 0.459032 30.0576 1.02539 30.0576H10.9101C11.4765 30.0576 11.9355 29.5985 11.9355 29.0322C11.9355 28.4658 11.4765 28.0068 10.9101 28.0068Z" fill="#0071BC"/>
<path d="M34.6997 7.75312L29.9925 3.04598C29.8002 2.85368 29.5395 2.74561 29.2676 2.74561C28.9956 2.74561 28.7347 2.85368 28.5425 3.04598L24.5605 7.02797L30.7177 13.1852L34.6997 9.2033C34.892 9.01093 35 8.75014 35 8.47821C35 8.20621 34.892 7.94549 34.6997 7.75312Z" fill="#0071BC"/>
<path d="M23.1104 8.47827L16.775 14.8139C16.5827 15.0062 16.4746 15.267 16.4746 15.5389V20.2458C16.4746 20.8121 16.9338 21.2712 17.5 21.2712H22.207C22.479 21.2712 22.7399 21.1632 22.9321 20.9708L29.2675 14.6355L23.1104 8.47827Z" fill="#0071BC"/>
</svg>
