<svg width="47" height="35" viewBox="0 0 47 35" fill="none" xmlns="http://www.w3.org/2000/svg">
<path d="M41.4105 24.5552C41.1084 24.5552 40.8128 24.5822 40.5246 24.6317C40.5534 24.3296 40.5694 24.0236 40.5694 23.7141C40.5694 18.4102 36.2699 14.1106 30.9659 14.1106C25.8915 14.1106 21.7395 18.0469 21.3891 23.0321C20.5936 22.6667 19.7095 22.4618 18.777 22.4618C15.3145 22.4618 12.5078 25.2685 12.5078 28.7309C12.5078 32.1934 15.3145 35.0001 18.777 35.0001H41.4105C44.2948 35.0001 46.633 32.6619 46.633 29.7776C46.633 26.8933 44.2948 24.5552 41.4105 24.5552Z" fill="#0071BC"/>
<path d="M3.52683 7.2785C6.21117 8.31666 9.80915 8.8884 13.6576 8.8884C17.506 8.8884 21.104 8.31666 23.7884 7.2785C25.9309 6.4499 27.3152 5.33738 27.3152 4.44402C27.3152 3.55102 25.9309 2.4385 23.7884 1.60989C21.104 0.571735 17.506 0 13.6576 0C9.80915 0 6.21117 0.571735 3.52683 1.60989C1.38433 2.4385 0 3.55102 0 4.44402C0 5.33738 1.38433 6.4499 3.52683 7.2785Z" fill="#0071BC"/>
<path d="M3.52683 17.7811C6.21117 18.8193 9.80915 19.391 13.6576 19.391C15.751 19.391 17.7697 19.2213 19.608 18.9C20.2733 17.3296 21.2638 15.9005 22.5378 14.7075C23.9168 13.4161 25.5495 12.4743 27.3152 11.9282V8.55542C26.599 9.02256 25.7498 9.44949 24.7739 9.82697C21.7829 10.9836 17.8351 11.6208 13.6576 11.6208C9.48041 11.6208 5.53235 10.9836 2.54132 9.82697C1.56542 9.44949 0.716181 9.02256 0 8.55542V14.9466C0 15.84 1.38433 16.9525 3.52683 17.7811Z" fill="#0071BC"/>
<path d="M12.6764 22.1177C8.86527 22.0259 5.29718 21.4019 2.54132 20.336C1.56542 19.9585 0.716181 19.5319 0 19.0645V25.456C0 26.349 1.38433 27.4615 3.52683 28.2901C5.29433 28.9736 7.45781 29.4549 9.82765 29.704C9.79314 29.3841 9.775 29.0597 9.775 28.7306C9.775 26.1188 10.8936 23.7636 12.6764 22.1177Z" fill="#0071BC"/>
</svg>
