<svg width="252" height="260" viewBox="0 0 252 260" fill="none" xmlns="http://www.w3.org/2000/svg">
<g filter="url(#filter0_d_0_150)">
<rect x="40" y="40" width="172" height="180" fill="white"/>
</g>
<path d="M47 109L126 137L205 109V205C205 210.523 200.523 215 195 215H57C51.4772 215 47 210.523 47 205V109Z" fill="#EB2027"/>
<path d="M99.0923 66.3636H100.501V74.0682C100.501 74.8636 100.314 75.5739 99.9389 76.1989C99.5677 76.8201 99.0431 77.3106 98.3651 77.6705C97.687 78.0265 96.8916 78.2045 95.9787 78.2045C95.0658 78.2045 94.2704 78.0265 93.5923 77.6705C92.9143 77.3106 92.3878 76.8201 92.0128 76.1989C91.6416 75.5739 91.456 74.8636 91.456 74.0682V66.3636H92.8651V73.9545C92.8651 74.5227 92.9901 75.0284 93.2401 75.4716C93.4901 75.911 93.8461 76.2576 94.3082 76.5114C94.7741 76.7614 95.331 76.8864 95.9787 76.8864C96.6264 76.8864 97.1832 76.7614 97.6491 76.5114C98.1151 76.2576 98.4711 75.911 98.7173 75.4716C98.9673 75.0284 99.0923 74.5227 99.0923 73.9545V66.3636ZM109.315 71.2273L108.111 71.5682C108.035 71.3674 107.923 71.1723 107.776 70.983C107.632 70.7898 107.435 70.6307 107.185 70.5057C106.935 70.3807 106.615 70.3182 106.224 70.3182C105.69 70.3182 105.245 70.4413 104.889 70.6875C104.537 70.9299 104.361 71.2386 104.361 71.6136C104.361 71.947 104.482 72.2102 104.724 72.4034C104.967 72.5966 105.346 72.7576 105.861 72.8864L107.156 73.2045C107.937 73.3939 108.518 73.6837 108.901 74.0739C109.283 74.4602 109.474 74.9583 109.474 75.5682C109.474 76.0682 109.33 76.5152 109.043 76.9091C108.759 77.303 108.361 77.6136 107.849 77.8409C107.338 78.0682 106.743 78.1818 106.065 78.1818C105.175 78.1818 104.438 77.9886 103.855 77.6023C103.272 77.2159 102.902 76.6515 102.747 75.9091L104.02 75.5909C104.141 76.0606 104.37 76.4129 104.707 76.6477C105.048 76.8826 105.493 77 106.043 77C106.668 77 107.164 76.8674 107.531 76.6023C107.902 76.3333 108.088 76.0114 108.088 75.6364C108.088 75.3333 107.982 75.0795 107.77 74.875C107.558 74.6667 107.232 74.5114 106.793 74.4091L105.338 74.0682C104.539 73.8788 103.952 73.5852 103.577 73.1875C103.205 72.786 103.02 72.2841 103.02 71.6818C103.02 71.1894 103.158 70.7538 103.435 70.375C103.715 69.9962 104.096 69.6989 104.577 69.483C105.062 69.267 105.611 69.1591 106.224 69.1591C107.088 69.1591 107.766 69.3485 108.259 69.7273C108.755 70.1061 109.107 70.6061 109.315 71.2273ZM115.152 78.1818C114.311 78.1818 113.586 77.9962 112.976 77.625C112.37 77.25 111.902 76.7273 111.572 76.0568C111.247 75.3826 111.084 74.5985 111.084 73.7045C111.084 72.8106 111.247 72.0227 111.572 71.3409C111.902 70.6553 112.36 70.1212 112.947 69.7386C113.538 69.3523 114.228 69.1591 115.016 69.1591C115.47 69.1591 115.919 69.2348 116.362 69.3864C116.805 69.5379 117.209 69.7841 117.572 70.125C117.936 70.4621 118.226 70.9091 118.442 71.4659C118.658 72.0227 118.766 72.7083 118.766 73.5227V74.0909H112.038V72.9318H117.402C117.402 72.4394 117.304 72 117.107 71.6136C116.913 71.2273 116.637 70.9223 116.277 70.6989C115.921 70.4754 115.5 70.3636 115.016 70.3636C114.482 70.3636 114.019 70.4962 113.629 70.7614C113.243 71.0227 112.946 71.3636 112.737 71.7841C112.529 72.2045 112.425 72.6553 112.425 73.1364V73.9091C112.425 74.5682 112.538 75.1269 112.766 75.5852C112.997 76.0398 113.317 76.3864 113.726 76.625C114.135 76.8598 114.61 76.9773 115.152 76.9773C115.504 76.9773 115.822 76.928 116.107 76.8295C116.394 76.7273 116.643 76.5758 116.851 76.375C117.059 76.1705 117.22 75.9167 117.334 75.6136L118.629 75.9773C118.493 76.4167 118.264 76.803 117.942 77.1364C117.62 77.4659 117.222 77.7235 116.749 77.9091C116.275 78.0909 115.743 78.1818 115.152 78.1818ZM120.805 78V69.2727H122.101V70.5909H122.192C122.351 70.1591 122.639 69.8087 123.055 69.5398C123.472 69.2708 123.942 69.1364 124.464 69.1364C124.563 69.1364 124.686 69.1383 124.834 69.142C124.982 69.1458 125.093 69.1515 125.169 69.1591V70.5227C125.124 70.5114 125.019 70.4943 124.857 70.4716C124.697 70.4451 124.529 70.4318 124.351 70.4318C123.927 70.4318 123.548 70.5208 123.214 70.6989C122.885 70.8731 122.624 71.1155 122.43 71.4261C122.241 71.733 122.146 72.0833 122.146 72.4773V78H120.805ZM131.259 81.2727V69.2727H132.554V70.6591H132.713C132.812 70.5076 132.948 70.3144 133.122 70.0795C133.3 69.8409 133.554 69.6288 133.884 69.4432C134.217 69.2538 134.668 69.1591 135.236 69.1591C135.971 69.1591 136.618 69.3428 137.179 69.7102C137.74 70.0777 138.177 70.5985 138.491 71.2727C138.806 71.947 138.963 72.7424 138.963 73.6591C138.963 74.5833 138.806 75.3845 138.491 76.0625C138.177 76.7367 137.741 77.2595 137.185 77.6307C136.628 77.9981 135.986 78.1818 135.259 78.1818C134.698 78.1818 134.249 78.089 133.912 77.9034C133.575 77.714 133.315 77.5 133.134 77.2614C132.952 77.0189 132.812 76.8182 132.713 76.6591H132.599V81.2727H131.259ZM132.577 73.6364C132.577 74.2955 132.673 74.8769 132.866 75.3807C133.06 75.8807 133.342 76.2727 133.713 76.5568C134.084 76.8371 134.539 76.9773 135.077 76.9773C135.637 76.9773 136.105 76.8295 136.48 76.5341C136.859 76.2348 137.143 75.8333 137.332 75.3295C137.526 74.822 137.622 74.2576 137.622 73.6364C137.622 73.0227 137.527 72.4697 137.338 71.9773C137.152 71.4811 136.87 71.089 136.491 70.8011C136.116 70.5095 135.645 70.3636 135.077 70.3636C134.531 70.3636 134.073 70.5019 133.702 70.7784C133.33 71.0511 133.05 71.4337 132.861 71.9261C132.671 72.4148 132.577 72.9848 132.577 73.6364ZM142.349 66.3636V78H141.009V66.3636H142.349ZM147.374 78.2045C146.821 78.2045 146.319 78.1004 145.868 77.892C145.417 77.6799 145.059 77.375 144.794 76.9773C144.529 76.5758 144.396 76.0909 144.396 75.5227C144.396 75.0227 144.495 74.6174 144.692 74.3068C144.889 73.9924 145.152 73.7462 145.482 73.5682C145.811 73.3902 146.175 73.2576 146.572 73.1705C146.974 73.0795 147.377 73.0076 147.783 72.9545C148.313 72.8864 148.743 72.8352 149.072 72.8011C149.406 72.7633 149.648 72.7008 149.8 72.6136C149.955 72.5265 150.033 72.375 150.033 72.1591V72.1136C150.033 71.553 149.879 71.1174 149.572 70.8068C149.269 70.4962 148.809 70.3409 148.192 70.3409C147.552 70.3409 147.05 70.4811 146.686 70.7614C146.322 71.0417 146.067 71.3409 145.919 71.6591L144.646 71.2045C144.874 70.6742 145.177 70.2614 145.555 69.9659C145.938 69.6667 146.355 69.4583 146.805 69.3409C147.26 69.2197 147.707 69.1591 148.146 69.1591C148.427 69.1591 148.749 69.1932 149.112 69.2614C149.48 69.3258 149.834 69.4602 150.175 69.6648C150.519 69.8693 150.805 70.178 151.033 70.5909C151.26 71.0038 151.374 71.5568 151.374 72.25V78H150.033V76.8182H149.964C149.874 77.0076 149.722 77.2102 149.51 77.4261C149.298 77.642 149.016 77.8258 148.663 77.9773C148.311 78.1288 147.881 78.2045 147.374 78.2045ZM147.578 77C148.108 77 148.555 76.8958 148.919 76.6875C149.286 76.4792 149.563 76.2102 149.749 75.8807C149.938 75.5511 150.033 75.2045 150.033 74.8409V73.6136C149.976 73.6818 149.851 73.7443 149.658 73.8011C149.468 73.8542 149.249 73.9015 148.999 73.9432C148.752 73.9811 148.512 74.0152 148.277 74.0455C148.046 74.072 147.858 74.0947 147.714 74.1136C147.366 74.1591 147.04 74.233 146.737 74.3352C146.438 74.4337 146.196 74.5833 146.01 74.7841C145.828 74.9811 145.737 75.25 145.737 75.5909C145.737 76.0568 145.91 76.4091 146.254 76.6477C146.603 76.8826 147.044 77 147.578 77ZM155.162 72.75V78H153.821V69.2727H155.116V70.6364H155.23C155.435 70.1932 155.745 69.8371 156.162 69.5682C156.579 69.2955 157.116 69.1591 157.776 69.1591C158.366 69.1591 158.884 69.2803 159.327 69.5227C159.77 69.7614 160.115 70.125 160.361 70.6136C160.607 71.0985 160.73 71.7121 160.73 72.4545V78H159.389V72.5455C159.389 71.8598 159.211 71.3258 158.855 70.9432C158.499 70.5568 158.01 70.3636 157.389 70.3636C156.961 70.3636 156.579 70.4564 156.241 70.642C155.908 70.8277 155.645 71.0985 155.452 71.4545C155.259 71.8106 155.162 72.2424 155.162 72.75Z" fill="black"/>
<path d="M96.5866 111V89.1818H110.564V92.495H100.539V98.4183H109.605V101.732H100.539V111H96.5866ZM113.76 111V94.6364H117.499V97.3636H117.67C117.968 96.419 118.479 95.6911 119.204 95.1797C119.935 94.6612 120.77 94.402 121.707 94.402C121.92 94.402 122.158 94.4126 122.421 94.4339C122.691 94.4482 122.915 94.473 123.092 94.5085V98.0561C122.929 97.9993 122.67 97.9496 122.315 97.907C121.967 97.8572 121.629 97.8324 121.302 97.8324C120.599 97.8324 119.967 97.9851 119.406 98.2905C118.852 98.5888 118.415 99.0043 118.096 99.5369C117.776 100.07 117.616 100.684 117.616 101.38V111H113.76ZM132.225 111.32C130.584 111.32 129.167 110.979 127.974 110.297C126.788 109.608 125.875 108.635 125.236 107.378C124.597 106.114 124.277 104.626 124.277 102.914C124.277 101.231 124.597 99.7536 125.236 98.4822C125.883 97.2038 126.785 96.2095 127.942 95.4993C129.1 94.782 130.46 94.4233 132.022 94.4233C133.031 94.4233 133.983 94.5866 134.878 94.9134C135.78 95.233 136.575 95.7301 137.264 96.4048C137.96 97.0795 138.507 97.9389 138.905 98.983C139.302 100.02 139.501 101.256 139.501 102.69V103.873H126.089V101.273H135.804C135.797 100.535 135.638 99.8778 135.325 99.3026C135.013 98.7202 134.576 98.2621 134.015 97.9283C133.461 97.5945 132.814 97.4276 132.076 97.4276C131.287 97.4276 130.595 97.6193 129.998 98.0028C129.402 98.3793 128.937 98.8764 128.603 99.4943C128.276 100.105 128.109 100.776 128.102 101.508V103.777C128.102 104.729 128.276 105.545 128.624 106.227C128.972 106.902 129.459 107.42 130.084 107.783C130.709 108.138 131.44 108.315 132.278 108.315C132.839 108.315 133.347 108.237 133.802 108.081C134.256 107.918 134.65 107.68 134.984 107.367C135.318 107.055 135.57 106.668 135.741 106.206L139.341 106.611C139.114 107.562 138.681 108.393 138.042 109.104C137.41 109.807 136.6 110.354 135.613 110.744C134.625 111.128 133.496 111.32 132.225 111.32ZM150.008 111.32C148.367 111.32 146.951 110.979 145.757 110.297C144.571 109.608 143.659 108.635 143.019 107.378C142.38 106.114 142.061 104.626 142.061 102.914C142.061 101.231 142.38 99.7536 143.019 98.4822C143.666 97.2038 144.568 96.2095 145.725 95.4993C146.883 94.782 148.243 94.4233 149.806 94.4233C150.814 94.4233 151.766 94.5866 152.661 94.9134C153.563 95.233 154.358 95.7301 155.047 96.4048C155.743 97.0795 156.29 97.9389 156.688 98.983C157.085 100.02 157.284 101.256 157.284 102.69V103.873H143.872V101.273H153.588C153.581 100.535 153.421 99.8778 153.108 99.3026C152.796 98.7202 152.359 98.2621 151.798 97.9283C151.244 97.5945 150.598 97.4276 149.859 97.4276C149.071 97.4276 148.378 97.6193 147.782 98.0028C147.185 98.3793 146.72 98.8764 146.386 99.4943C146.059 100.105 145.892 100.776 145.885 101.508V103.777C145.885 104.729 146.059 105.545 146.407 106.227C146.755 106.902 147.242 107.42 147.867 107.783C148.492 108.138 149.223 108.315 150.061 108.315C150.622 108.315 151.13 108.237 151.585 108.081C152.039 107.918 152.434 107.68 152.767 107.367C153.101 107.055 153.353 106.668 153.524 106.206L157.125 106.611C156.897 107.562 156.464 108.393 155.825 109.104C155.193 109.807 154.383 110.354 153.396 110.744C152.409 111.128 151.279 111.32 150.008 111.32Z" fill="#EB2027"/>
<rect x="66.5" y="156.5" width="119" height="37" rx="4.5" fill="#EB2027" stroke="white"/>
<path d="M104.174 169.818H106.327V176.43C106.327 177.173 106.149 177.822 105.795 178.379C105.443 178.936 104.951 179.37 104.318 179.682C103.685 179.99 102.948 180.144 102.106 180.144C101.261 180.144 100.522 179.99 99.8885 179.682C99.2554 179.37 98.7633 178.936 98.4119 178.379C98.0606 177.822 97.8849 177.173 97.8849 176.43V169.818H100.038V176.246C100.038 176.634 100.122 176.979 100.291 177.281C100.464 177.582 100.705 177.819 101.017 177.991C101.329 178.164 101.692 178.25 102.106 178.25C102.523 178.25 102.886 178.164 103.195 177.991C103.506 177.819 103.746 177.582 103.915 177.281C104.088 176.979 104.174 176.634 104.174 176.246V169.818ZM108.058 182.864V172.364H110.146V173.646H110.241C110.333 173.441 110.468 173.232 110.643 173.02C110.822 172.804 111.054 172.625 111.339 172.483C111.628 172.337 111.986 172.264 112.413 172.264C112.97 172.264 113.484 172.41 113.954 172.702C114.425 172.99 114.801 173.426 115.083 174.009C115.365 174.589 115.506 175.317 115.506 176.192C115.506 177.044 115.368 177.763 115.093 178.349C114.821 178.933 114.45 179.375 113.979 179.677C113.512 179.975 112.988 180.124 112.408 180.124C111.997 180.124 111.648 180.056 111.359 179.92C111.074 179.785 110.84 179.614 110.658 179.408C110.476 179.2 110.337 178.989 110.241 178.777H110.176V182.864H108.058ZM110.131 176.182C110.131 176.636 110.194 177.032 110.32 177.37C110.446 177.708 110.628 177.972 110.867 178.161C111.106 178.346 111.396 178.439 111.737 178.439C112.082 178.439 112.373 178.344 112.612 178.156C112.851 177.963 113.031 177.698 113.154 177.36C113.28 177.019 113.343 176.626 113.343 176.182C113.343 175.741 113.282 175.353 113.159 175.018C113.036 174.684 112.856 174.422 112.617 174.233C112.378 174.044 112.085 173.95 111.737 173.95C111.392 173.95 111.101 174.041 110.862 174.223C110.627 174.405 110.446 174.664 110.32 174.999C110.194 175.333 110.131 175.728 110.131 176.182ZM120.358 183.023C119.672 183.023 119.083 182.928 118.593 182.739C118.106 182.554 117.718 182.3 117.43 181.979C117.141 181.657 116.954 181.296 116.868 180.895L118.827 180.631C118.886 180.784 118.981 180.926 119.11 181.059C119.239 181.192 119.41 181.298 119.622 181.377C119.837 181.46 120.099 181.501 120.407 181.501C120.868 181.501 121.248 181.389 121.546 181.163C121.848 180.941 121.998 180.568 121.998 180.045V178.648H121.909C121.816 178.86 121.677 179.06 121.491 179.249C121.306 179.438 121.067 179.592 120.775 179.712C120.484 179.831 120.136 179.891 119.731 179.891C119.158 179.891 118.636 179.758 118.165 179.493C117.698 179.224 117.325 178.815 117.047 178.265C116.772 177.711 116.634 177.012 116.634 176.167C116.634 175.302 116.775 174.579 117.057 173.999C117.338 173.419 117.713 172.985 118.18 172.697C118.651 172.408 119.166 172.264 119.726 172.264C120.154 172.264 120.512 172.337 120.8 172.483C121.089 172.625 121.321 172.804 121.496 173.02C121.675 173.232 121.813 173.441 121.909 173.646H121.988V172.364H124.091V180.075C124.091 180.724 123.932 181.268 123.614 181.705C123.296 182.143 122.855 182.471 122.292 182.69C121.732 182.912 121.087 183.023 120.358 183.023ZM120.403 178.3C120.744 178.3 121.032 178.215 121.268 178.046C121.506 177.874 121.689 177.629 121.814 177.31C121.944 176.989 122.008 176.604 122.008 176.157C122.008 175.71 121.945 175.322 121.819 174.994C121.693 174.662 121.511 174.405 121.273 174.223C121.034 174.041 120.744 173.95 120.403 173.95C120.055 173.95 119.761 174.044 119.523 174.233C119.284 174.419 119.103 174.677 118.981 175.009C118.858 175.34 118.797 175.723 118.797 176.157C118.797 176.598 118.858 176.979 118.981 177.3C119.107 177.619 119.287 177.866 119.523 178.041C119.761 178.214 120.055 178.3 120.403 178.3ZM125.777 180V172.364H127.83V173.696H127.91C128.049 173.222 128.282 172.864 128.611 172.622C128.939 172.377 129.317 172.254 129.744 172.254C129.85 172.254 129.965 172.261 130.087 172.274C130.21 172.287 130.318 172.306 130.41 172.329V174.208C130.311 174.178 130.173 174.152 129.998 174.129C129.822 174.105 129.661 174.094 129.515 174.094C129.204 174.094 128.925 174.162 128.68 174.298C128.438 174.43 128.246 174.616 128.104 174.854C127.964 175.093 127.895 175.368 127.895 175.68V180H125.777ZM133.464 180.144C132.977 180.144 132.543 180.06 132.162 179.891C131.78 179.718 131.479 179.465 131.257 179.13C131.038 178.792 130.929 178.371 130.929 177.867C130.929 177.443 131.007 177.087 131.162 176.798C131.318 176.51 131.53 176.278 131.799 176.102C132.067 175.927 132.372 175.794 132.713 175.705C133.058 175.615 133.419 175.552 133.797 175.516C134.241 175.469 134.599 175.426 134.871 175.386C135.143 175.343 135.34 175.28 135.463 175.197C135.585 175.115 135.647 174.992 135.647 174.83V174.8C135.647 174.485 135.547 174.241 135.348 174.069C135.153 173.897 134.874 173.81 134.513 173.81C134.132 173.81 133.829 173.895 133.603 174.064C133.378 174.23 133.229 174.438 133.156 174.69L131.197 174.531C131.297 174.067 131.492 173.666 131.784 173.328C132.075 172.987 132.452 172.725 132.912 172.543C133.376 172.357 133.913 172.264 134.523 172.264C134.947 172.264 135.353 172.314 135.741 172.413C136.132 172.513 136.479 172.667 136.78 172.876C137.085 173.085 137.325 173.353 137.501 173.681C137.677 174.006 137.765 174.395 137.765 174.849V180H135.756V178.941H135.696C135.574 179.18 135.41 179.39 135.204 179.572C134.999 179.751 134.752 179.892 134.463 179.995C134.175 180.094 133.842 180.144 133.464 180.144ZM134.071 178.683C134.382 178.683 134.657 178.621 134.896 178.499C135.135 178.373 135.322 178.204 135.458 177.991C135.594 177.779 135.662 177.539 135.662 177.271V176.46C135.595 176.503 135.504 176.543 135.388 176.58C135.275 176.613 135.148 176.644 135.005 176.674C134.863 176.701 134.72 176.725 134.578 176.749C134.435 176.768 134.306 176.787 134.19 176.803C133.941 176.84 133.724 176.898 133.539 176.977C133.353 177.057 133.209 177.165 133.106 177.3C133.003 177.433 132.952 177.599 132.952 177.798C132.952 178.086 133.056 178.306 133.265 178.459C133.477 178.608 133.746 178.683 134.071 178.683ZM142.222 180.124C141.642 180.124 141.116 179.975 140.646 179.677C140.178 179.375 139.807 178.933 139.532 178.349C139.26 177.763 139.124 177.044 139.124 176.192C139.124 175.317 139.265 174.589 139.547 174.009C139.829 173.426 140.203 172.99 140.67 172.702C141.141 172.41 141.656 172.264 142.217 172.264C142.644 172.264 143 172.337 143.286 172.483C143.574 172.625 143.806 172.804 143.982 173.02C144.161 173.232 144.296 173.441 144.389 173.646H144.454V169.818H146.567V180H144.479V178.777H144.389C144.29 178.989 144.149 179.2 143.967 179.408C143.788 179.614 143.554 179.785 143.266 179.92C142.981 180.056 142.633 180.124 142.222 180.124ZM142.893 178.439C143.234 178.439 143.522 178.346 143.758 178.161C143.996 177.972 144.179 177.708 144.305 177.37C144.434 177.032 144.499 176.636 144.499 176.182C144.499 175.728 144.436 175.333 144.31 174.999C144.184 174.664 144.001 174.405 143.763 174.223C143.524 174.041 143.234 173.95 142.893 173.95C142.545 173.95 142.251 174.044 142.013 174.233C141.774 174.422 141.594 174.684 141.471 175.018C141.348 175.353 141.287 175.741 141.287 176.182C141.287 176.626 141.348 177.019 141.471 177.36C141.597 177.698 141.777 177.963 142.013 178.156C142.251 178.344 142.545 178.439 142.893 178.439ZM151.788 180.149C151.003 180.149 150.327 179.99 149.76 179.672C149.196 179.35 148.762 178.896 148.457 178.31C148.152 177.72 148 177.022 148 176.217C148 175.431 148.152 174.742 148.457 174.148C148.762 173.555 149.191 173.093 149.745 172.761C150.302 172.43 150.955 172.264 151.704 172.264C152.207 172.264 152.676 172.345 153.111 172.508C153.548 172.667 153.929 172.907 154.254 173.229C154.582 173.55 154.837 173.955 155.02 174.442C155.202 174.926 155.293 175.492 155.293 176.142V176.724H148.845V175.411H153.3C153.3 175.106 153.233 174.836 153.101 174.601C152.968 174.366 152.784 174.182 152.549 174.049C152.317 173.913 152.047 173.845 151.738 173.845C151.417 173.845 151.132 173.92 150.883 174.069C150.638 174.215 150.446 174.412 150.307 174.661C150.167 174.906 150.096 175.179 150.093 175.481V176.729C150.093 177.107 150.162 177.433 150.302 177.708C150.444 177.983 150.645 178.195 150.903 178.344C151.162 178.494 151.468 178.568 151.823 178.568C152.058 178.568 152.274 178.535 152.469 178.469C152.665 178.402 152.832 178.303 152.971 178.17C153.111 178.038 153.217 177.875 153.29 177.683L155.248 177.812C155.149 178.283 154.945 178.694 154.637 179.045C154.332 179.393 153.938 179.665 153.454 179.861C152.973 180.053 152.418 180.149 151.788 180.149Z" fill="white"/>
<defs>
<filter id="filter0_d_0_150" x="0" y="0" width="252" height="260" filterUnits="userSpaceOnUse" color-interpolation-filters="sRGB">
<feFlood flood-opacity="0" result="BackgroundImageFix"/>
<feColorMatrix in="SourceAlpha" type="matrix" values="0 0 0 0 0 0 0 0 0 0 0 0 0 0 0 0 0 0 127 0" result="hardAlpha"/>
<feOffset/>
<feGaussianBlur stdDeviation="20"/>
<feComposite in2="hardAlpha" operator="out"/>
<feColorMatrix type="matrix" values="0 0 0 0 0 0 0 0 0 0 0 0 0 0 0 0 0 0 0.13 0"/>
<feBlend mode="normal" in2="BackgroundImageFix" result="effect1_dropShadow_0_150"/>
<feBlend mode="normal" in="SourceGraphic" in2="effect1_dropShadow_0_150" result="shape"/>
</filter>
</defs>
</svg>
