<svg width="35" height="35" viewBox="0 0 35 35" fill="none" xmlns="http://www.w3.org/2000/svg">
<path d="M3.132 23.2686C2.57266 23.7077 2.16738 24.2843 2.04143 25.0769L1.12176 30.8789C0.985028 31.7393 1.36194 32.523 1.96879 33.0621C2.5657 33.5924 3.37651 33.9059 4.22578 33.9059H17.6491C18.4984 33.9059 19.3092 33.5924 19.9061 33.0621C20.5176 32.5188 20.8909 31.7393 20.7542 30.8789L20.4402 28.9061C20.7432 28.8336 21.0416 28.7183 21.3268 28.5536C22.4247 27.9198 23.0118 26.7632 22.9685 25.5917V18.0413C22.9679 17.7373 22.7219 17.4921 22.4195 17.4933H19.1424C18.9985 17.4928 18.8698 17.5509 18.7718 17.6418C18.573 17.4209 18.3242 17.2639 18.054 17.1771C18.077 16.5469 18.1552 15.985 18.2024 15.4372C18.2579 14.7941 18.2647 14.1452 18.008 13.4836C17.7898 12.9212 17.409 12.3856 16.8544 12.0363C16.5165 10.1975 15.3399 8.65836 13.7397 7.81407L16.3919 5.16408C16.7274 5.36241 17.1099 5.46751 17.4996 5.46849C17.9192 5.46753 18.3296 5.34592 18.682 5.11816L22.6833 8.81062C22.5123 9.12808 22.4224 9.48289 22.4216 9.84349C22.4216 11.0516 23.401 12.031 24.6092 12.031C25.8173 12.031 26.7967 11.0516 26.7967 9.84349C26.7965 9.48181 26.7066 9.12583 26.535 8.80742L30.5341 5.12029C30.8874 5.34769 31.2986 5.46858 31.7187 5.46849C32.9269 5.4685 33.9063 4.48912 33.9063 3.281C33.9063 2.07288 32.9269 1.0935 31.7187 1.09351C30.5106 1.0935 29.5312 2.07288 29.5312 3.281C29.5316 3.64151 29.6211 3.99631 29.7918 4.31387L25.7937 8.00526C25.4406 7.77749 25.0294 7.65623 24.6092 7.65599C24.1891 7.65707 23.7782 7.77907 23.4257 8.0074L19.4265 4.3128C19.597 3.99556 19.6865 3.64114 19.6872 3.281C19.6872 2.07288 18.7078 1.0935 17.4995 1.09351C16.2913 1.0935 15.3119 2.07288 15.3119 3.281C15.313 3.6712 15.4185 4.05399 15.6174 4.3897L12.6405 7.36546C12.0994 7.20594 11.5283 7.11659 10.9357 7.11659C10.4997 7.11659 10.0756 7.16715 9.66572 7.25545C9.56481 7.16219 9.43248 7.11033 9.29507 7.11018H8.20129V5.46743C8.20068 5.16666 7.95731 4.92283 7.65654 4.92162H7.3361L4.76294 2.34961C4.65891 2.24442 4.51673 2.18531 4.36773 2.18725C4.22408 2.19014 4.08801 2.24847 3.98747 2.34961L1.25409 5.08184C0.912675 5.42534 1.15325 6.01035 1.63756 6.0143H2.7324V7.65813C2.73361 7.96014 2.9794 8.20401 3.28143 8.20286H3.60187L5.65057 10.2515C5.18526 11.1068 4.91996 12.0903 4.91996 13.1322V13.9749C4.27042 14.3516 3.82618 15.0539 3.82618 15.8687C3.82618 17.0896 4.81206 18.053 6.01374 18.053H6.51683C6.89939 18.8319 7.48055 19.496 8.20236 19.9735V20.7916C8.19947 20.7917 8.19678 20.7905 8.19389 20.7905C8.117 20.7922 8.04228 20.81 7.97278 20.8429L4.91204 22.272C4.28244 22.5736 3.66345 22.8513 3.132 23.2686ZM4.37521 3.50744L5.78836 4.92055H5.46898C5.11013 4.92055 4.91889 5.10409 4.91889 5.46742V7.10911H3.82618V5.46956C3.82733 5.16754 3.58345 4.92176 3.28143 4.92055H2.95778L4.37521 3.50744ZM6.01374 6.01643H7.10752V7.65492C7.10637 7.95861 7.35284 8.20509 7.65654 8.20393H7.97485L6.56169 9.61704L5.14534 8.20393H5.46792C5.76737 8.20393 6.01374 7.95606 6.01374 7.65812V6.01643ZM24.609 8.74974C25.2131 8.74973 25.7028 9.23942 25.7028 9.84348C25.7028 10.4475 25.2131 10.9372 24.609 10.9372C24.005 10.9372 23.5152 10.4475 23.5153 9.84348C23.5152 9.23942 24.005 8.74973 24.609 8.74974ZM30.0801 10.9372C29.7776 10.9361 29.5317 11.1813 29.531 11.4852V25.7082C29.5316 26.0121 29.7776 26.2573 30.0801 26.2561H33.3571C33.6596 26.2572 33.9055 26.0121 33.9062 25.7082V11.4852C33.9055 11.1813 33.6596 10.9361 33.3571 10.9372H30.0801ZM12.0306 11.4841C13.5408 11.4841 14.765 12.7083 14.765 14.2185C14.765 15.7286 13.5408 16.9528 12.0306 16.9528C10.5204 16.9528 9.29614 15.7286 9.29614 14.2185C9.29614 12.7083 10.5204 11.4841 12.0306 11.4841ZM12.0284 12.5789C11.1288 12.5789 10.3899 13.3189 10.3899 14.2185C10.3734 14.964 11.5002 14.964 11.4837 14.2185C11.4837 13.91 11.7199 13.6737 12.0284 13.6737C12.7583 13.6737 12.7583 12.5789 12.0284 12.5789ZM15.5629 12.7456C15.7565 12.7528 15.9321 12.7932 16.0906 12.8652C16.4941 13.0483 16.8233 13.4466 16.991 13.8788C17.1587 14.311 17.1624 14.7564 17.1117 15.3443C17.0671 15.8619 16.9802 16.4809 16.959 17.2113C16.8824 17.2413 16.8058 17.2716 16.7326 17.3139L13.8902 18.9534C13.8519 18.9756 13.8096 19.0066 13.7738 19.0314C13.2649 18.8731 12.9187 18.4359 12.837 17.9686C14.5961 17.5864 15.8577 16.0186 15.8588 14.2185C15.8584 13.7128 15.7579 13.2122 15.5629 12.7456ZM24.6112 14.2121C24.3087 14.2109 24.0628 14.4561 24.0621 14.76V25.7082C24.0627 26.0121 24.3087 26.2573 24.6112 26.2561H27.8882C28.1907 26.2573 28.4366 26.0121 28.4373 25.7082V14.76C28.4367 14.4561 28.1907 14.2109 27.8882 14.2121H24.6112ZM8.20343 14.2323C8.21128 16.2309 9.74902 17.8988 11.7422 18.0466C11.8066 18.5648 12.04 19.0364 12.3916 19.4116C11.9426 19.595 11.456 19.6957 10.9357 19.6957C8.82859 19.6957 7.10858 18.0101 7.10858 15.9018V14.7183C7.48126 14.6479 7.88852 14.4677 8.20343 14.2323ZM5.5758 14.8679H6.01374V15.9018C6.01374 16.2669 6.05669 16.6212 6.1323 16.9635H6.01374C5.40318 16.9635 4.91996 16.46 4.91996 15.8687C4.91996 15.429 5.18773 15.0393 5.5758 14.8679ZM25.1559 15.3122H27.3435V25.1559H25.1559V15.3122ZM17.492 18.1918C17.7052 18.165 17.9165 18.2675 18.0282 18.461L21.5809 24.6176C22.1915 25.6753 21.8249 27.0061 20.7819 27.6083C19.7388 28.2105 18.405 27.8628 17.7943 26.8051L14.2374 20.6485C14.0895 20.3923 14.1687 20.0581 14.4392 19.9019L17.2816 18.2634C17.3492 18.2243 17.4209 18.2008 17.492 18.1918ZM13.071 20.311C13.06 20.5525 13.103 20.7914 13.2045 21.0266L11.2583 22.978H10.6164L9.29615 21.6546V20.5107C9.80824 20.6888 10.3583 20.7905 10.9357 20.7905C11.7024 20.7905 12.4225 20.6213 13.071 20.311ZM8.08487 21.9932L9.61658 23.5238L8.75139 24.3911L6.90884 22.5433L8.08487 21.9932ZM13.7642 22.0146L14.4037 23.1129L13.0795 24.3463L12.257 23.5217L13.7642 22.0146ZM5.85458 23.0368L8.36365 25.55C8.57698 25.7621 8.92152 25.7621 9.13485 25.55L9.29934 25.3866L9.81205 25.8972L8.82294 32.8121H4.22566C3.6544 32.8121 3.07825 32.5824 2.69608 32.2428C2.3289 31.9166 2.12746 31.5003 2.19939 31.0476L3.12334 25.2467C3.20605 24.7262 3.45247 24.4059 3.80588 24.1284C4.18749 23.8288 4.74598 23.5666 5.38249 23.2589L5.85458 23.0368ZM14.9902 24.1297L16.8458 27.3541C17.3912 28.2987 18.3331 28.8694 19.342 28.9755L19.6721 31.0476C19.744 31.5003 19.5439 31.9192 19.1797 32.2428C18.7975 32.5824 18.2203 32.8121 17.649 32.8121H13.0517L12.0648 25.9079L12.5839 25.3984L12.7356 25.5501C12.9662 25.7823 13.3478 25.7613 13.5516 25.5052L14.9902 24.1297ZM10.6164 24.0718H11.2583L11.8105 24.624L10.94 25.4806L10.0737 24.6122L10.6164 24.0718ZM10.7905 26.7741C10.8866 26.8009 10.9881 26.8009 11.0842 26.7741L11.9483 32.8121H9.9274L10.7905 26.7741Z" fill="#0071BC"/>
</svg>
