<svg width="26" height="25" viewBox="0 0 26 25" fill="none" xmlns="http://www.w3.org/2000/svg">
<path d="M12.5262 16.2524C11.9463 16.2524 11.5597 15.8658 11.5597 15.2859C11.6563 14.0295 12.3329 12.9663 13.2994 12.1931C13.8793 11.6132 14.4592 11.0333 14.4592 10.4534C14.4592 9.39026 13.5893 8.52041 12.5262 8.52041C11.463 8.52041 10.5932 9.39026 10.5932 10.4534C10.5932 11.0333 10.2066 11.4199 9.62666 11.4199C9.04676 11.4199 8.66016 11.0333 8.66016 10.4534C8.66016 8.3271 10.3999 6.5874 12.5262 6.5874C14.6525 6.5874 16.3922 8.3271 16.3922 10.4534C16.2955 11.7099 15.619 12.773 14.6525 13.5462C14.0726 14.1261 13.4927 14.706 13.4927 15.2859C13.4927 15.8658 13.1061 16.2524 12.5262 16.2524Z" fill="#AAAAAA"/>
<path d="M12.5261 19.1519C13.0599 19.1519 13.4926 18.7192 13.4926 18.1854C13.4926 17.6516 13.0599 17.2189 12.5261 17.2189C11.9923 17.2189 11.5596 17.6516 11.5596 18.1854C11.5596 18.7192 11.9923 19.1519 12.5261 19.1519Z" fill="#AAAAAA"/>
<path d="M1.31458 24.7576C1.02462 24.5643 0.927975 24.1777 0.927975 23.7911L1.79783 18.862C-1.77823 12.9663 0.154774 5.23429 6.05043 1.75489C11.9461 -1.72452 19.6781 0.111835 23.2542 6.00749C26.8302 11.9032 24.8972 19.6352 19.0016 23.2112C15.1355 25.5308 10.2064 25.6275 6.34038 23.3079L2.37773 24.9509C1.89448 25.0476 1.60453 24.9509 1.31458 24.7576ZM6.34038 21.2782C6.53368 21.2782 6.72698 21.3749 6.82363 21.4715C11.8494 24.661 18.4216 23.1146 21.5145 18.1854C24.6073 13.2563 23.1575 6.58739 18.2283 3.49459C13.2992 0.401785 6.72698 1.65824 3.53753 6.68404C1.31457 10.1635 1.31457 14.706 3.53753 18.1854C3.63418 18.3787 3.73083 18.6687 3.63418 18.862L3.05428 22.438L5.85713 21.2782H6.34038Z" fill="#AAAAAA"/>
</svg>
