<svg width="20" height="20" viewBox="0 0 20 20" fill="none" xmlns="http://www.w3.org/2000/svg">
<g clip-path="url(#clip0_143_2995)">
<path d="M11.7438 6.46085C11.6766 6.46085 11.6095 6.44653 11.5466 6.41722L10 5.70003L8.45339 6.41722C8.30083 6.48835 8.12195 6.47247 7.98464 6.37391C7.84733 6.27628 7.77283 6.11235 7.78995 5.94485L7.97489 4.11803L6.84939 3.00903C6.72977 2.89122 6.68214 2.71853 6.72489 2.55585C6.76764 2.39347 6.89395 2.26653 7.05633 2.2226L8.59014 1.80816L9.61739 0.354597C9.79314 0.105597 10.207 0.105597 10.3828 0.354597L11.41 1.80816L12.9438 2.2226C13.1062 2.26653 13.2325 2.39347 13.2753 2.55585C13.318 2.71853 13.2704 2.89122 13.1508 3.00903L12.0253 4.11803L12.2102 5.94485C12.2273 6.11241 12.1528 6.27628 12.0155 6.37391C11.935 6.4316 11.8396 6.46085 11.7438 6.46085ZM10 4.71466C10.0671 4.71466 10.1349 4.72928 10.1971 4.75828L11.1945 5.2206L11.07 3.98922C11.0553 3.84791 11.106 3.70785 11.2073 3.60803L11.911 2.91466L11.0022 2.66897C10.8966 2.64028 10.8045 2.57591 10.7416 2.48678L10 1.43728L9.25845 2.48678C9.19558 2.57591 9.10345 2.64028 8.99783 2.66897L8.08902 2.91466L8.79277 3.60803C8.89408 3.70785 8.94477 3.84791 8.93008 3.98922L8.80558 5.2206L9.80289 4.75828C9.86514 4.72928 9.93289 4.71466 10 4.71466Z" fill="#2F3642"/>
<path d="M12.5 19.8438H7.5C7.24119 19.8438 7.03125 19.6338 7.03125 19.375V9.375C7.03125 8.772 7.522 8.28125 8.125 8.28125H11.875C12.478 8.28125 12.9688 8.772 12.9688 9.375V19.375C12.9688 19.6338 12.7588 19.8438 12.5 19.8438ZM7.96875 18.9062H12.0312V9.375C12.0312 9.28894 11.9611 9.21875 11.875 9.21875H8.125C8.03894 9.21875 7.96875 9.28894 7.96875 9.375V18.9062Z" fill="#2F3642"/>
<path d="M17.5 19.8438H12.5C12.2412 19.8438 12.0312 19.6338 12.0312 19.375V11.25C12.0312 10.9912 12.2412 10.7812 12.5 10.7812H16.875C17.478 10.7812 17.9688 11.272 17.9688 11.875V19.375C17.9688 19.6338 17.7588 19.8438 17.5 19.8438ZM12.9688 18.9062H17.0312V11.875C17.0312 11.7889 16.9611 11.7188 16.875 11.7188H12.9688V18.9062Z" fill="#2F3642"/>
<path d="M7.5 19.8438H2.5C2.24119 19.8438 2.03125 19.6338 2.03125 19.375V14.375C2.03125 13.772 2.522 13.2812 3.125 13.2812H7.5C7.75881 13.2812 7.96875 13.4912 7.96875 13.75V19.375C7.96875 19.6338 7.75881 19.8438 7.5 19.8438ZM2.96875 18.9062H7.03125V14.2188H3.125C3.03894 14.2188 2.96875 14.2889 2.96875 14.375V18.9062Z" fill="#2F3642"/>
<path d="M19.375 19.8438H0.625C0.366188 19.8438 0.15625 19.6338 0.15625 19.375C0.15625 19.1162 0.366188 18.9062 0.625 18.9062H19.375C19.6338 18.9062 19.8438 19.1162 19.8438 19.375C19.8438 19.6338 19.6338 19.8438 19.375 19.8438Z" fill="#2F3642"/>
</g>
<defs>
<clipPath id="clip0_143_2995">
<rect width="20" height="20" fill="white"/>
</clipPath>
</defs>
</svg>
