<svg width="30" height="30" viewBox="0 0 30 30" fill="none" xmlns="http://www.w3.org/2000/svg">
<path d="M15 0C6.7159 0 0 6.7159 0 15C0 23.2841 6.7159 30 15 30C23.2841 30 30 23.2841 30 15C30 6.7159 23.2841 0 15 0ZM15 27.5C8.0966 27.5 2.50002 21.9034 2.50002 15C2.50002 8.0966 8.0966 2.50002 15 2.50002C21.9034 2.50002 27.5 8.0966 27.5 15C27.5 21.9034 21.9034 27.5 15 27.5Z" fill="#323232"/>
<path d="M13.3844 7.86611C12.8962 7.37796 12.1047 7.37796 11.6166 7.86611C11.1285 8.35425 11.1285 9.14574 11.6166 9.63388L16.9827 15L11.6166 20.3661C11.1285 20.8543 11.1285 21.6458 11.6166 22.1339C12.1047 22.6221 12.8962 22.6221 13.3844 22.1339L19.6344 15.8839C20.1225 15.3958 20.1225 14.6043 19.6344 14.1161L13.3844 7.86611Z" fill="#323232"/>
</svg>
