<svg width="353" height="147" viewBox="0 0 353 147" fill="none" xmlns="http://www.w3.org/2000/svg">
<mask id="mask0_302_73" style="mask-type:alpha" maskUnits="userSpaceOnUse" x="0" y="0" width="353" height="147">
<rect width="353" height="147" rx="10" fill="#FFF5F2"/>
</mask>
<g mask="url(#mask0_302_73)">
<path fill-rule="evenodd" clip-rule="evenodd" d="M278.286 65.4448H247.214C243.784 65.4448 241 62.6572 241 59.2224C241 55.7876 243.784 53 247.214 53H321.786C325.216 53 328 55.7876 328 59.2224C328 62.6572 325.216 65.4448 321.786 65.4448H303.143C305.859 69.06 307.804 73.2912 308.736 77.8896H321.786C325.216 77.8896 328 80.6772 328 84.112C328 87.5467 325.216 90.3344 321.786 90.3344H308.736C305.858 104.534 293.318 115.224 278.286 115.224H274.644L313.751 154.381C316.174 156.808 316.174 160.753 313.751 163.18C311.327 165.607 307.387 165.607 304.964 163.18L255.249 113.401C253.472 111.621 252.938 108.946 253.901 106.618C254.864 104.297 257.132 102.779 259.643 102.779H278.286C286.402 102.779 293.312 97.5835 295.866 90.3344H247.214C243.784 90.3344 241 87.5467 241 84.112C241 80.6772 243.784 77.8896 247.214 77.8896H295.866C293.312 70.6405 286.402 65.4448 278.286 65.4448Z" fill="#F58D91" fill-opacity="0.3"/>
</g>
</svg>
