<svg width="16" height="20" viewBox="0 0 16 20" fill="none" xmlns="http://www.w3.org/2000/svg">
<path fill-rule="evenodd" clip-rule="evenodd" d="M10.5562 19.8388C10.8105 19.6082 10.8297 19.2151 10.5991 18.9608L3.19948 10.8021H6.57612C9.55892 10.8021 11.9772 8.38396 11.9772 5.40104C11.9772 3.7287 11.2171 2.23387 10.0235 1.24316H14.7095C15.0528 1.24316 15.3311 0.964872 15.3311 0.621582C15.3311 0.278292 15.0528 0 14.7095 0H0.621582C0.278292 0 0 0.278292 0 0.621582C0 0.964872 0.278292 1.24316 0.621582 1.24316H6.57612C8.87237 1.24316 10.734 3.10473 10.734 5.40104C10.734 7.69738 8.87237 9.55895 6.57612 9.55895H1.79657C1.55067 9.55895 1.32788 9.70389 1.22828 9.92872C1.12865 10.1535 1.17096 10.4159 1.33614 10.5981L9.67823 19.796C9.90885 20.0503 10.3019 20.0695 10.5562 19.8388Z" fill="#2F3642"/>
<path fill-rule="evenodd" clip-rule="evenodd" d="M0 5.401C0 5.74429 0.278292 6.02258 0.621582 6.02258H14.7095C15.0528 6.02258 15.3311 5.74429 15.3311 5.401C15.3311 5.05771 15.0528 4.77942 14.7095 4.77942H0.621582C0.278292 4.77942 0 5.05771 0 5.401Z" fill="#2F3642"/>
</svg>
