<svg width="19" height="32" viewBox="0 0 19 32" fill="none" xmlns="http://www.w3.org/2000/svg">
<path fill-rule="evenodd" clip-rule="evenodd" d="M8.30908 14.5937H13.1312L14.5952 16.0578L17.7318 2.69312C17.924 1.67993 17.2522 0.693676 16.2391 0.50155C15.226 0.309424 14.2784 0.98949 14.0475 1.99418L11.7981 11.7813L9.73571 1.99418C9.53852 0.98224 8.55727 0.309299 7.54408 0.50155C6.53088 0.693739 5.85919 1.67999 6.05138 2.69312C6.80395 6.65996 7.55651 10.6268 8.30908 14.5937Z" fill="#FFD9AB"/>
<path fill-rule="evenodd" clip-rule="evenodd" d="M13.1311 14.5938H8.30897V15.5313C7.6264 17.7477 4.98158 17.1742 4.69252 15.6505C4.8847 16.6637 4.21308 17.6499 3.19988 17.8421C2.18669 18.0343 1.20037 17.3626 1.00825 16.3494L0.894498 15.7497L0.479995 22.4875C0.388807 23.9701 0.848747 24.4291 1.56325 25.4315L3.2382 27.7813H13.5999L15.5734 25.319C16.5949 24.0446 17.3663 23.0244 17.0741 21.4721L16.3936 17.8562L13.1311 14.5938Z" fill="#FFD9AB"/>
<path fill-rule="evenodd" clip-rule="evenodd" d="M4.69233 15.6505L4.19564 13.0323C4.00045 12.0227 3.01632 11.3543 2.00526 11.5461C0.992064 11.7383 0.320373 12.7245 0.512562 13.7377L1.008 16.3494C1.20019 17.3626 2.18644 18.0343 3.19964 17.8421C4.21289 17.6499 4.88458 16.6637 4.69233 15.6505Z" fill="#FFD9AB"/>
<path fill-rule="evenodd" clip-rule="evenodd" d="M3.23828 27.7814H13.6V31.5314H3.23828V27.7814Z" fill="white"/>
<path fill-rule="evenodd" clip-rule="evenodd" d="M8.30915 15.5313V14.5938C8.10834 13.5354 7.90759 12.4771 7.70684 11.4188C7.51421 10.406 6.52839 9.73398 5.51526 9.9261C4.50213 10.1183 3.83038 11.1046 4.02257 12.1177L4.69276 15.6505C4.98176 17.1742 7.62659 17.7476 8.30915 15.5313Z" fill="#FFD9AB"/>
<path fill-rule="evenodd" clip-rule="evenodd" d="M2.16882 17.7448C1.58838 17.5163 1.13244 17.0042 1.00825 16.3494L0.894498 15.7497L0.479995 22.4875C0.388807 23.9701 0.848748 24.4291 1.56325 25.4315L3.2382 27.7813H5.1132L2.96951 24.9627C2.22432 23.983 1.79506 23.5014 1.88625 22.0188L2.16882 17.7448Z" fill="#FFAF7C"/>
<path fill-rule="evenodd" clip-rule="evenodd" d="M3.23828 27.7814H4.64454V31.5314H3.23828V27.7814Z" fill="#9EE6FC"/>
<path fill-rule="evenodd" clip-rule="evenodd" d="M4.69247 15.6505L4.41834 14.2262C4.61053 15.2394 3.93884 16.2256 2.92571 16.4178C1.95177 16.6026 1.00282 15.989 0.76001 15.0412L1.00814 16.3493C1.20032 17.3625 2.18658 18.0342 3.19977 17.842C4.21303 17.6499 4.88472 16.6636 4.69247 15.6505Z" fill="#FFAF7C"/>
<path fill-rule="evenodd" clip-rule="evenodd" d="M8.30902 15.5313V14.5938L8.03345 13.1413C8.19639 16.4233 4.87775 15.9648 4.44019 14.3202L4.69256 15.6505C4.98163 17.1742 7.62645 17.7477 8.30902 15.5313Z" fill="#FFAF7C"/>
<path fill-rule="evenodd" clip-rule="evenodd" d="M10.9423 17.634C10.206 17.2109 9.71534 16.4801 9.71534 15.5313V14.5938H8.30908V15.5313C8.30908 17.0776 9.6119 18.045 11.1582 18.045L10.9423 17.634Z" fill="#FFAF7C"/>
<path d="M17.8248 1.02554C17.4716 0.506911 16.9395 0.157222 16.3264 0.0409713C15.0846 -0.194467 13.8829 0.617287 13.5906 1.88917L11.8179 9.60214L10.1951 1.90086C9.94643 0.635724 8.71886 -0.198405 7.45673 0.0409713C6.18704 0.281848 5.34997 1.51079 5.59085 2.78048L5.97304 4.79512L6.8941 4.62037L6.51192 2.60573C6.44229 2.23873 6.52085 1.86498 6.7331 1.55329C6.94535 1.24166 7.26442 1.03166 7.63142 0.962038C8.38961 0.818538 9.12705 1.32148 9.27562 2.08379L11.3293 11.8301V12.7187H12.2668V11.8344L14.5043 2.09911C14.6833 1.32029 15.4068 0.820663 16.1517 0.962038C16.5187 1.03166 16.8377 1.2416 17.05 1.55329C17.2605 1.86236 17.3395 2.23248 17.2729 2.59655L14.3311 15.1309L13.3253 14.125H8.69718L7.06886 5.54156L6.14779 5.71631L6.89692 9.66521C6.45685 9.44852 5.94572 9.36727 5.42772 9.46546C4.81466 9.58177 4.28253 9.93146 3.92928 10.4501C3.73628 10.7335 3.60971 11.0482 3.55365 11.3753C3.07884 11.0922 2.50277 10.9747 1.91821 11.0855C1.30514 11.2017 0.773013 11.5514 0.419761 12.07C0.0665095 12.5887 -0.0639909 13.2119 0.0523221 13.825L0.423074 15.7794L0.0121966 22.4586C-0.0804289 23.9645 0.365323 24.578 0.982201 25.4272C1.04608 25.5152 1.11264 25.6068 1.18158 25.7035L2.76946 27.9312V32H10.3187V31.0625H3.70696V28.25H13.1312V31.0625H11.2562V32H14.0687V27.9459L15.9393 25.6121C16.9352 24.3697 17.8757 23.1961 17.5349 21.3854L16.8275 17.6271L15.1112 15.9108L18.1882 2.80023L18.1923 2.78048C18.3086 2.16742 18.1781 1.54417 17.8248 1.02554ZM4.70416 10.9779C4.91641 10.6662 5.23547 10.4562 5.60247 10.3866C6.36435 10.242 7.10167 10.7443 7.24617 11.5062L7.8403 14.6379V15.4561C7.49729 16.4736 6.73073 16.5455 6.41217 16.5275C5.79241 16.493 5.25135 16.0788 5.15322 15.5639C5.15322 15.5637 5.15316 15.5634 5.1531 15.5632L4.48297 12.0304C4.41328 11.6633 4.49184 11.2896 4.70416 10.9779ZM1.19458 12.5978C1.40683 12.2862 1.72589 12.0762 2.09289 12.0066C2.18108 11.9898 2.2689 11.9818 2.35552 11.9818C3.0174 11.9818 3.60878 12.4525 3.73659 13.1262L4.23203 15.7379C4.30165 16.1049 4.22309 16.4786 4.01084 16.7903C3.79859 17.1019 3.47959 17.3119 3.11252 17.3816C2.74546 17.4511 2.37171 17.3726 2.06008 17.1603C1.74845 16.9481 1.53845 16.6291 1.46883 16.262L0.973389 13.6504C0.903764 13.2833 0.982327 12.9095 1.19458 12.5978ZM16.6135 21.5588C16.862 22.8791 16.2412 23.7364 15.2077 25.0258L13.3749 27.3125H3.47971L1.94496 25.1593C1.87427 25.0602 1.80608 24.9663 1.74058 24.8762C1.16489 24.0837 0.875888 23.686 0.947826 22.5163L1.24389 17.7038C1.33314 17.7874 1.4292 17.8649 1.53227 17.9351C1.92733 18.2042 2.38296 18.344 2.84865 18.344C2.9944 18.344 3.14115 18.3303 3.28728 18.3026C3.90034 18.1862 4.43247 17.8366 4.78572 17.318C4.86578 17.2004 4.93441 17.0775 4.99128 16.9506C5.36572 17.2461 5.84379 17.4347 6.36004 17.4635C7.05079 17.5016 7.66492 17.2539 8.11861 16.7839C8.28967 17.1419 8.53636 17.462 8.85261 17.7271C9.39099 18.1786 10.0988 18.4495 10.8697 18.5036L11.2577 19.2423C8.76924 19.6055 6.85179 21.7544 6.85179 24.3437H7.7893C7.7893 22.111 9.53162 20.2789 11.7268 20.1351L12.2546 21.1398L13.0846 20.7038L11.4414 17.5761H11.1582C9.52268 17.5761 8.7778 16.5161 8.7778 15.5311V15.0624H12.937L15.9596 18.0851L16.6135 21.5588Z" fill="black"/>
<path d="M9.3811 29.1875H10.3186V30.1251H9.3811V29.1875Z" fill="black"/>
<path d="M11.2561 29.1875H12.1936V30.1251H11.2561V29.1875Z" fill="black"/>
</svg>
