<?xml version="1.0" encoding="UTF-8"?>
<svg version="1.1" xmlns="http://www.w3.org/2000/svg" width="1800" height="793">
<path d="M0 0 C1.24764633 -0.00997513 2.49529266 -0.01995026 3.78074646 -0.03022766 C5.16085803 -0.03112343 6.54096976 -0.03178702 7.92108154 -0.03224182 C9.37665736 -0.03986465 10.83222915 -0.04829236 12.28779602 -0.0574646 C16.24045737 -0.07940738 20.19304135 -0.08820846 24.14575672 -0.09329104 C26.61695331 -0.09693559 29.08812967 -0.10317623 31.55931854 -0.11029243 C40.18561187 -0.13478844 48.81184507 -0.14783866 57.43817139 -0.15138245 C65.47030864 -0.15501544 73.50206325 -0.18489326 81.5340836 -0.22678703 C88.43615627 -0.26152088 95.33810235 -0.27693144 102.24026179 -0.27762848 C106.35981019 -0.2784204 110.47896897 -0.287119 114.59842682 -0.31562614 C118.47607067 -0.34185945 122.35300341 -0.3439833 126.23069572 -0.3279705 C127.64963015 -0.32616002 129.06860594 -0.33281069 130.48745155 -0.34878922 C139.66692818 -0.44581768 145.69595852 0.28380624 152.42538834 6.71688175 C157.01656019 11.74156113 158.1680603 16.9351336 158.15670776 23.57637024 C158.16083176 25.44406319 158.16083176 25.44406319 158.16503906 27.3494873 C158.15796222 28.71614172 158.15069263 30.08279516 158.14324951 31.44944763 C158.14268494 32.89859001 158.14300285 34.34773296 158.14413452 35.796875 C158.14470726 39.71999873 158.13296581 43.64299963 158.11898661 47.56609488 C158.10646602 51.67003853 158.1053077 55.77398514 158.10293579 59.87794495 C158.09672492 67.64449385 158.08031943 75.41098631 158.06023681 83.17751038 C158.03786557 92.02148782 158.0268813 100.86546799 158.01684594 109.7094667 C157.99595286 127.897728 157.96078452 146.08593679 157.91619873 164.27415466 C159.0092301 164.26862391 159.0092301 164.26862391 160.12434292 164.26298141 C177.87769996 164.17453697 195.63101286 164.10839968 213.38454342 164.06690598 C221.97012699 164.04630513 230.55556325 164.01823211 239.14105225 163.97239685 C246.6265991 163.93245299 254.11203922 163.90670384 261.59768969 163.89780068 C265.55913132 163.89259866 269.52026771 163.88042421 273.48161125 163.85123444 C277.21546147 163.82394568 280.9488827 163.81573655 284.68282318 163.82172394 C286.69575492 163.82011062 288.70864067 163.7986586 290.72145081 163.776474 C298.44302046 163.81140194 305.41093756 164.35518806 311.45809841 169.61539841 C318.584672 177.48053491 318.36000076 185.62457305 318.33612061 195.67967224 C318.34346787 197.14229986 318.35205601 198.60492169 318.36178589 200.0675354 C318.38394382 204.02639541 318.38693539 207.98504692 318.38503838 211.94396043 C318.38491839 215.25633028 318.39349425 218.56865641 318.40181589 221.88101405 C318.42103012 229.70064873 318.42394133 237.52017667 318.41717529 245.33982849 C318.4105388 253.38847905 318.43338738 261.43667082 318.47048903 269.48522836 C318.50124934 276.41118523 318.51253913 283.33699502 318.50865221 290.26301879 C318.50659089 294.39262738 318.51196747 298.52187901 318.5365448 302.6514225 C318.55891407 306.53816595 318.55685079 310.42416723 318.53661728 314.31091499 C318.53322487 315.73061457 318.53821953 317.1503651 318.55260086 318.56999588 C318.63428374 327.23691472 317.91715648 334.00375612 312.91619873 341.27415466 C310.59979248 343.52806091 310.59979248 343.52806091 308.35369873 344.83665466 C307.60990967 345.29169373 306.86612061 345.74673279 306.09979248 346.21556091 C302.37361992 348.02198804 299.07801216 348.40044658 294.96026611 348.41459656 C293.46348328 348.42316177 293.46348328 348.42316177 291.9364624 348.43190002 C290.30317993 348.43357681 290.30317993 348.43357681 288.63690186 348.43528748 C286.90929626 348.44273483 286.90929626 348.44273483 285.14678955 348.45033264 C281.33033655 348.46495519 277.51392517 348.47175792 273.69744873 348.47727966 C271.71294382 348.48157838 269.7284389 348.48587763 267.74393415 348.49025416 C262.20991797 348.50206309 256.67591183 348.50960113 251.14188433 348.51304936 C244.0105368 348.51751831 236.87938208 348.53501239 229.74809313 348.56404996 C224.22090284 348.58576536 218.69376638 348.595759 213.16653395 348.59709048 C209.87300668 348.59813226 206.5797004 348.60538013 203.28620911 348.6219101 C199.60087766 348.63908005 195.91600773 348.63706294 192.23065186 348.63059998 C191.15799072 348.63981476 190.08532959 348.64902954 188.98016357 348.65852356 C174.09277947 348.57727209 161.13045248 344.20031845 150.26776123 333.87571716 C146.55250204 329.76548025 143.88005323 325.2159458 141.1461792 320.41526794 C129.46020077 300.07266556 116.49459442 281.11630503 101.45428467 263.12083435 C100.0242854 261.40392729 98.61327925 259.67315193 97.20526123 257.93821716 C90.79465482 250.14604452 83.79332968 242.9677741 76.66619873 235.83665466 C76.19425079 235.36370972 75.72230286 234.89076477 75.23605347 234.40348816 C69.64005465 228.80882772 63.96102668 223.38191359 57.91619873 218.27415466 C57.04994873 217.53809998 56.18369873 216.80204529 55.29119873 216.04368591 C41.57679608 204.74283767 27.25632955 194.34601154 12.18182373 184.93431091 C-3.88816216 174.88603049 -15.5177691 163.19057364 -20.08380127 144.27415466 C-21.35537435 138.41465246 -21.246163 132.59429222 -21.26080322 126.62840271 C-21.26737442 125.46180115 -21.27394562 124.29519958 -21.28071594 123.09324646 C-21.30039289 119.24078807 -21.31209765 115.38836853 -21.32208252 111.53587341 C-21.32615805 110.21766916 -21.33023357 108.89946491 -21.3344326 107.54131508 C-21.35345685 101.28519311 -21.36769525 95.02908276 -21.37604457 88.77293748 C-21.38581557 81.5724745 -21.41214278 74.37231902 -21.45254546 67.17196435 C-21.4827765 61.59127926 -21.49751991 56.01068202 -21.50082558 50.42991668 C-21.50316751 47.10346648 -21.51401436 43.77741957 -21.53728676 40.45104027 C-21.5616648 36.73647497 -21.56071522 33.02271122 -21.55377197 29.30809021 C-21.56658203 28.2184346 -21.57939209 27.12877899 -21.59259033 26.00610352 C-21.54238913 18.6187732 -20.55760185 11.94573938 -15.30438709 6.39342785 C-10.43623133 1.98875692 -6.65849878 0.02854744 0 0 Z " fill="#EB1F27" transform="translate(334.08380126953125,142.72584533691406)"/>
<path d="M0 0 C2.05615279 1.76937539 4.05503352 3.59089721 6.02587891 5.45458984 C7.91628743 7.22945557 9.83978104 8.90922976 11.81103516 10.59130859 C17.18720419 15.27756823 22.19625974 20.33464634 27.22680664 25.38452148 C28.88593336 27.04900887 30.55034067 28.70808056 32.21533203 30.36669922 C37.79565867 35.94327473 43.23357788 41.58426538 48.32666016 47.61474609 C49.17228516 48.57896484 50.01791016 49.54318359 50.88916016 50.53662109 C86.03220895 91.31156873 120.61901408 141.11651061 120.66259766 196.62255859 C120.66903635 198.55825903 120.67576548 200.49395851 120.68276978 202.42965698 C120.69468767 206.46907814 120.69845591 210.50841409 120.69726562 214.54785156 C120.69706189 219.70685077 120.72444515 224.86530254 120.75881004 230.02417183 C120.78110558 234.01519251 120.78510247 238.00608148 120.78404617 241.99715805 C120.78639499 243.89884211 120.7951777 245.80053019 120.81071091 247.70215225 C120.83044041 250.36497241 120.82450769 253.02661149 120.8125 255.68945312 C120.82373901 256.46267914 120.83497803 257.23590515 120.84655762 258.03256226 C120.75087473 266.4377235 117.25760113 273.67577542 111.4405508 279.68361759 C103.75202798 286.70740833 95.50337693 287.33891006 85.48266602 287.24584961 C84.11649144 287.25099882 82.75032353 287.25828761 81.38417053 287.26753235 C77.70220352 287.28592604 74.02096779 287.27318591 70.33903193 287.25344205 C66.47020026 287.23695706 62.60141133 287.2458819 58.7325592 287.2509613 C52.23898752 287.2554708 45.74570497 287.23968251 39.25219727 287.21166992 C31.76300356 287.17960952 24.27433066 287.17964264 16.78509992 287.19688469 C9.55555107 287.21279032 2.32619172 287.20599125 -4.90334892 287.18894768 C-7.96894871 287.18210573 -11.03439528 287.18307999 -14.09999275 287.19049263 C-17.7142584 287.19819728 -21.32793669 287.18589498 -24.94210243 287.15864372 C-26.88806458 287.14855961 -28.83409759 287.15789836 -30.78005981 287.16796875 C-40.39366186 287.06393978 -47.89341729 285.03097782 -55.10302734 278.45849609 C-60.17016003 272.50902687 -62.80168928 265.31680383 -62.79359436 257.57806396 C-62.79565636 256.05526825 -62.79565636 256.05526825 -62.79776001 254.50170898 C-62.79416473 253.39400146 -62.79056946 252.28629395 -62.78686523 251.14501953 C-62.78701126 249.97400696 -62.78715729 248.80299438 -62.78730774 247.59649658 C-62.78661056 243.72235264 -62.77882722 239.84825665 -62.77099609 235.97412109 C-62.76857605 233.28940864 -62.76765846 230.60469624 -62.76670837 227.91998291 C-62.76360118 221.5735665 -62.75539604 215.22716734 -62.74535888 208.88075852 C-62.73417875 201.65468714 -62.7286825 194.42861494 -62.72366345 187.20253706 C-62.71321292 172.33993075 -62.69562532 157.47733956 -62.67333984 142.61474609 C-54.863172 143.63930941 -49.8886971 146.01282262 -44.42333984 151.73974609 C-36.23740514 162.5206543 -37.0847703 174.87075701 -37.09912109 187.74365234 C-37.08666103 189.78581431 -37.07232269 191.8279656 -37.05619812 193.87010193 C-37.01835643 199.21381887 -37.00301348 204.5573508 -36.9934082 209.90118408 C-36.97357769 218.48507579 -36.91690446 227.06882803 -36.864645 235.65257072 C-36.84928312 238.6495423 -36.84210771 241.64644386 -36.83650208 244.64344788 C-36.82949004 246.46794673 -36.82238945 248.29244525 -36.81518555 250.11694336 C-36.81597862 251.37063721 -36.81597862 251.37063721 -36.81678772 252.6496582 C-36.89971025 256.76443061 -36.89971025 256.76443061 -35.67333984 260.61474609 C-18.87110163 260.63807485 -2.06886846 260.65572515 14.73338223 260.66655827 C22.53441852 260.67172127 30.33544476 260.67876406 38.13647461 260.69018555 C44.93342329 260.70013224 51.73036469 260.70659949 58.52732044 260.70883459 C62.12844147 260.71014172 65.72954168 260.71322773 69.33065605 260.72047615 C73.34422618 260.72848974 77.3577598 260.72873724 81.37133789 260.72827148 C82.57398788 260.73186676 83.77663788 260.73546204 85.01573181 260.73916626 C86.10253235 260.7377916 87.18933289 260.73641693 88.30906677 260.73500061 C89.25943534 260.7359224 90.20980391 260.7368442 91.18897152 260.73779392 C93.30962688 260.85354725 93.30962688 260.85354725 94.32666016 259.61474609 C94.43695997 257.35809388 94.47581504 255.0979375 94.48779297 252.83862305 C94.49275787 252.12944733 94.49772278 251.42027161 94.50283813 250.68960571 C94.51751702 248.32740317 94.52427712 245.96526815 94.52978516 243.60302734 C94.53553933 241.95647684 94.54129703 240.30992634 94.54705811 238.66337585 C94.55758934 235.19721159 94.56341565 231.73107061 94.56689453 228.26489258 C94.57233279 223.85950032 94.59624993 219.45442448 94.62486649 215.04913044 C94.64366939 211.63865832 94.64870811 208.22825901 94.65023041 204.81773949 C94.65322642 203.19650766 94.66114949 201.57527616 94.67441559 199.95409584 C94.81338468 181.63824116 92.23363995 164.74673673 78.99462891 150.93115234 C48.63964067 124.57608935 -2.81011012 127.62594972 -40.34423828 125.25585938 C-95.9594545 121.73487737 -145.32313584 111.23773127 -189.82861328 76.05566406 C-191.41311434 74.81800853 -193.02876294 73.6204134 -194.64990234 72.43115234 C-204.59404812 65.02691996 -212.45940975 54.32214319 -216.67333984 42.61474609 C-216.34333984 41.62474609 -216.01333984 40.63474609 -215.67333984 39.61474609 C-215.06748047 40.26701172 -214.46162109 40.91927734 -213.83740234 41.59130859 C-202.45518784 53.46383388 -189.23138886 60.31646722 -172.67333984 61.61474609 C-157.10837628 61.76235903 -145.1131532 57.58766954 -133.61083984 47.11474609 C-122.66598341 35.64558516 -116.50710468 19.38630771 -116.67333984 3.61474609 C-117.79904614 -11.80340979 -124.385588 -23.63364559 -135.48583984 -34.07275391 C-147.31482078 -44.29030181 -162.28011905 -50.68880024 -177.54833984 -53.77978516 C-178.60021484 -54.07949219 -178.60021484 -54.07949219 -179.67333984 -54.38525391 C-180.16833984 -55.37525391 -180.16833984 -55.37525391 -180.67333984 -56.38525391 C-119.09970958 -69.13247496 -46.84034141 -38.77620326 0 0 Z " fill="#0070BB" transform="translate(375.67333984375,367.38525390625)"/>
<path d="M0 0 C1.11805975 0.92088689 2.22800979 1.85230666 3.3125 2.8125 C6.05279233 1.50587054 8.50152769 0.03052708 11 -1.6875 C19.7594853 -7.14607631 30.30928762 -7.27404794 40.30859375 -5.72265625 C48.40753926 -3.82429038 54.48697549 -0.26763656 59.1875 6.6875 C64.29763112 14.94232719 63.57899273 24.48309686 63.5078125 33.8125 C63.5040762 35.25838016 63.50123214 36.70426287 63.49923706 38.15014648 C63.49164914 41.93128615 63.47204307 45.71226892 63.4498291 49.49334717 C63.42926557 53.36142862 63.42021301 57.22953574 63.41015625 61.09765625 C63.3887919 68.66935019 63.35365009 76.24088301 63.3125 83.8125 C55.0625 83.8125 46.8125 83.8125 38.3125 83.8125 C38.29791748 81.92088135 38.28333496 80.0292627 38.26831055 78.08032227 C38.21648045 71.80176104 38.15114729 65.52345141 38.07678509 59.24511814 C38.03222493 55.44183571 37.99293817 51.63865686 37.96606445 47.83520508 C37.93988692 44.15860051 37.89938517 40.48239765 37.84931374 36.80604362 C37.83274195 35.40961678 37.82116775 34.01312061 37.81488609 32.61660957 C37.74980776 19.37761656 37.74980776 19.37761656 32 7.8125 C28.84611828 5.46542523 27.23492824 4.88941036 23.3125 4.8125 C18.40374451 5.53721784 14.43285681 6.9797547 10.3125 9.8125 C10.47515854 10.82425797 10.63781708 11.83601593 10.80540466 12.87843323 C11.28048873 16.56415526 11.43304304 20.04523242 11.42602539 23.75756836 C11.42617142 24.41207977 11.42631744 25.06659119 11.4264679 25.74093628 C11.42577801 27.87810727 11.41802946 30.01518822 11.41015625 32.15234375 C11.40828878 33.64449516 11.40686643 35.13664719 11.40586853 36.62879944 C11.40206925 40.53648604 11.39226135 44.44413486 11.38116455 48.35180664 C11.3708945 52.34716277 11.36635897 56.34252507 11.36132812 60.33789062 C11.35063651 68.16277955 11.33306096 75.98762965 11.3125 83.8125 C3.0625 83.8125 -5.1875 83.8125 -13.6875 83.8125 C-13.70208252 81.92088135 -13.71666504 80.0292627 -13.73168945 78.08032227 C-13.78351955 71.80176104 -13.84885271 65.52345141 -13.92321491 59.24511814 C-13.96777507 55.44183571 -14.00706183 51.63865686 -14.03393555 47.83520508 C-14.06011308 44.15860051 -14.10061483 40.48239765 -14.15068626 36.80604362 C-14.16725805 35.40961678 -14.17883225 34.01312061 -14.18511391 32.61660957 C-14.25019224 19.37761656 -14.25019224 19.37761656 -20 7.8125 C-23.1689622 5.45420255 -24.7375625 4.8125 -28.6875 4.8125 C-33.14504288 5.95059605 -37.37900351 7.5546254 -40.6875 10.8125 C-41.2710672 14.0605653 -41.2710672 14.0605653 -41.14160156 17.85424805 C-41.14218567 18.56669678 -41.14276978 19.27914551 -41.14337158 20.01318359 C-41.14058548 22.36735819 -41.10947113 24.72026547 -41.078125 27.07421875 C-41.07066442 28.70660205 -41.06497062 30.33899431 -41.06097412 31.97138977 C-41.04570321 36.26735167 -41.00640933 40.5627724 -40.9621582 44.85852051 C-40.92123662 49.24219441 -40.90296979 53.62595577 -40.8828125 58.00976562 C-40.83991591 66.61095308 -40.76955463 75.21159687 -40.6875 83.8125 C-48.9375 83.8125 -57.1875 83.8125 -65.6875 83.8125 C-65.717229 80.59584595 -65.717229 80.59584595 -65.74755859 77.31420898 C-65.81459181 70.21346301 -65.89222926 63.11286114 -65.97502708 56.01228237 C-66.02488315 51.70898575 -66.0712138 47.4057124 -66.109375 43.10229492 C-66.14636328 38.94598772 -66.19275927 34.78988049 -66.24556351 30.63374519 C-66.26403572 29.05143825 -66.27916991 27.46908855 -66.29084396 25.88671684 C-66.30782998 23.66312237 -66.33689298 21.43997875 -66.36865234 19.21655273 C-66.38197601 17.95302475 -66.39529968 16.68949677 -66.4090271 15.38768005 C-66.70781679 11.55166252 -67.51058148 8.45977472 -68.6875 4.8125 C-72.3175 4.1525 -75.9475 3.4925 -79.6875 2.8125 C-79.6875 0.5025 -79.6875 -1.8075 -79.6875 -4.1875 C-75.68775019 -4.30460979 -71.68844719 -4.37505489 -67.6875 -4.4375 C-66.56214844 -4.47101563 -65.43679688 -4.50453125 -64.27734375 -4.5390625 C-57.22015949 -4.62160267 -52.67693292 -4.00152568 -46.6875 -0.1875 C-46.0275 0.4725 -45.3675 1.1325 -44.6875 1.8125 C-44.0584375 1.40257812 -43.429375 0.99265625 -42.78125 0.5703125 C-29.64867184 -7.69688279 -13.20843397 -9.83656262 0 0 Z " fill="#0070BB" transform="translate(1011.6875,308.1875)"/>
<path d="M0 0 C4.1625612 -0.07453622 8.3247618 -0.12878254 12.48779297 -0.16479492 C13.90192437 -0.17981825 15.31600968 -0.20024305 16.72998047 -0.22631836 C18.77062397 -0.26298954 20.81064792 -0.27979036 22.8515625 -0.29296875 C24.07697754 -0.3086792 25.30239258 -0.32438965 26.56494141 -0.34057617 C30.38750836 0.03842034 32.75389997 0.97274782 36 3 C38.96251564 7.80131845 40.12662663 12.0750728 40.12025452 17.65704346 C40.12231651 19.05362686 40.12231651 19.05362686 40.12442017 20.47842407 C40.11902725 21.99972427 40.11902725 21.99972427 40.11352539 23.55175781 C40.11367142 24.62523468 40.11381744 25.69871155 40.1139679 26.80471802 C40.11327103 30.35420754 40.10548914 33.90364464 40.09765625 37.453125 C40.09579127 39.91363496 40.09436774 42.3741453 40.09336853 44.83465576 C40.08954967 51.31194076 40.07972472 57.78920335 40.06866455 64.26647949 C40.0584369 70.87556658 40.053868 77.48465728 40.04882812 84.09375 C40.03810192 97.06250956 40.02122515 110.03125359 40 123 C37.26843041 123.16262928 34.54657878 123.28110686 31.8125 123.375 C31.04357422 123.42527344 30.27464844 123.47554688 29.48242188 123.52734375 C23.86673398 123.67195374 23.86673398 123.67195374 21.33349609 121.70800781 C18 117.83950617 18 117.83950617 18 115 C17.34 115 16.68 115 16 115 C15.76023437 115.60457031 15.52046875 116.20914063 15.2734375 116.83203125 C13.7210994 119.47481545 12.31809563 120.26937489 9.625 121.6875 C8.85414063 122.10386719 8.08328125 122.52023437 7.2890625 122.94921875 C-0.97931174 126.74476938 -11.30300854 125.91290478 -19.7265625 122.96875 C-29.9059396 118.63114601 -36.03901101 111.57084158 -40.95703125 101.78515625 C-45.96274366 88.41784184 -46.25587388 71.14422864 -41.2578125 57.7578125 C-36.6768964 47.71394054 -31.31360744 40.01360373 -20.875 35.625 C-9.73111618 31.66799118 0.87757234 32.21405901 12 36 C12.99 36.495 12.99 36.495 14 37 C14.08797281 33.81267746 14.14071341 30.62567212 14.1875 27.4375 C14.21263672 26.54224609 14.23777344 25.64699219 14.26367188 24.72460938 C14.32656015 19.00177593 13.74258826 15.05353431 11 10 C8.6870518 7.6870518 7.52095125 7.50419025 4.375 6.875 C3.55773437 6.70742188 2.74046875 6.53984375 1.8984375 6.3671875 C1.27195312 6.24601562 0.64546875 6.12484375 0 6 C0 4.02 0 2.04 0 0 Z M-11 47 C-17.43217096 57.0075956 -18.36986759 67.09762975 -18.3125 78.75 C-18.30831055 79.90145508 -18.30412109 81.05291016 -18.29980469 82.23925781 C-18.16510396 92.35900852 -17.97558718 102.99859118 -11 111 C-7.50057512 114.40733475 -4.92561776 115.90341926 0 116 C5.88246947 114.96756658 9.73739293 112.02215133 13.52450562 107.51818848 C16.38497085 102.63630573 15.97460088 97.40990796 15.89453125 91.890625 C15.89885666 90.64625671 15.90318207 89.40188843 15.90763855 88.11981201 C15.90811573 84.8325565 15.87516739 81.5476745 15.8303833 78.26080322 C15.81245598 76.24505044 15.82000996 74.23107408 15.8371582 72.21533203 C15.86823729 68.33542889 15.85740235 64.45802938 15.83203125 60.578125 C15.84554375 58.77652924 15.84554375 58.77652924 15.85932922 56.9385376 C15.79780696 53.84012113 15.68896468 51.02138457 15 48 C9.87000519 43.12228569 4.52751034 42.62172907 -2.27734375 42.73828125 C-6.31799056 43.1266935 -8.12497002 44.12497002 -11 47 Z " fill="#0070BB" transform="translate(870,269)"/>
<path d="M0 0 C29.50877745 -0.59017555 29.50877745 -0.59017555 40.171875 8.94140625 C45.11976887 13.71015223 49.45810964 18.888682 53.75 24.24609375 C55.92586716 26.9092645 58.18178209 29.46042448 60.5 32 C63.59555196 35.39598682 66.55151207 38.86171531 69.4375 42.4375 C72.51336588 46.24087503 75.68753166 49.90082652 79 53.5 C83.10442028 57.9596715 86.95441195 62.56812745 90.7578125 67.28515625 C93.77213931 70.93490735 96.94714062 74.42405401 100.15234375 77.90625 C102 80 102 80 104 83 C104.33 55.61 104.66 28.22 105 0 C108.3 0 111.6 0 115 0 C115 40.92 115 81.84 115 124 C105 124 105 124 101.49609375 121.10546875 C100.44621683 119.82374678 99.42748728 118.51602473 98.4375 117.1875 C97.88868164 116.50405518 97.33986328 115.82061035 96.77441406 115.11645508 C95.15749537 113.09625283 93.57899821 111.04987345 92 109 C90.42288938 107.0574314 88.84035523 105.11924039 87.25 103.1875 C86.54359375 102.31480469 85.8371875 101.44210937 85.109375 100.54296875 C82.97013194 97.9639924 80.75575063 95.47743647 78.5 93 C75.47717579 89.68010514 72.57487839 86.30235888 69.75 82.8125 C64.53613562 76.37451094 59.08958747 70.14836434 53.65087891 63.90087891 C51.04688838 60.90255441 48.4593337 57.89026974 45.875 54.875 C45.44533936 54.37444092 45.01567871 53.87388184 44.57299805 53.3581543 C39.35217407 47.26384078 34.18377649 41.12628131 29 35 C28.67 64.37 28.34 93.74 28 124 C24.7 124 21.4 124 18 124 C17.99413376 122.71484497 17.98826752 121.42968994 17.98222351 120.10559082 C17.92495872 107.98185651 17.85217713 95.85830092 17.76428509 83.73474884 C17.71959762 77.50221556 17.68033766 71.2697474 17.65356445 65.03710938 C17.62751567 59.0199197 17.58710146 53.00298086 17.53681374 46.98594666 C17.5201558 44.69273503 17.50863486 42.39948004 17.50238609 40.10621643 C17.49273363 36.88890416 17.46465944 33.67223207 17.43237305 30.45507812 C17.43452568 29.03950623 17.43452568 29.03950623 17.4367218 27.59533691 C17.34662049 21.2278881 16.78236213 14.88173221 12.140625 10.07421875 C9.67071791 8.83475808 7.4720481 8.27811349 4.75 7.8125 C3.85796875 7.65394531 2.9659375 7.49539063 2.046875 7.33203125 C1.37140625 7.22246094 0.6959375 7.11289062 0 7 C0 4.69 0 2.38 0 0 Z " fill="#0070BB" transform="translate(689,429)"/>
<path d="M0 0 C12.25038672 -0.48516383 23.08595225 -0.90322344 33.25 7 C42.13313664 15.76258926 46.61759345 28.46424144 51.4375 39.75 C52.07938061 41.23728039 52.72195488 42.72426162 53.36523438 44.2109375 C54.9181466 47.803905 56.46171321 51.40074798 58 55 C60.7973475 50.80397875 62.66327469 46.29597585 64.6875 41.6875 C65.11611328 40.74970703 65.54472656 39.81191406 65.98632812 38.84570312 C69.02051711 32.1179446 69.02051711 32.1179446 68 25 C66.574458 21.69505858 66.574458 21.69505858 64.75 18.4375 C63.87601563 16.79587891 63.87601563 16.79587891 62.984375 15.12109375 C60.13204691 10.63485331 56.9912377 7.03346721 52 5 C52 3.35 52 1.7 52 0 C63.97086523 -0.50521823 75.47255855 -0.63456037 85.2890625 7.38183594 C93.91488606 15.53993505 98.14036633 27.43901342 102.875 38.0625 C104.02773226 40.62538243 105.18331852 43.18694758 106.34085083 45.74766541 C107.05541712 47.33090068 107.76669151 48.91562668 108.47433472 50.50196838 C109.85361953 53.99570241 109.85361953 53.99570241 112 57 C112.36918045 56.03280281 112.36918045 56.03280281 112.74581909 55.04606628 C115.30445407 48.34500416 117.86824402 41.64593116 120.43505859 34.94799805 C121.39318567 32.44703445 122.34946927 29.94537758 123.30419922 27.44311523 C124.67589776 23.85006273 126.05231779 20.25885043 127.4296875 16.66796875 C128.07041702 14.98503975 128.07041702 14.98503975 128.72409058 13.26811218 C129.12435455 12.22725967 129.52461853 11.18640717 129.93701172 10.11401367 C130.46329666 8.7383448 130.46329666 8.7383448 131.00021362 7.33488464 C132 5 132 5 134 2 C136.87448676 1.67629654 139.61377768 1.81210852 142.50146484 1.9128418 C143.32598145 1.941604 144.15049805 1.97036621 145 2 C139.97515213 16.7220622 134.36032323 31.21374649 128.73937988 45.71600342 C127.75345549 48.2615505 126.770047 50.8080661 125.78668213 53.35460281 C120.92943342 65.93176551 116.06537498 78.50487406 111 91 C107.7 91 104.4 91 101 91 C92.87733558 75.22178925 85.49172018 59.08378676 78 43 C76.00732436 44.99267564 75.38743591 46.14367303 74.35180664 48.69604492 C74.04130875 49.45410934 73.73081085 50.21217377 73.41090393 50.99320984 C73.0806572 51.81400528 72.75041046 52.63480072 72.41015625 53.48046875 C71.89236855 54.74978996 71.89236855 54.74978996 71.36412048 56.04475403 C70.25882217 58.75709514 69.16049363 61.47219468 68.0625 64.1875 C66.96656386 66.88431756 65.86922249 69.58055963 64.77159119 72.27668762 C64.08908708 73.95460743 63.40783714 75.6330381 62.7280426 77.3120575 C60.86933362 81.89779205 58.96524254 86.45885489 57 91 C53.7 91 50.4 91 47 91 C42.09778187 81.58485753 37.60469571 72.02087065 33.3125 62.3125 C32.80992676 61.17586914 32.30735352 60.03923828 31.78955078 58.86816406 C29.90670581 54.60242635 28.02696856 50.33532665 26.14996338 46.0670166 C24.42730309 42.15058276 22.69844052 38.23699032 20.96176147 34.32675171 C20.14967151 32.49320368 19.34486097 30.65643693 18.5402832 28.81958008 C13.40891272 15.6826116 13.40891272 15.6826116 3.625 6.375 C1.830625 5.694375 1.830625 5.694375 0 5 C0 3.35 0 1.7 0 0 Z " fill="#0070BB" transform="translate(974,463)"/>
<path d="M0 0 C4.145697 -0.0879568 8.29115012 -0.14071153 12.4375 -0.1875 C13.60216797 -0.21263672 14.76683594 -0.23777344 15.96679688 -0.26367188 C29.26490837 -0.37605028 29.26490837 -0.37605028 35 3 C39.46180136 8.88101696 40.09325254 15.70909176 40.20532227 22.91357422 C40.2352401 24.62466873 40.2352401 24.62466873 40.26576233 26.37033081 C40.28247482 27.58616852 40.29918732 28.80200623 40.31640625 30.0546875 C40.33718735 31.31137238 40.35796844 32.56805725 40.37937927 33.86282349 C40.43354612 37.18685701 40.48383793 40.51090257 40.53222656 43.83502197 C40.58266496 47.23381717 40.63823383 50.63252816 40.69335938 54.03125 C40.80028257 60.68743272 40.90209464 67.34367886 41 74 C42.74837605 71.94223198 44.49559867 69.88350287 46.2421875 67.82421875 C46.73227295 67.24764526 47.2223584 66.67107178 47.72729492 66.07702637 C50.5883387 62.70175828 53.38889716 59.29071485 56.125 55.8125 C57.41286827 54.20528228 58.70458091 52.60113799 60 51 C60.70640625 50.12085938 61.4128125 49.24171875 62.140625 48.3359375 C66.9802049 42.59951237 71.596156 37.98590039 79 36 C83.70221069 35.63225672 88.29621986 35.69499985 93 36 C93 37.65 93 39.3 93 41 C92.3709375 41.14695312 91.741875 41.29390625 91.09375 41.4453125 C79.18219844 44.56671306 73.38800726 51.48650019 66 61 C64.48139783 62.89762101 62.96070315 64.79357016 61.4375 66.6875 C60.29103301 68.12449468 59.1449484 69.56179506 58 71 C59.25284328 74.45347018 60.65573055 77.13323388 62.94140625 80.00390625 C63.52083984 80.73891357 64.10027344 81.4739209 64.69726562 82.23120117 C65.31279297 83.00052979 65.92832031 83.7698584 66.5625 84.5625 C67.83550649 86.17379135 69.10764109 87.78577193 70.37890625 89.3984375 C70.99910645 90.1831543 71.61930664 90.96787109 72.25830078 91.77636719 C74.55669733 94.71073722 76.78183067 97.69202347 79 100.6875 C80.33156838 102.45966086 81.66466233 104.23067759 83 106 C83.7734375 107.04414062 83.7734375 107.04414062 84.5625 108.109375 C88.28585973 112.84451726 92.60483238 115.39833028 98 118 C98 119.98 98 121.96 98 124 C90.31339333 126.56220222 78.32074886 126.53614239 70.8125 123.4375 C68.8203125 122.296875 68.8203125 122.296875 67 121 C66.37867188 120.57203125 65.75734375 120.1440625 65.1171875 119.703125 C55.50137526 112.1506247 48.22920988 100.63894651 41 91 C40.67 101.89 40.34 112.78 40 124 C31.75 124 23.5 124 15 124 C14.98541748 120.90713623 14.97083496 117.81427246 14.95581055 114.62768555 C14.90535848 104.3817528 14.83874468 94.13597034 14.76428509 83.89018536 C14.71965502 77.68127948 14.68038258 71.47243812 14.65356445 65.26342773 C14.62745818 59.26567658 14.5870038 53.26817464 14.53681374 47.27057838 C14.52019453 44.98821945 14.50864958 42.70581745 14.50238609 40.4234066 C14.4926912 37.21389325 14.46456729 34.00501043 14.43237305 30.7956543 C14.43452568 29.39626114 14.43452568 29.39626114 14.4367218 27.96859741 C14.34171103 21.22294679 12.97025412 15.45428495 11 9 C7.37 8.34 3.74 7.68 0 7 C0 4.69 0 2.38 0 0 Z " fill="#0070BB" transform="translate(1295,429)"/>
<path d="M0 0 C6.17222954 5.68886217 9.65234032 11.68283293 11 20 C11.08515081 22.14618717 11.11776182 24.29475543 11.11352539 26.44262695 C11.11341209 28.36405266 11.11341209 28.36405266 11.11329651 30.32429504 C11.10819065 31.71229085 11.10297467 33.10028625 11.09765625 34.48828125 C11.09578975 35.91603038 11.09436694 37.34378015 11.09336853 38.77153015 C11.08956165 42.51813545 11.07974707 46.2647016 11.06866455 50.0112915 C11.05841102 53.83890249 11.05386248 57.66651984 11.04882812 61.49414062 C11.03812307 68.99611361 11.02054118 76.49804632 11 84 C2.75 84 -5.5 84 -14 84 C-14.01458252 82.1742041 -14.02916504 80.3484082 -14.04418945 78.46728516 C-14.09606566 72.40026996 -14.1614105 66.33351357 -14.23571491 60.26673317 C-14.2802335 56.59239568 -14.31952884 52.91816435 -14.34643555 49.24365234 C-14.37265531 45.69023031 -14.4131852 42.13722096 -14.46318626 38.58405685 C-14.48772061 36.58474883 -14.49785115 34.58528052 -14.50764465 32.58584595 C-14.67371223 19.40160104 -14.67371223 19.40160104 -21.1875 8.4375 C-25.73200064 5.07437898 -29.85564468 4.55896006 -35.3671875 5.33203125 C-39.34467671 6.13404957 -42.32113689 7.16056845 -46 9 C-46 33.75 -46 58.5 -46 84 C-54.58 84 -63.16 84 -72 84 C-72.01458252 81.82003418 -72.02916504 79.64006836 -72.04418945 77.39404297 C-72.09458638 70.181493 -72.16119044 62.96915777 -72.23571491 55.75681877 C-72.28039182 51.38509855 -72.31965377 47.01347094 -72.34643555 42.64160156 C-72.37249539 38.42039162 -72.41291653 34.19953857 -72.46318626 29.97854996 C-72.4798369 28.37030612 -72.49136241 26.76200058 -72.49761391 25.15368271 C-72.5072749 22.89618501 -72.53535629 20.63959665 -72.56762695 18.38232422 C-72.57873001 17.09881073 -72.58983307 15.81529724 -72.60127258 14.4928894 C-73.03595972 10.68498947 -73.9742559 8.23840332 -76 5 C-78.4575436 3.86063312 -78.4575436 3.86063312 -81.1875 3.625 C-82.08855469 3.49351562 -82.98960938 3.36203125 -83.91796875 3.2265625 C-84.60503906 3.15179688 -85.29210938 3.07703125 -86 3 C-86 0.69 -86 -1.62 -86 -4 C-81.97930575 -4.08765069 -77.9588599 -4.14061018 -73.9375 -4.1875 C-72.2369043 -4.22520508 -72.2369043 -4.22520508 -70.50195312 -4.26367188 C-62.47775265 -4.33385439 -57.72050185 -3.48033457 -51 1 C-50.38253906 0.66226562 -49.76507812 0.32453125 -49.12890625 -0.0234375 C-34.65026079 -7.64841669 -14.15695467 -9.95686231 0 0 Z " fill="#0070BB" transform="translate(1613,308)"/>
<path d="M0 0 C5.98327549 4.28898227 9.77958355 10.59164155 11.4140625 17.73046875 C13.74948094 32.71607041 10.74492945 45.34040403 2.00878906 57.72216797 C-7.50228409 70.42289313 -18.47140005 81.55065017 -30.90771484 91.38623047 C-35.26507119 94.87642599 -39.53956838 98.47076316 -43.83666992 102.03466797 C-44.53767822 102.61361816 -45.23868652 103.19256836 -45.9609375 103.7890625 C-46.90066406 104.56721313 -46.90066406 104.56721313 -47.859375 105.36108398 C-49.37531528 106.5634184 -50.97603672 107.65720156 -52.5859375 108.73046875 C-46.60860979 108.82978529 -40.6317687 108.9021487 -34.65380859 108.95019531 C-32.62279893 108.97023711 -30.59184644 108.99747822 -28.56103516 109.03222656 C-25.63169194 109.08107289 -22.7031155 109.10351218 -19.7734375 109.12109375 C-18.87415527 109.14173889 -17.97487305 109.16238403 -17.04833984 109.18365479 C-9.46042823 109.18631958 -4.26994222 107.23942968 1.2890625 102.04296875 C3.86917405 98.02103016 4.71780437 94.40682934 5.4140625 89.73046875 C7.7240625 89.73046875 10.0340625 89.73046875 12.4140625 89.73046875 C12.99436275 108.64395833 12.99436275 108.64395833 9.4140625 114.73046875 C3.70156162 119.57367602 -1.40675702 119.85689713 -8.67114258 119.84399414 C-9.36437622 119.84414017 -10.05760986 119.84428619 -10.77185059 119.84443665 C-13.04975579 119.84374326 -15.32757793 119.8359779 -17.60546875 119.828125 C-19.19015966 119.82625878 -20.77485115 119.82483584 -22.35954285 119.82383728 C-26.5204326 119.82002818 -30.68128718 119.81021167 -34.84216309 119.7991333 C-39.09203618 119.78888457 -43.34191498 119.78433225 -47.59179688 119.77929688 C-55.92319319 119.76858791 -64.25456096 119.75153086 -72.5859375 119.73046875 C-72.66258452 117.48059375 -72.71741645 115.22996792 -72.76293945 112.97924805 C-72.79579544 111.7260527 -72.82865143 110.47285736 -72.86250305 109.1816864 C-72.50325301 104.69866215 -71.18747969 102.97565904 -67.86181641 100.13232422 C-66.82806885 99.34559326 -66.82806885 99.34559326 -65.7734375 98.54296875 C-64.30250491 97.29576484 -62.83521749 96.04425251 -61.37109375 94.7890625 C-60.59266113 94.13921387 -59.81422852 93.48936523 -59.01220703 92.81982422 C-41.28509771 77.55431792 -18.85079791 55.87177334 -15.7734375 31.35546875 C-15.21284428 22.92321246 -16.69374948 15.66106845 -21.5859375 8.73046875 C-25.68095784 4.59245607 -29.29802604 2.59639221 -35.1484375 2.41796875 C-41.77341025 2.52420009 -47.54743502 4.10445896 -52.62890625 8.49609375 C-59.48239117 15.91948467 -62.23758456 24.05240817 -64.5859375 33.73046875 C-67.2259375 33.73046875 -69.8659375 33.73046875 -72.5859375 33.73046875 C-73.41115601 13.42092426 -73.41115601 13.42092426 -67.5234375 6.29296875 C-49.82466989 -10.9696896 -20.9801756 -12.24347424 0 0 Z " fill="#0070BB" transform="translate(1518.5859375,433.26953125)"/>
<path d="M0 0 C2.97 0 5.94 0 9 0 C13.15586604 8.04456926 16.84964202 16.17337523 20.25 24.5625 C21.29199268 27.10587483 22.33494591 29.64883993 23.37890625 32.19140625 C23.79799004 33.21386948 23.79799004 33.21386948 24.22554016 34.25698853 C27.7811286 42.92303824 31.3989821 51.56309423 35.01672363 60.20333862 C36.15116672 62.91320983 37.28414395 65.62369029 38.41699219 68.33422852 C40.22900799 72.66706228 42.04998022 76.99606086 43.87472534 81.32354736 C45.05967423 84.14193447 46.23482691 86.9643121 47.41040039 89.78662109 C48.20549329 91.6782275 49.00097331 93.56967125 49.796875 95.4609375 C50.33860603 96.77094727 50.33860603 96.77094727 50.89128113 98.10742188 C53.87956975 105.16711465 57.23531935 111.52367369 64.27734375 115.18359375 C66.67679625 116.18149946 66.67679625 116.18149946 70 117 C70 118.98 70 120.96 70 123 C60.42332688 126.19222437 48.42300938 124.12633218 39.49609375 119.78125 C27.90431435 112.72026762 24.48591171 102.53922676 19 90 C3.16 90 -12.68 90 -29 90 C-33.18918792 99.36334225 -33.18918792 99.36334225 -37.37646484 108.72753906 C-38.16077881 110.4788916 -38.16077881 110.4788916 -38.9609375 112.265625 C-39.49509277 113.45961914 -40.02924805 114.65361328 -40.57958984 115.88378906 C-41.67117231 118.27859115 -42.82300133 120.64600267 -44 123 C-47.63 123 -51.26 123 -55 123 C-52.80700571 115.92558983 -49.97794402 109.37640343 -46.8125 102.6875 C-41.88073101 92.13421477 -37.08932301 81.52696192 -32.375 70.875 C-31.021417 67.8200536 -29.66712522 64.76542189 -28.3125 61.7109375 C-27.9674794 60.93295303 -27.6224588 60.15496857 -27.26698303 59.35340881 C-23.38377355 50.60277857 -19.47625525 41.86309525 -15.55499268 33.12945557 C-14.77925956 31.40083825 -14.00445181 29.67180532 -13.23065186 27.94232178 C-9.01506993 18.52222663 -4.73071099 9.17553729 0 0 Z M-5 35 C-7.71377981 40.92293121 -10.41878587 46.84981028 -13.11767578 52.77954102 C-14.0371988 54.7970674 -14.95874026 56.8136751 -15.88232422 58.8293457 C-17.20809821 61.72369118 -18.52662214 64.62124291 -19.84375 67.51953125 C-20.25935181 68.42274612 -20.67495361 69.325961 -21.10314941 70.25654602 C-21.4835437 71.09719101 -21.86393799 71.937836 -22.25585938 72.80395508 C-22.59339233 73.54341873 -22.93092529 74.28288239 -23.27868652 75.04475403 C-24.17305539 77.12175454 -24.17305539 77.12175454 -24 80 C-11.13 80 1.74 80 15 80 C12.98168095 73.94504286 10.89745474 68.1046586 8.42578125 62.24609375 C8.09708542 61.45977066 7.76838959 60.67344757 7.42973328 59.86329651 C6.39368719 57.38674815 5.35318065 54.91210389 4.3125 52.4375 C3.60321793 50.74426529 2.89423091 49.05090697 2.18554688 47.35742188 C0.46043384 43.23684632 -1.26867816 39.11797046 -3 35 C-3.66 35 -4.32 35 -5 35 Z " fill="#0070BB" transform="translate(745,269)"/>
<path d="M0 0 C6.93 0 13.86 0 21 0 C21 27.39 21 54.78 21 83 C26.28 83 31.56 83 37 83 C37 85.97 37 88.94 37 92 C31.72 92 26.44 92 21 92 C21 102.56 21 113.12 21 124 C12.75 124 4.5 124 -4 124 C-4 113.44 -4 102.88 -4 92 C-23.8 92 -43.6 92 -64 92 C-64 81.90657439 -64 81.90657439 -60.125 77.75 C-59.30128906 76.82445312 -58.47757813 75.89890625 -57.62890625 74.9453125 C-56.76136719 73.97335937 -55.89382813 73.00140625 -55 72 C-53.33261092 69.88744701 -51.68676538 67.76972339 -50.0625 65.625 C-49.22033073 64.52322446 -48.37788101 63.42166322 -47.53515625 62.3203125 C-47.11637207 61.77149414 -46.69758789 61.22267578 -46.26611328 60.65722656 C-44.1845531 57.93265455 -42.09177643 55.21673097 -40 52.5 C-39.16661159 51.41670903 -38.33327829 50.33337567 -37.5 49.25 C-22.5 29.75 -22.5 29.75 -21.2487793 28.12353516 C-20.4193575 27.04520574 -19.59009198 25.96675611 -18.76098633 24.88818359 C-16.61910264 22.10226055 -14.47416226 19.31877167 -12.32421875 16.5390625 C-11.88271484 15.96736328 -11.44121094 15.39566406 -10.98632812 14.80664062 C-9.76645366 13.22722421 -8.54537763 11.64873605 -7.32421875 10.0703125 C-4.8189981 6.76089497 -2.41254988 3.37756983 0 0 Z M-5 25 C-10.81332902 31.51755653 -15.98954082 38.5912377 -21.19775391 45.59277344 C-25.12697946 50.86552468 -29.13906206 56.06834896 -33.1875 61.25 C-37.28244427 66.49655961 -41.368082 71.74825049 -45.375 77.0625 C-46.43847656 78.47208984 -46.43847656 78.47208984 -47.5234375 79.91015625 C-49.09617379 81.70964495 -49.09617379 81.70964495 -49 83 C-34.15 83 -19.3 83 -4 83 C-4 63.86 -4 44.72 -4 25 C-4.33 25 -4.66 25 -5 25 Z " fill="#0070BB" transform="translate(1604,429)"/>
<path d="M0 0 C9.57466271 7.57134867 15.27873285 17.35710098 17.2578125 29.421875 C18.85857631 44.14000892 16.24375807 58.20698652 6.9453125 70.03515625 C-1.42839434 79.06059028 -12.03945313 83.36955263 -24.171875 84.2890625 C-37.62721038 84.61657573 -47.72867706 81.4658787 -58.6484375 73.7578125 C-67.54072627 65.06313015 -72.48759589 53.51170717 -72.75317383 41.15332031 C-72.84951391 28.57571702 -71.1055068 18.3413146 -63.4609375 8.0078125 C-62.55601563 6.77224609 -62.55601563 6.77224609 -61.6328125 5.51171875 C-46.66763055 -11.74130576 -17.92880264 -12.34865657 0 0 Z M-40.6484375 8.6953125 C-48.09543653 22.30534522 -48.73001553 40.96498172 -45.2109375 55.8828125 C-43.08187682 62.78733639 -40.8919689 69.11928189 -34.4609375 73.0078125 C-30.60854986 74.57730376 -28.10292061 75.0765964 -23.9609375 74.6328125 C-18.00138372 71.86587682 -14.67009425 67.94120487 -12.16796875 61.87109375 C-7.04369105 45.94328474 -6.2653147 27.0104638 -13.2109375 11.3828125 C-15.54936473 7.42682658 -18.34722065 4.14663303 -22.4609375 2.0078125 C-30.29762426 0.39328116 -35.59499573 2.48679833 -40.6484375 8.6953125 Z " fill="#0070BB" transform="translate(1492.4609375,309.9921875)"/>
<path d="M0 0 C1.25671509 0.00845947 1.25671509 0.00845947 2.53881836 0.01708984 C14.56615338 0.25321791 24.37290906 4.32572575 33.375 12.4375 C43.58504591 23.29925097 45.2064007 36.96556881 44.9375 51.12109375 C44.4064953 63.42049008 39.15704837 73.30051245 30.25 81.625 C18.19065405 91.80260237 4.81187045 92.46015272 -10.375 91.3125 C-21.2581342 89.47342492 -30.67539437 83.34607383 -37.3125 74.5625 C-41.96943965 67.31464908 -44.72664925 58.90314742 -45.375 50.3125 C-45.4265625 49.67570313 -45.478125 49.03890625 -45.53125 48.3828125 C-46.05617587 36.44074907 -42.82533085 23.91690446 -35.1796875 14.65234375 C-25.31817256 4.15709509 -14.23957119 -0.10040999 0 0 Z M-11.8203125 14.97265625 C-17.10783946 22.68231382 -18.84294329 32.11789494 -19.375 41.3125 C-19.41625 41.99441406 -19.4575 42.67632812 -19.5 43.37890625 C-19.8458371 55.11575293 -18.30032909 68.30807877 -10.875 77.8125 C-7.23800293 81.44949707 -5.71619222 82.18057945 -0.5625 82.6875 C3.85499542 82.5314918 7.32710633 81.28786128 10.625 78.3125 C20.26669972 65.95335646 19.58725164 49.14791004 18.625 34.3125 C17.47082623 25.44594023 14.63846026 17.95261512 7.9375 11.875 C1.05316906 7.22342504 -6.43277702 8.7842709 -11.8203125 14.97265625 Z " fill="#0070BB" transform="translate(1170.375,462.6875)"/>
<path d="M0 0 C8.18797594 5.69733687 14.17628625 12.96291392 16.7421875 22.6796875 C17.96760525 30.06114088 17.58087497 36.13150029 16.7421875 43.6796875 C-1.7378125 43.6796875 -20.2178125 43.6796875 -39.2578125 43.6796875 C-37.83660786 59.38934494 -37.83660786 59.38934494 -30.50390625 72.5546875 C-24.16929108 76.49500968 -18.36771716 76.57040483 -11.12890625 75.30859375 C-4.64653769 73.40971811 0.13280896 68.41485805 4.7421875 63.6796875 C5.0721875 63.0196875 5.4021875 62.3596875 5.7421875 61.6796875 C9.56645419 62.22601131 11.13450335 63.94052347 13.7421875 66.6796875 C7.11319957 76.07963501 0.16018036 82.97807883 -11.2578125 85.6796875 C-14.72870856 86.09325827 -18.13994202 86.15736109 -21.6328125 86.1171875 C-22.55602295 86.10961426 -23.4792334 86.10204102 -24.43041992 86.09423828 C-36.44094287 85.80406252 -44.82956964 81.93100624 -53.38671875 73.609375 C-57.99887386 68.73391085 -61.12455725 64.04577028 -63.2578125 57.6796875 C-63.59425781 56.72255859 -63.59425781 56.72255859 -63.9375 55.74609375 C-67.45497872 43.3867336 -66.51468755 27.3769236 -60.8984375 15.90234375 C-58.22146219 11.20383812 -55.35928311 7.25532855 -51.2578125 3.6796875 C-50.5153125 2.9990625 -49.7728125 2.3184375 -49.0078125 1.6171875 C-35.13377587 -8.15770194 -14.5449745 -8.50553872 0 0 Z M-33.2578125 7.6796875 C-38.95380753 15.85710611 -39.2578125 25.01282556 -39.2578125 34.6796875 C-29.3578125 34.6796875 -19.4578125 34.6796875 -9.2578125 34.6796875 C-9.1559696 19.43035478 -9.1559696 19.43035478 -15.4453125 6.5546875 C-21.64328715 2.4227044 -27.74500616 2.42329076 -33.2578125 7.6796875 Z " fill="#0070BB" transform="translate(888.2578125,468.3203125)"/>
<path d="M0 0 C4.13746424 5.14048587 4.14097801 10.36309722 4.0625 16.75 C4.05798828 17.44738281 4.05347656 18.14476562 4.04882812 18.86328125 C4.0371002 20.57555803 4.01916653 22.28779033 4 24 C1.69 24 -0.62 24 -3 24 C-3.27972656 23.20335937 -3.55945312 22.40671875 -3.84765625 21.5859375 C-6.4195006 14.78832962 -8.72700341 9.90132674 -15 6 C-15.5775 5.62746094 -16.155 5.25492187 -16.75 4.87109375 C-20.00750792 3.60994051 -22.95691193 3.69784863 -26.4375 3.6875 C-27.73558594 3.67074219 -29.03367187 3.65398437 -30.37109375 3.63671875 C-34.14859955 4.01487595 -36.00065909 4.73938565 -39 7 C-41.56570589 10.42094119 -41.43708054 13.84773484 -41 18 C-38.4267951 21.84800366 -36.03531168 23.85087156 -31.875 25.8125 C-30.82570313 26.31394531 -29.77640625 26.81539063 -28.6953125 27.33203125 C-25.97679311 28.57544922 -23.23787245 29.76712912 -20.4921875 30.94921875 C2.11016287 40.69801545 2.11016287 40.69801545 7.10546875 51.359375 C9.26630518 57.73808865 8.74934611 64.17907887 6.0625 70.3125 C1.94677012 77.48660374 -3.6376609 80.47263405 -11.4309082 82.83227539 C-26.1846371 86.82272914 -44.97427977 87.29102673 -58.6875 79.75 C-62.36251059 77.5009913 -63.85809119 74.02951133 -65 70 C-65.32130829 67.16941108 -65.28896765 64.40619584 -65.1875 61.5625 C-65.17396484 60.83095703 -65.16042969 60.09941406 -65.14648438 59.34570312 C-65.11153874 57.56347578 -65.05774805 55.78163427 -65 54 C-62.69 54 -60.38 54 -58 54 C-57.66226562 54.81984375 -57.32453125 55.6396875 -56.9765625 56.484375 C-56.53054688 57.56203125 -56.08453125 58.6396875 -55.625 59.75 C-55.18414063 60.81734375 -54.74328125 61.8846875 -54.2890625 62.984375 C-52.55874489 67.71418213 -52.55874489 67.71418213 -49.1875 71.125 C-48.465625 71.41375 -47.74375 71.7025 -47 72 C-46.29875 72.350625 -45.5975 72.70125 -44.875 73.0625 C-37.58413644 75.43995551 -30.24117806 75.62796206 -23 73 C-19.17011554 70.84568999 -18.23305797 69.80113676 -17 65.5625 C-17 61.42835572 -17.30294387 60.105701 -20 57 C-26.62947947 52.1162077 -34.24239075 49.10630384 -41.77929688 45.92578125 C-50.97858808 41.89829448 -59.19947771 36.36932502 -65 28 C-67.0996038 21.7011886 -67.21060109 13.67754343 -64.4375 7.5625 C-59.65765116 -0.32093125 -52.67063796 -3.5949155 -44 -6 C-29.92862326 -8.91793897 -12.16759568 -8.27016269 0 0 Z " fill="#0070BB" transform="translate(1328,309)"/>
<path d="M0 0 C4.52558631 4.63110517 4.27540447 10.40493352 4.25 16.5 C4.19980951 19.00318181 4.10929472 21.49836536 4 24 C1.69 24 -0.62 24 -3 24 C-3.27972656 23.20335937 -3.55945312 22.40671875 -3.84765625 21.5859375 C-6.4195006 14.78832962 -8.72700341 9.90132674 -15 6 C-15.5775 5.62746094 -16.155 5.25492187 -16.75 4.87109375 C-20.00750792 3.60994051 -22.95691193 3.69784863 -26.4375 3.6875 C-27.73558594 3.67074219 -29.03367187 3.65398437 -30.37109375 3.63671875 C-34.14859955 4.01487595 -36.00065909 4.73938565 -39 7 C-41.56570589 10.42094119 -41.43708054 13.84773484 -41 18 C-38.4267951 21.84800366 -36.03531168 23.85087156 -31.875 25.8125 C-30.82570313 26.31394531 -29.77640625 26.81539063 -28.6953125 27.33203125 C-25.97679311 28.57544922 -23.23787245 29.76712912 -20.4921875 30.94921875 C2.05102254 40.67250717 2.05102254 40.67250717 7.11328125 51.34765625 C8.96152014 56.87608889 8.92349377 63.40560705 6.8125 68.875 C2.35631082 76.5580848 -4.31239204 80.6683576 -12.55859375 83.38671875 C-26.6936826 86.93745307 -45.70460734 86.88941284 -58.6875 79.75 C-62.36251059 77.5009913 -63.85809119 74.02951133 -65 70 C-65.32130829 67.16941108 -65.28896765 64.40619584 -65.1875 61.5625 C-65.17396484 60.83095703 -65.16042969 60.09941406 -65.14648438 59.34570312 C-65.11153874 57.56347578 -65.05774805 55.78163427 -65 54 C-62.69 54 -60.38 54 -58 54 C-57.731875 54.78503906 -57.46375 55.57007813 -57.1875 56.37890625 C-54.4855095 63.62272946 -51.80806038 68.99381285 -45 73 C-37.72233827 76.02141191 -29.85249202 75.40090619 -22.5625 72.75 C-19.56686289 70.70419905 -18.30982414 69.39013306 -17 66 C-16.75714105 62.44874671 -16.75714105 62.44874671 -18 59 C-22.53957969 54.55306479 -27.49877066 52.0921673 -33.25 49.5 C-34.95192107 48.70854436 -36.65374504 47.91687989 -38.35546875 47.125 C-40.93402186 45.93941102 -43.51704939 44.77164193 -46.11328125 43.625 C-54.60901766 39.72265218 -62.45658475 33.88082375 -66 25 C-66.91917596 18.32562318 -66.87655646 11.58524936 -63.3125 5.70703125 C-57.6341794 -1.67816548 -50.12168315 -4.73056502 -41.13671875 -6.59375 C-27.81037331 -8.31970259 -11.25217136 -8.21620814 0 0 Z " fill="#0070BB" transform="translate(1230,309)"/>
<path d="M0 0 C0 9.24 0 18.48 0 28 C6.6 28 13.2 28 20 28 C20 30.97 20 33.94 20 37 C13.4 37 6.8 37 0 37 C0.06301211 45.11080706 0.13850111 53.22120761 0.23571491 61.33166695 C0.2803658 65.09804249 0.3196332 68.86431118 0.34643555 72.63085938 C0.37252177 76.2685524 0.41296081 79.90583311 0.46318626 83.54327011 C0.47981923 84.92821991 0.49135572 86.31324098 0.49761391 87.69827652 C0.50729302 89.64418174 0.53708156 91.589955 0.56762695 93.53564453 C0.58428154 95.19444138 0.58428154 95.19444138 0.60127258 96.88674927 C1.06073806 100.47424082 2.14343932 102.91132832 4 106 C7.22114453 107.61057226 10.50683705 107.47717462 14 107 C16.19977864 106.07007582 18.19372028 105.00905695 20.23828125 103.77734375 C22 103 22 103 25 104 C26.1875 106.5625 26.1875 106.5625 27 109 C19.79729256 115.83333782 12.2031121 117.51756368 2.4375 117.375 C1.63892578 117.38660156 0.84035156 117.39820313 0.01757812 117.41015625 C-6.41734795 117.37868962 -11.87848775 116.18229617 -17.20703125 112.45703125 C-18.00173828 111.64298828 -18.00173828 111.64298828 -18.8125 110.8125 C-19.35519531 110.28269531 -19.89789062 109.75289062 -20.45703125 109.20703125 C-25.81227907 101.54699322 -25.39906295 93.6657348 -25.29296875 84.65625 C-25.28736365 83.27763331 -25.28309788 81.89901058 -25.28010559 80.52038574 C-25.26872857 76.91669811 -25.23932457 73.31338138 -25.20599365 69.70983887 C-25.17513727 66.02275609 -25.16156722 62.33561256 -25.14648438 58.6484375 C-25.11444653 51.43210413 -25.06173875 44.21615159 -25 37 C-28.96 37 -32.92 37 -37 37 C-37 34.03 -37 31.06 -37 28 C-33.04 28 -29.08 28 -25 28 C-25.0928125 26.81664062 -25.185625 25.63328125 -25.28125 24.4140625 C-26.08341994 10.07205255 -26.08341994 10.07205255 -22.0625 3.875 C-16.07065746 -2.47570063 -8.0165322 -0.62629158 0 0 Z " fill="#0070BB" transform="translate(951,437)"/>
<path d="M0 0 C3.81783703 3.04049392 5.33634185 5.48989867 6.515625 10.20703125 C3.545625 12.51703125 0.575625 14.82703125 -2.484375 17.20703125 C-5.83583203 15.53130274 -7.02885647 14.66254978 -9.484375 12.20703125 C-14.99039863 10.37169004 -21.08264346 10.3350925 -26.484375 12.58203125 C-29.49678848 14.02946455 -29.49678848 14.02946455 -31.484375 16.20703125 C-31.77844609 19.28468046 -31.77844609 19.28468046 -31.71142578 22.95166016 C-31.71171783 23.64445572 -31.71200989 24.33725128 -31.71231079 25.05104065 C-31.71091531 27.34535159 -31.69534419 29.63933941 -31.6796875 31.93359375 C-31.67595814 33.52257103 -31.6731108 35.11155061 -31.67111206 36.70053101 C-31.66346953 40.88617279 -31.64381581 45.07167615 -31.6217041 49.25726318 C-31.60125896 53.52695849 -31.5921132 57.79667612 -31.58203125 62.06640625 C-31.56057041 70.44668524 -31.52538331 78.82682509 -31.484375 87.20703125 C-39.734375 87.20703125 -47.984375 87.20703125 -56.484375 87.20703125 C-56.49895752 85.13365479 -56.51354004 83.06027832 -56.52856445 80.92407227 C-56.57907135 74.04681457 -56.64569409 67.16977947 -56.72008991 60.29274082 C-56.76467428 56.12625148 -56.80395608 51.95985722 -56.83081055 47.79321289 C-56.85696341 43.76649832 -56.89744879 39.74015205 -56.94756126 35.71366692 C-56.96414945 34.1832636 -56.97571356 32.65279671 -56.98198891 31.12231636 C-57.01849613 23.03160329 -57.11183238 15.69810964 -60.484375 8.20703125 C-62.72746057 6.54312376 -62.72746057 6.54312376 -65.484375 6.20703125 C-66.5775 6.00078125 -67.670625 5.79453125 -68.796875 5.58203125 C-69.68375 5.45828125 -70.570625 5.33453125 -71.484375 5.20703125 C-71.484375 3.22703125 -71.484375 1.24703125 -71.484375 -0.79296875 C-66.94292506 -0.90943916 -62.40186106 -0.98031377 -57.859375 -1.04296875 C-55.93158203 -1.09324219 -55.93158203 -1.09324219 -53.96484375 -1.14453125 C-46.99839037 -1.21672248 -42.90241717 -1.22100321 -37.484375 3.20703125 C-34.4746338 3.02998765 -32.12789991 1.61140386 -29.484375 0.20703125 C-21.04548004 -4.2761317 -8.33008478 -5.12481303 0 0 Z " fill="#0070BB" transform="translate(1292.484375,465.79296875)"/>
<path d="M0 0 C4.52071021 -0.08751499 9.0412007 -0.1405661 13.5625 -0.1875 C15.47772461 -0.22520508 15.47772461 -0.22520508 17.43164062 -0.26367188 C29.62155641 -0.35865823 29.62155641 -0.35865823 35 3 C36.5234375 4.7265625 36.5234375 4.7265625 37.375 6.625 C37.81972656 7.54152344 37.81972656 7.54152344 38.2734375 8.4765625 C40.80049197 17.25332158 40.13071983 26.70763071 40.09765625 35.75390625 C40.09578775 37.26561943 40.09436589 38.77733323 40.09336853 40.28904724 C40.08957732 44.23944819 40.07977661 48.18981152 40.06866455 52.14019775 C40.05837685 56.1826527 40.05385524 60.22511382 40.04882812 64.26757812 C40.0381508 72.17840448 40.02058209 80.0891932 40 88 C31.42 88 22.84 88 14 88 C13.98018066 85.82003418 13.96036133 83.64006836 13.93994141 81.39404297 C13.87295529 74.18153211 13.79531696 66.96916404 13.71247292 59.75681877 C13.66258346 55.38511182 13.61625288 51.01342817 13.578125 46.64160156 C13.54117919 42.42046142 13.49479424 38.19951978 13.44193649 33.97854996 C13.42344186 32.37029639 13.40831579 30.76200035 13.39665604 29.15368271 C13.3797088 26.89635761 13.35065433 24.63948224 13.31884766 22.38232422 C13.30552399 21.09881073 13.29220032 19.81529724 13.2784729 18.4928894 C13.00139024 15.01743785 12.25120719 12.24090518 11 9 C7.37 8.34 3.74 7.68 0 7 C0 4.69 0 2.38 0 0 Z " fill="#0070BB" transform="translate(1096,304)"/>
<path d="M0 0 C4.02009457 -0.07455949 8.03991733 -0.12879358 12.06054688 -0.16479492 C13.42617816 -0.17981428 14.79176176 -0.20023608 16.15722656 -0.22631836 C18.12803905 -0.26300137 20.09921408 -0.27818551 22.0703125 -0.29296875 C23.25383301 -0.3086792 24.43735352 -0.32438965 25.65673828 -0.34057617 C29.42846476 0.04364746 31.77997138 1.02698589 35 3 C39.80489298 8.97365073 40.12626621 13.88173647 40.11352539 21.3605957 C40.11367142 22.08309006 40.11381744 22.80558441 40.1139679 23.54997253 C40.11327422 25.92527322 40.10550745 28.30049435 40.09765625 30.67578125 C40.09579013 32.32773292 40.09436714 33.97968515 40.09336853 35.63163757 C40.08955861 39.97007792 40.07974139 44.30848455 40.06866455 48.64691162 C40.0584176 53.07775415 40.05386388 57.50860215 40.04882812 61.93945312 C40.03811771 70.62631925 40.0205333 79.31315154 40 88 C31.75 88 23.5 88 15 88 C14.98018066 85.9161499 14.96036133 83.8322998 14.93994141 81.68530273 C14.8728994 74.78412358 14.79526214 67.88309253 14.71247292 60.98208523 C14.66262306 56.79985785 14.61629242 52.61765434 14.578125 48.43530273 C14.54112879 44.39570151 14.4947308 40.35630573 14.44193649 36.31688118 C14.42346845 34.77923261 14.40833276 33.24154013 14.39665604 31.703825 C14.37966273 29.54249104 14.35059831 27.38161985 14.31884766 25.22045898 C14.30552399 23.99246078 14.29220032 22.76446259 14.2784729 21.49925232 C13.92095597 17.00674357 13.39472862 12.60930225 10.375 9.125 C6.9397699 7.49778574 3.78352059 7.31529338 0 7 C0 4.69 0 2.38 0 0 Z " fill="#0070BB" transform="translate(1352,304)"/>
<path d="M0 0 C5.8777199 3.49765726 10.05020374 8.29088594 12.5546875 14.671875 C14.67648154 23.13408888 14.25654791 31.54035168 9.8359375 39.1328125 C4.53012208 46.30976089 -1.86150872 50.27184305 -10.59375 52.1328125 C-18.6741172 52.85037407 -25.35968447 50.69439976 -31.875 45.95703125 C-34.51864778 43.68717793 -36.15074454 41.39318817 -37.78125 38.3203125 C-38.35875 37.3096875 -38.93625 36.2990625 -39.53125 35.2578125 C-42.32107227 28.29096353 -41.68283903 19.90211557 -39.21875 12.9453125 C-35.90939057 5.81746143 -30.68806121 0.86296308 -23.36328125 -2.01953125 C-15.44400835 -4.04427727 -7.40708825 -3.43900526 0 0 Z M-15.78125 -1.6796875 C-15.78125 3.6003125 -15.78125 8.8803125 -15.78125 14.3203125 C-20.07125 14.3203125 -24.36125 14.3203125 -28.78125 14.3203125 C-27.46125 14.6503125 -26.14125 14.9803125 -24.78125 15.3203125 C-24.45125 15.9803125 -24.12125 16.6403125 -23.78125 17.3203125 C-23.78125 16.6603125 -23.78125 16.0003125 -23.78125 15.3203125 C-21.47125 15.3203125 -19.16125 15.3203125 -16.78125 15.3203125 C-16.78125 16.9703125 -16.78125 18.6203125 -16.78125 20.3203125 C-16.45125 20.3203125 -16.12125 20.3203125 -15.78125 20.3203125 C-15.78125 18.6703125 -15.78125 17.0203125 -15.78125 15.3203125 C-15.12125 14.9903125 -14.46125 14.6603125 -13.78125 14.3203125 C-14.11125 9.0403125 -14.44125 3.7603125 -14.78125 -1.6796875 C-15.11125 -1.6796875 -15.44125 -1.6796875 -15.78125 -1.6796875 Z M-6.78125 -0.6796875 C-6.78125 3.9403125 -6.78125 8.5603125 -6.78125 13.3203125 C-4.73745169 9.23271587 -4.59530995 8.33345685 -5.15625 4.0703125 C-5.26710937 3.17828125 -5.37796875 2.28625 -5.4921875 1.3671875 C-5.58757812 0.69171875 -5.68296875 0.01625 -5.78125 -0.6796875 C-6.11125 -0.6796875 -6.44125 -0.6796875 -6.78125 -0.6796875 Z M-23.78125 1.3203125 C-23.78125 4.2903125 -23.78125 7.2603125 -23.78125 10.3203125 C-23.45125 10.3203125 -23.12125 10.3203125 -22.78125 10.3203125 C-22.78125 7.3503125 -22.78125 4.3803125 -22.78125 1.3203125 C-23.11125 1.3203125 -23.44125 1.3203125 -23.78125 1.3203125 Z M1.21875 5.3203125 C0.54073966 8.22104431 0.54073966 8.22104431 0.21875 11.3203125 C0.87875 11.9803125 1.53875 12.6403125 2.21875 13.3203125 C2.21875 10.6803125 2.21875 8.0403125 2.21875 5.3203125 C1.88875 5.3203125 1.55875 5.3203125 1.21875 5.3203125 Z M7.21875 11.3203125 C7.21875 12.9703125 7.21875 14.6203125 7.21875 16.3203125 C7.54875 16.3203125 7.87875 16.3203125 8.21875 16.3203125 C8.21875 14.6703125 8.21875 13.0203125 8.21875 11.3203125 C7.88875 11.3203125 7.55875 11.3203125 7.21875 11.3203125 Z M-11.78125 15.3203125 C-10.46125 15.6503125 -9.14125 15.9803125 -7.78125 16.3203125 C-7.45125 17.6403125 -7.12125 18.9603125 -6.78125 20.3203125 C-6.78125 19.3303125 -6.78125 18.3403125 -6.78125 17.3203125 C-5.79125 16.9903125 -4.80125 16.6603125 -3.78125 16.3203125 C-6.42125 15.9903125 -9.06125 15.6603125 -11.78125 15.3203125 Z M-1.78125 17.3203125 C-0.79125 17.8153125 -0.79125 17.8153125 0.21875 18.3203125 C0.54875 19.3103125 0.87875 20.3003125 1.21875 21.3203125 C1.54875 20.3303125 1.87875 19.3403125 2.21875 18.3203125 C0.89875 17.9903125 -0.42125 17.6603125 -1.78125 17.3203125 Z M-25.78125 20.3203125 C-25.45125 21.3103125 -25.12125 22.3003125 -24.78125 23.3203125 C-24.12125 22.6603125 -23.46125 22.0003125 -22.78125 21.3203125 C-23.77125 20.9903125 -24.76125 20.6603125 -25.78125 20.3203125 Z M-8.78125 21.3203125 C-8.78125 22.3103125 -8.78125 23.3003125 -8.78125 24.3203125 C-9.77125 24.8153125 -9.77125 24.8153125 -10.78125 25.3203125 C-10.12125 26.6403125 -9.46125 27.9603125 -8.78125 29.3203125 C-7.58286791 26.99176787 -7.58286791 26.99176787 -6.78125 24.3203125 C-7.44125 23.3303125 -8.10125 22.3403125 -8.78125 21.3203125 Z M-17.78125 21.3203125 C-18.44125 21.9803125 -19.10125 22.6403125 -19.78125 23.3203125 C-19.12125 23.3203125 -18.46125 23.3203125 -17.78125 23.3203125 C-17.45125 23.9803125 -17.12125 24.6403125 -16.78125 25.3203125 C-15.13125 24.9903125 -13.48125 24.6603125 -11.78125 24.3203125 C-12.4 24.0109375 -13.01875 23.7015625 -13.65625 23.3828125 C-15.03125 22.6953125 -16.40625 22.0078125 -17.78125 21.3203125 Z M-33.78125 24.3203125 C-32.78125 26.3203125 -32.78125 26.3203125 -32.78125 26.3203125 Z M-0.78125 24.3203125 C-1.11125 25.3103125 -1.44125 26.3003125 -1.78125 27.3203125 C-0.79125 26.9903125 0.19875 26.6603125 1.21875 26.3203125 C0.55875 25.6603125 -0.10125 25.0003125 -0.78125 24.3203125 Z M-26.78125 25.3203125 C-27.11125 26.9703125 -27.44125 28.6203125 -27.78125 30.3203125 C-26.79125 29.6603125 -25.80125 29.0003125 -24.78125 28.3203125 C-25.44125 27.3303125 -26.10125 26.3403125 -26.78125 25.3203125 Z M-18.78125 26.3203125 C-18.78125 27.6403125 -18.78125 28.9603125 -18.78125 30.3203125 C-19.77125 30.8153125 -19.77125 30.8153125 -20.78125 31.3203125 C-20.12125 31.9803125 -19.46125 32.6403125 -18.78125 33.3203125 C-18.45125 31.0103125 -18.12125 28.7003125 -17.78125 26.3203125 C-18.11125 26.3203125 -18.44125 26.3203125 -18.78125 26.3203125 Z M4.21875 27.3203125 C4.87875 27.9803125 5.53875 28.6403125 6.21875 29.3203125 C6.21875 28.6603125 6.21875 28.0003125 6.21875 27.3203125 C5.55875 27.3203125 4.89875 27.3203125 4.21875 27.3203125 Z M-34.78125 28.3203125 C-33.78125 30.3203125 -33.78125 30.3203125 -33.78125 30.3203125 Z M-1.78125 29.3203125 C-0.78125 31.3203125 -0.78125 31.3203125 -0.78125 31.3203125 Z M-28.78125 32.3203125 C-27.78125 35.3203125 -27.78125 35.3203125 -27.78125 35.3203125 Z M-10.78125 31.3203125 C-11.44125 31.9803125 -12.10125 32.6403125 -12.78125 33.3203125 C-12.12125 34.6403125 -11.46125 35.9603125 -10.78125 37.3203125 C-10.45125 35.3403125 -10.12125 33.3603125 -9.78125 31.3203125 C-10.11125 31.3203125 -10.44125 31.3203125 -10.78125 31.3203125 Z M-8.78125 33.3203125 C-4.78125 34.3203125 -4.78125 34.3203125 -4.78125 34.3203125 Z M-2.78125 33.3203125 C-1.78125 35.3203125 -1.78125 35.3203125 -1.78125 35.3203125 Z M-20.78125 34.3203125 C-19.78125 36.3203125 -19.78125 36.3203125 -19.78125 36.3203125 Z M-21.78125 37.3203125 C-20.78125 39.3203125 -20.78125 39.3203125 -20.78125 39.3203125 Z M-12.78125 38.3203125 C-13.11125 39.9703125 -13.44125 41.6203125 -13.78125 43.3203125 C-13.45125 42.6603125 -13.12125 42.0003125 -12.78125 41.3203125 C-10.71875 40.6953125 -10.71875 40.6953125 -8.78125 40.3203125 C-9.77125 40.3203125 -10.76125 40.3203125 -11.78125 40.3203125 C-12.11125 39.6603125 -12.44125 39.0003125 -12.78125 38.3203125 Z M-22.78125 40.3203125 C-21.78125 42.3203125 -21.78125 42.3203125 -21.78125 42.3203125 Z M-23.78125 42.3203125 C-22.78125 44.3203125 -22.78125 44.3203125 -22.78125 44.3203125 Z M-14.78125 44.3203125 C-13.78125 46.3203125 -13.78125 46.3203125 -13.78125 46.3203125 Z M-7.78125 46.3203125 C-6.78125 48.3203125 -6.78125 48.3203125 -6.78125 48.3203125 Z " fill="#FFA900" transform="translate(232.78125,353.6796875)"/>
<path d="M0 0 C2 1 2 1 2.68603516 2.99365234 C2.88503418 3.84910645 3.0840332 4.70456055 3.2890625 5.5859375 C3.50820312 6.51664062 3.72734375 7.44734375 3.953125 8.40625 C4.28570312 9.87578125 4.28570312 9.87578125 4.625 11.375 C4.96917969 12.83292969 4.96917969 12.83292969 5.3203125 14.3203125 C7 21.55896577 7 21.55896577 7 25 C5.53240234 25.03867187 5.53240234 25.03867187 4.03515625 25.078125 C-7.10987631 25.5603093 -14.91070124 27.33279955 -23.2734375 35.0625 C-29.36133352 41.89416612 -30.36462274 49.55866959 -30.2734375 58.421875 C-29.61602797 67.02454834 -25.13734881 73.16403885 -19 79 C-16.27966727 80.95660051 -16.27966727 80.95660051 -14 82 C-15.61218003 86.83654009 -19.83412899 88.85476884 -23.875 91.75 C-24.70386719 92.36488281 -25.53273437 92.97976563 -26.38671875 93.61328125 C-27.18464844 94.18949219 -27.98257813 94.76570313 -28.8046875 95.359375 C-29.53671387 95.89014648 -30.26874023 96.42091797 -31.02294922 96.96777344 C-32.00158936 97.47872559 -32.00158936 97.47872559 -33 98 C-34.485 97.505 -34.485 97.505 -36 97 C-36.93695068 94.74945068 -36.93695068 94.74945068 -37.73339844 91.73339844 C-38.03671082 90.60842957 -38.34002319 89.48346069 -38.65252686 88.32440186 C-38.96828674 87.09844299 -39.28404663 85.87248413 -39.609375 84.609375 C-39.9404425 83.35747375 -40.27151001 82.10557251 -40.61260986 80.81573486 C-41.3132842 78.16129525 -42.00482511 75.50468781 -42.68994141 72.84619141 C-43.56721224 69.44454762 -44.46535056 66.04884835 -45.37029648 62.65447617 C-46.23166438 59.41308638 -47.07610452 56.16737019 -47.921875 52.921875 C-48.24573181 51.70401306 -48.56958862 50.48615112 -48.90325928 49.23138428 C-49.19396301 48.09380676 -49.48466675 46.95622925 -49.78417969 45.78417969 C-50.04382507 44.78570007 -50.30347046 43.78722046 -50.57098389 42.75848389 C-51.02773227 39.82168729 -50.8410266 37.83692323 -50 35 C-48.64331055 33.55297852 -48.64331055 33.55297852 -46.88671875 32.37890625 C-46.22575195 31.92555908 -45.56478516 31.47221191 -44.88378906 31.00512695 C-44.15901367 30.52906006 -43.43423828 30.05299316 -42.6875 29.5625 C-41.13390515 28.5055161 -39.58052883 27.44821095 -38.02734375 26.390625 C-37.20733887 25.83955078 -36.38733398 25.28847656 -35.54248047 24.72070312 C-31.23869081 21.80797895 -26.99954697 18.80352261 -22.75 15.8125 C-15.1850244 10.51505479 -7.60221251 5.24386191 0 0 Z " fill="#0070BB" transform="translate(217,323)"/>
<path d="M0 0 C3.44881202 1.11853363 5.15685408 -0.64123934 8.3125 -2.25 C12.20684988 -2.86328345 15.48149138 -2.61933716 19.125 -1 C22.34524998 1.57619998 24.14966194 3.39173212 24.65307617 7.59082031 C24.6295105 9.19328613 24.6295105 9.19328613 24.60546875 10.828125 C24.5909668 12.56835938 24.5909668 12.56835938 24.57617188 14.34375 C24.55103516 15.5503125 24.52589844 16.756875 24.5 18 C24.47969727 19.83304688 24.47969727 19.83304688 24.45898438 21.703125 C24.4236398 24.71919498 24.3742956 27.73437487 24.3125 30.75 C22.3325 30.75 20.3525 30.75 18.3125 30.75 C18.29791748 30.06897217 18.28333496 29.38794434 18.26831055 28.6862793 C18.19387304 25.60277785 18.09719917 22.52036433 18 19.4375 C17.96616211 17.8297168 17.96616211 17.8297168 17.93164062 16.18945312 C17.89619141 15.16142578 17.86074219 14.13339844 17.82421875 13.07421875 C17.79803467 12.12635498 17.77185059 11.17849121 17.74487305 10.2019043 C17.24263089 7.35378575 16.63504425 6.42985351 14.3125 4.75 C10.94033608 4.24776282 9.09138688 4.26904799 6.16796875 6.07421875 C3.1929861 10.36445689 3.63371427 14.89846849 3.5625 20 C3.51802734 21.546875 3.51802734 21.546875 3.47265625 23.125 C3.40205222 25.66674495 3.34930991 28.20757783 3.3125 30.75 C1.3325 30.75 -0.6475 30.75 -2.6875 30.75 C-2.70208252 30.10450195 -2.71666504 29.45900391 -2.73168945 28.79394531 C-2.8062787 25.86203427 -2.9029024 22.93124835 -3 20 C-3.02255859 18.98421875 -3.04511719 17.9684375 -3.06835938 16.921875 C-3.1215332 15.45234375 -3.1215332 15.45234375 -3.17578125 13.953125 C-3.20196533 13.05239258 -3.22814941 12.15166016 -3.25512695 11.22363281 C-3.76756314 8.29195385 -4.62439835 6.87622982 -6.6875 4.75 C-9.99453696 4.25746258 -11.90122117 4.31380246 -14.84082031 5.94458008 C-17.29182195 8.34081978 -17.22203148 9.68754957 -17.296875 13.07421875 C-17.32910156 14.10224609 -17.36132812 15.13027344 -17.39453125 16.18945312 C-17.40871094 17.26130859 -17.42289063 18.33316406 -17.4375 19.4375 C-17.46714844 20.52095703 -17.49679687 21.60441406 -17.52734375 22.72070312 C-17.59808844 25.39721059 -17.65076156 28.07284479 -17.6875 30.75 C-19.9975 30.75 -22.3075 30.75 -24.6875 30.75 C-24.6875 20.19 -24.6875 9.63 -24.6875 -1.25 C-21.35416667 -1.25 -18.02083333 -1.25 -14.6875 -1.25 C-9.81234358 -2.87505214 -4.64276105 -2.15942374 0 0 Z " fill="#6C6D70" transform="translate(942.6875,607.25)"/>
<path d="M0 0 C1.98 0 3.96 0 6 0 C6 14.19 6 28.38 6 43 C4.02 43 2.04 43 0 43 C0 42.34 0 41.68 0 41 C-0.969375 41.515625 -1.93875 42.03125 -2.9375 42.5625 C-7.42493426 44.46102988 -11.35282073 44.40005764 -16 43 C-19.50805035 40.96401253 -21.68921709 38.93234874 -23 35 C-23.14854388 32.19480593 -23.23104204 29.43077873 -23.25 26.625 C-23.270625 25.86960937 -23.29125 25.11421875 -23.3125 24.3359375 C-23.34489389 19.70361084 -22.94743075 16.78955382 -20 13 C-16.0940695 9.56751562 -12.36631558 9.67627281 -7.40234375 9.69921875 C-5 10 -5 10 -1 12 C-0.67 8.04 -0.34 4.08 0 0 Z M-15.5 17.75 C-17.82127835 22.77943642 -17.86357403 27.5632383 -17 33 C-15.12083474 36.38300481 -15.12083474 36.38300481 -12 38 C-8.0636245 38.73807041 -6.56074202 38.36136708 -3.1875 36.1875 C-0.1886665 33.1886665 0.1663714 30.70886349 0.25 26.625 C0.21096045 22.6299526 -0.41781799 20.17807016 -3 17 C-7.31308265 14.84345868 -11.66418831 15.06493182 -15.5 17.75 Z " fill="#6C6D70" transform="translate(905,595)"/>
<path d="M0 0 C1.98 0 3.96 0 6 0 C6.33 3.96 6.66 7.92 7 12 C8.32 11.34 9.64 10.68 11 10 C15.62516534 9.27679233 19.14401775 9.5878604 23.375 11.625 C27.19122608 15.07777598 28.80426637 18.31131772 29.3984375 23.4375 C29.39070313 24.613125 29.38296875 25.78875 29.375 27 C29.38273437 28.175625 29.39046875 29.35125 29.3984375 30.5625 C28.86100046 35.19921175 27.4862896 38.65305005 24 41.8125 C19.98122229 44.19864927 16.5890235 44.23736328 12 44 C9.0625 43 9.0625 43 7 42 C6.505 42.495 6.505 42.495 6 43 C4.02 43 2.04 43 0 43 C0 28.81 0 14.62 0 0 Z M8.0625 17.75 C4.93419239 22.67945442 5.03544275 27.3224435 6 33 C7.81671123 36.40282421 7.81671123 36.40282421 11 38 C14.54271642 38.75011367 14.54271642 38.75011367 18 38 C20.90717073 35.78136971 21.83981643 34.48055071 23 31 C23.36994554 25.35833056 23.11787827 21.9166542 20 17 C15.75069148 14.87534574 12.04974704 15.37461879 8.0625 17.75 Z " fill="#6C6D70" transform="translate(1502,595)"/>
<path d="M0 0 C5.03273658 2.42316946 6.89721765 4.9122335 9 10 C9.3984375 13.4375 9.3984375 13.4375 9.375 17 C9.38273437 18.175625 9.39046875 19.35125 9.3984375 20.5625 C8.86100046 25.19921175 7.4862896 28.65305005 4 31.8125 C-0.01877771 34.19864927 -3.4109765 34.23736328 -8 34 C-9.65 33.34 -11.3 32.68 -13 32 C-13.33 35.63 -13.66 39.26 -14 43 C-15.98 43 -17.96 43 -20 43 C-20 29.14 -20 15.28 -20 1 C-17 1 -14 1 -11 1 C-7.52326295 -0.73836852 -3.80129202 -0.45436319 0 0 Z M-11.9375 7.75 C-15.06580761 12.67945442 -14.96455725 17.3224435 -14 23 C-12.18328877 26.40282421 -12.18328877 26.40282421 -9 28 C-5.45728358 28.75011367 -5.45728358 28.75011367 -2 28 C0.90717073 25.78136971 1.83981643 24.48055071 3 21 C3.36994554 15.35833056 3.11787827 11.9166542 0 7 C-4.24930852 4.87534574 -7.95025296 5.37461879 -11.9375 7.75 Z " fill="#6C6D70" transform="translate(1369,605)"/>
<path d="M0 0 C4.8125 3.9375 4.8125 3.9375 6.0625 7.6875 C6.0625 10.9875 6.0625 14.2875 6.0625 17.6875 C-1.1975 17.6875 -8.4575 17.6875 -15.9375 17.6875 C-14.62452878 23.67288237 -14.62452878 23.67288237 -10.9375 25.6875 C-6.20516878 26.22413581 -6.20516878 26.22413581 -2.0625 24.3125 C-0.87268188 22.67571489 -0.87268188 22.67571489 0.0625 20.6875 C2.0425 20.6875 4.0225 20.6875 6.0625 20.6875 C5.75186785 24.10445365 5.44371598 26.19736517 3.3125 28.9375 C-1.27768202 32.50764157 -5.15817188 33.18571794 -10.9375 32.6875 C-16.09198687 31.0275805 -19.02118272 29.28630801 -21.9375 24.6875 C-23.92060842 18.44536679 -23.99404472 11.19594044 -21.3125 5.1875 C-16.88702334 -2.31122435 -7.56039998 -3.37805106 0 0 Z M-14.4375 6.4375 C-16.30730013 8.79150629 -16.30730013 8.79150629 -15.9375 12.6875 C-10.6575 12.6875 -5.3775 12.6875 0.0625 12.6875 C-0.57639332 8.07729102 -0.57639332 8.07729102 -2 5.875 C-6.17707429 3.31485769 -10.60823327 3.75701329 -14.4375 6.4375 Z " fill="#6C6D70" transform="translate(1303.9375,606.3125)"/>
<path d="M0 0 C3.12439083 3.28336814 3.35861303 5.6143141 3.29296875 10.078125 C3.28330078 11.23828125 3.27363281 12.3984375 3.26367188 13.59375 C3.23853516 14.8003125 3.21339844 16.006875 3.1875 17.25 C3.16719727 19.08304688 3.16719727 19.08304688 3.14648438 20.953125 C3.1111398 23.96919498 3.0617956 26.98437487 3 30 C0 30 -3 30 -6 30 C-7.2375 30.20625 -8.475 30.4125 -9.75 30.625 C-13.91623203 31.16208332 -17.05422168 30.54736405 -21 29 C-23.01611453 27.38710838 -23.85099718 26.29800564 -25 24 C-25.39069343 19.85864965 -25.43382227 17.68813188 -23.1875 14.125 C-19.33968283 10.38712046 -15.36046253 10.87622688 -10.3125 10.9375 C-9.61060547 10.94201172 -8.90871094 10.94652344 -8.18554688 10.95117188 C-6.45699462 10.96293073 -4.72848635 10.98086546 -3 11 C-3.99 8.69 -4.98 6.38 -6 4 C-9.63 4 -13.26 4 -17 4 C-17.33 5.32 -17.66 6.64 -18 8 C-19.98 8 -21.96 8 -24 8 C-23.68416552 4.52582073 -23.36514364 2.46587292 -21.1875 -0.3125 C-15.16449748 -4.95881623 -6.05161771 -4.03441181 0 0 Z M-17.9296875 17.34765625 C-19.2618358 19.04084693 -19.2618358 19.04084693 -18.8125 21.625 C-18.25355766 24.16552003 -18.25355766 24.16552003 -16 25 C-13.89145964 25.2352732 -13.89145964 25.2352732 -11.5625 25.25 C-10.38880859 25.28867187 -10.38880859 25.28867187 -9.19140625 25.328125 C-6.96737849 25.15289547 -6.96737849 25.15289547 -5.27734375 23.859375 C-3.5448585 21.33746986 -3.33387252 19.00485272 -3 16 C-5.10353495 15.9189794 -7.20795952 15.86080093 -9.3125 15.8125 C-10.48425781 15.77769531 -11.65601563 15.74289062 -12.86328125 15.70703125 C-15.96010764 15.73584518 -15.96010764 15.73584518 -17.9296875 17.34765625 Z " fill="#6C6D70" transform="translate(872,608)"/>
<path d="M0 0 C4.18500306 1.69180975 6.50814689 4.26222034 9 8 C11.08686731 14.43450755 10.56587634 21.81857064 8 28 C4.04807056 32.49822557 0.4598257 33.81435278 -5.3125 34.25 C-9.58966569 33.96002267 -12.26890236 33.11194206 -16 31 C-19.80775882 26.43478378 -20.60517004 22.73022941 -20.4375 16.9375 C-20.44458984 16.24333984 -20.45167969 15.54917969 -20.45898438 14.83398438 C-20.40401008 10.38106623 -19.69030929 7.54836957 -17 4 C-11.84693902 -0.76658141 -6.67653862 -0.83711952 0 0 Z M-14 11 C-14.78630096 16.04291095 -14.68964511 20.43262475 -12.625 25.125 C-10.30633746 27.80037985 -9.26637463 27.96984438 -5.6875 28.375 C-1.96375849 28.25851289 -1.96375849 28.25851289 0.9375 26.25 C4.07122384 21.31201092 3.82503635 16.68882208 3 11 C1.7755983 7.63031977 1.7755983 7.63031977 -1 6 C-7.09042365 5.03326609 -10.51848697 5.45133861 -14 11 Z " fill="#6C6D70" transform="translate(1171,605)"/>
<path d="M0 0 C3.64987947 2.49260061 5.17241427 4.5797428 6.5625 8.75 C7.56557071 21.83925052 7.56557071 21.83925052 5 26.9375 C1.66606397 30.78434926 -1.39706907 32.33245533 -6.45703125 33.02734375 C-11.20964583 33.25452418 -14.49614969 32.34770816 -18.4375 29.75 C-23.46581338 24.31398554 -23.72547932 19.926112 -23.65625 12.76953125 C-23.2990989 7.83957054 -22.1367937 4.34308784 -18.4375 0.875 C-12.73152874 -2.33460884 -6.03431441 -2.19429615 0 0 Z M-14.875 6.5625 C-17.72198128 10.54827379 -17.68466117 13.97155068 -17.4375 18.75 C-16.62042746 21.74593265 -15.83987969 23.33324961 -13.6875 25.5625 C-10.65855071 27.16111212 -8.82347949 27.23371136 -5.4375 26.75 C-2.09988955 24.59909549 -0.70279067 23.54587201 0.5625 19.75 C0.93244554 14.10833056 0.68037827 10.6666542 -2.4375 5.75 C-6.68124504 3.62812748 -11.16857441 3.80643995 -14.875 6.5625 Z " fill="#6C6D70" transform="translate(763.4375,606.25)"/>
<path d="M0 0 C4.56508037 2.20102089 6.82302461 4.47238736 9 9 C9.31540185 11.74768999 9.46546861 14.19911849 9.4375 16.9375 C9.4674707 17.97293945 9.4674707 17.97293945 9.49804688 19.02929688 C9.49318353 24.16012432 8.26293093 27.08799141 5 31 C0.23071786 33.69959367 -3.55436175 34.58346124 -9 34 C-16.87472036 31.24384787 -16.87472036 31.24384787 -19 28 C-21.41951409 21.34633626 -21.516897 14.92327348 -20 8 C-15.76301429 -0.22101705 -8.3922376 -0.98517572 0 0 Z M-12.5 7.75 C-14.82287909 12.7829047 -14.8566272 17.55966586 -14 23 C-12.18328877 26.40282421 -12.18328877 26.40282421 -9 28 C-4.72643844 28.76313599 -2.79254347 28.47215356 0.9375 26.25 C4.06825994 21.31668131 3.95736539 16.68141429 3 11 C1.24600077 7.57748508 1.24600077 7.57748508 -2 6 C-6.030955 5.05811348 -9.02532038 5.31772426 -12.5 7.75 Z " fill="#6C6D70" transform="translate(1404,605)"/>
<path d="M0 0 C4.56508037 2.20102089 6.82302461 4.47238736 9 9 C9.31540185 11.74768999 9.46546861 14.19911849 9.4375 16.9375 C9.4674707 17.97293945 9.4674707 17.97293945 9.49804688 19.02929688 C9.49318353 24.16012432 8.26293093 27.08799141 5 31 C0.23071786 33.69959367 -3.55436175 34.58346124 -9 34 C-13.06483509 32.57730772 -16.22404263 31.3201081 -19 28 C-21.57314086 21.69843056 -21.58075678 14.54595436 -20 8 C-15.63014785 -0.18532007 -8.4773784 -0.99517051 0 0 Z M-12.5 7.75 C-14.82287909 12.7829047 -14.8566272 17.55966586 -14 23 C-12.18328877 26.40282421 -12.18328877 26.40282421 -9 28 C-4.72643844 28.76313599 -2.79254347 28.47215356 0.9375 26.25 C4.06825994 21.31668131 3.95736539 16.68141429 3 11 C1.24600077 7.57748508 1.24600077 7.57748508 -2 6 C-6.030955 5.05811348 -9.02532038 5.31772426 -12.5 7.75 Z " fill="#6C6D70" transform="translate(1087,605)"/>
<path d="M0 0 C2.85773163 2.02132237 4.13188344 3.63335208 5.5625 6.8125 C5.5625 7.8025 5.5625 8.7925 5.5625 9.8125 C2.75 10.0625 2.75 10.0625 -0.4375 9.8125 C-0.911875 9.173125 -1.38625 8.53375 -1.875 7.875 C-3.36759796 5.45226282 -3.36759796 5.45226282 -6.8125 5 C-9.98800688 4.83574964 -12.39313829 4.98221953 -15.4375 5.8125 C-15.4375 7.4625 -15.4375 9.1125 -15.4375 10.8125 C-13.79201172 11.05033203 -13.79201172 11.05033203 -12.11328125 11.29296875 C-10.6586821 11.52758152 -9.20426393 11.76331823 -7.75 12 C-7.02876953 12.10119141 -6.30753906 12.20238281 -5.56445312 12.30664062 C-0.44770122 13.17111469 2.26851526 14.55457786 5.5625 18.8125 C6.19655666 22.75774145 5.93094982 24.98348791 4.3125 28.625 C-0.55635458 32.49795251 -6.74546207 33.050696 -12.859375 32.65625 C-16.36198682 31.97152889 -18.35519386 30.89069084 -20.9375 28.4375 C-22.4375 25.8125 -22.4375 25.8125 -22.4375 21.8125 C-19.6875 21.5625 -19.6875 21.5625 -16.4375 21.8125 C-15.81875 22.4725 -15.2 23.1325 -14.5625 23.8125 C-12.14571716 26.08711914 -11.55970061 26.12949088 -8.375 26.1875 C-4.38778543 26.121196 -4.38778543 26.121196 -1.4375 23.8125 C-1.4375 22.8225 -1.4375 21.8325 -1.4375 20.8125 C-2.54609375 20.55855469 -3.6546875 20.30460938 -4.796875 20.04296875 C-6.2605367 19.69581822 -7.72407187 19.34813385 -9.1875 19 C-9.91710938 18.83435547 -10.64671875 18.66871094 -11.3984375 18.49804688 C-18.79940052 16.7150876 -18.79940052 16.7150876 -21.4375 13.8125 C-22.25794798 10.4232011 -22.09806269 7.22727324 -21.4375 3.8125 C-15.87784505 -2.34819873 -7.49494256 -2.58916198 0 0 Z " fill="#6C6D70" transform="translate(1337.4375,606.1875)"/>
<path d="M0 0 C3.71894184 1.67814584 5.549432 4.13804382 7.4375 7.75 C8.17582583 12.01588258 8.12462744 15.80458133 7 20 C5.09936318 22.45243461 3.74145145 23.62927427 1 25 C-3.67470792 25.57031437 -7.12316498 25.43841751 -11.375 23.3125 C-14.9340266 20.17716704 -16.7000279 18.20979447 -17.3515625 13.41015625 C-17.58386137 8.8558758 -17.46837432 5.85311037 -15.25 1.8125 C-10.24961358 -0.97617704 -5.58744799 -0.93754202 0 0 Z " fill="#0070BB" transform="translate(1126,270)"/>
<path d="M0 0 C3.19556529 1.26491126 4.53559295 2.48755084 6.8125 5 C8.64482364 9.62902815 8.68540714 14.09160047 8 19 C6.19881522 22.00197464 5.09667268 23.45166366 2 25 C-2.54613608 25.56479491 -6.72428995 25.50842996 -10.875 23.4375 C-14.61740496 20.51842413 -15.69269694 18.53711064 -17 14 C-17.51950867 8.97808282 -17.10491324 6.02488754 -14 2 C-9.53471871 -0.9768542 -5.23577218 -0.49133346 0 0 Z " fill="#0070BB" transform="translate(1382,270)"/>
<path d="M0 0 C1.875 1.375 1.875 1.375 3 3 C3.1875 5.6875 3.1875 5.6875 3 8 C1.02 8 -0.96 8 -3 8 C-3.33 7.01 -3.66 6.02 -4 5 C-8.17006403 2.54702116 -11.3709597 3.09234504 -16 4 C-16.33 5.32 -16.66 6.64 -17 8 C-13.45909914 9.5551688 -10.26131423 10.35381252 -6.4375 10.875 C-3.04402166 11.46417726 -1.23848152 11.83533419 1.625 13.8125 C3.95193109 17.51443583 4.23273215 19.83633926 3.375 24.125 C1.66983993 27.69033469 0.65452751 28.52263781 -3 30 C-9.11080814 31.39942171 -14.10589213 31.0979028 -20 29 C-22.87696445 26.86071875 -23.80704458 25.70750321 -24.75 22.25 C-24.8325 21.5075 -24.915 20.765 -25 20 C-22.69 20 -20.38 20 -18 20 C-17.67 20.99 -17.34 21.98 -17 23 C-14.63386544 24.18306728 -13.13219264 24.13354608 -10.5 24.125 C-9.7059375 24.12757813 -8.911875 24.13015625 -8.09375 24.1328125 C-5.94081466 24.13277996 -5.94081466 24.13277996 -4 23 C-4.495 20.525 -4.495 20.525 -5 18 C-6.03640625 17.82984375 -7.0728125 17.6596875 -8.140625 17.484375 C-9.5105647 17.24041314 -10.88034859 16.99557521 -12.25 16.75 C-13.27287109 16.58564453 -13.27287109 16.58564453 -14.31640625 16.41796875 C-18.72093524 15.60548282 -21.33749798 14.66848516 -24 11 C-24.45489027 7.8157681 -24.7001909 6.01620697 -24 3 C-18.08879496 -4.71740659 -7.96617361 -5.1211116 0 0 Z " fill="#6C6D70" transform="translate(1044,608)"/>
<path d="M0 0 C2.1519437 3.22791555 2.20086443 4.28400809 2 8 C0.02 8 -1.96 8 -4 8 C-4.185625 7.360625 -4.37125 6.72125 -4.5625 6.0625 C-5.92139603 3.63854644 -5.92139603 3.63854644 -9.3125 3.125 C-12.92554519 3.00252389 -14.83128841 3.36763342 -18 5 C-17.67 6.32 -17.34 7.64 -17 9 C-15.96359375 9.17015625 -14.9271875 9.3403125 -13.859375 9.515625 C-12.4894353 9.75958686 -11.11965141 10.00442479 -9.75 10.25 C-9.06808594 10.35957031 -8.38617187 10.46914063 -7.68359375 10.58203125 C-3.25995672 11.39804197 -0.74351783 12.39189963 2 16 C3.22900739 19.768956 3.1802634 21.50664753 1.8125 25.25 C-0.40251005 28.6107049 -2.20377689 29.58133146 -6.078125 30.484375 C-12.52999314 31.2734524 -18.02545619 31.15654426 -23.5 27.1875 C-25.29301811 24.57268193 -25.34526827 23.10741447 -25 20 C-23.02 20 -21.04 20 -19 20 C-18.67 20.99 -18.34 21.98 -18 23 C-15.67313547 24.16343227 -14.15278587 24.19895988 -11.5625 24.25 C-10.78003906 24.27578125 -9.99757813 24.3015625 -9.19140625 24.328125 C-6.9295507 24.16552671 -6.9295507 24.16552671 -5.21484375 22.671875 C-3.70608276 20.93994981 -3.70608276 20.93994981 -4 18 C-5.18078125 17.84144531 -6.3615625 17.68289063 -7.578125 17.51953125 C-9.13558571 17.28497391 -10.69286874 17.04923459 -12.25 16.8125 C-13.02730469 16.71130859 -13.80460937 16.61011719 -14.60546875 16.50585938 C-18.6150593 15.87186429 -20.51931144 15.46134196 -23.5234375 12.578125 C-25.69515814 8.78623182 -25.5052849 5.96499685 -24.4375 1.8125 C-18.51275537 -5.65783018 -7.35198744 -4.05109512 0 0 Z " fill="#6C6D70" transform="translate(1479,608)"/>
<path d="M0 0 C2.1519437 3.22791555 2.20086443 4.28400809 2 8 C0.02 8 -1.96 8 -4 8 C-4.185625 7.360625 -4.37125 6.72125 -4.5625 6.0625 C-5.92139603 3.63854644 -5.92139603 3.63854644 -9.3125 3.125 C-12.92554519 3.00252389 -14.83128841 3.36763342 -18 5 C-17.67 6.32 -17.34 7.64 -17 9 C-15.96359375 9.17015625 -14.9271875 9.3403125 -13.859375 9.515625 C-12.4894353 9.75958686 -11.11965141 10.00442479 -9.75 10.25 C-9.06808594 10.35957031 -8.38617187 10.46914063 -7.68359375 10.58203125 C-3.25995672 11.39804197 -0.74351783 12.39189963 2 16 C3.22900739 19.768956 3.1802634 21.50664753 1.8125 25.25 C-0.40251005 28.6107049 -2.20377689 29.58133146 -6.078125 30.484375 C-12.52999314 31.2734524 -18.02545619 31.15654426 -23.5 27.1875 C-25.29301811 24.57268193 -25.34526827 23.10741447 -25 20 C-23.02 20 -21.04 20 -19 20 C-18.67 20.99 -18.34 21.98 -18 23 C-15.67313547 24.16343227 -14.15278587 24.19895988 -11.5625 24.25 C-10.78003906 24.27578125 -9.99757813 24.3015625 -9.19140625 24.328125 C-6.9295507 24.16552671 -6.9295507 24.16552671 -5.21484375 22.671875 C-3.70608276 20.93994981 -3.70608276 20.93994981 -4 18 C-5.18078125 17.84144531 -6.3615625 17.68289063 -7.578125 17.51953125 C-9.13558571 17.28497391 -10.69286874 17.04923459 -12.25 16.8125 C-13.02730469 16.71130859 -13.80460938 16.61011719 -14.60546875 16.50585938 C-18.59340914 15.8752876 -20.51653578 15.46090757 -23.51171875 12.60546875 C-25.52245498 9.08536097 -25.64158841 6.99210568 -25 3 C-18.64355331 -5.12212632 -8.51291977 -4.69079253 0 0 Z " fill="#6C6D70" transform="translate(1013,608)"/>
<path d="M0 0 C2.31 0 4.62 0 7 0 C7.23710693 0.60062256 7.47421387 1.20124512 7.71850586 1.82006836 C8.78882572 4.5269469 9.86310775 7.23223541 10.9375 9.9375 C11.31068359 10.88302734 11.68386719 11.82855469 12.06835938 12.80273438 C12.42607422 13.70185547 12.78378906 14.60097656 13.15234375 15.52734375 C13.6472229 16.77632446 13.6472229 16.77632446 14.15209961 18.05053711 C14.84347269 19.96560634 14.84347269 19.96560634 16 21 C18.64 14.07 21.28 7.14 24 0 C26.31 0 28.62 0 31 0 C27.80609587 9.33974995 24.46179537 18.6158486 20.875 27.8125 C20.55080078 28.66553711 20.22660156 29.51857422 19.89257812 30.39746094 C16.76704809 38.30004348 16.76704809 38.30004348 13 41 C10.640625 41.609375 10.640625 41.609375 8.25 41.75 C7.45078125 41.80671875 6.6515625 41.8634375 5.828125 41.921875 C5.22484375 41.94765625 4.6215625 41.9734375 4 42 C4 40.02 4 38.04 4 36 C6.31 35.34 8.62 34.68 11 34 C10.51470181 26.865084 7.66407877 20.73203915 4.9375 14.1875 C4.00615954 11.93220763 3.07762219 9.67575496 2.15234375 7.41796875 C1.73976318 6.42563232 1.32718262 5.4332959 0.90209961 4.41088867 C0 2 0 2 0 0 Z " fill="#6C6D70" transform="translate(1605,606)"/>
<path d="M0 0 C2.64 0 5.28 0 8 0 C8.62648438 1.13179687 9.25296875 2.26359375 9.8984375 3.4296875 C10.72378222 4.91155643 11.54931272 6.39332191 12.375 7.875 C12.7875 8.62136719 13.2 9.36773438 13.625 10.13671875 C14.02460937 10.85214844 14.42421875 11.56757812 14.8359375 12.3046875 C15.20251465 12.96452637 15.5690918 13.62436523 15.94677734 14.30419922 C17.01345273 16.16519428 17.01345273 16.16519428 19 18 C19.2673999 17.49025635 19.5347998 16.9805127 19.81030273 16.45532227 C21.0174623 14.15670784 22.22744223 11.85958995 23.4375 9.5625 C23.85837891 8.76005859 24.27925781 7.95761719 24.71289062 7.13085938 C25.11572266 6.36708984 25.51855469 5.60332031 25.93359375 4.81640625 C26.30540771 4.10943604 26.67722168 3.40246582 27.06030273 2.67407227 C28 1 28 1 29 0 C31.67058851 -0.14115161 34.32432238 -0.04247107 37 0 C36.153125 1.47235882 35.30622738 2.94470462 34.45922852 4.41699219 C33.72830641 5.69483034 33.00232848 6.97550767 32.28100586 8.25878906 C30.65130195 11.15460047 29.01339494 13.97992187 27.16796875 16.74609375 C21.85443281 25.03314129 22.02104264 33.4361221 22 43 C19.69 43 17.38 43 15 43 C15.09023438 41.9790625 15.18046875 40.958125 15.2734375 39.90625 C15.84906089 25.19606542 9.13891487 15.04472867 1.26928711 3.03100586 C0 1 0 1 0 0 Z " fill="#6C6D70" transform="translate(701,595)"/>
<path d="M0 0 C3.53854266 2.41264272 4.26629221 3.82616474 5.75 7.875 C6.10748573 12.00782985 6.03268462 16.10580817 5.9375 20.25 C5.91719727 21.92642578 5.91719727 21.92642578 5.89648438 23.63671875 C5.86127164 26.38331211 5.81202096 29.12890289 5.75 31.875 C3.77 31.875 1.79 31.875 -0.25 31.875 C-0.26981934 31.29532471 -0.28963867 30.71564941 -0.31005859 30.1184082 C-0.40572601 27.47434063 -0.51523453 24.8310183 -0.625 22.1875 C-0.6559375 21.27548828 -0.686875 20.36347656 -0.71875 19.42382812 C-0.94680308 12.90673428 -0.94680308 12.90673428 -3.25 6.875 C-6.09083641 5.45458179 -8.10477278 5.56047728 -11.25 5.875 C-13.62328528 7.1296492 -13.62328528 7.1296492 -15.25 9.875 C-15.8940599 13.6167359 -15.9470867 17.33448386 -16 21.125 C-16.02964844 22.15625 -16.05929687 23.1875 -16.08984375 24.25 C-16.16044778 26.79174495 -16.21319009 29.33257783 -16.25 31.875 C-18.23 31.875 -20.21 31.875 -22.25 31.875 C-22.25 21.315 -22.25 10.755 -22.25 -0.125 C-19.25 -0.125 -16.25 -0.125 -13.25 -0.125 C-8.53428001 -1.69690666 -4.70181501 -1.62755135 0 0 Z " fill="#6C6D70" transform="translate(1442.25,606.125)"/>
<path d="M0 0 C3.53854266 2.41264272 4.26629221 3.82616474 5.75 7.875 C6.10748573 12.00782985 6.03268462 16.10580817 5.9375 20.25 C5.91719727 21.92642578 5.91719727 21.92642578 5.89648438 23.63671875 C5.86127164 26.38331211 5.81202096 29.12890289 5.75 31.875 C3.77 31.875 1.79 31.875 -0.25 31.875 C-0.26981934 31.25979492 -0.28963867 30.64458984 -0.31005859 30.01074219 C-0.40549727 27.21507458 -0.51509955 24.4201349 -0.625 21.625 C-0.6559375 20.65691406 -0.686875 19.68882812 -0.71875 18.69140625 C-0.75742188 17.75683594 -0.79609375 16.82226562 -0.8359375 15.859375 C-0.88306885 14.57111816 -0.88306885 14.57111816 -0.93115234 13.25683594 C-1.27210185 10.70989613 -1.88774894 9.04516095 -3.25 6.875 C-6.02100394 5.48949803 -8.1834706 5.6872533 -11.25 5.875 C-14.49849977 7.59726496 -14.49849977 7.59726496 -15.25 10.875 C-15.39715199 12.50067079 -15.49721867 14.13086857 -15.56640625 15.76171875 C-15.60830078 16.69951172 -15.65019531 17.63730469 -15.69335938 18.60351562 C-15.73267578 19.57998047 -15.77199219 20.55644531 -15.8125 21.5625 C-15.85568359 22.55056641 -15.89886719 23.53863281 -15.94335938 24.55664062 C-16.04941654 26.99595546 -16.15147714 29.43537113 -16.25 31.875 C-18.23 31.875 -20.21 31.875 -22.25 31.875 C-22.25 21.315 -22.25 10.755 -22.25 -0.125 C-19.25 -0.125 -16.25 -0.125 -13.25 -0.125 C-8.53428001 -1.69690666 -4.70181501 -1.62755135 0 0 Z " fill="#6C6D70" transform="translate(1125.25,606.125)"/>
<path d="M0 0 C2.31 0 4.62 0 7 0 C7.0093457 0.68102783 7.01869141 1.36205566 7.02832031 2.0637207 C7.08198131 5.14738647 7.16563551 8.22952794 7.25 11.3125 C7.26417969 12.38435547 7.27835938 13.45621094 7.29296875 14.56054688 C7.32519531 15.58857422 7.35742188 16.61660156 7.390625 17.67578125 C7.41157227 18.62364502 7.43251953 19.57150879 7.45410156 20.5480957 C7.80028569 23.12189236 7.80028569 23.12189236 9.81152344 24.84448242 C13.10386864 26.58284363 15.47025684 25.84975298 19 25 C21.56136221 22.43863779 21.29666857 21.33438669 21.4140625 17.7734375 C21.45273437 16.7421875 21.49140625 15.7109375 21.53125 14.6484375 C21.5621875 13.56820312 21.593125 12.48796875 21.625 11.375 C21.66367187 10.28703125 21.70234375 9.1990625 21.7421875 8.078125 C21.83666247 5.38558835 21.92222431 2.69306243 22 0 C23.98 0 25.96 0 28 0 C28.08729047 4.06236402 28.14048992 8.12448589 28.1875 12.1875 C28.21263672 13.33798828 28.23777344 14.48847656 28.26367188 15.67382812 C28.27333984 16.78564453 28.28300781 17.89746094 28.29296875 19.04296875 C28.3086792 20.06414795 28.32438965 21.08532715 28.34057617 22.13745117 C27.94581749 25.45540494 26.94132311 27.30776523 25 30 C20.24857744 33.3139252 14.82424119 33.37237507 9.26953125 32.5703125 C5.98039596 31.74378281 4.213737 30.55963341 2 28 C-0.59597648 22.34512816 -0.22708068 16.71057926 -0.125 10.625 C-0.11597656 9.60277344 -0.10695313 8.58054687 -0.09765625 7.52734375 C-0.0742043 5.01798478 -0.04138355 2.50911664 0 0 Z " fill="#6C6D70" transform="translate(776,606)"/>
<path d="M0 0 C1.98 0 3.96 0 6 0 C6.01981934 0.61520508 6.03963867 1.23041016 6.06005859 1.86425781 C6.15549727 4.65992542 6.26509955 7.4548651 6.375 10.25 C6.4059375 11.21808594 6.436875 12.18617188 6.46875 13.18359375 C6.50742188 14.11816406 6.54609375 15.05273438 6.5859375 16.015625 C6.6173584 16.87446289 6.6487793 17.73330078 6.68115234 18.61816406 C7.02210185 21.16510387 7.63774894 22.82983905 9 25 C11.77100394 26.38550197 13.9334706 26.1877467 17 26 C20.24849977 24.27773504 20.24849977 24.27773504 21 21 C21.14715199 19.37432921 21.24721867 17.74413143 21.31640625 16.11328125 C21.35830078 15.17548828 21.40019531 14.23769531 21.44335938 13.27148438 C21.48267578 12.29501953 21.52199219 11.31855469 21.5625 10.3125 C21.60568359 9.32443359 21.64886719 8.33636719 21.69335938 7.31835938 C21.79941654 4.87904454 21.90147714 2.43962887 22 0 C23.98 0 25.96 0 28 0 C28.08732726 3.89569135 28.14050185 7.79112982 28.1875 11.6875 C28.21263672 12.79029297 28.23777344 13.89308594 28.26367188 15.02929688 C28.27333984 16.09599609 28.28300781 17.16269531 28.29296875 18.26171875 C28.3086792 19.24100342 28.32438965 20.22028809 28.34057617 21.22924805 C27.83633492 25.33149462 26.10591183 27.96964736 23.11328125 30.7578125 C18.89845045 33.23529161 13.62855474 33.63515263 8.8984375 32.4921875 C5.75237465 31.22037486 3.04892411 29.73189881 1 27 C-0.0394775 23.8815675 -0.11494838 21.72524414 -0.09765625 18.45703125 C-0.09443359 17.38388672 -0.09121094 16.31074219 -0.08789062 15.20507812 C-0.07951172 14.08552734 -0.07113281 12.96597656 -0.0625 11.8125 C-0.05798828 10.68134766 -0.05347656 9.55019531 -0.04882812 8.38476562 C-0.03703498 5.58979073 -0.0205765 2.7949218 0 0 Z " fill="#6C6D70" transform="translate(1187,606)"/>
<path d="M0 0 C0 2.97 0 5.94 0 9 C2.64 9 5.28 9 8 9 C8 10.65 8 12.3 8 14 C5.36 14 2.72 14 0 14 C0.33 20.6 0.66 27.2 1 34 C3.31 34.66 5.62 35.32 8 36 C8 37.65 8 39.3 8 41 C6.60596244 41.10933628 5.20936224 41.18619553 3.8125 41.25 C3.03519531 41.29640625 2.25789063 41.3428125 1.45703125 41.390625 C-2.28067663 40.79639481 -3.58168912 39.96328235 -6 37 C-6.62289278 33.06878578 -6.46879077 29.21738103 -6.3125 25.25 C-6.27866211 23.63158203 -6.27866211 23.63158203 -6.24414062 21.98046875 C-6.1852565 19.3189065 -6.10307001 16.66015772 -6 14 C-7.98 14 -9.96 14 -12 14 C-12 12.35 -12 10.7 -12 9 C-10.02 9 -8.04 9 -6 9 C-6 6.36 -6 3.72 -6 1 C-3 0 -3 0 0 0 Z " fill="#6C6D70" transform="translate(1594,597)"/>
<path d="M0 0 C0 1.98 0 3.96 0 6 C-0.93972656 6.16435547 -0.93972656 6.16435547 -1.8984375 6.33203125 C-3.12433594 6.56986328 -3.12433594 6.56986328 -4.375 6.8125 C-5.59316406 7.03873047 -5.59316406 7.03873047 -6.8359375 7.26953125 C-9.35820641 7.87544942 -9.35820641 7.87544942 -11 11 C-11.3663859 13.41713479 -11.3663859 13.41713479 -11.4140625 16.10546875 C-11.45273438 17.08837891 -11.49140625 18.07128906 -11.53125 19.08398438 C-11.57765625 20.62022461 -11.57765625 20.62022461 -11.625 22.1875 C-11.66367188 23.22326172 -11.70234375 24.25902344 -11.7421875 25.32617188 C-11.83648296 27.88393622 -11.92208202 30.44169287 -12 33 C-14.31 33 -16.62 33 -19 33 C-19 22.44 -19 11.88 -19 1 C-16 1 -13 1 -10 1 C-6.52674819 -0.1577506 -3.63932552 -0.06866652 0 0 Z " fill="#6C6D70" transform="translate(1241,605)"/>
<path d="M0 0 C1.98 0 3.96 0 6 0 C6.33 12.21 6.66 24.42 7 37 C9.31 37 11.62 37 14 37 C14 38.98 14 40.96 14 43 C12.60696395 43.13657216 11.20993879 43.23271149 9.8125 43.3125 C9.03519531 43.37050781 8.25789063 43.42851563 7.45703125 43.48828125 C3.67776854 42.7372354 2.36013705 40.99816917 0 38 C-0.67127521 35.05274557 -0.58472265 32.20907493 -0.48828125 29.19921875 C-0.48120651 28.36284378 -0.47413177 27.52646881 -0.46684265 26.66474915 C-0.43894985 24.00473948 -0.37622481 21.34686861 -0.3125 18.6875 C-0.28741034 16.87958779 -0.26459833 15.07164243 -0.24414062 13.26367188 C-0.18914042 8.84162927 -0.10290643 4.42117669 0 0 Z " fill="#6C6D70" transform="translate(1552,595)"/>
<path d="M0 0 C0 1.98 0 3.96 0 6 C-0.61488281 6.08636719 -1.22976563 6.17273438 -1.86328125 6.26171875 C-3.07564453 6.47248047 -3.07564453 6.47248047 -4.3125 6.6875 C-5.11300781 6.81511719 -5.91351562 6.94273437 -6.73828125 7.07421875 C-9.12969283 7.86257298 -9.12969283 7.86257298 -10.75 9.9375 C-12.55542878 14.36080052 -12.57032586 18.57531672 -12.6875 23.3125 C-12.72166016 24.24384766 -12.75582031 25.17519531 -12.79101562 26.13476562 C-12.87315941 28.42305672 -12.94241662 30.71098104 -13 33 C-14.98 33 -16.96 33 -19 33 C-19 22.44 -19 11.88 -19 1 C-17.02 1 -15.04 1 -13 1 C-12.67 1.66 -12.34 2.32 -12 3 C-11.319375 2.505 -10.63875 2.01 -9.9375 1.5 C-6.40534991 -0.30365111 -3.91363009 -0.23021353 0 0 Z " fill="#6C6D70" transform="translate(1278,605)"/>
<path d="M0 0 C0 1.98 0 3.96 0 6 C-0.69867187 6.09796875 -1.39734375 6.1959375 -2.1171875 6.296875 C-3.02726563 6.44640625 -3.93734375 6.5959375 -4.875 6.75 C-5.77992188 6.88921875 -6.68484375 7.0284375 -7.6171875 7.171875 C-10.09808607 7.7600578 -10.09808607 7.7600578 -11.12304688 9.74023438 C-12.10529234 12.27132123 -12.31493796 14.27497086 -12.4140625 16.984375 C-12.45273437 17.91894531 -12.49140625 18.85351562 -12.53125 19.81640625 C-12.5621875 20.78449219 -12.593125 21.75257813 -12.625 22.75 C-12.66367187 23.73355469 -12.70234375 24.71710937 -12.7421875 25.73046875 C-12.83628426 28.15346037 -12.92192328 30.57644796 -13 33 C-14.98 33 -16.96 33 -19 33 C-19 22.44 -19 11.88 -19 1 C-16 1 -13 1 -10 1 C-6.52674819 -0.1577506 -3.63932552 -0.06866652 0 0 Z " fill="#6C6D70" transform="translate(831,605)"/>
<path d="M0 0 C2.31 0 4.62 0 7 0 C7 10.56 7 21.12 7 32 C4.69 32 2.38 32 0 32 C0 21.44 0 10.88 0 0 Z " fill="#6C6D70" transform="translate(1570,606)"/>
<path d="M0 0 C2.31 0 4.62 0 7 0 C7 10.56 7 21.12 7 32 C4.69 32 2.38 32 0 32 C0 21.44 0 10.88 0 0 Z " fill="#6C6D70" transform="translate(1487,606)"/>
<path d="M0 0 C2.31 0 4.62 0 7 0 C7 10.56 7 21.12 7 32 C4.69 32 2.38 32 0 32 C0 21.44 0 10.88 0 0 Z " fill="#6C6D70" transform="translate(1053,606)"/>
<path d="M0 0 C1.98 0 3.96 0 6 0 C6 10.56 6 21.12 6 32 C4.02 32 2.04 32 0 32 C0 21.44 0 10.88 0 0 Z " fill="#6C6D70" transform="translate(1538,606)"/>
<path d="M0 0 C1.98 0 3.96 0 6 0 C6 10.56 6 21.12 6 32 C4.02 32 2.04 32 0 32 C0 21.44 0 10.88 0 0 Z " fill="#6C6D70" transform="translate(975,606)"/>
<path d="M0 0 C2.31 0 4.62 0 7 0 C7 1.98 7 3.96 7 6 C4.69 6 2.38 6 0 6 C0 4.02 0 2.04 0 0 Z " fill="#6C6D70" transform="translate(1570,595)"/>
<path d="M0 0 C2.31 0 4.62 0 7 0 C7 1.98 7 3.96 7 6 C4.69 6 2.38 6 0 6 C0 4.02 0 2.04 0 0 Z " fill="#6C6D70" transform="translate(1487,595)"/>
<path d="M0 0 C2.31 0 4.62 0 7 0 C7 1.98 7 3.96 7 6 C4.69 6 2.38 6 0 6 C0 4.02 0 2.04 0 0 Z " fill="#6C6D70" transform="translate(1053,595)"/>
<path d="M0 0 C1.98 0 3.96 0 6 0 C6 1.98 6 3.96 6 6 C4.02 6 2.04 6 0 6 C0 4.02 0 2.04 0 0 Z " fill="#6C6D70" transform="translate(1538,595)"/>
<path d="M0 0 C1.98 0 3.96 0 6 0 C6 1.98 6 3.96 6 6 C4.02 6 2.04 6 0 6 C0 4.02 0 2.04 0 0 Z " fill="#6C6D70" transform="translate(975,595)"/>
</svg>
