<?xml version="1.0" encoding="UTF-8"?>
<svg version="1.1" xmlns="http://www.w3.org/2000/svg" width="487" height="486">
<path d="M0 0 C0.79946045 0.00459229 1.5989209 0.00918457 2.42260742 0.01391602 C3.23947021 0.01657471 4.05633301 0.0192334 4.89794922 0.02197266 C11.69233235 0.0746113 18.40732155 0.51770109 25.17260742 1.13891602 C28.54731061 1.38291569 31.92235509 1.62139835 35.29760742 1.85766602 C37.99095997 2.12114616 40.52362695 2.59690138 43.17260742 3.13891602 C44.91179447 3.45620014 46.65140373 3.77117585 48.39135742 4.08422852 C76.11425062 9.21842733 103.01149023 18.42287616 127.17260742 33.13891602 C128.61254181 33.92157794 130.05407834 34.7012963 131.49682617 35.47875977 C136.27192876 38.11659265 140.65383052 41.16403784 145.04760742 44.38891602 C145.83063232 44.96029297 146.61365723 45.53166992 147.42041016 46.12036133 C156.21385756 52.57863068 164.49709173 59.24643724 172.11791992 67.08422852 C173.9428353 68.90914389 175.8060203 70.56388883 177.79760742 72.20141602 C181.70727106 75.49797331 184.9086023 79.21134941 188.17260742 83.13891602 C188.63441406 83.68306152 189.0962207 84.22720703 189.57202148 84.7878418 C209.63946888 108.46185191 225.16700884 135.61539098 234.79321289 165.14306641 C235.5546707 167.47302873 236.33712928 169.79520559 237.12182617 172.11743164 C239.88409124 180.40439152 242.07875604 188.44160853 243.17260742 197.13891602 C243.36983398 198.44086914 243.56706055 199.74282227 243.77026367 201.08422852 C244.08394146 203.22989 244.39641348 205.37572805 244.70776367 207.52172852 C245.03965286 210.10959799 245.03965286 210.10959799 246.17260742 212.13891602 C247.31086431 221.38310474 247.36538123 230.71326639 247.36010742 240.01391602 C247.36050018 240.68068359 247.36089294 241.34745117 247.36129761 242.03442383 C247.35259598 254.46997434 246.63749873 266.78690886 245.17260742 279.13891602 C245.02694336 280.37641602 244.8812793 281.61391602 244.73120117 282.88891602 C244.17096558 286.14846853 243.23356572 289.01005353 242.17260742 292.13891602 C241.6057164 294.47446422 241.09250851 296.81934124 240.57592773 299.16650391 C231.36211295 340.64770723 209.32645402 381.38298731 178.51245117 410.80688477 C176.13218397 413.08534918 176.13218397 413.08534918 174.18041992 415.67407227 C172.02946216 418.31464493 169.77340996 420.27082563 167.11010742 422.38891602 C166.13686523 423.16750977 165.16362305 423.94610352 164.16088867 424.74829102 C163.17475586 425.53719727 162.18862305 426.32610352 161.17260742 427.13891602 C159.38070399 428.63863317 157.58903388 430.13862914 155.79760742 431.63891602 C133.15774728 450.13891602 133.15774728 450.13891602 126.17260742 450.13891602 C126.17260742 450.79891602 126.17260742 451.45891602 126.17260742 452.13891602 C122.47609117 453.93996987 118.77728816 455.73623348 115.07641602 457.52832031 C113.82091479 458.13707257 112.56601699 458.74707115 111.31176758 459.35839844 C104.6938799 462.5829708 98.12918229 465.70719294 91.17260742 468.13891602 C90.08979492 468.55012695 89.00698242 468.96133789 87.89135742 469.38500977 C79.76763438 472.39197036 71.66480117 474.65415502 63.24438477 476.63745117 C61.10421567 477.15546995 58.97649785 477.71021363 56.84838867 478.27563477 C56.13859863 478.46182373 55.42880859 478.6480127 54.69750977 478.83984375 C52.72860626 479.35774597 50.76110582 479.88097376 48.79370117 480.40454102 C45.14649455 481.14421183 41.88122982 481.19285961 38.17260742 481.13891602 C37.18260742 481.46891602 36.19260742 481.79891602 35.17260742 482.13891602 C29.3694931 483.11819156 23.6221538 483.21375921 17.75073242 483.07641602 C15.1820352 483.06329899 15.1820352 483.06329899 12.75073242 483.63110352 C9.67978021 484.23598804 6.80118988 484.27122579 3.67260742 484.26391602 C2.56916992 484.26649414 1.46573242 484.26907227 0.32885742 484.27172852 C-2.82739258 484.13891602 -2.82739258 484.13891602 -5.15551758 483.66235352 C-9.90530661 482.73183929 -14.75772935 482.73647195 -19.58520508 482.53344727 C-25.7247409 482.24156769 -25.7247409 482.24156769 -26.82739258 481.13891602 C-29.09685083 480.93544734 -31.36814842 480.7525375 -33.63989258 480.57641602 C-63.4803954 477.53246335 -96.52424011 464.68378835 -121.06958008 447.35766602 C-123.04456543 445.94540648 -123.04456543 445.94540648 -126.20239258 444.26391602 C-134.63335442 439.54335443 -142.12210379 433.1895494 -149.51489258 427.02172852 C-151.87985724 425.03519394 -151.87985724 425.03519394 -154.82739258 423.13891602 C-154.82739258 422.47891602 -154.82739258 421.81891602 -154.82739258 421.13891602 C-155.41617188 420.8746582 -156.00495117 420.61040039 -156.61157227 420.33813477 C-158.90811842 419.09522658 -160.43572424 417.7888512 -162.28051758 415.95141602 C-162.89926758 415.33524414 -163.51801758 414.71907227 -164.15551758 414.08422852 C-164.78973633 413.44227539 -165.42395508 412.80032227 -166.07739258 412.13891602 C-166.72708008 411.49696289 -167.37676758 410.85500977 -168.04614258 410.19360352 C-168.65973633 409.57743164 -169.27333008 408.96125977 -169.90551758 408.32641602 C-170.46658203 407.7630957 -171.02764648 407.19977539 -171.60571289 406.61938477 C-172.82739258 405.13891602 -172.82739258 405.13891602 -172.82739258 403.13891602 C-173.48739258 403.13891602 -174.14739258 403.13891602 -174.82739258 403.13891602 C-176.59836966 401.09245361 -178.2531536 399.03924567 -179.88989258 396.88891602 C-180.62308716 395.93807129 -180.62308716 395.93807129 -181.37109375 394.96801758 C-182.37716342 393.66014334 -183.38015594 392.34989653 -184.38012695 391.03735352 C-185.693209 389.31493011 -187.01641836 387.6009317 -188.34301758 385.88891602 C-192.38789886 380.60580577 -196.12612806 375.29223482 -199.44848633 369.52563477 C-200.32474658 368.00893501 -201.23074814 366.50874601 -202.17504883 365.03344727 C-221.09343542 335.2593848 -233.26932349 298.13313401 -234.65161133 262.90454102 C-234.79017605 259.93617672 -235.04329335 257.05052445 -235.35864258 254.09985352 C-235.99914051 247.22404075 -235.85848973 240.40942742 -235.63989258 233.51391602 C-235.61883453 232.84238495 -235.59777649 232.17085388 -235.57608032 231.47897339 C-235.12685082 218.16388964 -233.49442672 205.19424283 -230.82739258 192.13891602 C-230.67399414 191.38658691 -230.5205957 190.63425781 -230.36254883 189.85913086 C-226.54951851 171.8611216 -220.31981492 153.59211003 -211.95239258 137.20141602 C-211.42597168 136.16476807 -211.42597168 136.16476807 -210.88891602 135.10717773 C-210.188446 133.7334249 -209.48541407 132.36097467 -208.77954102 130.98999023 C-207.97739739 129.43054075 -207.18627101 127.86543137 -206.39770508 126.29907227 C-195.65867155 105.67885701 -180.88613238 87.77774275 -164.82739258 71.13891602 C-163.92762695 70.19790039 -163.02786133 69.25688477 -162.10083008 68.28735352 C-154.0470319 60.02901443 -145.11935813 53.02162317 -135.88989258 46.13891602 C-135.25092041 45.65753174 -134.61194824 45.17614746 -133.95361328 44.68017578 C-130.93541199 42.46085127 -128.4963608 40.88159384 -124.82739258 40.13891602 C-124.82739258 39.47891602 -124.82739258 38.81891602 -124.82739258 38.13891602 C-114.94719597 30.93844147 -102.88210333 26.21579135 -91.82739258 21.13891602 C-90.25538086 20.41188477 -90.25538086 20.41188477 -88.65161133 19.67016602 C-64.98049176 9.28994173 -39.50666327 2.51686426 -13.68286133 1.53344727 C-12.38155273 1.47737305 -12.38155273 1.47737305 -11.05395508 1.42016602 C-10.26585449 1.38987305 -9.47775391 1.35958008 -8.66577148 1.32836914 C-5.72037962 1.02483341 -3.35238415 0.00909689 0 0 Z M-4.82739258 31.13891602 C-6.18218714 31.13298694 -7.5368752 31.08353955 -8.88989258 31.01391602 C-16.00177182 30.92074729 -22.82077321 32.45416512 -29.77246094 33.78613281 C-31.75115577 34.12582796 -33.74925781 34.34585664 -35.74536133 34.56079102 C-40.50573639 35.1249188 -44.95277782 36.52080303 -49.51489258 37.95141602 C-50.3846875 38.21841309 -51.25448242 38.48541016 -52.15063477 38.76049805 C-54.71134353 39.54764383 -57.26939433 40.34301503 -59.82739258 41.13891602 C-61.2242613 41.56817025 -62.62137265 41.99663628 -64.01879883 42.42407227 C-66.95664736 43.32380853 -69.89282273 44.22855676 -72.82739258 45.13891602 C-72.82739258 45.79891602 -72.82739258 46.45891602 -72.82739258 47.13891602 C-74.04426758 47.32454102 -75.26114258 47.51016602 -76.51489258 47.70141602 C-83.25914135 49.2083341 -88.88164937 52.73460726 -94.82739258 56.13891602 C-95.9437207 56.73833008 -97.06004883 57.33774414 -98.21020508 57.95532227 C-114.55102978 66.87019132 -129.79386864 78.87340379 -142.82739258 92.13891602 C-143.56860352 92.86852539 -144.30981445 93.59813477 -145.07348633 94.34985352 C-149.55776701 98.77818061 -153.87735421 103.22704798 -157.82739258 108.13891602 C-158.58922852 109.08508789 -159.35106445 110.03125977 -160.13598633 111.00610352 C-170.40518095 122.65517673 -170.40518095 122.65517673 -175.82739258 136.13891602 C-176.48739258 136.13891602 -177.14739258 136.13891602 -177.82739258 136.13891602 C-191.71108157 163.27201379 -203.67822003 192.21070018 -204.68676758 223.11547852 C-204.82739258 226.13891602 -204.82739258 226.13891602 -205.33129883 228.92797852 C-210.30101617 261.09418054 -200.73472692 298.11504387 -187.59594727 327.22631836 C-186.81242329 329.17616805 -186.2887908 331.09110539 -185.82739258 333.13891602 C-185.16739258 333.13891602 -184.50739258 333.13891602 -183.82739258 333.13891602 C-183.65300659 334.23381348 -183.65300659 334.23381348 -183.47509766 335.35083008 C-182.3978834 339.98776443 -179.88518845 343.79839248 -177.51489258 347.88891602 C-177.02827148 348.76418945 -176.54165039 349.63946289 -176.0402832 350.54125977 C-175.56139648 351.37270508 -175.08250977 352.20415039 -174.58911133 353.06079102 C-174.1555835 353.81972656 -173.72205566 354.57866211 -173.27539062 355.3605957 C-171.55871363 357.46888692 -170.47676489 357.78354263 -167.82739258 358.13891602 C-167.48708008 357.23012695 -167.14676758 356.32133789 -166.79614258 355.38500977 C-161.68640981 342.01708675 -155.63203064 329.86496709 -146.71020508 318.62719727 C-145.10387082 316.50430324 -143.90479048 314.56022603 -142.82739258 312.13891602 C-142.16739258 312.13891602 -141.50739258 312.13891602 -140.82739258 312.13891602 C-140.82739258 311.47891602 -140.82739258 310.81891602 -140.82739258 310.13891602 C-140.16739258 310.13891602 -139.50739258 310.13891602 -138.82739258 310.13891602 C-137.4380118 308.17743728 -136.10135148 306.17725026 -134.82739258 304.13891602 C-135.6240332 303.69161133 -136.42067383 303.24430664 -137.24145508 302.78344727 C-151.60186066 294.58997985 -151.60186066 294.58997985 -153.82739258 290.13891602 C-154.48739258 290.13891602 -155.14739258 290.13891602 -155.82739258 290.13891602 C-156.08907227 289.57301758 -156.35075195 289.00711914 -156.62036133 288.42407227 C-157.92966827 285.94528729 -159.46843499 283.82602744 -161.13989258 281.57641602 C-171.87244566 266.27918787 -176.73904924 246.69471971 -173.51489258 228.26391602 C-170.3801752 210.9966692 -161.98029249 195.79953441 -148.82739258 184.13891602 C-148.16739258 183.80891602 -147.50739258 183.47891602 -146.82739258 183.13891602 C-146.82739258 182.47891602 -146.82739258 181.81891602 -146.82739258 181.13891602 C-145.77551758 180.73672852 -145.77551758 180.73672852 -144.70239258 180.32641602 C-141.66241018 179.07077111 -138.75461517 177.63656479 -135.82739258 176.13891602 C-135.82739258 175.47891602 -135.82739258 174.81891602 -135.82739258 174.13891602 C-135.02301758 174.03579102 -134.21864258 173.93266602 -133.38989258 173.82641602 C-130.60608919 173.2891908 -128.2832573 172.64275813 -125.63989258 171.70141602 C-109.4911745 166.23816811 -89.92941498 165.73033904 -74.35473633 173.20141602 C-68.05382955 176.39780797 -62.33875086 179.69949164 -56.82739258 184.13891602 C-56.16739258 184.13891602 -55.50739258 184.13891602 -54.82739258 184.13891602 C-54.82739258 184.79891602 -54.82739258 185.45891602 -54.82739258 186.13891602 C-53.85801758 186.88141602 -52.88864258 187.62391602 -51.88989258 188.38891602 C-39.15051875 198.95768659 -32.47220831 217.15967546 -30.82739258 233.13891602 C-30.62404608 236.14088391 -30.53517093 239.13040613 -30.51489258 242.13891602 C-30.5093335 242.82034668 -30.50377441 243.50177734 -30.49804688 244.20385742 C-30.56895859 249.16282898 -31.52343912 253.39330103 -32.82739258 258.13891602 C-33.10969727 259.49049805 -33.10969727 259.49049805 -33.39770508 260.86938477 C-34.99088013 267.92647707 -38.16029348 273.40809834 -42.08520508 279.38891602 C-43.93787461 282.06941057 -43.93787461 282.06941057 -44.82739258 285.13891602 C-45.48739258 285.13891602 -46.14739258 285.13891602 -46.82739258 285.13891602 C-46.98208008 286.09797852 -46.98208008 286.09797852 -47.13989258 287.07641602 C-47.36676758 287.75704102 -47.59364258 288.43766602 -47.82739258 289.13891602 C-48.81739258 289.46891602 -49.80739258 289.79891602 -50.82739258 290.13891602 C-51.95101166 291.29658416 -53.07411512 292.45475733 -54.19458008 293.61547852 C-60.49099016 299.4901195 -68.06538177 303.55517911 -75.82739258 307.13891602 C-75.4380957 307.72415039 -75.04879883 308.30938477 -74.64770508 308.91235352 C-60.39348574 330.78633988 -50.07211682 354.23274088 -41.82739258 378.95141602 C-41.31305664 380.47605469 -41.31305664 380.47605469 -40.78833008 382.03149414 C-37.3532161 392.31716938 -34.62352481 402.68355312 -32.26489258 413.26391602 C-31.95261719 414.65030273 -31.95261719 414.65030273 -31.6340332 416.06469727 C-31.22309261 417.89138615 -30.81451074 419.71860749 -30.40844727 421.54638672 C-30.03770146 423.20056727 -29.6589588 424.85298968 -29.26977539 426.50292969 C-28.05457667 431.71504599 -27.27118299 436.88182704 -26.70239258 442.20141602 C-26.61602539 442.97163086 -26.5296582 443.7418457 -26.44067383 444.53540039 C-26.23190091 446.40275818 -26.02900632 448.27077171 -25.82739258 450.13891602 C-15.30497002 453.98032698 -3.79010893 453.30357268 7.28808594 453.26928711 C9.39614729 453.26382259 11.50400476 453.2693254 13.61206055 453.27563477 C14.95906622 453.27497559 16.30607177 453.27369777 17.65307617 453.27172852 C18.85859131 453.27060059 20.06410645 453.26947266 21.30615234 453.26831055 C24.11716526 453.3359806 24.11716526 453.3359806 26.17260742 452.13891602 C29.74209471 451.86025716 33.31142421 451.69163123 36.88745117 451.51782227 C40.31098558 451.37578872 40.31098558 451.37578872 43.17260742 449.13891602 C43.81373808 447.22571583 43.81373808 447.22571583 44.01635742 444.98266602 C44.1260083 444.13559082 44.23565918 443.28851563 44.34863281 442.41577148 C44.45554443 441.49940918 44.56245605 440.58304687 44.67260742 439.63891602 C44.93074324 437.69347339 45.18987135 435.7481622 45.44995117 433.80297852 C45.78713674 431.18641848 46.12096994 428.56990147 46.43481445 425.95043945 C49.32400898 402.3349222 57.14748805 378.08655692 66.17260742 356.13891602 C66.59767578 355.08687988 67.02274414 354.03484375 67.46069336 352.95092773 C81.30517205 318.86234345 81.30517205 318.86234345 91.04370117 306.82641602 C91.41624023 306.26954102 91.7887793 305.71266602 92.17260742 305.13891602 C91.48830987 302.01552755 91.48830987 302.01552755 89.02026367 300.81469727 C88.10116211 300.36481445 87.18206055 299.91493164 86.23510742 299.45141602 C70.63841194 291.2394431 58.09745268 277.86306115 52.45678711 260.9987793 C46.76850447 241.59658023 46.02316769 221.85216009 55.43823242 203.43969727 C57.54757091 199.58572896 59.84786958 195.86580418 62.17260742 192.13891602 C62.8612186 190.81678256 63.54128303 189.48934252 64.17260742 188.13891602 C64.83260742 188.13891602 65.49260742 188.13891602 66.17260742 188.13891602 C67.52647678 186.48888774 68.85938885 184.82147732 70.17260742 183.13891602 C70.83260742 182.80891602 71.49260742 182.47891602 72.17260742 182.13891602 C72.17260742 181.47891602 72.17260742 180.81891602 72.17260742 180.13891602 C73.02725586 179.72899414 73.02725586 179.72899414 73.89916992 179.31079102 C76.20952149 178.11988814 78.35368802 176.78164301 80.54760742 175.38891602 C98.68150003 164.55637109 119.60682182 160.84238585 140.36010742 165.84204102 C152.49331734 169.62230235 164.68406335 176.62518546 173.17260742 186.13891602 C173.50260742 186.79891602 173.83260742 187.45891602 174.17260742 188.13891602 C174.83260742 188.13891602 175.49260742 188.13891602 176.17260742 188.13891602 C176.42268555 188.66485352 176.67276367 189.19079102 176.93041992 189.73266602 C178.18891269 192.17050105 179.57961174 194.50723294 180.99047852 196.85913086 C185.0706641 203.72854261 188.00998962 210.41040294 190.17260742 218.13891602 C190.50905273 219.12698242 190.50905273 219.12698242 190.85229492 220.13500977 C196.01389621 236.57435632 190.73985796 257.21827202 183.17260742 272.13891602 C180.45920492 276.41503736 177.47204463 280.30091088 174.17260742 284.13891602 C173.54612305 284.87754883 172.91963867 285.61618164 172.27416992 286.37719727 C166.79417064 292.33120492 160.13913964 296.14590365 153.17260742 300.13891602 C153.95635742 301.02579102 154.74010742 301.91266602 155.54760742 302.82641602 C168.49673811 318.03021888 178.05940932 333.45247598 185.17260742 352.13891602 C188.62016964 349.03458455 190.80209386 345.65092759 192.92260742 341.57641602 C193.26477295 340.9214917 193.60693848 340.26656738 193.95947266 339.59179688 C220.98323045 286.84700299 223.23204194 228.2623692 206.17260742 172.13891602 C205.28007905 169.7225717 204.27500711 167.47358714 203.17260742 165.13891602 C202.48231445 163.45862305 202.48231445 163.45862305 201.77807617 161.74438477 C199.10936529 155.31154173 196.24676904 149.25769977 192.52807617 143.34985352 C191.32981496 141.39534099 190.32743222 139.46363075 189.36010742 137.38891602 C184.72747953 127.89298996 178.45260522 119.11732608 171.70385742 111.02954102 C170.17260742 109.13891602 170.17260742 109.13891602 169.17260742 107.13891602 C168.51260742 107.13891602 167.85260742 107.13891602 167.17260742 107.13891602 C166.80135742 106.30360352 166.80135742 106.30360352 166.42260742 105.45141602 C164.94335924 102.71480688 163.23793303 100.46240732 161.17260742 98.13891602 C160.51260742 98.13891602 159.85260742 98.13891602 159.17260742 98.13891602 C158.84260742 97.14891602 158.51260742 96.15891602 158.17260742 95.13891602 C154.78010897 91.45563198 151.02040248 88.33176724 147.17260742 85.13891602 C146.05885742 83.99422852 146.05885742 83.99422852 144.92260742 82.82641602 C143.33783954 80.90753749 143.33783954 80.90753749 141.17260742 81.13891602 C141.17260742 80.47891602 141.17260742 79.81891602 141.17260742 79.13891602 C139.17014647 77.22903882 139.17014647 77.22903882 136.61010742 75.26391602 C135.33973633 74.2468457 135.33973633 74.2468457 134.04370117 73.20922852 C131.42203757 71.31877721 128.74795045 69.70828698 125.92480469 68.1394043 C123.16890102 66.56580903 120.56131771 64.77522263 117.92260742 63.01391602 C91.38658574 45.74593686 26.78287878 15.33378034 -4.82739258 31.13891602 Z " fill="#FCBC59" transform="translate(237.827392578125,1.861083984375)"/>
<path d="M0 0 C0.98871094 0.77085937 1.97742188 1.54171875 2.99609375 2.3359375 C2.99609375 2.9959375 2.99609375 3.6559375 2.99609375 4.3359375 C3.88554687 4.73039062 3.88554687 4.73039062 4.79296875 5.1328125 C14.69497665 10.54029199 21.13959823 25.41452596 24.99609375 35.3359375 C27.18332988 43.59882954 28.26787444 51.80003277 28.30859375 60.3359375 C28.31669067 61.3576001 28.31669067 61.3576001 28.32495117 62.39990234 C28.25528042 67.35924818 27.30011431 71.59007827 25.99609375 76.3359375 C25.80789062 77.23699219 25.6196875 78.13804687 25.42578125 79.06640625 C23.59086303 87.19431863 19.57563648 93.49093096 14.99609375 100.3359375 C14.33609375 101.3259375 13.67609375 102.3159375 12.99609375 103.3359375 C12.33609375 103.3359375 11.67609375 103.3359375 10.99609375 103.3359375 C10.90199219 103.92761719 10.80789062 104.51929688 10.7109375 105.12890625 C8.46054486 112.0768398 -2.07197227 117.65467586 -8.00390625 121.3359375 C-10.95112256 122.82046127 -13.92888336 124.14009527 -17.00390625 125.3359375 C-16.61460937 125.92117188 -16.2253125 126.50640625 -15.82421875 127.109375 C-1.56999941 148.98336136 8.7513695 172.42976236 16.99609375 197.1484375 C17.51042969 198.67307617 17.51042969 198.67307617 18.03515625 200.22851562 C21.47027023 210.51419087 24.19996152 220.88057461 26.55859375 231.4609375 C26.87086914 232.84732422 26.87086914 232.84732422 27.18945312 234.26171875 C27.60050202 236.08888907 28.00844818 237.91676053 28.41308594 239.74536133 C28.78421583 241.39446488 29.16883954 243.04063181 29.57128906 244.68237305 C30.87551925 250.10108259 31.40131575 255.33530691 31.62109375 260.8984375 C31.65976563 261.71634766 31.6984375 262.53425781 31.73828125 263.37695312 C31.83119419 265.36296719 31.91466152 267.34941958 31.99609375 269.3359375 C25.36655967 268.8219526 19.06073975 267.86290076 12.62109375 266.2109375 C11.33634155 265.88270996 11.33634155 265.88270996 10.02563477 265.54785156 C-18.65447224 257.99618274 -45.03231227 245.15744707 -68.00390625 226.3359375 C-68.52758789 225.91376953 -69.05126953 225.49160156 -69.59082031 225.05664062 C-82.34749591 214.75525717 -94.00114972 203.35133527 -104.00390625 190.3359375 C-104.720625 189.49417969 -105.43734375 188.65242187 -106.17578125 187.78515625 C-106.8409375 186.95628906 -107.50609375 186.12742187 -108.19140625 185.2734375 C-108.78308594 184.56058594 -109.37476562 183.84773437 -109.984375 183.11328125 C-112.12061946 177.29385668 -109.46439534 171.09885562 -107.12109375 165.625 C-106.38822455 164.06341219 -105.6404284 162.5087546 -104.87890625 160.9609375 C-104.28166748 159.72657959 -104.28166748 159.72657959 -103.67236328 158.46728516 C-100.31362 151.67119255 -96.51406223 145.44114865 -92.00390625 139.3359375 C-91.3490625 138.43617188 -90.69421875 137.53640625 -90.01953125 136.609375 C-86.59583758 132.03973427 -86.59583758 132.03973427 -85.00390625 130.3359375 C-84.34390625 130.3359375 -83.68390625 130.3359375 -83.00390625 130.3359375 C-83.00390625 129.6759375 -83.00390625 129.0159375 -83.00390625 128.3359375 C-82.34390625 128.3359375 -81.68390625 128.3359375 -81.00390625 128.3359375 C-79.43117057 125.4934521 -79.43117057 125.4934521 -79.00390625 122.3359375 C-80.66529566 121.16232256 -82.38570108 120.07168487 -84.12890625 119.0234375 C-88.4058773 116.37447479 -92.34715105 113.79503025 -96.00390625 110.3359375 C-96.00390625 109.6759375 -96.00390625 109.0159375 -96.00390625 108.3359375 C-96.66390625 108.3359375 -97.32390625 108.3359375 -98.00390625 108.3359375 C-110.60235149 94.35166328 -118.65003974 74.32764689 -118.00390625 55.3359375 C-115.65118953 34.3839077 -107.386599 15.15765759 -91.00390625 1.3359375 C-90.34390625 1.3359375 -89.68390625 1.3359375 -89.00390625 1.3359375 C-89.00390625 0.6759375 -89.00390625 0.0159375 -89.00390625 -0.6640625 C-87.54853057 -1.50255054 -86.08950252 -2.33470184 -84.62890625 -3.1640625 C-83.81679687 -3.628125 -83.0046875 -4.0921875 -82.16796875 -4.5703125 C-80.00390625 -5.6640625 -80.00390625 -5.6640625 -78.00390625 -5.6640625 C-78.00390625 -6.3240625 -78.00390625 -6.9840625 -78.00390625 -7.6640625 C-74.36281961 -9.0760587 -70.69676246 -10.39364711 -67.00390625 -11.6640625 C-66.11316406 -11.97214844 -65.22242188 -12.28023437 -64.3046875 -12.59765625 C-41.53024516 -19.3877539 -19.04933326 -13.03753012 0 0 Z " fill="#6B99C6" transform="translate(180.00390625,183.6640625)"/>
<path d="M0 0 C12.70260835 10.31977423 22.3756418 25.41483433 24.265625 41.9296875 C25.39333024 60.02423062 21.7451266 74.29121613 10.4375 88.6875 C7.9375 91.4375 7.9375 91.4375 5.4375 93.6875 C4.92703125 94.16703125 4.4165625 94.6465625 3.890625 95.140625 C-6.73229478 104.78896498 -20.67567943 110.14216577 -35 109.875 C-36.11967163 109.86098145 -36.11967163 109.86098145 -37.26196289 109.84667969 C-44.61510162 109.72154719 -50.8627924 109.52089343 -57.6875 106.5625 C-62.01795172 104.71430098 -64.94318785 104.14772928 -69.5625 105.6875 C-70.25598365 107.00708427 -70.91923823 108.34271879 -71.5625 109.6875 C-73.25390625 111.5390625 -73.25390625 111.5390625 -75.125 113.3125 C-77.70265389 115.73271959 -77.70265389 115.73271959 -79.5625 118.6875 C-82.49954456 120.6970568 -83.95472485 121.6875 -87.5625 121.6875 C-86.97916667 119.9375 -86.39583333 118.1875 -85.8125 116.4375 C-85.27496094 114.80361328 -85.27496094 114.80361328 -84.7265625 113.13671875 C-83.96408188 110.87742215 -83.16824794 108.62904622 -82.3359375 106.39453125 C-81.95695312 105.35683594 -81.57796875 104.31914062 -81.1875 103.25 C-80.82914063 102.30253906 -80.47078125 101.35507813 -80.1015625 100.37890625 C-79.4256 97.00399204 -79.89510539 95.67451834 -81.5625 92.6875 C-83.51428684 90.27061264 -83.51428684 90.27061264 -85.8125 87.9375 C-97.89165241 74.75319239 -102.35526347 59.44482654 -102.5625 41.6875 C-101.50530125 27.19315188 -94.29293822 13.74343456 -84.4453125 3.3125 C-82.5625 1.6875 -82.5625 1.6875 -80.5625 1.6875 C-80.5625 1.0275 -80.5625 0.3675 -80.5625 -0.3125 C-78.3777247 -1.58821484 -76.18988381 -2.85810673 -74 -4.125 C-73.08637695 -4.65963867 -73.08637695 -4.65963867 -72.15429688 -5.20507812 C-65.51693782 -9.03297303 -59.10930125 -11.67714116 -51.5625 -13 C-50.88960937 -13.12955078 -50.21671875 -13.25910156 -49.5234375 -13.39257812 C-31.6669976 -16.65017189 -14.48575002 -10.28617754 0 0 Z " fill="#6B99C7" transform="translate(282.5625,60.3125)"/>
<path d="M0 0 C0.33 0 0.66 0 1 0 C0.67 21.45 0.34 42.9 0 65 C0.66 65 1.32 65 2 65 C2.09087891 66.28197266 2.09087891 66.28197266 2.18359375 67.58984375 C2.30927734 69.24693359 2.30927734 69.24693359 2.4375 70.9375 C2.51871094 72.03964844 2.59992187 73.14179688 2.68359375 74.27734375 C2.70418084 76.91109903 2.70418084 76.91109903 4 78 C4.25949554 79.3399845 4.46626684 80.69030093 4.6484375 82.04296875 C4.76703125 82.86990234 4.885625 83.69683594 5.0078125 84.54882812 C5.24979049 86.28772316 5.48688926 88.02730519 5.71875 89.76757812 C6.447256 94.77799439 7.6124728 98.4845971 10 103 C10.73046875 106.2109375 10.73046875 106.2109375 11.1875 109.375 C11.34605469 110.43460937 11.50460938 111.49421875 11.66796875 112.5859375 C11.77753906 113.38257813 11.88710938 114.17921875 12 115 C12.66 115 13.32 115 14 115 C15.24200752 120.3177215 16.30834212 125.58201328 17 131 C3.66119386 110.9917908 -0.90178938 81.27439626 -1.82421875 57.765625 C-1.96213414 54.81117097 -2.21887224 51.94729492 -2.5390625 49.01171875 C-3.14724176 42.52114082 -2.99070141 36.09325 -2.75805664 29.5847168 C-2.68772759 27.56902296 -2.63325884 25.55332013 -2.58007812 23.53710938 C-2.31649955 15.53926986 -1.56162935 7.85057732 0 0 Z " fill="#F3C98D" transform="translate(5,207)"/>
<path d="M0 0 C0.33 0 0.66 0 1 0 C1 1.98 1 3.96 1 6 C1.53109375 5.68804687 2.0621875 5.37609375 2.609375 5.0546875 C3.31578125 4.66539062 4.0221875 4.27609375 4.75 3.875 C5.44609375 3.48054687 6.1421875 3.08609375 6.859375 2.6796875 C9 2 9 2 11.140625 2.8828125 C12.06101563 3.43582031 12.06101563 3.43582031 13 4 C13.66 4 14.32 4 15 4 C15 4.66 15 5.32 15 6 C13.824375 6.12375 13.824375 6.12375 12.625 6.25 C11.325625 6.62125 11.325625 6.62125 10 7 C9.31521005 8.32411667 8.65124242 9.65906543 8 11 C6.30859375 12.8515625 6.30859375 12.8515625 4.4375 14.625 C1.85984611 17.04521959 1.85984611 17.04521959 0 20 C-2.93704456 22.0095568 -4.39222485 23 -8 23 C-5.4675759 15.28149462 -2.81943154 7.61846395 0 0 Z " fill="#7CA5CC" transform="translate(203,159)"/>
<path d="M0 0 C0.79946045 0.00459229 1.5989209 0.00918457 2.42260742 0.01391602 C3.23947021 0.01657471 4.05633301 0.0192334 4.89794922 0.02197266 C11.69233235 0.0746113 18.40732155 0.51770109 25.17260742 1.13891602 C28.54731061 1.38291569 31.92235509 1.62139835 35.29760742 1.85766602 C37.98964583 2.1210176 40.53338201 2.55667144 43.17260742 3.13891602 C43.98342773 3.31551758 44.79424805 3.49211914 45.62963867 3.67407227 C46.40694336 3.8480957 47.18424805 4.02211914 47.98510742 4.20141602 C48.77530273 4.37801758 49.56549805 4.55461914 50.37963867 4.73657227 C50.97131836 4.8693457 51.56299805 5.00211914 52.17260742 5.13891602 C52.17260742 5.46891602 52.17260742 5.79891602 52.17260742 6.13891602 C50.25590016 5.99361724 48.33924445 5.84763832 46.42260742 5.70141602 C44.71281772 5.57132332 43.00299978 5.44157835 41.29296875 5.31469727 C39.80663636 5.191478 38.32203358 5.04635592 36.83935547 4.88500977 C27.08229744 3.89757821 17.31912588 3.98783691 7.5234375 4.00854492 C4.45397149 4.01397106 1.38464748 4.00853863 -1.68481445 4.00219727 C-3.6320804 4.00285692 -5.57934626 4.00413573 -7.52661133 4.00610352 C-8.44625168 4.00407928 -9.36589203 4.00205505 -10.31340027 3.99996948 C-14.3933333 3.59828838 -14.3933333 3.59828838 -17.82739258 5.13891602 C-19.60608984 5.29656007 -21.39057734 5.38992279 -23.17504883 5.45532227 C-24.25463867 5.4972168 -25.33422852 5.53911133 -26.4465332 5.58227539 C-27.5828418 5.6215918 -28.71915039 5.6609082 -29.88989258 5.70141602 C-31.60015625 5.76619141 -31.60015625 5.76619141 -33.3449707 5.83227539 C-36.17231453 5.93874441 -38.99974996 6.04075809 -41.82739258 6.13891602 C-33.09054374 1.63925628 -23.10426154 1.81877078 -13.4699707 1.48046875 C-12.6262793 1.44896729 -11.78258789 1.41746582 -10.91333008 1.38500977 C-10.15068848 1.36108154 -9.38804687 1.33715332 -8.60229492 1.3125 C-5.69738772 1.02840247 -3.31818751 0.00900409 0 0 Z " fill="#F2CD92" transform="translate(237.827392578125,1.861083984375)"/>
<path d="M0 0 C2 2 2 2 2.1953125 3.86914062 C2.16050781 5.00125977 2.16050781 5.00125977 2.125 6.15625 C2.10791992 7.00445312 2.09083984 7.85265625 2.07324219 8.7265625 C2.04907227 9.64179688 2.02490234 10.55703125 2 11.5 C1.6877246 37.69544507 6.25593836 65.82854038 17.08203125 89.8125 C18 92 18 92 18 94 C17.34 94 16.68 94 16 94 C16 93.34 16 92.68 16 92 C15.34 92 14.68 92 14 92 C13.54427083 90.01432292 13.08854167 88.02864583 12.6328125 86.04296875 C12.01992277 83.72257026 12.01992277 83.72257026 10 81 C9.55296766 78.78415454 9.18536758 76.55158039 8.875 74.3125 C8.70742188 73.13300781 8.53984375 71.95351563 8.3671875 70.73828125 C8.24601562 69.83464844 8.12484375 68.93101562 8 68 C7.34 68 6.68 68 6 68 C4.61921606 62.93712557 3.69252351 58.11241829 3.24609375 52.8828125 C3.09323004 50.91352564 3.09323004 50.91352564 2 49 C-0.55284673 38.68997503 -0.23244306 28.28144755 -0.125 17.75 C-0.11494488 16.02214063 -0.10582353 14.29427557 -0.09765625 12.56640625 C-0.07585539 8.37746077 -0.0414669 4.18879506 0 0 Z " fill="#F2CA8B" transform="translate(31,232)"/>
<path d="M0 0 C0.33 0 0.66 0 1 0 C1.08131463 1.43655854 1.13933559 2.8744483 1.1875 4.3125 C1.23970703 5.51326172 1.23970703 5.51326172 1.29296875 6.73828125 C0.92521683 9.57732604 0.20193796 10.22710706 -2 12 C-3.9440918 12.52416992 -3.9440918 12.52416992 -6.19921875 12.73046875 C-7.06313232 12.81143799 -7.9270459 12.89240723 -8.81713867 12.97583008 C-9.76435791 13.04568115 -10.71157715 13.11553223 -11.6875 13.1875 C-13.17697144 13.30484497 -13.17697144 13.30484497 -14.6965332 13.42456055 C-22.9884636 14.00292064 -31.28175688 14.23378889 -39.59170532 14.29653931 C-40.97079507 14.30704188 -42.34985977 14.32187727 -43.72885132 14.34140015 C-52.60889358 14.45034859 -60.50142933 13.62802414 -69 11 C-68.67 10.34 -68.34 9.68 -68 9 C-66.59041016 9.2165625 -66.59041016 9.2165625 -65.15234375 9.4375 C-54.60402378 10.89777654 -44.13236516 11.19851403 -33.5 11.1875 C-32.44847244 11.18858765 -32.44847244 11.18858765 -31.3757019 11.18969727 C-23.9774095 11.64856856 -23.9774095 11.64856856 -17 10 C-13.39875155 9.68224278 -9.79668305 9.48833427 -6.1875 9.28125 C-3.10577487 9.20574918 -3.10577487 9.20574918 -1 8 C-0.53476937 6.10466658 -0.53476937 6.10466658 -0.375 3.9375 C-0.189375 1.9884375 -0.189375 1.9884375 0 0 Z " fill="#F1CC90" transform="translate(281,443)"/>
<path d="M0 0 C5.7362213 8.60433196 6.55700348 20.73800821 7.60546875 30.83203125 C7.80810612 33.8939201 7.80810612 33.8939201 9 36 C10.11617273 44.88309296 10.15854112 53.84624025 10.13037109 62.78588867 C10.12495882 64.82803609 10.13038351 66.86996811 10.13671875 68.91210938 C10.13038925 75.3650384 10.02858929 81.62437907 9 88 C8.67 88 8.34 88 8 88 C7.98969254 87.40087296 7.97938507 86.80174591 7.96876526 86.1844635 C7.86093035 79.97189912 7.74631456 73.75948659 7.62768555 67.54711914 C7.58426261 65.22586227 7.54259316 62.90457192 7.50268555 60.58325195 C7.4451606 57.25461722 7.38141575 53.92615215 7.31640625 50.59765625 C7.29969376 49.55287613 7.28298126 48.50809601 7.26576233 47.43165588 C7.24581711 46.47073532 7.22587189 45.50981476 7.20532227 44.51977539 C7.18977798 43.66928116 7.1742337 42.81878693 7.15821838 41.94252014 C7.21055171 39.99476202 7.21055171 39.99476202 6 39 C5.72708398 37.54942245 5.50928167 36.08837195 5.31640625 34.625 C5.19330078 33.72136719 5.07019531 32.81773437 4.94335938 31.88671875 C4.81767578 30.93410156 4.69199219 29.98148438 4.5625 29 C3.91749667 17.76180136 3.91749667 17.76180136 0 8 C-0.14115161 5.32941149 -0.04247107 2.67567762 0 0 Z " fill="#F4CE94" transform="translate(475,178)"/>
<path d="M0 0 C1.69155793 2.70649269 2.2150566 5.0661133 2.5625 8.1875 C2.57461534 11.78190939 2.57461534 11.78190939 4 13 C4.26282615 17.72247795 4.19241132 22.45837623 4.1875 27.1875 C4.1882251 27.88352325 4.1889502 28.57954651 4.18969727 29.29666138 C4.18827675 41.61802423 3.43877562 53.75756104 2 66 C1.34 66 0.68 66 0 66 C-0.495 66.99 -0.495 66.99 -1 68 C-0.90912109 67.12601563 -0.90912109 67.12601563 -0.81640625 66.234375 C-0.53596398 63.49035528 -0.2674987 60.74531219 0 58 C0.13220947 56.68044312 0.13220947 56.68044312 0.26708984 55.33422852 C1.01318275 47.27855684 1.19109148 39.27499546 1.1875 31.1875 C1.18886963 29.87048096 1.19023926 28.55346191 1.19165039 27.1965332 C1.15105377 19.09475032 0.75694989 11.29891408 -0.66015625 3.32421875 C-0.77230469 2.55722656 -0.88445312 1.79023438 -1 1 C-0.67 0.67 -0.34 0.34 0 0 Z " fill="#F5D7A6" transform="translate(453,212)"/>
<path d="M0 0 C-0.33 0.66 -0.66 1.32 -1 2 C-6.59474592 3.73630046 -12.17051754 4.11896903 -18 4 C-18.99 4.33 -19.98 4.66 -21 5 C-26.80311433 5.97927554 -32.55045363 6.07484319 -38.421875 5.9375 C-40.99057222 5.92438298 -40.99057222 5.92438298 -43.421875 6.4921875 C-46.49282721 7.09707203 -49.37141754 7.13230977 -52.5 7.125 C-53.6034375 7.12757813 -54.706875 7.13015625 -55.84375 7.1328125 C-58.68492244 7.01325821 -61.23807642 6.64925815 -64 6 C-64 5.67 -64 5.34 -64 5 C-62.28901123 4.91697632 -62.28901123 4.91697632 -60.54345703 4.83227539 C-56.32024445 4.62616945 -52.09734317 4.41420084 -47.87451172 4.20043945 C-46.04516453 4.10866347 -44.21573635 4.01848768 -42.38623047 3.92993164 C-39.75986264 3.80252789 -37.13383779 3.66941321 -34.5078125 3.53515625 C-33.68693146 3.49656998 -32.86605042 3.4579837 -32.02029419 3.41822815 C-27.87648227 3.29102921 -27.87648227 3.29102921 -24 2 C-15.98004592 0.38183548 -8.16939651 -0.29468765 0 0 Z " fill="#F3D29F" transform="translate(294,479)"/>
<path d="M0 0 C1.50164329 4.00438212 0.84186581 7.90972269 0 12 C-0.65035814 13.34136367 -1.3162955 14.67532254 -2 16 C-3.42816202 22.56954528 -5.02305061 32.95389879 -2 39 C-1.93049459 40.54023996 -1.91547643 42.08334988 -1.9375 43.625 C-1.94652344 44.44226563 -1.95554687 45.25953125 -1.96484375 46.1015625 C-1.97644531 46.72804687 -1.98804688 47.35453125 -2 48 C-1.34 48 -0.68 48 0 48 C0.33 49.98 0.66 51.96 1 54 C1.33 54 1.66 54 2 54 C2 55.98 2 57.96 2 60 C2.66 60.33 3.32 60.66 4 61 C3.01 61 2.02 61 1 61 C-8.23711872 41.49420616 -7.22391016 22.18457859 -1 2 C-0.67 1.34 -0.34 0.68 0 0 Z " fill="#F3CC91" transform="translate(291,208)"/>
<path d="M0 0 C3.98021881 2.16069021 6.97250324 4.62650361 10 8 C10 8.66 10 9.32 10 10 C10.66 10 11.32 10 12 10 C13.2890625 11.53125 13.2890625 11.53125 14.625 13.5 C15.07101562 14.1496875 15.51703125 14.799375 15.9765625 15.46875 C16.48316406 16.22671875 16.48316406 16.22671875 17 17 C16.67 17.66 16.34 18.32 16 19 C12.28408098 17.76136033 11.27681288 16.11164427 9 13 C8.67 12.34 8.34 11.68 8 11 C7.443125 11.226875 6.88625 11.45375 6.3125 11.6875 C4 12 4 12 1.25 11 C-1 9 -1 9 -1.375 5.4375 C-1 2 -1 2 0 0 Z " fill="#FBBB5B" transform="translate(402,180)"/>
<path d="M0 0 C4.95 0.33 9.9 0.66 15 1 C15 1.66 15 2.32 15 3 C15.94875 2.896875 16.8975 2.79375 17.875 2.6875 C22.45685403 2.64103089 25.70439816 4.76127491 29.640625 6.90234375 C32.54177735 8.25205204 34.84017968 8.07348419 38 8 C40.5625 9.875 40.5625 9.875 43 12 C45.6794645 13.24016669 45.6794645 13.24016669 48 14 C48 14.66 48 15.32 48 16 C43.09336139 14.41989604 38.32489056 12.72131741 33.5625 10.75 C22.71468212 6.49671889 11.26434385 3.90973477 0 1 C0 0.67 0 0.34 0 0 Z " fill="#F4CF94" transform="translate(285,36)"/>
<path d="M0 0 C5.87876496 -0.16032995 11.23388095 0.3907466 17 1.5 C18.16208984 1.71462891 18.16208984 1.71462891 19.34765625 1.93359375 C21.23295579 2.28272329 23.11665939 2.64045316 25 3 C25 3.66 25 4.32 25 5 C30.13902076 5.74958121 35.28335224 6.42589437 40.4375 7.0625 C41.53481445 7.19881836 41.53481445 7.19881836 42.65429688 7.33789062 C44.43612723 7.55916368 46.21805361 7.77966329 48 8 C48 8.66 48 9.32 48 10 C41.84765625 10.09765625 41.84765625 10.09765625 40 10 C39.505 9.505 39.505 9.505 39 9 C37.3287454 8.82193308 35.65666926 8.64986301 33.98217773 8.50537109 C22.26535379 7.46381704 11.24541981 4.33581171 0 1 C0 0.67 0 0.34 0 0 Z " fill="#F3CB8E" transform="translate(172,474)"/>
<path d="M0 0 C0.6911792 -0.00547852 1.3823584 -0.01095703 2.09448242 -0.01660156 C5.7474627 0.03586169 7.31972481 0.23398321 10.4375 2.3125 C8.73207031 2.35117188 8.73207031 2.35117188 6.9921875 2.390625 C-2.07632891 2.6913641 -9.99856157 3.57000693 -18.64453125 6.47265625 C-21.45570905 7.28176365 -23.65896607 7.47887625 -26.5625 7.3125 C-26.5625 8.3025 -26.5625 9.2925 -26.5625 10.3125 C-27.8825 10.6425 -29.2025 10.9725 -30.5625 11.3125 C-30.8925 9.9925 -31.2225 8.6725 -31.5625 7.3125 C-21.11572111 3.2612885 -11.27021951 0.06603396 0 0 Z " fill="#9FB7D0" transform="translate(133.5625,168.6875)"/>
<path d="M0 0 C0.99 0 1.98 0 3 0 C3.66 2.97 4.32 5.94 5 9 C5.66 9 6.32 9 7 9 C7 10.32 7 11.64 7 13 C7.66 13 8.32 13 9 13 C9.4125 14.155 9.825 15.31 10.25 16.5 C11.396323 19.51918874 12.59374827 22.50036676 13.9375 25.4375 C14.23527344 26.09621094 14.53304687 26.75492187 14.83984375 27.43359375 C15.91538037 29.19668173 15.91538037 29.19668173 18.12890625 29.72265625 C18.74636719 29.81417969 19.36382812 29.90570313 20 30 C22.27678571 36.96428571 22.27678571 36.96428571 21 41 C19.56409585 38.60682641 18.1292379 36.21310501 16.69921875 33.81640625 C15.67890449 32.12526469 14.6443043 30.44244944 13.58203125 28.77734375 C9.98172849 23.05921583 7.02528418 17.09405963 4.125 11 C3.71918701 10.14994385 3.31337402 9.2998877 2.89526367 8.42407227 C2.33222534 7.22415649 2.33222534 7.22415649 1.7578125 6 C1.24951904 4.9171875 1.24951904 4.9171875 0.73095703 3.8125 C0 2 0 2 0 0 Z " fill="#F4CB8E" transform="translate(22,338)"/>
<path d="M0 0 C6.52576241 4.7681072 12.77352578 9.8494239 19 15 C17.68 15.33 16.36 15.66 15 16 C14.67 15.34 14.34 14.68 14 14 C12.68 14 11.36 14 10 14 C9.67 14.66 9.34 15.32 9 16 C6.69 16 4.38 16 2 16 C2.33 15.01 2.66 14.02 3 13 C3.99 12.67 4.98 12.34 6 12 C7.66710346 10.50014391 7.66710346 10.50014391 9 9 C7.02 9 5.04 9 3 9 C3 8.01 3 7.02 3 6 C2.34 5.67 1.68 5.34 1 5 C0.375 2.4375 0.375 2.4375 0 0 Z " fill="#F3BE69" transform="translate(98,398)"/>
<path d="M0 0 C2.475 0.495 2.475 0.495 5 1 C4.67 2.32 4.34 3.64 4 5 C4.66 5 5.32 5 6 5 C7.4606285 7.64738916 8 8.89448334 8 12 C8.66 12 9.32 12 10 12 C10 12.99 10 13.98 10 15 C10.66 15 11.32 15 12 15 C13.37000201 17.93036877 14.71818552 20.87026914 16.0625 23.8125 C16.45244141 24.64587891 16.84238281 25.47925781 17.24414062 26.33789062 C17.60830078 27.14033203 17.97246094 27.94277344 18.34765625 28.76953125 C18.68804932 29.50792236 19.02844238 30.24631348 19.37915039 31.00708008 C20 33 20 33 19 36 C18.27296875 34.51113281 18.27296875 34.51113281 17.53125 32.9921875 C10.32194538 17.81347706 10.32194538 17.81347706 1.26953125 3.734375 C0 2 0 2 0 0 Z " fill="#F1CF9B" transform="translate(418,124)"/>
<path d="M0 0 C0.33 0.99 0.66 1.98 1 3 C0.01 4.485 0.01 4.485 -1 6 C-1.66 6 -2.32 6 -3 6 C-3.309375 7.093125 -3.61875 8.18625 -3.9375 9.3125 C-4.58337897 11.55407994 -5.2623117 13.7869351 -6 16 C-6.66 16 -7.32 16 -8 16 C-7.195625 17.299375 -7.195625 17.299375 -6.375 18.625 C-5 22 -5 22 -5.625 25.1875 C-6.8647263 27.72330379 -7.83960805 29.23240659 -10 31 C-10.66 30.34 -11.32 29.68 -12 29 C-11.67 28.67 -11.34 28.34 -11 28 C-10.80438131 25.9174133 -10.61880687 23.83388144 -10.4375 21.75 C-9.36552785 13.5845871 -5.93874614 5.93874614 0 0 Z " fill="#FBBB5C" transform="translate(301,192)"/>
<path d="M0 0 C0 8.3785676 -11.74010997 18.7051779 -17 25 C-17 22 -17 22 -16 19 C-16.66 19 -17.32 19 -18 19 C-18 18.34 -18 17.68 -18 17 C-17.34 17 -16.68 17 -16 17 C-15.67 16.01 -15.34 15.02 -15 14 C-13.35 14 -11.7 14 -10 14 C-8.35173889 11.03312999 -7.55728913 8.34373475 -7 5 C-5.68 5 -4.36 5 -3 5 C-2.87625 4.360625 -2.7525 3.72125 -2.625 3.0625 C-2.41875 2.381875 -2.2125 1.70125 -2 1 C-1.34 0.67 -0.68 0.34 0 0 Z " fill="#F3D19B" transform="translate(442,379)"/>
<path d="M0 0 C2.375 0.1875 2.375 0.1875 5 1 C6.3125 3.5625 6.3125 3.5625 7 6 C7.66 6 8.32 6 9 6 C10.625 7.375 10.625 7.375 12 9 C12 9.66 12 10.32 12 11 C12.66 11 13.32 11 14 11 C14.33 12.65 14.66 14.3 15 16 C15.639375 16.103125 16.27875 16.20625 16.9375 16.3125 C17.618125 16.539375 18.29875 16.76625 19 17 C19.33 17.99 19.66 18.98 20 20 C21.49985609 21.66710346 21.49985609 21.66710346 23 23 C22.67 23.99 22.34 24.98 22 26 C20.99406757 24.8803014 19.9954151 23.7540588 19 22.625 C18.443125 21.99851562 17.88625 21.37203125 17.3125 20.7265625 C16 19 16 19 16 17 C15.34 17 14.68 17 14 17 C12.73828125 15.4609375 12.73828125 15.4609375 11.3125 13.375 C8.70560193 9.74717387 5.94736094 7.04333106 2.41796875 4.32421875 C1 3 1 3 0 0 Z " fill="#F2CD92" transform="translate(391,92)"/>
<path d="M0 0 C7.56485652 11.34728478 5.85149846 27.17856019 3.4375 39.90234375 C3.293125 40.59457031 3.14875 41.28679687 3 42 C2.67 42 2.34 42 2 42 C2.01047363 41.38181396 2.02094727 40.76362793 2.03173828 40.12670898 C2.19639852 28.89750571 2.24924485 17.97280001 0.4375 6.86328125 C0 4 0 4 0 0 Z " fill="#F4D096" transform="translate(426,213)"/>
<path d="M0 0 C-6.35120658 2.52971788 -12.75418998 4.57195661 -19.375 6.25 C-20.39110352 6.51248535 -20.39110352 6.51248535 -21.42773438 6.78027344 C-25.02240469 7.66558124 -28.29697425 8.20016355 -32 8 C-31.34 7.67 -30.68 7.34 -30 7 C-29.67 6.01 -29.34 5.02 -29 4 C-27.906875 4.0825 -26.81375 4.165 -25.6875 4.25 C-20.87017458 4.27566958 -16.99142526 2.69297292 -12.55078125 0.9609375 C-8.0062089 -0.7511066 -4.64198278 -1.29108226 0 0 Z " fill="#F4CB92" transform="translate(326,471)"/>
<path d="M0 0 C1.69155793 2.70649269 2.2150566 5.0661133 2.5625 8.1875 C2.57461534 11.78190939 2.57461534 11.78190939 4 13 C4.08790975 15.29151417 4.10694038 17.58572524 4.09765625 19.87890625 C4.0962413 20.5655687 4.09482635 21.25223114 4.09336853 21.95970154 C4.08775479 24.16067801 4.07520007 26.36155409 4.0625 28.5625 C4.05748676 30.05143083 4.05292355 31.54036324 4.04882812 33.02929688 C4.03778093 36.68623075 4.02050713 40.34310558 4 44 C3.67 44 3.34 44 3 44 C2.9498877 43.23034912 2.89977539 42.46069824 2.84814453 41.66772461 C1.64413922 22.47019518 1.64413922 22.47019518 -0.73046875 3.39453125 C-0.86388672 2.20923828 -0.86388672 2.20923828 -1 1 C-0.67 0.67 -0.34 0.34 0 0 Z " fill="#F3C47E" transform="translate(453,212)"/>
<path d="M0 0 C1.32 0.66 2.64 1.32 4 2 C-6.82322115 14.23873297 -6.82322115 14.23873297 -13 19 C-13.66 19 -14.32 19 -15 19 C-14.67 17.68 -14.34 16.36 -14 15 C-13.34 15.33 -12.68 15.66 -12 16 C-12.33 15.01 -12.66 14.02 -13 13 C-12.67 12.34 -12.34 11.68 -12 11 C-11.34 11 -10.68 11 -10 11 C-9.67 10.34 -9.34 9.68 -9 9 C-7.68 9 -6.36 9 -5 9 C-4.67 7.35 -4.34 5.7 -4 4 C-2.68 4 -1.36 4 0 4 C0 2.68 0 1.36 0 0 Z " fill="#F6C77E" transform="translate(416,407)"/>
<path d="M0 0 C0.66 0.33 1.32 0.66 2 1 C-0.09663099 4.97256398 -2.30075595 7.43898489 -6 10 C-6.66 10 -7.32 10 -8 10 C-8.268125 10.598125 -8.53625 11.19625 -8.8125 11.8125 C-10.79191929 15.4587987 -12.24031579 16.71698039 -16.1875 18.1875 C-17.115625 18.455625 -18.04375 18.72375 -19 19 C-13.37095532 11.92348669 -6.6903009 6.04509384 0 0 Z " fill="#F2D296" transform="translate(90,57)"/>
<path d="M0 0 C-2 2 -2 2 -3.78515625 2.08984375 C-4.53667969 2.03957031 -5.28820312 1.98929688 -6.0625 1.9375 C-11.85937995 1.79363583 -17.27405923 2.81025211 -22.93383789 3.93334961 C-27.02627949 4.72819586 -30.8049647 5.15830322 -35 5 C-34.67 4.34 -34.34 3.68 -34 3 C-31.69 3 -29.38 3 -27 3 C-27 2.34 -27 1.68 -27 1 C-17.670132 -1.10226076 -9.43459553 -0.95377059 0 0 Z " fill="#F4CD94" transform="translate(235,32)"/>
<path d="M0 0 C4.51055622 1.4592976 7.61500339 3.69193513 11 7 C11.875 9.8125 11.875 9.8125 12 12 C13.65 11.67 15.3 11.34 17 11 C17 12.32 17 13.64 17 15 C17.66 15 18.32 15 19 15 C19.33 15.99 19.66 16.98 20 18 C15.40551532 16.55044856 12.32442647 13.92617597 8.875 10.6875 C8.08802734 9.9769043 8.08802734 9.9769043 7.28515625 9.25195312 C4.23026942 6.42521607 1.94423211 3.68063251 0 0 Z " fill="#F4CA8B" transform="translate(300,281)"/>
<path d="M0 0 C0.66 0.66 1.32 1.32 2 2 C1.75765625 2.64324219 1.5153125 3.28648437 1.265625 3.94921875 C-2.50917156 14.126651 -5.83474567 24.35416619 -8 35 C-8.33 35 -8.66 35 -9 35 C-8.67 29.72 -8.34 24.44 -8 19 C-7.34 19 -6.68 19 -6 19 C-5.81824219 18.04738281 -5.63648438 17.09476563 -5.44921875 16.11328125 C-5.19785156 14.85902344 -4.94648437 13.60476562 -4.6875 12.3125 C-4.44386719 11.07113281 -4.20023438 9.82976562 -3.94921875 8.55078125 C-3.05181291 5.19381866 -1.94603209 2.85090976 0 0 Z " fill="#F3CB8E" transform="translate(45,167)"/>
<path d="M0 0 C0.33 0 0.66 0 1 0 C1.309375 1.134375 1.61875 2.26875 1.9375 3.4375 C2.62924531 6.78775099 2.62924531 6.78775099 4 8 C4.29535002 9.35048935 4.53722313 10.71280396 4.75390625 12.078125 C4.88603516 12.90957031 5.01816406 13.74101562 5.15429688 14.59765625 C5.28900391 15.47292969 5.42371094 16.34820312 5.5625 17.25 C5.70107422 18.10980469 5.83964844 18.96960938 5.98242188 19.85546875 C6.62042443 23.93491363 7.19691527 27.85621771 7 32 C3.54607605 26.81911408 2.49688209 21.11264985 1.375 15.0625 C1.2409375 14.38509766 1.106875 13.70769531 0.96875 13.00976562 C0.13983992 8.59877984 -0.12871158 4.48735383 0 0 Z " fill="#F4CE98" transform="translate(5,277)"/>
<path d="M0 0 C0.66 0.66 1.32 1.32 2 2 C3.98356483 2.71408334 5.98315437 3.38617742 8 4 C5.48933531 7.05906926 3.09940067 7.75191278 -0.6875 8.6875 C-2.17830078 9.06455078 -2.17830078 9.06455078 -3.69921875 9.44921875 C-4.45847656 9.63097656 -5.21773438 9.81273437 -6 10 C-6.66 9.34 -7.32 8.68 -8 8 C-7.360625 7.71125 -6.72125 7.4225 -6.0625 7.125 C-3.16241122 5.5431334 -3.04624166 4.13872499 -2 1 C-1.34 0.67 -0.68 0.34 0 0 Z " fill="#779FC6" transform="translate(262,160)"/>
<path d="M0 0 C1.32 0.66 2.64 1.32 4 2 C-3.84071865 6.2254017 -11.00770057 9.98474039 -20 11 C-20.66 9.68 -21.32 8.36 -22 7 C-20.205625 7.0928125 -20.205625 7.0928125 -18.375 7.1875 C-14.22708673 7.20948541 -11.64993647 5.99087444 -8 4 C-6.68 4 -5.36 4 -4 4 C-4 3.34 -4 2.68 -4 2 C-2.68 2 -1.36 2 0 2 C0 1.34 0 0.68 0 0 Z " fill="#F3CC8A" transform="translate(346,459)"/>
<path d="M0 0 C1.32 0 2.64 0 4 0 C4.33 1.65 4.66 3.3 5 5 C6.65 5.33 8.3 5.66 10 6 C10.99 9.63 11.98 13.26 13 17 C7.84577707 12.32898547 3.88634822 6.74755221 0 1 C0 0.67 0 0.34 0 0 Z " fill="#F4C782" transform="translate(44,379)"/>
<path d="M0 0 C0.98484375 0.00902344 1.9696875 0.01804688 2.984375 0.02734375 C4.10585937 0.04474609 4.10585937 0.04474609 5.25 0.0625 C2.72519307 2.58730693 1.11176966 2.61988633 -2.375 3.1875 C-3.37789062 3.35507812 -4.38078125 3.52265625 -5.4140625 3.6953125 C-6.18492187 3.81648438 -6.95578125 3.93765625 -7.75 4.0625 C-7.75 4.7225 -7.75 5.3825 -7.75 6.0625 C-12.7 7.5475 -12.7 7.5475 -17.75 9.0625 C-17.75 8.0725 -17.75 7.0825 -17.75 6.0625 C-16.80125 5.794375 -15.8525 5.52625 -14.875 5.25 C-11.49732727 4.31263412 -11.49732727 4.31263412 -9.75 1.0625 C-6.5569669 -0.17374069 -3.3902154 -0.04035971 0 0 Z " fill="#F4CB89" transform="translate(172.75,42.9375)"/>
<path d="M0 0 C0.66 0.66 1.32 1.32 2 2 C0.88535305 5.79478926 -0.24345392 9.58521868 -1.375 13.375 C-1.85066406 14.99535156 -1.85066406 14.99535156 -2.3359375 16.6484375 C-2.6453125 17.6796875 -2.9546875 18.7109375 -3.2734375 19.7734375 C-3.69761963 21.20308838 -3.69761963 21.20308838 -4.13037109 22.66162109 C-5 25 -5 25 -7 27 C-7.70169187 20.82511154 -5.73744476 16.56786427 -3.24609375 10.95703125 C-1.71996771 7.33547196 -0.81166679 3.83697029 0 0 Z " fill="#F3CE90" transform="translate(476,302)"/>
<path d="M0 0 C2.8875368 0.34805131 3.92884877 0.9274591 6 3.0390625 C13.44171123 12.66096257 13.44171123 12.66096257 16 18 C15.67 18.66 15.34 19.32 15 20 C13 19 13 19 12 16 C11.34 15.67 10.68 15.34 10 15 C9.525625 13.845 9.05125 12.69 8.5625 11.5 C8.046875 10.345 7.53125 9.19 7 8 C6.01 7.67 5.02 7.34 4 7 C2.41034429 4.78298853 1.27672514 2.42137527 0 0 Z " fill="#92AECB" transform="translate(184,190)"/>
<path d="M0 0 C0.33 0 0.66 0 1 0 C0.45596557 10.0932704 -0.53875338 19.99826344 -2 30 C-2.33 30 -2.66 30 -3 30 C-3.85455593 22.42447715 -4.22738978 16.30088872 -2 9 C-1.7851548 7.52455708 -1.59726597 6.04491867 -1.4375 4.5625 C-1 1 -1 1 0 0 Z " fill="#F2CD92" transform="translate(35,202)"/>
<path d="M0 0 C0.825 0.598125 1.65 1.19625 2.5 1.8125 C6.12292799 4.24800901 9.88416763 5.58074746 14 7 C14 7.66 14 8.32 14 9 C15.1446875 9.1546875 15.1446875 9.1546875 16.3125 9.3125 C19.22636046 10.05790616 20.02950397 10.84458939 22 13 C13.11759114 10.4621689 5.17381793 6.22230349 -3 2 C-2.01 1.34 -1.02 0.68 0 0 Z " fill="#7F94A1" transform="translate(145,428)"/>
<path d="M0 0 C0.33 0 0.66 0 1 0 C1.08131463 1.43655854 1.13933559 2.8744483 1.1875 4.3125 C1.23970703 5.51326172 1.23970703 5.51326172 1.29296875 6.73828125 C0.9262248 9.56954456 0.20669907 10.24608473 -2 12 C-3.90112305 12.34057617 -3.90112305 12.34057617 -6.01171875 12.29296875 C-6.76904297 12.28330078 -7.52636719 12.27363281 -8.30664062 12.26367188 C-9.48516602 12.2259668 -9.48516602 12.2259668 -10.6875 12.1875 C-11.88342773 12.16719727 -11.88342773 12.16719727 -13.10351562 12.14648438 C-15.06929967 12.11117089 -17.03473582 12.05736447 -19 12 C-16.15801616 9.15801616 -13.95946334 9.62817088 -10 9.4375 C-5.33554482 9.37027255 -5.33554482 9.37027255 -1 8 C-0.53476937 6.10466658 -0.53476937 6.10466658 -0.375 3.9375 C-0.25125 2.638125 -0.1275 1.33875 0 0 Z " fill="#F3D39E" transform="translate(281,443)"/>
<path d="M0 0 C3.71080883 4.42442592 6.84577733 9.17403931 10 14 C9.67 14.66 9.34 15.32 9 16 C7 14 5 12 3 10 C2.01 10 1.02 10 0 10 C0.66 8.35 1.32 6.7 2 5 C1.34 5 0.68 5 0 5 C0 3.35 0 1.7 0 0 Z " fill="#F4C983" transform="translate(405,319)"/>
<path d="M0 0 C0.12375 0.5775 0.2475 1.155 0.375 1.75 C0.92525678 4.02658672 0.92525678 4.02658672 2.0625 6.0625 C3 8 3 8 3 11 C0.11165997 13.10770759 -1.38462395 14 -5 14 C-4.35600627 12.04106095 -3.70974759 10.08286636 -3.0625 8.125 C-2.52302734 6.48917969 -2.52302734 6.48917969 -1.97265625 4.8203125 C-1 2 -1 2 0 0 Z " fill="#8DA5C3" transform="translate(200,168)"/>
<path d="M0 0 C3.99241538 -0.18147343 6.56125016 -0.0632499 10 2 C10.721875 2.268125 11.44375 2.53625 12.1875 2.8125 C14 4 14 4 14.75 6.625 C14.87375 7.800625 14.87375 7.800625 15 9 C11.32305352 7.62859834 8.04681411 5.96304199 4.6875 3.9375 C3.80449219 3.41027344 2.92148437 2.88304687 2.01171875 2.33984375 C1.34785156 1.89769531 0.68398438 1.45554688 0 1 C0 0.67 0 0.34 0 0 Z " fill="#F4C478" transform="translate(343,57)"/>
<path d="M0 0 C1.0828125 0.2475 1.0828125 0.2475 2.1875 0.5 C4.86427545 0.97587119 7.28949487 1.077443 10 1 C9.67 2.32 9.34 3.64 9 5 C10.32 5.33 11.64 5.66 13 6 C13 6.66 13 7.32 13 8 C13.99 8 14.98 8 16 8 C16.66 9.32 17.32 10.64 18 12 C13.83740241 10.5199653 10.41490692 8.4553071 6.75 6 C5.69296875 5.29875 4.6359375 4.5975 3.546875 3.875 C1 2 1 2 0 0 Z " fill="#7596B0" transform="translate(120,415)"/>
<path d="M0 0 C0.99 0.33 1.98 0.66 3 1 C0.11789703 7.09534117 -2.91383868 12.62961655 -7 18 C-8 16 -8 16 -7.25 12.5 C-6 9 -6 9 -3 7 C-1.66074475 4.69350484 -0.84725588 2.54176763 0 0 Z " fill="#F1CC8B" transform="translate(451,361)"/>
<path d="M0 0 C1.73003446 5.95756226 0.08554599 11.29950762 -2 17 C-2.66 17 -3.32 17 -4 17 C-4.1546875 18.1446875 -4.1546875 18.1446875 -4.3125 19.3125 C-5.05790616 22.22636046 -5.84458939 23.02950397 -8 25 C-7.608125 23.845 -7.21625 22.69 -6.8125 21.5 C-4.43156272 14.36863498 -2.22887522 7.17997354 0 0 Z " fill="#F2CD95" transform="translate(447,300)"/>
<path d="M0 0 C1.19594292 3.99221233 0.68790338 6.14193513 -1 10 C-3.0625 12.25 -3.0625 12.25 -5 14 C-5.33 14.66 -5.66 15.32 -6 16 C-6.66 16 -7.32 16 -8 16 C-6.42986223 10.03347646 -3.24970218 5.17090975 0 0 Z " fill="#F3C684" transform="translate(325,313)"/>
<path d="M0 0 C6.51819877 1.89536276 12.17814801 4.5178994 18 8 C14.28125 9.1171875 14.28125 9.1171875 11.75 8.0625 C11.1725 7.711875 10.595 7.36125 10 7 C10 6.34 10 5.68 10 5 C7.69 5.33 5.38 5.66 3 6 C2.67 5.01 2.34 4.02 2 3 C1.34 2.67 0.68 2.34 0 2 C0 1.34 0 0.68 0 0 Z " fill="#F5CD8D" transform="translate(342,24)"/>
<path d="M0 0 C2.45453691 3.68180536 3.72299097 7.41018617 5.1875 11.5625 C5.47302734 12.34302734 5.75855469 13.12355469 6.05273438 13.92773438 C6.76316564 15.93111596 7.38825059 17.9643151 8 20 C7.67 20.66 7.34 21.32 7 22 C3.47726246 17.48649253 2.54267333 14.71658336 3 9 C2.34 9 1.68 9 1 9 C0.67 6.03 0.34 3.06 0 0 Z " fill="#F2C98C" transform="translate(466,151)"/>
<path d="M0 0 C0.66 0.33 1.32 0.66 2 1 C1.67 1.66 1.34 2.32 1 3 C0.84651357 6.53018797 0.95854754 9.61527952 2 13 C-0.475 12.01 -0.475 12.01 -3 11 C-2.34 12.32 -1.68 13.64 -1 15 C-2.32 14.67 -3.64 14.34 -5 14 C-4.54636829 12.41531323 -4.08688548 10.83230076 -3.625 9.25 C-3.36976562 8.36828125 -3.11453125 7.4865625 -2.8515625 6.578125 C-2.0790066 4.23919428 -1.16374324 2.16557438 0 0 Z " fill="#82A5C8" transform="translate(75,345)"/>
<path d="M0 0 C5.75 4.625 5.75 4.625 8 8 C8 8.99 8 9.98 8 11 C6.68 11 5.36 11 4 11 C4 9.68 4 8.36 4 7 C2.35 6.67 0.7 6.34 -1 6 C-0.67 4.02 -0.34 2.04 0 0 Z " fill="#8BA9C9" transform="translate(285,63)"/>
<path d="M0 0 C12.85421412 5.96583144 12.85421412 5.96583144 17 11 C14.03 10.505 14.03 10.505 11 10 C10.67 9.01 10.34 8.02 10 7 C8.68 7 7.36 7 6 7 C6 6.01 6 5.02 6 4 C4.35 3.67 2.7 3.34 1 3 C0.67 2.01 0.34 1.02 0 0 Z " fill="#8BA9C7" transform="translate(267,52)"/>
<path d="M0 0 C0.79596365 2.69138789 1.04361747 3.83346058 0.3125 6.625 C-1.16625774 9.30084735 -2.17750049 9.96508351 -5 11 C-5 11.66 -5 12.32 -5 13 C-5.99 13.33 -6.98 13.66 -8 14 C-6.6744419 10.37723685 -5.05653045 7.36494652 -2.875 4.1875 C-2.33617187 3.39730469 -1.79734375 2.60710937 -1.2421875 1.79296875 C-0.83226562 1.20128906 -0.42234375 0.60960938 0 0 Z " fill="#F2C984" transform="translate(46,105)"/>
<path d="M0 0 C4.95 0.33 9.9 0.66 15 1 C15 1.66 15 2.32 15 3 C16.11375 2.95875 17.2275 2.9175 18.375 2.875 C22 3 22 3 24 5 C15.62504986 4.61387352 7.99730769 3.54824033 0 1 C0 0.67 0 0.34 0 0 Z " fill="#F3C784" transform="translate(285,36)"/>
<path d="M0 0 C0.99 0.33 1.98 0.66 3 1 C3 2.32 3 3.64 3 5 C2.34 5.66 1.68 6.32 1 7 C0.30251417 8.31747324 -0.36959957 9.64914193 -1 11 C-1.99 10.01 -2.98 9.02 -4 8 C-3.40138258 5.64828869 -2.73075648 3.3140622 -2 1 C-1.34 0.67 -0.68 0.34 0 0 Z " fill="#769FCA" transform="translate(204,166)"/>
<path d="M0 0 C0.66 0.33 1.32 0.66 2 1 C1.67 2.65 1.34 4.3 1 6 C0.67 5.34 0.34 4.68 0 4 C-0.66 4 -1.32 4 -2 4 C-2.33 5.32 -2.66 6.64 -3 8 C-5.31 7.67 -7.62 7.34 -10 7 C-6.81404865 4.36021174 -3.69029454 1.89501612 0 0 Z " fill="#8BABCD" transform="translate(212,54)"/>
<path d="M0 0 C-1.55478653 1.15627814 -3.11919719 2.2996219 -4.6875 3.4375 C-5.55761719 4.07558594 -6.42773438 4.71367187 -7.32421875 5.37109375 C-9.98310742 6.98971649 -11.93887169 7.6083962 -15 8 C-15 8.66 -15 9.32 -15 10 C-15.66 10 -16.32 10 -17 10 C-17.33 8.68 -17.66 7.36 -18 6 C-16.9275 5.87625 -15.855 5.7525 -14.75 5.625 C-11.62136385 5.10356064 -9.66519576 4.59911746 -7 3 C-7 2.34 -7 1.68 -7 1 C-3.375 -1.125 -3.375 -1.125 0 0 Z " fill="#F1CF90" transform="translate(379,444)"/>
<path d="M0 0 C2.64 0 5.28 0 8 0 C7.67 1.32 7.34 2.64 7 4 C8.32 4 9.64 4 11 4 C13.25 6 13.25 6 15 8 C14.67 8.66 14.34 9.32 14 10 C12.4122595 9.09098826 10.82998803 8.17242076 9.25 7.25 C8.36828125 6.73953125 7.4865625 6.2290625 6.578125 5.703125 C4.03462657 4.02287452 2.07097075 2.22580968 0 0 Z " fill="#F3C886" transform="translate(104,440)"/>
<path d="M0 0 C1.32 0 2.64 0 4 0 C4.66 0.66 5.32 1.32 6 2 C6.66 2 7.32 2 8 2 C8.33 3.65 8.66 5.3 9 7 C9.66 7 10.32 7 11 7 C11.33 8.32 11.66 9.64 12 11 C9.5 9.625 9.5 9.625 7 8 C7 7.34 7 6.68 7 6 C6.401875 5.7525 5.80375 5.505 5.1875 5.25 C2.71352479 3.83629988 1.56629745 2.34944617 0 0 Z " fill="#F3CA87" transform="translate(76,417)"/>
<path d="M0 0 C0.99 0 1.98 0 3 0 C3 0.99 3 1.98 3 3 C3.99 2.67 4.98 2.34 6 2 C6.33 3.65 6.66 5.3 7 7 C8.32 7 9.64 7 11 7 C11 8.65 11 10.3 11 12 C2.63371151 4.94975689 2.63371151 4.94975689 0 2 C0 1.34 0 0.68 0 0 Z " fill="#F5C989" transform="translate(65,405)"/>
<path d="M0 0 C0 0.99 0 1.98 0 3 C0.144375 3.78375 0.28875 4.5675 0.4375 5.375 C0 8 0 8 -1.55859375 9.43359375 C-3.33623233 10.69618212 -5.13023301 11.87909377 -7 13 C-7.66 12.67 -8.32 12.34 -9 12 C-6.03 8.04 -3.06 4.08 0 0 Z " fill="#95B0CF" transform="translate(92,318)"/>
<path d="M0 0 C-2.12342658 1.64789866 -4.2486449 3.29338788 -6.375 4.9375 C-6.97828125 5.40607422 -7.5815625 5.87464844 -8.203125 6.35742188 C-12.7734375 9.88671875 -12.7734375 9.88671875 -15 11 C-14.34 9.35 -13.68 7.7 -13 6 C-12.01 6 -11.02 6 -10 6 C-10 5.01 -10 4.02 -10 3 C-9.01 3 -8.02 3 -7 3 C-7.33 2.01 -7.66 1.02 -8 0 C-4.71303767 -0.79953138 -3.28976808 -1.09658936 0 0 Z " fill="#F3CF9A" transform="translate(121,73)"/>
<path d="M0 0 C0 0.99 0 1.98 0 3 C-0.66 3 -1.32 3 -2 3 C-2.061875 3.61875 -2.12375 4.2375 -2.1875 4.875 C-2.455625 5.57625 -2.72375 6.2775 -3 7 C-4.66666667 7.66666667 -6.33333333 8.33333333 -8 9 C-8.88693303 11.04105639 -8.88693303 11.04105639 -9 13 C-9.99 13 -10.98 13 -12 13 C-10.76056233 11.20101037 -9.50803104 9.41103677 -8.25 7.625 C-7.55390625 6.62726563 -6.8578125 5.62953125 -6.140625 4.6015625 C-4.13277624 2.16136674 -2.90956826 1.08781156 0 0 Z " fill="#93AEC9" transform="translate(200,64)"/>
<path d="M0 0 C11.13347921 0.19256018 11.13347921 0.19256018 14.75 3.5625 C15.36875 4.7690625 15.36875 4.7690625 16 6 C10.30860098 4.90301833 5.25432063 3.45946923 0 1 C0 0.67 0 0.34 0 0 Z " fill="#F5CA90" transform="translate(156,468)"/>
<path d="M0 0 C0.33 0.99 0.66 1.98 1 3 C0.01 4.485 0.01 4.485 -1 6 C-1.66 6 -2.32 6 -3 6 C-3.309375 7.093125 -3.61875 8.18625 -3.9375 9.3125 C-4.58337897 11.55407994 -5.2623117 13.7869351 -6 16 C-6.99 16 -7.98 16 -9 16 C-7.51637716 9.73581469 -3.75837844 5.08486495 0 0 Z " fill="#F1CD8E" transform="translate(301,192)"/>
<path d="M0 0 C0.66 0 1.32 0 2 0 C0.1668733 5.99932374 -2.07321751 11.44920563 -5 17 C-5.93423645 13.98968256 -6.04449911 13.13349732 -5 10 C-4.34 10 -3.68 10 -3 10 C-3 7.69 -3 5.38 -3 3 C-2.01 3 -1.02 3 0 3 C0 2.01 0 1.02 0 0 Z " fill="#F5CC94" transform="translate(52,150)"/>
<path d="M0 0 C1.65 0 3.3 0 5 0 C4.67 0.66 4.34 1.32 4 2 C3.34 2 2.68 2 2 2 C1.773125 2.70125 1.54625 3.4025 1.3125 4.125 C-0.31656867 7.69343613 -2.40640731 10.06514511 -5 13 C-5.33 12.34 -5.66 11.68 -6 11 C-5.0625 8.375 -5.0625 8.375 -4 6 C-3.01 6 -2.02 6 -1 6 C-0.67 4.02 -0.34 2.04 0 0 Z " fill="#F7CB93" transform="translate(80,105)"/>
<path d="M0 0 C0.33 0.66 0.66 1.32 1 2 C-0.3125 4.625 -0.3125 4.625 -2 7 C-2.66 7 -3.32 7 -4 7 C-4.33 7.99 -4.66 8.98 -5 10 C-6.29355827 11.37195574 -7.62298702 12.71182656 -9 14 C-9.66 13.67 -10.32 13.34 -11 13 C-9.73147606 11.39400651 -8.460089 9.79027425 -7.1875 8.1875 C-6.47980469 7.29417969 -5.77210937 6.40085937 -5.04296875 5.48046875 C-3.43588623 3.52923089 -1.82959577 1.73725024 0 0 Z " fill="#F3CD95" transform="translate(63,84)"/>
<path d="M0 0 C0.33 0.99 0.66 1.98 1 3 C2.62332967 4.38576923 4.28724465 5.72641268 6 7 C5.67 7.66 5.34 8.32 5 9 C0.71522208 6.69281189 -2.72291137 4.67033927 -6 1 C-3.92446352 0.4465236 -2.15634036 0 0 0 Z " fill="#F3CD89" transform="translate(364,65)"/>
<path d="M0 0 C1.98 1.65 3.96 3.3 6 5 C5.67 5.66 5.34 6.32 5 7 C4.34 7 3.68 7 3 7 C2.67 7.99 2.34 8.98 2 10 C1.01 9.67 0.02 9.34 -1 9 C-0.67 6.03 -0.34 3.06 0 0 Z " fill="#F7C579" transform="translate(402,62)"/>
<path d="M0 0 C2.375 0.1875 2.375 0.1875 5 1 C6.3125 3.5625 6.3125 3.5625 7 6 C6.525625 6.45375 6.05125 6.9075 5.5625 7.375 C3.90972192 8.93258204 3.90972192 8.93258204 3 11 C2.01 11 1.02 11 0 11 C0.309375 10.236875 0.61875 9.47375 0.9375 8.6875 C1.67893593 6.81210323 2.36228217 4.91315348 3 3 C2.01 2.01 1.02 1.02 0 0 Z " fill="#F4CB8E" transform="translate(326,302)"/>
<path d="M0 0 C3.8718004 3.38384748 4.34388063 7.05270914 5 12 C5.14389925 15.34217607 5.1255989 18.65767383 5 22 C4.67 22 4.34 22 4 22 C3.32810344 19.08444885 2.66230692 16.16773049 2 13.25 C1.80921875 12.425 1.6184375 11.6 1.421875 10.75 C1.24140625 9.95078125 1.0609375 9.1515625 0.875 8.328125 C0.70742188 7.5949707 0.53984375 6.86181641 0.3671875 6.10644531 C0 4 0 4 0 0 Z " fill="#F4CE96" transform="translate(448,189)"/>
<path d="M0 0 C0.33 0.66 0.66 1.32 1 2 C2.32 2.33 3.64 2.66 5 3 C1.7 3.33 -1.6 3.66 -5 4 C-5 4.99 -5 5.98 -5 7 C-6.32 7.33 -7.64 7.66 -9 8 C-9.33 6.68 -9.66 5.36 -10 4 C-6.7 2.68 -3.4 1.36 0 0 Z " fill="#8BAACA" transform="translate(112,172)"/>
<path d="M0 0 C0.66 0 1.32 0 2 0 C2 0.66 2 1.32 2 2 C2.99 2.33 3.98 2.66 5 3 C3.5903653 3.70180531 2.17192359 4.38593958 0.75 5.0625 C-0.03890625 5.44535156 -0.8278125 5.82820313 -1.640625 6.22265625 C-4.25993522 7.08564091 -5.44855176 6.93045933 -8 6 C-2.25 2 -2.25 2 0 2 C0 1.34 0 0.68 0 0 Z " fill="#F5CC85" transform="translate(113,40)"/>
<path d="M0 0 C1.32 0.66 2.64 1.32 4 2 C0.7 5.63 -2.6 9.26 -6 13 C-6.66 12.67 -7.32 12.34 -8 12 C-7.525625 11.608125 -7.05125 11.21625 -6.5625 10.8125 C-4.64820367 8.59191626 -4.38733012 6.86624291 -4 4 C-2.68 4 -1.36 4 0 4 C0 2.68 0 1.36 0 0 Z " fill="#F3CD91" transform="translate(416,407)"/>
<path d="M0 0 C0.99 0.495 0.99 0.495 2 1 C2 1.66 2 2.32 2 3 C2.66 3 3.32 3 4 3 C5.2890625 4.53125 5.2890625 4.53125 6.625 6.5 C7.07101562 7.1496875 7.51703125 7.799375 7.9765625 8.46875 C8.48316406 9.22671875 8.48316406 9.22671875 9 10 C8.67 10.66 8.34 11.32 8 12 C4.20628173 10.73542724 3.20037005 9.30055507 1 6 C0.25 2.6875 0.25 2.6875 0 0 Z " fill="#F4CA8C" transform="translate(410,187)"/>
<path d="M0 0 C0.33 0 0.66 0 1 0 C1.33 2.31 1.66 4.62 2 7 C1.01 7 0.02 7 -1 7 C-1.268125 8.11375 -1.53625 9.2275 -1.8125 10.375 C-3 14 -3 14 -6 16 C-5.37183502 12.05050296 -4.1354471 8.80107972 -2.4375 5.1875 C-1.98246094 4.21167969 -1.52742188 3.23585937 -1.05859375 2.23046875 C-0.70925781 1.49441406 -0.35992187 0.75835937 0 0 Z " fill="#F5CF95" transform="translate(27,136)"/>
<path d="M0 0 C0 0.33 0 0.66 0 1 C-5.61 1 -11.22 1 -17 1 C-17 0.34 -17 -0.32 -17 -1 C-11.66183851 -3.66908074 -5.41568989 -1.52019365 0 0 Z " fill="#96B0CA" transform="translate(254,48)"/>
<path d="M0 0 C2.39591038 -0.02712351 4.79150957 -0.0468982 7.1875 -0.0625 C7.86103516 -0.07087891 8.53457031 -0.07925781 9.22851562 -0.08789062 C12.95434131 -0.10606538 16.3788042 0.10700608 20 1 C20 1.66 20 2.32 20 3 C13.84765625 3.09765625 13.84765625 3.09765625 12 3 C11.67 2.67 11.34 2.34 11 2 C9.15108054 1.76636119 7.29511969 1.58696365 5.4375 1.4375 C4.42558594 1.35371094 3.41367188 1.26992188 2.37109375 1.18359375 C1.19740234 1.09271484 1.19740234 1.09271484 0 1 C0 0.67 0 0.34 0 0 Z " fill="#F6D2A0" transform="translate(200,481)"/>
<path d="M0 0 C2.18742014 3.2811302 2.54442806 5.33084356 3.125 9.1875 C3.29257813 10.27417969 3.46015625 11.36085938 3.6328125 12.48046875 C3.75398437 13.31191406 3.87515625 14.14335937 4 15 C3.34 15 2.68 15 2 15 C-0.01890086 10.12098958 -1.52405359 6.37154932 -1 1 C-0.67 0.67 -0.34 0.34 0 0 Z " fill="#8FACCC" transform="translate(204,408)"/>
<path d="M0 0 C0.99 0.33 1.98 0.66 3 1 C1.23268551 2.3172344 -0.53897761 3.62863588 -2.3125 4.9375 C-3.29863281 5.66839844 -4.28476562 6.39929688 -5.30078125 7.15234375 C-8 9 -8 9 -11 10 C-11 9.01 -11 8.02 -11 7 C-8.0936485 4.19744677 -7.21174952 4 -3 4 C-2.67 3.01 -2.34 2.02 -2 1 C-1.34 0.67 -0.68 0.34 0 0 Z " fill="#99B5CC" transform="translate(283,155)"/>
<path d="M0 0 C0.66 0.33 1.32 0.66 2 1 C1.06811119 2.6074328 0.12925565 4.21082799 -0.8125 5.8125 C-1.59560547 7.15248047 -1.59560547 7.15248047 -2.39453125 8.51953125 C-3.78532199 10.66831987 -5.1122066 12.29361617 -7 14 C-6.125 8.25 -6.125 8.25 -5 6 C-4.34 6 -3.68 6 -3 6 C-3 5.01 -3 4.02 -3 3 C-1.5 1.3125 -1.5 1.3125 0 0 Z " fill="#9BB3CB" transform="translate(199,273)"/>
<path d="M0 0 C1.16306443 3.54950034 0.92365049 6.55823948 0.5625 10.25 C0.40974609 11.86648438 0.40974609 11.86648438 0.25390625 13.515625 C0.17011719 14.33546875 0.08632813 15.1553125 0 16 C-0.66 16 -1.32 16 -2 16 C-2.33 16.66 -2.66 17.32 -3 18 C-2.51679152 11.7945858 -1.66681876 6.00054754 0 0 Z " fill="#F5C588" transform="translate(455,262)"/>
<path d="M0 0 C1.18414294 3.55242882 0.69535532 4.69830562 -0.4375 8.1875 C-0.72496094 9.08855469 -1.01242188 9.98960937 -1.30859375 10.91796875 C-1.53675781 11.60503906 -1.76492187 12.29210937 -2 13 C-2.66 13 -3.32 13 -4 13 C-4 14.32 -4 15.64 -4 17 C-4.66 17 -5.32 17 -6 17 C-5.57664615 10.50857435 -3.08900201 5.66507011 0 0 Z " fill="#93ACCB" transform="translate(71,207)"/>
<path d="M0 0 C4.33304076 0.64465202 7.86672065 2.18925122 11.8125 4.0625 C12.97394531 4.61035156 14.13539063 5.15820312 15.33203125 5.72265625 C16.21246094 6.14417969 17.09289062 6.56570312 18 7 C13.94079348 8.35306884 11.58134551 6.84599602 7.875 5.1875 C6.90626953 4.77661133 6.90626953 4.77661133 5.91796875 4.35742188 C1.13292254 2.26584507 1.13292254 2.26584507 0 0 Z " fill="#F1D09E" transform="translate(378,168)"/>
<path d="M0 0 C0 0.66 0 1.32 0 2 C-1.74122549 3.03572896 -3.49336595 4.0531252 -5.25 5.0625 C-6.71179688 5.91521484 -6.71179688 5.91521484 -8.203125 6.78515625 C-11 8 -11 8 -13.359375 7.68359375 C-13.90078125 7.45800781 -14.4421875 7.23242188 -15 7 C-12.87767021 5.82823482 -10.75242209 4.66245215 -8.625 3.5 C-7.72007812 2.99919922 -7.72007812 2.99919922 -6.796875 2.48828125 C-2.2265625 0 -2.2265625 0 0 0 Z " fill="#F1CD93" transform="translate(137,28)"/>
<path d="M0 0 C0 0.99 0 1.98 0 3 C-0.78375 3.2475 -1.5675 3.495 -2.375 3.75 C-5.32317108 5.15389099 -5.9024777 6.00675737 -7 9 C-7.33 8.34 -7.66 7.68 -8 7 C-9.65 7 -11.3 7 -13 7 C-9.17058011 3.67006966 -4.62477778 1.94675475 0 0 Z " fill="#F7D195" transform="translate(337,167)"/>
<path d="M0 0 C0.99 0 1.98 0 3 0 C3.53341184 1.57914015 4.05125763 3.16354387 4.5625 4.75 C4.85253906 5.63171875 5.14257812 6.5134375 5.44140625 7.421875 C6.01697435 10.07834316 5.89248371 11.47031106 5 14 C2.92373687 9.37559575 1.29977048 4.8991349 0 0 Z " fill="#F4CA91" transform="translate(438,160)"/>
<path d="M0 0 C2.475 0.495 2.475 0.495 5 1 C4.67 2.32 4.34 3.64 4 5 C4.66 5 5.32 5 6 5 C6.66 6.65 7.32 8.3 8 10 C7.01 10 6.02 10 5 10 C3.61328125 8.3203125 3.61328125 8.3203125 2.3125 6.125 C1.87550781 5.40570313 1.43851562 4.68640625 0.98828125 3.9453125 C0 2 0 2 0 0 Z " fill="#F2C986" transform="translate(418,124)"/>
<path d="M0 0 C2.00461299 0.65266469 4.00379834 1.32204472 6 2 C7.3921875 2.4021875 7.3921875 2.4021875 8.8125 2.8125 C11 4 11 4 11.8125 6.625 C11.874375 7.40875 11.93625 8.1925 12 9 C8.98472262 7.59422879 6.4052059 5.93873852 3.75 3.9375 C3.04359375 3.41027344 2.3371875 2.88304687 1.609375 2.33984375 C1.07828125 1.89769531 0.5471875 1.45554687 0 1 C0 0.67 0 0.34 0 0 Z " fill="#F3CC8D" transform="translate(92,431)"/>
<path d="M0 0 C4.30764815 1.56641751 8.06171464 3.68336156 12 6 C9.44937462 6.94467607 8.11309027 7.02758299 5.4375 6.375 C2.47877886 4.70597782 1.50020878 3.00041757 0 0 Z " fill="#EBBE76" transform="translate(131,424)"/>
<path d="M0 0 C4.13621084 3.3810038 7.81316569 6.66590534 11 11 C8.78345373 9.97088923 6.89130823 8.91765775 4.9375 7.4375 C2.95818504 5.81311272 2.95818504 5.81311272 0 5 C0 3.35 0 1.7 0 0 Z " fill="#EAC077" transform="translate(87,387)"/>
<path d="M0 0 C3.33333333 3.33333333 6.66666667 6.66666667 10 10 C9.67 10.66 9.34 11.32 9 12 C8.5875 11.525625 8.175 11.05125 7.75 10.5625 C5.86673565 8.63715751 5.86673565 8.63715751 2 8 C1.34 5.36 0.68 2.72 0 0 Z " fill="#E5C27F" transform="translate(75,373)"/>
<path d="M0 0 C0.66 0.33 1.32 0.66 2 1 C1.33501617 5.38889325 -0.18757677 8.9811485 -2 13 C-2.33 13 -2.66 13 -3 13 C-3.125 5.25 -3.125 5.25 -2 3 C-1.34 3 -0.68 3 0 3 C0 2.01 0 1.02 0 0 Z " fill="#F3CC8E" transform="translate(467,328)"/>
<path d="M0 0 C0.33 0 0.66 0 1 0 C1.5497272 5.63470383 -0.04952165 8.38987758 -3 13 C-3.66 13 -4.32 13 -5 13 C-4.54554036 11.58208592 -4.08625056 10.16571954 -3.625 8.75 C-3.24214844 7.56664062 -3.24214844 7.56664062 -2.8515625 6.359375 C-2.04826333 4.13372042 -1.10288338 2.09068328 0 0 Z " fill="#EFCA87" transform="translate(437,328)"/>
<path d="M0 0 C3.59905908 0.55550695 4.99909799 1.74887248 7.25 4.5625 C8.03117187 5.52349609 8.03117187 5.52349609 8.828125 6.50390625 C9.21484375 6.99761719 9.6015625 7.49132812 10 8 C9.67 8.66 9.34 9.32 9 10 C6 8.1875 6 8.1875 3 6 C3 5.01 3 4.02 3 3 C2.01 2.67 1.02 2.34 0 2 C0 1.34 0 0.68 0 0 Z " fill="#F5D099" transform="translate(388,301)"/>
<path d="M0 0 C1.23731042 4.19935658 1.01551734 7.76433792 0 12 C-1.5625 14.5 -1.5625 14.5 -3 16 C-3.37851209 10.06997733 -2.10575375 5.52760359 0 0 Z " fill="#F3C985" transform="translate(291,208)"/>
<path d="M0 0 C0.33 0 0.66 0 1 0 C1.36517527 6.57315478 0.13619737 11.79485526 -2 18 C-2.33 18 -2.66 18 -3 18 C-2.57045059 11.74892565 -1.98598493 5.95795479 0 0 Z " fill="#F1CC96" transform="translate(12,174)"/>
<path d="M0 0 C0.33 0 0.66 0 1 0 C1 2.64 1 5.28 1 8 C0.34 8 -0.32 8 -1 8 C-1 9.65 -1 11.3 -1 13 C-1.99 13 -2.98 13 -4 13 C-3.52140759 11.39566191 -3.04210442 9.79153584 -2.5625 8.1875 C-2.29566406 7.29417969 -2.02882813 6.40085938 -1.75390625 5.48046875 C-1.19612127 3.64526945 -0.60655425 1.81966274 0 0 Z " fill="#F5CC93" transform="translate(20,152)"/>
<path d="M0 0 C3.7910119 1.44950455 7.3874638 3.15172566 11 5 C10.01 6.485 10.01 6.485 9 8 C9 7.34 9 6.68 9 6 C8.2575 6.0825 7.515 6.165 6.75 6.25 C4 6 4 6 1.6875 4.125 C0 2 0 2 0 0 Z " fill="#F6D095" transform="translate(360,33)"/>
<path d="M0 0 C0.66 0.33 1.32 0.66 2 1 C2 1.99 2 2.98 2 4 C-0.40545638 5.20272819 -1.94996953 5.10071472 -4.625 5.0625 C-5.85089844 5.04896484 -5.85089844 5.04896484 -7.1015625 5.03515625 C-8.04128906 5.01775391 -8.04128906 5.01775391 -9 5 C-6.06626269 3.04417512 -3.21783702 1.43775696 0 0 Z " fill="#F4CC86" transform="translate(150,21)"/>
<path d="M0 0 C-0.66 0 -1.32 0 -2 0 C-2.33 0.99 -2.66 1.98 -3 3 C-8.94 3.495 -8.94 3.495 -15 4 C-12.60939149 2.40626099 -10.69171821 1.34702924 -8.0625 0.3125 C-7.39347656 0.04050781 -6.72445312 -0.23148438 -6.03515625 -0.51171875 C-3.67169662 -1.0787676 -2.2807201 -0.76024003 0 0 Z " fill="#F4CF93" transform="translate(167,17)"/>
<path d="M0 0 C0.33 0.99 0.66 1.98 1 3 C1.66 3 2.32 3 3 3 C2.8125 4.8125 2.8125 4.8125 2 7 C-0.5625 8.75 -0.5625 8.75 -3 10 C-2.01 6.7 -1.02 3.4 0 0 Z " fill="#F4C87A" transform="translate(307,348)"/>
<path d="M0 0 C0.33 0 0.66 0 1 0 C1.25 7.625 1.25 7.625 -1 11 C-1.99 11 -2.98 11 -4 11 C-2.7874262 7.27566618 -1.49140021 3.62197194 0 0 Z " fill="#F5D091" transform="translate(314,332)"/>
<path d="M0 0 C0.33 0 0.66 0 1 0 C1.02696365 1.79158489 1.04637917 3.58328473 1.0625 5.375 C1.07410156 6.37273437 1.08570313 7.37046875 1.09765625 8.3984375 C1 11 1 11 0 13 C-0.66 13 -1.32 13 -2 13 C-1.85915204 11.20793453 -1.71216299 9.41635083 -1.5625 7.625 C-1.48128906 6.62726563 -1.40007813 5.62953125 -1.31640625 4.6015625 C-1 2 -1 2 0 0 Z " fill="#F5C78B" transform="translate(8,192)"/>
<path d="M0 0 C7.42857143 -0.28571429 7.42857143 -0.28571429 11 2 C11 2.33 11 2.66 11 3 C3.51003542 4.35064935 3.51003542 4.35064935 1 2.625 C0 1 0 1 0 0 Z " fill="#8CA8C6" transform="translate(147,171)"/>
<path d="M0 0 C2.97 0.495 2.97 0.495 6 1 C6 1.99 6 2.98 6 4 C5.34 4 4.68 4 4 4 C4 4.66 4 5.32 4 6 C2.02 5.34 0.04 4.68 -2 4 C-1.34 2.68 -0.68 1.36 0 0 Z " fill="#7FA6CC" transform="translate(222,161)"/>
<path d="M0 0 C2.33364352 2.92903058 4.04960836 5.88568203 5.6875 9.25 C6.12449219 10.14203125 6.56148437 11.0340625 7.01171875 11.953125 C7.33785156 12.62859375 7.66398438 13.3040625 8 14 C7.34 14 6.68 14 6 14 C5.67 12.68 5.34 11.36 5 10 C4.34 10 3.68 10 3 10 C2.67 8.35 2.34 6.7 2 5 C1.01 4.67 0.02 4.34 -1 4 C-0.67 2.68 -0.34 1.36 0 0 Z " fill="#99B2CA" transform="translate(170,321)"/>
<path d="M0 0 C0.33 0.66 0.66 1.32 1 2 C0.27683594 2.61488281 0.27683594 2.61488281 -0.4609375 3.2421875 C-1.09257813 3.78101563 -1.72421875 4.31984375 -2.375 4.875 C-3.00148438 5.40867188 -3.62796875 5.94234375 -4.2734375 6.4921875 C-5.55836651 7.61432007 -6.79371975 8.79371975 -8 10 C-8.33 8.68 -8.66 7.36 -9 6 C-8.34 6 -7.68 6 -7 6 C-7 5.34 -7 4.68 -7 4 C-4.69 2.68 -2.38 1.36 0 0 Z " fill="#94B1CD" transform="translate(98,179)"/>
<path d="M0 0 C0.66 0.33 1.32 0.66 2 1 C0.6875 3 0.6875 3 -1 5 C-1.99 5 -2.98 5 -4 5 C-4.33 5.99 -4.66 6.98 -5 8 C-5.99 8 -6.98 8 -8 8 C-8 7.34 -8 6.68 -8 6 C-6.25 4.4921875 -6.25 4.4921875 -4 2.875 C-3.2575 2.33617187 -2.515 1.79734375 -1.75 1.2421875 C-1.1725 0.83226562 -0.595 0.42234375 0 0 Z " fill="#F3CE92" transform="translate(318,176)"/>
<path d="M0 0 C2.31 0 4.62 0 7 0 C6.67 1.32 6.34 2.64 6 4 C7.32 4.33 8.64 4.66 10 5 C9.67 5.66 9.34 6.32 9 7 C8.34 7 7.68 7 7 7 C7 6.34 7 5.68 7 5 C6.401875 4.731875 5.80375 4.46375 5.1875 4.1875 C3.02775192 3.01506533 1.64209744 1.80630718 0 0 Z " fill="#F4CA84" transform="translate(372,76)"/>
<path d="M0 0 C2.31 0 4.62 0 7 0 C6.979375 0.78375 6.95875 1.5675 6.9375 2.375 C6.81315937 4.98114961 6.81315937 4.98114961 8 7 C4.2047869 5.50902342 2.38957269 3.24299151 0 0 Z " fill="#7A94A9" transform="translate(97,396)"/>
<path d="M0 0 C0.33 0 0.66 0 1 0 C1.35233161 5.37305699 1.35233161 5.37305699 1 8 C-1 10 -1 10 -3 11 C-2.34 9.02 -1.68 7.04 -1 5 C-1.66 5 -2.32 5 -3 5 C-3 4.34 -3 3.68 -3 3 C-2.34 3 -1.68 3 -1 3 C-0.67 2.01 -0.34 1.02 0 0 Z " fill="#F5C57A" transform="translate(427,393)"/>
<path d="M0 0 C3.68006822 3.38168431 5.9785845 6.42521756 8 11 C7.34 11 6.68 11 6 11 C6 10.34 6 9.68 6 9 C5.38125 8.814375 4.7625 8.62875 4.125 8.4375 C0.94397134 6.28562767 0.80548053 3.62466237 0 0 Z " fill="#92AFCA" transform="translate(162,310)"/>
<path d="M0 0 C-3.42388092 3.82669043 -6.00724943 5.72278474 -11 7 C-3.96875 -1.984375 -3.96875 -1.984375 0 0 Z " fill="#F4CE85" transform="translate(82,69)"/>
<path d="M0 0 C5.27315333 0.4452885 10.01770224 1.08373163 15 3 C12.01786685 3.99404438 10.55541462 4.05554146 7.5 3.75 C6.7265625 3.68296875 5.953125 3.6159375 5.15625 3.546875 C2.63215042 2.90670482 1.65141376 1.96899333 0 0 Z " fill="#F5D79D" transform="translate(293,8)"/>
<path d="M0 0 C2.34914492 2.34914492 2.73140357 3.95679446 3.625 7.125 C3.88539063 8.03507812 4.14578125 8.94515625 4.4140625 9.8828125 C4.70410156 10.93082031 4.70410156 10.93082031 5 12 C3.5 10.625 3.5 10.625 2 9 C2 8.34 2 7.68 2 7 C1.34 7 0.68 7 0 7 C0 4.69 0 2.38 0 0 Z " fill="#F4CD92" transform="translate(417,339)"/>
<path d="M0 0 C0.99 0 1.98 0 3 0 C3.33 3.96 3.66 7.92 4 12 C2.09681116 9.14521674 1.5380901 7.58058692 0.875 4.3125 C0.70742187 3.50425781 0.53984375 2.69601562 0.3671875 1.86328125 C0.24601562 1.24839844 0.12484375 0.63351563 0 0 Z " fill="#8EABC7" transform="translate(64,255)"/>
<path d="M0 0 C-1.24853673 0.79397239 -2.49890043 1.58507217 -3.75 2.375 C-4.44609375 2.81585938 -5.1421875 3.25671875 -5.859375 3.7109375 C-7.86517383 4.91880906 -9.89178296 5.98387737 -12 7 C-11.34 5.68 -10.68 4.36 -10 3 C-9.34 3 -8.68 3 -8 3 C-8 2.34 -8 1.68 -8 1 C-4.85571151 -0.9090323 -3.47925125 -1.04523725 0 0 Z " fill="#F0D19E" transform="translate(136,63)"/>
<path d="M0 0 C2.64 0.33 5.28 0.66 8 1 C8 1.66 8 2.32 8 3 C8.99 3.33 9.98 3.66 11 4 C9.4375 4.75 9.4375 4.75 7 5 C4.49713591 3.86915563 2.32992278 2.47860484 0 1 C0 0.67 0 0.34 0 0 Z " fill="#F6D19B" transform="translate(333,52)"/>
<path d="M0 0 C2.97 1.65 5.94 3.3 9 5 C8.67 5.66 8.34 6.32 8 7 C4.84859577 6.65930765 3.39218439 6.41923159 1.1875 4.0625 C0 2 0 2 0 0 Z " fill="#F6D290" transform="translate(371,39)"/>
<path d="M0 0 C2.97 0.495 2.97 0.495 6 1 C6 1.66 6 2.32 6 3 C6.99 3 7.98 3 9 3 C9.66 4.32 10.32 5.64 11 7 C6.89188572 5.55007731 3.53144334 3.54592427 0 1 C0 0.67 0 0.34 0 0 Z " fill="#8294A0" transform="translate(127,420)"/>
<path d="M0 0 C2.40072955 2.88087546 4.47291037 5.56404834 6 9 C4.35 8.67 2.7 8.34 1 8 C0.67 5.36 0.34 2.72 0 0 Z " fill="#EBBD78" transform="translate(69,364)"/>
<path d="M0 0 C0.99 0 1.98 0 3 0 C2.44894091 3.9492568 1.61064629 7.34920174 0 11 C-0.33 11 -0.66 11 -1 11 C-0.67 7.37 -0.34 3.74 0 0 Z " fill="#F4CC90" transform="translate(425,256)"/>
<path d="M0 0 C0.99 0.33 1.98 0.66 3 1 C1.60667426 4.36720387 0.0210714 5.9859524 -3 8 C-3 6.35 -3 4.7 -3 3 C-2.01 3 -1.02 3 0 3 C0 2.01 0 1.02 0 0 Z " fill="#98B2CA" transform="translate(207,168)"/>
<path d="M0 0 C0 4.01474237 -1.66781767 5.81975137 -4 9 C-4.33 9 -4.66 9 -5 9 C-5.20086443 5.28400809 -5.1519437 4.22791555 -3 1 C-2.01 0.67 -1.02 0.34 0 0 Z " fill="#96B4CD" transform="translate(300,136)"/>
<path d="M0 0 C0.66 0 1.32 0 2 0 C2 4.29 2 8.58 2 13 C1.34 12.67 0.68 12.34 0 12 C-0.44921875 9.78515625 -0.44921875 9.78515625 -0.6875 7.0625 C-0.81705078 5.71865234 -0.81705078 5.71865234 -0.94921875 4.34765625 C-1 2 -1 2 0 0 Z " fill="#85A6C3" transform="translate(181,103)"/>
<path d="M0 0 C3.36591866 1.44253657 5.51047079 3.33264727 8 6 C5.69 6 3.38 6 1 6 C0.67 4.02 0.34 2.04 0 0 Z " fill="#F7CF96" transform="translate(394,56)"/>
<path d="M0 0 C0.66 0.99 1.32 1.98 2 3 C-1.50776784 4.60355101 -4.14354879 5.22036864 -8 5 C-5.31158141 2.74754119 -3.35358125 1.11786042 0 0 Z " fill="#92ACCB" transform="translate(222,49)"/>
<path d="M0 0 C4 0 4 0 5.75 1.1875 C7.38540232 3.55883336 7.22858693 5.18076123 7 8 C4.35247996 5.42215154 2.05567935 3.08351902 0 0 Z " fill="#F3CE8F" transform="translate(57,397)"/>
<path d="M0 0 C1.25 1.5625 1.25 1.5625 2 4 C0.93237266 6.57001015 -0.46544943 8.6530403 -2 11 C-3.09658936 7.71023192 -2.79953138 6.28696233 -2 3 C-1.34 3 -0.68 3 0 3 C0 2.01 0 1.02 0 0 Z " fill="#F3CB8B" transform="translate(457,350)"/>
<path d="M0 0 C0.66 0 1.32 0 2 0 C5.22265625 5.2734375 5.22265625 5.2734375 6 7 C5.67 7.66 5.34 8.32 5 9 C3 8 3 8 2 5 C1.34 4.67 0.68 4.34 0 4 C0 2.68 0 1.36 0 0 Z " fill="#89A6C2" transform="translate(194,201)"/>
<path d="M0 0 C3.53600465 1.91135386 5.78972846 3.62642766 8 7 C5.03 6.505 5.03 6.505 2 6 C2 4.68 2 3.36 2 2 C1.34 2 0.68 2 0 2 C0 1.34 0 0.68 0 0 Z " fill="#F5D09E" transform="translate(402,180)"/>
<path d="M0 0 C1.48280196 0.78483659 2.9611498 1.57809334 4.4375 2.375 C5.67306641 3.03628906 5.67306641 3.03628906 6.93359375 3.7109375 C9 5 9 5 10 7 C8.35 6.67 6.7 6.34 5 6 C5 5.34 5 4.68 5 4 C4.360625 3.896875 3.72125 3.79375 3.0625 3.6875 C2.381875 3.460625 1.70125 3.23375 1 3 C0.67 2.01 0.34 1.02 0 0 Z " fill="#98B3CB" transform="translate(170,178)"/>
<path d="M0 0 C3.34373475 0.55728913 6.03312999 1.35173889 9 3 C9 3.99 9 4.98 9 6 C7.0625 5.625 7.0625 5.625 5 5 C4.67 4.34 4.34 3.68 4 3 C1.97536745 2.34786708 1.97536745 2.34786708 0 2 C0 1.34 0 0.68 0 0 Z " fill="#8DAAC7" transform="translate(160,174)"/>
<path d="M0 0 C0.33 1.32 0.66 2.64 1 4 C0.34 4 -0.32 4 -1 4 C-1.144375 4.61875 -1.28875 5.2375 -1.4375 5.875 C-2 8 -2 8 -3 10 C-3.66 10 -4.32 10 -5 10 C-3.84414715 6.08788267 -2.64465038 3.1254959 0 0 Z " fill="#F4D29A" transform="translate(37,119)"/>
<path d="M0 0 C2.31 0.33 4.62 0.66 7 1 C7 1.66 7 2.32 7 3 C7.66 3 8.32 3 9 3 C9.33 3.99 9.66 4.98 10 6 C6.00499382 4.6302836 3.19990508 2.74277578 0 0 Z " fill="#F3CB94" transform="translate(348,60)"/>
<path d="M0 0 C0.66 0.33 1.32 0.66 2 1 C2.59355614 3.64860427 2.74209269 6.29197322 3 9 C0 7 0 7 -1 4 C-0.5625 1.8125 -0.5625 1.8125 0 0 Z " fill="#86A5C9" transform="translate(195,379)"/>
<path d="M0 0 C0.66 0.33 1.32 0.66 2 1 C1.7452486 2.31571603 1.47065859 3.62760376 1.1875 4.9375 C1.03667969 5.66839844 0.88585937 6.39929688 0.73046875 7.15234375 C0.48941406 7.76207031 0.24835938 8.37179687 0 9 C-0.99 9.33 -1.98 9.66 -3 10 C-2.01 6.7 -1.02 3.4 0 0 Z " fill="#F5CD95" transform="translate(301,363)"/>
<path d="M0 0 C1.48828125 1.26953125 1.48828125 1.26953125 3 3 C3.1875 6.6875 3.1875 6.6875 3 10 C2.34 9.67 1.68 9.34 1 9 C0.5859375 6.93359375 0.5859375 6.93359375 0.375 4.4375 C0.30023438 3.61121094 0.22546875 2.78492188 0.1484375 1.93359375 C0.09945313 1.29550781 0.05046875 0.65742188 0 0 Z " fill="#F2C481" transform="translate(12,307)"/>
<path d="M0 0 C0.99 0 1.98 0 3 0 C1.8141763 3.37503669 0.72426311 5.64722731 -2 8 C-2 6.02 -2 4.04 -2 2 C-1.34 2 -0.68 2 0 2 C0 1.34 0 0.68 0 0 Z " fill="#F4CB90" transform="translate(419,272)"/>
<path d="M0 0 C2.375 0.25 2.375 0.25 5 1 C6.3125 3.0625 6.3125 3.0625 7 5 C4.625 4.75 4.625 4.75 2 4 C0.6875 1.9375 0.6875 1.9375 0 0 Z " fill="#F6C789" transform="translate(391,92)"/>
<path d="M0 0 C0.99 0.33 1.98 0.66 3 1 C3.33 2.98 3.66 4.96 4 7 C1.525 6.01 1.525 6.01 -1 5 C-0.67 3.35 -0.34 1.7 0 0 Z " fill="#83A4C4" transform="translate(294,75)"/>
<path d="M0 0 C1.65 0 3.3 0 5 0 C4.67 0.99 4.34 1.98 4 3 C1.69 3.33 -0.62 3.66 -3 4 C-2.34 3.67 -1.68 3.34 -1 3 C-0.67 2.01 -0.34 1.02 0 0 Z " fill="#F3C277" transform="translate(297,475)"/>
<path d="M0 0 C3.34373475 0.55728913 6.03312999 1.35173889 9 3 C9 3.66 9 4.32 9 5 C5.22454612 3.90931332 2.52956528 3.0916909 0 0 Z " fill="#F0CD90" transform="translate(123,452)"/>
<path d="M0 0 C0.99 0.33 1.98 0.66 3 1 C1.37660195 2.70884005 -0.29319053 4.37446717 -2 6 C-2.66 6 -3.32 6 -4 6 C-3.6875 4.125 -3.6875 4.125 -3 2 C-2.01 1.34 -1.02 0.68 0 0 Z " fill="#F3CC92" transform="translate(398,426)"/>
<path d="M0 0 C0 3 0 3 -2.5 5.6875 C-3.325 6.450625 -4.15 7.21375 -5 8 C-5.66 7.01 -6.32 6.02 -7 5 C-5.68 5 -4.36 5 -3 5 C-2.814375 4.0409375 -2.814375 4.0409375 -2.625 3.0625 C-2.41875 2.381875 -2.2125 1.70125 -2 1 C-1.34 0.67 -0.68 0.34 0 0 Z " fill="#F5C885" transform="translate(442,379)"/>
<path d="M0 0 C3.44216672 2.6598561 3.99504674 5.90288286 5 10 C4.34 10 3.68 10 3 10 C0.96564469 6.27034861 0 4.33094958 0 0 Z " fill="#99B3CB" transform="translate(188,360)"/>
<path d="M0 0 C3.0916909 2.52956528 3.90931332 5.22454612 5 9 C2 8 2 8 0.8125 6.1875 C0 4 0 4 0 0 Z " fill="#F4D29E" transform="translate(419,199)"/>
<path d="M0 0 C0.144375 0.61875 0.28875 1.2375 0.4375 1.875 C0.93152225 4.03258322 0.93152225 4.03258322 2 6 C1.34 6 0.68 6 0 6 C-0.33 7.32 -0.66 8.64 -1 10 C-1.66 10 -2.32 10 -3 10 C-2.69201674 8.51988629 -2.378482 7.04092675 -2.0625 5.5625 C-1.88847656 4.73878906 -1.71445313 3.91507813 -1.53515625 3.06640625 C-1 1 -1 1 0 0 Z " fill="#98B4D1" transform="translate(200,168)"/>
<path d="M0 0 C0.99 0.33 1.98 0.66 3 1 C3 2.32 3 3.64 3 5 C1.35 5 -0.3 5 -2 5 C-2 3.68 -2 2.36 -2 1 C-1.34 0.67 -0.68 0.34 0 0 Z " fill="#6997C9" transform="translate(204,166)"/>
<path d="M0 0 C3.375 4.5 3.375 4.5 4 8 C3.01 8.66 2.02 9.32 1 10 C0.67 6.7 0.34 3.4 0 0 Z " fill="#F8CB89" transform="translate(455,128)"/>
<path d="M0 0 C2.74277578 3.19990508 4.6302836 6.00499382 6 10 C3 9 3 9 1.3125 6.6875 C0 4 0 4 0 0 Z " fill="#F0CE91" transform="translate(449,118)"/>
<path d="M0 0 C3.08089673 2.77280706 4.68775452 5.06326356 6 9 C3.5625 7.875 3.5625 7.875 1 6 C0.1875 2.8125 0.1875 2.8125 0 0 Z " fill="#F2D19D" transform="translate(443,109)"/>
<path d="M0 0 C0.598125 0.20625 1.19625 0.4125 1.8125 0.625 C-3.9375 4.625 -3.9375 4.625 -6.1875 4.625 C-5.03076352 1.15479057 -3.91311293 -0.67081936 0 0 Z " fill="#F3CE9A" transform="translate(142.1875,57.375)"/>
<path d="M0 0 C1.64350079 3.28700157 2.41321669 5.47930015 3 9 C2.34 9 1.68 9 1 9 C0.67 9.66 0.34 10.32 0 11 C0 7.37 0 3.74 0 0 Z " fill="#88A9C9" transform="translate(201,397)"/>
<path d="M0 0 C2.64 1.98 5.28 3.96 8 6 C5 7 5 7 2.875 6.375 C1 5 1 5 0.25 2.375 C0.1675 1.59125 0.085 0.8075 0 0 Z " fill="#E6C080" transform="translate(98,398)"/>
<path d="M0 0 C0.433125 0.474375 0.86625 0.94875 1.3125 1.4375 C3.02309613 3.23686957 3.02309613 3.23686957 6 4 C5.34 5.32 4.68 6.64 4 8 C1 6 1 6 0.3125 2.875 C0.209375 1.92625 0.10625 0.9775 0 0 Z " fill="#EBD2A7" transform="translate(64,356)"/>
<path d="M0 0 C0.66 0 1.32 0 2 0 C2 1.98 2 3.96 2 6 C0.68 5.67 -0.64 5.34 -2 5 C-2 4.01 -2 3.02 -2 2 C-1.34 2 -0.68 2 0 2 C0 1.34 0 0.68 0 0 Z " fill="#79A0C4" transform="translate(97,312)"/>
<path d="M0 0 C0.99 0.33 1.98 0.66 3 1 C-1.75 5.875 -1.75 5.875 -4 7 C-4 6.01 -4 5.02 -4 4 C-3.34 4 -2.68 4 -2 4 C-1.34 2.68 -0.68 1.36 0 0 Z " fill="#9DB6CD" transform="translate(184,292)"/>
<path d="M0 0 C0.99 0.66 1.98 1.32 3 2 C-1.30769231 5.07692308 -1.30769231 5.07692308 -4.8125 4.6875 C-5.534375 4.460625 -6.25625 4.23375 -7 4 C-4.35261084 2.5393715 -3.10551666 2 0 2 C0 1.34 0 0.68 0 0 Z " fill="#8EABC8" transform="translate(267,163)"/>
<path d="M0 0 C0.33 0 0.66 0 1 0 C1 2.64 1 5.28 1 8 C0.34 8 -0.32 8 -1 8 C-1.33 8.99 -1.66 9.98 -2 11 C-1.125 3.375 -1.125 3.375 0 0 Z " fill="#88A5C2" transform="translate(203,159)"/>
<path d="M0 0 C2.18975773 3.28463659 2.99806563 6.20696275 4 10 C3.01 9.67 2.02 9.34 1 9 C0.67 6.03 0.34 3.06 0 0 Z " fill="#F2D19E" transform="translate(466,151)"/>
<path d="M0 0 C2.5 2.3125 2.5 2.3125 5 5 C5 5.99 5 6.98 5 8 C4.01 7.34 3.02 6.68 2 6 C1.34 5.67 0.68 5.34 0 5 C0 3.35 0 1.7 0 0 Z " fill="#F4D4A0" transform="translate(432,94)"/>
<path d="M0 0 C0.99 0.33 1.98 0.66 3 1 C2.01 2.485 2.01 2.485 1 4 C0.60612212 6.32387947 0.26513915 8.65793749 0 11 C-0.33 11 -0.66 11 -1 11 C-1.0270043 9.54176788 -1.04639787 8.08339325 -1.0625 6.625 C-1.07410156 5.81289063 -1.08570313 5.00078125 -1.09765625 4.1640625 C-1 2 -1 2 0 0 Z " fill="#F5BC66" transform="translate(453,278)"/>
<path d="M0 0 C0.99 0 1.98 0 3 0 C3 1.98 3 3.96 3 6 C3.66 6.33 4.32 6.66 5 7 C4.01 7 3.02 7 2 7 C0.5393715 4.35261084 0 3.10551666 0 0 Z " fill="#F5CC8F" transform="translate(290,262)"/>
<path d="M0 0 C-2.31 1.32 -4.62 2.64 -7 4 C-7.33 2.68 -7.66 1.36 -8 0 C-4.71303767 -0.79953138 -3.28976808 -1.09658936 0 0 Z " fill="#F1CC8C" transform="translate(121,73)"/>
<path d="" fill="#DFDFFF" transform="translate(0,0)"/>
</svg>
