<svg width="14" height="10" viewBox="0 0 14 10" fill="none" xmlns="http://www.w3.org/2000/svg">
<path d="M13.3636 4.38268H2.17243L5.54074 1.07456C5.60152 1.0169 5.65 0.947935 5.68335 0.871683C5.7167 0.79543 5.73425 0.713418 5.73499 0.630431C5.73572 0.547444 5.71962 0.465144 5.68762 0.388334C5.65563 0.311524 5.60837 0.241741 5.54862 0.183058C5.48887 0.124375 5.41782 0.077967 5.33961 0.0465414C5.26141 0.0151159 5.17761 -0.000697537 5.09311 2.35982e-05C5.00862 0.000744733 4.92511 0.0179862 4.84747 0.0507418C4.76983 0.0834974 4.69961 0.131111 4.64091 0.190805L0.18632 4.56581C0.0670196 4.68301 0 4.84195 0 5.00768C0 5.17341 0.0670196 5.33235 0.18632 5.44955L4.64091 9.82456C4.76093 9.9384 4.92168 10.0014 5.08853 9.99998C5.25539 9.99855 5.415 9.93282 5.53298 9.81694C5.65097 9.70106 5.7179 9.5443 5.71935 9.38043C5.7208 9.21656 5.65666 9.05868 5.54074 8.9408L2.17243 5.63268H13.3636C13.5324 5.63268 13.6943 5.56683 13.8136 5.44962C13.933 5.33241 14 5.17344 14 5.00768C14 4.84192 13.933 4.68295 13.8136 4.56574C13.6943 4.44853 13.5324 4.38268 13.3636 4.38268Z" fill="white"/>
</svg>
