<svg width="42" height="40" viewBox="0 0 42 40" fill="none" xmlns="http://www.w3.org/2000/svg">
<path d="M28.9514 12.3924C26.7137 10.2001 23.7462 9.01736 20.6035 9.06021C14.2157 9.14858 9.06271 14.3848 9.11663 20.7323C9.14359 23.8878 10.4251 26.8264 12.7248 29.0071C12.7293 29.0107 12.7329 29.0151 12.7374 29.0187C13.9875 30.1684 14.6291 31.9617 14.4979 33.9407C14.4773 34.2487 14.586 34.5513 14.799 34.7771C15.0111 35.0021 15.3085 35.1306 15.6195 35.1306H25.921C26.232 35.1306 26.5294 35.0029 26.7415 34.7771C26.9536 34.5513 27.0624 34.2487 27.0417 33.9398C26.9087 31.968 27.5575 30.1675 28.8229 29C28.8274 28.9964 28.831 28.9919 28.8354 28.9884C31.1495 26.7844 32.423 23.8173 32.423 20.6342C32.423 17.451 31.19 14.5847 28.9523 12.3924H28.9514Z" fill="url(#paint0_linear_1475_1520)"/>
<path d="M25.2732 20.0264C24.8346 19.5908 24.1228 19.5908 23.6843 20.0264C22.9051 20.8003 21.8699 21.2261 20.7681 21.2261C19.6663 21.2261 18.631 20.8003 17.8519 20.0264C17.4133 19.5908 16.7016 19.5908 16.263 20.0264C15.8244 20.462 15.8244 21.169 16.263 21.6046C17.1967 22.5321 18.3704 23.1346 19.6438 23.3586V34.0149C19.6438 34.6309 20.1471 35.1307 20.7672 35.1307C21.3873 35.1307 21.8905 34.6309 21.8905 34.0149V23.3586C23.1649 23.1346 24.3376 22.5321 25.2714 21.6046C25.7099 21.169 25.7099 20.462 25.2714 20.0264H25.2732Z" fill="url(#paint1_linear_1475_1520)"/>
<path d="M25.9195 32.8989H15.618C14.9979 32.8989 14.4946 33.3988 14.4946 34.0147V36.5944C14.4946 38.4717 16.0323 39.9999 17.9222 39.9999H23.6144C25.5043 39.9999 27.042 38.4726 27.042 36.5944V34.0147C27.042 33.3988 26.5387 32.8989 25.9186 32.8989H25.9195Z" fill="url(#paint2_linear_1475_1520)"/>
<path d="M4.83669 21.7458H1.12335C0.50326 21.7458 0 21.2459 0 20.63C0 20.014 0.50326 19.5142 1.12335 19.5142H4.83669C5.45678 19.5142 5.96004 20.014 5.96004 20.63C5.96004 21.2459 5.45678 21.7458 4.83669 21.7458Z" fill="url(#paint3_linear_1475_1520)"/>
<path d="M40.4153 21.7458H36.702C36.0819 21.7458 35.5786 21.2459 35.5786 20.63C35.5786 20.014 36.0819 19.5142 36.702 19.5142H40.4153C41.0354 19.5142 41.5387 20.014 41.5387 20.63C41.5387 21.2459 41.0354 21.7458 40.4153 21.7458Z" fill="url(#paint4_linear_1475_1520)"/>
<path d="M9.50368 10.5552C9.21611 10.5552 8.92853 10.4463 8.70925 10.2285L6.08331 7.62022C5.64476 7.18461 5.64476 6.47765 6.08331 6.04204C6.52187 5.60643 7.23362 5.60643 7.67218 6.04204L10.2981 8.65033C10.7367 9.08593 10.7367 9.7929 10.2981 10.2285C10.0788 10.4463 9.79126 10.5552 9.50368 10.5552Z" fill="url(#paint5_linear_1475_1520)"/>
<path d="M34.6614 35.544C34.3738 35.544 34.0862 35.4351 33.867 35.2173L31.241 32.609C30.8025 32.1734 30.8025 31.4664 31.241 31.0308C31.6796 30.5952 32.3913 30.5952 32.8299 31.0308L35.4558 33.6391C35.8944 34.0747 35.8944 34.7817 35.4558 35.2173C35.2366 35.4351 34.949 35.544 34.6614 35.544Z" fill="url(#paint6_linear_1475_1520)"/>
<path d="M20.7703 5.91998C20.1502 5.91998 19.647 5.4201 19.647 4.80418V1.1158C19.647 0.499877 20.1502 0 20.7703 0C21.3904 0 21.8937 0.499877 21.8937 1.1158V4.80418C21.8937 5.4201 21.3904 5.91998 20.7703 5.91998Z" fill="url(#paint7_linear_1475_1520)"/>
<path d="M32.0355 10.5552C31.7479 10.5552 31.4603 10.4463 31.241 10.2285C30.8025 9.7929 30.8025 9.08593 31.241 8.65033L33.867 6.04204C34.3055 5.60643 35.0173 5.60643 35.4558 6.04204C35.8944 6.47765 35.8944 7.18461 35.4558 7.62022L32.8299 10.2285C32.6106 10.4463 32.323 10.5552 32.0355 10.5552Z" fill="url(#paint8_linear_1475_1520)"/>
<path d="M6.87774 35.544C6.59017 35.544 6.30259 35.4351 6.08331 35.2173C5.64476 34.7817 5.64476 34.0747 6.08331 33.6391L8.70925 31.0308C9.14781 30.5952 9.85956 30.5952 10.2981 31.0308C10.7367 31.4664 10.7367 32.1734 10.2981 32.609L7.67218 35.2173C7.4529 35.4351 7.16532 35.544 6.87774 35.544Z" fill="url(#paint9_linear_1475_1520)"/>
<defs>
<linearGradient id="paint0_linear_1475_1520" x1="20.7689" y1="35.1306" x2="20.7689" y2="9.05932" gradientUnits="userSpaceOnUse">
<stop stop-color="#FFBD00"/>
<stop offset="1" stop-color="#FFF065"/>
</linearGradient>
<linearGradient id="paint1_linear_1475_1520" x1="20.769" y1="35.1307" x2="20.769" y2="19.6997" gradientUnits="userSpaceOnUse">
<stop stop-color="#FF9500"/>
<stop offset="1" stop-color="#FFCC1E"/>
</linearGradient>
<linearGradient id="paint2_linear_1475_1520" x1="20.7692" y1="39.999" x2="20.7692" y2="32.8989" gradientUnits="userSpaceOnUse">
<stop stop-color="#333333"/>
<stop offset="1" stop-color="#666666"/>
</linearGradient>
<linearGradient id="paint3_linear_1475_1520" x1="2.98002" y1="21.7458" x2="2.98002" y2="19.5142" gradientUnits="userSpaceOnUse">
<stop stop-color="#FF9500"/>
<stop offset="1" stop-color="#FFCC1E"/>
</linearGradient>
<linearGradient id="paint4_linear_1475_1520" x1="38.5586" y1="21.7458" x2="38.5586" y2="19.5142" gradientUnits="userSpaceOnUse">
<stop stop-color="#FF9500"/>
<stop offset="1" stop-color="#FFCC1E"/>
</linearGradient>
<linearGradient id="paint5_linear_1475_1520" x1="8.19071" y1="10.5552" x2="8.19071" y2="5.71533" gradientUnits="userSpaceOnUse">
<stop stop-color="#FFBD00"/>
<stop offset="1" stop-color="#FFF065"/>
</linearGradient>
<linearGradient id="paint6_linear_1475_1520" x1="33.3484" y1="35.544" x2="33.3484" y2="30.705" gradientUnits="userSpaceOnUse">
<stop stop-color="#FFBD00"/>
<stop offset="1" stop-color="#FFF065"/>
</linearGradient>
<linearGradient id="paint7_linear_1475_1520" x1="-2.23586" y1="5.91998" x2="-2.1472" y2="-1.78616e-05" gradientUnits="userSpaceOnUse">
<stop stop-color="#FF9500"/>
<stop offset="1" stop-color="#FFCC1E"/>
</linearGradient>
<linearGradient id="paint8_linear_1475_1520" x1="33.3484" y1="10.5552" x2="33.3484" y2="5.71533" gradientUnits="userSpaceOnUse">
<stop stop-color="#FFBD00"/>
<stop offset="1" stop-color="#FFF065"/>
</linearGradient>
<linearGradient id="paint9_linear_1475_1520" x1="8.19071" y1="35.544" x2="8.19071" y2="30.705" gradientUnits="userSpaceOnUse">
<stop stop-color="#FFBD00"/>
<stop offset="1" stop-color="#FFF065"/>
</linearGradient>
</defs>
</svg>
