<svg width="40" height="40" viewBox="0 0 40 40" fill="none" xmlns="http://www.w3.org/2000/svg">
<g clip-path="url(#clip0_1475_1533)">
<path d="M20 40C31.0457 40 40 31.0457 40 20C40 8.9543 31.0457 0 20 0C8.9543 0 0 8.9543 0 20C0 31.0457 8.9543 40 20 40Z" fill="#FFCE00"/>
<path d="M39.9999 19.9998C39.9999 19.4662 39.9789 18.9376 39.9379 18.4145L31.9777 10.4544L30.3903 11.2928L23.2069 4.10938L16.7928 7.25812L20.1581 10.6234L10.5317 31.191L19.3296 39.9888C19.5521 39.9962 19.7756 39.9998 19.9999 39.9998C31.0456 39.9998 39.9999 31.0455 39.9999 19.9998Z" fill="#FFA300"/>
<path d="M18.0527 5.57812H21.947V10.6177H18.0527V5.57812Z" fill="#555A66"/>
<path d="M19.9858 5.57812H21.9472V10.6177H19.9858V5.57812Z" fill="#333940"/>
<path d="M8.02002 10.4551L10.7732 7.70187L14.3362 11.2649L11.583 14.0181L8.02002 10.4551Z" fill="#555A66"/>
<path d="M28.4165 14.022L25.6633 11.2688L29.2263 7.70576L31.9795 10.459L28.4165 14.022Z" fill="#333940"/>
<path d="M19.9998 35.175C27.3154 35.175 33.2458 29.2446 33.2458 21.929C33.2458 14.6135 27.3154 8.68311 19.9998 8.68311C12.6843 8.68311 6.75391 14.6135 6.75391 21.929C6.75391 29.2446 12.6843 35.175 19.9998 35.175Z" fill="#707789"/>
<path d="M20.0001 8.68311C19.9953 8.68311 19.9906 8.68326 19.9858 8.68326V35.1747C19.9906 35.1747 19.9953 35.1749 20.0001 35.1749C27.3156 35.1749 33.246 29.2445 33.246 21.929C33.246 14.6134 27.3156 8.68311 20.0001 8.68311Z" fill="#555A66"/>
<path d="M20.0002 31.997C25.5604 31.997 30.0678 27.4896 30.0678 21.9294C30.0678 16.3692 25.5604 11.8618 20.0002 11.8618C14.44 11.8618 9.93262 16.3692 9.93262 21.9294C9.93262 27.4896 14.44 31.997 20.0002 31.997Z" fill="white"/>
<path d="M20.0001 11.8618C19.9953 11.8618 19.9906 11.862 19.9858 11.862V31.9967C19.9906 31.9967 19.9953 31.9969 20.0001 31.9969C25.5602 31.9969 30.0676 27.4895 30.0676 21.9293C30.0676 16.3692 25.5602 11.8618 20.0001 11.8618Z" fill="#E9EDF5"/>
<path d="M16.793 4.10938H23.207V7.25812H16.793V4.10938Z" fill="#707789"/>
<path d="M19.9858 4.10938H23.2071V7.25812H19.9858V4.10938Z" fill="#555A66"/>
<path d="M19.1675 21.1001L24.6909 15.5767L26.348 17.2337L20.8245 22.7571L19.1675 21.1001Z" fill="#333940"/>
<path d="M19.9999 23.9818C21.1336 23.9818 22.0526 23.0628 22.0526 21.9291C22.0526 20.7955 21.1336 19.8765 19.9999 19.8765C18.8663 19.8765 17.9473 20.7955 17.9473 21.9291C17.9473 23.0628 18.8663 23.9818 19.9999 23.9818Z" fill="#707789"/>
<path d="M20.0001 19.8765C19.9953 19.8765 19.9906 19.8768 19.9858 19.8769V23.9815C19.9906 23.9815 19.9953 23.9819 20.0001 23.9819C21.1337 23.9819 22.0527 23.0629 22.0527 21.9292C22.0527 20.7955 21.1337 19.8765 20.0001 19.8765Z" fill="#555A66"/>
</g>
<defs>
<clipPath id="clip0_1475_1533">
<rect width="40" height="40" fill="white"/>
</clipPath>
</defs>
</svg>
