<svg width="37" height="40" viewBox="0 0 37 40" fill="none" xmlns="http://www.w3.org/2000/svg">
<path fill-rule="evenodd" clip-rule="evenodd" d="M17.9117 7.64628C25.0506 8.3209 28.0868 13.955 28.0868 20.4767C28.0868 29.6662 22.3078 27.3459 22.502 39.0971C22.5047 39.2602 22.3631 39.3918 22.1849 39.3918H11.3536C11.179 39.3918 11.0364 39.2615 11.0364 39.1015V33.4817C9.61355 33.4817 8.18594 33.5093 6.7579 33.5264C5.68269 33.5393 4.8156 32.6826 4.8156 31.6073V26.8067C4.8156 26.6439 4.6828 26.5111 4.51998 26.5111H1.21626C0.977081 26.5111 0.836997 26.2434 0.973482 26.047C1.99997 24.5687 2.9903 23.0775 3.96377 21.5604C4.91382 20.0799 5.17906 19.3722 5.92573 16.2392C7.20834 10.8569 12.3694 7.08683 17.9117 7.64628Z" fill="#FCD4A9"/>
<path fill-rule="evenodd" clip-rule="evenodd" d="M18.3695 26.0649C18.6595 22.378 20.6741 21.4585 20.6741 19.2558C20.6741 17.092 18.92 15.3379 16.7562 15.3379C14.5925 15.3379 12.8384 17.092 12.8384 19.2558C12.8384 21.4585 14.853 22.378 15.143 26.0649H18.3695Z" fill="#FFD32C"/>
<path fill-rule="evenodd" clip-rule="evenodd" d="M14.8741 24.1831H18.6394V26.4624C18.6394 26.673 18.467 26.8454 18.2564 26.8454H15.2571C15.0464 26.8454 14.874 26.673 14.874 26.4624V24.1831H14.8741Z" fill="#FA6E85"/>
<path fill-rule="evenodd" clip-rule="evenodd" d="M16.7572 13.3179C17.0923 13.3179 17.3631 13.0472 17.3631 12.71V10.6871C17.3631 10.355 17.0924 10.0843 16.7572 10.0843C16.422 10.0843 16.1508 10.355 16.1508 10.6871V12.71C16.1508 13.0473 16.4221 13.3179 16.7572 13.3179ZM11.6798 23.5045L10.2494 24.9349C9.86632 25.3171 10.1455 25.9719 10.6785 25.9719C10.8337 25.9719 10.9886 25.9106 11.1065 25.7931L12.537 24.3627C12.774 24.1225 12.774 23.7394 12.537 23.5045C12.3005 23.2695 11.9163 23.2695 11.6798 23.5045ZM10.7889 19.2848C10.7889 18.9477 10.5176 18.6769 10.183 18.6769H8.16048C7.8259 18.6769 7.55407 18.9477 7.55407 19.2848C7.55407 19.6169 7.82581 19.8927 8.16048 19.8927H10.183C10.5176 19.8927 10.7889 19.6169 10.7889 19.2848ZM21.8341 23.5045C21.5975 23.2695 21.2134 23.2695 20.9769 23.5045C20.7409 23.7394 20.7409 24.1226 20.9769 24.3627L22.4073 25.7931C22.6465 26.0312 23.0279 26.031 23.2645 25.7931C23.501 25.553 23.501 25.1698 23.2645 24.9349L21.8341 23.5045ZM22.7256 19.2848C22.7256 19.6169 22.9963 19.8927 23.3315 19.8927H25.3544C25.689 19.8927 25.9603 19.6169 25.9603 19.2848C25.9603 18.9477 25.689 18.6769 25.3544 18.6769H23.3315C22.9963 18.6768 22.7256 18.9476 22.7256 19.2848ZM11.6798 15.0651C11.9197 15.3029 12.2968 15.3037 12.537 15.0651C12.774 14.8302 12.774 14.4419 12.537 14.2069L11.1065 12.7765C10.87 12.5415 10.4863 12.5415 10.2494 12.7765C10.0133 13.0114 10.0133 13.3997 10.2494 13.6347L11.6798 15.0651ZM21.406 15.2439C21.5608 15.2439 21.7161 15.1827 21.8341 15.0651L23.2645 13.6347C23.501 13.3997 23.501 13.0114 23.2645 12.7765C23.0279 12.5415 22.6438 12.5415 22.4073 12.7765L20.9769 14.2069C20.5938 14.5891 20.8723 15.2439 21.406 15.2439ZM20.0696 19.2593C20.0696 17.4304 18.5835 15.949 16.7572 15.949C14.9308 15.949 13.4453 17.4305 13.4453 19.2593C13.4453 20.1023 13.8065 20.7408 14.2637 21.5479C14.5912 22.1252 14.9518 22.7638 15.2409 23.5812H18.2739C18.563 22.7638 18.9237 22.1252 19.2496 21.5479C19.7074 20.7407 20.0696 20.1022 20.0696 19.2593ZM18.0338 24.7918H15.4811V26.2427H18.0338V24.7918ZM20.3051 22.1456C19.9158 22.8352 19.5143 23.5453 19.2456 24.5262V26.4624C19.2456 27.009 18.8022 27.4534 18.2566 27.4534H15.2579C14.7128 27.4534 14.2689 27.0089 14.2689 26.4624V24.5262C13.9997 23.5454 13.5981 22.8353 13.2094 22.1456C12.7078 21.2567 12.2332 20.4188 12.2332 19.2592C12.2332 16.7611 14.2623 14.733 16.7574 14.733C19.2518 14.733 21.2816 16.7611 21.2816 19.2592C21.2814 20.4189 20.8073 21.2567 20.3051 22.1456ZM27.4811 20.4802C27.4811 24.5722 26.3368 26.1967 25.0126 28.0716C23.527 30.1763 21.8464 32.562 21.8924 38.7894H11.6426V33.4815C11.6426 33.1527 11.3735 32.8787 11.0361 32.8787L6.75104 32.9247C6.01912 32.9346 5.42183 32.3453 5.42183 31.6118V26.8098C5.42183 26.3142 5.01773 25.9055 4.52068 25.9055H1.80906C2.68669 24.6336 3.56134 23.3104 4.47372 21.8902C5.4709 20.3372 5.75694 19.5659 6.51608 16.3832C7.74567 11.2184 12.6188 7.72417 17.851 8.25036H17.855C23.8827 8.82246 27.4811 13.3946 27.4811 20.4802ZM26.1697 11.5198C27.8208 13.8237 28.6933 16.9247 28.6933 20.4802C28.6933 24.9553 27.3258 26.8966 26.0031 28.7714C24.5309 30.8557 23.0085 33.0166 23.1086 39.0907C23.1172 39.5987 22.6924 40 22.185 40H11.3539C10.8445 40 10.4303 39.5964 10.4303 39.106V34.0894L6.76588 34.1354C5.35653 34.1498 4.20953 33.02 4.20953 31.6118V27.1213H1.21643C0.489591 27.1213 0.0626694 26.3006 0.476162 25.7011C1.4585 24.2861 2.43277 22.825 3.4539 21.2362C4.3648 19.816 4.61152 19.1417 5.3359 16.1021C6.69197 10.4151 12.1112 6.47491 17.9714 7.04455C21.4785 7.37677 24.3133 8.92462 26.1697 11.5198ZM24.7297 5.4457C25.0105 5.61177 25.3886 5.51891 25.5578 5.22601L26.6066 3.40738C26.7741 3.11616 26.6745 2.74839 26.3849 2.57978C26.0952 2.41118 25.7243 2.51334 25.5573 2.79948L24.5085 4.6181C24.3409 4.90924 24.4395 5.27709 24.7297 5.4457ZM31.0919 11.5862C31.194 11.5862 31.2988 11.5607 31.3938 11.5045L33.2115 10.4572C33.5006 10.2886 33.6002 9.91565 33.4327 9.6296C33.2656 9.33838 32.8947 9.23621 32.6056 9.40482L30.788 10.4572C30.2494 10.7647 30.4804 11.5862 31.0919 11.5862ZM16.7572 3.31031C17.0923 3.31031 17.3631 3.03953 17.3631 2.7024V0.607906C17.3631 0.270688 17.0924 0 16.7572 0C16.422 0 16.1508 0.270776 16.1508 0.607906V2.7024C16.1508 3.03953 16.4221 3.31031 16.7572 3.31031ZM33.2114 28.0562L31.3937 27.0038C31.1041 26.8403 30.7337 26.9374 30.5667 27.2286C30.3986 27.5198 30.4977 27.8876 30.7878 28.0562L32.6054 29.1034C32.8909 29.2701 33.265 29.1746 33.4325 28.8837C33.6002 28.5926 33.5006 28.2196 33.2114 28.0562ZM2.42302 13.0319C3.04067 13.0319 3.26045 12.2122 2.72645 11.9029L0.909315 10.8556C0.619141 10.687 0.248745 10.7841 0.0817159 11.0753C-0.0863668 11.3665 0.0132538 11.7343 0.303427 11.9029L2.12056 12.9553C2.21615 13.0064 2.32042 13.0319 2.42302 13.0319ZM7.95668 5.22601C8.12546 5.5175 8.49963 5.61212 8.78428 5.4457C9.07445 5.27709 9.17354 4.90933 9.00651 4.6181L7.95773 2.79948C7.79017 2.51343 7.41925 2.41126 7.12916 2.57978C6.83899 2.74839 6.74042 3.11616 6.90798 3.40738L7.95668 5.22601ZM36.0124 19.2541C36.0124 19.5912 35.7417 19.862 35.406 19.862H33.3085C32.9739 19.862 32.7021 19.5912 32.7021 19.2541C32.7021 18.9221 32.9738 18.6462 33.3085 18.6462H35.406C35.7417 18.6462 36.0124 18.9221 36.0124 19.2541Z" fill="#1E2F3F"/>
</svg>
