<svg width="757" height="606" viewBox="0 0 757 606" fill="none" xmlns="http://www.w3.org/2000/svg">
<path fill-rule="evenodd" clip-rule="evenodd" d="M588.423 603.17L584.241 230.322C584.241 230.322 543.008 257.626 540.765 261.64C538.861 265.162 544.649 273.871 544.088 277.923C541.402 297.16 529.868 332.26 528.304 356.004C524.946 405.994 531.364 541.364 530.727 603.17H588.423Z" fill="white"/>
<path fill-rule="evenodd" clip-rule="evenodd" d="M588.563 604.737C588.939 604.737 589.314 604.589 589.571 604.322C589.836 604.055 589.988 603.675 589.988 603.296L585.789 230.206C585.789 229.675 585.49 229.183 585.038 228.918C584.586 228.691 584.023 228.691 583.578 228.993C583.578 228.993 557.003 246.499 545.239 255.594C542.047 258.019 539.948 259.991 539.461 260.862C539.016 261.619 538.828 262.566 538.898 263.665C538.939 264.954 539.315 266.469 539.836 268.099C540.553 270.258 541.561 272.608 542.159 274.654C542.499 275.791 542.722 276.815 542.611 277.61C539.878 296.898 528.329 332.099 526.723 355.895C523.386 405.917 529.831 541.421 529.191 603.296C529.191 603.675 529.344 604.055 529.609 604.322C529.866 604.589 530.241 604.737 530.617 604.737H588.563ZM587.103 601.862H532.077C532.605 539.375 526.271 405.686 529.609 356.084C531.215 332.331 542.764 297.277 545.461 278.028C545.649 276.891 545.385 275.412 544.933 273.821C544.3 271.737 543.327 269.387 542.576 267.151C542.2 266.052 541.901 264.992 541.783 264.045C541.714 263.324 541.714 262.718 541.971 262.263C542.388 261.544 544.3 259.99 546.998 257.906C556.67 250.441 576.381 237.255 582.938 232.897L587.103 601.862Z" fill="#000045"/>
<path fill-rule="evenodd" clip-rule="evenodd" d="M548.381 603.17H756.049C746.218 535.617 716.204 288.828 630.125 225.623L607.916 231.006C607.916 231.006 579.542 243.418 567.543 264.232C556.84 282.792 549.296 306.586 548.381 346.991C547.621 379.991 547.318 531.792 548.381 603.17Z" fill="#71B2EF"/>
<path fill-rule="evenodd" clip-rule="evenodd" d="M453.698 257.61C453.698 249.447 447.099 242.855 438.969 242.855C381.792 242.855 174.654 242.855 117.476 242.855C109.382 242.855 102.782 249.447 102.782 257.61C102.782 298.492 102.782 412.77 102.782 453.653C102.782 461.817 109.382 468.443 117.476 468.443C174.654 468.443 381.792 468.443 438.969 468.443C447.099 468.443 453.698 461.817 453.698 453.653C453.698 412.77 453.698 298.492 453.698 257.61Z" fill="#1A89D3"/>
<path fill-rule="evenodd" clip-rule="evenodd" d="M455.262 257.526C455.262 248.552 447.997 241.289 439.024 241.289C381.553 241.289 173.353 241.289 115.883 241.289C106.944 241.289 99.647 248.552 99.647 257.526C99.647 298.452 99.647 412.851 99.647 453.777C99.647 462.751 106.944 470.01 115.883 470.01C173.353 470.01 381.553 470.01 439.024 470.01C447.997 470.01 455.262 462.751 455.262 453.777V257.526ZM452.36 257.526V453.777C452.36 461.142 446.395 467.115 439.024 467.115C381.553 467.115 173.353 467.115 115.883 467.115C108.55 467.115 102.58 461.142 102.58 453.777V257.526C102.58 250.158 108.55 244.222 115.883 244.222C173.353 244.222 381.553 244.222 439.024 244.222C446.395 244.222 452.36 250.158 452.36 257.526Z" fill="#000045"/>
<path fill-rule="evenodd" clip-rule="evenodd" d="M409.83 441.92C409.83 438.137 408.319 434.529 405.657 431.867C402.967 429.205 399.366 427.712 395.564 427.712C340.206 427.712 139.507 427.712 84.1161 427.712C80.347 427.712 76.7128 429.205 74.0544 431.867C71.396 434.529 69.8806 438.137 69.8806 441.92C69.8806 462.951 69.8806 502.142 69.8806 523.166C69.8806 526.928 71.396 530.543 74.0544 533.205C76.7128 535.867 80.347 537.373 84.1161 537.373C139.507 537.373 340.206 537.373 395.564 537.373C399.366 537.373 402.967 535.867 405.657 533.205C408.319 530.543 409.83 526.928 409.83 523.166C409.83 502.142 409.83 462.951 409.83 441.92Z" fill="#000045"/>
<path fill-rule="evenodd" clip-rule="evenodd" d="M126.186 355.65H275.194C276.002 355.65 276.67 355.289 276.67 354.857C276.67 354.424 276.002 354.083 275.194 354.083H126.186C125.377 354.083 124.711 354.424 124.711 354.857C124.711 355.289 125.377 355.65 126.186 355.65Z" fill="white"/>
<path fill-rule="evenodd" clip-rule="evenodd" d="M126.158 390.114H353.552C354.357 390.114 354.999 389.758 354.999 389.322C354.999 388.889 354.357 388.548 353.552 388.548H126.158C125.354 388.548 124.711 388.889 124.711 389.322C124.711 389.758 125.354 390.114 126.158 390.114Z" fill="#000045"/>
<path fill-rule="evenodd" clip-rule="evenodd" d="M99.5531 512.308H229.766C230.573 512.308 231.239 511.631 231.239 510.764C231.239 509.89 230.573 509.175 229.766 509.175H99.5531C98.746 509.175 98.0794 509.89 98.0794 510.764C98.0794 511.631 98.746 512.308 99.5531 512.308Z" fill="white"/>
<path fill-rule="evenodd" clip-rule="evenodd" d="M99.5593 485.676H171.797C172.614 485.676 173.276 485.338 173.276 484.904C173.276 484.471 172.614 484.109 171.797 484.109H99.5593C98.7415 484.109 98.0794 484.471 98.0794 484.904C98.0794 485.338 98.7415 485.676 99.5593 485.676Z" fill="white"/>
<path fill-rule="evenodd" clip-rule="evenodd" d="M360.105 486.493L380.821 507.211C381.356 507.743 382.251 507.743 382.798 507.197C383.333 506.666 383.333 505.77 382.798 505.231L362.082 484.513C361.536 483.968 360.651 483.981 360.116 484.513C359.569 485.059 359.559 485.948 360.105 486.493Z" fill="white"/>
<path fill-rule="evenodd" clip-rule="evenodd" d="M380.817 484.515L360.101 505.23C359.566 505.762 359.565 506.657 360.112 507.209C360.647 507.741 361.543 507.741 362.078 507.209L382.794 486.487C383.34 485.942 383.329 485.06 382.794 484.522C382.247 483.976 381.363 483.97 380.817 484.515Z" fill="white"/>
<path fill-rule="evenodd" clip-rule="evenodd" d="M372.01 156.024L346.749 116.639C346.289 115.948 345.394 115.763 344.716 116.189C344.038 116.615 343.831 117.53 344.262 118.201L369.523 157.587C369.954 158.258 370.877 158.463 371.556 158.037C372.234 157.61 372.441 156.696 372.01 156.024Z" fill="#000045"/>
<path fill-rule="evenodd" clip-rule="evenodd" d="M644.261 157.827L661.646 140.283C662.2 139.734 662.193 138.835 661.582 138.279C660.978 137.752 660.035 137.76 659.481 138.339L642.088 155.853C641.534 156.432 641.549 157.33 642.153 157.857C642.736 158.42 643.7 158.377 644.261 157.827Z" fill="#000045"/>
<path fill-rule="evenodd" clip-rule="evenodd" d="M232.807 158.19C232.807 153.058 228.644 148.86 223.477 148.86C213.717 148.86 197.102 148.86 187.306 148.86C182.174 148.86 177.976 153.058 177.976 158.19V194.36C177.976 199.527 182.174 203.69 187.306 203.69H223.477C228.644 203.69 232.807 199.527 232.807 194.36V158.19ZM229.828 158.19V194.36C229.828 197.877 226.994 200.712 223.477 200.712H187.306C183.825 200.712 180.989 197.877 180.989 194.36C180.989 184.6 180.989 167.95 180.989 158.19C180.989 154.709 183.825 151.874 187.306 151.874C197.102 151.874 213.717 151.874 223.477 151.874C226.994 151.874 229.828 154.709 229.828 158.19Z" fill="#000045"/>
<path fill-rule="evenodd" clip-rule="evenodd" d="M295.47 185.889C295.47 182.75 292.813 180.191 289.501 180.191H266.974C263.684 180.191 261.005 182.75 261.005 185.889C261.005 191.608 261.005 201.673 261.005 207.392C261.005 210.554 263.684 213.09 266.974 213.09C272.965 213.09 283.531 213.09 289.501 213.09C292.813 213.09 295.47 210.554 295.47 207.392C295.47 201.673 295.47 191.608 295.47 185.889ZM292.464 185.889C292.464 191.608 292.464 201.673 292.464 207.392C292.464 208.952 291.135 210.22 289.501 210.22C283.531 210.22 272.965 210.22 266.974 210.22C265.34 210.22 264.011 208.952 264.011 207.392C264.011 201.673 264.011 191.608 264.011 185.889C264.011 184.33 265.34 183.062 266.974 183.062H289.501C291.135 183.062 292.464 184.33 292.464 185.889Z" fill="white"/>
<path fill-rule="evenodd" clip-rule="evenodd" d="M475.649 532.674C470.437 532.674 466.229 537.232 466.229 542.842C466.229 548.481 470.437 553.039 475.649 553.039C480.82 553.039 485.028 548.481 485.028 542.842C485.028 537.232 480.82 532.674 475.649 532.674ZM475.649 535.738C479.269 535.738 482.2 538.912 482.2 542.842C482.2 546.801 479.269 549.976 475.649 549.976C471.987 549.976 469.057 546.801 469.057 542.842C469.057 538.912 471.987 535.738 475.649 535.738Z" fill="#000045"/>
<path fill-rule="evenodd" clip-rule="evenodd" d="M705.9 214.657C701.591 214.657 698.081 218.517 698.081 223.288C698.081 228.028 701.591 231.889 705.9 231.889C710.236 231.889 713.747 228.028 713.747 223.288C713.747 218.517 710.236 214.657 705.9 214.657ZM705.9 217.89C708.612 217.89 710.808 220.307 710.808 223.288C710.808 226.27 708.612 228.688 705.9 228.688C703.187 228.688 700.991 226.27 700.991 223.288C700.991 220.307 703.187 217.89 705.9 217.89Z" fill="white"/>
<path fill-rule="evenodd" clip-rule="evenodd" d="M597.481 30.3313C599.705 21.8526 608.184 16.8421 616.425 19.1001C624.666 21.3589 629.616 30.0504 627.393 38.5291C625.537 45.6287 619.227 50.3041 612.339 50.2241C609.129 50.22 606.307 52.4036 605.478 55.5706C604.206 60.4226 602.438 67.1648 602.438 67.1648C602.241 67.9305 602.683 68.7087 603.431 68.9145C604.179 69.1197 604.941 68.6704 605.138 67.9041C605.138 67.9041 606.906 61.1619 608.225 56.323C608.721 54.4336 610.414 53.09 612.332 53.1234C620.457 53.1603 627.896 47.6448 630.092 39.2683C632.71 29.2569 626.89 19.0111 617.146 16.3421C607.409 13.673 597.359 19.5675 594.734 29.5789C594.53 30.3452 595.02 31.1353 595.768 31.3404C596.516 31.5456 597.277 31.0977 597.481 30.3313Z" fill="white"/>
<path fill-rule="evenodd" clip-rule="evenodd" d="M511.631 16.1086C510.118 10.4595 513.49 4.67508 519.108 3.17139C524.759 1.6577 530.537 4.99207 532.056 10.6406C533.256 15.1244 531.343 19.722 527.685 22.1774C525.212 23.8236 524.093 26.849 524.852 29.6732C525.665 32.8604 526.672 36.6023 526.672 36.6023C526.872 37.3435 527.631 37.7831 528.371 37.5846C529.117 37.3855 529.557 36.625 529.357 35.8831C529.357 35.8831 528.364 32.1765 527.498 28.9633C527.045 27.2691 527.738 25.4578 529.211 24.4575C533.842 21.4009 536.221 15.5799 534.702 9.93136C532.802 2.83509 525.492 -1.41362 518.388 0.488311C511.285 2.38958 507.08 9.72159 508.986 16.8179C509.172 17.5238 509.932 17.9633 510.678 17.7648C511.418 17.5664 511.824 16.8145 511.631 16.1086Z" fill="white"/>
<path d="M598.755 84.4416C601.677 85.2251 604.685 83.4892 605.469 80.5649C606.245 77.6414 604.512 74.6351 601.591 73.8516C598.66 73.0682 595.661 74.804 594.877 77.7276C594.092 80.6519 595.825 83.6582 598.755 84.4416Z" fill="white"/>
<path d="M531.851 50.0574C533.105 49.6097 533.846 47.8915 533.514 46.2203C533.176 44.5491 531.887 43.5583 530.633 44.006C529.379 44.4536 528.637 46.1712 528.975 47.8416C529.308 49.5128 530.597 50.505 531.851 50.0574Z" fill="white"/>
<path fill-rule="evenodd" clip-rule="evenodd" d="M88.7391 329.923C93.9902 339.459 85.1114 354.737 68.7971 364.181C52.4709 373.633 34.8424 373.689 29.215 364.372C29.191 364.33 29.1734 364.302 29.1502 364.259C29.1325 364.224 29.1149 364.196 29.091 364.153C23.8518 354.61 32.7122 339.324 49.0385 329.873C65.3528 320.434 82.9996 320.377 88.615 329.704L88.627 329.697C88.6502 329.739 88.6679 329.767 88.6862 329.803C88.7095 329.845 88.7271 329.873 88.751 329.916L88.7391 329.923Z" fill="white"/>
<path fill-rule="evenodd" clip-rule="evenodd" d="M29.4011 363.673C29.3217 363.58 29.2476 363.474 29.2025 363.368C27.0013 359.176 27.1003 353.977 29.1756 348.58C32.1369 340.941 39.114 332.848 48.7845 326.969C58.4435 321.092 68.5961 318.766 76.3476 319.893C81.8238 320.699 86.1487 323.21 88.5013 327.302L87.3748 329.387L87.3802 329.401L87.3102 329.522L87.2987 329.529L87.3748 329.387C87.3008 328.72 87.0967 327.302 86.8523 327.025C86.7796 326.841 86.6941 326.742 86.6133 326.791C85.8834 327.231 86.0261 327.891 86.3661 328.451C86.5291 328.806 86.7964 329.125 87.0186 329.359L87.2987 329.529C87.2583 329.486 86.7109 329.025 86.3661 328.451C86.1177 327.94 86.0773 327.387 86.7257 326.997C86.7607 326.976 86.8126 326.983 86.8523 327.025C87.1102 327.692 87.2933 329.437 87.2987 329.529L87.3102 329.522L87.391 329.501L87.3802 329.401L88.5127 327.323L88.6312 327.543C88.6481 327.572 88.6649 327.6 88.6878 327.642C90.8256 331.827 90.7213 336.99 88.6582 342.352C85.7083 349.984 78.7197 358.084 69.0607 363.956C59.3895 369.843 49.2491 372.162 41.4855 371.042C36.0443 370.24 31.7477 367.751 29.389 363.708C29.3553 363.673 29.3378 363.637 29.321 363.609L29.2025 363.396C29.259 363.495 29.321 363.58 29.3951 363.658L29.4011 363.673ZM86.1258 328.855L86.2106 329.011C86.4591 329.465 86.9163 329.735 87.4112 329.742C86.9048 329.742 86.4362 329.451 86.1931 328.983C88.0051 332.458 87.8058 336.771 86.0739 341.246C83.3072 348.395 76.7105 355.913 67.6649 361.41C58.6078 366.921 49.1299 369.184 41.8666 368.127C37.333 367.467 33.6755 365.495 31.7248 362.105L31.6568 361.985L31.64 361.949C29.8226 358.467 30.0394 354.154 31.7598 349.686C34.5205 342.53 41.1232 335.019 50.1803 329.515C59.2252 324.011 68.6978 321.741 75.9671 322.805C80.5122 323.465 84.1522 325.43 86.1089 328.827L86.1258 328.855ZM29.9627 361.623C29.89 361.438 29.8045 361.339 29.7237 361.389C28.9938 361.829 29.1372 362.481 29.4765 363.048C29.6846 363.481 30.0603 363.885 30.294 364.119L30.3283 364.127H30.4091C30.3748 364.127 30.3458 364.127 30.3 364.127L30.294 364.119C30.2307 364.112 30.1795 364.105 30.1277 364.091C30.1795 364.105 30.2482 364.119 30.3 364.127L30.3344 364.162C30.368 364.197 30.4138 364.226 30.4482 364.254L30.5337 364.325L30.5175 364.212L30.5014 364.127L30.4206 364.119C30.3694 364.084 29.8213 363.623 29.4765 363.048C29.2281 362.538 29.1998 361.977 29.8368 361.594C29.8711 361.573 29.9229 361.58 29.9627 361.623C30.2206 362.29 30.4044 364.034 30.4206 364.119L30.4852 363.985C30.4118 363.318 30.2071 361.899 29.9627 361.623ZM87.391 329.501L87.4071 329.614L87.4112 329.742L87.3256 329.664C87.292 329.635 87.2576 329.6 87.2233 329.565L87.189 329.529C87.224 329.536 87.2637 329.529 87.2987 329.529L87.391 329.501Z" fill="#000045"/>
<path fill-rule="evenodd" clip-rule="evenodd" d="M131.407 310.644C131.321 310.557 131.243 310.452 131.194 310.343C128.826 306.21 128.872 301.041 130.998 295.651C134.033 288.022 141.294 279.898 151.42 273.939C161.534 267.987 172.208 265.555 180.391 266.583C186.171 267.319 190.758 269.762 193.283 273.803L192.108 275.897C192.016 275.223 191.797 273.811 191.542 273.549C191.463 273.362 191.373 273.264 191.287 273.314C190.512 273.771 190.676 274.43 191.04 274.986C191.222 275.319 191.507 275.632 191.744 275.864L192.023 276.03C191.986 275.996 191.416 275.534 191.04 274.986C190.772 274.483 190.73 273.917 191.409 273.518C191.445 273.496 191.488 273.513 191.542 273.549C191.815 274.199 192.016 275.937 192.023 276.03L192.126 276.01L192.108 275.897L193.295 273.823L193.423 274.037C193.441 274.067 193.459 274.098 193.483 274.139C195.785 278.271 195.733 283.402 193.619 288.757C190.597 296.379 183.322 304.509 173.209 310.462C163.083 316.421 152.422 318.846 144.227 317.825C138.482 317.095 133.926 314.675 131.395 310.679C131.358 310.646 131.34 310.615 131.321 310.584L131.194 310.371C131.255 310.473 131.321 310.557 131.4 310.634L131.407 310.644ZM190.797 275.376L190.889 275.529C191.149 275.966 191.634 276.231 192.15 276.243C191.622 276.238 191.131 275.963 190.87 275.498C192.819 278.93 192.658 283.218 190.883 287.686C188.048 294.826 181.18 302.374 171.709 307.947C162.226 313.529 152.262 315.887 144.595 314.927C139.81 314.32 135.932 312.408 133.838 309.062L133.765 308.94L133.747 308.909C131.792 305.467 131.972 301.182 133.734 296.722C136.563 289.571 143.437 282.033 152.92 276.453C162.391 270.879 172.349 268.511 180.022 269.481C184.82 270.08 188.679 271.989 190.779 275.345L190.797 275.376ZM131.976 308.605C131.896 308.417 131.806 308.32 131.721 308.37C130.945 308.826 131.109 309.486 131.485 310.034C131.71 310.466 132.087 310.849 132.341 311.084L132.371 311.08L132.456 311.085C132.426 311.09 132.39 311.083 132.341 311.084C132.28 311.065 132.214 311.063 132.159 311.054C132.22 311.073 132.287 311.075 132.341 311.084L132.383 311.128C132.414 311.152 132.463 311.178 132.499 311.212L132.59 311.282L132.571 311.169L132.566 311.076L132.468 311.078C132.419 311.052 131.85 310.59 131.485 310.034C131.218 309.532 131.163 308.973 131.842 308.573C131.879 308.552 131.933 308.561 131.976 308.605C132.249 309.256 132.45 310.993 132.468 311.078L132.541 310.953C132.45 310.278 132.231 308.867 131.976 308.605ZM192.126 276.01L192.138 276.113L192.144 276.233L192.053 276.163C192.017 276.13 191.98 276.096 191.95 276.072L191.908 276.028C191.944 276.035 191.992 276.033 192.023 276.03L192.126 276.01Z" fill="white"/>
<path d="M69.0962 363.99C78.8356 358.585 82.1723 346.609 76.5492 337.245C70.9261 327.882 58.4731 324.667 48.7345 330.079C38.9951 335.484 35.6583 347.461 41.2806 356.824C46.9037 366.188 59.3575 369.395 69.0962 363.99Z" fill="#000045"/>
<path fill-rule="evenodd" clip-rule="evenodd" d="M151.545 276.917C142.249 282.424 139.168 294.469 144.675 303.764C150.183 313.059 162.216 316.122 171.511 310.614C180.806 305.106 183.88 293.092 178.372 283.797C172.865 274.502 160.839 271.409 151.545 276.917ZM153.027 279.419C160.956 274.72 171.191 277.339 175.889 285.269C180.588 293.197 177.969 303.434 170.041 308.132C162.112 312.829 151.856 310.222 147.157 302.293C142.459 294.365 145.098 284.117 153.027 279.419Z" fill="white"/>
<path fill-rule="evenodd" clip-rule="evenodd" d="M27.7994 296.615L43.4709 320.482C43.9087 321.149 44.8488 321.383 45.5979 321.002C46.347 320.622 46.6099 319.777 46.1721 319.111L30.5013 295.244C30.0718 294.591 29.0999 294.355 28.3508 294.735C27.6016 295.116 27.3706 295.962 27.7994 296.615Z" fill="white"/>
<path fill-rule="evenodd" clip-rule="evenodd" d="M67.436 284.782L63.638 308.464C63.5105 309.258 63.9538 310.035 64.6067 310.195C65.2805 310.338 65.9329 309.818 66.0604 309.024L69.8608 285.33C69.9877 284.536 69.5439 283.759 68.8695 283.615C68.2171 283.455 67.5653 283.975 67.436 284.782Z" fill="white"/>
<path fill-rule="evenodd" clip-rule="evenodd" d="M1.9661 327.21L25.5588 335.204C26.349 335.47 27.2186 335.053 27.5066 334.277C27.7665 333.516 27.3438 332.661 26.5537 332.396L2.97422 324.402C2.17008 324.129 1.30187 324.545 1.04192 325.307C0.75399 326.082 1.17521 326.944 1.9661 327.21Z" fill="white"/>
<path fill-rule="evenodd" clip-rule="evenodd" d="M398.897 283.768C377.792 281.816 361.268 263.96 361.268 242.267C361.268 219.25 379.874 200.557 402.785 200.557C425.695 200.557 444.297 219.25 444.297 242.267C444.297 261.379 431.458 277.491 413.994 282.408L422.293 356.55C422.538 358.817 420.903 360.873 418.647 361.119C416.495 361.364 413.896 361.645 411.738 361.891C409.482 362.136 407.47 360.529 407.19 358.262L398.897 283.768ZM402.785 213.252C418.716 213.252 431.668 226.26 431.668 242.267C431.668 258.275 418.716 271.249 402.785 271.249C386.852 271.249 373.938 258.275 373.938 242.267C373.938 226.26 386.852 213.252 402.785 213.252Z" fill="white"/>
<path fill-rule="evenodd" clip-rule="evenodd" d="M397.543 285.098L405.761 358.498C406.105 361.569 408.858 363.768 411.92 363.452C414.077 363.213 416.691 362.897 418.848 362.651C421.91 362.3 424.103 359.545 423.759 356.474L415.577 283.457C433.126 278.01 445.863 261.599 445.863 242.219C445.863 218.37 426.541 198.991 402.765 198.991C378.987 198.991 359.701 218.37 359.701 242.219C359.701 264.287 376.237 282.515 397.543 285.098ZM400.293 283.632C400.223 282.933 399.666 282.41 398.969 282.34C378.569 280.419 362.589 263.17 362.589 242.219C362.589 219.976 380.589 201.889 402.765 201.889C424.943 201.889 442.941 219.976 442.941 242.219C442.941 260.691 430.548 276.264 413.629 281.013C412.928 281.222 412.48 281.886 412.585 282.584L420.866 356.784C421.041 358.287 419.997 359.615 418.498 359.756C416.375 359.995 413.734 360.311 411.604 360.557C410.112 360.698 408.788 359.651 408.648 358.182L400.293 283.632ZM402.765 211.736C385.985 211.736 372.372 225.388 372.372 242.219C372.372 259.049 385.985 272.703 402.765 272.703C419.542 272.703 433.154 259.049 433.154 242.219C433.154 225.388 419.542 211.736 402.765 211.736ZM402.765 214.634C417.945 214.634 430.268 226.995 430.268 242.219C430.268 257.444 417.945 269.769 402.765 269.769C387.586 269.769 375.262 257.444 375.262 242.219C375.262 226.995 387.586 214.634 402.765 214.634Z" fill="white"/>
<path fill-rule="evenodd" clip-rule="evenodd" d="M445.862 327.066C445.862 327.066 432.826 308.669 428.803 301.687C424.774 294.706 409.84 289.366 404.441 286.992C399.04 284.618 396.837 298.477 412.734 301.304L417.892 312.858L422.26 351.364L427.598 354.083L445.862 327.066Z" fill="white"/>
<path fill-rule="evenodd" clip-rule="evenodd" d="M447.187 326.949C447.535 326.474 447.5 325.819 447.152 325.344C447.152 325.344 434.118 307.363 430.069 300.548C428.343 297.602 424.815 294.93 420.737 292.636C414.961 289.416 408.184 286.95 404.897 285.546C403.652 284.999 402.512 285.067 401.579 285.478C400.645 285.889 399.884 286.676 399.4 287.738C398.847 289.005 398.673 290.684 399.123 292.499C400.057 296.164 403.584 300.547 411.677 302.157L416.451 312.603L420.841 350.176C420.876 350.651 421.182 351.065 421.6 351.272L426.958 353.939C427.619 354.249 428.412 354.042 428.795 353.463L447.187 326.949ZM444.215 326.164L427.132 350.824L423.604 349.08L419.283 312.054C419.283 311.917 419.248 311.781 419.178 311.643L413.994 300.308C413.785 299.863 413.403 299.554 412.922 299.485C404.449 298.013 401.509 293.355 401.751 290.102C401.821 289.177 402.098 288.423 402.72 288.115C402.997 287.944 403.377 287.979 403.757 288.15C407.008 289.52 413.646 291.951 419.317 295.136C422.88 297.122 426.095 299.417 427.584 301.986C431.14 307.98 441.62 322.573 444.215 326.164Z" fill="#000045"/>
<path fill-rule="evenodd" clip-rule="evenodd" d="M397.8 296.119C397.8 296.119 393.2 297.269 392.134 300.223C391.1 303.14 393.066 309.357 393.066 309.357C393.066 309.357 388.327 314.42 393.315 321.679C393.315 321.679 390.537 328.314 394.577 334.041C394.577 334.041 392.562 337.222 395.763 341.07C398.963 344.924 410.366 346.224 412.954 342.33C414.26 340.295 412.94 336.178 412.94 336.178C412.94 336.178 415.753 330.949 413.863 326.912C413.863 326.912 416.467 318.876 411.39 314.989C411.39 314.989 413.063 309.156 410.409 305.423L404.598 298.541L397.8 296.119Z" fill="white"/>
<path fill-rule="evenodd" clip-rule="evenodd" d="M398.344 293.077C398.043 292.961 397.716 292.956 397.401 293.058C397.401 293.058 395.496 293.563 393.727 294.735C392.433 295.576 391.211 296.803 390.677 298.397C390.197 299.807 390.253 301.885 390.512 303.834C390.762 305.677 391.181 307.396 391.414 308.308C390.212 310.109 387.589 315.202 391.64 321.962C391.04 323.993 389.751 329.789 392.865 335.097C392.321 336.578 391.722 339.757 394.569 343.403C396.714 346.143 402.133 347.926 406.793 347.811C410.149 347.746 413.041 346.61 414.295 344.589C414.984 343.482 415.158 341.921 415.093 340.462C415.006 339.21 414.752 338.016 414.614 337.348C415.259 335.809 416.948 331.163 415.484 327.244C415.781 326.179 416.289 323.547 416.02 320.769C415.796 318.421 414.984 315.986 413.099 314.082C413.447 312.075 414.02 307.103 411.729 303.622C411.693 303.59 411.693 303.553 411.649 303.485L405.807 296.177C405.64 295.977 405.408 295.819 405.147 295.701L398.344 293.077ZM397.761 296.04L403.699 298.351L409.25 305.293C411.541 308.809 410.004 314.231 410.004 314.231C409.844 314.821 410.047 315.412 410.511 315.763C412.208 317.182 412.831 319.169 413.048 321.051C413.338 324.108 412.49 326.92 412.49 326.92C412.374 327.251 412.411 327.646 412.548 327.956C413.201 329.401 413.172 331.055 412.947 332.479C412.592 334.773 411.678 336.542 411.678 336.542C411.497 336.923 411.461 337.283 411.57 337.664C411.57 337.664 411.997 339.102 412.106 340.634C412.15 341.49 412.128 342.389 411.715 343C411.381 343.611 410.729 343.993 409.997 344.28C409.054 344.618 407.909 344.798 406.72 344.841C403.039 344.935 398.654 343.734 396.925 341.569C394.409 338.354 395.823 335.744 395.823 335.744C396.138 335.248 396.116 334.644 395.817 334.169C392.143 328.704 394.678 322.322 394.678 322.322C394.852 321.875 394.805 321.376 394.549 320.969C390.214 314.272 394.182 309.625 394.182 309.625C394.506 309.235 394.634 308.685 394.478 308.197C394.478 308.197 393.826 305.925 393.479 303.446C393.3 301.955 393.185 300.386 393.552 299.31C393.861 298.384 394.628 297.7 395.411 297.195C396.296 296.609 397.237 296.234 397.761 296.04Z" fill="#000045"/>
<path fill-rule="evenodd" clip-rule="evenodd" d="M393.528 309.889L410.976 316.385C411.746 316.679 412.594 316.303 412.876 315.539C413.152 314.812 412.763 313.973 412.036 313.681L394.584 307.185C393.815 306.892 392.97 307.267 392.691 308.031C392.41 308.759 392.801 309.598 393.528 309.889Z" fill="#000045"/>
<path fill-rule="evenodd" clip-rule="evenodd" d="M395.129 321.247L412.792 327.381C413.503 327.64 414.266 327.16 414.477 326.271C414.688 325.414 414.28 324.54 413.575 324.273L395.907 318.106C395.201 317.883 394.435 318.362 394.222 319.215C394.011 320.107 394.422 320.984 395.129 321.247Z" fill="#000045"/>
<path fill-rule="evenodd" clip-rule="evenodd" d="M393.797 334.381L411.246 336.832C412.022 336.94 412.792 336.551 412.94 335.945C413.088 335.312 412.566 334.727 411.761 334.619L394.343 332.168C393.537 332.059 392.764 332.476 392.615 333.082C392.501 333.688 393.026 334.273 393.797 334.381Z" fill="#000045"/>
<path fill-rule="evenodd" clip-rule="evenodd" d="M417.807 315.375C417.807 315.375 421.905 324.244 431.273 328.87C431.988 329.214 432.841 328.939 433.184 328.222C433.528 327.505 433.253 326.643 432.538 326.305C424.092 322.123 420.406 314.177 420.406 314.177C420.062 313.458 419.21 313.149 418.487 313.491C417.772 313.834 417.463 314.656 417.807 315.375Z" fill="#000045"/>
<path fill-rule="evenodd" clip-rule="evenodd" d="M495.982 354.572C495.982 354.572 470.997 331.199 460.062 331.093C460.062 331.093 451.808 326.931 447.472 324.72C445.943 323.952 444.071 324.304 442.926 325.6C438.722 330.354 428.869 342.255 424.184 354.367C423.772 355.417 423.877 356.572 424.393 357.55C425.818 360.17 429.009 365.6 432.724 370.184C432.724 370.184 429.533 379.627 452.849 401.043C476.164 422.465 506.456 447.866 533.592 454.345L520.478 366.924L495.982 354.572Z" fill="#71B2EF"/>
<path fill-rule="evenodd" clip-rule="evenodd" d="M439.056 365.775C439.056 365.775 445.743 349.489 457.884 339.402C458.469 338.924 458.567 338.031 458.112 337.407C457.663 336.791 456.825 336.652 456.24 337.165C443.579 347.632 436.573 364.604 436.573 364.604C436.28 365.325 436.605 366.184 437.281 366.495C437.957 366.807 438.737 366.495 439.056 365.775Z" fill="#000045"/>
<path fill-rule="evenodd" clip-rule="evenodd" d="M524.191 291.59C524.191 291.59 521.488 262.752 510.349 243.385C510.349 243.385 490.912 239.935 467.347 250.64C467.347 250.64 457.904 266.238 474.429 276.837C474.429 276.837 479.073 284.302 488.83 288.492L491.568 299.831L510.349 313.351L524.191 291.59Z" fill="white"/>
<path fill-rule="evenodd" clip-rule="evenodd" d="M525.5 294.018C525.68 293.735 525.788 293.418 525.752 293.065C525.752 293.065 522.899 263.787 511.258 244.116C511.043 243.728 510.683 243.481 510.259 243.41C510.259 243.41 489.866 239.844 465.154 250.792C464.909 250.898 464.658 251.109 464.514 251.356C464.514 251.356 459.369 259.621 462.588 268.556C463.91 272.264 466.691 276.113 471.98 279.504C472.979 280.916 477.729 287.238 486.582 291.158L489.262 301.823C489.334 302.141 489.542 302.458 489.83 302.671L509.117 316.196C509.469 316.444 509.864 316.55 510.259 316.444C510.683 316.373 511.007 316.161 511.222 315.808L525.5 294.018ZM522.72 292.852L509.577 312.912L492.007 300.588L489.298 289.745C489.19 289.286 488.867 288.933 488.443 288.757C478.907 284.731 474.301 277.632 474.301 277.632C474.193 277.455 474.014 277.278 473.834 277.172C469.084 274.206 466.583 270.852 465.369 267.567C463.012 260.998 465.98 254.818 466.835 253.264C487.832 244.117 505.473 245.742 509.081 246.201C519.22 263.858 522.324 289.003 522.72 292.852Z" fill="#000045"/>
<path fill-rule="evenodd" clip-rule="evenodd" d="M475.552 277.043C474.878 274.885 474.25 269.734 474.753 266.385C474.853 265.645 474.476 264.937 473.903 264.808C473.355 264.68 472.803 265.162 472.702 265.87C472.129 269.701 472.853 275.593 473.627 278.04C473.853 278.748 474.451 279.071 474.979 278.781C475.501 278.523 475.773 277.719 475.552 277.043Z" fill="#000045"/>
<path fill-rule="evenodd" clip-rule="evenodd" d="M554.574 335.267C559.901 348.917 565.614 365.335 565.614 365.335L587.877 295.403C587.877 295.403 604.245 270.695 632.776 281.72C661.306 292.744 663.949 332.295 652.803 355.988C641.657 379.682 608.669 470.996 573.276 480.652C537.925 490.316 525.139 461.544 513.433 426.019C513.433 426.019 474.353 337.19 490.51 324.696C490.51 324.696 488.043 314.164 488.008 305.344C488.043 303.279 489.326 301.493 491.281 300.829C498.144 298.518 514.687 292.988 523.324 290.748C525.209 290.328 527.123 291.098 528.167 292.708C530.922 296.874 536.039 304.889 538.058 309.613C538.058 309.613 542.692 309.614 548.23 320.394C549.94 323.719 552.239 329.21 554.574 335.267Z" fill="#71B2EF"/>
<path fill-rule="evenodd" clip-rule="evenodd" d="M567.724 365.251C567.724 365.251 588.489 299.999 589.798 295.89C591.219 293.836 606.615 272.908 632.568 282.971C646.237 288.264 653.681 300.45 656.411 314.1C659.147 327.958 657.107 343.346 651.675 354.873C645.06 369.013 630.632 407.315 612.569 437.782C605.41 449.862 597.653 460.695 589.631 468.249C584.402 473.161 579.04 476.643 573.608 478.136C572.842 478.346 572.397 479.152 572.606 479.916C572.814 480.68 573.608 481.135 574.367 480.925C585.168 478.003 595.822 467.625 605.647 453.8C628.069 422.254 646.516 372.671 654.301 356.127C659.941 344.082 662.086 327.993 659.217 313.544C656.306 298.919 648.243 285.931 633.605 280.255C604.164 268.834 587.312 294.426 587.312 294.426C587.208 294.566 587.173 294.671 587.138 294.81L564.995 364.347C564.751 365.11 565.162 365.951 565.928 366.19C566.687 366.435 567.48 366.021 567.724 365.251Z" fill="black"/>
<path fill-rule="evenodd" clip-rule="evenodd" d="M513.115 424.097C513.115 424.097 499.098 389.03 492.339 359.883C492.147 359.114 491.419 358.62 490.724 358.832C490.021 359.044 489.581 359.813 489.773 360.617C496.59 389.94 510.703 425.255 510.703 425.255C510.99 426.024 511.781 426.341 512.452 426.024C513.115 425.671 513.403 424.831 513.115 424.097Z" fill="black"/>
<path fill-rule="evenodd" clip-rule="evenodd" d="M555.633 341.982C555.633 341.982 570.896 380.533 569.974 405.846C569.941 406.651 570.538 407.31 571.295 407.345C572.051 407.38 572.682 406.75 572.715 405.951C573.637 380.182 558.168 340.867 558.168 340.867C557.869 340.132 557.08 339.788 556.356 340.097C555.659 340.412 555.334 341.246 555.633 341.982Z" fill="#000045"/>
<path fill-rule="evenodd" clip-rule="evenodd" d="M494.847 322.662C494.847 322.662 516.382 314.574 530.72 312.97C531.525 312.903 532.089 312.202 532.019 311.434C531.913 310.665 531.179 310.13 530.403 310.23C515.783 311.835 493.796 320.054 493.796 320.054C493.027 320.355 492.674 321.156 492.956 321.858C493.239 322.594 494.114 322.924 494.847 322.662Z" fill="#000045"/>
<path fill-rule="evenodd" clip-rule="evenodd" d="M447.429 184.694C447.429 184.694 456.217 206.015 463.666 214.405C463.666 214.405 463.419 238.21 476.973 229.055C476.973 229.055 500.061 259.664 527.387 233.404L545.433 258.521L599.388 221.344L572.386 189.024L523.803 144.16L465.947 145.995L447.429 184.694Z" fill="white"/>
<path fill-rule="evenodd" clip-rule="evenodd" d="M446.011 183.036C445.842 183.402 445.807 183.864 445.955 184.232C445.955 184.232 454.628 205.471 462.144 214.389C462.165 216.046 462.377 221.04 463.759 225.213C464.915 228.693 466.946 231.551 470.02 232.172C471.776 232.551 473.94 232.211 476.577 230.648C479.574 234.204 490.228 245.421 504.4 245.401C511.289 245.4 519.038 242.805 527.154 235.347L544.259 259.458C544.718 260.144 545.613 260.276 546.29 259.82L600.321 222.102C600.674 221.853 600.886 221.508 600.928 221.079C601.013 220.67 600.886 220.26 600.618 219.965L573.563 187.115C573.514 187.063 573.472 187.041 573.422 186.988L524.771 141.434C524.51 141.17 524.143 141.01 523.755 141.028L465.789 142.902C465.261 142.929 464.753 143.23 464.527 143.753L446.011 183.036ZM448.923 183.709C448.923 183.709 464.168 151.354 466.798 145.805C466.798 145.805 517.141 144.198 523.226 144.002C523.226 144.002 569.354 187.167 571.37 189.06L597.36 220.581L545.804 256.576L528.571 232.263C528.324 231.925 527.929 231.702 527.527 231.657C527.09 231.623 526.681 231.787 526.371 232.058C518.502 239.717 511.042 242.462 504.4 242.454C488.917 242.474 478.079 227.848 478.079 227.848C477.6 227.205 476.74 227.062 476.091 227.508C473.806 229.064 472.051 229.585 470.605 229.281C468.483 228.846 467.341 226.677 466.53 224.3C464.993 219.622 465.035 213.855 465.035 213.855C465.056 213.466 464.915 213.131 464.689 212.856C458.054 205.287 450.383 187.233 448.923 183.709Z" fill="#000045"/>
<path fill-rule="evenodd" clip-rule="evenodd" d="M527.498 161.836C527.498 161.836 519.975 168.414 514.922 179.704C514.556 180.477 514.988 181.351 515.861 181.657C516.775 181.954 517.773 181.575 518.097 180.806C522.893 170.168 529.975 163.953 529.975 163.953C530.632 163.369 530.615 162.418 529.942 161.832C529.268 161.246 528.196 161.245 527.498 161.836Z" fill="#000045"/>
<path fill-rule="evenodd" clip-rule="evenodd" d="M529.303 172.353C529.303 172.353 523.475 170.813 519.45 170.792C518.611 170.787 517.934 171.497 517.926 172.38C517.919 173.257 518.603 173.975 519.442 173.98C523.158 174 528.56 175.443 528.56 175.443C529.391 175.658 530.216 175.141 530.414 174.291C530.613 173.437 530.135 172.568 529.303 172.353Z" fill="#000045"/>
<path d="M475.396 203.317C476.961 202.397 477.634 200.065 476.894 198.108C476.16 196.151 474.294 195.31 472.729 196.231C471.164 197.151 470.491 199.484 471.225 201.441C471.965 203.397 473.831 204.237 475.396 203.317Z" fill="#000045"/>
<path fill-rule="evenodd" clip-rule="evenodd" d="M506.603 163.28C506.603 163.28 524.643 227.89 522.57 230.254C520.379 232.737 496.255 166.394 496.255 166.394C493.642 167.538 490.846 168.583 487.643 169.477L473.93 147.725L479.958 172.624C479.958 172.624 462.922 183.065 443.26 190.438C443.26 190.438 411.142 138.515 454.268 101.288C497.393 64.0609 586.426 61.1113 588.421 177.726L564.6 198.624C564.6 198.624 545.717 199.507 529.665 186.329C529.665 186.329 534.196 184.102 537.463 178.733C539.844 174.838 540.294 167.935 535.468 161.267C524.031 145.359 506.603 163.28 506.603 163.28Z" fill="#000045"/>
<path fill-rule="evenodd" clip-rule="evenodd" d="M464.578 193.006C464.762 191.381 466.086 189.339 468.079 187.685C471.219 185.102 476.065 183.422 481.279 185.832C482.022 186.159 482.934 185.888 483.316 185.144C483.676 184.449 483.338 183.569 482.595 183.242C476.043 180.212 469.998 182.25 466.093 185.532C463.416 187.742 461.776 190.586 461.534 192.736C461.468 193.5 462.078 194.223 462.916 194.286C463.755 194.35 464.475 193.783 464.578 193.006Z" fill="#000045"/>
<path fill-rule="evenodd" clip-rule="evenodd" d="M537.079 179.367C537.079 179.367 533.717 185.206 523.687 188.283C522.875 188.535 522.451 189.348 522.695 190.112C522.939 190.874 523.773 191.334 524.542 191.093C536.016 187.57 539.68 180.796 539.68 180.796C540.061 180.08 539.817 179.196 539.091 178.823C538.394 178.401 537.475 178.687 537.079 179.367Z" fill="#000045"/>
<path fill-rule="evenodd" clip-rule="evenodd" d="M593.411 178.967C591.469 176.646 588.117 176.42 585.901 178.409C580.745 183.041 571.894 190.996 566.765 195.602C564.549 197.591 564.289 201.062 566.231 203.382C568.139 205.666 571.491 205.892 573.707 203.903C578.836 199.297 587.687 191.342 592.844 186.71C595.06 184.721 595.319 181.251 593.411 178.967Z" fill="white"/>
<path fill-rule="evenodd" clip-rule="evenodd" d="M593.031 177.939C590.553 174.985 586.274 174.667 583.451 177.194C578.246 181.854 569.307 189.858 564.137 194.492C561.314 197.019 560.976 201.471 563.454 204.425C565.904 207.342 570.218 207.633 573.035 205.106C578.212 200.472 587.15 192.468 592.355 187.808C595.178 185.281 595.482 180.857 593.031 177.939ZM590.885 179.862C592.293 181.539 592.134 184.109 590.484 185.583L571.171 202.881C569.521 204.355 567.036 204.154 565.635 202.477C564.193 200.762 564.358 198.191 566.001 196.717L585.314 179.42C586.964 177.945 589.449 178.147 590.885 179.862Z" fill="#000045"/>
<path fill-rule="evenodd" clip-rule="evenodd" d="M491.415 230.245C494.506 229.035 497.648 228.477 500.876 228.739C501.594 228.805 502.2 228.184 502.256 227.333C502.312 226.482 501.788 225.762 501.07 225.697C497.51 225.402 494.038 225.991 490.616 227.333C489.929 227.595 489.573 228.478 489.792 229.264C490.01 230.082 490.753 230.507 491.415 230.245Z" fill="#000045"/>
<path fill-rule="evenodd" clip-rule="evenodd" d="M570.726 203.865C570.726 203.865 561.321 241.106 597.398 277.32L642.561 242.207L636.102 231.065L647.023 236.96L663.617 224.697C663.617 224.697 641.017 179.758 591.633 185.378L570.726 203.865Z" fill="#000045"/>
<line x1="60.8814" y1="604.965" x2="755.873" y2="604.965" stroke="#000045" stroke-width="2"/>
</svg>
