<svg width="48" height="48" viewBox="0 0 48 48" fill="none" xmlns="http://www.w3.org/2000/svg">
<rect x="0.5" y="0.5" width="47" height="47" rx="4.5" fill="white" stroke="#D9D9D9"/>
<path d="M19.5533 20.1053H28.5483V32.0751H19.5533V20.1053Z" fill="#FBC791"/>
<path d="M30.8152 16.7062C30.8152 20.8142 27.8405 26.0554 24.0866 26.0554C20.4036 26.0554 17.358 20.8142 17.358 16.7062C17.358 12.5982 20.3328 10.3317 24.0866 10.3317C27.7696 10.3317 30.8152 12.5982 30.8152 16.7062Z" fill="#FFE0B2"/>
<path d="M31.7473 18.6426C31.9719 17.8121 31.7256 17.023 31.1971 16.8801C30.6687 16.7372 30.0582 17.2945 29.8336 18.125C29.609 18.9554 29.8553 19.7445 30.3838 19.8874C30.9122 20.0304 31.5227 19.473 31.7473 18.6426Z" fill="#FFE0B2"/>
<path d="M18.3484 18.171C18.1238 17.3406 17.5133 16.7832 16.9848 16.9262C16.4563 17.0691 16.21 17.8582 16.4346 18.6886C16.6592 19.5191 17.2697 20.0764 17.7982 19.9335C18.3267 19.7906 18.573 19.0015 18.3484 18.171Z" fill="#FFE0B2"/>
<path d="M17.7118 19.3267C17.7118 19.3267 14.8787 12.3148 20.0491 8.49009C25.2195 4.66542 29.0442 9.41084 29.0442 9.41084C29.0442 9.41084 33.6479 9.76498 30.4607 19.3267C30.4607 19.3267 30.6732 14.0854 28.2651 12.0314C28.2651 12.0314 27.4151 13.2355 21.6073 13.873C16.6494 14.3687 17.7118 19.3267 17.7118 19.3267Z" fill="#225D75"/>
<path d="M29.5398 28.6051V25.772C28.9024 25.7012 28.4774 25.7012 28.4774 25.7012L24.0861 29.1009L19.7657 25.7012C19.7657 25.7012 19.2699 25.7012 18.4908 25.8428V28.7467H16.5784V40.1499H30.3189V28.6051H29.5398Z" fill="#FFBE30"/>
<path d="M25.8567 39.8664L24.7235 31.2255H23.4486L22.3154 39.8664H25.8567Z" fill="#676767"/>
<path d="M28.6189 23.2212L30.1771 25.8418L26.4941 31.1539L24.086 29.029C24.086 29.0999 27.1316 26.4793 28.6189 23.2212Z" fill="#C49D49"/>
<path d="M19.5533 23.2212L17.9951 25.8418L21.6781 31.1539L24.0862 29.029C24.0862 29.0999 21.0406 26.4793 19.5533 23.2212Z" fill="#C49D49"/>
<path d="M24.7238 31.2264L25.5737 30.4473L24.0864 29.1016L22.599 30.4473L23.4489 31.2264H24.7238Z" fill="#525252"/>
<path d="M30.1773 25.9141L29.3982 27.0473L24.0862 38.9463L18.7742 27.0473L17.9951 25.9141C14.9495 26.6223 9 29.9512 9 33.9884V39.5837C9 40.3628 9.63744 41.0003 10.4165 41.0003H37.8267C38.6058 41.0003 39.2432 40.3628 39.2432 39.5837V33.9884C39.1724 29.8804 33.2229 26.6223 30.1773 25.9141Z" fill="#E3F2FF"/>
<path d="M30.3188 30.3046C29.8939 31.2962 29.823 32.5002 30.0355 33.7043C30.1772 34.4834 30.4605 35.1917 30.8146 35.8291V35.8999L31.4521 35.7583L31.3812 35.6874C31.0271 35.05 30.7438 34.3417 30.6021 33.6335C30.1772 31.367 30.9563 29.3838 32.302 29.1713H32.5145C33.7894 29.1005 35.1351 30.6587 35.4892 32.7835C35.6309 33.4918 35.6309 34.2709 35.4892 34.9792V35.05L36.1267 34.9084V34.8375C36.2683 34.1293 36.1975 33.3502 36.0558 32.5711C35.6309 30.1629 34.0018 28.3922 32.4436 28.4631C32.3728 28.4631 32.3728 28.4631 32.302 28.4631C32.0895 27.9673 31.5937 26.9757 31.0271 26.0549C30.7438 25.9841 30.4605 25.8425 30.1772 25.8425L30.1063 25.9133C30.8146 26.834 31.3812 28.0381 31.6645 28.6756C31.0979 28.9589 30.673 29.5255 30.3188 30.3046Z" fill="#CDCCCC"/>
<path d="M31.0273 36.537C31.3794 36.537 31.6648 36.2516 31.6648 35.8996C31.6648 35.5475 31.3794 35.2621 31.0273 35.2621C30.6753 35.2621 30.3899 35.5475 30.3899 35.8996C30.3899 36.2516 30.6753 36.537 31.0273 36.537Z" fill="#676767"/>
<path d="M35.8434 35.6881C36.1955 35.6881 36.4809 35.4027 36.4809 35.0507C36.4809 34.6986 36.1955 34.4132 35.8434 34.4132C35.4914 34.4132 35.206 34.6986 35.206 35.0507C35.206 35.4027 35.4914 35.6881 35.8434 35.6881Z" fill="#676767"/>
<path d="M14.0995 34.9091C14.5245 30.0929 16.366 27.8972 17.8534 25.9141C17.5701 25.9849 17.2159 26.1266 16.8618 26.1974C15.3744 28.3222 13.8871 30.3762 13.4621 34.8383L14.0995 34.9091Z" fill="#CDCCCC"/>
<path d="M13.7456 36.3244C14.528 36.3244 15.1622 35.6902 15.1622 34.9079C15.1622 34.1255 14.528 33.4913 13.7456 33.4913C12.9633 33.4913 12.3291 34.1255 12.3291 34.9079C12.3291 35.6902 12.9633 36.3244 13.7456 36.3244Z" fill="#CDCCCC"/>
<path d="M13.7452 35.6174C14.1364 35.6174 14.4535 35.3003 14.4535 34.9091C14.4535 34.518 14.1364 34.2009 13.7452 34.2009C13.354 34.2009 13.0369 34.518 13.0369 34.9091C13.0369 35.3003 13.354 35.6174 13.7452 35.6174Z" fill="#B4B4B4"/>
</svg>
