<svg width="48" height="48" viewBox="0 0 48 48" fill="none" xmlns="http://www.w3.org/2000/svg">
<rect x="0.5" y="0.5" width="47" height="47" rx="4.5" fill="white" stroke="#D9D9D9"/>
<path d="M12.0001 40.4609C12.8081 37.9287 13.3334 33.481 16.1588 32.4499L20.0948 30.7962C20.6574 30.5598 21.0232 30.01 21.0232 29.401V26.545H26.6035V29.424C26.6035 30.0328 26.969 30.5823 27.5311 30.8188L31.4066 32.4498C32.8634 32.9815 34.0175 34.1818 34.5148 35.6502L35.6639 40.4609" fill="#FFE0C5"/>
<path d="M35.6638 40.4609L34.5148 35.6502C34.0174 34.1819 32.8633 32.9815 31.4065 32.4499L27.531 30.8189C27.4007 30.764 27.2816 30.6918 27.1746 30.6064L23.8319 36.1307L20.468 30.5712C20.3568 30.6622 20.2317 30.7386 20.0947 30.7962L16.1588 32.4499C13.3334 33.481 12.8081 37.9286 12 40.4609H35.6638Z" fill="#E3F2FF"/>
<path d="M34.5148 35.6503C34.0174 34.1819 32.8632 32.9815 31.4065 32.4499L27.531 30.8189C27.4007 30.764 27.2816 30.6918 27.1746 30.6064L26.5974 31.5604L28.7108 32.4499C30.1676 32.9815 31.3217 34.1819 31.8191 35.6503L32.9681 40.4609H35.6639L34.5148 35.6503Z" fill="#CFE9FF"/>
<path d="M27.1746 30.6065C27.1588 30.5939 27.1434 30.5812 27.1282 30.5681C26.7788 30.8301 25.7526 31.4469 23.832 31.4469C21.8452 31.4469 20.8151 30.7867 20.5018 30.5421C20.4905 30.5519 20.4795 30.5618 20.468 30.5711L23.832 36.1307L27.1746 30.6065Z" fill="#FFBE30"/>
<path d="M34.28 23.2675C29.0251 23.2675 24.7651 19.0076 24.7651 13.7527V11.7575C24.7651 9.12998 26.8951 7 29.5225 7C32.15 7 34.28 9.12998 34.28 11.7575V23.2675Z" fill="#225D75"/>
<path d="M29.5225 7C29.0542 7 28.6021 7.0688 28.1747 7.1949C30.1455 7.77629 31.5842 9.59834 31.5842 11.7575V22.8796C32.439 23.1317 33.3435 23.2676 34.2799 23.2676V11.7575C34.28 9.12998 32.15 7 29.5225 7Z" fill="#124E66"/>
<path d="M23.8361 25.1789H23.6545C19.0985 25.1789 15.4051 21.4855 15.4051 16.9295V16.9287C15.4051 12.3237 19.1382 8.5905 23.7433 8.5905H23.7473C28.3523 8.5905 32.0855 12.3236 32.0855 16.9287V16.9295C32.0855 21.4855 28.3921 25.1789 23.8361 25.1789Z" fill="#225D75"/>
<path d="M25.9077 12.962C25.9077 12.7011 25.424 12.6656 25.3851 12.9236C25.1987 14.1574 24.0393 18.5951 17.6429 18.5951V23.6654C17.6429 24.5832 18.1235 25.4343 18.9104 25.9098L22.0424 27.8024C23.0894 28.4351 24.4012 28.4351 25.4482 27.8024L28.5802 25.9098C29.367 25.4343 29.8477 24.5832 29.8477 23.6654C29.8477 23.6654 29.8477 21.9102 29.8477 18.5951C29.8477 18.5951 28.4014 17.9006 27.2824 16.6657C26.4062 15.6987 25.9077 14.089 25.9077 12.962Z" fill="#FFE0C5"/>
<path d="M27.2824 16.6653C26.4061 15.6983 25.9078 14.0886 25.9078 12.9616C25.9078 12.7006 25.4241 12.6652 25.3851 12.9232C25.2986 13.4961 25.0018 14.7599 24.0686 15.9495C24.2228 16.2106 24.3951 16.4539 24.5867 16.6653C25.7058 17.9002 27.152 18.5947 27.152 18.5947V23.6649C27.152 24.5827 26.6714 25.4339 25.8845 25.9093L22.7525 27.802C22.6373 27.8716 22.5184 27.9323 22.3975 27.9865C23.3754 28.4257 24.5164 28.365 25.4482 27.802L28.5802 25.9093C29.3671 25.4339 29.8477 24.5827 29.8477 23.6649C29.8477 23.6649 29.8477 21.9098 29.8477 18.5947C29.8476 18.5947 28.4014 17.9002 27.2824 16.6653Z" fill="#FFD6B3"/>
<path d="M17.643 22.4397H16.9738C16.3443 22.4397 15.834 21.9297 15.834 21.3005V19.7335C15.834 19.1044 16.3444 18.5944 16.9738 18.5944H17.643V22.4397Z" fill="#FFE0C5"/>
<path d="M29.8477 18.5944H30.5168C31.1464 18.5944 31.6566 19.1044 31.6566 19.7335V21.3005C31.6566 21.9297 31.1463 22.4397 30.5168 22.4397H29.8477V18.5944Z" fill="#FFE0C5"/>
<path d="M21.0249 29.221C21.0074 29.2212 19.4496 29.2487 18.4723 30.4814C17.583 31.6031 17.4028 33.3713 17.9368 35.7366C17.9983 36.0089 17.8274 36.2795 17.5551 36.341C17.5177 36.3494 17.4802 36.3535 17.4434 36.3535C17.2123 36.3535 17.0038 36.1941 16.9508 35.9592C16.3441 33.2719 16.593 31.2132 17.6906 29.8402C18.9789 28.2286 20.9401 28.2101 21.0229 28.2101L21.0249 29.221Z" fill="#99CAF7"/>
<path d="M16.2573 41.0007C16.2557 41.0007 16.2542 41.0007 16.2526 41.0007C15.9734 40.9981 15.7492 40.7698 15.7517 40.4907L15.7733 38.1249C15.7609 36.6121 16.6398 35.7442 17.5173 35.5553C18.5459 35.3339 19.5526 35.9671 20.0816 37.1688L21.4832 40.2526C21.5987 40.5067 21.4863 40.8064 21.2322 40.9219C20.978 41.0373 20.6784 40.925 20.5629 40.6709L19.1589 37.5817C18.8241 36.8214 18.278 36.4259 17.7301 36.5436C17.2528 36.6464 16.7752 37.1738 16.7843 38.1204C16.7843 38.1235 16.7843 38.1267 16.7843 38.1298L16.7626 40.5C16.76 40.7774 16.5342 41.0007 16.2573 41.0007Z" fill="#225D75"/>
<path d="M26.6034 28.2094C26.6916 28.2094 28.7759 28.2296 30.0254 29.9826C31.198 31.6277 31.2027 34.1708 30.0395 37.5414C29.9673 37.7507 29.7713 37.8821 29.5617 37.8821C29.507 37.8821 29.4514 37.8731 29.3968 37.8543C29.1329 37.7632 28.9928 37.4755 29.0838 37.2116C30.1169 34.2182 30.1602 31.9248 29.2092 30.5793C28.2688 29.2488 26.618 29.2204 26.6014 29.2203L26.6034 28.2094Z" fill="#99CAF7"/>
<path d="M28.9314 40.4945C29.8274 40.4945 30.5538 39.7681 30.5538 38.872C30.5538 37.976 29.8274 37.2495 28.9314 37.2495C28.0354 37.2495 27.309 37.976 27.309 38.872C27.309 39.7681 28.0354 40.4945 28.9314 40.4945Z" fill="#225D75"/>
<path d="M25.0988 23.5134H22.5436C22.2645 23.5134 22.0382 23.7397 22.0382 24.0188C22.0382 24.298 22.2645 24.5243 22.5436 24.5243H25.0988C25.378 24.5243 25.6043 24.298 25.6043 24.0188C25.6043 23.7397 25.378 23.5134 25.0988 23.5134Z" fill="#F5C093"/>
</svg>
