<svg width="110" height="43" viewBox="0 0 110 43" fill="none" xmlns="http://www.w3.org/2000/svg">
<path d="M40.3732 15.533V27.1046C40.3732 28.111 39.592 28.929 38.6223 28.929H29.5415C28.126 28.929 26.8209 28.134 26.1224 26.8473C23.4707 21.953 19.6105 17.8675 14.969 15.0275C13.5581 14.1635 12.6758 12.6056 12.6758 10.8961V1.82903C12.6758 0.822605 13.4616 0 14.4267 0H25.502C26.4716 0 27.2529 0.822605 27.2529 1.82903V13.704H38.6223C39.592 13.704 40.3732 14.5266 40.3732 15.533Z" fill="#E9262A"/>
<path d="M2.28365 18.6993C1.83788 19.9539 2.40773 21.3326 3.56581 21.9024L2.68347 22.5734L1.9206 23.157L1.11638 20.078L0.587891 18.0697L1.76435 17.2241L2.26987 16.8611L4.8204 15.0367L5.28915 17.0679C4.47114 16.8611 3.62555 17.0863 3.01435 17.6194C2.86269 17.7526 2.72942 17.8997 2.60994 18.0651C2.48126 18.2581 2.36637 18.4695 2.28365 18.6993Z" fill="#1172BA"/>
<path d="M21.498 22.5596C18.6947 19.3336 15.8868 16.9301 12.1966 15.4641C12.1553 15.4457 12.1093 15.4273 12.0679 15.4136C11.2775 15.1056 10.4457 14.8391 9.56336 14.6139C9.55876 14.6139 9.54957 14.6093 9.54497 14.6093C8.08818 14.09 6.47055 13.8189 4.74721 13.8786H4.74262C4.42552 13.8878 4.10383 13.9108 3.78214 13.9476L3.67645 13.9568H3.68104C3.43748 13.9843 3.19391 14.0119 2.95035 14.0533C2.95035 14.0533 3.13877 14.0854 3.44207 14.1682C3.75457 14.2463 4.19115 14.3795 4.67368 14.5772C5.72147 15.0045 6.98525 15.7398 7.68837 16.9577C8.45583 18.2904 8.40068 19.7288 7.93193 20.942C7.88598 21.0707 7.83083 21.1948 7.77568 21.3142C7.72054 21.4337 7.6608 21.5486 7.59646 21.6635C7.52293 21.7922 7.4448 21.9163 7.36208 22.0358C6.92551 22.6837 6.37863 23.1938 5.82257 23.4834C5.75823 23.5155 5.6939 23.5477 5.62956 23.5753C5.1746 23.7775 4.69207 23.8878 4.20953 23.9199C2.56892 24.021 0.850178 23.226 0 21.999C0.510107 23.3868 1.36029 24.4346 2.45862 25.0964C2.86763 25.4503 3.29961 25.7765 3.75457 26.0844C4.43471 26.5486 5.17 26.953 5.94665 27.3069C7.92274 28.203 10.1838 28.7545 12.6746 28.9337C13.7683 29.0118 14.8482 29.067 15.9006 29.1313C15.9098 29.1313 15.9144 29.1313 15.9236 29.1313L16.6497 29.1727C16.9346 29.191 17.2104 29.214 17.4907 29.2324C20.8041 29.4897 23.5844 29.9999 24.8068 31.8381C25.7076 33.1938 25.6202 34.4162 25.6202 36.0798L25.6156 40.1514C25.6156 40.372 25.4364 40.5559 25.2204 40.5559H15.055C14.8345 40.5559 14.6598 40.3766 14.6598 40.1514C14.6598 40.1514 14.6598 35.1607 14.6598 33.396C14.6598 30.8133 12.6791 30.5927 12.6791 30.5927V40.1514C12.6791 41.4842 13.7453 42.5687 15.0596 42.5687H25.2296C26.5439 42.5687 27.6101 41.4842 27.6101 40.1514V34.2967C27.6055 30.3353 23.4971 24.8574 21.498 22.5596Z" fill="#1172BA"/>
<path d="M2.94405 18.6029C2.94864 18.5891 2.96243 18.5615 2.97622 18.5432C2.98541 18.5432 2.99 18.5477 2.9946 18.5569C2.9946 18.5661 2.99 18.5707 2.96703 18.6167C2.89809 18.7454 2.84295 18.8786 2.80159 19.0211C2.79239 19.0487 2.7878 19.0625 2.7832 19.0854C2.7878 19.0625 2.79699 19.0303 2.79699 19.0211C2.83375 18.874 2.87971 18.7362 2.94405 18.6029Z" fill="#FBA919"/>
<path d="M2.96771 18.6304C2.97691 18.6166 2.99069 18.5891 2.99988 18.5799C3.00448 18.5937 3.00907 18.612 3.00907 18.6304C3.00907 18.6396 2.99988 18.6534 2.97691 18.6902C2.90797 18.8005 2.84823 18.9153 2.79768 19.0394C2.78849 19.0624 2.78849 19.0624 2.7793 19.0946C2.7793 19.0946 2.7793 19.0946 2.7793 19.09C2.78389 19.067 2.79308 19.0348 2.79768 19.0256C2.84363 18.8878 2.90338 18.7545 2.96771 18.6304Z" fill="#FBA919"/>
<path d="M2.98081 18.7086C2.99 18.6994 3.00379 18.6718 3.01298 18.6718C3.01298 18.6994 3.01298 18.7224 3.01298 18.7545C3.00839 18.7637 2.99919 18.7775 2.98081 18.8051C2.91188 18.8878 2.84754 18.9705 2.80159 19.0624C2.79699 19.0762 2.7878 19.09 2.7832 19.1038V19.0992C2.7878 19.0808 2.80159 19.0532 2.80159 19.0441C2.85214 18.9246 2.91188 18.8143 2.98081 18.7086Z" fill="#FBA919"/>
<path d="M2.97817 18.8372C2.99196 18.8234 3.00115 18.8143 3.01034 18.8189C3.01034 18.8189 3.01034 18.8189 3.01034 18.8234C3.00574 18.8556 3.00574 18.8924 3.00115 18.9337C2.99655 18.9475 2.98736 18.9567 2.96898 18.9705C2.90005 19.0119 2.8449 19.0578 2.80354 19.1084C2.79894 19.1176 2.78975 19.1222 2.78516 19.1313C2.78516 19.1268 2.78516 19.1268 2.78516 19.1222C2.78975 19.1176 2.79435 19.1038 2.80354 19.0808C2.8449 18.9889 2.90464 18.9062 2.97817 18.8372Z" fill="#FBA919"/>
<path d="M2.96243 18.9981C2.98081 18.9889 2.99 18.9935 2.99 19.0026C2.98541 19.044 2.97622 19.0808 2.97162 19.1221C2.96703 19.1359 2.95324 19.1359 2.93945 19.1359C2.87971 19.1313 2.82916 19.1313 2.79699 19.1313C2.7878 19.1313 2.7878 19.1313 2.7832 19.1313C2.7832 19.1267 2.7832 19.1221 2.7832 19.1221C2.7832 19.1221 2.7878 19.1129 2.80159 19.1037C2.83835 19.067 2.8935 19.0302 2.96243 18.9981Z" fill="#FBA919"/>
<path d="M2.93164 19.1773C2.95002 19.1819 2.95462 19.1911 2.95462 19.2003C2.94543 19.2417 2.93624 19.2784 2.92704 19.3152C2.92245 19.3244 2.91326 19.3244 2.89947 19.3106C2.84892 19.2646 2.81216 19.2141 2.78458 19.1681C2.77999 19.1589 2.77539 19.1497 2.77539 19.1451C2.77539 19.1406 2.77539 19.136 2.77539 19.136C2.77999 19.136 2.78458 19.136 2.78918 19.136C2.82594 19.1543 2.8719 19.1635 2.93164 19.1773Z" fill="#FBA919"/>
<path d="M2.88902 19.3519C2.89821 19.3657 2.9074 19.3795 2.9074 19.3933C2.89821 19.4301 2.88902 19.4622 2.87523 19.4944C2.87063 19.499 2.86144 19.4944 2.85225 19.4714C2.81089 19.3841 2.78791 19.2968 2.77413 19.2095C2.77413 19.2049 2.76953 19.1865 2.76953 19.1681C2.76953 19.1635 2.76953 19.1635 2.77413 19.1589C2.77872 19.1681 2.77872 19.1727 2.78332 19.1819C2.8063 19.2371 2.84306 19.2922 2.88902 19.3519Z" fill="#FBA919"/>
<path d="M2.84375 19.499C2.85294 19.5266 2.85754 19.545 2.85754 19.5541C2.84834 19.5817 2.83456 19.6093 2.82537 19.6369C2.82537 19.6369 2.82537 19.6369 2.82077 19.6369C2.81618 19.6277 2.81158 19.6139 2.80698 19.5955C2.77941 19.476 2.76563 19.3565 2.76563 19.2325C2.76563 19.2233 2.76563 19.2003 2.76563 19.1773C2.76563 19.1727 2.76562 19.1727 2.77022 19.1681C2.77022 19.1819 2.77482 19.1957 2.77482 19.2095C2.78401 19.3106 2.80699 19.4071 2.84375 19.499Z" fill="#FBA919"/>
<path d="M2.79773 19.6185C2.80692 19.6552 2.80692 19.6736 2.80692 19.6828C2.79773 19.7012 2.78854 19.715 2.77935 19.7288L2.77475 19.7334C2.77016 19.7288 2.77016 19.7288 2.76097 19.6782C2.74718 19.5404 2.74258 19.3979 2.75637 19.2554C2.75637 19.2462 2.76097 19.2187 2.76097 19.1911V19.1865C2.76097 19.2049 2.76097 19.2233 2.76097 19.2416C2.76097 19.3657 2.77475 19.4944 2.79773 19.6185Z" fill="#FBA919"/>
<path d="M2.75183 19.6874C2.75643 19.7288 2.75643 19.7426 2.75643 19.7517C2.74724 19.7609 2.73804 19.7655 2.73345 19.7655C2.73345 19.7609 2.72885 19.7517 2.72426 19.7012C2.71966 19.5541 2.72426 19.4071 2.74724 19.2554C2.74724 19.2416 2.75183 19.2187 2.75643 19.1911C2.75643 19.1911 2.75643 19.1911 2.76102 19.1865C2.75643 19.2095 2.75643 19.2324 2.75183 19.2508C2.73804 19.4025 2.73804 19.5449 2.75183 19.6874Z" fill="#FBA919"/>
<path d="M3.3403 18.0192C3.37247 17.9871 3.38626 17.9779 3.39085 17.9733C3.40464 17.9733 3.41843 17.9871 3.42762 18.0008C3.42762 18.01 3.41383 18.0238 3.38626 18.0514C3.28515 18.1479 3.19324 18.2582 3.11052 18.3731C3.08295 18.4098 3.07835 18.419 3.07376 18.419C3.06457 18.4098 3.05997 18.4007 3.05078 18.4007C3.05078 18.3961 3.05538 18.3869 3.08295 18.3455C3.15648 18.2352 3.24379 18.1249 3.3403 18.0192Z" fill="#FBA919"/>
<path d="M3.39648 18.079C3.41486 18.0652 3.43325 18.0468 3.44703 18.0468C3.45622 18.0744 3.46082 18.1065 3.46542 18.1479C3.46542 18.1617 3.44703 18.1801 3.41946 18.203C3.31376 18.2858 3.22185 18.3777 3.13454 18.4788C3.10696 18.5063 3.10237 18.5155 3.09777 18.5155C3.09318 18.488 3.08858 18.4696 3.08398 18.4512C3.08398 18.4466 3.08858 18.4328 3.11615 18.3915C3.20347 18.2812 3.29538 18.1755 3.39648 18.079Z" fill="#FBA919"/>
<path d="M3.42325 18.249C3.45082 18.226 3.46921 18.226 3.4738 18.2352C3.4738 18.2858 3.4738 18.3409 3.4738 18.4006C3.46921 18.419 3.45542 18.4374 3.42325 18.4558C3.31755 18.5155 3.22105 18.5799 3.13833 18.6534C3.11994 18.6718 3.10616 18.6764 3.10156 18.6718C3.10156 18.6718 3.10156 18.6718 3.10156 18.6672C3.10156 18.6304 3.10156 18.5983 3.10156 18.5661C3.10156 18.5569 3.11535 18.5339 3.13833 18.5109C3.22105 18.419 3.31755 18.3317 3.42325 18.249Z" fill="#FBA919"/>
<path d="M3.41946 18.5201C3.44703 18.5063 3.46542 18.5109 3.46542 18.5293C3.46082 18.5983 3.45163 18.6718 3.44244 18.7499C3.43784 18.7729 3.41946 18.7867 3.39189 18.7959C3.29078 18.8234 3.19887 18.851 3.11615 18.8878C3.08858 18.897 3.08398 18.8878 3.08398 18.8832C3.08858 18.8372 3.09318 18.7913 3.09777 18.7499C3.10237 18.7361 3.11615 18.7223 3.13913 18.6994C3.22185 18.635 3.31376 18.5753 3.41946 18.5201Z" fill="#FBA919"/>
<path d="M3.3804 18.8786C3.40797 18.874 3.42176 18.8878 3.42176 18.9062C3.40797 18.9889 3.39418 19.067 3.3804 19.1497C3.37121 19.1727 3.35742 19.1819 3.32985 19.1819C3.23334 19.1681 3.15062 19.1589 3.0725 19.1497C3.05411 19.1451 3.04492 19.1359 3.04492 19.1221C3.05411 19.0716 3.0633 19.021 3.0679 18.9751C3.0725 18.9613 3.08628 18.9475 3.10466 18.9429C3.19198 18.9199 3.28389 18.897 3.3804 18.8786Z" fill="#FBA919"/>
<path d="M3.31261 19.2646C3.34019 19.2738 3.34938 19.2876 3.34938 19.3106C3.33099 19.3933 3.31261 19.4714 3.28963 19.5495C3.28044 19.5679 3.26666 19.5725 3.23908 19.5633C3.15177 19.5128 3.07364 19.4622 3.00931 19.4163C2.99092 19.4025 2.98633 19.3887 2.98633 19.3749C3.00011 19.3289 3.00931 19.2784 3.0185 19.2324C3.02309 19.2186 3.03688 19.214 3.05526 19.2186C3.13339 19.2278 3.21611 19.2462 3.31261 19.2646Z" fill="#FBA919"/>
<path d="M3.2254 19.6369C3.24838 19.6553 3.25757 19.6737 3.25757 19.6966C3.23919 19.7702 3.21621 19.8391 3.19783 19.908C3.18864 19.9264 3.17485 19.9218 3.15188 19.8988C3.07375 19.8161 3.00941 19.7288 2.95427 19.6461C2.93129 19.6185 2.92669 19.6001 2.93129 19.5863C2.94508 19.545 2.95886 19.5036 2.96805 19.4577C2.97265 19.4531 2.97724 19.4439 3.00022 19.4623C3.06456 19.522 3.13809 19.5771 3.2254 19.6369Z" fill="#FBA919"/>
<path d="M3.12523 19.9632C3.14821 19.9907 3.1528 20.0137 3.14821 20.0321C3.12523 20.0918 3.10685 20.147 3.08387 20.1975C3.07468 20.2067 3.06089 20.1975 3.04251 20.17C2.97357 20.0597 2.91843 19.9448 2.87707 19.8299C2.86788 19.7977 2.86328 19.7747 2.86328 19.7655C2.87707 19.7334 2.89085 19.7012 2.90464 19.6644C2.90464 19.6644 2.90464 19.6644 2.90464 19.6599C2.90924 19.6599 2.91383 19.6599 2.93221 19.6874C2.98736 19.7793 3.0517 19.8712 3.12523 19.9632Z" fill="#FBA919"/>
<path d="M3.02206 20.2159C3.04044 20.2481 3.04504 20.271 3.04044 20.2848C3.02206 20.3216 3.00368 20.3538 2.98529 20.3767C2.98529 20.3859 2.98529 20.3859 2.9807 20.3905C2.9761 20.3905 2.96691 20.3905 2.94393 20.3446C2.88879 20.2159 2.84283 20.0826 2.80607 19.9494C2.80147 19.9356 2.79688 19.9034 2.79688 19.885C2.80147 19.8804 2.80147 19.8758 2.80147 19.8758C2.81066 19.862 2.82445 19.8391 2.83364 19.8207H2.83824C2.84283 19.8299 2.84743 19.8391 2.85662 19.862C2.90257 19.9815 2.95772 20.101 3.02206 20.2159Z" fill="#FBA919"/>
<path d="M2.92592 20.3676C2.9397 20.4043 2.9489 20.4273 2.9443 20.4319C2.92592 20.4503 2.91213 20.4549 2.89375 20.4549C2.88915 20.4503 2.88456 20.4411 2.86618 20.3951C2.81562 20.2619 2.77886 20.124 2.75588 19.9815C2.75588 19.9678 2.74669 19.9356 2.75129 19.9172C2.76048 19.9172 2.76967 19.9126 2.78346 19.9034C2.78805 19.908 2.78805 19.9126 2.80184 19.9632C2.82941 20.101 2.87077 20.2389 2.92592 20.3676Z" fill="#FBA919"/>
<path d="M3.88798 17.6011C3.92015 17.5827 3.94313 17.5735 3.95232 17.5735C3.9707 17.5781 3.98908 17.5919 4.00287 17.6148C4.00287 17.624 3.98908 17.6378 3.95232 17.6562C3.82824 17.7205 3.70875 17.7941 3.59846 17.8814C3.57089 17.8998 3.5571 17.909 3.54331 17.9136C3.52953 17.8952 3.51574 17.8814 3.50195 17.8814C3.50195 17.8768 3.50655 17.8722 3.54331 17.84C3.64901 17.7435 3.7639 17.6654 3.88798 17.6011Z" fill="#FBA919"/>
<path d="M3.96691 17.6838C4.00367 17.6654 4.02206 17.6654 4.03125 17.6746C4.04044 17.7114 4.04963 17.7573 4.05882 17.817C4.05882 17.8354 4.04044 17.8492 4.00367 17.8676C3.875 17.9181 3.75551 17.9825 3.64062 18.056C3.60846 18.0744 3.59007 18.079 3.58548 18.0698C3.58088 18.0238 3.57169 17.9871 3.5625 17.9595C3.5625 17.9503 3.58088 17.9319 3.60846 17.909C3.72334 17.8216 3.84283 17.7481 3.96691 17.6838Z" fill="#FBA919"/>
<path d="M4.00149 17.9319C4.03826 17.9181 4.05664 17.9227 4.06123 17.9411C4.06583 18.0101 4.06123 18.0882 4.06123 18.1709C4.05664 18.1939 4.03826 18.2123 4.00149 18.2261C3.87282 18.2582 3.75333 18.2996 3.63844 18.3501C3.60627 18.3639 3.59249 18.3593 3.58789 18.3409C3.59249 18.272 3.59249 18.2123 3.58789 18.1617C3.59249 18.1433 3.60627 18.1249 3.63844 18.1066C3.75333 18.0376 3.87741 17.9779 4.00149 17.9319Z" fill="#FBA919"/>
<path d="M3.99655 18.3179C4.03331 18.3133 4.0517 18.3225 4.0517 18.3501C4.04251 18.4466 4.03331 18.5477 4.01953 18.658C4.01034 18.6902 3.99195 18.7086 3.95519 18.7131C3.83111 18.7223 3.71163 18.7361 3.59674 18.7545C3.56457 18.7591 3.55078 18.7453 3.55078 18.7223C3.55997 18.635 3.56916 18.5569 3.57376 18.4788C3.57835 18.4558 3.59674 18.4374 3.62891 18.4236C3.74839 18.3823 3.86787 18.3501 3.99655 18.3179Z" fill="#FBA919"/>
<path d="M3.93934 18.8326C3.9715 18.8372 3.98989 18.851 3.98989 18.8832C3.9715 18.9981 3.95312 19.113 3.93014 19.2233C3.92095 19.2554 3.89798 19.2692 3.86581 19.2646C3.74632 19.2462 3.63143 19.2279 3.52574 19.2095C3.49816 19.2049 3.48438 19.1865 3.48438 19.1635C3.50276 19.0762 3.51654 18.9843 3.53033 18.897C3.53493 18.874 3.55331 18.8556 3.58548 18.851C3.70037 18.8418 3.81526 18.8326 3.93934 18.8326Z" fill="#FBA919"/>
<path d="M3.84099 19.3841C3.87316 19.3933 3.88695 19.4162 3.88695 19.4484C3.86397 19.5587 3.83639 19.6736 3.81342 19.7793C3.80423 19.8069 3.78125 19.8161 3.74908 19.8069C3.63419 19.7609 3.52849 19.7104 3.42739 19.6598C3.39982 19.646 3.39062 19.623 3.39062 19.6001C3.4136 19.5173 3.43199 19.43 3.45037 19.3427C3.45956 19.3197 3.47794 19.3105 3.50551 19.3151C3.61121 19.3335 3.72151 19.3565 3.84099 19.3841Z" fill="#FBA919"/>
<path d="M3.71771 19.9126C3.74988 19.931 3.75907 19.954 3.75448 19.9815C3.7269 20.0826 3.69933 20.1837 3.66716 20.2756C3.65797 20.2986 3.63499 20.3032 3.60282 20.2848C3.49713 20.2113 3.39602 20.1332 3.30411 20.0551C3.28114 20.0321 3.27194 20.0091 3.27654 19.9861C3.29952 19.9126 3.32249 19.8345 3.34547 19.7563C3.35466 19.738 3.37305 19.7334 3.40062 19.7472C3.50172 19.8023 3.60742 19.8574 3.71771 19.9126Z" fill="#FBA919"/>
<path d="M3.57662 20.3814C3.60419 20.4043 3.61798 20.4273 3.61339 20.4549C3.58122 20.5376 3.55364 20.6157 3.52147 20.6893C3.51228 20.7077 3.48931 20.7031 3.46173 20.6801C3.36063 20.5882 3.27331 20.4871 3.19059 20.386C3.16762 20.3538 3.16302 20.3308 3.16762 20.3124C3.19059 20.2573 3.21357 20.1975 3.23655 20.1286C3.24574 20.1148 3.25953 20.1148 3.2871 20.1378C3.36982 20.2205 3.47092 20.3032 3.57662 20.3814Z" fill="#FBA919"/>
<path d="M3.43338 20.7444C3.46096 20.772 3.47015 20.795 3.46555 20.8134C3.43798 20.8639 3.415 20.9099 3.38743 20.9466C3.38283 20.9512 3.37824 20.9558 3.37824 20.9604C3.36905 20.9696 3.35066 20.9558 3.32309 20.9282C3.23118 20.8226 3.14846 20.7077 3.07493 20.5882C3.05655 20.556 3.04736 20.533 3.05195 20.5192C3.05655 20.5146 3.05655 20.5101 3.06114 20.5055C3.07953 20.4779 3.1025 20.4411 3.12089 20.4044C3.13008 20.3952 3.14386 20.4044 3.16684 20.4319C3.24497 20.5422 3.33228 20.6479 3.43338 20.7444Z" fill="#FBA919"/>
<path d="M3.29515 20.9604C3.31813 20.9925 3.33191 21.0109 3.32732 21.0201C3.30434 21.0431 3.28136 21.0523 3.25838 21.0523C3.24919 21.0477 3.23541 21.0339 3.20783 21.0017C3.12052 20.8914 3.04699 20.772 2.97806 20.6479C2.97346 20.6341 2.95508 20.6065 2.95508 20.5927C2.97346 20.5927 2.99184 20.5835 3.01022 20.5652C3.01482 20.5652 3.02401 20.5697 3.05158 20.6111C3.12052 20.7352 3.20324 20.8547 3.29515 20.9604Z" fill="#FBA919"/>
<path d="M4.53171 17.3758C4.56847 17.3712 4.59604 17.3666 4.60524 17.3666C4.62821 17.3712 4.65119 17.385 4.66957 17.4172C4.66957 17.4218 4.66498 17.431 4.61443 17.4402C4.47656 17.4631 4.33869 17.4999 4.20542 17.5459C4.16866 17.5597 4.14568 17.5597 4.14108 17.5551C4.1273 17.5275 4.10892 17.5137 4.08594 17.5137C4.09053 17.5091 4.09513 17.5045 4.13649 17.4907C4.25597 17.4356 4.39384 17.3988 4.53171 17.3758Z" fill="#FBA919"/>
<path d="M4.63017 17.4769C4.67153 17.4723 4.69451 17.4769 4.6991 17.4861C4.71289 17.5321 4.72208 17.5872 4.73127 17.6562C4.73127 17.6745 4.70829 17.6883 4.67153 17.6929C4.52906 17.7113 4.3912 17.7389 4.25793 17.7756C4.22116 17.7848 4.19818 17.7802 4.19359 17.7665C4.18899 17.7067 4.1798 17.6562 4.16602 17.6194C4.16602 17.6056 4.1844 17.5964 4.22116 17.5826C4.34984 17.5321 4.4877 17.4953 4.63017 17.4769Z" fill="#FBA919"/>
<path d="M4.67647 17.7711C4.71783 17.7711 4.73621 17.7803 4.7408 17.8033C4.7454 17.886 4.7408 17.9779 4.7408 18.079C4.73621 18.1066 4.71323 18.125 4.67647 18.1296C4.53401 18.1342 4.39614 18.148 4.26287 18.1709C4.2261 18.1755 4.20772 18.1663 4.20312 18.1388C4.20772 18.0469 4.20772 17.9687 4.20312 17.8952C4.20772 17.8722 4.2261 17.8584 4.26287 17.8446C4.39614 17.8125 4.53401 17.7849 4.67647 17.7711Z" fill="#FBA919"/>
<path d="M4.66831 18.2398C4.70508 18.2444 4.72806 18.2582 4.72806 18.2904C4.71887 18.4052 4.70508 18.5293 4.69129 18.658C4.6821 18.6948 4.65912 18.7131 4.62236 18.7131C4.48449 18.704 4.34663 18.6994 4.21335 18.704C4.17659 18.6994 4.15821 18.6856 4.1628 18.6534C4.17659 18.5385 4.19038 18.4282 4.19497 18.3271C4.19957 18.2995 4.22255 18.2812 4.25931 18.272C4.38799 18.2536 4.52585 18.2398 4.66831 18.2398Z" fill="#FBA919"/>
<path d="M4.59644 18.8556C4.6332 18.8648 4.65158 18.8832 4.65158 18.9246C4.6332 19.0578 4.61022 19.1957 4.58265 19.3336C4.57346 19.3703 4.54589 19.3887 4.50912 19.3841C4.37125 19.3565 4.23798 19.3336 4.10931 19.3106C4.07254 19.3014 4.05876 19.2784 4.06335 19.2463C4.08633 19.1268 4.10471 19.0073 4.1231 18.8878C4.13229 18.8556 4.15526 18.8372 4.19203 18.8372C4.3207 18.8372 4.45398 18.8418 4.59644 18.8556Z" fill="#FBA919"/>
<path d="M4.48064 19.522C4.5174 19.5357 4.53578 19.5587 4.53119 19.5955C4.50362 19.7288 4.47145 19.862 4.43928 19.9907C4.42549 20.0229 4.40251 20.0367 4.36575 20.0275C4.23248 19.9861 4.1038 19.9401 3.97972 19.8942C3.94755 19.8804 3.93377 19.8528 3.93836 19.8207C3.96594 19.7058 3.99351 19.5909 4.01649 19.476C4.02568 19.4438 4.04866 19.43 4.08542 19.4346C4.2141 19.4622 4.34737 19.4944 4.48064 19.522Z" fill="#FBA919"/>
<path d="M4.3354 20.1608C4.37216 20.1745 4.38595 20.2021 4.38135 20.2343C4.34918 20.3584 4.31242 20.4733 4.28025 20.5835C4.26646 20.6111 4.24349 20.6203 4.20672 20.6065C4.07805 20.5514 3.95397 20.487 3.83448 20.4227C3.80231 20.3997 3.78853 20.3767 3.79772 20.3492C3.82989 20.2527 3.85746 20.147 3.88963 20.0413C3.89882 20.0137 3.9218 20.0045 3.95856 20.0137C4.07345 20.0643 4.20213 20.1148 4.3354 20.1608Z" fill="#FBA919"/>
<path d="M4.16413 20.7214C4.20089 20.7398 4.21468 20.7627 4.20549 20.7949C4.16872 20.896 4.13196 20.9879 4.09979 21.0706C4.086 21.0936 4.06302 21.0936 4.02626 21.0798C3.90218 21.0109 3.78269 20.9374 3.6724 20.85C3.64483 20.8271 3.63104 20.7995 3.63564 20.7811C3.66781 20.7076 3.69997 20.6249 3.73214 20.5376C3.74593 20.5146 3.76431 20.5146 3.79648 20.5284C3.91137 20.5973 4.03545 20.6616 4.16413 20.7214Z" fill="#FBA919"/>
<path d="M3.98906 21.158C4.02123 21.181 4.03502 21.1993 4.03042 21.2223C3.99825 21.2821 3.97068 21.3372 3.93851 21.3786C3.93391 21.3832 3.92932 21.3924 3.92472 21.397C3.91094 21.4061 3.88796 21.4015 3.85579 21.3832C3.73631 21.3096 3.62142 21.2223 3.51572 21.1258C3.48815 21.0982 3.47895 21.0799 3.48355 21.0661C3.48815 21.0615 3.49274 21.0569 3.49274 21.0523C3.52031 21.0155 3.54789 20.9696 3.57087 20.9144C3.58465 20.9006 3.60303 20.9052 3.6352 20.9236C3.7455 21.0109 3.86498 21.089 3.98906 21.158Z" fill="#FBA919"/>
<path d="M3.81836 21.4199C3.85053 21.4429 3.86431 21.4567 3.85972 21.4659C3.83214 21.4935 3.80457 21.5073 3.777 21.5073C3.76781 21.5027 3.74483 21.4935 3.71266 21.4705C3.59317 21.3924 3.48748 21.3051 3.38637 21.2039C3.36799 21.1856 3.3542 21.1718 3.34961 21.1626C3.37259 21.1626 3.39556 21.1488 3.42314 21.1258C3.43233 21.1212 3.45071 21.1304 3.48288 21.158C3.58858 21.2591 3.69887 21.3464 3.81836 21.4199Z" fill="#FBA919"/>
<path d="M4.82744 17.3437H4.98368C5.08479 17.3529 5.22265 17.3667 5.31916 17.385C5.34214 17.3896 5.36512 17.408 5.3789 17.4356V17.4402C5.36971 17.4448 5.35592 17.4448 5.32376 17.4402C5.1767 17.4172 5.03424 17.408 4.89177 17.4126C4.85041 17.4126 4.82743 17.408 4.81824 17.4034C4.79986 17.3759 4.77688 17.3575 4.75391 17.3529C4.7585 17.3529 4.7631 17.3529 4.80446 17.3483C4.81365 17.3437 4.81824 17.3437 4.82744 17.3437Z" fill="#FBA919"/>
<path d="M5.34202 17.4815C5.38338 17.4907 5.40636 17.4999 5.41555 17.5137C5.42934 17.5597 5.44313 17.6194 5.44772 17.6929C5.44772 17.7113 5.42474 17.7205 5.38338 17.7159C5.23633 17.6929 5.09386 17.6791 4.94681 17.6791C4.90545 17.6791 4.88247 17.6654 4.87787 17.647C4.86868 17.578 4.85949 17.5183 4.8457 17.4723C4.8457 17.4586 4.86409 17.454 4.90545 17.4494C5.0525 17.4448 5.19497 17.454 5.34202 17.4815Z" fill="#FBA919"/>
<path d="M5.38959 17.7941C5.43095 17.8032 5.45393 17.8216 5.45852 17.8446C5.46312 17.9319 5.46312 18.0284 5.45852 18.1387C5.45393 18.1663 5.43095 18.1801 5.38959 18.1755C5.24253 18.1479 5.10007 18.1341 4.95301 18.1249C4.91165 18.1203 4.89327 18.102 4.88867 18.0744C4.89327 17.9687 4.89327 17.8768 4.88867 17.7941C4.89327 17.7711 4.91165 17.7573 4.95301 17.7573C5.10007 17.7573 5.24713 17.7711 5.38959 17.7941Z" fill="#FBA919"/>
<path d="M5.38212 18.2996C5.42348 18.3088 5.44186 18.3317 5.44186 18.3685C5.43267 18.488 5.41888 18.6213 5.4005 18.7591C5.39131 18.7959 5.36833 18.8143 5.32697 18.8097C5.17992 18.7821 5.03745 18.7591 4.89499 18.7407C4.85823 18.7315 4.83984 18.7086 4.83984 18.6718C4.85823 18.5385 4.86742 18.4099 4.87661 18.295C4.8812 18.2628 4.90418 18.249 4.94554 18.2444C5.0926 18.2536 5.23966 18.272 5.38212 18.2996Z" fill="#FBA919"/>
<path d="M5.30434 18.9567C5.3457 18.9705 5.36409 18.9935 5.35949 19.0349C5.33651 19.1773 5.31353 19.3244 5.28596 19.4668C5.27677 19.5036 5.2492 19.522 5.20784 19.5174C5.06078 19.4852 4.91832 19.4577 4.77585 19.4301C4.73909 19.4209 4.72071 19.3933 4.7253 19.3566C4.75288 19.2187 4.77585 19.0808 4.79424 18.9384C4.80343 18.9016 4.82641 18.8832 4.86777 18.8832C5.01482 18.9062 5.16188 18.9292 5.30434 18.9567Z" fill="#FBA919"/>
<path d="M5.18249 19.669C5.22385 19.6828 5.23763 19.7058 5.23304 19.7472C5.20087 19.8896 5.17329 20.0275 5.13653 20.1653C5.12274 20.2021 5.09517 20.2159 5.05381 20.2113C4.91135 20.1791 4.76888 20.1424 4.62642 20.1056C4.58966 20.0918 4.57128 20.0642 4.58047 20.0275C4.61264 19.8988 4.6448 19.7609 4.67238 19.6277C4.68616 19.5909 4.70914 19.5771 4.7505 19.5771C4.89297 19.6093 5.04002 19.6415 5.18249 19.669Z" fill="#FBA919"/>
<path d="M5.02222 20.3538C5.06358 20.3676 5.07736 20.3906 5.07277 20.4273C5.036 20.556 4.99924 20.6801 4.96248 20.7996C4.94869 20.8317 4.92112 20.8455 4.87976 20.8363C4.73729 20.8042 4.59483 20.7628 4.45696 20.7123C4.4202 20.6939 4.40641 20.6709 4.41101 20.6387C4.44777 20.5238 4.47994 20.4044 4.51671 20.2803C4.53049 20.2481 4.55347 20.2343 4.59483 20.2435C4.73729 20.2849 4.87976 20.3216 5.02222 20.3538Z" fill="#FBA919"/>
<path d="M4.84375 20.9558C4.88051 20.9696 4.89889 20.988 4.8897 21.0202C4.85294 21.1259 4.81617 21.227 4.77481 21.3143C4.76103 21.3373 4.73345 21.3465 4.69209 21.3373C4.54963 21.3005 4.41176 21.2546 4.27849 21.1994C4.24173 21.181 4.22794 21.1626 4.23713 21.1351C4.2739 21.0478 4.31066 20.9558 4.34743 20.8501C4.36121 20.8226 4.38879 20.8134 4.42555 20.8272C4.55882 20.8777 4.69669 20.9191 4.84375 20.9558Z" fill="#FBA919"/>
<path d="M4.65291 21.4245C4.68968 21.4383 4.70806 21.4521 4.69887 21.4751C4.6667 21.5394 4.63453 21.5945 4.60236 21.6405C4.59777 21.6451 4.59317 21.6543 4.58858 21.6589C4.57479 21.6727 4.54722 21.6727 4.50586 21.6635C4.36339 21.6267 4.22553 21.5762 4.09685 21.5164C4.06009 21.498 4.0463 21.4842 4.05549 21.4659C4.06009 21.4613 4.06468 21.4521 4.06928 21.4475C4.10145 21.4015 4.12902 21.351 4.16119 21.2866C4.17498 21.2683 4.19795 21.2683 4.23931 21.282C4.37259 21.3418 4.51045 21.3877 4.65291 21.4245Z" fill="#FBA919"/>
<path d="M4.47736 21.7049C4.50953 21.7141 4.52791 21.7233 4.52791 21.7325C4.52791 21.7325 4.52791 21.7325 4.52791 21.7371C4.49575 21.7646 4.46817 21.7784 4.4406 21.7784C4.43141 21.7784 4.40383 21.7738 4.36247 21.76C4.22001 21.7233 4.08214 21.6727 3.95806 21.613C3.93509 21.5992 3.9213 21.5946 3.91211 21.5854C3.93509 21.5854 3.96266 21.5716 3.99483 21.5441C4.00862 21.5395 4.03159 21.5441 4.06836 21.5578C4.19703 21.6176 4.3349 21.6681 4.47736 21.7049Z" fill="#FBA919"/>
<path d="M5.63086 17.4724C5.85145 17.5597 5.85145 17.5597 5.95714 17.6194L6.00769 17.647C6.02148 17.6562 6.03527 17.67 6.04446 17.6884C6.04446 17.6884 6.04446 17.6884 6.04446 17.693C6.03527 17.693 6.02608 17.6884 5.9985 17.6746C5.87442 17.6056 5.74575 17.5505 5.60328 17.5091C5.56192 17.4954 5.53895 17.4862 5.52976 17.477C5.51137 17.4494 5.49299 17.4356 5.47461 17.4264L5.63086 17.4724Z" fill="#FBA919"/>
<path d="M6.01413 17.7113C6.0463 17.7297 6.06928 17.7481 6.07387 17.7619C6.08766 17.8078 6.09685 17.863 6.10604 17.9319C6.10604 17.9503 6.08766 17.9503 6.05549 17.9365C5.93141 17.8722 5.80273 17.8216 5.66487 17.7802C5.6281 17.7665 5.60512 17.7481 5.60053 17.7297C5.59134 17.6562 5.58215 17.5964 5.56836 17.5505C5.56836 17.5367 5.58674 17.5367 5.62351 17.5505C5.76137 17.5872 5.89464 17.6424 6.01413 17.7113Z" fill="#FBA919"/>
<path d="M6.0656 18.0146C6.09777 18.033 6.11615 18.056 6.12075 18.079C6.12534 18.1617 6.12534 18.2536 6.12075 18.3547C6.11615 18.3823 6.09777 18.3869 6.0656 18.3777C5.94152 18.3225 5.81284 18.2766 5.67498 18.2398C5.63821 18.226 5.61523 18.2031 5.61523 18.1755C5.61983 18.0698 5.61983 17.9687 5.61523 17.886C5.61983 17.863 5.63821 17.8584 5.67498 17.863C5.81284 17.8998 5.94152 17.9503 6.0656 18.0146Z" fill="#FBA919"/>
<path d="M6.05365 18.4926C6.08582 18.511 6.1042 18.5339 6.1042 18.5661C6.09501 18.681 6.08122 18.8051 6.06744 18.9383C6.05825 18.9751 6.03986 18.9889 6.0031 18.9797C5.87902 18.9383 5.75034 18.9016 5.60788 18.8648C5.57112 18.851 5.55273 18.8235 5.55273 18.7867C5.57112 18.6488 5.5849 18.5155 5.59409 18.3961C5.59869 18.3639 5.62167 18.3501 5.66303 18.3593C5.80089 18.3961 5.92957 18.442 6.05365 18.4926Z" fill="#FBA919"/>
<path d="M5.98173 19.1268C6.0139 19.1406 6.03228 19.1681 6.02769 19.2049C6.00931 19.3428 5.98173 19.4806 5.95876 19.6139C5.94956 19.6507 5.92659 19.6644 5.88982 19.6644C5.76574 19.6369 5.63247 19.6047 5.4946 19.5771C5.45784 19.5633 5.43946 19.5404 5.44405 19.499C5.47163 19.3565 5.4946 19.2095 5.51758 19.067C5.52677 19.0303 5.54975 19.0119 5.59111 19.0165C5.72898 19.0532 5.86225 19.09 5.98173 19.1268Z" fill="#FBA919"/>
<path d="M5.86294 19.8115C5.89511 19.8207 5.90889 19.8483 5.9043 19.8851C5.87672 20.0183 5.84456 20.1516 5.81239 20.2803C5.7986 20.317 5.77562 20.3308 5.73886 20.3308C5.61018 20.317 5.47691 20.2941 5.33445 20.2665C5.29768 20.2573 5.2793 20.2297 5.2839 20.193C5.31607 20.0597 5.34823 19.9172 5.3804 19.7748C5.39419 19.738 5.41717 19.7196 5.45853 19.7242C5.60559 19.761 5.73886 19.7885 5.86294 19.8115Z" fill="#FBA919"/>
<path d="M5.7104 20.4687C5.74257 20.4779 5.76095 20.4962 5.75176 20.5284C5.71959 20.6525 5.68283 20.7674 5.64607 20.8823C5.63228 20.9144 5.6093 20.9282 5.57254 20.9328C5.43927 20.9282 5.30599 20.9144 5.16353 20.8915C5.12677 20.8823 5.10839 20.8593 5.11758 20.8271C5.15434 20.7122 5.19111 20.5882 5.22787 20.4549C5.24166 20.4181 5.26923 20.4043 5.30599 20.4089C5.44386 20.4365 5.58173 20.4549 5.7104 20.4687Z" fill="#FBA919"/>
<path d="M5.53543 21.0431C5.57219 21.0477 5.58598 21.0615 5.57679 21.0891C5.54002 21.1902 5.50326 21.2867 5.46649 21.3694C5.45271 21.3924 5.42973 21.4061 5.38837 21.4107C5.2551 21.4153 5.11263 21.4107 4.97017 21.3878C4.93341 21.3786 4.91503 21.3648 4.92422 21.3372C4.96098 21.2499 4.99775 21.1488 5.03911 21.0431C5.05289 21.0155 5.08047 21.0017 5.12183 21.0063C5.26429 21.0293 5.40216 21.0431 5.53543 21.0431Z" fill="#FBA919"/>
<path d="M5.35995 21.4935C5.39671 21.4935 5.4105 21.5027 5.40591 21.521C5.37374 21.5808 5.34616 21.6359 5.31399 21.6773C5.3094 21.6819 5.3048 21.6911 5.30021 21.6957C5.28642 21.7095 5.26344 21.7187 5.22208 21.7233C5.08422 21.7324 4.94175 21.7324 4.79929 21.7141C4.76253 21.7095 4.74415 21.7003 4.74874 21.6865C4.75334 21.6819 4.75793 21.6727 4.76253 21.6681C4.7947 21.6221 4.82687 21.567 4.85903 21.5027C4.87282 21.4843 4.90039 21.4751 4.94175 21.4797C5.08422 21.4935 5.22208 21.5027 5.35995 21.4935Z" fill="#FBA919"/>
<path d="M5.18198 21.7646C5.20955 21.7646 5.22334 21.7646 5.23253 21.7692V21.7738C5.20496 21.7968 5.18198 21.8105 5.159 21.8151C5.08088 21.8197 4.97978 21.8289 4.90165 21.8289C4.80974 21.8243 4.69026 21.8197 4.60294 21.8105C4.59835 21.8105 4.59375 21.8105 4.59375 21.8105C4.61673 21.8105 4.6489 21.7968 4.68107 21.7692C4.69485 21.76 4.71783 21.76 4.75919 21.7646C4.90165 21.7738 5.04411 21.7784 5.18198 21.7646Z" fill="#FBA919"/>
<path d="M6.25161 17.817C6.42164 17.9641 6.42624 17.9641 6.50896 18.056L6.55491 18.1111C6.55951 18.1157 6.56411 18.1203 6.5687 18.1295C6.56411 18.1295 6.56411 18.1249 6.53653 18.0974C6.44462 17.9963 6.34352 17.9043 6.22863 17.8216C6.19646 17.7987 6.17808 17.7803 6.16889 17.7711C6.1597 17.7573 6.15051 17.7435 6.13672 17.7343L6.25161 17.817Z" fill="#FBA919"/>
<path d="M6.54848 18.125C6.57146 18.1526 6.58984 18.171 6.59444 18.1847C6.60822 18.2215 6.61741 18.2721 6.62201 18.3272C6.62201 18.341 6.60822 18.3364 6.58524 18.3134C6.49333 18.2215 6.39683 18.1388 6.28653 18.0653C6.25436 18.0423 6.24058 18.0239 6.23139 18.0009C6.2222 17.9366 6.21301 17.8768 6.19922 17.8355C6.19922 17.8355 6.19922 17.8355 6.19922 17.8309C6.20381 17.8309 6.20841 17.8263 6.24517 17.8493C6.35547 17.932 6.45657 18.0239 6.54848 18.125Z" fill="#FBA919"/>
<path d="M6.59467 18.3823C6.61764 18.4099 6.63143 18.4328 6.63603 18.4512C6.64062 18.5201 6.63603 18.5983 6.63603 18.6856C6.63143 18.7086 6.61764 18.7086 6.59467 18.6902C6.50276 18.6167 6.40625 18.5477 6.29596 18.488C6.26379 18.4696 6.25 18.442 6.25 18.4145C6.2546 18.3133 6.2546 18.226 6.25 18.1433C6.2546 18.1249 6.26838 18.1203 6.30055 18.1387C6.40165 18.2168 6.50276 18.295 6.59467 18.3823Z" fill="#FBA919"/>
<path d="M6.58415 18.7959C6.60713 18.8189 6.62092 18.8419 6.62092 18.8694C6.61173 18.9659 6.60254 19.0716 6.58875 19.1865C6.58415 19.2141 6.56577 19.2233 6.54279 19.2141C6.45088 19.1635 6.34978 19.113 6.23949 19.067C6.20732 19.0487 6.19353 19.0257 6.19813 18.9889C6.21191 18.8602 6.2257 18.7408 6.23489 18.6259C6.23949 18.5983 6.25787 18.5891 6.29004 18.6029C6.39114 18.6626 6.49224 18.727 6.58415 18.7959Z" fill="#FBA919"/>
<path d="M6.52728 19.3382C6.55026 19.3519 6.56405 19.3795 6.55945 19.4117C6.54107 19.5266 6.52269 19.6415 6.49971 19.761C6.49052 19.7931 6.47214 19.8069 6.44916 19.8023C6.35265 19.7793 6.24695 19.7518 6.13207 19.7242C6.0999 19.715 6.08611 19.6874 6.09071 19.6507C6.11368 19.5174 6.13666 19.3841 6.15964 19.2508C6.16883 19.2141 6.18721 19.2003 6.21938 19.2095C6.32967 19.2508 6.43537 19.2922 6.52728 19.3382Z" fill="#FBA919"/>
<path d="M6.4163 19.9264C6.44387 19.9356 6.45306 19.954 6.44847 19.9861C6.42549 20.101 6.39792 20.2113 6.37034 20.3216C6.36115 20.3538 6.34277 20.3676 6.3106 20.3722C6.2095 20.3722 6.09921 20.3676 5.97972 20.3584C5.94755 20.3538 5.93377 20.3308 5.93836 20.2986C5.97053 20.1746 5.9981 20.0459 6.02568 19.9126C6.03487 19.8758 6.05785 19.8621 6.09002 19.8621C6.2141 19.885 6.31979 19.908 6.4163 19.9264Z" fill="#FBA919"/>
<path d="M6.29348 20.4871C6.32106 20.4871 6.33025 20.5008 6.32565 20.533C6.29808 20.6387 6.26591 20.7352 6.23834 20.8317C6.22914 20.8593 6.20617 20.8777 6.17859 20.8869C6.0683 20.9099 5.95341 20.9236 5.82933 20.9328C5.79716 20.9328 5.78338 20.9144 5.78797 20.8869C5.82014 20.7766 5.8569 20.6617 5.88907 20.5422C5.90286 20.51 5.92584 20.4917 5.95801 20.4917C6.07749 20.4917 6.18778 20.4917 6.29348 20.4871Z" fill="#FBA919"/>
<path d="M6.13993 20.9834C6.16751 20.9788 6.18129 20.988 6.1767 21.011C6.14453 21.0983 6.11695 21.1764 6.08479 21.2499C6.071 21.2729 6.05262 21.2867 6.02045 21.3005C5.90556 21.3418 5.78148 21.374 5.6574 21.3924C5.62063 21.397 5.60685 21.3878 5.61604 21.3648C5.6528 21.2821 5.68497 21.1902 5.72174 21.0937C5.73552 21.0661 5.7585 21.0477 5.79527 21.0431C5.91475 21.0293 6.02964 21.011 6.13993 20.9834Z" fill="#FBA919"/>
<path d="M5.98235 21.3694C6.02371 21.3556 6.02371 21.3648 6.01911 21.3786C5.99154 21.4292 5.96856 21.4751 5.94099 21.5119C5.93639 21.5165 5.9318 21.5211 5.9318 21.5257C5.92261 21.5395 5.89963 21.5533 5.86286 21.567C5.74338 21.6176 5.6147 21.659 5.48143 21.6911C5.43088 21.7003 5.43088 21.6911 5.43548 21.6819C5.44007 21.6773 5.44467 21.6681 5.44926 21.6635C5.47684 21.6222 5.50901 21.567 5.53658 21.5073C5.55037 21.4889 5.57334 21.4751 5.61011 21.4659C5.74338 21.443 5.86746 21.4108 5.98235 21.3694Z" fill="#FBA919"/>
<path d="M5.83835 21.5992C5.86592 21.59 5.87511 21.5854 5.8843 21.5808C5.87052 21.5946 5.86132 21.6038 5.84754 21.6084C5.77401 21.6405 5.6775 21.6819 5.59938 21.7095C5.51666 21.7324 5.40177 21.7646 5.31445 21.7876C5.33284 21.783 5.35581 21.7692 5.37879 21.7508C5.39258 21.7416 5.41556 21.7324 5.45232 21.7232C5.58559 21.6957 5.71427 21.6543 5.83835 21.5992Z" fill="#FBA919"/>
<path d="M6.72714 18.3317C6.7639 18.3914 6.81445 18.4696 6.84662 18.5339C6.80526 18.4512 6.75471 18.3731 6.70416 18.2995C6.67658 18.2628 6.66739 18.249 6.6628 18.2398C6.6628 18.2352 6.6582 18.2352 6.6582 18.2306L6.72714 18.3317Z" fill="#FBA919"/>
<path d="M6.91728 18.6764C6.93566 18.7178 6.94485 18.7362 6.94485 18.7454C6.95404 18.773 6.95864 18.8097 6.96323 18.8511V18.8557C6.95864 18.8511 6.95404 18.8465 6.94485 18.8189C6.8943 18.7086 6.82537 18.6029 6.75184 18.5018C6.72886 18.4742 6.71967 18.4513 6.71507 18.4329C6.71048 18.3777 6.70129 18.3318 6.6875 18.295C6.6875 18.295 6.6875 18.295 6.6921 18.295C6.70129 18.3042 6.70588 18.3088 6.71967 18.3272C6.79779 18.4375 6.86213 18.5524 6.91728 18.6764Z" fill="#FBA919"/>
<path d="M6.94589 18.8694C6.95967 18.897 6.96886 18.9246 6.96886 18.9384C6.96886 18.9889 6.96886 19.0441 6.96886 19.1084C6.96886 19.113 6.96886 19.113 6.96886 19.1176C6.96427 19.1176 6.95967 19.1176 6.94589 19.0992C6.89533 19.0119 6.831 18.9292 6.75287 18.8465C6.72989 18.8235 6.7207 18.7959 6.7207 18.7729C6.7253 18.6902 6.7253 18.6167 6.7207 18.5478C6.7207 18.5248 6.74368 18.5478 6.75287 18.5615C6.8264 18.6581 6.89074 18.7637 6.94589 18.8694Z" fill="#FBA919"/>
<path d="M6.93773 19.1727C6.95151 19.1957 6.96071 19.2187 6.96071 19.2417C6.95611 19.3106 6.94692 19.3887 6.93773 19.4715C6.93313 19.4944 6.92394 19.4944 6.91015 19.4852C6.85501 19.4301 6.78607 19.375 6.70795 19.3198C6.68497 19.3014 6.67578 19.2784 6.67578 19.2463C6.68957 19.1406 6.69876 19.0395 6.70795 18.9476C6.71255 18.9246 6.72633 18.92 6.74471 18.9384C6.82284 19.0119 6.88718 19.09 6.93773 19.1727Z" fill="#FBA919"/>
<path d="M6.89556 19.5725C6.90935 19.5863 6.91854 19.6093 6.91395 19.6323C6.90016 19.715 6.88637 19.8023 6.87259 19.885C6.86799 19.908 6.8542 19.9172 6.84042 19.9126C6.78067 19.8942 6.70715 19.8713 6.62443 19.8483C6.60145 19.8391 6.59226 19.8207 6.59685 19.7885C6.61523 19.6782 6.63821 19.5679 6.652 19.4577C6.65659 19.4301 6.67498 19.4209 6.69795 19.4301C6.77148 19.476 6.84042 19.522 6.89556 19.5725Z" fill="#FBA919"/>
<path d="M6.81652 20.0045C6.8349 20.0091 6.8395 20.0229 6.8349 20.0458C6.81652 20.1286 6.79814 20.2113 6.77975 20.2894C6.77056 20.3124 6.76137 20.3262 6.7384 20.3308C6.66946 20.3446 6.59134 20.3583 6.49943 20.3629C6.47645 20.3629 6.46726 20.3491 6.47185 20.317C6.49943 20.2113 6.5224 20.1056 6.54538 19.9999C6.55457 19.9723 6.56836 19.9585 6.59593 19.9585C6.68325 19.9769 6.75678 19.9907 6.81652 20.0045Z" fill="#FBA919"/>
<path d="M6.7224 20.4181C6.74079 20.4135 6.74998 20.4227 6.74538 20.441C6.727 20.5146 6.70402 20.5881 6.68104 20.657C6.67185 20.6754 6.65807 20.6938 6.63509 20.7076C6.55696 20.7535 6.46965 20.7949 6.37314 20.8271C6.34557 20.8317 6.33638 20.8271 6.34097 20.7995C6.36855 20.7122 6.39612 20.6157 6.42369 20.5146C6.43288 20.487 6.45127 20.4686 6.47884 20.464C6.57075 20.4594 6.65347 20.441 6.7224 20.4181Z" fill="#FBA919"/>
<path d="M6.61102 20.7812C6.63859 20.7628 6.63859 20.7766 6.63859 20.7858C6.61561 20.8501 6.59264 20.9053 6.57425 20.9558C6.56506 20.9742 6.55128 20.9926 6.5237 21.011C6.43639 21.0845 6.33988 21.1488 6.23418 21.1994C6.19282 21.2178 6.19742 21.1994 6.19742 21.1948C6.22499 21.1259 6.25716 21.0523 6.28473 20.9696C6.29392 20.9466 6.31231 20.9282 6.34448 20.9145C6.44098 20.8823 6.53289 20.8363 6.61102 20.7812Z" fill="#FBA919"/>
<path d="M6.49977 21.0661C6.51355 21.0523 6.52274 21.0477 6.52734 21.0477C6.52734 21.0477 6.52734 21.0477 6.53194 21.0477C6.53194 21.0477 6.53194 21.0477 6.53194 21.0523C6.51355 21.0891 6.49517 21.1212 6.47679 21.1488C6.47219 21.1534 6.47219 21.158 6.4676 21.158C6.463 21.1672 6.44922 21.181 6.41705 21.2131C6.32054 21.3005 6.21484 21.3786 6.09995 21.4475C6.08157 21.4613 6.06778 21.4659 6.05859 21.4659V21.4613C6.06319 21.4567 6.06319 21.4521 6.06778 21.4475C6.09076 21.4107 6.11834 21.3694 6.14131 21.3188C6.1505 21.3005 6.17348 21.2867 6.20106 21.2683C6.31135 21.2085 6.40786 21.1442 6.49977 21.0661Z" fill="#FBA919"/>
<path d="M6.39016 21.2362C6.39935 21.227 6.41314 21.2178 6.42233 21.2086C6.36259 21.2638 6.27987 21.3373 6.21094 21.3878C6.142 21.4338 6.05009 21.4981 5.97656 21.5395C5.98575 21.5349 5.99494 21.5257 6.00414 21.5165C6.01333 21.5073 6.03171 21.4981 6.06847 21.4752C6.18336 21.4062 6.29366 21.3281 6.39016 21.2362Z" fill="#FBA919"/>
<path d="M7.02505 18.9843C7.05262 19.0946 7.08019 19.2049 7.09398 19.3657V19.3795C7.08479 19.2646 7.06181 19.1543 7.02505 19.0441C7.01126 19.0073 7.00666 18.9889 7.00666 18.9751C7.00207 18.9384 6.99747 18.9062 6.98828 18.8832L7.02505 18.9843Z" fill="#FBA919"/>
<path d="M7.10225 19.4301V19.4347C7.10225 19.4622 7.10685 19.499 7.10685 19.5266C7.10685 19.545 7.10685 19.5633 7.10685 19.5817C7.10685 19.5725 7.10685 19.5725 7.10225 19.5542C7.09306 19.4576 7.07008 19.3657 7.03332 19.2738C7.02413 19.2463 7.01953 19.2233 7.01953 19.2049C7.02413 19.1497 7.02413 19.0946 7.01953 19.0532C7.01953 19.0532 7.01953 19.0532 7.01953 19.0486C7.02413 19.0532 7.02413 19.0532 7.03791 19.0808C7.07008 19.1957 7.09306 19.3106 7.10225 19.4301Z" fill="#FBA919"/>
<path d="M7.09593 19.5909C7.10053 19.6185 7.10053 19.6369 7.10053 19.6461C7.09593 19.6828 7.09593 19.7196 7.08674 19.761V19.7656C7.08215 19.7656 7.08215 19.761 7.08215 19.7518C7.06836 19.6966 7.04079 19.6415 7.00402 19.5817C6.99483 19.5634 6.99023 19.545 6.99023 19.522C6.99943 19.4485 7.00402 19.3795 7.01321 19.3152C7.01321 19.3106 7.01781 19.2968 7.027 19.3106C7.03159 19.3152 7.03159 19.3198 7.03159 19.3244C7.06376 19.4209 7.08674 19.5036 7.09593 19.5909Z" fill="#FBA919"/>
<path d="M7.07652 19.8069C7.08111 19.8207 7.08111 19.8345 7.08111 19.8483C7.07652 19.8896 7.06732 19.9356 7.05813 19.9769C7.05354 19.9907 7.05354 19.9907 7.04435 19.9907C7.02596 19.9769 6.9892 19.9632 6.94324 19.9448C6.92946 19.9402 6.92486 19.9264 6.92946 19.9034C6.94324 19.8299 6.95703 19.7518 6.96622 19.6782C6.97082 19.6599 6.98001 19.6553 6.9892 19.6644C7.03516 19.715 7.06273 19.761 7.07652 19.8069Z" fill="#FBA919"/>
<path d="M7.03607 20.0413C7.04067 20.0413 7.04527 20.0505 7.04067 20.0597C7.03148 20.101 7.02229 20.1424 7.0131 20.1838C7.0085 20.1976 7.00391 20.2067 6.99471 20.2159C6.96714 20.2481 6.92118 20.2711 6.86604 20.2941C6.85225 20.2987 6.84766 20.2895 6.84766 20.2711C6.86604 20.1976 6.87982 20.124 6.89821 20.0505C6.9028 20.0321 6.91199 20.0183 6.92578 20.0229C6.97633 20.0321 7.0131 20.0367 7.03607 20.0413Z" fill="#FBA919"/>
<path d="M6.97714 20.2665C6.98173 20.2619 6.98173 20.2619 6.98633 20.2619V20.2665C6.97714 20.3032 6.96335 20.34 6.95416 20.3768C6.94956 20.386 6.94497 20.3997 6.93118 20.4227C6.88982 20.4916 6.83927 20.5514 6.77493 20.6065C6.75195 20.6249 6.75195 20.6157 6.75195 20.6065V20.6019C6.77034 20.5422 6.78872 20.4733 6.8071 20.4089C6.8117 20.3905 6.82548 20.3768 6.84386 20.363C6.90361 20.3354 6.94497 20.3032 6.97714 20.2665Z" fill="#FBA919"/>
<path d="M6.92141 20.4594C6.9306 20.4457 6.9306 20.4411 6.9352 20.4365C6.92601 20.4686 6.91222 20.4962 6.90303 20.5238C6.89844 20.533 6.88924 20.5514 6.87546 20.5789C6.82491 20.6754 6.76057 20.7673 6.68704 20.8501C6.67325 20.8639 6.66866 20.8684 6.66406 20.873V20.8684C6.68244 20.8225 6.70542 20.7719 6.7238 20.7122C6.733 20.6938 6.74219 20.68 6.76516 20.6571C6.82491 20.6065 6.88005 20.5376 6.92141 20.4594Z" fill="#FBA919"/>
<path d="M6.8619 20.6157C6.8665 20.6065 6.87109 20.5974 6.87569 20.5882L6.85731 20.6249C6.79297 20.7444 6.77918 20.7674 6.71484 20.8639C6.68727 20.9053 6.64591 20.9604 6.61374 20.9972C6.60455 21.0064 6.59995 21.0156 6.59076 21.0247C6.58157 21.0339 6.56778 21.0523 6.55859 21.0615C6.56319 21.0569 6.56319 21.0523 6.56779 21.0523C6.58617 21.0293 6.59995 20.9972 6.61834 20.965C6.62753 20.9512 6.63672 20.9374 6.66429 20.9099C6.74242 20.8133 6.80675 20.7168 6.8619 20.6157Z" fill="#FBA919"/>
<path d="M7.0918 19.8804C7.0918 19.8758 7.0918 19.8712 7.0918 19.8712C7.0918 19.8574 7.0918 19.8436 7.09639 19.8298C7.10099 19.8068 7.10099 19.7793 7.10558 19.7609C7.09639 19.8252 7.09639 19.8344 7.0918 19.8804Z" fill="#FBA919"/>
<path d="M7.0841 19.9126C7.0841 19.9218 7.0795 19.9401 7.0795 19.9493C7.07491 19.9723 7.07031 19.9907 7.07031 20.0137C7.07031 20.0091 7.07031 20.0045 7.07031 19.9953C7.07491 19.9631 7.0841 19.9264 7.08869 19.8942C7.08869 19.8896 7.08869 19.8896 7.08869 19.8896C7.08869 19.8896 7.08869 19.8896 7.08869 19.8988C7.0841 19.9034 7.0841 19.908 7.0841 19.9126Z" fill="#FBA919"/>
<path d="M7.06342 20.0412L7.05882 20.0688C7.05423 20.0872 7.04963 20.1102 7.04504 20.1285L7.04044 20.1377C7.04044 20.1423 7.04044 20.1469 7.03585 20.1469C7.03585 20.1515 7.03585 20.1515 7.03125 20.1561C7.03125 20.1561 7.03125 20.1561 7.03125 20.1515C7.04044 20.1194 7.04504 20.0872 7.05423 20.055C7.05882 20.0458 7.05882 20.0458 7.06342 20.0412Z" fill="#FBA919"/>
<path d="M7.02964 20.17L7.02045 20.1975C7.00666 20.2435 7.00666 20.2481 6.99747 20.2711L6.99288 20.2894C6.98828 20.2986 6.98828 20.3032 6.98828 20.3078C6.99747 20.2802 7.00666 20.2527 7.01585 20.2205C7.02045 20.2113 7.02505 20.1975 7.02505 20.1883C7.02964 20.1791 7.02964 20.1745 7.02964 20.17Z" fill="#FBA919"/>
<path d="M6.96938 20.358L6.96484 20.3716C6.96938 20.3625 6.96938 20.358 6.96938 20.358C6.97391 20.3444 6.97391 20.3398 6.97844 20.3308L6.96938 20.358Z" fill="#FBA919"/>
<path d="M49.5344 13.5615L44.2266 29.0991H48.937L49.8653 26.1258H55.1686L56.0969 29.0991H60.8073L55.4995 13.5615H49.5344ZM50.8534 22.9686L52.4572 17.84H52.5813L54.1851 22.9686H50.8534Z" fill="#1172BA"/>
<path d="M73.2273 21.6957H73.1032L67.3864 13.5615H63.6777V29.0991H68.0435V20.9374H68.14L73.9488 29.0991H77.5931V13.5615H73.2273V21.6957Z" fill="#1172BA"/>
<path d="M87.0889 25.6386L88.5962 24.4254C89.8232 23.4373 90.7653 22.5872 91.4317 21.8748C92.098 21.1625 92.5576 20.51 92.815 19.9217C93.0723 19.3335 93.201 18.7407 93.201 18.1433C93.201 17.1782 92.9436 16.3372 92.4289 15.6157C91.9142 14.8988 91.1835 14.3381 90.2368 13.9429C89.2902 13.5477 88.1734 13.3455 86.8867 13.3455C85.6413 13.3455 84.5521 13.5569 83.6284 13.9843C82.7047 14.4117 81.9832 15.0183 81.4777 15.8041C80.9722 16.5946 80.7148 17.532 80.7148 18.6258H84.86C84.86 18.1892 84.9428 17.8216 85.1128 17.5183C85.2782 17.215 85.5172 16.9852 85.8251 16.8289C86.133 16.6727 86.4869 16.5946 86.8913 16.5946C87.2957 16.5946 87.6495 16.6727 87.9574 16.8243C88.2653 16.9806 88.5089 17.1966 88.6835 17.4815C88.8582 17.7664 88.9455 18.1065 88.9455 18.5063C88.9455 18.8694 88.8674 19.2002 88.7157 19.4989C88.5641 19.7977 88.3435 20.0872 88.054 20.3675C87.769 20.6478 87.429 20.9465 87.0291 21.2682L81.0273 26.0614V29.0945H93.371V25.7259H87.0889V25.6386Z" fill="#1172BA"/>
<path d="M109.997 23.3914H108.145V13.5569H105.695H104.064H102.621L96.1504 23.3914V26.668H103.972V29.0945H108.149V26.668H110.001V23.3914H109.997ZM100.447 23.2719L103.935 17.9319H104.059V23.396H100.447V23.2719Z" fill="#1172BA"/>
</svg>
