<svg width="20" height="20" viewBox="0 0 20 20" fill="none" xmlns="http://www.w3.org/2000/svg">
<path fill-rule="evenodd" clip-rule="evenodd" d="M13.2363 20H2.55814C1.88 20 1.22884 19.7302 0.748837 19.2512C0.269768 18.7712 0 18.12 0 17.4419V2.55814C0 1.88 0.269768 1.22884 0.748837 0.748837C1.22884 0.269768 1.88 0 2.55814 0H10.5451C10.9767 0 11.3907 0.171163 11.6958 0.477209L15.8019 4.58326C16.1079 4.88837 16.2791 5.30233 16.2791 5.73395V9.59535C15.64 9.5014 14.9898 9.51721 14.3553 9.64186C13.8205 9.74605 13.374 10.1116 13.1647 10.6149L13.0065 10.9963C12.7981 10.9693 12.5963 10.9433 12.5963 10.9433C12.0558 10.8726 11.5163 11.0763 11.1581 11.4874C10.6735 12.0437 10.3005 12.6884 10.0614 13.387C9.88465 13.9023 9.97767 14.4716 10.3088 14.9042L10.5609 15.2326C10.4335 15.3991 10.3088 15.5609 10.3088 15.5609C9.97767 15.9935 9.88465 16.5628 10.0614 17.0781C10.3005 17.7767 10.6735 18.4214 11.1581 18.9777C11.5163 19.3888 12.0558 19.5926 12.5963 19.5219L13.0065 19.4688C13.0865 19.6623 13.1647 19.8502 13.1647 19.8502C13.186 19.9014 13.2102 19.9516 13.2363 20ZM3.95349 12.5581H8.13953C8.52465 12.5581 8.83721 12.2456 8.83721 11.8605C8.83721 11.4753 8.52465 11.1628 8.13953 11.1628H3.95349C3.56837 11.1628 3.25581 11.4753 3.25581 11.8605C3.25581 12.2456 3.56837 12.5581 3.95349 12.5581ZM10.4651 1.62791V4.88372C10.4651 5.39721 10.8819 5.81395 11.3953 5.81395H14.6512L10.4651 1.62791ZM3.95349 9.30233H11.3953C11.7805 9.30233 12.093 8.98977 12.093 8.60465C12.093 8.21953 11.7805 7.90698 11.3953 7.90698H3.95349C3.56837 7.90698 3.25581 8.21953 3.25581 8.60465C3.25581 8.98977 3.56837 9.30233 3.95349 9.30233ZM3.95349 15.814H8.13953C8.52465 15.814 8.83721 15.5014 8.83721 15.1163C8.83721 14.7312 8.52465 14.4186 8.13953 14.4186H3.95349C3.56837 14.4186 3.25581 14.7312 3.25581 15.1163C3.25581 15.5014 3.56837 15.814 3.95349 15.814Z" fill="#D9D9D9"/>
<path fill-rule="evenodd" clip-rule="evenodd" d="M16.8793 10.9709C16.8793 10.9709 17.2096 11.7662 17.2086 11.7662C17.3342 11.8295 17.4561 11.9002 17.5742 11.9765L18.4282 11.8648C18.6589 11.8351 18.8905 11.9225 19.044 12.0983C19.4496 12.5634 19.7612 13.1039 19.9621 13.6881C20.0375 13.9086 19.9975 14.1532 19.8552 14.3383C19.8552 14.3383 19.3324 15.0221 19.3324 15.0211C19.3398 15.1616 19.3398 15.303 19.3324 15.4425L19.8552 16.1262C19.9975 16.3114 20.0375 16.556 19.9621 16.7765C19.7612 17.3607 19.4496 17.9011 19.044 18.3662C18.8905 18.5421 18.6589 18.6295 18.4282 18.5997C18.4282 18.5997 17.5742 18.4881 17.5752 18.4872C17.457 18.5644 17.3342 18.6351 17.2096 18.6983L16.8793 19.4937C16.79 19.7095 16.5984 19.8658 16.3696 19.9104C15.7631 20.0295 15.1398 20.0295 14.5333 19.9104C14.3045 19.8658 14.1128 19.7095 14.0235 19.4937C14.0235 19.4937 13.6933 18.6983 13.6942 18.6983C13.5686 18.6351 13.4459 18.5644 13.3286 18.4881L12.4747 18.5997C12.2431 18.6295 12.0124 18.5421 11.8589 18.3662C11.4524 17.9011 11.1407 17.3607 10.9407 16.7765C10.8654 16.556 10.9054 16.3114 11.0468 16.1262C11.0468 16.1262 11.5705 15.4425 11.5705 15.4434C11.5631 15.303 11.5631 15.1616 11.5705 15.0221L11.0468 14.3383C10.9054 14.1532 10.8654 13.9086 10.9407 13.6881C11.1407 13.1039 11.4524 12.5634 11.8589 12.0983C12.0124 11.9225 12.2431 11.8351 12.4747 11.8648C12.4747 11.8648 13.3286 11.9765 13.3277 11.9774C13.4459 11.9002 13.5677 11.8295 13.6933 11.7662L14.0235 10.9709C14.1128 10.7551 14.3045 10.5988 14.5333 10.5541C15.1398 10.4351 15.7631 10.4351 16.3696 10.5541C16.5984 10.5988 16.79 10.7551 16.8793 10.9709ZM15.4514 13.8369C14.6812 13.8369 14.0561 14.4621 14.0561 15.2323C14.0561 16.0025 14.6812 16.6276 15.4514 16.6276C16.2217 16.6276 16.8468 16.0025 16.8468 15.2323C16.8468 14.4621 16.2217 13.8369 15.4514 13.8369Z" fill="#D9D9D9"/>
</svg>
