<svg width="18" height="17" viewBox="0 0 18 17" fill="none" xmlns="http://www.w3.org/2000/svg">
<path d="M15.8906 16.875H2.10938C0.946266 16.875 0 15.9287 0 14.7656V2.10938C0 0.946266 0.946266 0 2.10938 0H4.78125C5.69795 0 6.47993 0.587777 6.77014 1.40625H15.8906C17.0537 1.40625 18 2.35252 18 3.51562V14.7656C18 15.9287 17.0537 16.875 15.8906 16.875ZM2.10938 1.40625C1.72167 1.40625 1.40625 1.72167 1.40625 2.10938V14.7656C1.40625 15.1533 1.72167 15.4688 2.10938 15.4688H15.8906C16.2783 15.4688 16.5938 15.1533 16.5938 14.7656V3.51562C16.5938 3.12792 16.2783 2.8125 15.8906 2.8125H6.1875C5.79916 2.8125 5.48438 2.49771 5.48438 2.10938C5.48438 1.72167 5.16895 1.40625 4.78125 1.40625H2.10938Z" fill="#66696F"/>
<path d="M8.26146 13.8566C7.98689 13.582 7.98689 13.1368 8.26146 12.8622L11.8977 9.22595C12.7221 8.40164 12.7222 7.06732 11.8978 6.24284C11.0753 5.42039 9.73707 5.42039 8.91466 6.24284L5.72057 9.43689C5.44646 9.71104 5.44646 10.1571 5.72064 10.4313C5.99539 10.7061 6.44015 10.7061 6.71497 10.4313L9.90902 7.23723C10.1836 6.96263 10.6288 6.96263 10.9034 7.23723C11.178 7.51184 11.178 7.95702 10.9034 8.23159L7.70936 11.4256C6.88498 12.25 5.55066 12.2501 4.72621 11.4256C3.90377 10.6032 3.90377 9.26501 4.72618 8.44256L7.92026 5.24851C9.29097 3.87774 11.5213 3.87777 12.8921 5.24851C14.266 6.62246 14.2661 8.84626 12.8921 10.2203L9.25585 13.8566C8.98128 14.1311 8.53606 14.1312 8.26146 13.8566Z" fill="#66696F"/>
</svg>
