<svg width="182" height="212" viewBox="0 0 182 212" fill="none" xmlns="http://www.w3.org/2000/svg">
<rect x="0.5" y="0.5" width="180.236" height="210.397" rx="9.5" fill="white" stroke="#E6E6E6"/>
<path d="M89.1117 45.7657C89.3807 44.4512 90.7494 43.6785 92.0131 44.1291C100.395 47.1176 129.302 56.9896 154.23 60.2766C155.367 60.4265 156.159 61.4787 155.982 62.6117L141.48 155.654C141.282 156.93 140.091 157.806 138.814 157.615C128.368 156.051 85.3809 149.456 70.5601 144.674C69.658 144.383 69.1216 143.459 69.3116 142.531L89.1117 45.7657Z" fill="#66AAD7"/>
<path d="M90.0912 48.6992C90.3501 47.4342 91.6673 46.6906 92.8834 47.1243C100.949 50.0003 128.768 59.5005 152.757 62.6637C153.851 62.808 154.614 63.8206 154.444 64.9109L140.488 154.45C140.297 155.678 139.151 156.52 137.922 156.336C127.869 154.831 86.5009 148.485 72.2382 143.884C71.3701 143.604 70.8538 142.714 71.0367 141.821L90.0912 48.6992Z" fill="#D3E1FD"/>
<path opacity="0.78" d="M97.4987 55.6697C96.7548 55.4855 96.0122 55.9757 95.8892 56.732L92.7701 75.9015C92.6664 76.5391 93.0706 77.1486 93.6987 77.2996C97.1936 78.1397 108.093 80.7158 114.346 81.6971C115.054 81.8081 115.727 81.3587 115.897 80.6633C116.766 77.128 119.208 66.8203 119.309 62.3177C119.326 61.5904 118.832 60.9509 118.126 60.7761L97.4987 55.6697Z" fill="white"/>
<path d="M106.417 70.2098C108.72 70.2098 110.587 68.3426 110.587 66.0392C110.587 63.7359 108.72 61.8687 106.417 61.8687C104.114 61.8687 102.246 63.7359 102.246 66.0392C102.246 68.3426 104.114 70.2098 106.417 70.2098Z" fill="url(#paint0_linear_1549_222)"/>
<path d="M97.6933 76.7149L110.694 79.455C111.492 79.623 112.155 78.8435 111.867 78.0814C111.127 76.1207 109.351 73.0951 105.326 72.3663C101.446 71.6639 98.6767 73.4752 97.1809 74.8775C96.546 75.4729 96.8416 76.5354 97.6933 76.7149Z" fill="url(#paint1_linear_1549_222)"/>
<g opacity="0.6">
<path d="M147.532 69.342C147.939 69.4279 148.324 69.2098 148.388 68.8573C148.452 68.5049 148.172 68.1404 147.766 68.0473L125.064 62.8386C124.659 62.7456 124.371 63.007 124.426 63.4195L124.469 63.7521C124.524 64.1647 124.901 64.5724 125.308 64.6582L147.532 69.342Z" fill="white"/>
</g>
<g opacity="0.6">
<path d="M124.318 66.3782C123.912 66.2851 123.625 66.5465 123.679 66.9591L123.723 67.2917C123.777 67.7043 124.155 68.112 124.562 68.1978L146.786 72.8817C147.193 72.9675 147.578 72.7493 147.642 72.3969C147.705 72.0445 147.425 71.68 147.02 71.587L124.318 66.3782Z" fill="white"/>
</g>
<g opacity="0.6">
<path d="M123.562 69.9695C123.157 69.8764 122.869 70.1378 122.924 70.5504L122.967 70.883C123.022 71.2956 123.399 71.7033 123.806 71.7891L146.03 76.473C146.437 76.5588 146.822 76.3406 146.886 75.9882C146.95 75.6358 146.67 75.2713 146.264 75.1783L123.562 69.9695Z" fill="white"/>
</g>
<g opacity="0.6">
<path d="M144.594 94.2536C145.001 94.3394 145.375 94.119 145.426 93.7639C145.477 93.4088 145.186 93.0454 144.779 92.9564L91.4824 81.2842C91.0759 81.1952 90.896 81.4267 91.0825 81.7987L91.4032 82.4384C91.5897 82.8104 92.0755 83.185 92.4826 83.2708L144.594 94.2536Z" fill="white"/>
</g>
<g opacity="0.6">
<path d="M90.7368 84.8228C90.3303 84.7337 90.1504 84.9652 90.3369 85.3372L90.6576 85.977C90.8441 86.349 91.3299 86.7236 91.737 86.8094L143.848 97.7921C144.255 97.878 144.63 97.6576 144.68 97.3025C144.731 96.9474 144.44 96.584 144.034 96.4949L90.7368 84.8228Z" fill="white"/>
</g>
<path opacity="0.6" d="M89.2502 90.6814C90.5545 90.8536 92.9679 91.3146 94.2949 91.575C94.8572 91.6853 95.2689 92.1687 95.2855 92.7415C95.3177 93.854 95.2826 95.7665 94.8278 97.7049C94.6916 98.2853 94.1157 98.6503 93.5335 98.521L88.6618 97.4394C88.0627 97.3064 87.6609 96.7422 87.7311 96.1326L88.2699 91.4487C88.3256 90.9641 88.7667 90.6176 89.2502 90.6814Z" fill="white"/>
<g opacity="0.6">
<path d="M97.8829 94.4705C97.4797 94.3677 97.1298 94.6236 97.1054 95.039L97.0577 95.8512C97.0333 96.2666 97.3465 96.6767 97.7537 96.7625L109.612 99.2618C110.02 99.3477 110.419 99.0839 110.499 98.6757L110.539 98.4748C110.62 98.0666 110.356 97.6485 109.953 97.5458L97.8829 94.4705Z" fill="white"/>
</g>
<path opacity="0.6" d="M115.851 96.2864C117.155 96.4585 119.568 96.9196 120.895 97.1799C121.458 97.2903 121.869 97.7737 121.886 98.3465C121.918 99.459 121.883 101.371 121.428 103.31C121.292 103.89 120.716 104.255 120.134 104.126L115.262 103.044C114.663 102.911 114.261 102.347 114.331 101.738L114.87 97.0536C114.926 96.5691 115.367 96.2226 115.851 96.2864Z" fill="white"/>
<g opacity="0.6">
<path d="M124.483 100.075C124.08 99.9727 123.73 100.229 123.705 100.644L123.658 101.456C123.633 101.872 123.946 102.282 124.354 102.368L136.212 104.867C136.619 104.953 137.019 104.689 137.099 104.281L137.139 104.08C137.22 103.672 136.956 103.254 136.553 103.151L124.483 100.075Z" fill="white"/>
</g>
<path d="M92.2987 110.357C92.2946 110.357 92.2905 110.356 92.2864 110.355L87.7899 109.362C87.1474 109.22 86.7094 108.665 86.7709 108.071L87.1716 104.207C87.1951 103.981 87.3103 103.776 87.4958 103.631C87.7034 103.468 87.9808 103.397 88.2569 103.436C88.6419 103.49 89.1861 103.557 89.7622 103.628C90.9753 103.778 92.485 103.964 93.3217 104.129C93.9277 104.254 94.3658 104.72 94.3974 105.278C94.4492 106.195 94.0823 107.833 93.6689 109.574C93.5346 110.139 92.9216 110.489 92.2987 110.357ZM88.2078 103.786C88.0263 103.76 87.8462 103.805 87.7137 103.909C87.6044 103.994 87.5368 104.113 87.5233 104.244L87.1226 108.108C87.0796 108.523 87.3992 108.914 87.8661 109.017L92.3626 110.01C92.3656 110.01 92.3686 110.011 92.3717 110.011C92.8083 110.103 93.2347 109.872 93.3249 109.492C93.7321 107.778 94.0935 106.168 94.0444 105.298C94.0223 104.908 93.6927 104.57 93.2532 104.476C92.429 104.313 90.9263 104.128 89.719 103.979C89.1413 103.908 88.5957 103.84 88.2078 103.786Z" fill="white"/>
<path opacity="0.6" d="M88.6105 104.278C89.5707 104.413 91.6719 104.638 92.6502 104.832C93.0647 104.913 93.3747 105.24 93.3961 105.619C93.4376 106.355 93.1202 107.737 92.8175 109.011C92.7269 109.393 92.31 109.625 91.8807 109.53L88.2874 108.737C87.8455 108.639 87.5415 108.26 87.5832 107.858L87.9033 104.77C87.9364 104.451 88.2546 104.229 88.6105 104.278Z" fill="white"/>
<g opacity="0.6">
<path d="M96.7859 108.682C96.8121 109.204 97.1891 109.642 97.7016 109.745L139.465 118.176C139.937 118.271 140.396 117.962 140.485 117.488C140.572 117.028 140.276 116.582 139.818 116.483L98.1686 107.507C97.4335 107.348 96.7482 107.931 96.7859 108.682Z" fill="white"/>
</g>
<path d="M88.6769 104.912C89.0527 104.786 89.4585 104.994 89.5761 105.373L90.1291 107.153C90.1844 107.331 90.4192 107.37 90.5292 107.219L93.7676 102.777C93.9292 102.555 94.2763 102.715 94.2157 102.982C93.8769 104.478 92.8773 107.248 89.9755 109.131C89.9755 109.131 88.7621 108.338 88.1903 105.777C88.1077 105.406 88.3174 105.032 88.6769 104.912Z" fill="url(#paint2_linear_1549_222)"/>
<path d="M90.2638 120.015C90.2597 120.014 90.2556 120.013 90.2515 120.012L85.755 119.02C85.1125 118.878 84.6745 118.323 84.736 117.729L85.1366 113.865C85.1602 113.638 85.2753 113.433 85.4608 113.288C85.6685 113.126 85.9459 113.055 86.222 113.093C86.607 113.147 87.1512 113.214 87.7273 113.286C88.9404 113.435 90.4501 113.622 91.2867 113.787C91.2928 113.788 91.299 113.789 91.305 113.791C91.8975 113.916 92.3312 114.384 92.3624 114.935C92.4143 115.853 92.0474 117.491 91.634 119.232C91.4997 119.797 90.8867 120.146 90.2638 120.015ZM86.1729 113.444C85.9914 113.418 85.8113 113.463 85.6788 113.567C85.5695 113.652 85.5019 113.771 85.4884 113.901L85.0877 117.765C85.0446 118.18 85.3643 118.571 85.8312 118.674L90.3277 119.667C90.3307 119.668 90.3337 119.668 90.3368 119.669C90.7734 119.761 91.1997 119.53 91.29 119.15C91.6971 117.436 92.0586 115.825 92.0095 114.955C91.9873 114.566 91.654 114.218 91.2181 114.134C90.394 113.971 88.8914 113.785 87.684 113.637C87.1064 113.565 86.5608 113.498 86.1729 113.444Z" fill="white"/>
<path opacity="0.6" d="M86.5746 113.935C87.5348 114.07 89.636 114.295 90.6143 114.488C91.0288 114.57 91.3388 114.896 91.3602 115.275C91.4018 116.011 91.0843 117.394 90.7816 118.668C90.691 119.05 90.2742 119.281 89.8448 119.187L86.2515 118.393C85.8096 118.296 85.5056 117.916 85.5473 117.514L85.8674 114.427C85.9005 114.107 86.2187 113.885 86.5746 113.935Z" fill="white"/>
<g opacity="0.6">
<path d="M94.7488 118.338C94.775 118.86 95.152 119.298 95.6644 119.401L137.428 127.832C137.9 127.927 138.359 127.618 138.448 127.144C138.535 126.684 138.239 126.238 137.781 126.139L96.1316 117.163C95.3964 117.004 94.7111 117.587 94.7488 118.338Z" fill="white"/>
</g>
<path d="M86.642 114.569C87.0179 114.443 87.4237 114.651 87.5412 115.029L88.0942 116.81C88.1495 116.988 88.3844 117.027 88.4943 116.876L91.7328 112.433C91.8943 112.212 92.2414 112.371 92.1809 112.639C91.842 114.135 90.8424 116.904 87.9406 118.787C87.9406 118.787 86.7272 117.995 86.1554 115.433C86.0728 115.063 86.2825 114.689 86.642 114.569Z" fill="url(#paint3_linear_1549_222)"/>
<path d="M88.2291 129.672C88.2251 129.671 88.2209 129.67 88.2168 129.669L83.7203 128.676C83.0778 128.535 82.6398 127.98 82.7013 127.386L83.102 123.522C83.1255 123.295 83.2407 123.09 83.4263 122.945C83.634 122.782 83.9114 122.711 84.1874 122.75C84.5724 122.804 85.1167 122.871 85.6927 122.942C86.9058 123.092 88.4155 123.278 89.2522 123.444C89.2583 123.445 89.2644 123.446 89.2704 123.447C89.863 123.572 90.2967 124.041 90.3279 124.592C90.3797 125.509 90.0129 127.148 89.5994 128.888C89.4651 129.454 88.8521 129.803 88.2291 129.672ZM84.1382 123.1C83.9568 123.075 83.7766 123.12 83.6442 123.223C83.5349 123.309 83.4672 123.428 83.4537 123.558L83.053 127.422C83.01 127.837 83.3297 128.228 83.7965 128.331L88.2931 129.324C88.2961 129.324 88.2991 129.325 88.3022 129.326C88.7388 129.418 89.1651 129.186 89.2554 128.807C89.6625 127.092 90.024 125.482 89.9749 124.612C89.9527 124.222 89.6197 123.874 89.1836 123.791C88.3594 123.628 86.8568 123.442 85.6495 123.293C85.0718 123.222 84.5261 123.155 84.1382 123.1Z" fill="white"/>
<path opacity="0.6" d="M84.54 123.592C85.5002 123.727 87.6014 123.951 88.5797 124.145C88.9942 124.227 89.3041 124.553 89.3256 124.932C89.3671 125.668 89.0497 127.051 88.747 128.325C88.6564 128.706 88.2395 128.938 87.8102 128.843L84.2168 128.05C83.775 127.952 83.4709 127.573 83.5126 127.171L83.8328 124.083C83.8659 123.764 84.1841 123.542 84.54 123.592Z" fill="white"/>
<g opacity="0.6">
<path d="M92.7144 127.995C92.7406 128.517 93.1176 128.955 93.6301 129.059L135.393 137.489C135.866 137.585 136.325 137.275 136.414 136.802C136.501 136.341 136.205 135.895 135.746 135.797L94.0972 126.82C93.3619 126.662 92.6766 127.244 92.7144 127.995Z" fill="white"/>
</g>
<path d="M84.6071 124.225C84.9829 124.1 85.3887 124.308 85.5063 124.686L86.0592 126.466C86.1146 126.645 86.3494 126.684 86.4594 126.533L89.6979 122.09C89.8594 121.868 90.2066 122.028 90.146 122.295C89.8071 123.792 88.8075 126.561 85.9057 128.444C85.9057 128.444 84.6923 127.652 84.1205 125.09C84.0379 124.72 84.2476 124.346 84.6071 124.225Z" fill="url(#paint4_linear_1549_222)"/>
<path d="M86.1932 139.328C86.1892 139.327 86.185 139.326 86.1809 139.325L81.6844 138.332C81.042 138.19 80.6039 137.636 80.6654 137.042L81.0661 133.178C81.0896 132.951 81.2048 132.746 81.3904 132.601C81.5981 132.438 81.8755 132.367 82.1515 132.406C82.5365 132.46 83.0808 132.527 83.6568 132.598C84.8699 132.748 86.3796 132.934 87.2163 133.1C87.2224 133.101 87.2285 133.102 87.2345 133.103C87.827 133.228 88.2607 133.696 88.2919 134.248C88.3438 135.165 87.9769 136.804 87.5635 138.544C87.4292 139.11 86.8162 139.459 86.1932 139.328ZM82.1023 132.756C81.9209 132.731 81.7408 132.776 81.6083 132.879C81.499 132.965 81.4314 133.084 81.4178 133.214L81.0171 137.078C80.9741 137.493 81.2938 137.884 81.7606 137.987L86.2572 138.98C86.2602 138.98 86.2632 138.981 86.2663 138.982C86.7029 139.074 87.1293 138.842 87.2195 138.462C87.6266 136.748 87.9881 135.138 87.939 134.268C87.9168 133.878 87.5841 133.528 87.1477 133.446C86.3235 133.283 84.8209 133.098 83.6136 132.949C83.0359 132.878 82.4902 132.81 82.1023 132.756Z" fill="white"/>
<path opacity="0.6" d="M82.505 133.249C83.4652 133.384 85.5665 133.608 86.5447 133.802C86.9592 133.884 87.2692 134.21 87.2906 134.589C87.3322 135.325 87.0147 136.707 86.7121 137.981C86.6214 138.363 86.2045 138.595 85.7752 138.5L82.1819 137.707C81.74 137.609 81.436 137.23 81.4777 136.828L81.7978 133.74C81.831 133.421 82.1491 133.199 82.505 133.249Z" fill="white"/>
<g opacity="0.6">
<path d="M90.6797 137.652C90.7059 138.174 91.0829 138.612 91.5954 138.716L133.359 147.146C133.831 147.242 134.29 146.932 134.379 146.459C134.466 145.998 134.17 145.553 133.712 145.454L92.0625 136.477C91.3273 136.319 90.642 136.901 90.6797 137.652Z" fill="white"/>
</g>
<path d="M82.5721 133.882C82.948 133.756 83.3538 133.964 83.4713 134.343L84.0243 136.123C84.0797 136.301 84.3145 136.34 84.4244 136.19L87.6629 131.747C87.8244 131.525 88.1716 131.685 88.111 131.952C87.7721 133.449 86.7725 136.218 83.8708 138.101C83.8708 138.101 82.6573 137.308 82.0855 134.747C82.003 134.377 82.2126 134.003 82.5721 133.882Z" fill="url(#paint5_linear_1549_222)"/>
<path d="M26.2821 58.3157C26.0073 57.0024 26.957 55.7499 28.2958 55.662C37.1751 55.0787 67.6264 52.6676 91.8116 45.7916C92.9145 45.4781 94.0593 46.1295 94.3468 47.2395L117.961 138.396C118.285 139.646 117.54 140.923 116.292 141.254C106.083 143.964 64.0089 154.971 48.5076 156.464C47.5641 156.555 46.7049 155.92 46.5108 154.992L26.2821 58.3157Z" fill="#66AAD7"/>
<path d="M27.7693 60.4182C27.5049 59.1544 28.4188 57.9491 29.7072 57.8645C38.2521 57.3032 67.5568 54.9829 90.8313 48.3658C91.8927 48.0641 92.9943 48.691 93.271 49.7592L115.996 137.483C116.308 138.686 115.59 139.915 114.39 140.234C104.565 142.842 64.0755 153.434 49.1579 154.871C48.2499 154.958 47.4231 154.347 47.2363 153.454L27.7693 60.4182Z" fill="#D3E1FD"/>
<path opacity="0.78" d="M36.8558 65.6917L41.6006 84.5248C41.7584 85.1512 42.3714 85.5502 43.0078 85.4395C46.5491 84.8237 57.5754 82.8628 63.705 81.2815C64.3984 81.1027 64.8376 80.4231 64.7184 79.7171C64.1123 76.1275 62.263 65.6973 60.5694 61.524C60.2958 60.8499 59.5891 60.4588 58.8716 60.5786L37.9115 64.0779C37.1557 64.2041 36.6686 64.9487 36.8558 65.6917Z" fill="white"/>
<path d="M54.3748 70.3394C54.5315 68.0414 52.7955 66.0515 50.4975 65.8949C48.1994 65.7382 46.2095 67.4742 46.0529 69.7722C45.8963 72.0702 47.6322 74.0601 49.9303 74.2167C52.2283 74.3733 54.2182 72.6374 54.3748 70.3394Z" fill="#EB2027"/>
<path d="M46.4416 83.3165L59.4625 80.6718C60.2608 80.5097 60.5601 79.531 59.9936 78.9457C58.5361 77.4397 55.7056 75.3672 51.7214 76.2959C47.8813 77.191 46.0584 79.9526 45.2421 81.8333C44.8956 82.6318 45.5886 83.4897 46.4416 83.3165Z" fill="#EB2027"/>
<g opacity="0.6">
<path d="M89.2623 56.7716C89.6701 56.6887 89.937 56.3356 89.8555 55.987C89.7741 55.6383 89.3726 55.4147 88.9634 55.4903L66.0585 59.719C65.6493 59.7945 65.4893 60.1485 65.7029 60.5056L65.8751 60.7935C66.0886 61.1506 66.5971 61.375 67.0048 61.2922L89.2623 56.7716Z" fill="white"/>
</g>
<g opacity="0.6">
<path d="M66.7778 63.2629C66.3685 63.3385 66.2085 63.6925 66.4221 64.0496L66.5943 64.3375C66.8079 64.6946 67.3163 64.919 67.7241 64.8362L89.9816 60.3155C90.3894 60.2327 90.6563 59.8796 90.5748 59.5309C90.4933 59.1822 90.0919 58.9587 89.6826 59.0342L66.7778 63.2629Z" fill="white"/>
</g>
<g opacity="0.6">
<path d="M67.5078 66.8581C67.0985 66.9337 66.9385 67.2877 67.1521 67.6448L67.3243 67.9327C67.5379 68.2898 68.0463 68.5142 68.454 68.4314L90.7115 63.9107C91.1193 63.8278 91.3862 63.4748 91.3048 63.1261C91.2233 62.7774 90.8218 62.5539 90.4126 62.6294L67.5078 66.8581Z" fill="white"/>
</g>
<g opacity="0.6">
<path d="M96.4503 80.8027C96.8581 80.7199 97.1145 80.369 97.0201 80.0229C96.9256 79.6768 96.5142 79.4588 96.1058 79.5384L42.5537 89.9765C42.1453 90.056 42.072 90.34 42.3908 90.6074L42.9391 91.0673C43.2579 91.3347 43.8524 91.4858 44.2602 91.403L96.4503 80.8027Z" fill="white"/>
</g>
<g opacity="0.6">
<path d="M43.2735 93.5199C42.8651 93.5996 42.7917 93.8835 43.1105 94.1509L43.6588 94.6108C43.9776 94.8782 44.5721 95.0293 44.9799 94.9464L97.17 84.3462C97.5778 84.2633 97.8342 83.9124 97.7398 83.5663C97.6454 83.2202 97.234 83.0022 96.8256 83.0818L43.2735 93.5199Z" fill="white"/>
</g>
<path opacity="0.6" d="M44.2344 99.4875C45.4999 99.1279 47.898 98.5933 49.2194 98.3057C49.7794 98.1837 50.3491 98.4641 50.5916 98.9833C51.0627 99.9916 51.7895 101.761 52.1413 103.721C52.2466 104.308 51.8628 104.871 51.2772 104.983L46.3763 105.924C45.7736 106.04 45.1809 105.681 45.0034 105.094L43.639 100.581C43.4979 100.114 43.7652 99.6209 44.2344 99.4875Z" fill="white"/>
<g opacity="0.6">
<path d="M53.6606 99.539C53.2498 99.6047 53.0301 99.9783 53.1726 100.369L53.4512 101.134C53.5937 101.525 54.0439 101.777 54.4517 101.694L66.3284 99.2818C66.7362 99.199 66.9979 98.7984 66.91 98.3917L66.8668 98.1916C66.7789 97.7849 66.3707 97.5059 65.9599 97.5716L53.6606 99.539Z" fill="white"/>
</g>
<path opacity="0.6" d="M70.876 94.0759C72.1415 93.7163 74.5396 93.1817 75.861 92.894C76.421 92.7721 76.9907 93.0525 77.2332 93.5716C77.7044 94.58 78.4311 96.3494 78.7828 98.309C78.8882 98.8959 78.5044 99.4594 77.9188 99.5718L73.0179 100.512C72.4152 100.628 71.8225 100.27 71.6449 99.6823L70.2806 95.1692C70.1395 94.7023 70.4069 94.2092 70.876 94.0759Z" fill="white"/>
<g opacity="0.6">
<path d="M80.3023 94.1284C79.8914 94.1941 79.6717 94.5677 79.8142 94.9587L80.0928 95.7232C80.2353 96.1141 80.6855 96.3662 81.0933 96.2834L92.97 93.8712C93.3778 93.7883 93.6396 93.3878 93.5516 92.981L93.5084 92.781C93.4205 92.3742 93.0124 92.0952 92.6015 92.161L80.3023 94.1284Z" fill="white"/>
</g>
<path d="M54.8424 116.338C54.8383 116.339 54.8341 116.34 54.83 116.341L50.3087 117.214C49.6627 117.339 49.0404 117.003 48.8612 116.434L47.6955 112.728C47.6271 112.511 47.6516 112.277 47.7642 112.07C47.8903 111.838 48.1167 111.663 48.3854 111.589C48.7603 111.486 49.2865 111.331 49.8434 111.168C51.0163 110.824 52.476 110.396 53.3096 110.216C53.9154 110.089 54.5026 110.344 54.7527 110.843C55.1643 111.664 55.4778 113.314 55.7891 115.075C55.8903 115.648 55.4662 116.212 54.8424 116.338ZM48.4794 111.93C48.3027 111.979 48.1552 112.091 48.0748 112.239C48.0084 112.361 47.9935 112.497 48.0329 112.622L49.1985 116.328C49.3238 116.726 49.7722 116.958 50.2418 116.867L54.763 115.994C54.766 115.993 54.769 115.992 54.7721 115.992C55.2094 115.903 55.5089 115.521 55.441 115.137C55.1345 113.402 54.827 111.78 54.4367 111.001C54.2617 110.652 53.8252 110.473 53.3845 110.561C52.5633 110.739 51.1105 111.165 49.9431 111.507C49.3846 111.671 48.857 111.826 48.4794 111.93Z" fill="white"/>
<path opacity="0.6" d="M49.0442 112.223C49.979 111.966 51.9968 111.338 52.9715 111.127C53.3845 111.038 53.7985 111.215 53.9685 111.554C54.2988 112.213 54.5561 113.608 54.7839 114.898C54.8521 115.284 54.5616 115.662 54.1298 115.745L50.5167 116.443C50.0724 116.529 49.6428 116.301 49.5215 115.916L48.59 112.955C48.4937 112.649 48.6977 112.319 49.0442 112.223Z" fill="white"/>
<g opacity="0.6">
<path d="M58.2948 113.02C58.526 113.489 59.0458 113.741 59.5572 113.632L101.237 104.796C101.708 104.696 102.007 104.23 101.901 103.76C101.797 103.303 101.349 103.011 100.889 103.103L59.0976 111.393C58.36 111.539 57.962 112.345 58.2948 113.02Z" fill="white"/>
</g>
<path d="M56.8065 126.01C56.8024 126.011 56.7983 126.012 56.7941 126.012L52.2728 126.886C51.6269 127.01 51.0045 126.675 50.8253 126.105L49.6596 122.4C49.5912 122.182 49.6157 121.949 49.7283 121.742C49.8544 121.51 50.0808 121.335 50.3496 121.261C50.7244 121.157 51.2506 121.003 51.8076 120.84C52.9804 120.496 54.4402 120.068 55.2738 119.887C55.2798 119.886 55.2859 119.885 55.2919 119.883C55.8853 119.763 56.4693 120.021 56.7169 120.514C57.1285 121.336 57.442 122.985 57.7532 124.747C57.8544 125.319 57.4303 125.883 56.8065 126.01ZM50.4435 121.602C50.2668 121.65 50.1193 121.763 50.0389 121.911C49.9725 122.032 49.9577 122.169 49.997 122.293L51.1626 125.999C51.2879 126.397 51.7364 126.629 52.2059 126.538L56.7271 125.665C56.7301 125.665 56.7331 125.664 56.7362 125.663C57.1735 125.574 57.4729 125.193 57.4051 124.808C57.0985 123.073 56.7911 121.452 56.4007 120.673C56.2258 120.324 55.7821 120.138 55.3485 120.233C54.5274 120.41 53.0746 120.837 51.9072 121.179C51.3487 121.343 50.8211 121.498 50.4435 121.602Z" fill="white"/>
<path opacity="0.6" d="M51.0083 121.895C51.9431 121.637 53.961 121.01 54.9356 120.799C55.3486 120.71 55.7626 120.886 55.9327 121.225C56.2629 121.884 56.5202 123.279 56.748 124.569C56.8162 124.955 56.5257 125.333 56.094 125.417L52.4808 126.115C52.0365 126.2 51.607 125.973 51.4857 125.587L50.5541 122.626C50.4578 122.32 50.6618 121.99 51.0083 121.895Z" fill="white"/>
<g opacity="0.6">
<path d="M60.2601 122.693C60.4914 123.161 61.0112 123.414 61.5226 123.305L103.202 114.469C103.673 114.369 103.972 113.903 103.866 113.433C103.763 112.976 103.314 112.684 102.854 112.775L61.063 121.065C60.3253 121.212 59.9274 122.018 60.2601 122.693Z" fill="white"/>
</g>
<path d="M58.7708 135.681C58.7667 135.682 58.7626 135.683 58.7584 135.684L54.2371 136.557C53.5912 136.682 52.969 136.346 52.7897 135.777L51.624 132.071C51.5556 131.854 51.58 131.62 51.6927 131.413C51.8189 131.181 52.0452 131.006 52.3139 130.932C52.6888 130.829 53.2149 130.674 53.7719 130.511C54.9448 130.167 56.4045 129.739 57.2381 129.559C57.2442 129.557 57.2502 129.556 57.2562 129.555C57.8497 129.434 58.4336 129.692 58.6812 130.186C59.0928 131.007 59.4063 132.657 59.7175 134.418C59.8187 134.991 59.3947 135.555 58.7708 135.681ZM52.4078 131.273C52.2311 131.322 52.0837 131.434 52.0032 131.582C51.9368 131.704 51.9219 131.84 51.9613 131.965L53.127 135.671C53.2523 136.069 53.7007 136.301 54.1701 136.21L58.6915 135.337C58.6945 135.336 58.6975 135.335 58.7005 135.335C59.1378 135.246 59.4373 134.864 59.3695 134.48C59.0629 132.745 58.7554 131.123 58.3651 130.344C58.1901 129.995 57.7462 129.808 57.3128 129.904C56.4917 130.082 55.0389 130.508 53.8716 130.85C53.313 131.014 52.7855 131.169 52.4078 131.273Z" fill="white"/>
<path opacity="0.6" d="M52.9734 131.566C53.9082 131.309 55.926 130.681 56.9007 130.47C57.3137 130.381 57.7277 130.557 57.8977 130.897C58.228 131.556 58.4853 132.951 58.7131 134.24C58.7813 134.627 58.4908 135.005 58.059 135.088L54.4459 135.786C54.0016 135.872 53.5721 135.644 53.4508 135.259L52.5192 132.298C52.4229 131.991 52.6269 131.661 52.9734 131.566Z" fill="white"/>
<g opacity="0.6">
<path d="M62.2237 132.363C62.455 132.831 62.9748 133.084 63.4862 132.975L105.166 124.139C105.637 124.039 105.936 123.573 105.83 123.103C105.726 122.646 105.278 122.354 104.818 122.445L63.0266 130.735C62.2889 130.882 61.891 131.688 62.2237 132.363Z" fill="white"/>
</g>
<path d="M60.7349 145.353C60.7308 145.354 60.7267 145.354 60.7225 145.355L56.2013 146.228C55.5553 146.353 54.9331 146.018 54.7538 145.448L53.5881 141.743C53.5197 141.525 53.5441 141.291 53.6568 141.084C53.783 140.853 54.0093 140.677 54.278 140.603C54.6529 140.5 55.1791 140.346 55.736 140.182C56.9089 139.838 58.3686 139.41 59.2022 139.23C59.2083 139.229 59.2143 139.227 59.2203 139.226C59.8138 139.106 60.3977 139.363 60.6453 139.857C61.0569 140.679 61.3704 142.328 61.6817 144.09C61.7828 144.662 61.3588 145.226 60.7349 145.353ZM54.3719 140.944C54.1952 140.993 54.0478 141.106 53.9673 141.253C53.9009 141.375 53.886 141.511 53.9254 141.637L55.0911 145.342C55.2164 145.74 55.6648 145.972 56.1342 145.881L60.6556 145.008C60.6586 145.007 60.6616 145.007 60.6647 145.006C61.1019 144.917 61.4014 144.536 61.3336 144.151C61.027 142.416 60.7196 140.795 60.3292 140.016C60.1542 139.667 59.7101 139.478 59.277 139.576C58.4558 139.753 57.003 140.179 55.8357 140.522C55.2771 140.686 54.7496 140.84 54.3719 140.944Z" fill="white"/>
<path opacity="0.6" d="M54.9367 141.236C55.8715 140.979 57.8894 140.351 58.8641 140.141C59.2771 140.051 59.6911 140.228 59.8611 140.567C60.1914 141.226 60.4487 142.621 60.6765 143.911C60.7447 144.297 60.4541 144.675 60.0224 144.759L56.4093 145.456C55.965 145.542 55.5354 145.315 55.4141 144.929L54.4826 141.968C54.3863 141.662 54.5902 141.332 54.9367 141.236Z" fill="white"/>
<g opacity="0.6">
<path d="M64.1883 142.034C64.4196 142.503 64.9394 142.756 65.4508 142.647L107.13 133.811C107.602 133.711 107.9 133.245 107.794 132.775C107.691 132.318 107.242 132.026 106.783 132.117L64.9912 140.407C64.2535 140.553 63.8556 141.36 64.1883 142.034Z" fill="white"/>
</g>
<path d="M55.25 141.792C55.5451 141.528 56.0001 141.557 56.2582 141.858L57.4723 143.273C57.5938 143.414 57.8248 143.357 57.8659 143.175L59.0752 137.812C59.1356 137.544 59.5175 137.553 59.5681 137.823C59.8509 139.331 60.0324 142.269 58.1162 145.149C58.1162 145.149 56.688 144.903 55.1465 142.779C54.9238 142.472 54.9678 142.045 55.25 141.792Z" fill="url(#paint6_linear_1549_222)"/>
<path d="M53.3142 137.183C53.728 141.526 54.6997 147.268 55.8675 152.216H56.6008C55.0908 146.245 53.7011 138.068 54.1103 128.642C54.523 119.137 56.851 107.596 52.51 102.083C48.8971 97.4942 33.5664 96.8082 28.5251 96.7072C27.8952 96.6946 27.5346 97.4202 27.9267 97.9135C29.8594 100.345 33.9065 105.977 34.259 110.895C34.7237 117.377 39.7617 122.465 44.7676 124.583C49.7735 126.701 52.4692 128.317 53.3142 137.183Z" fill="#EB2027"/>
<path opacity="0.5" d="M34.8282 100.714C37.9291 101.501 40.862 102.916 43.4282 104.854C44.7137 105.818 45.8787 106.952 46.8833 108.218C47.8772 109.491 48.7118 110.901 49.2912 112.416L49.5057 112.985C49.5759 113.174 49.6283 113.37 49.6904 113.563C49.7475 113.757 49.8123 113.952 49.863 114.144L50.0162 114.72C50.2222 115.488 50.4245 116.256 50.6188 117.027C51.0099 118.568 51.3763 120.115 51.7187 121.668C52.405 124.772 52.9955 127.898 53.3936 131.058C53.4032 131.134 53.3495 131.203 53.2736 131.213C53.2004 131.222 53.1334 131.172 53.1202 131.101L53.1194 131.097C52.8364 129.541 52.5233 127.985 52.1807 126.439C51.8453 124.89 51.4911 123.346 51.1201 121.805L50.5562 119.497L49.9663 117.194C49.7702 116.427 49.5662 115.661 49.3585 114.897L49.2041 114.323C49.1528 114.132 49.0913 113.95 49.0355 113.763C48.9769 113.578 48.9281 113.39 48.8616 113.208L48.6588 112.661C48.1145 111.205 47.312 109.855 46.3766 108.612C45.8951 108.001 45.3914 107.403 44.8323 106.857L44.6267 106.649L44.413 106.448C44.27 106.315 44.1303 106.178 43.9844 106.048C43.6889 105.792 43.3964 105.531 43.087 105.291C41.8674 104.306 40.5279 103.47 39.1358 102.737C37.7435 102.006 36.2787 101.388 34.7754 100.93L34.7685 100.928C34.7098 100.91 34.6767 100.848 34.6945 100.79C34.7119 100.733 34.7711 100.7 34.8282 100.714Z" fill="white"/>
<path d="M53.4588 143.065C56.0807 146.915 55.7441 149.069 55.8247 150.893C55.8389 151.217 55.8568 151.675 55.8943 152.216H56.6102C56.4641 151.473 56.3603 150.724 56.3232 149.99C56.0682 144.951 54.9316 136.352 50.5866 131.208C46.2416 126.064 41.4835 125.594 35.4881 130.271C30.4918 134.168 27.3753 136.135 25.5476 136.5C25.095 136.591 24.8641 137.102 25.0843 137.507C26.2565 139.666 29.5709 144.625 35.1357 144.276C42.2341 143.83 50.8368 139.216 53.4588 143.065Z" fill="#EB2027"/>
<path opacity="0.5" d="M37.5193 136.467C37.9119 136.093 38.3279 135.757 38.7572 135.432C39.1863 135.108 39.6286 134.799 40.089 134.517C41.0067 133.951 41.9859 133.467 43.0288 133.134C43.5504 132.969 44.0876 132.843 44.637 132.773C45.1864 132.706 45.7479 132.697 46.305 132.766C46.4436 132.789 46.5836 132.802 46.721 132.833C46.8573 132.865 46.9983 132.891 47.1306 132.929L47.913 133.171L48.6787 133.469L49.4208 133.826C50.3935 134.338 51.2736 135.031 52.0059 135.847C52.7439 136.661 53.3213 137.598 53.7963 138.569L53.9746 138.934C54.0358 139.055 54.0803 139.183 54.1338 139.307C54.2347 139.557 54.3434 139.805 54.4375 140.057L54.7009 140.821C54.7942 141.074 54.8537 141.336 54.929 141.594C55.2265 142.627 55.4315 143.679 55.6085 144.733C55.6183 144.792 55.5787 144.848 55.5199 144.858C55.4637 144.867 55.4104 144.831 55.3971 144.777L55.3963 144.774C55.1463 143.741 54.9058 142.706 54.562 141.706C54.4061 141.2 54.2083 140.711 54.0244 140.218C53.9253 139.974 53.8123 139.737 53.7072 139.496C53.6516 139.377 53.605 139.254 53.5422 139.139L53.3593 138.791C52.8752 137.863 52.2875 136.993 51.5856 136.232C50.8832 135.472 50.0497 134.844 49.1368 134.364L48.4368 134.032L47.7115 133.754L46.9666 133.528C46.8429 133.493 46.7216 133.469 46.599 133.439C46.4768 133.41 46.3507 133.399 46.2268 133.377C45.7268 133.312 45.2154 133.316 44.7074 133.373C44.1987 133.428 43.6924 133.535 43.1952 133.68C42.1991 133.97 41.2387 134.403 40.3161 134.907C39.8565 135.163 39.4012 135.43 38.9591 135.719C38.5185 136.008 38.0831 136.314 37.6682 136.635L37.6654 136.637C37.6164 136.675 37.5459 136.666 37.508 136.617C37.4725 136.571 37.4784 136.506 37.5193 136.467Z" fill="white"/>
<path d="M53.6069 67.6585C53.6069 63.7141 56.8045 60.5166 60.7488 60.5166H121.484C124.834 60.5166 127.597 63.1424 127.768 66.4888L132.251 154.543C132.384 157.162 130.323 159.37 127.701 159.418L58.0913 160.683C55.6279 160.728 53.6069 158.743 53.6069 156.28V67.6585Z" fill="#0071BC"/>
<path d="M58.583 61.8724C58.5756 60.6105 59.6854 59.6338 60.936 59.8034C69.2299 60.9281 97.7504 64.4067 121.331 62.5966C122.406 62.514 123.339 63.3288 123.397 64.4058L128.097 152.853C128.162 154.065 127.236 155.102 126.024 155.174C116.106 155.761 75.2627 158.03 60.6945 156.504C59.8078 156.411 59.1348 155.665 59.1296 154.773L58.583 61.8724Z" fill="#91B3FA"/>
<path opacity="0.6" d="M59.5596 64.0883C59.5524 62.8738 60.6205 61.9339 61.824 62.0971C69.8055 63.1794 97.2521 66.5271 119.945 64.7851C120.979 64.7056 121.878 65.4897 121.933 66.5262L126.456 151.642C126.518 152.809 125.627 153.808 124.461 153.877C114.917 154.441 75.6111 156.625 61.5915 155.156C60.7382 155.067 60.0905 154.349 60.0855 153.491L59.5596 64.0883Z" fill="white"/>
<path opacity="0.78" d="M66.9489 70.6511L67.7966 88.8992C67.8248 89.506 68.315 89.9886 68.9224 90.0058C72.3019 90.1011 82.8327 90.3579 88.7789 90.0479C89.4515 90.0129 89.9836 89.4687 90.0059 88.7956C90.1193 85.3734 90.3674 75.4129 89.5876 71.249C89.4616 70.5764 88.8835 70.0836 88.1996 70.0597L68.2241 69.3611C67.5038 69.3359 66.9154 69.9311 66.9489 70.6511Z" fill="white"/>
<path d="M78.4426 81.0985C80.6091 81.0985 82.3654 79.3422 82.3654 77.1757C82.3654 75.0092 80.6091 73.2529 78.4426 73.2529C76.2761 73.2529 74.5198 75.0092 74.5198 77.1757C74.5198 79.3422 76.2761 81.0985 78.4426 81.0985Z" fill="#EB2027"/>
<path d="M72.4841 88.6925H84.9815C85.7477 88.6925 86.2068 87.8464 85.7942 87.2008C84.7327 85.5398 82.5116 83.0995 78.6652 83.2097C74.958 83.3158 72.7607 85.52 71.6561 87.1008C71.1871 87.7719 71.6654 88.6925 72.4841 88.6925Z" fill="#EB2027"/>
<g opacity="0.6">
<path d="M116.924 72.2403C117.316 72.2403 117.628 71.9648 117.618 71.6281C117.608 71.2914 117.28 71.0102 116.889 71.0033L94.9839 70.6129C94.5926 70.6059 94.3788 70.9023 94.5088 71.2715L94.6136 71.5691C94.7436 71.9382 95.1703 72.2403 95.5617 72.2403H116.924Z" fill="white"/>
</g>
<g opacity="0.6">
<path d="M94.9839 74.0148C94.5926 74.0078 94.3788 74.3042 94.5088 74.6733L94.6136 74.9709C94.7436 75.3401 95.1703 75.6421 95.5617 75.6421H116.924C117.316 75.6421 117.628 75.3667 117.618 75.0299C117.608 74.6932 117.28 74.4121 116.889 74.4051L94.9839 74.0148Z" fill="white"/>
</g>
<g opacity="0.6">
<path d="M94.9839 77.4659C94.5926 77.459 94.3788 77.7553 94.5088 78.1245L94.6136 78.4221C94.7436 78.7913 95.1703 79.0933 95.5617 79.0933H116.924C117.316 79.0933 117.628 78.8178 117.618 78.4811C117.608 78.1444 117.28 77.8632 116.889 77.8562L94.9839 77.4659Z" fill="white"/>
</g>
<g opacity="0.6">
<path d="M119.052 95.7375C119.443 95.7375 119.745 95.462 119.723 95.1253C119.701 94.7886 119.362 94.5106 118.971 94.5076L67.6539 94.1031C67.2625 94.1 67.1418 94.348 67.3855 94.6541L67.8049 95.1807C68.0487 95.4869 68.5684 95.7374 68.9598 95.7374L119.052 95.7375Z" fill="white"/>
</g>
<g opacity="0.6">
<path d="M67.6539 97.5049C67.2625 97.5018 67.1418 97.7498 67.3855 98.056L67.8049 98.5826C68.0487 98.8888 68.5684 99.1393 68.9598 99.1393H119.052C119.443 99.1393 119.745 98.8638 119.723 98.5271C119.701 98.1904 119.362 97.9124 118.971 97.9093L67.6539 97.5049Z" fill="white"/>
</g>
<path d="M67.4226 103.184C68.6564 103.09 70.9671 103.046 72.2389 103.028C72.7779 103.02 73.2506 103.386 73.3769 103.909C73.6224 104.927 73.9611 106.694 73.9184 108.566C73.9056 109.127 73.4463 109.575 72.8855 109.569L68.1919 109.518C67.6147 109.512 67.1355 109.071 67.0818 108.496L66.6692 104.08C66.6265 103.624 66.9652 103.219 67.4226 103.184Z" fill="#0071BC"/>
<g opacity="0.6">
<path d="M76.1029 104.998C75.7118 104.981 75.4394 105.285 75.4976 105.672L75.6112 106.429C75.6693 106.816 76.0371 107.132 76.4285 107.132H87.8278C88.2192 107.132 88.5354 106.812 88.5305 106.421L88.5281 106.228C88.5233 105.837 88.1993 105.503 87.8082 105.487L76.1029 104.998Z" fill="white"/>
</g>
<path d="M92.9931 103.184C94.2269 103.09 96.5376 103.046 97.8094 103.028C98.3484 103.02 98.8211 103.386 98.9475 103.909C99.1929 104.927 99.5316 106.694 99.4889 108.566C99.4762 109.127 99.0169 109.575 98.4561 109.569L93.7624 109.518C93.1853 109.512 92.706 109.071 92.6523 108.496L92.2397 104.08C92.197 103.624 92.5357 103.219 92.9931 103.184Z" fill="#0071BC"/>
<g opacity="0.6">
<path d="M101.673 104.998C101.282 104.981 101.009 105.285 101.067 105.672L101.181 106.429C101.239 106.816 101.607 107.132 101.998 107.132H113.398C113.789 107.132 114.105 106.812 114.1 106.421L114.098 106.228C114.093 105.837 113.769 105.503 113.378 105.487L101.673 104.998Z" fill="white"/>
</g>
<path d="M74.0457 120.702C74.0418 120.702 74.0378 120.702 74.0339 120.702L69.7028 120.661C69.084 120.654 68.5732 120.229 68.5146 119.67L68.1339 116.036C68.1115 115.823 68.1778 115.612 68.3204 115.442C68.48 115.253 68.7215 115.133 68.9831 115.115C69.348 115.091 69.8618 115.047 70.4058 115C71.5513 114.903 72.977 114.782 73.7791 114.772C74.3611 114.769 74.8548 115.113 74.9919 115.62C75.2176 116.454 75.1978 118.033 75.1548 119.715C75.1409 120.262 74.6445 120.702 74.0457 120.702ZM69.0058 115.447C68.8339 115.459 68.6769 115.535 68.575 115.657C68.491 115.756 68.4518 115.879 68.4647 116.002L68.8453 119.636C68.8862 120.026 69.2563 120.324 69.706 120.328L74.0371 120.37C74.0399 120.37 74.0428 120.37 74.0457 120.37C74.4654 120.37 74.8129 120.074 74.8224 119.707C74.8646 118.05 74.8849 116.498 74.6709 115.707C74.575 115.352 74.2062 115.105 73.7834 115.104C72.9932 115.114 71.5743 115.235 70.4341 115.332C69.8887 115.378 69.3734 115.422 69.0058 115.447Z" fill="white"/>
<path opacity="0.6" d="M69.4719 115.823C70.3817 115.76 72.3592 115.56 73.2971 115.548C73.6945 115.543 74.0431 115.783 74.1363 116.128C74.3173 116.797 74.2933 118.131 74.2619 119.362C74.2525 119.731 73.9138 120.025 73.5003 120.022L70.0392 119.988C69.6135 119.984 69.2602 119.694 69.2205 119.316L68.9162 116.412C68.8848 116.112 69.1346 115.846 69.4719 115.823Z" fill="white"/>
<g opacity="0.6">
<path d="M77.8499 118.29C77.9753 118.765 78.4072 119.095 78.8989 119.091L118.972 118.749C119.425 118.745 119.788 118.371 119.778 117.918C119.768 117.477 119.409 117.125 118.969 117.123L78.8946 116.94C78.1872 116.937 77.6695 117.606 77.8499 118.29Z" fill="white"/>
</g>
<path d="M69.6558 116.392C69.9773 116.204 70.3911 116.316 70.5727 116.642L71.427 118.173C71.5125 118.326 71.7362 118.317 71.8082 118.157L73.927 113.439C74.0327 113.204 74.3831 113.284 74.3793 113.542C74.3576 114.984 73.9748 117.727 71.6693 120.023C71.6693 120.023 70.3988 119.529 69.3757 117.282C69.2278 116.958 69.3482 116.573 69.6558 116.392Z" fill="#0071BC"/>
<path d="M74.0457 129.985C74.0418 129.985 74.0378 129.985 74.0339 129.985L69.7028 129.944C69.084 129.938 68.5732 129.512 68.5146 128.954L68.1339 125.32C68.1115 125.106 68.1778 124.895 68.3204 124.726C68.48 124.536 68.7215 124.417 68.9831 124.399C69.348 124.374 69.8618 124.33 70.4058 124.284C71.5513 124.186 72.977 124.065 73.7791 124.055C73.785 124.055 73.7908 124.055 73.7966 124.055C74.3662 124.055 74.8562 124.402 74.9919 124.903C75.2176 125.737 75.1978 127.316 75.1548 128.999C75.1409 129.545 74.6445 129.985 74.0457 129.985ZM69.0058 124.731C68.8339 124.742 68.6769 124.819 68.575 124.94C68.491 125.04 68.4518 125.162 68.4647 125.285L68.8453 128.919C68.8862 129.309 69.2563 129.607 69.706 129.611L74.0371 129.653C74.0399 129.653 74.0428 129.653 74.0457 129.653C74.4654 129.653 74.8129 129.357 74.8224 128.99C74.8646 127.333 74.8849 125.781 74.6709 124.99C74.5749 124.635 74.2009 124.381 73.7833 124.387C72.9932 124.397 71.5742 124.518 70.4341 124.615C69.8887 124.662 69.3734 124.705 69.0058 124.731Z" fill="white"/>
<path opacity="0.6" d="M69.4719 125.105C70.3817 125.043 72.3592 124.842 73.2971 124.83C73.6945 124.825 74.0431 125.065 74.1363 125.41C74.3173 126.079 74.2933 127.413 74.2619 128.645C74.2525 129.013 73.9138 129.308 73.5003 129.304L70.0392 129.27C69.6135 129.266 69.2602 128.976 69.2205 128.598L68.9162 125.694C68.8848 125.394 69.1346 125.128 69.4719 125.105Z" fill="white"/>
<g opacity="0.6">
<path d="M77.8499 127.573C77.9753 128.048 78.4072 128.378 78.8989 128.374L118.972 128.032C119.425 128.028 119.788 127.655 119.778 127.201C119.768 126.761 119.409 126.408 118.969 126.406L78.8946 126.223C78.1872 126.22 77.6695 126.889 77.8499 127.573Z" fill="white"/>
</g>
<path d="M69.6558 125.674C69.9773 125.486 70.3911 125.598 70.5727 125.924L71.427 127.455C71.5125 127.609 71.7362 127.599 71.8082 127.439L73.927 122.722C74.0327 122.486 74.3831 122.566 74.3793 122.824C74.3576 124.267 73.9748 127.009 71.6693 129.305C71.6693 129.305 70.3988 128.811 69.3757 126.565C69.2278 126.24 69.3482 125.855 69.6558 125.674Z" fill="#0071BC"/>
<path d="M74.0457 139.267C74.0418 139.267 74.0378 139.267 74.0339 139.267L69.7028 139.225C69.084 139.219 68.5732 138.794 68.5146 138.235L68.1339 134.601C68.1115 134.388 68.1778 134.177 68.3205 134.007C68.4801 133.817 68.7216 133.698 68.9831 133.68C69.348 133.655 69.8619 133.611 70.4059 133.565C71.5514 133.468 72.9771 133.346 73.7792 133.336C73.785 133.336 73.7909 133.336 73.7966 133.336C74.3662 133.336 74.8562 133.683 74.992 134.184C75.2176 135.019 75.1978 136.598 75.1548 138.28C75.1409 138.826 74.6445 139.267 74.0457 139.267ZM69.0058 134.012C68.8339 134.024 68.6769 134.1 68.575 134.221C68.491 134.321 68.4518 134.444 68.4647 134.566L68.8453 138.2C68.8862 138.591 69.2563 138.888 69.7059 138.893L74.037 138.934C74.0398 138.934 74.0428 138.934 74.0457 138.934C74.4654 138.934 74.8129 138.638 74.8223 138.271C74.8646 136.615 74.8848 135.062 74.6708 134.271C74.5749 133.917 74.2008 133.661 73.7832 133.669C72.9931 133.679 71.5742 133.799 70.4341 133.897C69.8887 133.943 69.3734 133.987 69.0058 134.012Z" fill="white"/>
<path opacity="0.6" d="M69.4719 134.388C70.3817 134.326 72.3592 134.125 73.2971 134.113C73.6945 134.108 74.0431 134.348 74.1363 134.693C74.3173 135.362 74.2933 136.696 74.2619 137.928C74.2525 138.297 73.9138 138.591 73.5003 138.587L70.0392 138.554C69.6135 138.55 69.2602 138.259 69.2205 137.881L68.9162 134.977C68.8848 134.677 69.1346 134.411 69.4719 134.388Z" fill="white"/>
<g opacity="0.6">
<path d="M77.8499 136.855C77.9753 137.331 78.4072 137.66 78.8989 137.656L118.972 137.315C119.425 137.311 119.788 136.937 119.778 136.484C119.768 136.043 119.409 135.69 118.969 135.688L78.8946 135.505C78.1872 135.502 77.6695 136.171 77.8499 136.855Z" fill="white"/>
</g>
<path d="M69.6558 134.958C69.9773 134.769 70.3911 134.882 70.5727 135.207L71.427 136.739C71.5125 136.892 71.7362 136.882 71.8082 136.722L73.927 132.005C74.0327 131.769 74.3831 131.849 74.3793 132.107C74.3576 133.55 73.9748 136.293 71.6693 138.588C71.6693 138.588 70.3988 138.095 69.3757 135.848C69.2278 135.523 69.3482 135.138 69.6558 134.958Z" fill="#0071BC"/>
<path d="M74.0457 148.55C74.0418 148.55 74.0378 148.55 74.0339 148.55L69.7028 148.508C69.084 148.502 68.5732 148.077 68.5146 147.518L68.1339 143.884C68.1115 143.671 68.1778 143.46 68.3205 143.29C68.4801 143.1 68.7216 142.981 68.9831 142.963C69.348 142.938 69.8619 142.895 70.4059 142.848C71.5514 142.751 72.9771 142.629 73.7792 142.619C73.785 142.619 73.7909 142.619 73.7966 142.619C74.3662 142.619 74.8562 142.966 74.992 143.468C75.2176 144.302 75.1978 145.881 75.1548 147.563C75.1409 148.109 74.6445 148.55 74.0457 148.55ZM69.0058 143.295C68.8339 143.307 68.6769 143.383 68.575 143.504C68.491 143.604 68.4518 143.727 68.4647 143.849L68.8453 147.483C68.8862 147.874 69.2563 148.171 69.7059 148.176L74.037 148.217C74.0398 148.217 74.0428 148.217 74.0457 148.217C74.4654 148.217 74.8129 147.922 74.8223 147.555C74.8646 145.898 74.8848 144.345 74.6708 143.554C74.5749 143.2 74.2008 142.943 73.7832 142.952C72.9931 142.962 71.5742 143.083 70.4341 143.18C69.8887 143.226 69.3734 143.27 69.0058 143.295Z" fill="white"/>
<path opacity="0.6" d="M69.4719 143.67C70.3817 143.608 72.3592 143.407 73.2971 143.396C73.6945 143.391 74.0431 143.631 74.1363 143.975C74.3173 144.645 74.2933 145.979 74.2619 147.21C74.2525 147.579 73.9138 147.873 73.5003 147.869L70.0392 147.836C69.6135 147.832 69.2602 147.542 69.2205 147.164L68.9162 144.26C68.8848 143.959 69.1346 143.693 69.4719 143.67Z" fill="white"/>
<g opacity="0.6">
<path d="M77.8499 146.137C77.9753 146.613 78.4072 146.943 78.8989 146.938L118.972 146.597C119.425 146.593 119.788 146.219 119.778 145.766C119.768 145.325 119.409 144.972 118.969 144.97L78.8946 144.788C78.1872 144.784 77.6695 145.453 77.8499 146.137Z" fill="white"/>
</g>
<path d="M69.6558 144.24C69.9773 144.051 70.3911 144.164 70.5727 144.489L71.427 146.021C71.5125 146.174 71.7362 146.164 71.8082 146.004L73.927 141.287C74.0327 141.052 74.3831 141.131 74.3793 141.389C74.3576 142.832 73.9748 145.575 71.6693 147.871C71.6693 147.871 70.3988 147.377 69.3757 145.13C69.2278 144.805 69.3482 144.42 69.6558 144.24Z" fill="#0071BC"/>
<path d="M94.8831 48.5104C92.6893 46.9842 90.7817 47.0145 89.4389 47.4107C88.2139 47.7721 87.42 48.9548 87.5365 50.2267L88.1156 56.5476L95.0067 57.1592C95.0067 57.1592 99.1855 51.5036 94.8831 48.5104ZM91.8526 53.6099C90.9036 53.6099 90.1343 52.8406 90.1343 51.8916C90.1343 50.9426 90.9036 50.1733 91.8526 50.1733C92.8016 50.1733 93.5709 50.9426 93.5709 51.8916C93.5709 52.8406 92.8016 53.6099 91.8526 53.6099Z" fill="#0071BC"/>
<path d="M88.8038 53.8893C88.7188 53.8893 88.6463 53.8246 88.6385 53.7381L88.5462 52.7315C88.5378 52.6401 88.6052 52.5592 88.6966 52.5508C88.7899 52.542 88.8691 52.6097 88.8774 52.7013L88.9696 53.7079C88.978 53.7994 88.9107 53.8802 88.8192 53.8887C88.814 53.8892 88.8088 53.8893 88.8038 53.8893ZM88.6231 51.9166C88.5381 51.9166 88.4656 51.8519 88.4577 51.7654L88.3877 51.0013C88.2766 49.7897 89.039 48.6616 90.2003 48.3188C91.0228 48.076 91.8702 48.0413 92.7189 48.2153C92.8088 48.2337 92.8668 48.3217 92.8484 48.4116C92.8299 48.5014 92.7427 48.5589 92.6521 48.541C91.8572 48.3783 91.0641 48.4106 90.2944 48.6376C89.2849 48.9356 88.6222 49.9169 88.7188 50.971L88.7888 51.7352C88.7973 51.8266 88.7299 51.9075 88.6385 51.9159C88.6332 51.9165 88.6281 51.9166 88.6231 51.9166Z" fill="white"/>
<path d="M78.7102 60.6324V57.4544C78.7102 56.3574 79.6195 55.4787 80.7158 55.5163L102.626 56.267C103.599 56.3003 104.386 57.0678 104.445 58.039L104.628 61.0926L78.7102 60.6324Z" fill="#0071BC"/>
<path d="M86.8808 56.7144H85.9385C85.8467 56.7144 85.7722 56.64 85.7722 56.5481C85.7722 56.4562 85.8467 56.3818 85.9385 56.3818H86.8808C86.9726 56.3818 87.0471 56.4562 87.0471 56.5481C87.0471 56.64 86.9726 56.7144 86.8808 56.7144Z" fill="white"/>
<path d="M79.8962 59.6351C79.8044 59.6351 79.73 59.5608 79.73 59.4688V58.1832C79.73 57.1899 80.5381 56.3818 81.5314 56.3818H84.9956C85.0875 56.3818 85.1619 56.4562 85.1619 56.5481C85.1619 56.64 85.0875 56.7144 84.9956 56.7144H81.5314C80.7215 56.7144 80.0625 57.3734 80.0625 58.1832V59.4688C80.0625 59.5607 79.988 59.6351 79.8962 59.6351Z" fill="white"/>
<path d="M110.429 81.3908L105.271 77.185L100.113 81.3908C100.524 77.4348 100.716 73.0212 100.498 68.2315C100.429 66.706 100.322 65.2286 100.185 63.8018C100.167 63.6185 100.228 63.4363 100.351 63.3C100.475 63.1638 100.651 63.0864 100.835 63.0864C103.827 63.0864 106.819 63.0864 109.81 63.0864C110.157 63.0864 110.444 63.358 110.462 63.7046C110.577 65.8959 110.651 68.1635 110.676 70.5029C110.717 74.319 110.622 77.9546 110.429 81.3908Z" fill="#EB2027"/>
<path d="M69.7824 61.4358C69.8353 60.3354 70.7429 59.4703 71.8447 59.4703L110.16 59.4692C111.537 59.4692 112.715 60.4606 112.95 61.8181L112.983 62.0055C113.24 63.4924 112.095 64.8524 110.586 64.8524H71.2773C70.3742 64.8524 69.6545 64.0973 69.6979 63.1952L69.7824 61.4358Z" fill="#66AAD7"/>
<path d="M136.672 167.501C134.665 167.594 132.722 167.536 131.425 167.469C132.606 166.628 135.327 164.799 137.603 164.071L139.166 163.978C139.166 163.978 139.696 164.783 139.885 166.626C139.626 166.949 138.869 167.4 136.672 167.501Z" fill="url(#paint7_linear_1549_222)"/>
<path d="M131.408 167.481C131.413 167.477 131.419 167.473 131.424 167.469C132.722 167.536 134.664 167.594 136.671 167.501C138.869 167.4 139.626 166.95 139.885 166.626C139.894 166.711 139.902 166.796 139.91 166.885C139.942 167.29 139.642 167.645 139.237 167.675C137.593 167.8 133.518 168.081 131.552 167.978C131.293 167.964 131.197 167.631 131.408 167.481Z" fill="url(#paint8_linear_1549_222)"/>
<path d="M151.028 166.964C151.175 166.022 151.41 164.659 151.592 164.311C151.878 163.765 152.856 164.311 152.856 164.311C152.856 164.311 153.543 164.631 153.859 165.165C154.06 165.505 154.617 166.473 154.995 167.13C155.038 167.206 155.056 167.286 155.054 167.364L151.138 167.501C151.042 167.347 150.997 167.16 151.028 166.964Z" fill="url(#paint9_linear_1549_222)"/>
<path d="M155.053 167.365C155.047 167.588 154.869 167.791 154.619 167.798L151.829 167.875C151.535 167.883 151.279 167.73 151.137 167.502L155.053 167.365Z" fill="url(#paint10_linear_1549_222)"/>
<path d="M150.728 161.18C150.762 161.293 151.268 163.746 151.489 164.823C151.551 165.12 151.819 165.329 152.122 165.314C152.288 165.306 152.481 165.291 152.683 165.265C153.041 165.218 153.315 164.919 153.328 164.557C153.364 163.614 153.382 161.803 153.036 161.102C152.558 160.134 150.728 161.18 150.728 161.18Z" fill="url(#paint11_linear_1549_222)"/>
<path d="M139.473 161.883C139.256 161.876 139.56 163.003 139.231 164.111C139.157 164.361 138.97 164.558 138.71 164.561C138.541 164.563 138.341 164.56 138.137 164.544C137.832 164.519 137.586 164.282 137.558 163.976L137.291 161.102L139.473 161.883Z" fill="url(#paint12_linear_1549_222)"/>
<path d="M133.403 131.327C133.499 131.798 136.919 151.742 137.126 162.062C137.13 162.235 137.257 162.38 137.428 162.404C137.862 162.465 138.708 162.542 139.527 162.39C139.64 162.37 139.724 162.277 139.731 162.163C139.851 160.24 140.812 143.98 139.635 136.325C139.635 136.325 149.357 156.787 150.831 162.429C150.867 162.566 150.993 162.658 151.134 162.651C151.551 162.629 152.417 162.554 153.104 162.301C153.351 162.21 153.491 161.951 153.429 161.696C152.605 158.32 146.835 135.057 142.917 129.931L133.403 131.327Z" fill="url(#paint13_linear_1549_222)"/>
<path d="M139.635 136.453C139.667 136.453 139.699 136.441 139.724 136.416C139.775 136.367 139.776 136.286 139.726 136.236L138.424 134.905C138.375 134.854 138.294 134.853 138.244 134.903C138.194 134.952 138.193 135.033 138.242 135.083L139.544 136.414C139.569 136.44 139.602 136.453 139.635 136.453Z" fill="url(#paint14_linear_1549_222)"/>
<path d="M130.114 105.59C133.023 105.153 138.731 104.526 142.455 105.619L142.051 117.127L128.561 115.673L127.416 114.046C127.416 114.046 127.946 105.916 130.114 105.59Z" fill="#53B9FD"/>
<path d="M136.834 99.4287C136.834 99.4287 137.104 104.006 137.053 105.43C137.053 105.43 133.305 106.043 132.413 105.402L133.118 99.976L136.834 99.4287Z" fill="url(#paint15_linear_1549_222)"/>
<path d="M133.191 94.8442C133.191 94.8442 131.682 97.4929 131.444 98.9427C131.206 100.393 130.789 101.305 132.444 101.78C134.099 102.256 135.61 101.569 136.536 100.198C136.536 100.198 137.983 98.0896 137.812 97.1436C137.64 96.1976 133.191 94.8442 133.191 94.8442Z" fill="url(#paint16_linear_1549_222)"/>
<path d="M136.073 99.0914L135.86 99.0685C135.86 99.0685 136.932 97.3612 136.195 96.9616C135.457 96.5619 132.466 95.6092 131.924 94.4534C131.4 93.339 132.113 92.0491 133.002 91.7624C133.058 91.7443 133.119 91.7763 133.141 91.8313L133.197 91.9718C133.235 92.0681 133.371 92.0688 133.41 91.9729C133.448 91.882 133.576 91.8751 133.619 91.9636C133.786 92.3098 134.276 92.8962 135.713 93.3248C137.753 93.9328 139.038 94.9231 138.917 96.3649C138.909 96.4562 139.001 96.5169 139.084 96.4778C139.248 96.4008 139.498 96.3833 139.797 96.6949C140.317 97.2369 139.949 98.458 138.586 99.3483C138.521 99.3906 138.512 99.4836 138.572 99.5325C138.783 99.7048 139.083 100.093 138.156 100.467C137.207 100.85 136.682 100.741 136.487 100.668C136.434 100.649 136.403 100.595 136.413 100.54L136.629 99.2743C136.64 99.2088 136.594 99.1475 136.527 99.1404L136.073 99.0914Z" fill="url(#paint17_linear_1549_222)"/>
<path d="M135.992 99.3528C135.992 99.3528 136.644 97.6274 137.387 98.2108C138.129 98.7942 136.759 100.155 136.112 100.153L135.992 99.3528Z" fill="url(#paint18_linear_1549_222)"/>
<path d="M119.831 114.593L120.189 113.186C120.366 112.491 121.058 112.057 121.761 112.2L155.452 119.074C156.219 119.23 156.712 119.982 156.551 120.748L154.497 130.484L119.831 114.593Z" fill="#EB2027"/>
<path d="M116.637 131.672L119.171 113.46C119.223 113.083 119.586 112.831 119.957 112.914L154.561 120.598C155.299 120.762 155.763 121.496 155.593 122.233L152.688 134.822L116.637 131.672Z" fill="white"/>
<path d="M117.551 130.847L118.522 114.591C118.547 114.174 118.937 113.876 119.347 113.962L154.315 121.362C154.808 121.466 155.132 121.938 155.054 122.436L153.191 134.179L117.551 130.847Z" fill="white"/>
<path d="M115.018 134.689L117.219 117.081C117.329 116.204 118.156 115.601 119.025 115.765L154.882 122.532C155.609 122.67 156.087 123.37 155.95 124.097L152.921 140.143C152.779 140.9 152.069 141.413 151.305 141.311L116.544 136.669C115.578 136.54 114.897 135.656 115.018 134.689Z" fill="#EB2027"/>
<path d="M131.642 118.146C131.501 118.894 130.781 119.385 130.034 119.244L122.039 117.735C121.292 117.594 120.801 116.874 120.942 116.127C121.083 115.38 121.803 114.888 122.55 115.03L130.545 116.538C131.292 116.679 131.783 117.399 131.642 118.146Z" fill="#C20B11"/>
<path d="M138.692 110.637L142.455 105.619C142.455 105.619 148.502 112.042 149.662 120.195L145.89 122.034C144.719 119.289 142.564 115.57 138.692 110.637Z" fill="#53B9FD"/>
<path d="M144.084 133.243C144.529 132.497 145.4 131.078 145.823 130.635C145.823 130.635 145.436 130.39 144.694 130.481C143.952 130.573 143.37 130.21 143.392 129.806L146.934 128.72C147.093 128.387 147.794 126.501 145.89 122.035L149.662 120.195C150.096 123.248 149.847 126.542 148.337 129.833C148.337 129.833 147.166 133.47 145.82 134.278C142.308 136.384 143.913 133.529 144.084 133.243Z" fill="url(#paint19_linear_1549_222)"/>
<path d="M54.0138 86.0403L53.2707 86.9814L53.2678 86.9849C53.2138 87.0535 53.1142 87.0652 53.0458 87.0111C52.9772 86.957 52.9655 86.8575 53.0197 86.7889C53.0203 86.7881 53.0214 86.7867 53.022 86.7859L53.7929 85.8562C53.8434 85.7951 53.9341 85.7866 53.9954 85.8373C54.0555 85.8872 54.0647 85.9759 54.0165 86.037L54.0138 86.0403Z" fill="white"/>
<path d="M51.5018 89.4663L50.2419 91.4761L50.2358 91.4857C50.1721 91.5876 50.0378 91.6184 49.9358 91.5546C49.8339 91.4907 49.8032 91.3564 49.867 91.2545C49.8676 91.2536 49.8687 91.2518 49.8693 91.251L51.1796 89.2478C51.2385 89.1578 51.3591 89.1326 51.4491 89.1914C51.5379 89.2495 51.5635 89.3679 51.5075 89.4574L51.5018 89.4663Z" fill="white"/>
<path d="M48.7778 94.1506L47.7674 96.2936L47.7614 96.3065C47.6988 96.4394 47.5402 96.4963 47.4073 96.4337C47.2743 96.371 47.2175 96.2125 47.2801 96.0796C47.2806 96.0786 47.2817 96.0763 47.2821 96.0753L48.3424 93.9261C48.4022 93.8048 48.5489 93.7551 48.6703 93.8148C48.79 93.874 48.8401 94.0181 48.7835 94.1385L48.7778 94.1506Z" fill="white"/>
<path d="M46.6428 99.12L45.9094 101.369L45.9039 101.386C45.85 101.551 45.6726 101.641 45.5076 101.588C45.3424 101.534 45.2522 101.356 45.3061 101.191C45.3065 101.19 45.3075 101.187 45.3078 101.186L46.0923 98.9176C46.1452 98.7646 46.3121 98.6835 46.4651 98.7364C46.6163 98.7887 46.6973 98.9524 46.648 99.104L46.6428 99.12Z" fill="white"/>
<path d="M45.1535 104.313L44.716 106.634L44.7121 106.655C44.6763 106.845 44.4933 106.97 44.3035 106.934C44.1135 106.898 43.9886 106.715 44.0244 106.525L44.0251 106.522L44.4958 104.165C44.5322 103.983 44.7098 103.864 44.8922 103.901C45.0734 103.937 45.1915 104.112 45.1573 104.293L45.1535 104.313Z" fill="white"/>
<path d="M44.3586 109.649L44.2429 112.006L44.2416 112.029C44.2314 112.239 44.0534 112.4 43.8441 112.39C43.6347 112.379 43.4733 112.201 43.4836 111.992L43.484 111.988L43.6278 109.587C43.6401 109.385 43.8135 109.231 44.0156 109.243C44.2163 109.255 44.3694 109.427 44.3597 109.627L44.3586 109.649Z" fill="white"/>
<path d="M44.3033 115.039L44.5124 117.389L44.5146 117.413C44.5346 117.638 44.3685 117.837 44.1435 117.857C43.9185 117.877 43.7198 117.711 43.6997 117.486L43.6994 117.481L43.512 115.081C43.4949 114.863 43.6579 114.673 43.8759 114.656C44.0924 114.639 44.2819 114.799 44.3011 115.015L44.3033 115.039Z" fill="white"/>
<path d="M44.9881 120.382L45.5161 122.68L45.5219 122.705C45.5763 122.941 45.4287 123.177 45.1928 123.231C44.9566 123.285 44.7213 123.138 44.667 122.902L44.666 122.897L44.152 120.544C44.1019 120.314 44.2473 120.087 44.4769 120.037C44.7048 119.987 44.9302 120.131 44.9823 120.357L44.9881 120.382Z" fill="white"/>
<path d="M46.3933 125.58L47.2169 127.788L47.2261 127.812C47.3152 128.051 47.1939 128.317 46.9552 128.406C46.7168 128.495 46.4512 128.373 46.3621 128.135L46.3613 128.133L45.5305 125.871C45.4438 125.635 45.5648 125.373 45.8006 125.287C46.0366 125.2 46.2981 125.321 46.3848 125.557L46.3933 125.58Z" fill="white"/>
<path d="M48.4563 130.553L49.5572 132.636L49.5696 132.66C49.6909 132.89 49.6031 133.174 49.3731 133.296C49.1432 133.417 48.8582 133.33 48.7369 133.1L48.7361 133.098L47.6183 130.964C47.4988 130.736 47.5868 130.454 47.8151 130.334C48.0434 130.215 48.3254 130.303 48.4449 130.531L48.4563 130.553Z" fill="white"/>
<path d="M51.14 135.22L52.4942 137.149L52.5093 137.17C52.6618 137.387 52.6094 137.687 52.3922 137.84C52.1748 137.992 51.8749 137.94 51.7225 137.722L51.7215 137.721L50.3444 135.744C50.1939 135.528 50.247 135.232 50.4629 135.081C50.6787 134.931 50.9755 134.984 51.126 135.2L51.14 135.22Z" fill="white"/>
<path d="M54.3858 139.515L55.9701 141.259L55.9884 141.279C56.1705 141.479 56.1558 141.79 55.9552 141.972C55.7547 142.154 55.4445 142.139 55.2624 141.939L55.2612 141.937L53.6468 140.148C53.4671 139.948 53.4829 139.641 53.6822 139.461C53.8815 139.281 54.1889 139.297 54.3688 139.496L54.3858 139.515Z" fill="white"/>
<path d="M58.1455 143.364L59.9418 144.885L59.9649 144.904C60.1756 145.083 60.2019 145.398 60.0234 145.609C59.8449 145.82 59.5294 145.846 59.3185 145.668L59.317 145.667L57.481 144.101C57.2727 143.924 57.2477 143.611 57.4254 143.402C57.6031 143.194 57.9162 143.169 58.1245 143.347L58.1455 143.364Z" fill="white"/>
<path d="M62.3804 146.669L63.3764 147.29L63.8742 147.6C64.0411 147.702 64.2035 147.812 64.3746 147.906C64.6212 148.042 64.7109 148.353 64.5749 148.599C64.4387 148.846 64.1285 148.936 63.8817 148.8L63.88 148.799L63.8665 148.791C63.6902 148.693 63.5233 148.58 63.3515 148.474L62.8395 148.153L61.8161 147.509C61.5796 147.36 61.5086 147.048 61.6573 146.812C61.806 146.575 62.118 146.504 62.3544 146.653L62.3804 146.669Z" fill="white"/>
<path d="M67.0587 149.278C67.7699 149.603 68.4922 149.905 69.2247 150.18C69.4898 150.28 69.6239 150.576 69.5241 150.841C69.4241 151.107 69.1292 151.241 68.8639 151.141C68.1093 150.859 67.3636 150.551 66.6301 150.216C66.3711 150.098 66.257 149.792 66.3754 149.533C66.4936 149.274 66.7995 149.16 67.0586 149.278L67.0587 149.278Z" fill="white"/>
<path d="M72.0931 151.122L74.3744 151.688L74.4052 151.695C74.6766 151.763 74.842 152.037 74.7746 152.308C74.7074 152.58 74.4342 152.745 74.163 152.678L71.8179 152.103C71.5448 152.036 71.3777 151.76 71.4447 151.487C71.5118 151.214 71.7873 151.047 72.0604 151.114L72.0616 151.114L72.0931 151.122Z" fill="white"/>
<path d="M77.3522 152.208L79.6931 152.457L79.7213 152.46C79.995 152.489 80.1932 152.734 80.1641 153.008C80.135 153.281 79.8911 153.48 79.6174 153.451L77.2189 153.204C76.943 153.175 76.7423 152.928 76.7708 152.652C76.7991 152.377 77.0459 152.176 77.3218 152.204L77.3235 152.204L77.3522 152.208Z" fill="white"/>
<path d="M82.7189 152.591L85.0764 152.553L85.101 152.552C85.3648 152.548 85.5821 152.758 85.5864 153.022C85.5906 153.285 85.3821 153.501 85.1201 153.508L82.713 153.565C82.4441 153.571 82.2212 153.358 82.2147 153.09C82.2083 152.821 82.4211 152.598 82.69 152.591L82.6935 152.591L82.7189 152.591Z" fill="white"/>
<path d="M88.1014 152.329L90.4431 152.026L90.4643 152.023C90.7144 151.99 90.9436 152.167 90.976 152.417C91.0081 152.666 90.8334 152.894 90.5852 152.928L88.203 153.256C87.9479 153.291 87.7125 153.113 87.6775 152.858C87.6424 152.603 87.8208 152.367 88.0758 152.332L88.0794 152.332L88.1014 152.329Z" fill="white"/>
<path d="M93.4327 151.487L95.7351 150.951L95.7526 150.947C95.9769 150.895 96.2008 151.034 96.253 151.258C96.3047 151.48 96.1682 151.702 95.9477 151.757L93.6176 152.336C93.3848 152.394 93.1491 152.252 93.0913 152.02C93.0334 151.787 93.1753 151.551 93.4081 151.493C93.4093 151.493 93.4108 151.493 93.412 151.492L93.4327 151.487Z" fill="white"/>
<path d="M98.66 150.117L100.903 149.362L100.918 149.357C101.115 149.29 101.328 149.396 101.395 149.593C101.461 149.789 101.357 150 101.163 150.069L98.9021 150.868C98.6967 150.94 98.4713 150.833 98.3988 150.627C98.3263 150.422 98.4339 150.197 98.6393 150.124C98.6404 150.124 98.6416 150.123 98.6428 150.123L98.66 150.117Z" fill="white"/>
<path d="M103.742 148.259L105.911 147.304L105.923 147.299C106.093 147.224 106.291 147.301 106.366 147.471C106.44 147.64 106.365 147.836 106.198 147.913L104.02 148.911C103.842 148.993 103.632 148.914 103.55 148.737C103.469 148.559 103.547 148.348 103.725 148.267C103.726 148.266 103.727 148.266 103.728 148.265L103.742 148.259Z" fill="white"/>
<path d="M108.649 145.964L110.737 144.836L110.745 144.832C110.879 144.759 111.046 144.809 111.119 144.943C111.19 145.075 111.142 145.239 111.013 145.313L108.935 146.502C108.79 146.585 108.604 146.534 108.52 146.388C108.437 146.243 108.487 146.057 108.633 145.973C108.635 145.972 108.637 145.971 108.638 145.97L108.649 145.964Z" fill="white"/>
<path d="M113.359 143.276L115.35 141.981L115.356 141.977C115.453 141.914 115.583 141.941 115.647 142.038C115.709 142.134 115.683 142.262 115.589 142.326L113.617 143.678C113.509 143.753 113.36 143.725 113.285 143.616C113.211 143.507 113.239 143.359 113.347 143.284C113.349 143.283 113.35 143.282 113.351 143.282L113.359 143.276Z" fill="white"/>
<path d="M117.857 140.216L118.819 139.496L118.821 139.494C118.884 139.446 118.974 139.459 119.022 139.523C119.068 139.585 119.057 139.673 118.997 139.721L118.054 140.476C117.984 140.532 117.881 140.521 117.825 140.451C117.768 140.38 117.78 140.277 117.85 140.221C117.851 140.22 117.853 140.219 117.854 140.218L117.857 140.216Z" fill="white"/>
<defs>
<linearGradient id="paint0_linear_1549_222" x1="112.839" y1="59.7918" x2="72.3864" y2="99.145" gradientUnits="userSpaceOnUse">
<stop stop-color="#FDF53F"/>
<stop offset="1" stop-color="#D93C65"/>
</linearGradient>
<linearGradient id="paint1_linear_1549_222" x1="117.353" y1="64.4329" x2="76.901" y2="103.785" gradientUnits="userSpaceOnUse">
<stop stop-color="#FDF53F"/>
<stop offset="1" stop-color="#D93C65"/>
</linearGradient>
<linearGradient id="paint2_linear_1549_222" x1="105.844" y1="89.0169" x2="74.5611" y2="123.437" gradientUnits="userSpaceOnUse">
<stop stop-color="#A737D5"/>
<stop offset="1" stop-color="#EF497A"/>
</linearGradient>
<linearGradient id="paint3_linear_1549_222" x1="109.536" y1="92.3724" x2="78.2532" y2="126.793" gradientUnits="userSpaceOnUse">
<stop stop-color="#A737D5"/>
<stop offset="1" stop-color="#EF497A"/>
</linearGradient>
<linearGradient id="paint4_linear_1549_222" x1="111.038" y1="102.799" x2="71.8696" y2="138.629" gradientUnits="userSpaceOnUse">
<stop stop-color="#A737D5"/>
<stop offset="1" stop-color="#EF497A"/>
</linearGradient>
<linearGradient id="paint5_linear_1549_222" x1="116.92" y1="99.0829" x2="85.6374" y2="133.503" gradientUnits="userSpaceOnUse">
<stop stop-color="#A737D5"/>
<stop offset="1" stop-color="#EF497A"/>
</linearGradient>
<linearGradient id="paint6_linear_1549_222" x1="72.9698" y1="96.2208" x2="57.9133" y2="140.228" gradientUnits="userSpaceOnUse">
<stop stop-color="#A737D5"/>
<stop offset="1" stop-color="#EF497A"/>
</linearGradient>
<linearGradient id="paint7_linear_1549_222" x1="139.912" y1="165.763" x2="131.293" y2="165.763" gradientUnits="userSpaceOnUse">
<stop stop-color="#090056"/>
<stop offset="1" stop-color="#020039"/>
</linearGradient>
<linearGradient id="paint8_linear_1549_222" x1="124.764" y1="154.797" x2="142.722" y2="175.403" gradientUnits="userSpaceOnUse">
<stop stop-color="#090056"/>
<stop offset="1" stop-color="#020039"/>
</linearGradient>
<linearGradient id="paint9_linear_1549_222" x1="155.054" y1="165.785" x2="151.018" y2="165.785" gradientUnits="userSpaceOnUse">
<stop stop-color="#090056"/>
<stop offset="1" stop-color="#020039"/>
</linearGradient>
<linearGradient id="paint10_linear_1549_222" x1="134.603" y1="146.222" x2="152.562" y2="166.828" gradientUnits="userSpaceOnUse">
<stop stop-color="#090056"/>
<stop offset="1" stop-color="#020039"/>
</linearGradient>
<linearGradient id="paint11_linear_1549_222" x1="153.347" y1="163.003" x2="150.728" y2="163.003" gradientUnits="userSpaceOnUse">
<stop stop-color="#FEBBBA"/>
<stop offset="1" stop-color="#FF928E"/>
</linearGradient>
<linearGradient id="paint12_linear_1549_222" x1="139.473" y1="162.832" x2="137.291" y2="162.832" gradientUnits="userSpaceOnUse">
<stop stop-color="#FEBBBA"/>
<stop offset="1" stop-color="#FF928E"/>
</linearGradient>
<linearGradient id="paint13_linear_1549_222" x1="195.284" y1="173.941" x2="145.754" y2="148.99" gradientUnits="userSpaceOnUse">
<stop stop-color="#090056"/>
<stop offset="1" stop-color="#020039"/>
</linearGradient>
<linearGradient id="paint14_linear_1549_222" x1="134.046" y1="129.275" x2="142.979" y2="140.825" gradientUnits="userSpaceOnUse">
<stop stop-color="#CB236D"/>
<stop offset="1" stop-color="#4C246D"/>
</linearGradient>
<linearGradient id="paint15_linear_1549_222" x1="134.918" y1="107.882" x2="134.576" y2="101.513" gradientUnits="userSpaceOnUse">
<stop stop-color="#FEBBBA"/>
<stop offset="1" stop-color="#FF928E"/>
</linearGradient>
<linearGradient id="paint16_linear_1549_222" x1="132.674" y1="97.2631" x2="139.02" y2="103.299" gradientUnits="userSpaceOnUse">
<stop stop-color="#FEBBBA"/>
<stop offset="1" stop-color="#FF928E"/>
</linearGradient>
<linearGradient id="paint17_linear_1549_222" x1="130.932" y1="95.1735" x2="148.31" y2="99.8905" gradientUnits="userSpaceOnUse">
<stop stop-color="#090056"/>
<stop offset="1" stop-color="#020039"/>
</linearGradient>
<linearGradient id="paint18_linear_1549_222" x1="133.653" y1="96.2344" x2="139.999" y2="102.27" gradientUnits="userSpaceOnUse">
<stop stop-color="#FEBBBA"/>
<stop offset="1" stop-color="#FF928E"/>
</linearGradient>
<linearGradient id="paint19_linear_1549_222" x1="143.589" y1="131.59" x2="154.078" y2="116.507" gradientUnits="userSpaceOnUse">
<stop stop-color="#FEBBBA"/>
<stop offset="1" stop-color="#FF928E"/>
</linearGradient>
</defs>
</svg>
