<svg width="182" height="212" viewBox="0 0 182 212" fill="none" xmlns="http://www.w3.org/2000/svg">
<rect x="0.5" y="0.5" width="180.236" height="210.397" rx="9.5" fill="white" stroke="#E6E6E6"/>
<path d="M18.0005 121.426H37.938L37.938 84.4196H18.0005L18.0005 121.426Z" fill="#E0E0E0"/>
<path d="M37.6926 121.426H71.4414V94.4098H37.6926V121.426Z" fill="#E0E0E0"/>
<path d="M37.9253 121.449C37.962 121.449 37.9917 113.306 37.9917 103.263C37.9917 93.2161 37.962 85.0747 37.9253 85.0747C37.8886 85.0747 37.8589 93.2161 37.8589 103.263C37.8589 113.306 37.8886 121.449 37.9253 121.449Z" fill="#EBEBEB"/>
<path d="M18.0005 121.426H71.4414V109.257H18.0005V121.426Z" fill="#EBEBEB"/>
<path d="M38.5663 82.7941L27.9784 77.3433L17.446 82.7941H38.5663Z" fill="#EBEBEB"/>
<path d="M17.4464 84.0127H38.5667V82.7943H17.4464V84.0127Z" fill="#E0E0E0"/>
<path d="M17.7028 84.4199H38.2429V84.0129H17.7028V84.4199Z" fill="#E0E0E0"/>
<path d="M17.4255 84.0127C17.4255 84.0494 22.1585 84.0791 27.9956 84.0791C33.8346 84.0791 38.5666 84.0494 38.5666 84.0127C38.5666 83.976 33.8346 83.9463 27.9956 83.9463C22.1585 83.9463 17.4255 83.976 17.4255 84.0127Z" fill="#EBEBEB"/>
<path d="M17.6858 84.4199C17.6858 84.4566 22.2879 84.4867 27.9634 84.4867C33.6413 84.4867 38.2424 84.4569 38.2424 84.4199C38.2424 84.3832 33.6413 84.3535 27.9634 84.3535C22.2879 84.3535 17.6858 84.3832 17.6858 84.4199Z" fill="#EBEBEB"/>
<path d="M29.5149 96.1289H33.7986V88.7658H29.5149V96.1289Z" fill="#EBEBEB"/>
<path d="M29.9895 95.7104H33.3474V89.3035H29.9895V95.7104Z" fill="#FAFAFA"/>
<path d="M31.7366 95.7393C31.7732 95.7393 31.803 94.2949 31.803 92.5139C31.803 90.7322 31.7732 89.2881 31.7366 89.2881C31.6999 89.2881 31.6702 90.7322 31.6702 92.5139C31.6702 94.2949 31.6999 95.7393 31.7366 95.7393Z" fill="#E0E0E0"/>
<path d="M29.9897 91.2353C29.9897 91.272 30.7414 91.3018 31.6687 91.3018C32.5961 91.3018 33.3477 91.272 33.3477 91.2353C33.3477 91.1987 32.5961 91.1689 31.6687 91.1689C30.7414 91.1689 29.9897 91.1987 29.9897 91.2353Z" fill="#E0E0E0"/>
<path d="M29.99 93.4966C29.99 93.5333 30.7416 93.563 31.669 93.563C32.5963 93.563 33.3479 93.5333 33.3479 93.4966C33.3479 93.4599 32.5963 93.4302 31.669 93.4302C30.7416 93.4298 29.99 93.4596 29.99 93.4966Z" fill="#E0E0E0"/>
<path d="M22.0884 96.1289H26.3721V88.7658H22.0884V96.1289Z" fill="#EBEBEB"/>
<path d="M22.5634 95.7104H25.9214V89.3035H22.5634V95.7104Z" fill="#FAFAFA"/>
<path d="M24.3101 95.7393C24.3467 95.7393 24.3765 94.2949 24.3765 92.5139C24.3765 90.7322 24.3467 89.2881 24.3101 89.2881C24.2734 89.2881 24.2437 90.7322 24.2437 92.5139C24.2433 94.2949 24.2734 95.7393 24.3101 95.7393Z" fill="#E0E0E0"/>
<path d="M22.563 91.2353C22.563 91.272 23.3149 91.3018 24.242 91.3018C25.1693 91.3018 25.9209 91.272 25.9209 91.2353C25.9209 91.1987 25.1693 91.1689 24.242 91.1689C23.3149 91.1689 22.563 91.1987 22.563 91.2353Z" fill="#E0E0E0"/>
<path d="M22.5627 93.4966C22.5627 93.5333 23.3147 93.563 24.2417 93.563C25.1691 93.563 25.9207 93.5333 25.9207 93.4966C25.9207 93.4599 25.1691 93.4302 24.2417 93.4302C23.3147 93.4298 22.5627 93.4596 22.5627 93.4966Z" fill="#E0E0E0"/>
<path d="M29.5149 105.433H33.7986V98.0695H29.5149V105.433Z" fill="#EBEBEB"/>
<path d="M29.9895 105.014H33.3474V98.6072H29.9895V105.014Z" fill="#FAFAFA"/>
<path d="M31.7366 105.043C31.7732 105.043 31.803 103.599 31.803 101.818C31.803 100.036 31.7732 98.5918 31.7366 98.5918C31.6999 98.5918 31.6702 100.036 31.6702 101.818C31.6702 103.599 31.6999 105.043 31.7366 105.043Z" fill="#E0E0E0"/>
<path d="M29.99 100.539C29.99 100.576 30.7416 100.605 31.669 100.605C32.5963 100.605 33.3479 100.576 33.3479 100.539C33.3479 100.502 32.5963 100.473 31.669 100.473C30.7416 100.473 29.99 100.502 29.99 100.539Z" fill="#E0E0E0"/>
<path d="M29.99 102.8C29.99 102.837 30.7416 102.867 31.669 102.867C32.5963 102.867 33.3479 102.837 33.3479 102.8C33.3479 102.764 32.5963 102.734 31.669 102.734C30.7416 102.734 29.99 102.764 29.99 102.8Z" fill="#E0E0E0"/>
<path d="M22.0884 105.433H26.3721V98.0695H22.0884V105.433Z" fill="#EBEBEB"/>
<path d="M22.5634 105.014H25.9214V98.6072H22.5634V105.014Z" fill="#FAFAFA"/>
<path d="M24.3101 105.043C24.3467 105.043 24.3765 103.599 24.3765 101.818C24.3765 100.036 24.3467 98.5918 24.3101 98.5918C24.2734 98.5918 24.2437 100.036 24.2437 101.818C24.2433 103.599 24.2734 105.043 24.3101 105.043Z" fill="#E0E0E0"/>
<path d="M22.5627 100.539C22.5627 100.576 23.3147 100.605 24.2417 100.605C25.1691 100.605 25.9207 100.576 25.9207 100.539C25.9207 100.502 25.1691 100.473 24.2417 100.473C23.3147 100.473 22.5627 100.502 22.5627 100.539Z" fill="#E0E0E0"/>
<path d="M22.5627 102.8C22.5627 102.837 23.3147 102.867 24.2417 102.867C25.1691 102.867 25.9207 102.837 25.9207 102.8C25.9207 102.764 25.1691 102.734 24.2417 102.734C23.3147 102.734 22.5627 102.764 22.5627 102.8Z" fill="#E0E0E0"/>
<path d="M63.0723 105.103H67.356V97.7395H63.0723V105.103Z" fill="#F5F5F5"/>
<path d="M63.5473 104.684H66.9053V98.2771H63.5473V104.684Z" fill="#FAFAFA"/>
<path d="M65.2932 104.712C65.3299 104.712 65.3596 103.268 65.3596 101.487C65.3596 99.7053 65.3299 98.2612 65.2932 98.2612C65.2565 98.2612 65.2268 99.7053 65.2268 101.487C65.2268 103.268 65.2565 104.712 65.2932 104.712Z" fill="#E0E0E0"/>
<path d="M63.5476 100.208C63.5476 100.245 64.2992 100.275 65.2266 100.275C66.1539 100.275 66.9055 100.245 66.9055 100.208C66.9055 100.172 66.1539 100.142 65.2266 100.142C64.2992 100.142 63.5476 100.172 63.5476 100.208Z" fill="#E0E0E0"/>
<path d="M63.5476 102.471C63.5476 102.507 64.2992 102.537 65.2266 102.537C66.1539 102.537 66.9055 102.507 66.9055 102.471C66.9055 102.434 66.1539 102.404 65.2266 102.404C64.2992 102.404 63.5476 102.434 63.5476 102.471Z" fill="#E0E0E0"/>
<path d="M55.3072 105.103H59.5908V97.7395H55.3072V105.103Z" fill="#F5F5F5"/>
<path d="M55.7822 104.684H59.1401V98.2771H55.7822V104.684Z" fill="#FAFAFA"/>
<path d="M57.5286 104.713C57.5652 104.713 57.5953 103.269 57.5953 101.488C57.5953 99.7058 57.5656 98.2617 57.5286 98.2617C57.4919 98.2617 57.4622 99.7058 57.4622 101.488C57.4622 103.269 57.4919 104.713 57.5286 104.713Z" fill="#E0E0E0"/>
<path d="M55.7817 100.208C55.7817 100.245 56.5333 100.275 57.4607 100.275C58.3881 100.275 59.1397 100.245 59.1397 100.208C59.1397 100.172 58.3881 100.142 57.4607 100.142C56.5333 100.142 55.7817 100.172 55.7817 100.208Z" fill="#E0E0E0"/>
<path d="M55.7817 102.471C55.7817 102.507 56.5333 102.537 57.4607 102.537C58.3881 102.537 59.1397 102.507 59.1397 102.471C59.1397 102.434 58.3881 102.404 57.4607 102.404C56.5333 102.404 55.7817 102.434 55.7817 102.471Z" fill="#E0E0E0"/>
<path d="M47.5423 105.103H51.8259V97.7395H47.5423V105.103Z" fill="#F5F5F5"/>
<path d="M48.0168 104.684H51.3748V98.2771H48.0168V104.684Z" fill="#FAFAFA"/>
<path d="M49.7637 104.712C49.8003 104.712 49.8304 103.268 49.8304 101.487C49.8304 99.7053 49.8007 98.2612 49.7637 98.2612C49.727 98.2612 49.6973 99.7053 49.6973 101.487C49.6973 103.268 49.727 104.712 49.7637 104.712Z" fill="#E0E0E0"/>
<path d="M48.0171 100.208C48.0171 100.245 48.7687 100.275 49.6961 100.275C50.6234 100.275 51.375 100.245 51.375 100.208C51.375 100.172 50.6234 100.142 49.6961 100.142C48.7687 100.142 48.0171 100.172 48.0171 100.208Z" fill="#E0E0E0"/>
<path d="M48.0171 102.471C48.0171 102.507 48.7687 102.537 49.6961 102.537C50.6234 102.537 51.375 102.507 51.375 102.471C51.375 102.434 50.6234 102.404 49.6961 102.404C48.7687 102.404 48.0171 102.434 48.0171 102.471Z" fill="#E0E0E0"/>
<path d="M39.7767 105.103H44.0603V97.7395H39.7767V105.103Z" fill="#F5F5F5"/>
<path d="M40.2512 104.684H43.6091V98.2771H40.2512V104.684Z" fill="#FAFAFA"/>
<path d="M41.9976 104.713C42.0342 104.713 42.064 103.269 42.064 101.488C42.064 99.7058 42.0342 98.2617 41.9976 98.2617C41.9609 98.2617 41.9312 99.7058 41.9312 101.488C41.9312 103.269 41.9609 104.713 41.9976 104.713Z" fill="#E0E0E0"/>
<path d="M40.251 100.208C40.251 100.245 41.0029 100.275 41.9299 100.275C42.8573 100.275 43.6089 100.245 43.6089 100.208C43.6089 100.172 42.8573 100.142 41.9299 100.142C41.0026 100.142 40.251 100.172 40.251 100.208Z" fill="#E0E0E0"/>
<path d="M40.251 102.471C40.251 102.507 41.0029 102.537 41.9299 102.537C42.8573 102.537 43.6089 102.507 43.6089 102.471C43.6089 102.434 42.8573 102.404 41.9299 102.404C41.0026 102.404 40.251 102.434 40.251 102.471Z" fill="#E0E0E0"/>
<path d="M17.3893 108.463H71.5332V107.217H17.3893V108.463Z" fill="#E0E0E0"/>
<path d="M17.7129 109.257H71.5337V108.422H17.7129V109.257Z" fill="#E0E0E0"/>
<path d="M71.534 108.522C71.534 108.486 59.4664 108.456 44.5836 108.456C29.6959 108.456 17.6306 108.485 17.6306 108.522C17.6306 108.559 29.6956 108.589 44.5836 108.589C59.4664 108.589 71.534 108.559 71.534 108.522Z" fill="#EBEBEB"/>
<path d="M71.534 109.257C71.534 109.22 59.4664 109.19 44.5836 109.19C29.6959 109.19 17.6306 109.22 17.6306 109.257C17.6306 109.294 29.6956 109.324 44.5836 109.324C59.4664 109.324 71.534 109.294 71.534 109.257Z" fill="#EBEBEB"/>
<path d="M71.534 107.217C71.534 107.18 59.4664 107.15 44.5836 107.15C29.6959 107.15 17.6306 107.18 17.6306 107.217C17.6306 107.253 29.6956 107.283 44.5836 107.283C59.4664 107.283 71.534 107.253 71.534 107.217Z" fill="#EBEBEB"/>
<path d="M60.8213 120.139H65.3233V112.633C65.3233 111.48 64.3884 110.545 63.2353 110.545H62.9096C61.7563 110.545 60.8216 111.48 60.8216 112.633V120.139H60.8213Z" fill="#E0E0E0"/>
<path d="M61.4585 119.446H64.6846V112.734C64.6846 111.907 64.0146 111.237 63.1883 111.237H62.9548C62.1285 111.237 61.4585 111.907 61.4585 112.734V119.446Z" fill="#FAFAFA"/>
<path d="M63.0715 119.446C63.1082 119.446 63.1379 117.608 63.1379 115.342C63.1379 113.075 63.1082 111.237 63.0715 111.237C63.0349 111.237 63.0051 113.075 63.0051 115.342C63.0051 117.608 63.0349 119.446 63.0715 119.446Z" fill="#E0E0E0"/>
<path d="M61.4802 113.794C61.4802 113.831 62.1998 113.861 63.0872 113.861C63.9749 113.861 64.6944 113.831 64.6944 113.794C64.6944 113.758 63.9749 113.728 63.0872 113.728C62.1998 113.728 61.4802 113.757 61.4802 113.794Z" fill="#E0E0E0"/>
<path d="M61.4802 116.483C61.4802 116.519 62.1998 116.549 63.0872 116.549C63.9749 116.549 64.6944 116.519 64.6944 116.483C64.6944 116.446 63.9749 116.416 63.0872 116.416C62.1998 116.416 61.4802 116.446 61.4802 116.483Z" fill="#E0E0E0"/>
<path d="M52.0684 120.139H56.5704V112.633C56.5704 111.48 55.6354 110.545 54.4824 110.545H54.1567C53.0033 110.545 52.0687 111.48 52.0687 112.633L52.0684 120.139Z" fill="#E0E0E0"/>
<path d="M52.7056 119.446H55.9317V112.734C55.9317 111.907 55.2617 111.237 54.4354 111.237H54.2018C53.3756 111.237 52.7056 111.907 52.7056 112.734V119.446Z" fill="#FAFAFA"/>
<path d="M54.3188 119.446C54.3555 119.446 54.3856 117.608 54.3856 115.342C54.3856 113.075 54.3558 111.237 54.3188 111.237C54.2822 111.237 54.2524 113.075 54.2524 115.342C54.2524 117.608 54.2822 119.446 54.3188 119.446Z" fill="#E0E0E0"/>
<path d="M52.7266 113.794C52.7266 113.831 53.4461 113.861 54.3335 113.861C55.2212 113.861 55.9408 113.831 55.9408 113.794C55.9408 113.758 55.2212 113.728 54.3335 113.728C53.4461 113.728 52.7266 113.757 52.7266 113.794Z" fill="#E0E0E0"/>
<path d="M52.7266 116.483C52.7266 116.519 53.4461 116.549 54.3335 116.549C55.2212 116.549 55.9408 116.519 55.9408 116.483C55.9408 116.446 55.2212 116.416 54.3335 116.416C53.4461 116.416 52.7266 116.446 52.7266 116.483Z" fill="#E0E0E0"/>
<path d="M43.3145 120.139H47.8165V112.633C47.8165 111.48 46.8815 110.545 45.7285 110.545H45.4028C44.2494 110.545 43.3148 111.48 43.3148 112.633L43.3145 120.139Z" fill="#E0E0E0"/>
<path d="M43.9517 119.446H47.1781V112.734C47.1781 111.907 46.5081 111.237 45.6818 111.237H45.4483C44.622 111.237 43.952 111.907 43.952 112.734L43.9517 119.446Z" fill="#FAFAFA"/>
<path d="M45.5652 119.446C45.6019 119.446 45.6319 117.608 45.6319 115.342C45.6319 113.075 45.6022 111.237 45.5652 111.237C45.5285 111.237 45.4988 113.075 45.4988 115.342C45.4985 117.608 45.5285 119.446 45.5652 119.446Z" fill="#E0E0E0"/>
<path d="M43.9722 113.794C43.9722 113.831 44.6917 113.861 45.5791 113.861C46.4668 113.861 47.1864 113.831 47.1864 113.794C47.1864 113.758 46.4668 113.728 45.5791 113.728C44.6917 113.728 43.9722 113.757 43.9722 113.794Z" fill="#E0E0E0"/>
<path d="M43.9722 116.483C43.9722 116.519 44.6917 116.549 45.5791 116.549C46.4668 116.549 47.1864 116.519 47.1864 116.483C47.1864 116.446 46.4668 116.416 45.5791 116.416C44.6917 116.416 43.9722 116.446 43.9722 116.483Z" fill="#E0E0E0"/>
<path d="M34.5625 120.139H39.0645V112.633C39.0645 111.48 38.1296 110.545 36.9762 110.545H36.6505C35.4971 110.545 34.5625 111.48 34.5625 112.633V120.139Z" fill="#E0E0E0"/>
<path d="M35.2 119.446H38.4261V112.734C38.4261 111.907 37.7561 111.237 36.9298 111.237H36.6962C35.8696 111.237 35.2 111.907 35.2 112.734V119.446Z" fill="#FAFAFA"/>
<path d="M36.8132 119.446C36.8499 119.446 36.88 117.608 36.88 115.342C36.88 113.075 36.8502 111.237 36.8132 111.237C36.7766 111.237 36.7468 113.075 36.7468 115.342C36.7468 117.608 36.7766 119.446 36.8132 119.446Z" fill="#E0E0E0"/>
<path d="M35.2207 113.794C35.2207 113.831 35.9403 113.861 36.8276 113.861C37.7154 113.861 38.4349 113.831 38.4349 113.794C38.4349 113.758 37.7154 113.728 36.8276 113.728C35.9403 113.728 35.2207 113.757 35.2207 113.794Z" fill="#E0E0E0"/>
<path d="M35.2207 116.483C35.2207 116.519 35.9403 116.549 36.8276 116.549C37.7154 116.549 38.4349 116.519 38.4349 116.483C38.4349 116.446 37.7154 116.416 36.8276 116.416C35.9403 116.416 35.2207 116.446 35.2207 116.483Z" fill="#E0E0E0"/>
<path d="M25.8093 120.139H30.3114V112.633C30.3114 111.48 29.3764 110.545 28.2231 110.545H27.8973C26.744 110.545 25.8093 111.48 25.8093 112.633V120.139Z" fill="#E0E0E0"/>
<path d="M26.4465 119.446H29.6726V112.734C29.6726 111.907 29.0026 111.237 28.1764 111.237H27.9428C27.1165 111.237 26.4465 111.907 26.4465 112.734V119.446Z" fill="#FAFAFA"/>
<path d="M28.0601 119.446C28.0967 119.446 28.1265 117.608 28.1265 115.342C28.1265 113.075 28.0967 111.237 28.0601 111.237C28.0234 111.237 27.9937 113.075 27.9937 115.342C27.9933 117.608 28.0231 119.446 28.0601 119.446Z" fill="#E0E0E0"/>
<path d="M26.4678 113.794C26.4678 113.831 27.1873 113.861 28.0747 113.861C28.9624 113.861 29.682 113.831 29.682 113.794C29.682 113.758 28.9624 113.728 28.0747 113.728C27.1873 113.728 26.4678 113.757 26.4678 113.794Z" fill="#E0E0E0"/>
<path d="M26.4678 116.483C26.4678 116.519 27.1873 116.549 28.0747 116.549C28.9624 116.549 29.682 116.519 29.682 116.483C29.682 116.446 28.9624 116.416 28.0747 116.416C27.1873 116.416 26.4678 116.446 26.4678 116.483Z" fill="#E0E0E0"/>
<path d="M37.4261 94.0034H72.0732V92.785H37.4261V94.0034Z" fill="#E0E0E0"/>
<path d="M37.8466 94.4106H71.5422V94.0036H37.8466V94.4106Z" fill="#E0E0E0"/>
<path d="M37.4265 92.7853C37.4265 92.7853 37.49 92.7886 37.6089 92.79C37.7315 92.7909 37.9066 92.7926 38.1345 92.7946C38.599 92.7969 39.2766 92.7999 40.1488 92.8042C41.8985 92.8088 44.4252 92.8157 47.5532 92.8243C53.8049 92.8312 62.4561 92.8412 72.0733 92.8517L72.0069 92.7853C72.0069 93.1702 72.0069 93.5852 72.0069 94.0021V94.0038L72.0733 93.9373C55.3193 93.9373 41.2523 93.9585 37.4265 93.9876L37.443 94.0041C37.4387 93.5911 37.4358 93.2895 37.4335 93.086C37.4305 92.8848 37.4265 92.7853 37.4265 92.7853C37.4265 92.7853 37.4226 92.8768 37.4196 93.0761C37.4176 93.2816 37.4143 93.5865 37.41 94.0034L37.4097 94.0199H37.4262C41.2519 94.0487 55.319 94.0702 72.073 94.0702H72.1394V94.0034V94.0018C72.1394 93.5848 72.1394 93.1699 72.1394 92.785V92.7183H72.073C62.4366 92.7292 53.7679 92.7387 47.5036 92.7457C44.3822 92.7543 41.8611 92.7612 40.1148 92.7658C39.2492 92.7698 38.5769 92.7731 38.116 92.7754C37.8917 92.7774 37.7199 92.7791 37.5993 92.78C37.4833 92.782 37.4265 92.7853 37.4265 92.7853Z" fill="#EBEBEB"/>
<path d="M71.5426 94.0029C71.5403 94.0029 71.5377 94.0366 71.5354 94.1044C71.5337 94.1794 71.5314 94.2798 71.5284 94.41L71.5426 94.3957C69.8772 94.3657 62.9588 94.3432 54.6816 94.3432C46.4027 94.3432 39.486 94.3657 37.8199 94.3957L37.8341 94.4109C37.8397 94.2804 37.8443 94.1797 37.8473 94.1047C37.8496 94.0366 37.8493 94.0029 37.847 94.0029C37.8447 94.0026 37.84 94.0363 37.8331 94.1037C37.8265 94.1784 37.8176 94.2788 37.806 94.409L37.8047 94.4238L37.8202 94.4242C39.4863 94.4542 46.403 94.4767 54.6819 94.4767C62.9591 94.4767 69.8775 94.4542 71.543 94.4242L71.5575 94.4238L71.5572 94.41C71.5542 94.2795 71.5519 94.179 71.5502 94.1044C71.5473 94.0366 71.5449 94.0029 71.5426 94.0029Z" fill="#EBEBEB"/>
<path d="M37.4258 92.7847H72.0729L71.399 89.6943H37.9891L37.4258 92.7847Z" fill="#EBEBEB"/>
<path d="M162.779 84.4194H142.841V121.426H162.779V84.4194Z" fill="#E0E0E0"/>
<path d="M143.087 94.4097H109.338V121.426H143.087V94.4097Z" fill="#E0E0E0"/>
<path d="M142.854 121.449C142.817 121.449 142.787 113.306 142.787 103.263C142.787 93.2161 142.817 85.0747 142.854 85.0747C142.89 85.0747 142.92 93.2161 142.92 103.263C142.92 113.306 142.891 121.449 142.854 121.449Z" fill="#EBEBEB"/>
<path d="M162.779 109.257H109.338V121.427H162.779V109.257Z" fill="#EBEBEB"/>
<path d="M76.2961 100.382C76.2945 100.38 76.2928 100.355 76.2912 100.305C76.2898 100.249 76.2882 100.178 76.2862 100.09C76.2839 99.8935 76.2803 99.6203 76.276 99.273C76.2704 98.5588 76.2624 97.5425 76.2528 96.2914C76.2462 95.0366 76.2383 93.547 76.2294 91.8944C76.2129 91.491 76.0516 91.0887 75.7854 90.7626C75.5138 90.4405 75.1309 90.1996 74.7021 90.1078C74.4873 90.0615 74.267 90.0635 74.0344 90.0645C73.8048 90.0642 73.5831 90.0761 73.3657 90.1461C72.9329 90.2756 72.5424 90.5647 72.2913 90.9555C72.1694 91.1425 72.0812 91.3503 72.0339 91.566C71.9834 91.7821 71.9808 91.9992 71.9831 92.2275C71.9827 92.6778 71.9824 93.1218 71.9821 93.5585C71.9808 94.4317 71.9798 95.2752 71.9784 96.0806C71.9735 97.6892 71.9689 99.1452 71.9652 100.382L71.917 100.334C73.256 100.345 74.3429 100.354 75.1064 100.36C75.4794 100.365 75.7728 100.369 75.9833 100.372C76.0784 100.375 76.1544 100.376 76.2145 100.377C76.2664 100.379 76.2945 100.38 76.2961 100.382C76.2978 100.384 76.2733 100.385 76.2238 100.387C76.166 100.388 76.0929 100.39 76.0014 100.392C75.7936 100.395 75.5036 100.399 75.1352 100.405C74.3648 100.411 73.2676 100.42 71.916 100.431L71.8678 100.431V100.382C71.8638 99.1452 71.8595 97.6889 71.8546 96.0806C71.8536 95.2752 71.8522 94.4317 71.8509 93.5585C71.8506 93.1218 71.8503 92.6778 71.8499 92.2275C71.8298 91.7805 71.9077 91.2806 72.1787 90.8838C72.4469 90.4662 72.8642 90.1573 73.327 90.0196C73.5563 89.9452 73.8044 89.932 74.0337 89.9333C74.2604 89.9327 74.4995 89.9304 74.7288 89.9806C75.1867 90.0794 75.5947 90.3374 75.8828 90.6816C76.166 91.0295 76.3354 91.4593 76.3516 91.8882C76.3596 93.5651 76.3447 95.067 76.3391 96.3291C76.3292 97.5785 76.3212 98.5935 76.3159 99.3067C76.3117 99.6477 76.308 99.9163 76.3057 100.11C76.3037 100.194 76.3021 100.262 76.3008 100.316C76.2991 100.361 76.2978 100.384 76.2961 100.382Z" fill="#455A64"/>
<path d="M109.112 84.4106H65.9211V114.45H109.112V84.4106Z" fill="#EBEBEB"/>
<path d="M110.484 84.7563H64.74V86.1291H110.484V84.7563Z" fill="#E0E0E0"/>
<path d="M110.385 83.3833H64.918V83.8458H110.385V83.3833Z" fill="#E0E0E0"/>
<path d="M110.831 82.3105H64.74V83.3829H110.831V82.3105Z" fill="#E0E0E0"/>
<path d="M109.89 83.3833H65.2883V84.7643H109.89V83.3833Z" fill="#E0E0E0"/>
<path d="M64.7791 82.3108H110.858L87.6311 71.3936L64.7791 82.3108Z" fill="#E0E0E0"/>
<path d="M109.838 86.1289H65.2883V86.8283H109.838V86.1289Z" fill="#E0E0E0"/>
<path d="M68.6142 86.8281H65.9207V114.45H68.6142V86.8281Z" fill="#E0E0E0"/>
<path d="M68.6137 114.45C68.6137 114.45 68.6107 114.4 68.6091 114.306C68.6081 114.208 68.6064 114.07 68.6045 113.891C68.6022 113.522 68.5992 112.987 68.5952 112.298C68.5906 110.913 68.584 108.912 68.5754 106.429C68.5681 101.463 68.5582 94.5678 68.547 86.8285L68.6134 86.8949C67.7561 86.8949 66.8436 86.8949 65.9212 86.8952H65.9198L65.9862 86.8288C65.9687 99.1462 65.9535 109.74 65.9469 114.451L65.9198 114.424C66.7867 114.43 67.4564 114.436 67.9143 114.439C68.1396 114.442 68.3121 114.444 68.4337 114.446C68.5513 114.447 68.6137 114.45 68.6137 114.45C68.6137 114.45 68.5579 114.454 68.4436 114.456C68.3233 114.457 68.1532 114.459 67.9305 114.462C67.469 114.466 66.794 114.471 65.9202 114.478L65.8931 114.478V114.45C65.8865 109.74 65.8713 99.1462 65.8538 86.8285V86.7617H65.9205H65.9218C66.8439 86.7617 67.7564 86.7621 68.6141 86.7621H68.6805V86.8285C68.6692 94.587 68.6593 101.499 68.652 106.477C68.6438 108.954 68.6368 110.95 68.6326 112.331C68.6286 113.013 68.6253 113.543 68.6233 113.908C68.6213 114.083 68.62 114.219 68.6187 114.315C68.6167 114.406 68.6137 114.45 68.6137 114.45Z" fill="#EBEBEB"/>
<path d="M76.7683 86.8281H74.0747V114.45H76.7683V86.8281Z" fill="#E0E0E0"/>
<path d="M76.7678 114.45C76.7678 114.45 76.7648 114.4 76.7631 114.306C76.7622 114.208 76.7605 114.07 76.7585 113.891C76.7562 113.522 76.7532 112.987 76.7493 112.298C76.7446 110.913 76.738 108.912 76.7298 106.429C76.7225 101.463 76.7126 94.5678 76.7014 86.8285L76.7678 86.8949C75.9104 86.8949 74.9979 86.8949 74.0755 86.8952H74.0742L74.1406 86.8288C74.1231 99.1462 74.1079 109.74 74.1013 114.451L74.0742 114.424C74.9411 114.43 75.6108 114.436 76.0687 114.439C76.294 114.442 76.4665 114.444 76.588 114.446C76.7053 114.447 76.7678 114.45 76.7678 114.45C76.7678 114.45 76.7123 114.454 76.5976 114.456C76.4774 114.457 76.3072 114.459 76.0846 114.462C75.623 114.466 74.9481 114.471 74.0742 114.478L74.0471 114.478V114.45C74.0405 109.74 74.0253 99.1462 74.0078 86.8285V86.7617H74.0745H74.0759C74.9979 86.7617 75.9104 86.7621 76.7681 86.7621H76.8345V86.8285C76.8233 94.587 76.8134 101.499 76.8061 106.477C76.7978 108.954 76.7909 110.95 76.7863 112.331C76.7823 113.013 76.7793 113.543 76.777 113.908C76.775 114.083 76.7737 114.219 76.7724 114.315C76.7707 114.406 76.7678 114.45 76.7678 114.45Z" fill="#EBEBEB"/>
<path d="M102.014 86.8281H99.3203V114.45H102.014V86.8281Z" fill="#E0E0E0"/>
<path d="M102.014 114.45C102.014 114.45 102.011 114.4 102.009 114.306C102.008 114.208 102.006 114.07 102.004 113.891C102.002 113.522 101.999 112.987 101.995 112.298C101.99 110.913 101.984 108.912 101.975 106.429C101.968 101.463 101.958 94.5678 101.947 86.8285L102.013 86.8949C101.156 86.8949 100.243 86.8949 99.3211 86.8952H99.3197L99.3861 86.8288C99.3686 99.1462 99.3534 109.74 99.3468 114.451L99.3197 114.424C100.187 114.43 100.856 114.436 101.314 114.439C101.54 114.442 101.712 114.444 101.834 114.446C101.951 114.447 102.014 114.45 102.014 114.45C102.014 114.45 101.958 114.454 101.843 114.456C101.723 114.457 101.553 114.459 101.33 114.462C100.869 114.466 100.194 114.471 99.3201 114.478L99.293 114.478V114.45C99.2864 109.74 99.2712 99.1462 99.2537 86.8285V86.7617H99.3204H99.3217C100.244 86.7617 101.156 86.7621 102.014 86.7621H102.08V86.8285C102.069 94.587 102.059 101.499 102.052 106.477C102.044 108.954 102.037 110.95 102.032 112.331C102.028 113.013 102.025 113.543 102.023 113.908C102.021 114.083 102.02 114.219 102.018 114.315C102.017 114.406 102.014 114.45 102.014 114.45Z" fill="#EBEBEB"/>
<path d="M109.387 86.8281H106.694V114.45H109.387V86.8281Z" fill="#E0E0E0"/>
<path d="M109.388 114.45C109.388 114.45 109.385 114.4 109.383 114.306C109.382 114.208 109.381 114.07 109.379 113.891C109.376 113.522 109.373 112.987 109.369 112.298C109.365 110.913 109.358 108.912 109.35 106.429C109.342 101.463 109.332 94.5678 109.321 86.8285L109.388 86.8949C108.53 86.8949 107.618 86.8949 106.695 86.8952H106.694L106.76 86.8288C106.743 99.1462 106.728 109.74 106.721 114.451L106.694 114.424C107.561 114.43 108.231 114.436 108.688 114.439C108.914 114.442 109.086 114.444 109.208 114.446C109.325 114.447 109.388 114.45 109.388 114.45C109.388 114.45 109.332 114.454 109.218 114.456C109.097 114.457 108.927 114.459 108.705 114.462C108.243 114.466 107.568 114.471 106.694 114.478L106.667 114.478V114.45C106.661 109.74 106.645 99.1462 106.628 86.8285V86.7617H106.695H106.696C107.618 86.7617 108.531 86.7621 109.388 86.7621H109.455V86.8285C109.443 94.587 109.433 101.499 109.426 106.477C109.418 108.954 109.411 110.95 109.407 112.331C109.403 113.013 109.399 113.543 109.397 113.908C109.395 114.083 109.394 114.219 109.393 114.315C109.391 114.406 109.388 114.45 109.388 114.45Z" fill="#EBEBEB"/>
<path d="M82.977 101.346H78.5972V92.9641C78.5972 91.8587 79.4935 90.9624 80.5989 90.9624H80.9752C82.0806 90.9624 82.977 91.8587 82.977 92.9641V101.346Z" fill="#FAFAFA"/>
<path d="M82.9775 101.346C82.9759 101.345 82.9742 101.319 82.9726 101.27C82.9712 101.214 82.9696 101.143 82.9676 101.055C82.9653 100.858 82.9617 100.585 82.9574 100.237C82.9517 99.5231 82.9438 98.5072 82.9342 97.2557C82.9276 96.001 82.9197 94.5113 82.9108 92.8584C82.8943 92.4551 82.733 92.0527 82.4668 91.7266C82.1952 91.4045 81.8123 91.1636 81.3835 91.0718C81.1687 91.0255 80.9483 91.0275 80.7158 91.0285C80.4862 91.0282 80.2648 91.0401 80.0471 91.1101C79.6143 91.2396 79.2238 91.5287 78.9727 91.9195C78.8508 92.1065 78.7626 92.3143 78.7153 92.5301C78.6648 92.7461 78.6621 92.9632 78.6645 93.1915C78.6641 93.6418 78.6638 94.0858 78.6635 94.5226C78.6621 95.3957 78.6612 96.2392 78.6598 97.0446C78.6549 98.6532 78.6503 100.109 78.6466 101.346L78.5984 101.298C79.9374 101.309 81.0243 101.318 81.7878 101.324C82.1608 101.329 82.4542 101.333 82.6646 101.336C82.7595 101.338 82.8358 101.34 82.8956 101.341C82.9481 101.343 82.9759 101.345 82.9775 101.346C82.9792 101.348 82.9547 101.35 82.9052 101.351C82.8473 101.353 82.7743 101.354 82.6828 101.357C82.475 101.36 82.1849 101.364 81.8169 101.369C81.0465 101.375 79.9493 101.384 78.5977 101.395L78.5495 101.395V101.346C78.5455 100.11 78.5412 98.6532 78.5363 97.045C78.5353 96.2395 78.534 95.3961 78.5326 94.5229C78.5323 94.0861 78.532 93.6421 78.5317 93.1918C78.5112 92.7448 78.5895 92.2449 78.8604 91.8482C79.1286 91.4306 79.5459 91.122 80.0088 90.9839C80.238 90.9096 80.4862 90.8963 80.7154 90.8977C80.9421 90.897 81.1813 90.895 81.4105 90.9449C81.8684 91.0437 82.2765 91.3017 82.5642 91.646C82.8473 91.9939 83.0168 92.4237 83.033 92.8525C83.0409 94.5295 83.0261 96.0314 83.0205 97.2934C83.0109 98.5429 83.003 99.5578 82.9973 100.271C82.993 100.612 82.9894 100.881 82.9871 101.074C82.9851 101.158 82.9835 101.226 82.9821 101.28C82.9808 101.325 82.9792 101.348 82.9775 101.346Z" fill="#E0E0E0"/>
<path d="M80.7871 101.272C80.7504 101.272 80.7207 98.9803 80.7207 96.1543C80.7207 93.3273 80.7504 91.0361 80.7871 91.0361C80.8238 91.0361 80.8535 93.3273 80.8535 96.1543C80.8535 98.9803 80.8238 101.272 80.7871 101.272Z" fill="#E0E0E0"/>
<path d="M82.9765 93.3246C82.9765 93.3612 81.9959 93.391 80.7867 93.391C79.5772 93.391 78.5967 93.3612 78.5967 93.3246C78.5967 93.2879 79.5769 93.2578 80.7867 93.2578C81.9959 93.2578 82.9765 93.2875 82.9765 93.3246Z" fill="#E0E0E0"/>
<path d="M82.9765 95.8955C82.9765 95.9322 81.9959 95.9619 80.7867 95.9619C79.5772 95.9619 78.5967 95.9322 78.5967 95.8955C78.5967 95.8588 79.5769 95.8291 80.7867 95.8291C81.9959 95.8291 82.9765 95.8588 82.9765 95.8955Z" fill="#E0E0E0"/>
<path d="M82.9767 98.4673C82.9767 98.504 81.9962 98.534 80.787 98.534C79.5775 98.534 78.5969 98.5043 78.5969 98.4673C78.5969 98.4306 79.5771 98.4009 80.787 98.4009C81.9962 98.4009 82.9767 98.4306 82.9767 98.4673Z" fill="#E0E0E0"/>
<path d="M90.4484 101.346H86.0686V92.9641C86.0686 91.8587 86.9649 90.9624 88.0704 90.9624H88.4466C89.5521 90.9624 90.4484 91.8587 90.4484 92.9641V101.346Z" fill="#FAFAFA"/>
<path d="M90.4481 101.346C90.4464 101.345 90.4448 101.319 90.4431 101.27C90.4418 101.214 90.4401 101.143 90.4382 101.055C90.4358 100.858 90.4322 100.585 90.4279 100.237C90.4223 99.5231 90.4144 98.5072 90.4048 97.2557C90.3982 96.001 90.3902 94.5113 90.3813 92.8584C90.3645 92.4551 90.2036 92.0527 89.9373 91.7266C89.6661 91.4045 89.2828 91.1636 88.854 91.0718C88.6396 91.0255 88.4189 91.0275 88.1863 91.0285C87.9567 91.0282 87.7354 91.0401 87.5176 91.1101C87.0848 91.2396 86.6943 91.5287 86.4432 91.9195C86.3213 92.1065 86.2331 92.3143 86.1859 92.5301C86.1353 92.7461 86.1327 92.9632 86.1347 93.1915C86.1344 93.6418 86.134 94.0858 86.1337 94.5226C86.1324 95.3957 86.1314 96.2392 86.1301 97.0446C86.1251 98.6532 86.1205 100.109 86.1168 101.346L86.0686 101.298C87.4076 101.309 88.4949 101.318 89.258 101.324C89.631 101.329 89.9244 101.333 90.1349 101.336C90.23 101.338 90.306 101.34 90.3661 101.341C90.4183 101.343 90.4461 101.345 90.4481 101.346C90.45 101.348 90.4253 101.35 90.3757 101.351C90.3179 101.353 90.2449 101.354 90.1534 101.357C89.9456 101.36 89.6555 101.364 89.2871 101.369C88.5167 101.375 87.4195 101.384 86.0679 101.395L86.0197 101.395V101.346C86.0157 100.11 86.0115 98.6532 86.0065 97.045C86.0055 96.2395 86.0042 95.3961 86.0029 94.5229C86.0025 94.0861 86.0022 93.6421 86.0019 93.1918C85.9814 92.7448 86.0597 92.2449 86.3306 91.8482C86.5989 91.4306 87.0161 91.122 87.479 90.9839C87.7083 90.9096 87.9564 90.8963 88.1856 90.8977C88.4123 90.897 88.6515 90.895 88.8808 90.9449C89.3387 91.0437 89.7467 91.3017 90.0344 91.646C90.3176 91.9939 90.487 92.4237 90.5032 92.8525C90.5112 94.5295 90.4963 96.0314 90.4907 97.2934C90.4811 98.5429 90.4728 99.5578 90.4676 100.271C90.4633 100.612 90.4596 100.881 90.4573 101.074C90.4553 101.158 90.4537 101.226 90.4524 101.28C90.451 101.325 90.4497 101.348 90.4481 101.346Z" fill="#E0E0E0"/>
<path d="M88.259 101.272C88.2224 101.272 88.1926 98.9803 88.1926 96.1543C88.1926 93.3273 88.2224 91.0361 88.259 91.0361C88.2957 91.0361 88.3258 93.3273 88.3258 96.1543C88.3258 98.9803 88.2957 101.272 88.259 101.272Z" fill="#E0E0E0"/>
<path d="M90.4484 93.3246C90.4484 93.3612 89.4678 93.391 88.2587 93.391C87.0492 93.391 86.0686 93.3612 86.0686 93.3246C86.0686 93.2879 87.0488 93.2578 88.2587 93.2578C89.4678 93.2578 90.4484 93.2875 90.4484 93.3246Z" fill="#E0E0E0"/>
<path d="M90.4484 95.8955C90.4484 95.9322 89.4678 95.9619 88.2587 95.9619C87.0492 95.9619 86.0686 95.9322 86.0686 95.8955C86.0686 95.8588 87.0488 95.8291 88.2587 95.8291C89.4678 95.8291 90.4484 95.8588 90.4484 95.8955Z" fill="#E0E0E0"/>
<path d="M90.4484 98.4673C90.4484 98.504 89.4678 98.534 88.2587 98.534C87.0492 98.534 86.0686 98.5043 86.0686 98.4673C86.0686 98.4306 87.0488 98.4009 88.2587 98.4009C89.4678 98.4009 90.4484 98.4306 90.4484 98.4673Z" fill="#E0E0E0"/>
<path d="M97.9223 101.346H93.5425V92.9641C93.5425 91.8587 94.4388 90.9624 95.5442 90.9624H95.9205C97.026 90.9624 97.9223 91.8587 97.9223 92.9641V101.346Z" fill="#FAFAFA"/>
<path d="M97.9223 101.346C97.9207 101.345 97.919 101.319 97.9174 101.27C97.9161 101.214 97.9144 101.143 97.9124 101.055C97.9101 100.858 97.9065 100.585 97.9022 100.237C97.8966 99.5231 97.8886 98.5072 97.8791 97.2557C97.8724 96.001 97.8645 94.5113 97.8556 92.8584C97.8391 92.4551 97.6779 92.0527 97.4116 91.7266C97.1403 91.4045 96.7571 91.1636 96.3283 91.0718C96.1139 91.0255 95.8932 91.0275 95.6606 91.0285C95.431 91.0282 95.2093 91.0401 94.9919 91.1101C94.5591 91.2396 94.1686 91.5287 93.9175 91.9195C93.7956 92.1065 93.7074 92.3143 93.6602 92.5301C93.6096 92.7461 93.607 92.9632 93.6093 93.1915C93.609 93.6418 93.6086 94.0858 93.6083 94.5226C93.607 95.3957 93.606 96.2392 93.6047 97.0446C93.5997 98.6532 93.5951 100.109 93.5914 101.346L93.5432 101.298C94.8822 101.309 95.9695 101.318 96.7327 101.324C97.1056 101.329 97.399 101.333 97.6095 101.336C97.7043 101.338 97.7806 101.34 97.8404 101.341C97.8929 101.343 97.9207 101.345 97.9223 101.346C97.924 101.348 97.8995 101.35 97.85 101.351C97.7922 101.353 97.7192 101.354 97.6276 101.357C97.4198 101.36 97.1298 101.364 96.7617 101.369C95.9913 101.375 94.8941 101.384 93.5425 101.395L93.4943 101.395V101.346C93.4903 100.11 93.4861 98.6532 93.4811 97.045C93.4801 96.2395 93.4788 95.3961 93.4775 94.5229C93.4771 94.0861 93.4768 93.6421 93.4765 93.1918C93.456 92.7448 93.5343 92.2449 93.8052 91.8482C94.0735 91.4306 94.4907 91.122 94.9536 90.9839C95.1829 90.9096 95.431 90.8963 95.6603 90.8977C95.8869 90.897 96.1261 90.895 96.3554 90.9449C96.8136 91.0437 97.2213 91.3017 97.5094 91.646C97.7925 91.9939 97.962 92.4237 97.9782 92.8525C97.9861 94.5295 97.9712 96.0314 97.9656 97.2934C97.9557 98.5429 97.9478 99.5578 97.9425 100.271C97.9382 100.612 97.9346 100.881 97.9323 101.074C97.9303 101.158 97.9286 101.226 97.9273 101.28C97.9256 101.325 97.924 101.348 97.9223 101.346Z" fill="#E0E0E0"/>
<path d="M95.7322 101.272C95.6955 101.272 95.6658 98.9803 95.6658 96.1543C95.6658 93.3273 95.6955 91.0361 95.7322 91.0361C95.7689 91.0361 95.7989 93.3273 95.7989 96.1543C95.7986 98.9803 95.7689 101.272 95.7322 101.272Z" fill="#E0E0E0"/>
<path d="M97.922 93.3246C97.922 93.3612 96.9415 93.391 95.7323 93.391C94.5225 93.391 93.5422 93.3612 93.5422 93.3246C93.5422 93.2879 94.5225 93.2578 95.7323 93.2578C96.9415 93.2578 97.922 93.2875 97.922 93.3246Z" fill="#E0E0E0"/>
<path d="M97.922 95.8955C97.922 95.9322 96.9415 95.9619 95.7323 95.9619C94.5225 95.9619 93.5422 95.9322 93.5422 95.8955C93.5422 95.8588 94.5225 95.8291 95.7323 95.8291C96.9415 95.8291 97.922 95.8588 97.922 95.8955Z" fill="#E0E0E0"/>
<path d="M97.9218 98.4673C97.9218 98.504 96.9412 98.534 95.7321 98.534C94.5222 98.534 93.542 98.5043 93.542 98.4673C93.542 98.4306 94.5222 98.4009 95.7321 98.4009C96.9412 98.4009 97.9218 98.4306 97.9218 98.4673Z" fill="#E0E0E0"/>
<path d="M82.976 107.176H79.5464V113.978H82.976V107.176Z" fill="#E0E0E0"/>
<path d="M89.6933 107.176H86.2637V113.978H89.6933V107.176Z" fill="#E0E0E0"/>
<path d="M96.4106 107.176H92.981V113.978H96.4106V107.176Z" fill="#E0E0E0"/>
<path d="M110.27 113.979H65.0371V115.412H110.27V113.979Z" fill="#E0E0E0"/>
<path d="M110.621 115.39H64.0454V116.823H110.621V115.39Z" fill="#F5F5F5"/>
<path d="M112.398 118.256H61.9512V119.69H112.398V118.256Z" fill="#F5F5F5"/>
<path d="M114.017 121.11H60.0889V122.543H114.017V121.11Z" fill="#F5F5F5"/>
<path d="M111.447 116.823H62.9302V118.256H111.447V116.823Z" fill="#E0E0E0"/>
<path d="M113.125 119.689H61.0552V121.122H113.125V119.689Z" fill="#E0E0E0"/>
<path d="M109.883 86.8276C109.883 86.8643 99.9746 86.8944 87.7557 86.8944C75.5321 86.8944 65.6265 86.8646 65.6265 86.8276C65.6265 86.791 75.5321 86.7612 87.7557 86.7612C99.9746 86.7612 109.883 86.791 109.883 86.8276Z" fill="#E0E0E0"/>
<path d="M110.485 86.1172C110.485 86.1539 100.283 86.1839 87.7012 86.1839C75.1152 86.1839 64.9155 86.1542 64.9155 86.1172C64.9155 86.0805 75.1152 86.0508 87.7012 86.0508C100.283 86.0505 110.485 86.0805 110.485 86.1172Z" fill="#EBEBEB"/>
<path d="M110.539 84.7396C110.539 84.7763 100.338 84.806 87.7561 84.806C75.1701 84.806 64.9705 84.7763 64.9705 84.7396C64.9705 84.7029 75.1701 84.6729 87.7561 84.6729C100.337 84.6729 110.539 84.7029 110.539 84.7396Z" fill="#EBEBEB"/>
<path d="M110.539 83.852C110.539 83.8887 100.338 83.9188 87.7561 83.9188C75.1701 83.9188 64.9705 83.889 64.9705 83.852C64.9705 83.8154 75.1701 83.7856 87.7561 83.7856C100.337 83.7856 110.539 83.8154 110.539 83.852Z" fill="#EBEBEB"/>
<path d="M110.3 83.3999C110.264 83.4075 100.099 83.4653 87.517 83.4663C75.046 83.4673 65.2639 83.4415 64.7313 83.3999C64.6946 83.3969 74.931 83.3477 87.517 83.3335C100.552 83.3183 110.505 83.3563 110.3 83.3999Z" fill="#EBEBEB"/>
<path d="M109.563 113.923C109.563 113.96 99.6285 113.99 87.3771 113.99C75.1215 113.99 65.1895 113.96 65.1895 113.923C65.1895 113.887 75.1215 113.857 87.3771 113.857C99.6281 113.857 109.563 113.887 109.563 113.923Z" fill="#E0E0E0"/>
<path d="M109.563 115.342C109.563 115.378 99.6285 115.409 87.3771 115.409C75.1215 115.409 65.1895 115.379 65.1895 115.342C65.1895 115.305 75.1215 115.275 87.3771 115.275C99.6281 115.275 109.563 115.305 109.563 115.342Z" fill="#E0E0E0"/>
<path d="M109.563 116.76C109.563 116.797 99.1467 116.841 86.3 116.858C73.4491 116.876 63.0347 116.86 63.0347 116.823C63.0347 116.786 73.4491 116.742 86.3 116.725C99.1464 116.707 109.563 116.723 109.563 116.76Z" fill="#E0E0E0"/>
<path d="M109.415 118.256C109.415 118.293 98.7889 118.323 85.6843 118.323C72.575 118.323 61.9514 118.293 61.9514 118.256C61.9514 118.219 72.575 118.189 85.6843 118.189C98.7889 118.189 109.415 118.219 109.415 118.256Z" fill="#E0E0E0"/>
<path d="M109.562 119.69C109.562 119.726 98.7368 119.756 85.387 119.756C72.0322 119.756 61.2095 119.726 61.2095 119.69C61.2095 119.653 72.0322 119.623 85.387 119.623C98.7368 119.623 109.562 119.653 109.562 119.69Z" fill="#E0E0E0"/>
<path d="M109.563 121.123C109.563 121.159 98.4867 121.189 84.827 121.189C71.1626 121.189 60.0891 121.159 60.0891 121.123C60.0891 121.086 71.1626 121.056 84.827 121.056C98.4863 121.056 109.563 121.086 109.563 121.123Z" fill="#E0E0E0"/>
<path d="M109.563 122.542C109.563 122.579 99.6285 122.609 87.3771 122.609C75.1215 122.609 65.1895 122.579 65.1895 122.542C65.1895 122.505 75.1215 122.476 87.3771 122.476C99.6281 122.476 109.563 122.505 109.563 122.542Z" fill="#E0E0E0"/>
<path d="M142.213 82.7941L152.801 77.3433L163.333 82.7941H142.213Z" fill="#EBEBEB"/>
<path d="M163.333 82.7939H142.213V84.0124H163.333V82.7939Z" fill="#E0E0E0"/>
<path d="M163.077 84.0127H142.537V84.4197H163.077V84.0127Z" fill="#E0E0E0"/>
<path d="M163.354 84.0127C163.354 84.0494 158.621 84.0791 152.784 84.0791C146.945 84.0791 142.213 84.0494 142.213 84.0127C142.213 83.976 146.945 83.9463 152.784 83.9463C158.621 83.9463 163.354 83.976 163.354 84.0127Z" fill="#EBEBEB"/>
<path d="M163.093 84.4199C163.093 84.4566 158.491 84.4867 152.816 84.4867C147.138 84.4867 142.537 84.4569 142.537 84.4199C142.537 84.3832 147.138 84.3535 152.816 84.3535C158.491 84.3535 163.093 84.3832 163.093 84.4199Z" fill="#EBEBEB"/>
<path d="M151.264 88.7651H146.98V96.1282H151.264V88.7651Z" fill="#EBEBEB"/>
<path d="M150.789 89.3027H147.431V95.7097H150.789V89.3027Z" fill="#FAFAFA"/>
<path d="M149.042 95.7388C149.006 95.7388 148.976 94.2944 148.976 92.5134C148.976 90.7317 149.005 89.2876 149.042 89.2876C149.079 89.2876 149.109 90.7317 149.109 92.5134C149.109 94.2944 149.079 95.7388 149.042 95.7388Z" fill="#E0E0E0"/>
<path d="M150.789 91.2349C150.789 91.2715 150.037 91.3013 149.11 91.3013C148.183 91.3013 147.431 91.2715 147.431 91.2349C147.431 91.1982 148.183 91.1685 149.11 91.1685C150.037 91.1685 150.789 91.1982 150.789 91.2349Z" fill="#E0E0E0"/>
<path d="M150.789 93.4971C150.789 93.5337 150.037 93.5635 149.11 93.5635C148.183 93.5635 147.431 93.5337 147.431 93.4971C147.431 93.4604 148.183 93.4307 149.11 93.4307C150.037 93.4303 150.789 93.4601 150.789 93.4971Z" fill="#E0E0E0"/>
<path d="M158.69 88.7651H154.407V96.1282H158.69V88.7651Z" fill="#EBEBEB"/>
<path d="M158.216 89.3027H154.858V95.7097H158.216V89.3027Z" fill="#FAFAFA"/>
<path d="M156.469 95.7388C156.433 95.7388 156.403 94.2944 156.403 92.5134C156.403 90.7317 156.433 89.2876 156.469 89.2876C156.506 89.2876 156.536 90.7317 156.536 92.5134C156.536 94.2944 156.506 95.7388 156.469 95.7388Z" fill="#E0E0E0"/>
<path d="M158.215 91.2349C158.215 91.2715 157.464 91.3013 156.536 91.3013C155.609 91.3013 154.857 91.2715 154.857 91.2349C154.857 91.1982 155.609 91.1685 156.536 91.1685C157.464 91.1685 158.215 91.1982 158.215 91.2349Z" fill="#E0E0E0"/>
<path d="M158.215 93.4971C158.215 93.5337 157.464 93.5635 156.536 93.5635C155.609 93.5635 154.857 93.5337 154.857 93.4971C154.857 93.4604 155.609 93.4307 156.536 93.4307C157.464 93.4303 158.215 93.4601 158.215 93.4971Z" fill="#E0E0E0"/>
<path d="M151.264 98.0688H146.98V105.432H151.264V98.0688Z" fill="#EBEBEB"/>
<path d="M150.789 98.6064H147.431V105.013H150.789V98.6064Z" fill="#FAFAFA"/>
<path d="M149.043 105.042C149.006 105.042 148.976 103.598 148.976 101.817C148.976 100.035 149.006 98.5908 149.043 98.5908C149.079 98.5908 149.109 100.035 149.109 101.817C149.109 103.598 149.08 105.042 149.043 105.042Z" fill="#E0E0E0"/>
<path d="M150.789 100.539C150.789 100.575 150.037 100.605 149.11 100.605C148.183 100.605 147.431 100.575 147.431 100.539C147.431 100.502 148.183 100.472 149.11 100.472C150.037 100.472 150.789 100.502 150.789 100.539Z" fill="#E0E0E0"/>
<path d="M150.789 102.8C150.789 102.837 150.037 102.867 149.11 102.867C148.183 102.867 147.431 102.837 147.431 102.8C147.431 102.764 148.183 102.734 149.11 102.734C150.037 102.734 150.789 102.764 150.789 102.8Z" fill="#E0E0E0"/>
<path d="M158.691 98.0688H154.407V105.432H158.691V98.0688Z" fill="#EBEBEB"/>
<path d="M167.28 121.448C167.28 121.496 132.965 121.534 90.6438 121.534C48.3085 121.534 14 121.495 14 121.448C14 121.401 48.3082 121.362 90.6438 121.362C132.965 121.362 167.28 121.401 167.28 121.448Z" fill="#E0E0E0"/>
<path d="M158.216 98.6064H154.858V105.013H158.216V98.6064Z" fill="#FAFAFA"/>
<path d="M156.469 105.042C156.433 105.042 156.403 103.598 156.403 101.817C156.403 100.035 156.433 98.5908 156.469 98.5908C156.506 98.5908 156.536 100.035 156.536 101.817C156.536 103.598 156.506 105.042 156.469 105.042Z" fill="#E0E0E0"/>
<path d="M158.216 100.539C158.216 100.575 157.464 100.605 156.537 100.605C155.609 100.605 154.858 100.575 154.858 100.539C154.858 100.502 155.609 100.472 156.537 100.472C157.464 100.472 158.216 100.502 158.216 100.539Z" fill="#E0E0E0"/>
<path d="M158.216 102.8C158.216 102.837 157.464 102.867 156.537 102.867C155.609 102.867 154.858 102.837 154.858 102.8C154.858 102.764 155.609 102.734 156.537 102.734C157.464 102.734 158.216 102.764 158.216 102.8Z" fill="#E0E0E0"/>
<path d="M117.707 97.7393H113.423V105.102H117.707V97.7393Z" fill="#F5F5F5"/>
<path d="M117.232 98.2769H113.874V104.684H117.232V98.2769Z" fill="#FAFAFA"/>
<path d="M115.485 104.713C115.449 104.713 115.419 103.269 115.419 101.488C115.419 99.7058 115.448 98.2617 115.485 98.2617C115.522 98.2617 115.552 99.7058 115.552 101.488C115.552 103.269 115.522 104.713 115.485 104.713Z" fill="#E0E0E0"/>
<path d="M117.232 100.209C117.232 100.246 116.481 100.276 115.553 100.276C114.626 100.276 113.874 100.246 113.874 100.209C113.874 100.173 114.626 100.143 115.553 100.143C116.481 100.143 117.232 100.173 117.232 100.209Z" fill="#E0E0E0"/>
<path d="M117.232 102.471C117.232 102.507 116.481 102.537 115.553 102.537C114.626 102.537 113.874 102.507 113.874 102.471C113.874 102.434 114.626 102.404 115.553 102.404C116.481 102.404 117.232 102.434 117.232 102.471Z" fill="#E0E0E0"/>
<path d="M125.472 97.7393H121.188V105.102H125.472V97.7393Z" fill="#F5F5F5"/>
<path d="M124.997 98.2769H121.639V104.684H124.997V98.2769Z" fill="#FAFAFA"/>
<path d="M123.251 104.713C123.214 104.713 123.184 103.269 123.184 101.488C123.184 99.7058 123.214 98.2617 123.251 98.2617C123.287 98.2617 123.317 99.7058 123.317 101.488C123.317 103.269 123.287 104.713 123.251 104.713Z" fill="#E0E0E0"/>
<path d="M124.997 100.209C124.997 100.246 124.246 100.276 123.318 100.276C122.391 100.276 121.639 100.246 121.639 100.209C121.639 100.173 122.391 100.143 123.318 100.143C124.246 100.143 124.997 100.173 124.997 100.209Z" fill="#E0E0E0"/>
<path d="M124.997 102.471C124.997 102.507 124.246 102.537 123.318 102.537C122.391 102.537 121.639 102.507 121.639 102.471C121.639 102.434 122.391 102.404 123.318 102.404C124.246 102.404 124.997 102.434 124.997 102.471Z" fill="#E0E0E0"/>
<path d="M133.238 97.7393H128.954V105.102H133.238V97.7393Z" fill="#F5F5F5"/>
<path d="M132.763 98.2769H129.406V104.684H132.763V98.2769Z" fill="#FAFAFA"/>
<path d="M131.017 104.713C130.98 104.713 130.951 103.269 130.951 101.488C130.951 99.7058 130.98 98.2617 131.017 98.2617C131.054 98.2617 131.083 99.7058 131.083 101.488C131.083 103.269 131.054 104.713 131.017 104.713Z" fill="#E0E0E0"/>
<path d="M132.763 100.209C132.763 100.246 132.011 100.276 131.084 100.276C130.157 100.276 129.405 100.246 129.405 100.209C129.405 100.173 130.157 100.143 131.084 100.143C132.011 100.143 132.763 100.173 132.763 100.209Z" fill="#E0E0E0"/>
<path d="M132.763 102.471C132.763 102.507 132.011 102.537 131.084 102.537C130.157 102.537 129.405 102.507 129.405 102.471C129.405 102.434 130.157 102.404 131.084 102.404C132.011 102.404 132.763 102.434 132.763 102.471Z" fill="#E0E0E0"/>
<path d="M141.002 97.7393H136.719V105.102H141.002V97.7393Z" fill="#F5F5F5"/>
<path d="M140.528 98.2769H137.17V104.684H140.528V98.2769Z" fill="#FAFAFA"/>
<path d="M138.781 104.713C138.745 104.713 138.715 103.269 138.715 101.488C138.715 99.7058 138.745 98.2617 138.781 98.2617C138.818 98.2617 138.848 99.7058 138.848 101.488C138.848 103.269 138.818 104.713 138.781 104.713Z" fill="#E0E0E0"/>
<path d="M140.528 100.209C140.528 100.246 139.776 100.276 138.849 100.276C137.921 100.276 137.17 100.246 137.17 100.209C137.17 100.173 137.921 100.143 138.849 100.143C139.776 100.143 140.528 100.173 140.528 100.209Z" fill="#E0E0E0"/>
<path d="M140.527 102.471C140.527 102.507 139.775 102.537 138.848 102.537C137.921 102.537 137.169 102.507 137.169 102.471C137.169 102.434 137.921 102.404 138.848 102.404C139.776 102.404 140.527 102.434 140.527 102.471Z" fill="#E0E0E0"/>
<path d="M163.39 107.217H109.246V108.463H163.39V107.217Z" fill="#E0E0E0"/>
<path d="M163.067 108.422H109.246V109.257H163.067V108.422Z" fill="#E0E0E0"/>
<path d="M109.246 108.523C109.246 108.486 121.313 108.456 136.196 108.456C151.084 108.456 163.149 108.486 163.149 108.523C163.149 108.559 151.084 108.589 136.196 108.589C121.313 108.589 109.246 108.559 109.246 108.523Z" fill="#EBEBEB"/>
<path d="M109.246 109.257C109.246 109.22 121.313 109.19 136.196 109.19C151.084 109.19 163.149 109.22 163.149 109.257C163.149 109.294 151.084 109.324 136.196 109.324C121.313 109.324 109.246 109.294 109.246 109.257Z" fill="#EBEBEB"/>
<path d="M109.246 107.217C109.246 107.18 121.313 107.15 136.196 107.15C151.084 107.15 163.149 107.18 163.149 107.217C163.149 107.254 151.084 107.284 136.196 107.284C121.313 107.284 109.246 107.254 109.246 107.217Z" fill="#EBEBEB"/>
<path d="M119.957 120.139H115.455V112.633C115.455 111.48 116.39 110.545 117.543 110.545H117.869C119.022 110.545 119.957 111.48 119.957 112.633L119.957 120.139Z" fill="#E0E0E0"/>
<path d="M119.32 119.446H116.094V112.734C116.094 111.907 116.764 111.237 117.59 111.237H117.823C118.65 111.237 119.32 111.907 119.32 112.734V119.446Z" fill="#FAFAFA"/>
<path d="M117.707 119.446C117.67 119.446 117.64 117.608 117.64 115.342C117.64 113.075 117.67 111.237 117.707 111.237C117.743 111.237 117.773 113.075 117.773 115.342C117.773 117.608 117.744 119.446 117.707 119.446Z" fill="#E0E0E0"/>
<path d="M119.299 113.794C119.299 113.831 118.58 113.861 117.692 113.861C116.805 113.861 116.085 113.831 116.085 113.794C116.085 113.758 116.805 113.728 117.692 113.728C118.58 113.728 119.299 113.757 119.299 113.794Z" fill="#E0E0E0"/>
<path d="M119.299 116.483C119.299 116.519 118.58 116.549 117.692 116.549C116.805 116.549 116.085 116.519 116.085 116.483C116.085 116.446 116.805 116.416 117.692 116.416C118.58 116.416 119.299 116.446 119.299 116.483Z" fill="#E0E0E0"/>
<path d="M128.711 120.139H124.209V112.633C124.209 111.48 125.144 110.545 126.297 110.545H126.623C127.776 110.545 128.711 111.48 128.711 112.633V120.139Z" fill="#E0E0E0"/>
<path d="M128.074 119.446H124.847V112.734C124.847 111.907 125.517 111.237 126.344 111.237H126.577C127.404 111.237 128.074 111.907 128.074 112.734V119.446Z" fill="#FAFAFA"/>
<path d="M126.461 119.446C126.424 119.446 126.394 117.608 126.394 115.342C126.394 113.075 126.424 111.237 126.461 111.237C126.497 111.237 126.527 113.075 126.527 115.342C126.527 117.608 126.497 119.446 126.461 119.446Z" fill="#E0E0E0"/>
<path d="M128.052 113.794C128.052 113.831 127.333 113.861 126.445 113.861C125.557 113.861 124.838 113.831 124.838 113.794C124.838 113.758 125.557 113.728 126.445 113.728C127.333 113.728 128.052 113.757 128.052 113.794Z" fill="#E0E0E0"/>
<path d="M128.052 116.483C128.052 116.519 127.333 116.549 126.445 116.549C125.557 116.549 124.838 116.519 124.838 116.483C124.838 116.446 125.557 116.416 126.445 116.416C127.333 116.416 128.052 116.446 128.052 116.483Z" fill="#E0E0E0"/>
<path d="M137.464 120.139H132.962V112.633C132.962 111.48 133.897 110.545 135.05 110.545H135.376C136.529 110.545 137.464 111.48 137.464 112.633V120.139Z" fill="#E0E0E0"/>
<path d="M136.826 119.446H133.6V112.734C133.6 111.907 134.27 111.237 135.097 111.237H135.33C136.156 111.237 136.826 111.907 136.826 112.734V119.446Z" fill="#FAFAFA"/>
<path d="M135.213 119.446C135.177 119.446 135.147 117.608 135.147 115.342C135.147 113.075 135.176 111.237 135.213 111.237C135.25 111.237 135.28 113.075 135.28 115.342C135.28 117.608 135.25 119.446 135.213 119.446Z" fill="#E0E0E0"/>
<path d="M136.806 113.794C136.806 113.831 136.086 113.861 135.199 113.861C134.311 113.861 133.592 113.831 133.592 113.794C133.592 113.758 134.311 113.728 135.199 113.728C136.086 113.728 136.806 113.757 136.806 113.794Z" fill="#E0E0E0"/>
<path d="M136.806 116.483C136.806 116.519 136.086 116.549 135.199 116.549C134.311 116.549 133.592 116.519 133.592 116.483C133.592 116.446 134.311 116.416 135.199 116.416C136.086 116.416 136.806 116.446 136.806 116.483Z" fill="#E0E0E0"/>
<path d="M146.218 120.139H141.716V112.633C141.716 111.48 142.651 110.545 143.804 110.545H144.13C145.283 110.545 146.218 111.48 146.218 112.633V120.139Z" fill="#E0E0E0"/>
<path d="M145.58 119.446H142.354V112.734C142.354 111.907 143.024 111.237 143.851 111.237H144.084C144.91 111.237 145.58 111.907 145.58 112.734V119.446Z" fill="#FAFAFA"/>
<path d="M143.967 119.446C143.931 119.446 143.901 117.608 143.901 115.342C143.901 113.075 143.93 111.237 143.967 111.237C144.004 111.237 144.034 113.075 144.034 115.342C144.034 117.608 144.004 119.446 143.967 119.446Z" fill="#E0E0E0"/>
<path d="M145.56 113.794C145.56 113.831 144.841 113.861 143.953 113.861C143.066 113.861 142.346 113.831 142.346 113.794C142.346 113.758 143.066 113.728 143.953 113.728C144.84 113.728 145.56 113.757 145.56 113.794Z" fill="#E0E0E0"/>
<path d="M145.56 116.483C145.56 116.519 144.841 116.549 143.953 116.549C143.066 116.549 142.346 116.519 142.346 116.483C142.346 116.446 143.066 116.416 143.953 116.416C144.84 116.416 145.56 116.446 145.56 116.483Z" fill="#E0E0E0"/>
<path d="M154.971 120.139H150.469V112.633C150.469 111.48 151.403 110.545 152.556 110.545H152.882C154.036 110.545 154.97 111.48 154.97 112.633L154.971 120.139Z" fill="#E0E0E0"/>
<path d="M154.333 119.446H151.107V112.734C151.107 111.907 151.777 111.237 152.603 111.237H152.837C153.663 111.237 154.333 111.907 154.333 112.734V119.446Z" fill="#FAFAFA"/>
<path d="M152.72 119.446C152.683 119.446 152.653 117.608 152.653 115.342C152.653 113.075 152.683 111.237 152.72 111.237C152.757 111.237 152.786 113.075 152.786 115.342C152.786 117.608 152.757 119.446 152.72 119.446Z" fill="#E0E0E0"/>
<path d="M154.313 113.794C154.313 113.831 153.593 113.861 152.706 113.861C151.818 113.861 151.098 113.831 151.098 113.794C151.098 113.758 151.818 113.728 152.706 113.728C153.593 113.728 154.313 113.757 154.313 113.794Z" fill="#E0E0E0"/>
<path d="M154.313 116.483C154.313 116.519 153.593 116.549 152.706 116.549C151.818 116.549 151.098 116.519 151.098 116.483C151.098 116.446 151.818 116.416 152.706 116.416C153.593 116.416 154.313 116.446 154.313 116.483Z" fill="#E0E0E0"/>
<path d="M143.353 92.7852H108.706V94.0036H143.353V92.7852Z" fill="#E0E0E0"/>
<path d="M142.932 94.0034H109.237V94.4104H142.932V94.0034Z" fill="#E0E0E0"/>
<path d="M143.353 92.7853C143.353 92.7853 143.29 92.7886 143.171 92.79C143.048 92.7909 142.873 92.7926 142.645 92.7946C142.18 92.7969 141.503 92.7999 140.63 92.8042C138.881 92.8088 136.354 92.8157 133.226 92.8243C126.974 92.8312 118.323 92.8412 108.706 92.8517L108.772 92.7853C108.772 93.1702 108.772 93.5852 108.772 94.0021V94.0038L108.706 93.9373C125.46 93.9373 139.527 93.9585 143.353 93.9876L143.336 94.0041C143.34 93.5911 143.343 93.2895 143.346 93.086C143.349 92.8848 143.353 92.7853 143.353 92.7853C143.353 92.7853 143.357 92.8768 143.36 93.0761C143.362 93.2816 143.365 93.5865 143.369 94.0034V94.0199H143.353C139.527 94.0487 125.46 94.0702 108.706 94.0702H108.639V94.0034V94.0018C108.639 93.5848 108.639 93.1699 108.639 92.785V92.7183H108.706C118.342 92.7292 127.011 92.7387 133.275 92.7457C136.397 92.7543 138.918 92.7612 140.664 92.7658C141.53 92.7698 142.202 92.7731 142.663 92.7754C142.887 92.7774 143.059 92.7791 143.18 92.78C143.296 92.782 143.353 92.7853 143.353 92.7853Z" fill="#EBEBEB"/>
<path d="M109.237 94.0029C109.239 94.0029 109.242 94.0366 109.244 94.1044C109.246 94.1794 109.248 94.2798 109.251 94.41L109.237 94.3957C110.902 94.3657 117.821 94.3432 126.098 94.3432C134.377 94.3432 141.294 94.3657 142.96 94.3957L142.946 94.4109C142.94 94.2804 142.936 94.1797 142.932 94.1047C142.93 94.0366 142.93 94.0029 142.933 94.0029C142.935 94.0026 142.94 94.0363 142.947 94.1037C142.953 94.1784 142.962 94.2788 142.974 94.409L142.975 94.4238L142.959 94.4242C141.293 94.4542 134.377 94.4767 126.098 94.4767C117.821 94.4767 110.902 94.4542 109.237 94.4242L109.222 94.4238L109.223 94.41C109.225 94.2795 109.228 94.179 109.229 94.1044C109.232 94.0366 109.234 94.0029 109.237 94.0029Z" fill="#EBEBEB"/>
<path d="M143.354 92.7847H108.706L109.38 89.6943H142.79L143.354 92.7847Z" fill="#EBEBEB"/>
<path d="M64.7393 82.3107L63.6035 81.1551L87.6509 69.3154L112.027 81.2783L110.831 82.3107L87.6304 71.3935L64.7393 82.3107Z" fill="#EBEBEB"/>
<path d="M87.5155 80.7731C89.366 80.7731 90.8661 79.273 90.8661 77.4224C90.8661 75.5719 89.366 74.0718 87.5155 74.0718C85.6649 74.0718 84.1648 75.5719 84.1648 77.4224C84.1648 79.273 85.6649 80.7731 87.5155 80.7731Z" fill="#E0E0E0"/>
<path d="M18.9593 131.469C18.9197 131.495 18.4545 130.859 17.9203 130.048C17.3861 129.236 16.985 128.558 17.025 128.532C17.0646 128.505 17.5298 129.142 18.064 129.953C18.5979 130.764 18.999 131.443 18.9593 131.469Z" fill="#E0E0E0"/>
<path d="M18.9441 127.245C18.9939 127.237 19.1644 128.152 19.4694 129.254C19.7707 130.358 20.0911 131.231 20.0445 131.25C20.0036 131.268 19.6081 130.415 19.3035 129.3C18.9956 128.186 18.8998 127.25 18.9441 127.245Z" fill="#E0E0E0"/>
<path d="M21.9445 127.883C21.9911 127.891 21.8976 128.604 21.7351 129.474C21.5725 130.344 21.403 131.042 21.3564 131.033C21.3099 131.024 21.4034 130.312 21.5659 129.442C21.7285 128.572 21.8979 127.874 21.9445 127.883Z" fill="#E0E0E0"/>
<path d="M47.2362 128.714C47.1965 128.74 46.7314 128.104 46.1971 127.293C45.6629 126.481 45.2618 125.803 45.3018 125.777C45.3415 125.751 45.8066 126.387 46.3409 127.198C46.8751 128.009 47.2758 128.688 47.2362 128.714Z" fill="#E0E0E0"/>
<path d="M47.2197 124.491C47.2696 124.483 47.4401 125.398 47.745 126.5C48.0463 127.604 48.3668 128.477 48.3202 128.496C48.2792 128.514 47.8838 127.661 47.5791 126.546C47.2712 125.431 47.1754 124.496 47.2197 124.491Z" fill="#E0E0E0"/>
<path d="M50.2213 125.129C50.2679 125.138 50.1741 125.85 50.0119 126.719C49.8493 127.589 49.6799 128.287 49.6333 128.279C49.5867 128.27 49.6805 127.558 49.8427 126.688C50.0053 125.818 50.1748 125.12 50.2213 125.129Z" fill="#E0E0E0"/>
<path d="M25.6404 146.86C25.6008 146.886 25.1356 146.25 24.6014 145.438C24.0672 144.627 23.6664 143.948 23.7061 143.922C23.7457 143.896 24.2109 144.532 24.7451 145.344C25.279 146.155 25.6801 146.834 25.6404 146.86Z" fill="#E0E0E0"/>
<path d="M25.624 142.636C25.6739 142.628 25.8444 143.543 26.1493 144.645C26.4506 145.749 26.7711 146.622 26.7245 146.641C26.6835 146.659 26.2881 145.806 25.9835 144.69C25.6752 143.576 25.5797 142.641 25.624 142.636Z" fill="#E0E0E0"/>
<path d="M28.6257 143.274C28.6723 143.283 28.5788 143.995 28.4162 144.865C28.2537 145.735 28.0842 146.433 28.0376 146.424C27.991 146.416 28.0845 145.703 28.2471 144.833C28.4093 143.963 28.5788 143.265 28.6257 143.274Z" fill="#E0E0E0"/>
<path d="M150.582 129.356C150.542 129.382 150.077 128.745 149.543 127.934C149.008 127.123 148.607 126.444 148.647 126.418C148.687 126.392 149.152 127.028 149.686 127.84C150.22 128.651 150.621 129.33 150.582 129.356Z" fill="#E0E0E0"/>
<path d="M150.566 125.132C150.616 125.125 150.786 126.039 151.091 127.142C151.393 128.246 151.713 129.119 151.667 129.138C151.626 129.155 151.23 128.303 150.926 127.187C150.618 126.073 150.522 125.138 150.566 125.132Z" fill="#E0E0E0"/>
<path d="M153.567 125.771C153.613 125.779 153.52 126.491 153.357 127.361C153.195 128.231 153.025 128.929 152.979 128.921C152.932 128.912 153.026 128.2 153.188 127.33C153.35 126.46 153.52 125.762 153.567 125.771Z" fill="#E0E0E0"/>
<path d="M115.121 138.332C115.081 138.358 114.616 137.722 114.082 136.91C113.547 136.099 113.147 135.42 113.186 135.394C113.226 135.368 113.691 136.005 114.225 136.816C114.76 137.627 115.16 138.306 115.121 138.332Z" fill="#EBEBEB"/>
<path d="M115.105 134.108C115.155 134.1 115.326 135.015 115.631 136.117C115.932 137.221 116.253 138.095 116.206 138.113C116.165 138.131 115.769 137.278 115.465 136.163C115.157 135.049 115.061 134.114 115.105 134.108Z" fill="#EBEBEB"/>
<path d="M118.106 134.747C118.152 134.755 118.059 135.468 117.896 136.337C117.734 137.207 117.565 137.905 117.518 137.896C117.471 137.888 117.565 137.176 117.727 136.306C117.889 135.436 118.059 134.738 118.106 134.747Z" fill="#EBEBEB"/>
<path d="M154.006 148.236C153.966 148.263 153.501 147.626 152.967 146.815C152.433 146.004 152.032 145.325 152.072 145.299C152.111 145.273 152.576 145.909 153.111 146.721C153.645 147.531 154.046 148.21 154.006 148.236Z" fill="#EBEBEB"/>
<path d="M153.99 144.012C154.04 144.005 154.211 144.919 154.516 146.022C154.817 147.126 155.138 147.999 155.091 148.018C155.05 148.036 154.654 147.183 154.35 146.067C154.042 144.953 153.946 144.018 153.99 144.012Z" fill="#EBEBEB"/>
<path d="M156.991 144.65C157.038 144.659 156.944 145.371 156.782 146.241C156.619 147.111 156.45 147.809 156.403 147.8C156.356 147.792 156.45 147.079 156.613 146.21C156.775 145.34 156.945 144.642 156.991 144.65Z" fill="#EBEBEB"/>
<path d="M17.1051 164.832C17.0654 164.858 16.6003 164.221 16.066 163.41C15.5318 162.599 15.1307 161.92 15.1707 161.894C15.2104 161.868 15.6755 162.505 16.2097 163.316C16.744 164.127 17.1447 164.806 17.1051 164.832Z" fill="#EBEBEB"/>
<path d="M17.0903 160.608C17.1402 160.601 17.3107 161.515 17.6156 162.618C17.9169 163.722 18.2374 164.595 18.1908 164.614C18.1498 164.631 17.7544 163.779 17.4498 162.663C17.1415 161.549 17.0461 160.614 17.0903 160.608Z" fill="#EBEBEB"/>
<path d="M20.0902 161.247C20.1368 161.256 20.0433 161.968 19.8808 162.838C19.7182 163.708 19.5488 164.406 19.5022 164.397C19.4556 164.388 19.5494 163.676 19.7116 162.806C19.8742 161.937 20.0437 161.239 20.0902 161.247Z" fill="#EBEBEB"/>
<path d="M43.8712 144.447C43.8315 144.474 43.3664 143.837 42.8321 143.026C42.2979 142.215 41.8969 141.536 41.9368 141.51C41.9768 141.484 42.4416 142.12 42.9759 142.932C43.5101 143.742 43.9108 144.421 43.8712 144.447Z" fill="#EBEBEB"/>
<path d="M43.8559 140.223C43.9058 140.216 44.0763 141.13 44.3812 142.233C44.6825 143.337 45.003 144.21 44.9564 144.229C44.9154 144.247 44.52 143.394 44.2154 142.278C43.9075 141.164 43.8117 140.229 43.8559 140.223Z" fill="#EBEBEB"/>
<path d="M46.8566 140.862C46.9032 140.871 46.8097 141.583 46.6472 142.453C46.4846 143.323 46.3151 144.021 46.2686 144.012C46.222 144.004 46.3155 143.291 46.478 142.421C46.6406 141.552 46.81 140.854 46.8566 140.862Z" fill="#EBEBEB"/>
<path d="M59.3824 151.386C59.3428 151.412 58.8776 150.776 58.3434 149.965C57.8092 149.154 57.4081 148.475 57.4481 148.449C57.4877 148.423 57.9529 149.059 58.4871 149.871C59.021 150.681 59.4221 151.36 59.3824 151.386Z" fill="#E0E0E0"/>
<path d="M59.3669 147.163C59.4168 147.155 59.5873 148.07 59.8922 149.172C60.1935 150.276 60.514 151.149 60.4674 151.168C60.4264 151.186 60.031 150.333 59.7264 149.218C59.4185 148.103 59.3226 147.168 59.3669 147.163Z" fill="#E0E0E0"/>
<path d="M62.3676 147.801C62.4142 147.81 62.3207 148.522 62.1581 149.392C61.9956 150.262 61.8261 150.96 61.7795 150.951C61.7329 150.943 61.8268 150.23 61.989 149.36C62.1512 148.491 62.3207 147.792 62.3676 147.801Z" fill="#E0E0E0"/>
<path d="M128.536 147.504C128.496 147.53 128.031 146.893 127.497 146.082C126.962 145.271 126.561 144.592 126.601 144.566C126.641 144.54 127.106 145.176 127.64 145.988C128.175 146.799 128.575 147.477 128.536 147.504Z" fill="#E0E0E0"/>
<path d="M128.521 143.28C128.571 143.272 128.741 144.187 129.046 145.289C129.347 146.393 129.668 147.266 129.621 147.285C129.58 147.303 129.185 146.45 128.88 145.335C128.572 144.221 128.476 143.285 128.521 143.28Z" fill="#E0E0E0"/>
<path d="M131.521 143.919C131.567 143.927 131.474 144.639 131.311 145.509C131.149 146.379 130.979 147.077 130.933 147.069C130.886 147.06 130.98 146.348 131.142 145.478C131.305 144.608 131.474 143.91 131.521 143.919Z" fill="#E0E0E0"/>
<path d="M111.872 165.76C111.832 165.786 111.367 165.15 110.833 164.339C110.298 163.527 109.897 162.849 109.937 162.823C109.977 162.796 110.442 163.433 110.976 164.244C111.51 165.055 111.911 165.734 111.872 165.76Z" fill="#E0E0E0"/>
<path d="M111.856 161.537C111.906 161.529 112.077 162.444 112.382 163.546C112.683 164.65 113.003 165.523 112.957 165.542C112.916 165.56 112.52 164.707 112.216 163.592C111.908 162.478 111.812 161.542 111.856 161.537Z" fill="#E0E0E0"/>
<path d="M114.857 162.175C114.904 162.183 114.81 162.896 114.648 163.765C114.485 164.635 114.316 165.333 114.269 165.325C114.222 165.316 114.316 164.604 114.479 163.734C114.641 162.864 114.81 162.166 114.857 162.175Z" fill="#E0E0E0"/>
<path d="M149.942 165.658C149.903 165.684 149.438 165.047 148.903 164.236C148.369 163.425 147.968 162.746 148.008 162.72C148.048 162.694 148.513 163.33 149.047 164.142C149.581 164.953 149.982 165.632 149.942 165.658Z" fill="#E0E0E0"/>
<path d="M149.927 161.434C149.977 161.426 150.148 162.341 150.453 163.443C150.754 164.547 151.075 165.42 151.028 165.439C150.987 165.457 150.592 164.604 150.287 163.489C149.979 162.374 149.883 161.439 149.927 161.434Z" fill="#E0E0E0"/>
<path d="M152.927 162.072C152.974 162.08 152.881 162.793 152.718 163.663C152.556 164.532 152.386 165.231 152.339 165.222C152.293 165.213 152.386 164.501 152.549 163.631C152.711 162.761 152.881 162.063 152.927 162.072Z" fill="#E0E0E0"/>
<path d="M40.0807 166.382C40.041 166.408 39.5758 165.772 39.0416 164.96C38.5074 164.149 38.1063 163.47 38.1463 163.444C38.1859 163.418 38.6511 164.054 39.1853 164.866C39.7192 165.677 40.1203 166.356 40.0807 166.382Z" fill="#E0E0E0"/>
<path d="M40.0654 162.158C40.1153 162.151 40.2858 163.065 40.5907 164.168C40.892 165.272 41.2125 166.145 41.1659 166.163C41.1249 166.181 40.7295 165.329 40.4248 164.213C40.1169 163.099 40.0211 162.164 40.0654 162.158Z" fill="#E0E0E0"/>
<path d="M43.0658 162.796C43.1124 162.805 43.0189 163.517 42.8564 164.387C42.6938 165.257 42.5243 165.955 42.4778 165.946C42.4312 165.938 42.525 165.225 42.6872 164.356C42.8494 163.486 43.0192 162.788 43.0658 162.796Z" fill="#E0E0E0"/>
<path d="M161.296 180.762C161.296 180.809 129.303 180.848 89.8455 180.848C50.3746 180.848 18.3879 180.809 18.3879 180.762C18.3879 180.714 50.3749 180.676 89.8455 180.676C129.302 180.675 161.296 180.714 161.296 180.762Z" fill="#263238"/>
<path d="M50.5747 169.407C51.0934 169.604 51.4895 170.057 51.7013 170.57C51.9134 171.083 51.9567 171.652 51.9197 172.206C51.8483 173.277 51.2926 174.381 50.6801 175.264C49.7461 174.522 49.4762 173.165 49.3824 172.468C49.2347 171.366 49.6358 169.285 50.5747 169.407Z" fill="#EB2027"/>
<path d="M51.8055 176.973C51.6337 176.378 51.8537 175.705 52.2971 175.272C52.7404 174.838 53.3784 174.634 53.9982 174.653C54.2846 174.661 54.5971 174.73 54.7716 174.957C54.9348 175.17 54.9318 175.478 54.8188 175.721C54.7058 175.964 54.4994 176.151 54.2793 176.304C53.5241 176.828 52.6972 177.196 51.8055 176.973Z" fill="#EB2027"/>
<path d="M50.8059 180.296C50.8002 180.295 50.8092 180.217 50.8277 180.076C50.8488 179.92 50.8759 179.72 50.9086 179.479C50.9849 178.979 51.0794 178.265 51.4316 177.559C51.7788 176.856 52.2863 176.326 52.7217 176.054C52.9378 175.915 53.1284 175.83 53.2635 175.783C53.3303 175.758 53.3851 175.746 53.4211 175.736C53.4575 175.726 53.4769 175.722 53.4776 175.725C53.4849 175.742 53.17 175.814 52.7521 176.1C52.3325 176.378 51.8429 176.902 51.5013 177.594C51.1557 178.285 51.053 178.989 50.9628 179.487C50.9198 179.737 50.8852 179.941 50.8574 180.08C50.8296 180.22 50.8108 180.297 50.8059 180.296Z" fill="#263238"/>
<path d="M50.4087 171.02C50.4114 171.019 50.4167 171.052 50.4243 171.115C50.4319 171.185 50.4414 171.276 50.4533 171.389C50.4771 171.627 50.5072 171.971 50.5409 172.398C50.6083 173.251 50.6846 174.43 50.7398 175.734C50.7946 177.039 50.8174 178.221 50.822 179.076C50.8243 179.504 50.8233 179.85 50.8197 180.089C50.8174 180.202 50.8154 180.293 50.8138 180.365C50.8115 180.428 50.8091 180.461 50.8065 180.461C50.8039 180.461 50.8012 180.428 50.7982 180.365C50.7959 180.294 50.7929 180.202 50.7896 180.09C50.784 179.841 50.7764 179.497 50.7672 179.077C50.7483 178.223 50.717 177.042 50.6621 175.738C50.607 174.435 50.5392 173.256 50.486 172.402C50.4599 171.983 50.4388 171.64 50.4233 171.392C50.4173 171.279 50.4124 171.187 50.4087 171.116C50.4061 171.053 50.4061 171.02 50.4087 171.02Z" fill="#263238"/>
<path d="M50.2835 177.696C50.0196 176.415 49.0962 175.29 47.8923 174.78C47.5857 174.651 47.1896 174.575 46.9537 174.809C46.7171 175.044 46.7911 175.443 46.9263 175.748C47.4889 177.016 48.8814 177.865 50.2663 177.784" fill="#EB2027"/>
<path d="M48.0846 175.784C48.0866 175.779 48.1556 175.806 48.2789 175.859C48.3406 175.884 48.4163 175.916 48.4992 175.963C48.5821 176.01 48.6819 176.055 48.781 176.123C48.8821 176.187 48.9948 176.256 49.1055 176.344C49.2211 176.426 49.3344 176.526 49.453 176.632C49.6846 176.849 49.9198 177.111 50.1247 177.417C50.3265 177.724 50.4772 178.043 50.5862 178.341C50.6361 178.493 50.684 178.636 50.7121 178.775C50.7487 178.912 50.7663 179.042 50.7841 179.161C50.8062 179.279 50.8056 179.389 50.8142 179.483C50.8231 179.578 50.8208 179.661 50.8181 179.728C50.8145 179.862 50.8099 179.935 50.8046 179.935C50.7871 179.935 50.8039 179.638 50.7296 179.169C50.7088 179.053 50.6883 178.924 50.6496 178.79C50.6192 178.654 50.5697 178.514 50.5191 178.366C50.4085 178.073 50.2585 177.762 50.0602 177.46C49.859 177.159 49.6298 176.901 49.4045 176.684C49.2888 176.578 49.1788 176.478 49.0665 176.395C48.9591 176.306 48.8497 176.236 48.7516 176.169C48.3535 175.91 48.0777 175.8 48.0846 175.784Z" fill="#263238"/>
<path d="M119.25 177.827C119.302 177.818 119.421 178.559 119.798 179.389C120.167 180.224 120.642 180.805 120.6 180.838C120.572 180.869 120.023 180.321 119.641 179.46C119.252 178.601 119.208 177.827 119.25 177.827Z" fill="#263238"/>
<path d="M121.434 173.775C121.46 173.775 121.473 174.17 121.504 174.807C121.534 175.444 121.588 176.323 121.689 177.29C121.791 178.257 121.922 179.128 122.025 179.757C122.127 180.387 122.196 180.776 122.171 180.782C122.15 180.786 122.039 180.406 121.905 179.78C121.771 179.154 121.621 178.281 121.518 177.308C121.416 176.336 121.381 175.451 121.382 174.811C121.383 174.17 121.412 173.775 121.434 173.775Z" fill="#263238"/>
<path d="M124.038 177.439C124.085 177.444 124.042 178.164 123.942 179.047C123.842 179.93 123.723 180.641 123.675 180.636C123.628 180.63 123.671 179.911 123.771 179.028C123.871 178.145 123.991 177.434 124.038 177.439Z" fill="#263238"/>
<path d="M142.388 177.827C142.439 177.819 142.558 178.559 142.935 179.39C143.305 180.224 143.779 180.805 143.738 180.838C143.709 180.87 143.161 180.322 142.778 179.46C142.39 178.602 142.345 177.828 142.388 177.827Z" fill="#263238"/>
<path d="M144.792 175.871C144.816 175.871 144.834 176.149 144.848 176.597C144.866 177.045 144.867 177.664 144.937 178.339C145.009 179.013 145.136 179.619 145.212 180.061C145.292 180.502 145.332 180.777 145.308 180.782C145.285 180.787 145.203 180.522 145.094 180.086C144.987 179.65 144.839 179.045 144.765 178.357C144.695 177.668 144.713 177.045 144.726 176.597C144.743 176.148 144.769 175.871 144.792 175.871Z" fill="#263238"/>
<path d="M147.606 176.325C147.665 176.331 147.551 177.315 147.294 178.498C147.175 179.05 147.068 179.552 146.969 180.012C146.884 180.399 146.837 180.639 146.813 180.636C146.754 180.631 146.868 179.647 147.125 178.463C147.244 177.911 147.351 177.409 147.45 176.949C147.535 176.562 147.581 176.322 147.606 176.325Z" fill="#263238"/>
<path d="M26.1654 177.827C26.2176 177.819 26.3362 178.559 26.7132 179.39C27.0829 180.224 27.557 180.805 27.516 180.838C27.4873 180.87 26.9392 180.322 26.5563 179.46C26.1674 178.602 26.1228 177.828 26.1654 177.827Z" fill="#263238"/>
<path d="M28.5697 175.871C28.5938 175.871 28.6117 176.149 28.6262 176.597C28.6437 177.045 28.645 177.664 28.7144 178.339C28.7868 179.013 28.9143 179.619 28.9903 180.061C29.0696 180.502 29.1099 180.777 29.0861 180.782C29.0633 180.787 28.981 180.522 28.8714 180.086C28.7646 179.65 28.6173 179.045 28.5433 178.357C28.4726 177.668 28.4908 177.045 28.5043 176.597C28.5212 176.148 28.5463 175.871 28.5697 175.871Z" fill="#263238"/>
<path d="M31.3837 176.325C31.4425 176.331 31.3286 177.315 31.0715 178.498C30.9529 179.05 30.8456 179.552 30.7468 180.012C30.6622 180.399 30.6153 180.639 30.5908 180.636C30.532 180.631 30.646 179.647 30.9034 178.463C31.0217 177.911 31.1294 177.409 31.2281 176.949C31.3124 176.562 31.3593 176.322 31.3837 176.325Z" fill="#263238"/>
<path d="M81.7899 60.1675C80.6296 63.2733 79.1512 67.0651 79.9272 70.2882C80.1476 71.2033 80.5249 72.1393 80.3068 73.0548C80.0042 74.3247 78.6318 75.1821 78.4947 76.4801C78.3745 77.6173 79.2394 78.5862 79.7353 79.6167C80.4053 81.0086 80.4139 82.6198 80.3151 84.1613C80.2163 85.7029 80.0254 87.2669 80.3409 88.779C80.6564 90.2911 81.5999 91.7818 83.0701 92.2595L89.149 89.07L86.471 62.6536L81.7899 60.1675Z" fill="#0071BC"/>
<path d="M111.995 94.6055C111.279 92.8419 110.987 90.8679 109.852 89.3399C108.9 88.0591 107.388 87.136 106.913 85.6127C106.326 83.7255 107.577 81.705 107.284 79.7508C106.954 77.5426 104.829 76.1203 103.615 74.2458C101.029 70.2509 100.968 64.7002 99.4992 61.0991L89.2202 79.5552C90.5909 87.5956 91.0343 95.0551 93.0608 102.956C97.215 104.26 103.039 104.744 107.169 103.366C106.901 102.459 106.632 101.553 106.363 100.646C106.835 101.389 107.731 101.908 108.633 101.993C109.95 102.117 111.231 101.543 112.369 100.869C113.726 100.066 114.987 99.0999 116.116 97.9988C114.216 98.1223 112.71 96.369 111.995 94.6055Z" fill="#0071BC"/>
<path d="M98.6497 59.2112C97.054 56.5309 94.6353 54.7631 91.5566 54.2493C89.8195 53.9596 89.0447 54.213 87.7398 54.363C86.4351 54.513 85.2025 55.0155 84.2949 55.9643C83.2169 57.0912 82.2585 58.3903 81.8601 59.8974C81.4511 61.4456 81.0401 63.0043 80.9218 64.601C80.8032 66.1977 80.9935 67.8522 81.7315 69.2735L85.6475 70.5742C87.8567 70.9829 90.0973 71.3932 92.3366 71.2115C94.5762 71.0298 96.8528 70.1817 98.2962 68.4611C100.301 66.0705 100.246 61.8916 98.6497 59.2112Z" fill="#0071BC"/>
<path d="M95.0765 58.6479L90.036 55.7152L88.6111 55.6679C85.4586 55.2067 82.7634 58.3529 82.3597 60.8998C81.911 63.7291 81.4749 67.2014 81.6117 69.3567C81.8866 73.6912 85.4203 74.5783 85.4203 74.5783L85.2392 78.6925L84.0466 79.8412L82.3118 88.7924L88.7974 90.5001L95.7214 75.6894L93.7276 75.7756L96.2771 60.2978C96.3666 59.5201 95.845 58.8032 95.0765 58.6479Z" fill="#FFBF9D"/>
<path d="M88.0626 69.3193C88.0666 69.0936 87.9731 68.8796 87.8363 68.7216C87.5628 68.4058 87.1078 68.311 86.7368 68.492C86.3658 68.6734 86.1019 69.1197 86.0989 69.571C86.2485 69.8585 86.5109 70.0765 86.826 70.1522C86.8749 70.1641 86.9248 70.1733 86.975 70.1793C87.2182 70.2093 87.4769 70.1644 87.689 70.0137C87.9007 69.8631 88.0577 69.5978 88.0626 69.3193Z" fill="#FF9A6C"/>
<path d="M83.6476 64.6929C83.61 64.9813 83.8234 65.2505 84.124 65.2955C84.424 65.3401 84.6982 65.1432 84.7359 64.8551C84.7735 64.567 84.5601 64.2971 84.2601 64.2525C83.9592 64.2075 83.685 64.4048 83.6476 64.6929Z" fill="#0071BC"/>
<path d="M83.1079 62.459C83.169 62.537 83.6134 62.269 84.2031 62.3262C84.7928 62.3748 85.1972 62.719 85.2679 62.6529C85.3023 62.6239 85.2451 62.4887 85.0697 62.3338C84.8972 62.1798 84.593 62.0173 84.2256 61.9839C83.8579 61.9516 83.5361 62.0573 83.3455 62.1789C83.1512 62.3004 83.0775 62.424 83.1079 62.459Z" fill="#0071BC"/>
<path d="M86.179 67.6088C86.1849 67.5754 85.8242 67.4776 85.2374 67.3458C85.0884 67.3161 84.9487 67.2728 84.9328 67.1677C84.9077 67.0557 84.986 66.8995 85.0755 66.7313C85.2516 66.3804 85.436 66.0127 85.6292 65.6272C86.402 64.0543 86.9768 62.7546 86.9131 62.7242C86.8493 62.6938 86.1711 63.9439 85.3983 65.5172C85.2116 65.9054 85.0329 66.2754 84.8628 66.6295C84.7894 66.7954 84.6731 66.9801 84.7286 67.213C84.7587 67.3293 84.8614 67.4215 84.9556 67.4565C85.0494 67.4951 85.134 67.5047 85.208 67.5159C85.803 67.6045 86.1737 67.6418 86.179 67.6088Z" fill="#0071BC"/>
<path d="M85.4136 74.5728C85.4136 74.5728 88.2714 75.0293 91.2818 73.5869C91.2818 73.5869 89.6104 76.5038 85.3704 75.7007L85.4136 74.5728Z" fill="#FF9A6C"/>
<path d="M87.8749 68.1794C87.7797 68.1649 87.7179 68.8045 87.1269 69.2066C86.5368 69.6106 85.8612 69.4745 85.8477 69.5634C85.8348 69.6027 85.9878 69.7018 86.2752 69.7368C86.557 69.7732 86.9782 69.7213 87.3397 69.4752C87.7004 69.2284 87.8792 68.8703 87.9257 68.6099C87.9756 68.3453 87.9191 68.1801 87.8749 68.1794Z" fill="#0071BC"/>
<path d="M83.6143 60.4431C83.6998 60.5964 84.1607 60.5429 84.684 60.6364C85.2103 60.713 85.6315 60.9099 85.7597 60.7913C85.8175 60.7328 85.7729 60.5871 85.6038 60.4253C85.4373 60.264 85.1383 60.1012 84.7772 60.0424C84.4164 59.9842 84.0824 60.044 83.8746 60.1444C83.6645 60.2452 83.5779 60.3694 83.6143 60.4431Z" fill="#0071BC"/>
<path d="M90.1719 65.2106C90.1439 65.5 89.8756 65.7147 89.5726 65.6913C89.2703 65.6678 89.0473 65.4148 89.0751 65.1254C89.1032 64.8359 89.3714 64.6209 89.6737 64.6443C89.977 64.6678 90.2 64.9212 90.1719 65.2106Z" fill="#0071BC"/>
<path d="M91.0579 63.4212C90.9809 63.4833 90.6079 63.1229 90.0202 63.0469C89.4344 62.9623 88.9633 63.2074 88.9091 63.1271C88.8821 63.0911 88.9683 62.9722 89.1738 62.8602C89.3766 62.7485 89.7093 62.658 90.0747 62.7079C90.4404 62.7584 90.7305 62.9335 90.8891 63.0948C91.0513 63.257 91.0956 63.3934 91.0579 63.4212Z" fill="#0071BC"/>
<path d="M90.9878 61.4945C90.8547 61.6125 90.4196 61.4142 89.8758 61.3356C89.3343 61.2401 88.8576 61.292 88.77 61.1387C88.7324 61.065 88.8229 60.9408 89.0413 60.8414C89.2567 60.7419 89.6026 60.6831 89.9756 60.7426C90.3485 60.8027 90.6571 60.9663 90.8283 61.1278C91.0027 61.2907 91.0476 61.4364 90.9878 61.4945Z" fill="#0071BC"/>
<path d="M94.4792 67.3068C94.5099 66.989 94.9487 66.2737 95.2678 66.2545C96.1195 66.203 97.626 66.4131 97.4387 68.5444C97.1827 71.4576 94.3077 70.6003 94.3101 70.5161C94.312 70.4503 94.3728 68.4046 94.4792 67.3068Z" fill="#FFBF9D"/>
<path d="M95.2086 69.5217C95.2221 69.5134 95.2561 69.5617 95.3384 69.6086C95.419 69.6542 95.5604 69.6935 95.7177 69.6499C96.0355 69.564 96.3378 69.0981 96.3983 68.5742C96.429 68.3095 96.3956 68.0522 96.3203 67.8348C96.2499 67.6138 96.125 67.4529 95.9724 67.4119C95.8214 67.3627 95.7035 67.4459 95.6605 67.5246C95.6143 67.6029 95.6278 67.6627 95.612 67.6663C95.6034 67.6729 95.5538 67.6121 95.5878 67.4938C95.605 67.437 95.6453 67.3713 95.7187 67.3211C95.7937 67.2705 95.899 67.2504 96.0061 67.2715C96.2294 67.3068 96.4138 67.5312 96.497 67.7697C96.5925 68.0105 96.6361 68.3003 96.6018 68.5973C96.5314 69.1827 96.1825 69.7057 95.7501 69.7906C95.5403 69.826 95.3744 69.7493 95.2925 69.6727C95.2076 69.5927 95.198 69.526 95.2086 69.5217Z" fill="#FF9A6C"/>
<path d="M95.3848 66.28L94.5363 66.9308C91.822 63.4239 86.7676 54.9038 87.0454 55.408C87.0454 55.408 89.3511 54.8411 91.6479 55.5956C93.9447 56.3502 98.2382 58.1993 97.7522 60.9669C97.2666 63.7344 95.3848 66.28 95.3848 66.28Z" fill="#0071BC"/>
<path d="M104.678 97.6846C102.493 95.1093 100.209 92.3067 99.8937 88.9458C99.7133 87.0266 100.201 85.0606 99.7827 83.1791C99.3644 81.2993 98.0998 79.7438 97.1073 78.0933C96.1149 76.4427 95.0081 67.2352 95.728 65.4488L93.5759 64.7666C92.3473 67.7274 92.5812 79.9404 94.1898 82.7136C94.8885 83.9185 95.8449 85.0249 96.1271 86.3887C96.5549 88.4578 95.3213 90.5795 95.6467 92.6671C96.0917 95.5226 99.3314 97.667 98.9079 100.526C100.983 99.9413 102.949 98.973 104.678 97.6846Z" fill="#0071BC"/>
<path d="M74.3296 50.7685C74.4502 50.8048 83.5791 52.6754 83.5791 52.6754L97.6442 54.4911L107.088 54.6282L107.126 54.0597L89.1618 50.7354L74.3567 50.3647L74.3296 50.7685Z" fill="#0071BC"/>
<path d="M82.481 58.3365L83.5785 52.6758C83.5785 52.6758 89.4572 50.5356 98.2944 54.5011L99.6357 61.4486C99.6357 61.4486 94.8056 57.6222 87.3091 58.2188C87.3091 58.2188 84.2538 56.9585 82.481 58.3365Z" fill="#0071BC"/>
<path d="M99.2188 59.2887C99.2188 59.2887 95.8892 57.5013 92.7949 56.8462C89.7007 56.1911 87.4224 56.686 87.4224 56.686C84.8524 55.6886 82.8189 56.686 82.8189 56.686L82.481 58.3359C84.2538 56.9579 87.3094 58.2182 87.3094 58.2182C94.8059 57.6216 99.636 61.448 99.636 61.448L99.2188 59.2887Z" fill="#EB2027"/>
<path d="M87.3093 58.2187C87.2862 58.217 87.2882 57.8516 87.3166 57.2619C87.345 56.6725 87.4031 55.8592 87.4824 54.9625C87.564 54.0953 87.638 53.3113 87.6985 52.6687C87.758 52.082 87.8029 51.7195 87.8273 51.7212C87.8505 51.7228 87.8485 52.0882 87.8201 52.678C87.7917 53.2674 87.7335 54.0811 87.6542 54.9777C87.5726 55.8446 87.4989 56.6286 87.4385 57.2712C87.3787 57.8576 87.3334 58.2203 87.3093 58.2187Z" fill="#0071BC"/>
<path d="M107.087 54.6286L89.049 51.3324L74.3291 50.7685L74.3562 50.3647L89.2429 50.6984L107.126 54.06L107.087 54.6286Z" fill="#0071BC"/>
<path d="M89.0612 51.3898C89.0136 51.3865 88.9859 51.2292 88.9988 51.0382C89.0116 50.8473 89.0605 50.6953 89.1081 50.6983C89.1554 50.7016 89.1834 50.8588 89.1706 51.0498C89.1573 51.2408 89.1084 51.3931 89.0612 51.3898Z" fill="#0071BC"/>
<path d="M75.923 54.4813L75.4192 54.4668C74.8447 54.6809 74.6887 55.1576 74.5982 55.5772C74.2526 57.1841 74.0237 58.8007 73.9124 60.4192C74.4357 60.4539 74.959 60.4889 75.4823 60.5236C75.6075 60.5318 75.5897 56.5009 75.8543 60.5037C75.8632 60.6409 76.7542 60.6111 76.7182 60.4591C76.2759 58.5899 76.2934 56.896 76.2712 55.2954C76.2673 55.0056 76.2415 54.6848 75.923 54.4813Z" fill="#EB2027"/>
<path d="M75.9276 53.7809C75.9563 53.289 76.0151 52.7993 76.107 52.3153C76.1819 51.9199 76.2606 51.5089 76.4552 51.1521C76.6385 50.8161 76.921 50.525 77.3052 50.4382C77.7829 50.3305 78.2739 50.5449 78.6862 50.7662C78.9204 50.8921 79.1292 50.5356 78.8947 50.4097C78.413 50.1507 77.8725 49.9353 77.3158 50.0179C76.846 50.0876 76.4644 50.385 76.2031 50.7712C75.9371 51.1643 75.8238 51.6295 75.7313 52.0884C75.6193 52.6461 75.5476 53.213 75.5146 53.7806C75.4991 54.0465 75.912 54.0455 75.9276 53.7809Z" fill="#EB2027"/>
<path d="M76.3491 54.093C76.3227 54.4838 75.9718 54.7785 75.5658 54.7511C75.1598 54.7237 74.8519 54.3844 74.8783 53.9936C74.9047 53.6027 75.2556 53.308 75.6616 53.3358C76.0676 53.3629 76.3756 53.7022 76.3491 54.093Z" fill="#EB2027"/>
<path d="M76.3488 54.0929C76.3346 54.0923 76.3339 54.0275 76.3039 53.9218C76.2748 53.8177 76.2034 53.6691 76.0521 53.5534C75.9054 53.4375 75.6686 53.3688 75.4323 53.4371C75.1984 53.4989 74.9804 53.7203 74.9635 53.9994C74.9427 54.2783 75.1291 54.5271 75.3524 54.6199C75.5774 54.7193 75.8215 54.683 75.9824 54.5878C76.1479 54.4937 76.2385 54.3559 76.2814 54.2568C76.325 54.1557 76.3346 54.0916 76.3488 54.0929C76.3581 54.0929 76.3726 54.1597 76.3448 54.278C76.3181 54.3939 76.2332 54.565 76.0468 54.6909C75.8658 54.8171 75.5734 54.8796 75.2913 54.7656C75.0121 54.6615 74.765 54.3487 74.7921 53.9872C74.8139 53.6258 75.101 53.3489 75.3914 53.2835C75.6861 53.2089 75.9676 53.3096 76.1301 53.4593C76.2976 53.6089 76.359 53.79 76.37 53.9086C76.3812 54.0298 76.3581 54.0939 76.3488 54.0929Z" fill="#0071BC"/>
<path d="M74.5227 59.2839C74.5009 59.2846 74.4755 59.0176 74.495 58.5878C74.5138 58.1583 74.5776 57.5673 74.6902 56.9221C74.8059 56.2772 74.9466 55.699 75.088 55.2907C75.161 55.0872 75.2264 54.9243 75.2942 54.8199C75.354 54.7122 75.42 54.6715 75.4224 54.6785C75.4342 54.691 75.3923 54.7389 75.3536 54.8503C75.308 54.957 75.2608 55.1228 75.2043 55.3264C75.095 55.736 74.9744 56.3122 74.8597 56.9518C74.7477 57.5921 74.6658 58.1745 74.6162 58.5974C74.566 59.0203 74.5485 59.2836 74.5227 59.2839Z" fill="#0071BC"/>
<path d="M75.3258 58.201C75.2802 58.2023 75.2233 57.4131 75.295 56.4421C75.3644 55.4704 75.5339 54.6977 75.5788 54.7056C75.6277 54.7136 75.5352 55.4919 75.4665 56.4543C75.3955 57.4164 75.375 58.2003 75.3258 58.201Z" fill="#0071BC"/>
<path d="M75.8681 55.7015C75.8205 55.7022 75.7782 55.4891 75.7736 55.2255C75.769 54.9615 75.8037 54.7471 75.8512 54.7461C75.8988 54.7454 75.9411 54.9585 75.9454 55.2225C75.9504 55.4861 75.9153 55.7005 75.8681 55.7015Z" fill="#0071BC"/>
<path d="M78.0534 50.4634L79.2299 50.4849V50.877L77.9583 50.771L78.0534 50.4634Z" fill="#0071BC"/>
<path d="M76.2799 112.49C76.1339 112.71 72.7717 124.185 73.2834 127.912C73.7952 131.64 76.2799 142.676 76.2799 142.676C76.2799 142.676 77.8149 148.962 77.5225 151.447C77.2301 153.932 77.3494 162.251 78.1803 167.234C79.14 172.989 80.1648 183.303 80.1648 183.303L87.5781 182.731L87.2434 146.842L89.0707 132.736L90.0939 118.922L76.2799 112.49Z" fill="#0071BC"/>
<path d="M97.5478 178.398L96.8087 186.5L98.1577 193.069C98.2548 193.542 97.9122 193.995 97.4113 194.056C97.1309 194.09 96.8527 193.994 96.6614 193.795C95.4453 192.527 90.9954 187.845 91.0843 187.254C91.1874 186.571 91.27 178.659 91.27 178.659L97.5478 178.398Z" fill="#0071BC"/>
<path d="M97.4077 194.053L91.1174 186.704L91.0943 187.048C91.0744 187.345 91.164 187.64 91.3503 187.879C91.8488 188.517 93.2658 190.252 96.632 193.791C96.8283 193.996 97.1203 194.096 97.4077 194.053Z" fill="#0071BC"/>
<g opacity="0.6">
<path d="M93.0393 184.192C93.2428 184.346 93.2914 184.658 93.1394 184.858C92.9871 185.059 92.6558 185.109 92.4496 184.959C92.2435 184.809 92.1728 184.436 92.3475 184.253C92.5223 184.07 92.9148 184.031 93.0773 184.225" fill="white"/>
</g>
<path d="M95.7111 190.389C95.7577 190.414 95.9777 190.001 96.498 189.803C97.0121 189.591 97.4736 189.734 97.4875 189.684C97.4961 189.665 97.393 189.595 97.1961 189.556C97.0012 189.516 96.7118 189.525 96.4263 189.638C96.1412 189.752 95.9301 189.941 95.8221 190.101C95.7117 190.262 95.6906 190.381 95.7111 190.389Z" fill="white"/>
<path d="M96.2383 191.514C96.2763 191.552 96.5667 191.305 97.014 191.212C97.4594 191.109 97.833 191.21 97.8502 191.161C97.8776 191.121 97.4802 190.923 96.9721 191.038C96.4626 191.147 96.1957 191.49 96.2383 191.514Z" fill="white"/>
<path d="M94.6737 188.932C94.711 188.973 95.1554 188.59 95.8376 188.387C96.5169 188.174 97.1109 188.238 97.1162 188.184C97.133 188.141 96.5096 187.99 95.7808 188.217C95.0497 188.437 94.6344 188.906 94.6737 188.932Z" fill="white"/>
<path d="M94.685 186.445C94.7045 186.495 95.1862 186.336 95.798 186.353C96.4102 186.361 96.8843 186.539 96.9061 186.49C96.9322 186.451 96.4598 186.185 95.802 186.174C95.1442 186.158 94.6605 186.405 94.685 186.445Z" fill="white"/>
<path d="M94.8353 184.066C94.8585 184.114 95.3484 183.873 95.9913 183.94C96.6359 183.994 97.0667 184.323 97.0991 184.28C97.1143 184.263 97.0284 184.156 96.8397 184.036C96.6527 183.915 96.356 183.796 96.0095 183.763C95.6629 183.73 95.3474 183.792 95.1396 183.875C94.9301 183.958 94.8238 184.047 94.8353 184.066Z" fill="white"/>
<path d="M96.0105 183.485C96.0214 183.486 96.0478 183.378 96.0429 183.179C96.0373 182.982 95.9969 182.688 95.8417 182.359C95.7601 182.203 95.6775 182.003 95.4475 181.882C95.3332 181.821 95.1561 181.83 95.0484 181.932C94.9414 182.03 94.9011 182.162 94.8895 182.29C94.8638 182.806 95.2929 183.332 95.8942 183.443C96.4988 183.544 97.0727 183.246 97.3436 182.816C97.404 182.704 97.4499 182.565 97.3934 182.424C97.3379 182.282 97.1691 182.216 97.0462 182.229C96.7915 182.249 96.623 182.378 96.4681 182.472C96.1605 182.679 95.9632 182.904 95.8463 183.067C95.7287 183.231 95.6874 183.335 95.697 183.34C95.7254 183.363 95.9385 182.954 96.5414 182.577C96.6927 182.491 96.8681 182.382 97.0508 182.377C97.14 182.374 97.2137 182.412 97.2408 182.482C97.2689 182.549 97.2444 182.65 97.1922 182.738C96.964 183.089 96.439 183.361 95.9292 183.268C95.4214 183.179 95.0448 182.715 95.0613 182.3C95.0669 182.201 95.1013 182.102 95.1611 182.046C95.2199 181.991 95.3048 181.98 95.3808 182.015C95.5417 182.089 95.6411 182.266 95.7221 182.414C96.0402 183.032 95.9725 183.491 96.0105 183.485Z" fill="white"/>
<path d="M101.742 113.123C101.888 113.342 105.25 124.817 104.739 128.544C104.227 132.272 101.742 143.309 101.742 143.309C101.742 143.309 100.207 149.594 100.499 152.079C100.792 154.565 100.281 162.834 99.8416 167.867C99.348 173.525 98.1048 183.367 98.1048 183.367L90.4031 182.864L90.7787 147.475L88.9514 133.368L87.9282 119.554L101.742 113.123Z" fill="#0071BC"/>
<path d="M80.5047 178.66L80.8896 185.372C80.8896 185.372 73.8804 188 73.8252 189.247L87.4694 189.001L87.3187 178.52L80.5047 178.66Z" fill="#0071BC"/>
<path d="M85.0887 184.73C85.354 184.794 85.542 185.075 85.4858 185.331C85.4296 185.587 85.133 185.772 84.8663 185.712C84.5997 185.652 84.3632 185.322 84.4491 185.074C84.535 184.825 84.8957 184.626 85.1396 184.745" fill="#E0E0E0"/>
<path d="M87.4697 189L87.4113 187.944L74.3515 188.575C74.3515 188.575 73.7489 188.838 73.8259 189.246L87.4697 189Z" fill="#0071BC"/>
<path d="M80.664 185.303C80.6673 185.367 81.0013 185.39 81.333 185.589C81.6703 185.779 81.8448 186.052 81.9056 186.026C81.9667 186.012 81.86 185.633 81.4536 185.399C81.0499 185.162 80.6485 185.245 80.664 185.303Z" fill="white"/>
<path d="M79.2373 185.895C79.2234 185.957 79.5138 186.06 79.7454 186.325C79.9853 186.584 80.048 186.874 80.1144 186.87C80.1772 186.879 80.2159 186.506 79.9215 186.181C79.6301 185.854 79.2376 185.835 79.2373 185.895Z" fill="white"/>
<path d="M78.4694 187.55C78.5302 187.563 78.6168 187.243 78.4387 186.898C78.2633 186.551 77.9464 186.419 77.9193 186.472C77.8827 186.526 78.0885 186.709 78.2302 186.995C78.3786 187.277 78.403 187.545 78.4694 187.55Z" fill="white"/>
<path d="M80.7498 183.768C80.7789 183.825 81.0828 183.732 81.4598 183.749C81.8374 183.76 82.1328 183.875 82.1665 183.82C82.2041 183.773 81.9134 183.543 81.4691 183.528C81.0247 183.51 80.7161 183.718 80.7498 183.768Z" fill="white"/>
<path d="M74.0772 113.813C73.9114 114.401 68.036 155.935 69.0618 158.398C70.0876 160.86 74.5662 161.403 74.5662 161.403C74.5662 161.403 74.9111 170.791 82.7083 169.56C90.5058 168.328 99.2178 160.039 99.2178 160.039C99.2178 160.039 99.8409 163.528 101.277 162.912C102.714 162.296 107.256 156.523 107.822 156.523C108.388 156.523 103.339 103.948 103.905 103.302C104.47 102.655 100.308 77.9767 100.308 77.9767L93.8994 77.0239L87.2384 84.3374L84.2303 77.9771L78.6827 80.2299L75.411 81.4397L74.0772 113.813Z" fill="#0071BC"/>
<path opacity="0.3" d="M83.2827 103.74C83.4882 104.247 92.7794 121.839 94.6073 122.144C96.4353 122.448 103.984 116.887 104.267 115.217L104.127 110.187L88.9969 99.7837" fill="black"/>
<path d="M100.892 77.9761C100.892 77.9761 104.382 78.6983 104.973 81.6508C105.563 84.6034 109.09 96.7635 108.368 100.584C107.646 104.404 102.594 116.162 99.3138 118.221C96.0332 120.281 95.9655 119.953 95.9655 119.953C95.9655 119.953 85.4701 105.913 85.142 103.879C84.814 101.845 84.814 101.845 84.814 101.845L97.8575 96.8217L98.6237 82.8838L100.892 77.9761Z" fill="#0071BC"/>
<path d="M84.5408 77.9762L85.3373 76.4888L87.6281 79.2484L93.0456 75.1567L93.3829 76.6576L93.8993 77.0234L87.6281 84.8202L86.2366 84.3369L84.5408 77.9762Z" fill="white"/>
<path d="M76.3311 80.7947L85.0751 104.194L101.498 77.9762L93.5588 76.6577L87.3672 83.105L84.4408 77.4899L76.3311 80.7947Z" fill="#EB2027"/>
<path opacity="0.3" d="M73.7351 116.051C73.7351 116.051 74.9188 118.556 76.7501 117.194C80.5187 114.391 81.9027 105.985 81.9027 105.985L85.0749 104.194H87.2382L88.0688 101.341L90.7719 100.132C90.7719 100.132 93.4589 100.787 94.6072 99.7833C95.7556 98.7803 97.7392 95.6899 97.7392 95.6899L90.8562 95.8155L74.7226 109.761L73.7351 116.051Z" fill="black"/>
<path d="M67.8125 98.3858C67.8036 98.2134 69.6531 90.1036 69.6531 90.1036C69.6531 90.1036 72.1262 85.0998 73.2188 83.2596C74.3117 81.4191 75.8076 81.356 75.8076 81.356L78.6825 87.4005L77.5322 97.1205L82.7085 96.8905C82.7085 96.8905 80.5806 109.371 78.6825 112.534C76.7845 115.698 75.2605 116.043 75.2605 116.043C75.2605 116.043 71.2491 108.575 69.5952 104.655C68.0425 100.974 67.985 101.722 67.8125 98.3858Z" fill="#0071BC"/>
<path d="M71.2336 97.2944C71.2247 97.2746 71.456 97.1434 71.8518 96.9766C72.2472 96.8114 72.8125 96.6148 73.4627 96.5028C74.1135 96.3912 74.7178 96.4021 75.1446 96.4645C75.5725 96.526 75.8245 96.6175 75.8196 96.6363C75.812 96.6905 74.768 96.4371 73.4918 96.6723C72.2211 96.8976 71.2558 97.3522 71.2336 97.2944Z" fill="#0071BC"/>
<path d="M72.7542 94.6126C72.7621 94.5713 73.596 94.7738 74.4659 95.3523C75.34 95.9252 75.8541 96.612 75.8191 96.6355C75.7801 96.6715 75.2214 96.052 74.371 95.4957C73.5256 94.9331 72.7367 94.6628 72.7542 94.6126Z" fill="#0071BC"/>
<path d="M99.298 105.575C99.294 105.586 99.148 105.543 98.8867 105.456C98.6254 105.371 98.2517 105.234 97.7941 105.053C96.8787 104.693 95.6345 104.14 94.312 103.427C92.9898 102.713 91.8441 101.976 91.0406 101.409C90.6385 101.126 90.3187 100.889 90.1036 100.717C89.8876 100.547 89.7716 100.448 89.7789 100.439C89.7858 100.429 89.9153 100.51 90.143 100.663C90.3997 100.835 90.7234 101.051 91.109 101.308C91.9276 101.848 93.0777 102.564 94.3939 103.275C95.7105 103.985 96.9404 104.553 97.841 104.94C98.2679 105.121 98.6263 105.273 98.9108 105.394C99.1639 105.5 99.302 105.564 99.298 105.575Z" fill="#0071BC"/>
<path d="M101.987 101.628C101.987 101.64 101.821 101.642 101.522 101.636C101.223 101.631 100.79 101.611 100.257 101.576C99.1892 101.508 97.7164 101.362 96.1032 101.106C94.4896 100.849 93.0443 100.532 92.0079 100.266C91.4895 100.134 91.0722 100.018 90.7865 99.9303C90.5 99.8435 90.3434 99.7903 90.3467 99.7787C90.35 99.7671 90.5126 99.7989 90.8036 99.8656C91.1268 99.9396 91.5407 100.034 92.0363 100.148C93.0776 100.382 94.522 100.68 96.1303 100.936C97.7382 101.191 99.2038 101.355 100.267 101.455C100.773 101.501 101.196 101.539 101.526 101.568C101.823 101.595 101.988 101.616 101.987 101.628Z" fill="#0071BC"/>
<path d="M102.729 95.3637C102.733 95.4132 101.861 95.5285 100.8 95.7433C99.7377 95.9547 98.8886 96.1853 98.8737 96.1374C98.8595 96.0948 99.6934 95.7882 100.766 95.5745C101.838 95.3581 102.726 95.3188 102.729 95.3637Z" fill="#0071BC"/>
<path d="M82.8017 166.914C82.8017 166.914 82.7961 166.859 82.7944 166.752C82.7934 166.638 82.7918 166.48 82.7901 166.277C82.7901 165.853 82.7901 165.239 82.7898 164.453C82.7918 162.868 82.8103 160.575 82.8466 157.742C82.9186 152.076 83.0881 144.249 83.4129 135.609C83.7403 126.966 84.1615 119.148 84.5167 113.492C84.6938 110.665 84.8484 108.377 84.966 106.797C85.0254 106.013 85.0717 105.401 85.1037 104.978C85.1209 104.775 85.1341 104.618 85.1441 104.505C85.154 104.398 85.1635 104.344 85.1635 104.344C85.1635 104.344 85.1659 104.399 85.1616 104.506C85.1559 104.62 85.1483 104.777 85.1384 104.98C85.114 105.404 85.0783 106.017 85.033 106.802C84.9396 108.391 84.8048 110.677 84.6386 113.5C84.3145 119.157 83.9124 126.974 83.5853 135.616C83.2603 144.255 83.0719 152.08 82.9685 157.745C82.9216 160.572 82.8836 162.862 82.8569 164.454C82.843 165.24 82.8321 165.854 82.8248 166.278C82.8195 166.481 82.8152 166.639 82.8123 166.753C82.8083 166.859 82.8017 166.914 82.8017 166.914Z" fill="#0071BC"/>
<path d="M77.9501 121.838C77.9973 121.842 77.2761 130.808 76.3395 141.861C75.4026 152.919 74.6047 161.876 74.5571 161.872C74.5099 161.868 75.2308 152.904 76.168 141.847C77.1047 130.793 77.9028 121.834 77.9501 121.838Z" fill="#0071BC"/>
<path opacity="0.3" d="M99.2183 160.038C99.2183 160.038 104.162 156.498 103.964 158.417C103.766 160.336 101.879 162.497 101.879 162.497C101.879 162.497 100.649 163.753 99.9335 162.167C99.361 160.898 99.2183 160.038 99.2183 160.038Z" fill="black"/>
<path d="M103.878 137.611C103.926 137.611 103.964 142.126 103.964 147.694C103.964 153.264 103.926 157.778 103.878 157.778C103.831 157.778 103.792 153.264 103.792 147.694C103.792 142.126 103.831 137.611 103.878 137.611Z" fill="#0071BC"/>
<path d="M91.1099 153.067C91.0623 153.067 90.9563 147.524 90.8727 140.687C90.7891 133.848 90.7601 128.305 90.8073 128.304C90.8549 128.304 90.9609 133.846 91.0445 140.685C91.1284 147.522 91.1575 153.066 91.1099 153.067Z" fill="#0071BC"/>
<g opacity="0.3">
<path d="M74.714 160.69L77.5337 126.748C74.2878 138.443 74.3925 149.106 74.714 160.69Z" fill="black"/>
</g>
<path d="M80.3881 107.773C80.5708 106.882 81.2438 103.6 82.2025 98.9252C82.3486 98.2092 82.4906 97.5135 82.6264 96.8484L82.713 96.9485C81.735 97.0001 80.8219 97.0483 79.9996 97.0919L79.9963 97.0922H79.9936C78.7273 97.049 77.681 96.9366 76.9538 96.8362C76.5901 96.786 76.306 96.7387 76.113 96.7037C75.9201 96.6677 75.8184 96.6443 75.8193 96.637C75.8207 96.6294 75.9247 96.638 76.1193 96.6601C76.3357 96.6839 76.6169 96.715 76.9638 96.7529C77.6919 96.8286 78.7366 96.9195 79.9976 96.9475H79.9917C80.814 96.8973 81.7265 96.8418 82.704 96.782L82.8124 96.7754L82.7909 96.8821C82.6568 97.5475 82.5161 98.2436 82.3717 98.9602C81.8728 101.404 81.4033 103.613 81.0422 105.208C80.8615 106.006 80.7089 106.65 80.5929 107.092C80.5361 107.314 80.4882 107.485 80.4512 107.6C80.4155 107.715 80.3941 107.774 80.3881 107.773Z" fill="#0071BC"/>
<path d="M76.2257 89.0027C76.3265 89.0364 78.1416 90.9522 78.3768 91.6579C78.612 92.3636 79.9953 97.0196 79.9953 97.0196C79.9953 97.0196 76.9651 96.9346 76.2257 96.5987C75.4864 96.2627 75.0159 95.8593 75.0159 95.8593L73.3353 94.4476C73.3353 94.4476 72.2596 94.0442 72.2596 93.2377L72.4277 93.0114L74.1417 93.5067C74.1417 93.5067 72.4948 92.8344 72.2596 92.2294C72.0243 91.6245 72.2596 91.5234 72.2596 91.5234L75.6205 92.5991L74.2762 91.5571C74.2762 91.5571 72.5956 91.0193 72.663 90.3807L72.7974 90.1454L74.814 90.4814L76.4273 91.2882C76.4273 91.2882 75.6542 89.8765 75.6542 89.3053C75.6545 88.7337 76.2257 89.0027 76.2257 89.0027Z" fill="#FFBF9D"/>
<path d="M76.7357 95.4409C76.7122 95.4534 76.6121 95.2958 76.409 95.0788C76.2058 94.8617 75.8979 94.5865 75.5229 94.3272C74.7739 93.8032 74.0702 93.5399 74.0887 93.4907C74.0983 93.4494 74.8469 93.6456 75.621 94.1861C76.0069 94.4527 76.3148 94.754 76.5018 95.0005C76.6898 95.2476 76.7545 95.4323 76.7357 95.4409Z" fill="#FF9A6C"/>
<path d="M77.4995 94.3257C77.4625 94.358 77.0492 93.9365 76.517 93.4439C75.9861 92.9493 75.5354 92.5684 75.5648 92.5287C75.5916 92.4917 76.0951 92.8158 76.6339 93.3177C77.1741 93.8179 77.5345 94.2963 77.4995 94.3257Z" fill="#FF9A6C"/>
<path d="M78.4633 93.9945C78.426 94.0219 77.9225 93.3863 77.4187 92.5247C77.1557 92.1011 76.9938 91.6647 76.7734 91.4585C76.5484 91.2418 76.3291 91.2653 76.3311 91.2405C76.3149 91.2197 76.5673 91.1417 76.8527 91.3664C76.9918 91.4741 77.1104 91.6452 77.2175 91.8332C77.3304 92.0288 77.4461 92.228 77.567 92.4374C78.0662 93.2918 78.5033 93.9664 78.4633 93.9945Z" fill="#FF9A6C"/>
<path d="M95.098 77.0232C95.1023 77.0271 95.0581 77.083 94.9702 77.1854C94.8684 77.3004 94.7389 77.4471 94.5787 77.6281C94.2182 78.0236 93.722 78.568 93.1154 79.2337C91.8544 80.5929 90.1374 82.443 88.2404 84.487C87.8721 84.8805 87.5106 85.2667 87.1654 85.6357L87.0858 85.721L87.0293 85.6195C85.8528 83.5088 84.8148 81.6461 84.0582 80.2883C83.6991 79.6295 83.4074 79.094 83.1943 78.7028C83.1028 78.528 83.0281 78.3856 82.9683 78.272C82.9184 78.1729 82.8946 78.12 82.8992 78.1174C82.9039 78.1147 82.9369 78.1626 82.9957 78.2568C83.0621 78.3665 83.145 78.5043 83.2475 78.6731C83.4715 79.058 83.7784 79.5849 84.156 80.2331C84.9254 81.5837 85.9813 83.4364 87.1773 85.536L87.0412 85.5198C87.3861 85.1504 87.7469 84.7635 88.1146 84.3697C90.0258 82.3389 91.7556 80.501 93.0262 79.1508C93.6493 78.5006 94.1591 77.9687 94.5295 77.5822C94.6993 77.41 94.8367 77.271 94.9444 77.1616C95.0409 77.0671 95.0937 77.0192 95.098 77.0232Z" fill="#0071BC"/>
<path d="M87.2248 95.9614C87.1101 95.9902 82.6976 96.9202 82.6976 96.9202L80.9836 105.374L84.1054 103.174C84.1054 103.174 86.9119 102.83 86.9978 102.83C87.084 102.83 87.2248 95.9614 87.2248 95.9614Z" fill="white"/>
<path d="M103.243 74.1555L94.6074 93.0619L97.7899 94.769L106.253 75.3848C106.253 75.3848 105.555 73.1674 103.243 74.1555Z" fill="#E0E0E0"/>
<path d="M103.951 74.023C103.995 74.0419 102.42 77.7721 100.433 82.3541C98.4466 86.9374 96.8013 90.6363 96.7577 90.6175C96.7141 90.5986 98.2887 86.869 100.276 82.2857C102.262 77.7037 103.907 74.0042 103.951 74.023Z" fill="#0071BC"/>
<path d="M93.8303 90.9134L91.1651 94.4669L87.2284 96.1042L87.1045 100.79L91.0505 98.7942C91.0505 98.7942 92.1682 99.0522 92.7701 98.7083C93.372 98.3643 95.3206 96.5588 95.3206 96.5588L96.6675 96.7594C96.6675 96.7594 96.3236 97.0746 96.4383 97.5044C96.5529 97.9342 97.0402 97.877 97.0402 97.877C97.0402 97.877 97.9573 97.4185 97.9857 97.132C98.0141 96.8456 97.9857 96.6735 97.9857 96.6735C97.9857 96.6735 98.3584 96.6735 98.5015 96.2437C98.6448 95.8138 98.702 95.5271 98.702 95.5271C98.702 95.5271 99.2465 95.1544 99.2752 94.6387C99.3039 94.123 99.3039 94.123 99.3039 94.123C99.3039 94.123 99.7625 94.0942 99.8484 93.7503C99.9343 93.4064 99.963 92.3462 99.8484 92.1169C99.7338 91.8877 98.5874 90.4548 98.1004 90.4548C97.6131 90.4548 94.2498 90.3541 93.8303 90.9134Z" fill="#FFBF9D"/>
<path d="M98.0396 96.8203C98.0108 96.8213 98.0125 96.6042 97.953 96.2778C97.9196 96.1179 97.8608 95.926 97.7184 95.7799C97.5823 95.6313 97.3471 95.5513 97.1086 95.4426C96.1541 95.0204 95.3962 94.6431 95.4154 94.5998C95.4346 94.5562 96.2238 94.8631 97.178 95.2854C97.4086 95.3927 97.6636 95.4776 97.8347 95.6726C98.0036 95.8622 98.0528 96.0865 98.0729 96.259C98.1043 96.6112 98.0577 96.8203 98.0396 96.8203Z" fill="#FF9A6C"/>
<path d="M98.4892 95.7765C98.4645 95.7855 98.3855 95.5248 98.3815 95.1072C98.3706 94.9024 98.3696 94.6519 98.2672 94.421C98.1691 94.1858 97.9256 94.0282 97.6369 93.9152C96.4657 93.4471 95.4795 93.1543 95.4931 93.1061C95.499 93.084 95.7537 93.1286 96.1565 93.2369C96.5595 93.3456 97.1086 93.5191 97.7019 93.756C97.9973 93.8683 98.3026 94.0658 98.4123 94.3572C98.5243 94.6384 98.5058 94.9 98.5028 95.1062C98.4767 95.5225 98.5104 95.7693 98.4892 95.7765Z" fill="#FF9A6C"/>
<path d="M95.3824 91.7711C95.3884 91.7479 95.6774 91.7998 96.14 91.9022C96.6025 92.0046 97.2388 92.1576 97.9389 92.337C98.2765 92.4265 98.6604 92.4946 98.8946 92.7718C99.1167 93.0443 99.1454 93.3559 99.1659 93.5904C99.1781 94.0685 99.2336 94.344 99.2187 94.353C99.2085 94.3566 99.1708 94.2908 99.1352 94.16C99.0978 94.0298 99.0744 93.8349 99.045 93.603C99.0123 93.3764 98.964 93.0909 98.7754 92.8762C98.5881 92.6598 98.2458 92.5934 97.8962 92.5038C97.1962 92.3244 96.5648 92.153 96.1099 92.0202C95.655 91.8877 95.3765 91.7942 95.3824 91.7711Z" fill="#FF9A6C"/>
<path d="M98.1807 85.2387C98.1807 85.2387 100.131 84.833 101.293 86.7436L102.043 85.0266C102.043 85.0266 101.261 83.1055 98.8738 83.7213L98.1807 85.2387Z" fill="#FF725E"/>
<path d="M101.945 84.7517C101.846 84.8016 101.46 84.3149 101.126 83.377C100.965 82.9029 100.813 82.3442 100.76 81.6567C100.74 81.3125 100.754 80.9233 100.897 80.5216C101.041 80.1436 101.307 79.6652 101.921 79.5166C102.075 79.4855 102.246 79.4931 102.403 79.5426C102.559 79.5932 102.692 79.6804 102.794 79.7792C102.999 79.9735 103.111 80.2331 103.153 80.4578C103.198 80.6854 103.192 80.8876 103.183 81.0634C103.172 81.2368 103.156 81.404 103.137 81.5679C103.059 82.222 102.911 82.7975 102.746 83.2633C102.413 84.1976 102.035 84.6886 101.935 84.6407C101.82 84.5888 101.993 84.0202 102.158 83.1064C102.24 82.6495 102.318 82.105 102.347 81.4998C102.358 81.2041 102.381 80.848 102.329 80.6339C102.303 80.5232 102.259 80.4515 102.205 80.4003C102.148 80.3537 102.134 80.3557 102.087 80.3603C102.038 80.3666 101.946 80.4214 101.872 80.5034C101.8 80.5794 101.738 80.6947 101.687 80.8172C101.588 81.062 101.555 81.3482 101.552 81.6329C101.555 82.2088 101.638 82.7717 101.714 83.2214C101.878 84.1326 102.059 84.6985 101.945 84.7517Z" fill="#FF725E"/>
<path d="M101.794 84.76C101.768 84.7124 101.855 84.5882 102.075 84.4471C102.292 84.3051 102.647 84.1491 103.117 84.0827C103.584 84.0147 104.17 84.0457 104.774 84.2697C105.074 84.383 105.377 84.5453 105.658 84.765C105.797 84.872 105.937 84.9913 106.074 85.1697C106.141 85.2585 106.204 85.3626 106.25 85.4822C106.298 85.6087 106.325 85.7435 106.322 85.8843C106.32 86.0247 106.288 86.1743 106.213 86.3164C106.137 86.4605 106.013 86.581 105.881 86.6564C105.606 86.8054 105.363 86.7958 105.171 86.7812C104.969 86.7604 104.823 86.7221 104.664 86.6858C104.508 86.6474 104.357 86.6025 104.212 86.5539C103.631 86.3587 103.15 86.0832 102.782 85.8142C102.045 85.2638 101.761 84.761 101.842 84.6883C101.932 84.5985 102.359 84.9288 103.099 85.2952C103.47 85.4746 103.921 85.6636 104.44 85.7947C104.569 85.8274 104.703 85.8578 104.84 85.8833C104.974 85.9071 105.127 85.9355 105.237 85.9411C105.352 85.9504 105.442 85.9269 105.452 85.9157C105.454 85.9127 105.456 85.9114 105.456 85.9114C105.487 85.9368 105.443 85.9038 105.455 85.912C105.455 85.9094 105.462 85.8948 105.462 85.8701C105.48 85.7901 105.351 85.5932 105.127 85.4201C104.923 85.2473 104.698 85.1095 104.471 85.0025C104.012 84.7911 103.545 84.7042 103.151 84.6903C102.355 84.6596 101.856 84.8779 101.794 84.76Z" fill="#FF725E"/>
</svg>
