<svg width="20" height="20" viewBox="0 0 20 20" fill="none" xmlns="http://www.w3.org/2000/svg">
<path fill-rule="evenodd" clip-rule="evenodd" d="M8.0236 0.615578C9.2151 -0.205193 10.7849 -0.205193 11.9764 0.615578L18.4764 5.09317C19.4299 5.75 20 6.83822 20 8.00141V16.4762C20 18.4223 18.433 20 16.5 20H3.5C1.567 20 0 18.4223 0 16.4762V8.00141C0 6.83822 0.57012 5.75 1.52361 5.09317L8.0236 0.615578ZM7.5 15.4694C7.22386 15.4694 7 15.6948 7 15.9728C7 16.2508 7.22386 16.4762 7.5 16.4762H12.5C12.7761 16.4762 13 16.2508 13 15.9728C13 15.6948 12.7761 15.4694 12.5 15.4694H7.5Z" fill="#CCCCCC"/>
</svg>
