<svg width="32" height="32" viewBox="0 0 32 32" fill="none" xmlns="http://www.w3.org/2000/svg">
<path d="M26.3865 19.9077C23.6399 22.6411 19.7065 23.4811 16.2532 22.4011L9.9732 28.6677C9.51987 29.1344 8.62654 29.4144 7.98654 29.3211L5.07987 28.9211C4.11987 28.7877 3.22654 27.8811 3.07987 26.9211L2.67987 24.0144C2.58654 23.3744 2.8932 22.4811 3.3332 22.0277L9.59987 15.7611C8.5332 12.2944 9.35987 8.36107 12.1065 5.62773C16.0399 1.6944 22.4265 1.6944 26.3732 5.62773C30.3199 9.56107 30.3199 15.9744 26.3865 19.9077Z" stroke="#6F6F6F" stroke-width="1.5" stroke-miterlimit="10" stroke-linecap="round" stroke-linejoin="round"/>
<path d="M9.18652 23.3213L12.2532 26.388" stroke="#6F6F6F" stroke-width="1.5" stroke-miterlimit="10" stroke-linecap="round" stroke-linejoin="round"/>
<path d="M19.333 14.668C20.4376 14.668 21.333 13.7725 21.333 12.668C21.333 11.5634 20.4376 10.668 19.333 10.668C18.2284 10.668 17.333 11.5634 17.333 12.668C17.333 13.7725 18.2284 14.668 19.333 14.668Z" stroke="#6F6F6F" stroke-width="1.5" stroke-linecap="round" stroke-linejoin="round"/>
</svg>
