<svg width="19" height="22" viewBox="0 0 19 22" fill="none" xmlns="http://www.w3.org/2000/svg">
<path d="M0 17.1945L4.00806 21.9993L5.58389 20.7155L1.57331 15.9102L0 17.1945Z" fill="#D9D9D9"/>
<path d="M18.1671 12.4074C18.1176 12.323 17.97 12.127 17.6765 12.127C17.536 12.127 17.4011 12.178 17.2971 12.2715L13.2264 15.906C12.8938 16.2565 12.4456 16.4316 12.0133 16.4316H9.56086C9.2749 16.4316 9.0435 16.2002 9.0435 15.9142C9.0435 15.6283 9.2749 15.3969 9.56086 15.3969H12.0133C12.2169 15.3969 12.3434 15.307 12.4867 15.1791C12.5884 15.0655 12.6549 14.9192 12.6549 14.7552C12.6549 14.4015 12.367 14.1136 12.0133 14.1136H5.62657L2.93652 15.9295L6.04658 19.6558L6.71738 19.074C6.81135 18.9926 6.9316 18.9477 7.05639 18.9477H13.6563C14.396 18.9477 15.0786 18.546 15.4373 17.8998L18.1742 12.9722C18.3166 12.7156 18.2166 12.4917 18.1671 12.4074Z" fill="#D9D9D9"/>
<path d="M5.79883 3.3992V9.47305C5.79883 9.75759 6.03165 9.99041 6.31619 9.99041H7.92519L10.4217 12.1517C10.7568 12.4418 11.2777 12.2038 11.2777 11.7606V9.99041H16.2392C16.5238 9.99041 16.7566 9.75759 16.7566 9.47305V3.3992C16.7566 3.11466 16.5238 2.88184 16.2392 2.88184H6.31619C6.03165 2.88184 5.79883 3.11466 5.79883 3.3992ZM13.6576 5.60835C14.0663 5.60835 14.3974 5.94462 14.3974 6.35333C14.3974 6.76207 14.0663 7.09319 13.6576 7.09319C13.2489 7.09319 12.9126 6.76207 12.9126 6.35333C12.9126 5.94462 13.2489 5.60835 13.6576 5.60835ZM11.2777 5.60835C11.6864 5.60835 12.0227 5.94462 12.0227 6.35333C12.0227 6.76207 11.6864 7.09319 11.2777 7.09319C10.869 7.09319 10.5379 6.76207 10.5379 6.35333C10.5379 5.94462 10.869 5.60835 11.2777 5.60835ZM8.90301 5.60835C9.31172 5.60835 9.64284 5.94462 9.64284 6.35333C9.64284 6.76207 9.31172 7.09319 8.90301 7.09319C8.4891 7.09319 8.15801 6.76207 8.15801 6.35333C8.15801 5.94462 8.4891 5.60835 8.90301 5.60835Z" fill="#D9D9D9"/>
<path d="M1.25662 8.2416H4.76436V6.45151H3.29504C3.00531 6.45151 2.77767 6.22387 2.77767 5.93415C2.77767 5.64961 3.00531 5.41679 3.29504 5.41679H4.76436V4.04579H3.29504C3.00531 4.04579 2.77767 3.81815 2.77767 3.52843C2.77767 3.24388 3.00531 3.01106 3.29504 3.01106H4.81609C4.98683 2.34364 5.59731 1.84699 6.31646 1.84699H12.5041V0.517364C12.5041 0.23282 12.2713 0 11.9867 0H1.25662C0.972078 0 0.739258 0.23282 0.739258 0.517364V7.72424C0.739258 8.00879 0.972078 8.2416 1.25662 8.2416Z" fill="#D9D9D9"/>
</svg>
