<svg width="18" height="18" viewBox="0 0 18 18" fill="none" xmlns="http://www.w3.org/2000/svg">
<path fill-rule="evenodd" clip-rule="evenodd" d="M0 2.07692C0 0.929871 0.929871 0 2.07692 0H15.9231C17.0702 0 18 0.92988 18 2.07692V9C18 9.38234 17.69 9.69231 17.3077 9.69231C16.9254 9.69231 16.6154 9.38234 16.6154 9V2.07692C16.6154 1.69457 16.3054 1.38462 15.9231 1.38462H2.07692C1.69458 1.38462 1.38462 1.69458 1.38462 2.07692V15.9231C1.38462 16.3054 1.69457 16.6154 2.07692 16.6154H9C9.38234 16.6154 9.69231 16.9254 9.69231 17.3077C9.69231 17.69 9.38234 18 9 18H2.07692C0.92988 18 0 17.0702 0 15.9231V2.07692Z" fill="#66696F"/>
<path fill-rule="evenodd" clip-rule="evenodd" d="M12.692 10.6154C11.545 10.6154 10.6151 11.5453 10.6151 12.6923C10.6151 13.8393 11.545 14.7692 12.692 14.7692C13.839 14.7692 14.7689 13.8393 14.7689 12.6923C14.7689 11.5453 13.839 10.6154 12.692 10.6154ZM9.23047 12.6923C9.23047 10.7805 10.7802 9.23077 12.692 9.23077C14.6038 9.23077 16.1535 10.7805 16.1535 12.6923C16.1535 14.6041 14.6038 16.1539 12.692 16.1539C10.7802 16.1539 9.23047 14.6041 9.23047 12.6923Z" fill="#66696F"/>
<path fill-rule="evenodd" clip-rule="evenodd" d="M14.4584 14.106C14.6972 13.8074 15.1329 13.759 15.4314 13.9978L17.7391 15.844C18.0377 16.0829 18.0861 16.5186 17.8473 16.8171C17.6084 17.1157 17.1728 17.1641 16.8742 16.9252L14.5665 15.079C14.268 14.8402 14.2195 14.4045 14.4584 14.106Z" fill="#66696F"/>
<path fill-rule="evenodd" clip-rule="evenodd" d="M3.69336 5.30769C3.69336 4.92535 4.00332 4.61539 4.38567 4.61539H13.6164C13.9988 4.61539 14.3087 4.92535 14.3087 5.30769C14.3087 5.69004 13.9988 6 13.6164 6H4.38567C4.00332 6 3.69336 5.69004 3.69336 5.30769Z" fill="#66696F"/>
<path fill-rule="evenodd" clip-rule="evenodd" d="M3.69336 9C3.69336 8.61766 4.00332 8.30769 4.38567 8.30769H8.07797C8.46031 8.30769 8.77028 8.61766 8.77028 9C8.77028 9.38234 8.46031 9.69231 8.07797 9.69231H4.38567C4.00332 9.69231 3.69336 9.38234 3.69336 9Z" fill="#66696F"/>
</svg>
