<svg width="64" height="75" viewBox="0 0 64 75" fill="none" xmlns="http://www.w3.org/2000/svg">
<circle cx="31" cy="31" r="31" fill="#EDF6FD"/>
<path d="M57.648 55.7805L59.3003 60.2736L52.9314 66.645L49.8672 63.5645L57.648 55.7805Z" fill="#71B5E7"/>
<path d="M59.7955 48.1017C60.171 48.9732 59.7654 49.98 58.9092 50.3557L57.257 51.062L56.0703 47.8612L57.5424 47.2151C57.7526 47.1249 57.993 47.0798 58.2183 47.0798C58.9092 47.0798 59.5251 47.4705 59.7955 48.1017Z" fill="#71B5E7"/>
<path d="M56.7005 39.4912C56.8808 39.9119 56.8958 40.3778 56.7306 40.7985C56.5653 41.2193 56.2499 41.5499 55.8293 41.7302L54.1169 42.4816L52.9453 39.2808L54.4774 38.6046C54.6877 38.5144 54.9281 38.4694 55.1534 38.4694C55.8143 38.4694 56.4301 38.8751 56.7005 39.4912Z" fill="#71B5E7"/>
<path d="M35.2366 19.8809C35.2366 20.1063 35.1915 20.3468 35.0864 20.5722L34.6057 21.6541L31.4062 20.467L31.9921 19.1747C32.3826 18.3181 33.389 17.9274 34.2452 18.3181C34.846 18.5886 35.2366 19.1897 35.2366 19.8809Z" fill="#71B5E7"/>
<path d="M26.6735 16.6953C26.6735 16.9207 26.6284 17.1611 26.5232 17.3865L26.0276 18.4835L22.8281 17.3114L23.4139 16.004C23.5942 15.5983 23.9397 15.2677 24.3603 15.1024C24.7808 14.9371 25.2465 14.9521 25.6671 15.1475C26.2679 15.418 26.6735 16.019 26.6735 16.6953Z" fill="#71B5E7"/>
<path d="M18.7427 17.1761L11.0971 24.8098L8.36328 22.0599L14.7321 15.6884L18.7427 17.1761Z" fill="#71B5E7"/>
<path d="M46.1693 28.8221C46.4096 29.0625 46.5448 29.3781 46.5448 29.7237C46.5448 30.0693 46.4096 30.3849 46.1693 30.6253L37.5022 39.2959C37.2619 39.5363 36.9465 39.6715 36.601 39.6715C36.2555 39.6715 35.9401 39.5363 35.6997 39.2959C35.4594 39.0554 35.3242 38.7399 35.3242 38.3943C35.3242 38.0486 35.4594 37.7331 35.6997 37.4926L44.3668 28.8221C44.6071 28.5816 44.9225 28.4464 45.268 28.4464C45.6135 28.4464 45.9139 28.5816 46.1693 28.8221Z" fill="#71B5E7"/>
<path d="M56.3532 52.2942L57.1493 54.4581L48.9479 62.6628L33.9572 47.6659L37.7574 43.8641C38.0128 43.6086 38.0128 43.2179 37.7574 42.9624C37.5021 42.707 37.1115 42.707 36.8562 42.9624L32.7104 47.1099C32.6654 47.1399 32.6203 47.17 32.5903 47.2001C32.5602 47.2301 32.5152 47.2752 32.5001 47.3203L29.7513 50.0552C29.6161 50.1754 29.556 50.3407 29.556 50.506V58.7708L25.936 62.3924L19.7324 56.1862L23.5477 52.3693C23.8031 52.1139 23.8031 51.7232 23.5477 51.4677C23.2924 51.2123 22.9018 51.2123 22.6465 51.4677L18.8312 55.2696L12.6276 49.0784L16.2476 45.4569H24.509C24.6743 45.4569 24.8395 45.3818 24.9597 45.2616L27.7235 42.4966C27.7535 42.4816 27.7836 42.4515 27.7986 42.4215L27.8737 42.3463L32.0645 38.1538C32.3199 37.8983 32.3199 37.5076 32.0645 37.2522C31.8092 36.9967 31.4186 36.9967 31.1633 37.2522L27.348 41.054L12.0117 25.7114L20.0629 17.657L21.6851 18.2581C21.6851 18.2581 21.7002 18.2581 21.7002 18.2731C21.7452 18.2881 21.7903 18.3031 21.8203 18.3182L26.0412 19.881C26.0562 19.896 26.0712 19.896 26.0862 19.896C26.1163 19.911 26.1613 19.926 26.1914 19.926L30.247 21.4287L34.6481 23.0517C34.6782 23.0667 34.6932 23.0817 34.7232 23.0817L41.3023 25.5011C41.5126 25.5762 41.7379 25.5461 41.9032 25.4259L46.6047 22.0298C49.1733 23.5926 51.3813 25.7265 53.0036 28.236L49.5338 33.0296C49.4136 33.2099 49.3835 33.4203 49.4586 33.6307L51.5015 39.1756L53.0636 43.4283C53.0787 43.4734 53.0787 43.5335 53.1087 43.5785C53.1237 43.6086 53.1387 43.6387 53.1538 43.6687L54.6258 47.6509C54.6408 47.6809 54.6408 47.711 54.6559 47.741C54.6559 47.7561 54.6709 47.7561 54.6709 47.7711L56.218 51.9786C56.218 52.0387 56.2481 52.0989 56.2631 52.159C56.3232 52.2191 56.3382 52.2491 56.3532 52.2942ZM47.8214 29.7237C47.8214 29.0324 47.551 28.3862 47.0703 27.9054C46.5897 27.4245 45.9438 27.154 45.2528 27.154C44.5619 27.154 43.916 27.4245 43.4353 27.9054L34.7683 36.576C34.2876 37.0568 34.0172 37.703 34.0172 38.3942C34.0172 39.0855 34.2876 39.7316 34.7683 40.2125C35.2489 40.6934 35.8948 40.9639 36.5858 40.9639C37.2768 40.9639 37.9227 40.7084 38.4033 40.2125L47.0703 31.5419C47.551 31.046 47.8214 30.4149 47.8214 29.7237Z" fill="#71B5E7"/>
<path d="M63.9986 13.0737L53.8295 27.154C52.2223 24.7948 50.1494 22.7661 47.7461 21.2334L61.9258 11L63.9986 13.0737Z" fill="#71B5E7"/>
<path d="M42.6271 63.7297C42.8824 63.9852 42.8824 64.3759 42.6271 64.6314L37.2646 69.996C37.1295 70.1312 36.9642 70.1763 36.814 70.1763C36.6488 70.1763 36.4836 70.1162 36.3634 69.981C36.108 69.7255 36.108 69.3348 36.3634 69.0794L41.7258 63.7147C41.9662 63.4743 42.3717 63.4743 42.6271 63.7297Z" fill="#71B5E7"/>
<path d="M38.0601 59.1766C38.3154 59.432 38.3154 59.8227 38.0601 60.0782L32.6976 65.4428C32.5624 65.5781 32.3972 65.6382 32.232 65.6382C32.0668 65.6382 31.9015 65.5781 31.7814 65.4428C31.526 65.1874 31.526 64.7967 31.7814 64.5412L37.1438 59.1766C37.4142 58.9211 37.8047 58.9211 38.0601 59.1766Z" fill="#71B5E7"/>
<path d="M26.3135 63.8049L18.8031 71.3184C18.6679 71.4536 18.5027 71.5137 18.3375 71.5137C18.1722 71.5137 18.007 71.4536 17.8868 71.3184C17.6315 71.0629 17.6315 70.6722 17.8868 70.4167L25.0217 63.2789L25.4723 63.7297C25.5925 63.865 25.7577 63.9251 25.923 63.9251C26.0732 63.9251 26.1933 63.88 26.3135 63.8049Z" fill="#71B5E7"/>
<path d="M18.8332 57.0878L15.0179 60.9046C14.8828 61.0249 14.7175 61.085 14.5523 61.085C14.3871 61.085 14.2218 61.0249 14.1017 60.8896C13.8463 60.6342 13.8463 60.2435 14.1017 59.988L17.917 56.1862L18.8332 57.0878Z" fill="#71B5E7"/>
<path d="M15.1538 36.2604C15.4092 36.5158 15.4092 36.9065 15.1538 37.162L9.79138 42.5266C9.65619 42.6619 9.49096 42.722 9.32573 42.722C9.16051 42.722 8.99528 42.6619 8.87511 42.5266C8.61976 42.2712 8.61976 41.8805 8.87511 41.625L14.2375 36.2604C14.4929 36.0049 14.8985 36.0049 15.1538 36.2604Z" fill="#71B5E7"/>
<path d="M11.6975 63.309C11.9528 63.5645 11.9528 63.9552 11.6975 64.2106L1.10779 74.8047C0.972599 74.9399 0.80737 75 0.642141 75C0.476911 75 0.311682 74.9399 0.191516 74.8047C-0.0638385 74.5492 -0.0638385 74.1585 0.191516 73.903L10.7812 63.309C11.0516 63.0536 11.4421 63.0536 11.6975 63.309Z" fill="#71B5E7"/>
<path d="M11.7271 49.98L4.59216 57.1178C4.45697 57.2531 4.29174 57.3132 4.12652 57.3132C3.96129 57.3132 3.79606 57.2531 3.67589 57.1178C3.42054 56.8624 3.42054 56.4717 3.67589 56.2162L11.2764 48.6126C11.0211 48.868 11.0211 49.2587 11.2764 49.5142L11.7271 49.98Z" fill="#71B5E7"/>
<path d="M10.5991 31.7072C10.8545 31.9627 10.8545 32.3534 10.5991 32.6088L5.23669 37.9735C5.1015 38.1087 4.93628 38.1688 4.77105 38.1688C4.60582 38.1688 4.44059 38.1087 4.32042 37.9735C4.06507 37.718 4.06507 37.3273 4.32042 37.0719L9.68286 31.7072C9.93821 31.4518 10.3438 31.4518 10.5991 31.7072Z" fill="#71B5E7"/>
</svg>
