<svg width="16" height="22" viewBox="0 0 16 22" fill="none" xmlns="http://www.w3.org/2000/svg">
<path fill-rule="evenodd" clip-rule="evenodd" d="M10.0564 22L8.70789 16.9887C9.17027 16.8712 9.59886 16.6393 9.95352 16.3085C10.1117 16.1609 10.2865 16.1143 10.4975 16.1633C11.9578 16.5025 13.4354 15.6574 13.8771 14.2311L15.5718 20.5285L12.3968 19.7134L10.0564 22V22ZM6.83317 0.459126C6.39394 0.868828 5.82717 1.02008 5.24102 0.883907C4.36561 0.680592 3.48091 1.18915 3.22006 2.04573C3.04542 2.61919 2.63045 3.03238 2.05452 3.20627C1.1943 3.466 0.683505 4.34691 0.887696 5.21856C1.02441 5.80216 0.872552 6.36654 0.461087 6.80388C-0.153695 7.45732 -0.153695 8.47404 0.461087 9.12752C0.872552 9.56486 1.02441 10.1292 0.887696 10.7128C0.683505 11.5845 1.1943 12.4654 2.05452 12.7251C2.63045 12.8991 3.04542 13.3122 3.22006 13.8857C3.48091 14.7423 4.36561 15.2508 5.24102 15.0475C5.82713 14.9114 6.39394 15.0626 6.83317 15.4723C7.48942 16.0844 8.51051 16.0845 9.16682 15.4723C9.60604 15.0626 10.1729 14.9114 10.759 15.0475C11.6344 15.2508 12.5191 14.7422 12.7799 13.8857C12.9546 13.3122 13.3695 12.8991 13.9455 12.7251C14.8057 12.4654 15.3165 11.5845 15.1123 10.7128C14.9756 10.1292 15.1274 9.56486 15.5389 9.12752C16.1537 8.47408 16.1537 7.45737 15.5389 6.80388C15.1274 6.36654 14.9756 5.80216 15.1123 5.21856C15.3165 4.34691 14.8057 3.466 13.9455 3.20627C13.3695 3.03238 12.9546 2.61919 12.7799 2.04573C12.5191 1.18915 11.6344 0.680592 10.759 0.883907C10.1729 1.02003 9.60604 0.868828 9.16682 0.459126C8.51051 -0.153065 7.48947 -0.153019 6.83317 0.459126ZM7.99999 3.67202L9.26951 6.67908L12.534 6.95206L10.0541 9.08352L10.8022 12.2593L7.99999 10.5695L5.1978 12.2593L5.94584 9.08352L3.46595 6.95206L6.73047 6.67908L7.99999 3.67202ZM5.94354 22L3.60321 19.7133L0.428221 20.5285L2.12288 14.231C2.56458 15.6574 4.04225 16.5025 5.50247 16.1633C5.71352 16.1143 5.8883 16.1609 6.04646 16.3084C6.40113 16.6392 6.82971 16.8712 7.29209 16.9887L5.94354 21.9999V22Z" fill="#CCCCCC"/>
</svg>
