<svg width="20" height="20" viewBox="0 0 20 20" fill="none" xmlns="http://www.w3.org/2000/svg">
<path d="M10 0C8.02219 0 6.08879 0.586489 4.4443 1.6853C2.79981 2.78412 1.51809 4.3459 0.761209 6.17316C0.00433286 8.00042 -0.1937 10.0111 0.192152 11.9509C0.578004 13.8907 1.53041 15.6725 2.92894 17.0711C4.32746 18.4696 6.10929 19.422 8.0491 19.8078C9.98891 20.1937 11.9996 19.9957 13.8268 19.2388C15.6541 18.4819 17.2159 17.2002 18.3147 15.5557C19.4135 13.9112 20 11.9778 20 10C20 8.68678 19.7413 7.38642 19.2388 6.17316C18.7362 4.95991 17.9997 3.85752 17.0711 2.92893C16.1425 2.00035 15.0401 1.26375 13.8268 0.761205C12.6136 0.258658 11.3132 0 10 0ZM12 7.06889H12.4791C12.6559 7.06889 12.8255 7.13912 12.9505 7.26415C13.0755 7.38917 13.1458 7.55874 13.1458 7.73555C13.1458 7.91236 13.0755 8.08193 12.9505 8.20696C12.8255 8.33198 12.6559 8.40222 12.4791 8.40222H12.1618C12.0862 9.18409 11.7224 9.90986 11.1411 10.4383C10.5599 10.9667 9.80285 11.2599 9.01733 11.2609H8.80534L11.3422 13.9356C11.4049 13.9986 11.4543 14.0735 11.4876 14.1559C11.5208 14.2383 11.5373 14.3265 11.536 14.4153C11.5347 14.5042 11.5156 14.5919 11.4799 14.6733C11.4443 14.7546 11.3927 14.8281 11.3282 14.8892C11.2637 14.9504 11.1877 14.998 11.1045 15.0294C11.0214 15.0607 10.9328 15.0751 10.844 15.0717C10.7552 15.0683 10.668 15.0472 10.5875 15.0097C10.5069 14.9721 10.4347 14.9188 10.3751 14.8529L6.77067 11.0529C6.68101 10.9583 6.62104 10.8395 6.59816 10.7112C6.57529 10.5829 6.59051 10.4508 6.64196 10.331C6.69341 10.2113 6.77883 10.1093 6.88764 10.0376C6.99646 9.96585 7.12391 9.9276 7.25422 9.92755H9.01733C9.44863 9.92656 9.86563 9.7728 10.1943 9.49357C10.523 9.21434 10.7422 8.82768 10.8129 8.40222H7.284C7.10719 8.40222 6.93762 8.33198 6.8126 8.20696C6.68757 8.08193 6.61734 7.91236 6.61734 7.73555C6.61734 7.55874 6.68757 7.38917 6.8126 7.26415C6.93762 7.13912 7.10719 7.06889 7.284 7.06889H10.5231C10.3558 6.82448 10.1314 6.62454 9.86945 6.48639C9.60746 6.34823 9.31574 6.27601 9.01956 6.276H7.25645C7.07964 6.276 6.91007 6.20576 6.78504 6.08074C6.66002 5.95571 6.58978 5.78614 6.58978 5.60933C6.58978 5.43252 6.66002 5.26295 6.78504 5.13793C6.91007 5.0129 7.07964 4.94267 7.25645 4.94267H9.01956C9.04445 4.94267 9.068 4.94578 9.09245 4.94622H12.4813C12.6581 4.94622 12.8277 5.01646 12.9527 5.14148C13.0778 5.26651 13.148 5.43608 13.148 5.61289C13.148 5.7897 13.0778 5.95927 12.9527 6.08429C12.8277 6.20932 12.6581 6.27955 12.4813 6.27955H11.596C11.768 6.52219 11.9047 6.78793 12.0022 7.06889H12Z" fill="#CCCCCC"/>
</svg>
