<svg width="553" height="492" viewBox="0 0 553 492" fill="none" xmlns="http://www.w3.org/2000/svg">
<path d="M547.197 230.849C540.964 200.34 530.009 170.568 516.995 143.196C494.544 95.9761 457.773 56.7589 410.723 33.4764C295.281 -23.6499 211.971 0.152689 166.747 46.5678C121.522 92.9829 134.613 172.722 85.8176 207.235C37.0222 241.749 2.50843 257.221 0.128172 320.298C-2.25209 383.375 28.6913 430.98 78.6768 446.452C128.662 461.923 203.641 511.909 353.597 483.346C503.554 454.783 540.448 375.044 549.969 317.915C554.76 289.171 553.087 259.68 547.197 230.849Z" fill="#F5F6FF"/>
<path opacity="0.7" d="M547.197 230.849C540.964 200.34 530.009 170.568 516.995 143.196C494.544 95.9761 457.773 56.7589 410.723 33.4764C295.281 -23.6499 211.971 0.152689 166.747 46.5678C121.522 92.9829 134.613 172.722 85.8176 207.235C37.0222 241.749 2.50843 257.221 0.128172 320.298C-2.25209 383.375 28.6913 430.98 78.6768 446.452C128.662 461.923 203.641 511.909 353.597 483.346C503.554 454.783 540.448 375.044 549.969 317.915C554.76 289.171 553.087 259.68 547.197 230.849Z" fill="#F5F6FF"/>
<path d="M165.71 118.721V48.4014" stroke="#263238" stroke-miterlimit="10" stroke-linecap="round" stroke-linejoin="round"/>
<path d="M165.71 470.687V125.728" stroke="#263238" stroke-miterlimit="10" stroke-linecap="round" stroke-linejoin="round"/>
<path d="M195.694 56.709H184.915V104.496H195.694V56.709Z" fill="#C9C9C9" stroke="#263238" stroke-miterlimit="10" stroke-linecap="round" stroke-linejoin="round"/>
<path d="M195.694 63.895H184.915V68.5663H195.694V63.895Z" fill="white" stroke="#263238" stroke-miterlimit="10" stroke-linecap="round" stroke-linejoin="round"/>
<path d="M195.694 93.5381H184.915V98.2093H195.694V93.5381Z" fill="white" stroke="#263238" stroke-miterlimit="10" stroke-linecap="round" stroke-linejoin="round"/>
<path d="M208.27 56.709H193.179V104.496H208.27V56.709Z" fill="#878787" stroke="#263238" stroke-miterlimit="10" stroke-linecap="round" stroke-linejoin="round"/>
<path d="M207.191 56.709H196.412V104.496H207.191V56.709Z" fill="#C9C9C9" stroke="#263238" stroke-miterlimit="10" stroke-linecap="round" stroke-linejoin="round"/>
<path d="M207.191 63.895H196.412V68.5663H207.191V63.895Z" fill="white" stroke="#263238" stroke-miterlimit="10" stroke-linecap="round" stroke-linejoin="round"/>
<path d="M207.191 93.5381H196.412V98.2093H207.191V93.5381Z" fill="white" stroke="#263238" stroke-miterlimit="10" stroke-linecap="round" stroke-linejoin="round"/>
<path d="M219.767 56.709H204.676V104.496H219.767V56.709Z" fill="#878787" stroke="#263238" stroke-miterlimit="10" stroke-linecap="round" stroke-linejoin="round"/>
<path d="M218.689 56.709H207.91V104.496H218.689V56.709Z" fill="#C9C9C9" stroke="#263238" stroke-miterlimit="10" stroke-linecap="round" stroke-linejoin="round"/>
<path d="M218.689 63.895H207.91V68.5663H218.689V63.895Z" fill="white" stroke="#263238" stroke-miterlimit="10" stroke-linecap="round" stroke-linejoin="round"/>
<path d="M218.689 93.5381H207.91V98.2093H218.689V93.5381Z" fill="white" stroke="#263238" stroke-miterlimit="10" stroke-linecap="round" stroke-linejoin="round"/>
<path d="M231.265 56.709H216.174V104.496H231.265V56.709Z" fill="#C9C9C9" stroke="#263238" stroke-miterlimit="10" stroke-linecap="round" stroke-linejoin="round"/>
<path d="M241.097 104.978H266.421L273.16 98.8901H241.097V104.978Z" fill="white" stroke="#263238" stroke-miterlimit="10" stroke-linecap="round" stroke-linejoin="round"/>
<path d="M270.288 105.291L269.485 103.902L240.567 103.839L241.406 105.291H270.288Z" fill="white" stroke="#263238" stroke-miterlimit="10" stroke-linecap="round" stroke-linejoin="round"/>
<path d="M226.441 57.6973L217.11 63.0933L241.032 104.463L250.364 99.0668L226.441 57.6973Z" fill="#C9C9C9" stroke="#263238" stroke-miterlimit="10" stroke-linecap="round" stroke-linejoin="round"/>
<path d="M230.038 63.9165L220.707 69.3125L223.045 73.3564L232.377 67.9604L230.038 63.9165Z" fill="white" stroke="#263238" stroke-miterlimit="10" stroke-linecap="round" stroke-linejoin="round"/>
<path d="M244.879 89.5796L235.547 94.9756L237.886 99.0195L247.217 93.6235L244.879 89.5796Z" fill="white" stroke="#263238" stroke-miterlimit="10" stroke-linecap="round" stroke-linejoin="round"/>
<path d="M272.987 99.3046L250.104 99.2415L226.181 57.8726L249.064 57.9356L272.987 99.3046Z" fill="#C9C9C9" stroke="#263238" stroke-miterlimit="10" stroke-linecap="round" stroke-linejoin="round"/>
<path d="M285.465 80.7846C285.465 80.7846 281.299 79.2969 280.109 72.7512C278.919 66.2055 276.836 56.9819 279.216 54.8992C281.597 52.8165 286.06 51.6264 286.655 55.7918C287.25 59.9573 286.357 67.9907 287.25 69.7758C288.142 71.561 291.118 70.3709 291.118 66.8005C291.118 60.9201 288.702 54.904 289.588 48.9033C290.804 40.6712 299.109 39.7715 300.002 48.8581C300.497 53.9019 300.64 59.054 300.64 64.1227C300.64 66.2055 304.21 67.3956 303.913 62.3375C303.7 58.7243 306.293 54.6017 309.864 55.7918C313.434 56.9819 310.459 72.7512 309.268 75.429C308.078 78.1068 300.639 78.7018 300.639 78.7018V85.5451L291.713 85.8426L291.415 78.9994C291.415 78.9994 288.44 80.7846 285.465 80.7846Z" fill="#4F9ED9" stroke="#263238" stroke-miterlimit="10" stroke-linecap="round" stroke-linejoin="round"/>
<path d="M293.5 67.7446C293.61 69.2275 293.681 70.1677 293.681 70.1677" stroke="#263238" stroke-miterlimit="10" stroke-linecap="round" stroke-linejoin="round"/>
<path d="M294.134 44.6626C294.134 44.6626 292.172 46.0205 292.322 50.0955C292.414 52.5663 292.893 59.4178 293.256 64.4307" stroke="#263238" stroke-miterlimit="10" stroke-linecap="round" stroke-linejoin="round"/>
<path d="M297.454 58.6978L297.755 68.658" stroke="#263238" stroke-miterlimit="10" stroke-linecap="round" stroke-linejoin="round"/>
<path d="M301.803 75.1206C300.65 75.2991 299.718 75.2991 299.718 75.2991" stroke="#263238" stroke-miterlimit="10" stroke-linecap="round" stroke-linejoin="round"/>
<path d="M308.017 58.396C308.017 58.396 306.961 60.2074 306.961 62.6221C306.961 65.0369 307.112 71.6779 305.603 73.488C305.273 73.8844 304.805 74.1938 304.277 74.4354" stroke="#263238" stroke-miterlimit="10" stroke-linecap="round" stroke-linejoin="round"/>
<path d="M282.15 71.7837C282.776 73.9271 283.563 75.6802 284.626 76.5073C287.343 78.6198 289.908 76.6585 289.908 76.6585" stroke="#263238" stroke-miterlimit="10" stroke-linecap="round" stroke-linejoin="round"/>
<path d="M281.909 55.6797C281.909 55.6797 278.891 55.6797 279.946 60.9615C280.391 63.187 280.809 65.9208 281.348 68.4986" stroke="#263238" stroke-miterlimit="10" stroke-linecap="round" stroke-linejoin="round"/>
<path d="M293.228 75.7515L293.831 82.2412" stroke="#263238" stroke-miterlimit="10" stroke-linecap="round" stroke-linejoin="round"/>
<path d="M308.672 82.8667L307.589 91.7451L306.851 97.7909L305.994 104.825H284.584L283.727 97.7909L282.989 91.7451L281.906 82.8667H308.672Z" fill="white" stroke="#263238" stroke-miterlimit="10" stroke-linecap="round" stroke-linejoin="round"/>
<path d="M307.589 91.7461L306.851 97.792H283.727L282.989 91.7461H307.589Z" fill="#4F9ED9" stroke="#263238" stroke-miterlimit="10" stroke-linecap="round" stroke-linejoin="round"/>
<path d="M320.427 104.828H183.003V113.929H320.427V104.828Z" fill="white" stroke="#263238" stroke-miterlimit="10" stroke-linecap="round" stroke-linejoin="round"/>
<path d="M320.427 104.828H288.746V113.929H320.427V104.828Z" fill="white" stroke="#263238" stroke-miterlimit="10" stroke-linecap="round" stroke-linejoin="round"/>
<path d="M285.667 113.963C300.387 119.396 297.731 129.65 297.731 129.65H311.675V113.963H285.667Z" fill="#919191" stroke="#263238" stroke-miterlimit="10" stroke-linecap="round" stroke-linejoin="round"/>
<path d="M290.362 113.963C305.082 119.396 302.427 129.65 302.427 129.65H316.37V113.963H290.362Z" fill="white" stroke="#263238" stroke-miterlimit="10" stroke-linecap="round" stroke-linejoin="round"/>
<path d="M191.349 113.963C206.068 119.396 203.413 129.65 203.413 129.65H217.358V113.963H191.349Z" fill="#919191" stroke="#263238" stroke-miterlimit="10" stroke-linecap="round" stroke-linejoin="round"/>
<path d="M196.044 113.963C210.763 119.396 208.108 129.65 208.108 129.65H222.052V113.963H196.044Z" fill="white" stroke="#263238" stroke-miterlimit="10" stroke-linecap="round" stroke-linejoin="round"/>
<path d="M511.932 58.4126H388.682V229.511H511.932V58.4126Z" fill="#919191" stroke="#263238" stroke-miterlimit="10" stroke-linecap="round" stroke-linejoin="round"/>
<path d="M506.581 65.8394H394.031V222.083H506.581V65.8394Z" fill="#7BB6E3"/>
<path opacity="0.5" d="M506.581 65.8394H394.031V222.083H506.581V65.8394Z" fill="white"/>
<path d="M418.779 210.207C415.271 215.469 411.346 219.298 407.517 222.085H506.582V65.8394H488.336C487.549 66.081 486.746 66.3297 485.928 66.5868C468.027 72.2137 449.624 88.5113 439.163 118.113" stroke="#263238" stroke-miterlimit="10" stroke-linecap="round" stroke-linejoin="round"/>
<path d="M437.452 123.307C433.681 135.624 431.228 150.048 430.618 166.743C429.972 184.414 426.212 197.112 421.188 206.235" stroke="#263238" stroke-miterlimit="10" stroke-linecap="round" stroke-linejoin="round"/>
<path d="M495.573 105.489C479.212 115.064 460.16 131.004 453.039 155.531C449.224 168.672 452.802 180.431 459.887 190.535" stroke="#263238" stroke-miterlimit="10" stroke-linecap="round" stroke-linejoin="round"/>
<path d="M463.714 195.46C473.54 206.967 487.519 216 498.841 222.083H506.582V99.7148C504.372 100.75 502.013 101.925 499.56 103.248" stroke="#263238" stroke-miterlimit="10" stroke-linecap="round" stroke-linejoin="round"/>
<path d="M412.745 106.569C421.357 89.01 422.298 75.0724 421.278 65.8394H394.031V137.314C398.062 131.588 402.992 123.933 408.941 113.675C409.303 113.052 409.654 112.433 409.997 111.818" stroke="#263238" stroke-miterlimit="10" stroke-linecap="round" stroke-linejoin="round"/>
<path d="M423.413 174.237C422.083 182.888 418.113 189.166 413.426 189.166C407.646 189.166 402.962 179.628 402.962 167.864C402.962 156.099 407.646 146.562 413.426 146.562C419.205 146.562 423.889 156.099 423.889 167.864" stroke="#263238" stroke-miterlimit="10" stroke-linecap="round" stroke-linejoin="round"/>
<path d="M428.374 124.139C428.374 128.68 426.366 132.361 423.89 132.361C421.413 132.361 419.405 128.68 419.405 124.139C419.405 119.599 421.413 115.918 423.89 115.918C426.366 115.918 428.374 119.599 428.374 124.139Z" stroke="#263238" stroke-miterlimit="10" stroke-linecap="round" stroke-linejoin="round"/>
<path d="M485.474 158.878C489.794 160.941 492.654 164.53 492.654 168.611C492.654 175.009 485.627 180.195 476.959 180.195C468.29 180.195 461.262 175.009 461.262 168.611C461.262 162.212 468.29 157.026 476.959 157.026C478.383 157.026 479.763 157.166 481.074 157.428" stroke="#263238" stroke-miterlimit="10" stroke-linecap="round" stroke-linejoin="round"/>
<path d="M483.539 168.61C483.539 171.294 480.592 173.468 476.957 173.468C473.321 173.468 470.374 171.293 470.374 168.61C470.374 165.928 473.321 163.752 476.957 163.752C480.592 163.752 483.539 165.928 483.539 168.61Z" stroke="#263238" stroke-miterlimit="10" stroke-linecap="round" stroke-linejoin="round"/>
<path d="M494.147 139.088C494.147 142.804 490.466 145.815 485.926 145.815C481.386 145.815 477.705 142.802 477.705 139.088C477.705 135.374 481.386 132.361 485.926 132.361C490.466 132.361 494.147 135.372 494.147 139.088Z" stroke="#263238" stroke-miterlimit="10" stroke-linecap="round" stroke-linejoin="round"/>
<path d="M434.729 101.716C437.824 101.716 440.334 95.5254 440.334 87.889C440.334 80.2525 437.824 74.062 434.729 74.062C431.633 74.062 429.123 80.2525 429.123 87.889C429.123 95.5254 431.633 101.716 434.729 101.716Z" stroke="#263238" stroke-miterlimit="10" stroke-linecap="round" stroke-linejoin="round"/>
<path d="M450.049 206.731C450.049 211.065 446.536 214.578 442.202 214.578C437.867 214.578 434.354 211.065 434.354 206.731C434.354 202.396 437.867 198.883 442.202 198.883C446.536 198.883 450.049 202.396 450.049 206.731Z" stroke="#263238" stroke-miterlimit="10" stroke-linecap="round" stroke-linejoin="round"/>
<path d="M486.673 90.1311C486.673 92.8148 484.498 94.9892 481.815 94.9892C479.133 94.9892 476.957 92.8136 476.957 90.1311C476.957 87.4485 479.133 85.2729 481.815 85.2729C484.499 85.2729 486.673 87.4485 486.673 90.1311Z" stroke="#263238" stroke-miterlimit="10" stroke-linecap="round" stroke-linejoin="round"/>
<path d="M456.029 124.512C456.029 125.957 454.858 127.128 453.413 127.128C451.968 127.128 450.797 125.957 450.797 124.512C450.797 123.068 451.968 121.896 453.413 121.896C454.858 121.896 456.029 123.068 456.029 124.512Z" stroke="#263238" stroke-miterlimit="10" stroke-linecap="round" stroke-linejoin="round"/>
<path d="M506.581 65.8394H394.031V222.083H506.581V65.8394Z" stroke="#263238" stroke-miterlimit="10" stroke-linecap="round" stroke-linejoin="round"/>
<path d="M322.638 288.624H292.068V300.133H322.638V288.624Z" fill="#263238" stroke="#263238" stroke-miterlimit="10" stroke-linecap="round" stroke-linejoin="round"/>
<path d="M363.672 290.36H241.977L247.737 196.032H369.433L363.672 290.36Z" fill="#919191" stroke="#263238" stroke-miterlimit="10" stroke-linecap="round" stroke-linejoin="round"/>
<path d="M360.179 290.36H238.484L244.245 196.032H365.939L360.179 290.36Z" fill="#263238" stroke="#263238" stroke-miterlimit="10" stroke-linecap="round" stroke-linejoin="round"/>
<path d="M353.738 285.12H245.565L250.686 201.273H358.859L353.738 285.12Z" fill="white" stroke="#263238" stroke-miterlimit="10" stroke-linecap="round" stroke-linejoin="round"/>
<path d="M322.275 272.622H248.793L252.739 208.003H326.222L322.275 272.622Z" fill="#919191" stroke="#263238" stroke-miterlimit="10" stroke-linecap="round" stroke-linejoin="round"/>
<path d="M277.781 244.861C277.781 244.861 262.481 250.925 262.381 252.558C262.281 254.191 259.289 272.62 259.289 272.62H304.778L300.942 251.392L284.107 244.394L277.781 244.861Z" fill="white" stroke="#263238" stroke-miterlimit="10" stroke-linecap="round" stroke-linejoin="round"/>
<path d="M278.242 241.129C278.242 241.129 276.348 241.595 275.11 242.761C273.872 243.928 272.464 247.893 272.464 247.893L272.413 252.559L278.445 249.293L284.538 248.826L290.276 254.191L291.008 246.027C291.008 246.027 290.126 241.362 288.274 241.129C286.421 240.895 278.242 241.129 278.242 241.129Z" fill="white" stroke="#263238" stroke-miterlimit="10" stroke-linecap="round" stroke-linejoin="round"/>
<path d="M278.047 236.696L277.781 244.86L281.39 250.693L287.359 244.627L288.282 237.162L278.047 236.696Z" fill="white" stroke="#263238" stroke-miterlimit="10" stroke-linecap="round" stroke-linejoin="round"/>
<path d="M292.752 227.155C292.335 233.998 287.785 242.294 282.797 242.294C277.809 242.294 274.272 233.998 274.691 227.155C275.109 220.312 279.491 214.763 284.479 214.763C289.466 214.763 293.171 220.312 292.752 227.155Z" fill="white" stroke="#263238" stroke-miterlimit="10" stroke-linecap="round" stroke-linejoin="round"/>
<path d="M274.607 228.065C274.607 228.065 272.997 223.866 272.331 227.132C271.665 230.397 274.951 233.896 274.951 233.896L274.607 228.065Z" fill="white" stroke="#263238" stroke-miterlimit="10" stroke-linecap="round" stroke-linejoin="round"/>
<path d="M292.751 227.155C292.751 227.155 296.692 225.498 295.545 228.997C294.397 232.496 291.541 233.429 291.541 233.429L292.751 227.155Z" fill="white" stroke="#263238" stroke-miterlimit="10" stroke-linecap="round" stroke-linejoin="round"/>
<path d="M282.306 228.065C282.417 226.262 281.043 224.799 279.239 224.799C277.435 224.799 275.884 226.262 275.773 228.065C275.664 229.869 277.036 231.33 278.84 231.33C280.643 231.331 282.195 229.869 282.306 228.065Z" fill="white" stroke="#263238" stroke-miterlimit="10" stroke-linecap="round" stroke-linejoin="round"/>
<path d="M290.237 228.064L293.793 227.131" stroke="#263238" stroke-miterlimit="10" stroke-linecap="round" stroke-linejoin="round"/>
<path d="M290.237 228.065C290.348 226.262 288.974 224.799 287.17 224.799C285.366 224.799 283.815 226.262 283.704 228.065C283.594 229.869 284.967 231.33 286.771 231.33C288.576 231.331 290.126 229.869 290.237 228.065Z" fill="white" stroke="#263238" stroke-miterlimit="10" stroke-linecap="round" stroke-linejoin="round"/>
<path d="M283.67 213.368C283.67 213.368 280.052 211.502 277.415 212.669C274.777 213.835 272.76 220.133 272.893 221.766C273.027 223.399 274.608 228.064 274.608 228.064L277.44 219.9L284.871 216.634L283.67 213.368Z" fill="#263238" stroke="#263238" stroke-miterlimit="10" stroke-linecap="round" stroke-linejoin="round"/>
<path d="M280.071 215.001C280.071 215.001 285.955 210.336 290.711 212.669C295.468 215.001 294.978 219.2 294.906 220.367C294.835 221.533 294.741 226.898 294.741 226.898L291.913 227.364L290.551 222.932C290.551 222.932 288.333 222.082 285.87 220.712C285.87 220.712 279.538 219.9 280.071 215.001Z" fill="#263238" stroke="#263238" stroke-miterlimit="10" stroke-linecap="round" stroke-linejoin="round"/>
<path d="M282.306 228.063L281.892 234.829H283.526" fill="white"/>
<path d="M282.306 228.063L281.892 234.829H283.526" stroke="#263238" stroke-miterlimit="10" stroke-linecap="round" stroke-linejoin="round"/>
<path d="M281.037 237.396H284.536" stroke="#263238" stroke-miterlimit="10" stroke-linecap="round" stroke-linejoin="round"/>
<path d="M281.39 250.693L280.094 271.922" stroke="#263238" stroke-miterlimit="10" stroke-linecap="round" stroke-linejoin="round"/>
<path d="M300.944 251.393C300.944 251.393 296.075 262.358 295.932 264.69C295.789 267.023 295.243 272.155 295.243 272.155" stroke="#263238" stroke-miterlimit="10" stroke-linecap="round" stroke-linejoin="round"/>
<path d="M262.381 252.559C262.381 252.559 267.233 260.957 267.861 262.123C268.49 263.289 267.715 272.153 267.715 272.153" stroke="#263238" stroke-miterlimit="10" stroke-linecap="round" stroke-linejoin="round"/>
<path d="M304.191 259.325L305.799 252.094L308.536 249.293L311.125 245.094H312.291L310.854 249.526L314.482 247.427L316.809 243.695L318.165 244.395L314.839 253.027L309.55 255.593L308.637 259.092L304.191 259.325Z" fill="white" stroke="#263238" stroke-miterlimit="10" stroke-linecap="round" stroke-linejoin="round"/>
<path d="M308.717 272.621L309.162 258.157L303.853 257.224L299.66 272.621H308.717Z" fill="white" stroke="#263238" stroke-miterlimit="10" stroke-linecap="round" stroke-linejoin="round"/>
<path d="M321.947 277.987H248.464L248.792 272.622H322.275L321.947 277.987Z" fill="white" stroke="#263238" stroke-miterlimit="10" stroke-linecap="round" stroke-linejoin="round"/>
<path d="M251.462 274.721H318.88" stroke="#263238" stroke-miterlimit="10" stroke-linecap="round" stroke-linejoin="round"/>
<path d="M353.861 225.254H329.133L330.173 208.224H354.901L353.861 225.254Z" fill="#4F9ED9" stroke="#263238" stroke-miterlimit="10" stroke-linecap="round" stroke-linejoin="round"/>
<path d="M353.861 225.254H329.133L329.305 222.454H354.032L353.861 225.254Z" fill="white" stroke="#263238" stroke-miterlimit="10" stroke-linecap="round" stroke-linejoin="round"/>
<path d="M345.874 215.745L339.451 211.901L338.981 219.59L345.874 215.745Z" fill="white" stroke="#263238" stroke-miterlimit="10" stroke-linecap="round" stroke-linejoin="round"/>
<path d="M352.25 251.619H327.523L328.563 234.59H353.29L352.25 251.619Z" fill="#4F9ED9" stroke="#263238" stroke-miterlimit="10" stroke-linecap="round" stroke-linejoin="round"/>
<path d="M352.25 251.62H327.523L327.694 248.82H352.422L352.25 251.62Z" fill="white" stroke="#263238" stroke-miterlimit="10" stroke-linecap="round" stroke-linejoin="round"/>
<path d="M344.264 242.113L337.841 238.269L337.371 245.956L344.264 242.113Z" fill="white" stroke="#263238" stroke-miterlimit="10" stroke-linecap="round" stroke-linejoin="round"/>
<path d="M350.64 277.988H325.913L326.953 260.958H351.681L350.64 277.988Z" fill="#4F9ED9" stroke="#263238" stroke-miterlimit="10" stroke-linecap="round" stroke-linejoin="round"/>
<path d="M350.64 277.988H325.913L326.084 275.188H350.812L350.64 277.988Z" fill="white" stroke="#263238" stroke-miterlimit="10" stroke-linecap="round" stroke-linejoin="round"/>
<path d="M342.654 268.479L336.231 264.635L335.761 272.324L342.654 268.479Z" fill="white" stroke="#263238" stroke-miterlimit="10" stroke-linecap="round" stroke-linejoin="round"/>
<path d="M329.195 228.065H353.223" stroke="#263238" stroke-miterlimit="10" stroke-linecap="round" stroke-linejoin="round"/>
<path d="M329.024 230.865H353.052" stroke="#263238" stroke-miterlimit="10" stroke-linecap="round" stroke-linejoin="round"/>
<path d="M327.571 254.66H351.598" stroke="#263238" stroke-miterlimit="10" stroke-linecap="round" stroke-linejoin="round"/>
<path d="M327.401 257.458H351.428" stroke="#263238" stroke-miterlimit="10" stroke-linecap="round" stroke-linejoin="round"/>
<path d="M316.912 300.132H298.878C298.878 296.382 301.918 293.343 305.668 293.343H310.124C313.872 293.343 316.912 296.382 316.912 300.132Z" fill="white" stroke="#263238" stroke-miterlimit="10" stroke-linecap="round" stroke-linejoin="round"/>
<path d="M290.237 296.43H201.911V300.133H290.237V296.43Z" fill="#919191" stroke="#263238" stroke-miterlimit="10" stroke-linecap="round" stroke-linejoin="round"/>
<path d="M290.217 296.43H268.025V300.133H290.217V296.43Z" fill="white" stroke="#263238" stroke-miterlimit="10" stroke-linecap="round" stroke-linejoin="round"/>
<path d="M326.303 324.814L336.985 469.215C337.066 470.3 337.97 471.139 339.058 471.139C340.215 471.139 341.149 470.194 341.137 469.038L339.561 324.814H326.303Z" fill="#919191" stroke="#263238" stroke-miterlimit="10" stroke-linecap="round" stroke-linejoin="round"/>
<path d="M334.384 324.814L340.043 470.88C340.698 470.524 341.145 469.835 341.137 469.038L339.561 324.814H334.384Z" fill="white" stroke="#263238" stroke-miterlimit="10" stroke-linecap="round" stroke-linejoin="round"/>
<path d="M393.628 324.814L404.309 469.215C404.39 470.3 405.295 471.139 406.383 471.139C407.539 471.139 408.474 470.194 408.462 469.038L406.886 324.814H393.628Z" fill="#919191" stroke="#263238" stroke-miterlimit="10" stroke-linecap="round" stroke-linejoin="round"/>
<path d="M401.078 324.814L407.679 470.674C408.158 470.288 408.469 469.702 408.462 469.038L406.886 324.814H401.078Z" fill="white" stroke="#263238" stroke-miterlimit="10" stroke-linecap="round" stroke-linejoin="round"/>
<path d="M216.161 326.39L205.419 469.215C205.338 470.301 204.433 471.14 203.345 471.14C202.189 471.14 201.254 470.195 201.266 469.038L202.855 325.988L216.161 326.39Z" fill="#263238" stroke="#263238" stroke-miterlimit="10" stroke-linecap="round" stroke-linejoin="round"/>
<path d="M148.835 326.39L138.092 469.215C138.011 470.301 137.107 471.14 136.019 471.14C134.862 471.14 133.928 470.195 133.94 469.038L135.529 325.988L148.835 326.39Z" fill="#263238" stroke="#263238" stroke-miterlimit="10" stroke-linecap="round" stroke-linejoin="round"/>
<path d="M410.825 303.491H131.585V325.987H410.825V303.491Z" fill="#919191" stroke="#263238" stroke-miterlimit="10" stroke-linecap="round" stroke-linejoin="round"/>
<path d="M410.824 303.491H330.8V325.987H410.824V303.491Z" fill="white" stroke="#263238" stroke-miterlimit="10" stroke-linecap="round" stroke-linejoin="round"/>
<path d="M410.825 307.06H131.585V313.255H410.825V307.06Z" fill="#263238" stroke="#263238" stroke-miterlimit="10" stroke-linecap="round" stroke-linejoin="round"/>
<path d="M414.847 300.264H127.564V307.782H414.847V300.264Z" fill="#919191" stroke="#263238" stroke-miterlimit="10" stroke-linecap="round" stroke-linejoin="round"/>
<path d="M414.847 300.264H335.952V307.782H414.847V300.264Z" fill="white" stroke="#263238" stroke-miterlimit="10" stroke-linecap="round" stroke-linejoin="round"/>
<path d="M330.14 160.819H291.363C287.156 160.819 283.747 164.229 283.747 168.436V182.746C283.747 186.953 287.156 190.363 291.363 190.363H311.671L304.059 211.597L318.632 190.363H330.14C334.347 190.363 337.757 186.953 337.757 182.746V168.436C337.757 164.229 334.347 160.819 330.14 160.819Z" fill="white" stroke="#263238" stroke-miterlimit="10" stroke-linecap="round" stroke-linejoin="round"/>
<path d="M300.365 178.822C301.895 178.822 303.135 177.582 303.135 176.053C303.135 174.523 301.895 173.283 300.365 173.283C298.836 173.283 297.596 174.523 297.596 176.053C297.596 177.582 298.836 178.822 300.365 178.822Z" fill="#263238"/>
<path d="M310.752 178.822C312.282 178.822 313.522 177.582 313.522 176.053C313.522 174.523 312.282 173.283 310.752 173.283C309.223 173.283 307.983 174.523 307.983 176.053C307.983 177.582 309.223 178.822 310.752 178.822Z" fill="#263238"/>
<path d="M323.908 176.053C323.908 174.523 322.668 173.283 321.139 173.283C319.61 173.283 318.37 174.523 318.37 176.053C318.37 177.582 319.61 178.822 321.139 178.822C322.668 178.822 323.908 177.582 323.908 176.053Z" fill="#263238"/>
<path d="M514.264 471.443H546.398" stroke="#263238" stroke-miterlimit="10" stroke-linecap="round" stroke-linejoin="round"/>
<path d="M7.26855 471.443H497.602" stroke="#263238" stroke-miterlimit="10" stroke-linecap="round" stroke-linejoin="round"/>
<path d="M196.066 261.122C192.576 255.191 182.326 232.271 182.326 232.271C182.326 232.271 182.965 227.369 183.817 225.026C184.669 222.681 186.8 215.436 186.374 213.943C185.948 212.452 179.768 209.681 179.128 209.468C178.489 209.255 179.98 205.633 177.635 204.779C175.291 203.927 174.439 205.205 174.439 205.205L173.556 211.149L170.816 215.436C170.816 215.436 169.112 214.157 167.193 213.091C165.275 212.026 160.8 211.599 160.587 213.304C160.374 215.01 164.209 216.501 165.489 217.566C166.767 218.631 168.472 223.746 169.964 225.239C171.455 226.731 173.799 229.928 173.799 229.928L174.652 232.699C174.652 232.699 177.572 260.775 177.921 267.753C178.27 274.73 179.317 293.223 181.41 296.015C183.504 298.806 183.853 300.55 189.784 298.457C195.716 296.363 196.762 293.573 198.158 287.292C199.555 281.011 199.555 267.054 196.066 261.122Z" fill="white" stroke="#263238" stroke-miterlimit="10" stroke-linecap="round" stroke-linejoin="round"/>
<path d="M198.159 287.291C199.555 281.011 199.555 267.054 196.066 261.122C195.686 260.477 195.223 259.621 194.705 258.625C186.815 256.332 179.318 260.076 179.318 260.076L177.404 260.915C177.658 263.83 177.848 266.27 177.923 267.751C178.272 274.729 179.319 293.221 181.413 296.013C183.506 298.804 183.855 300.549 189.786 298.455C195.717 296.362 196.763 293.571 198.159 287.291Z" fill="#4F9ED9" stroke="#263238" stroke-miterlimit="10" stroke-linecap="round" stroke-linejoin="round"/>
<path d="M170.625 166.707C170.625 166.707 172.058 171.723 172.058 176.382C172.058 181.04 170.625 183.907 172.774 185.34C174.924 186.773 176.716 186.773 176.358 189.64C176 192.507 174.567 193.94 174.567 193.94C174.567 193.94 173.85 208.631 173.134 210.065C172.417 211.498 163.101 209.706 160.95 209.348C158.8 208.99 152.709 211.857 148.767 203.974C144.825 196.09 148.051 184.265 155.216 178.174C162.383 172.082 170.625 166.707 170.625 166.707Z" fill="white" stroke="#263238" stroke-miterlimit="10" stroke-linecap="round" stroke-linejoin="round"/>
<path d="M172.06 176.381C172.06 176.381 170.114 174.931 169.094 177.479" stroke="#263238" stroke-miterlimit="10" stroke-linecap="round" stroke-linejoin="round"/>
<path d="M170.367 182.32C170.367 182.32 169.857 184.614 170.621 186.652" stroke="#263238" stroke-miterlimit="10" stroke-linecap="round" stroke-linejoin="round"/>
<path d="M173.935 199.137C173.935 199.137 171.642 199.901 170.877 197.353" stroke="#263238" stroke-miterlimit="10" stroke-linecap="round" stroke-linejoin="round"/>
<path d="M177.947 266.502C177.947 266.502 176.702 271.955 175.696 274.832C174.689 277.708 155.642 283.006 147.375 284.099C139.109 285.193 130.944 285.184 130.944 285.184L131.467 300.252C131.467 300.252 147.484 300.565 148.621 300.298C149.759 300.032 176.716 287.916 176.716 287.916L188.362 286.392C188.362 286.392 193.252 285.214 193.439 281.406C193.626 277.598 189.306 266.822 187.351 265.142C185.395 263.462 181.235 259.011 178.755 261.751C176.276 264.492 177.947 266.502 177.947 266.502Z" fill="white" stroke="#263238" stroke-miterlimit="10" stroke-linecap="round" stroke-linejoin="round"/>
<path d="M142.224 293.563C142.224 287.043 143.896 286.875 145.766 284.297C138.081 285.19 130.944 285.182 130.944 285.182L130.554 299.003C130.554 299.003 139.326 299.811 144.666 300.164C144.258 300.877 142.224 297.743 142.224 293.563Z" fill="#4F9ED9" stroke="#263238" stroke-miterlimit="10" stroke-linecap="round" stroke-linejoin="round"/>
<path d="M193.95 322.833C184.199 311.411 170.549 307.233 170.549 307.233L149.655 316.147C149.655 316.147 147.148 309.739 143.248 305.004C139.348 300.268 139.348 300.268 139.348 300.268L141.855 286.617C141.855 286.617 156.899 276.31 158.849 271.853C158.868 271.809 158.896 271.756 158.918 271.711C161.934 276.388 175.053 296.628 177.515 298.597C180.301 300.826 188.658 301.105 192.28 297.762C195.902 294.419 197.574 292.191 196.737 287.176C196.737 287.176 191.165 275.197 188.101 269.903C185.037 264.611 178.351 245.666 175.008 239.817C172.611 235.621 171.642 232.721 169.952 230.693C168.588 228.374 167.099 226.443 165.814 225.052C162.471 221.43 153.278 220.595 151.328 219.758C149.378 218.923 149.098 218.644 137.955 215.301C126.812 211.958 114.275 210.009 105.361 216.972C105.361 216.972 93.3825 231.18 88.6458 254.58C83.9091 277.981 83.6318 301.661 83.0736 305.839C82.5166 310.018 77.7799 330.355 76.3874 342.055C74.995 353.755 87.2521 365.455 94.7738 369.078C102.295 372.7 134.611 373.257 153.554 369.078C172.498 364.899 202.585 345.955 202.585 345.955C202.585 345.955 203.699 334.255 193.95 322.833Z" fill="#4F9ED9" stroke="#263238" stroke-miterlimit="10" stroke-linecap="round" stroke-linejoin="round"/>
<path d="M144.686 271.365L140.867 271.233" stroke="#263238" stroke-miterlimit="10" stroke-linecap="round" stroke-linejoin="round"/>
<path d="M143.248 265.283C150.785 267.663 158.848 271.852 158.848 271.852L149.036 271.514" stroke="#263238" stroke-miterlimit="10" stroke-linecap="round" stroke-linejoin="round"/>
<path d="M195.01 272.318C195.01 272.318 196.989 275.397 196.989 278.035C196.989 280.674 197.429 284.192 196.329 283.092C195.23 281.992 194.791 278.254 194.791 278.254L195.01 272.318Z" fill="white" stroke="#263238" stroke-miterlimit="10" stroke-linecap="round" stroke-linejoin="round"/>
<path d="M188.412 269.24C188.412 269.24 192.539 267.008 194.329 269.693C196.119 272.378 195.672 277.748 194.329 280.433C192.987 283.118 191.453 280.551 191.645 278.195C191.837 275.839 188.412 269.24 188.412 269.24Z" fill="white" stroke="#263238" stroke-miterlimit="10" stroke-linecap="round" stroke-linejoin="round"/>
<path d="M186.874 266.382C186.874 266.382 191.001 264.15 192.791 266.835C194.581 269.52 194.133 274.89 192.791 277.575C191.448 280.26 189.913 277.693 190.106 275.337C190.299 272.982 186.874 266.382 186.874 266.382Z" fill="white" stroke="#263238" stroke-miterlimit="10" stroke-linecap="round" stroke-linejoin="round"/>
<path d="M184.984 263.302C184.984 263.302 189.111 261.069 190.901 263.756C192.691 266.44 192.244 271.81 190.901 274.495C189.559 277.18 188.023 274.613 188.216 272.258C188.408 269.903 184.984 263.302 184.984 263.302Z" fill="white" stroke="#263238" stroke-miterlimit="10" stroke-linecap="round" stroke-linejoin="round"/>
<path d="M174.533 155.595C174.594 160.09 173.216 164.918 171.343 167.783C165.252 177.099 159.518 176.024 157.01 183.55C154.501 191.075 150.919 198.958 154.861 203.258C158.802 207.558 162.028 205.049 162.028 205.049C162.028 205.049 164.535 211.5 158.086 217.949C151.637 224.4 140.528 221.891 137.661 220.816C134.794 219.741 132.644 217.949 132.644 217.949C132.644 217.949 130.853 222.965 121.894 222.965C112.936 222.965 102.902 216.874 102.902 205.766C102.902 194.657 108.993 187.133 110.427 182.833C111.86 178.533 107.918 165.275 114.011 157.033C120.102 148.792 129.419 142.701 136.585 142.701C143.729 142.701 157.67 146.611 157.726 146.642C158.668 147.149 164.69 144.701 166.314 144.808C172.278 145.2 174.46 150.153 174.533 155.595Z" fill="#263238" stroke="#263238" stroke-miterlimit="10" stroke-linecap="round" stroke-linejoin="round"/>
<path d="M151.254 206.565C152.471 206.743 153.783 206.762 155.166 206.596" stroke="#919191" stroke-miterlimit="10" stroke-linecap="round" stroke-linejoin="round"/>
<path d="M169.364 161.849C168.854 164.648 167.833 167.786 165.897 170.828C160.333 179.571 153.974 182.751 146.424 191.096C141.549 196.484 142.472 201.873 146.412 204.695" stroke="#919191" stroke-miterlimit="10" stroke-linecap="round" stroke-linejoin="round"/>
<path d="M169.473 152.548C169.473 152.548 169.795 154.099 169.817 156.523" stroke="#919191" stroke-miterlimit="10" stroke-linecap="round" stroke-linejoin="round"/>
<path d="M161.923 160.895C161.923 160.895 160.73 173.215 155.564 180.367C150.398 187.521 140.065 191.098 140.462 198.649" stroke="#919191" stroke-miterlimit="10" stroke-linecap="round" stroke-linejoin="round"/>
<path d="M209.949 367.088C209.949 367.088 217.367 405.238 223.726 423.783C230.085 442.329 236.443 459.283 238.033 460.874C239.623 462.464 243.861 468.292 243.861 468.292C243.861 468.292 240.682 470.941 236.972 470.941C233.263 470.941 228.495 466.172 224.256 463.523C220.017 460.873 219.487 459.283 211.01 456.105C202.532 452.926 209.42 444.447 211.539 440.208C213.659 435.969 213.659 432.79 213.659 432.79C213.659 432.79 209.42 415.305 196.173 400.468C182.927 385.632 180.277 351.191 180.277 351.191L205.71 341.653L209.949 367.088Z" fill="white" stroke="#263238" stroke-miterlimit="10" stroke-linecap="round" stroke-linejoin="round"/>
<path d="M236.919 458.976L235.383 459.283C235.383 459.283 226.375 447.096 219.487 442.857C215.996 440.709 213.327 440.196 211.538 440.21C209.417 444.449 202.533 452.926 211.009 456.103C219.487 459.282 220.017 460.872 224.256 463.521C228.495 466.171 233.264 470.939 236.972 470.939C240.681 470.939 243.861 468.29 243.861 468.29C243.861 468.29 239.621 462.462 238.033 460.872C237.778 460.619 237.399 459.964 236.919 458.976Z" fill="#4F9ED9" stroke="#263238" stroke-miterlimit="10" stroke-linecap="round" stroke-linejoin="round"/>
<path d="M232.687 469.437C228.497 466.541 224.714 460.113 217.899 456.104C211.701 452.457 208.512 452.324 207.127 452.595C207.582 454.021 208.742 455.253 211.01 456.104C219.488 459.283 220.018 460.873 224.257 463.522C226.989 465.231 229.941 467.814 232.687 469.437Z" fill="#4F9ED9" stroke="#263238" stroke-miterlimit="10" stroke-linecap="round" stroke-linejoin="round"/>
<path d="M236.973 470.941C236.699 470.941 236.434 470.9 236.169 470.866C236.441 470.911 236.712 470.941 236.973 470.941Z" fill="#4F9ED9" stroke="#263238" stroke-miterlimit="10" stroke-linecap="round" stroke-linejoin="round"/>
<path d="M162.725 309.579C162.725 309.579 188.187 300.557 190.567 306.508C192.947 312.458 203.849 334.648 199.882 343.773C195.916 352.898 167.955 317.615 163.988 316.823C160.021 316.029 162.256 312.255 162.725 309.579Z" fill="white" stroke="#263238" stroke-miterlimit="10" stroke-linecap="round" stroke-linejoin="round"/>
<path d="M187.68 321.219C187.68 321.219 216.64 318.839 222.194 323.995C227.749 329.152 208.707 391.039 198.392 410.479C182.264 440.872 187.113 448.815 187.113 448.815C187.113 448.815 188.303 453.576 196.238 461.113C204.172 468.65 206.552 469.84 203.775 471.03C200.998 472.22 189.097 471.03 187.907 470.236C186.716 469.443 177.989 462.302 170.055 459.921C162.12 457.541 163.31 455.955 166.881 448.814C170.451 441.673 170.055 447.624 174.021 435.325C178.318 422.006 182.982 402.879 185.254 389.083C187.352 376.34 190.576 362.344 189.663 349.384L187.68 321.219Z" fill="white" stroke="#263238" stroke-miterlimit="10" stroke-linecap="round" stroke-linejoin="round"/>
<path d="M208.89 340.594C208.89 340.594 205.18 329.998 193.95 322.834C181.288 314.758 170.55 307.234 170.55 307.234L149.656 316.148C149.656 316.148 154.755 324.791 128.572 329.154C108.407 332.515 89.8995 327.639 79.9155 321.777C78.5255 328.684 77.0652 336.384 76.3904 342.056C74.9979 353.756 87.2551 365.456 94.7767 369.079C102.298 372.701 162.902 380.228 179.22 369.738C208.89 350.662 208.89 340.594 208.89 340.594Z" fill="#263238" stroke="#263238" stroke-miterlimit="10" stroke-linecap="round" stroke-linejoin="round"/>
<path d="M147.287 322.696C144.494 324.982 139.034 327.409 128.57 329.152C108.405 332.513 89.8978 327.637 79.9137 321.776C79.5579 323.546 79.1973 325.366 78.8462 327.192C85.6859 331.304 100.06 338.284 116.272 336.293C135.612 333.919 144.209 328.642 147.287 322.696Z" fill="#4F9ED9" stroke="#263238" stroke-miterlimit="10" stroke-linecap="round" stroke-linejoin="round"/>
<path d="M131.843 348.169C130.911 349.381 129.951 350.584 128.966 351.765" stroke="white" stroke-miterlimit="10" stroke-linecap="round" stroke-linejoin="round"/>
<path d="M146.421 325.583C146.421 325.583 141.411 335.076 134.186 345.033" stroke="white" stroke-miterlimit="10" stroke-linecap="round" stroke-linejoin="round"/>
<path d="M137.694 333.121C137.694 333.121 130.554 342.642 123.017 348.196" stroke="white" stroke-miterlimit="10" stroke-linecap="round" stroke-linejoin="round"/>
<path d="M196.238 461.114C188.303 453.577 187.113 448.816 187.113 448.816C187.113 448.816 186.807 448.586 186.487 447.926C185.95 448.495 184.335 449.548 180.368 448.024C176.93 446.702 173.668 444.502 170.231 442.944C169.413 444.406 168.616 445.348 166.881 448.818C163.31 455.958 162.12 457.545 170.055 459.925C177.989 462.305 186.716 469.446 187.907 470.24C189.097 471.034 200.998 472.224 203.775 471.034C206.551 469.841 204.171 468.651 196.238 461.114Z" fill="#4F9ED9" stroke="#263238" stroke-miterlimit="10" stroke-linecap="round" stroke-linejoin="round"/>
<path d="M203.548 344.626L217.036 336.295" stroke="#263238" stroke-miterlimit="10" stroke-linecap="round" stroke-linejoin="round"/>
<path d="M42.3149 269.189C42.3149 269.189 85.3084 263.814 112.775 271.578L116.955 376.075H52.4656C52.4656 376.075 56.6453 319.945 42.3149 269.189Z" fill="#919191" stroke="#263238" stroke-miterlimit="10" stroke-linecap="round" stroke-linejoin="round"/>
<path d="M112.775 271.579C85.3072 263.817 42.3149 269.19 42.3149 269.19C47.2338 286.612 49.9722 304.668 51.4468 320.869C70.4675 330.378 94.132 345.142 116.602 367.233L112.775 271.579Z" fill="#757575" stroke="#263238" stroke-miterlimit="10" stroke-linecap="round" stroke-linejoin="round"/>
<path d="M193.831 473.873C192.864 473.873 191.956 473.281 191.599 472.321C182.053 446.667 179.648 380.06 179.55 377.236C179.505 375.922 180.533 374.82 181.847 374.775C183.144 374.733 184.263 375.758 184.308 377.072C184.332 377.755 186.784 445.728 196.062 470.662C196.52 471.894 195.893 473.265 194.661 473.722C194.386 473.825 194.106 473.873 193.831 473.873Z" fill="white" stroke="#263238" stroke-miterlimit="10" stroke-linecap="round" stroke-linejoin="round"/>
<path d="M142.008 473.873C141.042 473.873 140.133 473.281 139.776 472.321C130.23 446.667 127.825 380.06 127.728 377.236C127.682 375.922 128.711 374.82 130.024 374.775C131.322 374.733 132.44 375.758 132.486 377.072C132.509 377.755 134.961 445.728 144.238 470.662C144.696 471.894 144.069 473.265 142.837 473.722C142.564 473.825 142.283 473.873 142.008 473.873Z" fill="white" stroke="#263238" stroke-miterlimit="10" stroke-linecap="round" stroke-linejoin="round"/>
<path d="M193.185 376.03H51.3638V371.303H188.457C191.068 371.303 193.185 373.419 193.185 376.03Z" fill="#919191" stroke="#263238" stroke-miterlimit="10" stroke-linecap="round" stroke-linejoin="round"/>
<path d="M193.185 374.873H51.3638V379.6H193.185V374.873Z" fill="white" stroke="#263238" stroke-miterlimit="10" stroke-linecap="round" stroke-linejoin="round"/>
<path d="M111.713 473.872C111.55 473.872 111.386 473.855 111.219 473.82C109.932 473.548 109.11 472.286 109.381 471C122.837 407.236 110.531 273.147 110.405 271.8C110.282 270.491 111.245 269.331 112.553 269.21C113.846 269.088 115.023 270.049 115.144 271.358C115.27 272.712 127.643 407.514 114.038 471.984C113.804 473.103 112.815 473.872 111.713 473.872Z" fill="white" stroke="#263238" stroke-miterlimit="10" stroke-linecap="round" stroke-linejoin="round"/>
<path d="M37.923 472.087C37.7088 472.087 37.4922 472.059 37.2768 471.997C36.0117 471.64 35.275 470.326 35.632 469.06C66.5992 359.213 40.3081 270.767 40.0391 269.887C39.6547 268.63 40.3628 267.299 41.6196 266.915C42.8728 266.529 44.2057 267.236 44.5913 268.494C44.8651 269.387 71.5799 359.093 40.214 470.353C39.9177 471.402 38.962 472.087 37.923 472.087Z" fill="white" stroke="#263238" stroke-miterlimit="10" stroke-linecap="round" stroke-linejoin="round"/>
<path d="M473.066 275.846C473.066 275.846 458.437 267.719 457.352 286.141C456.269 304.563 453.56 424.306 453.56 424.306" stroke="#135789" stroke-width="2" stroke-miterlimit="10" stroke-linecap="round" stroke-linejoin="round"/>
<path d="M449.755 287.765C449.755 287.765 461.688 314.316 456.27 422.68" stroke="#135789" stroke-width="2" stroke-miterlimit="10" stroke-linecap="round" stroke-linejoin="round"/>
<path d="M461.478 279.555C461.478 279.555 455.882 283.141 452.699 279.037C449.514 274.934 454.853 267.417 450.147 264.202C445.442 260.988 437.321 265.894 437.321 265.894C437.321 265.894 443.576 267.731 443.374 271.146C443.173 274.56 440.159 275.851 439.758 274.359C439.357 272.867 436.374 265.348 431.295 268.475C426.216 271.601 425.44 276.451 425.44 276.451C425.44 276.451 437.261 275.191 437.978 279.638C438.694 284.086 433.129 278.862 428.251 278.576C423.374 278.288 418.925 279.004 419.24 281.96C419.556 284.915 418.78 289.765 418.78 289.765C418.78 289.765 422.912 286.094 428.278 286.41C433.645 286.727 433.442 290.141 428.565 289.853C423.687 289.565 419.497 294.213 419.497 294.213C419.497 294.213 423.944 301.818 429.596 305.577C435.248 309.337 437.285 307.988 437.946 305.091C438.606 302.193 437.086 294.76 440.501 294.963C443.915 295.164 434.847 307.845 439.207 308.592C443.569 309.338 447.069 308.077 448.218 305.207C449.366 302.338 449.366 302.338 449.366 302.338C449.366 302.338 447.846 294.905 448.507 292.009C449.167 289.111 449.97 292.094 450.744 295.567C451.518 299.039 452.005 307.389 453.497 306.988C454.99 306.587 459.754 300.504 460.872 298.122C461.992 295.741 454.591 288.451 454.677 286.989C454.763 285.526 460.472 288.31 461.362 289.831C462.251 291.352 463.111 293.361 463.111 293.361C463.111 293.361 466.669 291.123 466.585 284.266C466.499 277.403 461.478 279.555 461.478 279.555Z" fill="#4F9ED9"/>
<path opacity="0.3" d="M461.478 279.555C461.478 279.555 455.882 283.141 452.699 279.037C449.514 274.934 454.853 267.417 450.147 264.202C445.442 260.988 437.321 265.894 437.321 265.894C437.321 265.894 443.576 267.731 443.374 271.146C443.173 274.56 440.159 275.851 439.758 274.359C439.357 272.867 436.374 265.348 431.295 268.475C426.216 271.601 425.44 276.451 425.44 276.451C425.44 276.451 437.261 275.191 437.978 279.638C438.694 284.086 433.129 278.862 428.251 278.576C423.374 278.288 418.925 279.004 419.24 281.96C419.556 284.915 418.78 289.765 418.78 289.765C418.78 289.765 422.912 286.094 428.278 286.41C433.645 286.727 433.442 290.141 428.565 289.853C423.687 289.565 419.497 294.213 419.497 294.213C419.497 294.213 423.944 301.818 429.596 305.577C435.248 309.337 437.285 307.988 437.946 305.091C438.606 302.193 437.086 294.76 440.501 294.963C443.915 295.164 434.847 307.845 439.207 308.592C443.569 309.338 447.069 308.077 448.218 305.207C449.366 302.338 449.366 302.338 449.366 302.338C449.366 302.338 447.846 294.905 448.507 292.009C449.167 289.111 449.97 292.094 450.744 295.567C451.518 299.039 452.005 307.389 453.497 306.988C454.99 306.587 459.754 300.504 460.872 298.122C461.992 295.741 454.591 288.451 454.677 286.989C454.763 285.526 460.472 288.31 461.362 289.831C462.251 291.352 463.111 293.361 463.111 293.361C463.111 293.361 466.669 291.123 466.585 284.266C466.499 277.403 461.478 279.555 461.478 279.555Z" fill="#135789"/>
<path d="M433.109 295.635C436.758 291.123 442.136 285.019 446.643 282.107" stroke="#135789" stroke-miterlimit="10" stroke-linecap="round" stroke-linejoin="round"/>
<path d="M428.878 301.128C428.878 301.128 429.815 299.825 431.334 297.873" stroke="#135789" stroke-miterlimit="10" stroke-linecap="round" stroke-linejoin="round"/>
<path d="M449.025 283.225C449.025 283.225 454.447 290.887 455.449 298.778" stroke="#135789" stroke-miterlimit="10" stroke-linecap="round" stroke-linejoin="round"/>
<path d="M442.883 287.758C442.883 287.758 444.404 286.869 443.828 296.624" stroke="#135789" stroke-miterlimit="10" stroke-linecap="round" stroke-linejoin="round"/>
<path d="M446.844 278.692C446.844 278.692 449.943 275.938 448.309 270.457" stroke="#135789" stroke-miterlimit="10" stroke-linecap="round" stroke-linejoin="round"/>
<path d="M442.655 283.34L440.446 279.293" stroke="#135789" stroke-miterlimit="10" stroke-linecap="round" stroke-linejoin="round"/>
<path d="M438.005 287.471C438.005 287.471 430.976 282.162 426.585 281.902" stroke="#135789" stroke-miterlimit="10" stroke-linecap="round" stroke-linejoin="round"/>
<path d="M481.423 265.097C481.423 265.097 481.199 273.144 474.92 273.535C468.641 273.926 464.754 263.459 458.329 265.978C451.903 268.498 451.278 279.973 451.278 279.973C451.278 279.973 457.381 274.962 460.663 277.491C463.944 280.02 463.182 283.917 461.415 283.302C459.647 282.686 450.087 280.549 449.755 287.765C449.423 294.982 453.75 299.063 453.75 299.063C453.75 299.063 460.546 286.367 465.487 288.681C470.429 290.995 461.405 293.007 457.793 297.695C454.18 302.383 451.866 307.324 455.04 309.023C458.214 310.722 462.541 314.803 462.541 314.803C462.541 314.803 461.681 308.163 465.655 303.007C469.629 297.85 472.91 300.38 469.298 305.067C465.685 309.755 467.482 317.117 467.482 317.117C467.482 317.117 478.127 317.849 485.743 314.753C493.36 311.658 493.399 308.698 490.948 306.062C488.496 303.426 480.02 299.881 482.549 296.599C485.078 293.318 491.593 311.041 495.313 307.184C499.034 303.327 500.157 298.961 498.067 295.856C495.977 292.751 495.977 292.751 495.977 292.751C495.977 292.751 487.501 289.207 485.05 286.571C482.598 283.935 486.134 285.164 490.137 286.757C494.141 288.348 502.832 293.552 503.448 291.785C504.063 290.018 501.221 281.101 499.599 278.358C497.978 275.613 485.634 278.056 484.228 276.971C482.822 275.887 489.502 272.069 491.63 272.216C493.759 272.362 496.356 272.869 496.356 272.869C496.356 272.869 496.541 267.781 489.617 263.192C482.692 258.604 481.423 265.097 481.423 265.097Z" fill="#4F9ED9"/>
<path opacity="0.2" d="M481.423 265.097C481.423 265.097 481.199 273.144 474.92 273.535C468.641 273.926 464.754 263.459 458.329 265.978C451.903 268.498 451.278 279.973 451.278 279.973C451.278 279.973 457.381 274.962 460.663 277.491C463.944 280.02 463.182 283.917 461.415 283.302C459.647 282.686 450.087 280.549 449.755 287.765C449.423 294.982 453.75 299.063 453.75 299.063C453.75 299.063 460.546 286.367 465.487 288.681C470.429 290.995 461.405 293.007 457.793 297.695C454.18 302.383 451.866 307.324 455.04 309.023C458.214 310.722 462.541 314.803 462.541 314.803C462.541 314.803 461.681 308.163 465.655 303.007C469.629 297.85 472.91 300.38 469.298 305.067C465.685 309.755 467.482 317.117 467.482 317.117C467.482 317.117 478.127 317.849 485.743 314.753C493.36 311.658 493.399 308.698 490.948 306.062C488.496 303.426 480.02 299.881 482.549 296.599C485.078 293.318 491.593 311.041 495.313 307.184C499.034 303.327 500.157 298.961 498.067 295.856C495.977 292.751 495.977 292.751 495.977 292.751C495.977 292.751 487.501 289.207 485.05 286.571C482.598 283.935 486.134 285.164 490.137 286.757C494.141 288.348 502.832 293.552 503.448 291.785C504.063 290.018 501.221 281.101 499.599 278.358C497.978 275.613 485.634 278.056 484.228 276.971C482.822 275.887 489.502 272.069 491.63 272.216C493.759 272.362 496.356 272.869 496.356 272.869C496.356 272.869 496.541 267.781 489.617 263.192C482.692 258.604 481.423 265.097 481.423 265.097Z" fill="#135789"/>
<path d="M478.185 304.462C476.156 297.733 473.71 288.188 473.865 281.69" stroke="#135789" stroke-miterlimit="10" stroke-linecap="round" stroke-linejoin="round"/>
<path d="M480.801 312.441C480.801 312.441 480.136 310.615 479.216 307.764" stroke="#135789" stroke-miterlimit="10" stroke-linecap="round" stroke-linejoin="round"/>
<path d="M476.609 280.068C476.609 280.068 487.976 279.862 496.56 284.237" stroke="#135789" stroke-miterlimit="10" stroke-linecap="round" stroke-linejoin="round"/>
<path d="M476.961 289.307C476.961 289.307 477.107 287.178 486.482 294.404" stroke="#135789" stroke-miterlimit="10" stroke-linecap="round" stroke-linejoin="round"/>
<path d="M470.584 279.162C470.584 279.162 469.939 274.181 463.337 272.082" stroke="#135789" stroke-miterlimit="10" stroke-linecap="round" stroke-linejoin="round"/>
<path d="M472.382 286.524L466.825 285.978" stroke="#135789" stroke-miterlimit="10" stroke-linecap="round" stroke-linejoin="round"/>
<path d="M473.348 293.993C473.348 293.993 463.242 297.411 459.99 301.63" stroke="#135789" stroke-miterlimit="10" stroke-linecap="round" stroke-linejoin="round"/>
<path d="M414.007 318.651C414.007 318.651 445.975 339.782 445.433 421.597" stroke="#135789" stroke-width="2" stroke-miterlimit="10" stroke-linecap="round" stroke-linejoin="round"/>
<path d="M453.423 313.069C453.423 313.069 452.406 322.333 445.122 322.192C437.84 322.05 434.342 309.604 426.689 311.905C419.037 314.207 417.234 327.388 417.234 327.388C417.234 327.388 424.75 322.182 428.297 325.411C431.845 328.638 430.599 333.063 428.616 332.186C426.635 331.309 415.805 327.94 414.741 336.236C413.677 344.533 418.284 349.65 418.284 349.65C418.284 349.65 427.324 335.642 432.808 338.778C438.292 341.916 427.689 343.385 423.079 348.453C418.467 353.521 415.331 359.005 418.832 361.265C422.334 363.525 426.941 368.644 426.941 368.644C426.941 368.644 426.575 360.899 431.648 355.325C436.72 349.75 440.268 352.978 435.656 358.045C431.044 363.113 432.424 371.78 432.424 371.78C432.424 371.78 444.637 373.629 453.719 370.775C462.799 367.921 463.124 364.511 460.544 361.237C457.964 357.963 448.518 353.073 451.745 349.526C454.973 345.979 460.818 367.045 465.475 362.945C470.132 358.845 471.839 353.913 469.721 350.133C467.603 346.352 467.603 346.352 467.603 346.352C467.603 346.352 458.155 341.462 455.576 338.189C452.996 334.915 456.959 336.669 461.429 338.883C465.9 341.098 475.437 347.923 476.314 345.942C477.191 343.96 474.753 333.404 473.141 330.084C471.53 326.765 457.056 328.418 455.536 327.034C454.015 325.651 462.083 321.875 464.526 322.245C466.968 322.615 469.919 323.446 469.919 323.446C469.919 323.446 470.612 317.593 463.056 311.643C455.5 305.695 453.423 313.069 453.423 313.069Z" fill="#4F9ED9"/>
<path opacity="0.3" d="M453.423 313.069C453.423 313.069 452.406 322.333 445.122 322.192C437.84 322.05 434.342 309.604 426.689 311.905C419.037 314.207 417.234 327.388 417.234 327.388C417.234 327.388 424.75 322.182 428.297 325.411C431.845 328.638 430.599 333.063 428.616 332.186C426.635 331.309 415.805 327.94 414.741 336.236C413.677 344.533 418.284 349.65 418.284 349.65C418.284 349.65 427.324 335.642 432.808 338.778C438.292 341.916 427.689 343.385 423.079 348.453C418.467 353.521 415.331 359.005 418.832 361.265C422.334 363.525 426.941 368.644 426.941 368.644C426.941 368.644 426.575 360.899 431.648 355.325C436.72 349.75 440.268 352.978 435.656 358.045C431.044 363.113 432.424 371.78 432.424 371.78C432.424 371.78 444.637 373.629 453.719 370.775C462.799 367.921 463.124 364.511 460.544 361.237C457.964 357.963 448.518 353.073 451.745 349.526C454.973 345.979 460.818 367.045 465.475 362.945C470.132 358.845 471.839 353.913 469.721 350.133C467.603 346.352 467.603 346.352 467.603 346.352C467.603 346.352 458.155 341.462 455.576 338.189C452.996 334.915 456.959 336.669 461.429 338.883C465.9 341.098 475.437 347.923 476.314 345.942C477.191 343.96 474.753 333.404 473.141 330.084C471.53 326.765 457.056 328.418 455.536 327.034C454.015 325.651 462.083 321.875 464.526 322.245C466.968 322.615 469.919 323.446 469.919 323.446C469.919 323.446 470.612 317.593 463.056 311.643C455.5 305.695 453.423 313.069 453.423 313.069Z" fill="#135789"/>
<path d="M445.973 358.185C444.266 350.229 442.344 338.985 443.137 331.5" stroke="#135789" stroke-miterlimit="10" stroke-linecap="round" stroke-linejoin="round"/>
<path d="M448.237 367.639C448.237 367.639 447.641 365.469 446.85 362.091" stroke="#135789" stroke-miterlimit="10" stroke-linecap="round" stroke-linejoin="round"/>
<path d="M446.456 329.889C446.456 329.889 459.591 330.725 469.084 336.582" stroke="#135789" stroke-miterlimit="10" stroke-linecap="round" stroke-linejoin="round"/>
<path d="M445.989 340.583C445.989 340.583 446.359 338.141 456.496 347.363" stroke="#135789" stroke-miterlimit="10" stroke-linecap="round" stroke-linejoin="round"/>
<path d="M439.589 328.273C439.589 328.273 439.315 322.465 431.896 319.42" stroke="#135789" stroke-miterlimit="10" stroke-linecap="round" stroke-linejoin="round"/>
<path d="M440.967 336.939L434.607 335.784" stroke="#135789" stroke-miterlimit="10" stroke-linecap="round" stroke-linejoin="round"/>
<path d="M441.378 345.65C441.378 345.65 429.393 348.641 425.242 353.203" stroke="#135789" stroke-miterlimit="10" stroke-linecap="round" stroke-linejoin="round"/>
<path d="M426.469 383.127C426.469 383.127 447.059 398.84 449.226 422.138L444.891 344.116" stroke="#135789" stroke-width="2" stroke-miterlimit="10" stroke-linecap="round" stroke-linejoin="round"/>
<path d="M476.317 371.749C449.226 366.873 449.226 422.139 449.226 422.139" stroke="#135789" stroke-width="2" stroke-miterlimit="10" stroke-linecap="round" stroke-linejoin="round"/>
<path d="M452.477 421.597C452.477 421.597 436.764 307.273 482.277 307.273" stroke="#135789" stroke-width="2" stroke-miterlimit="10" stroke-linecap="round" stroke-linejoin="round"/>
<path d="M465.994 368.463C462.294 364.3 454.429 364.3 449.804 374.938C445.178 385.577 449.341 383.727 449.341 383.727C449.341 383.727 458.131 380.952 463.681 379.101C469.232 377.251 476.634 372.626 477.095 375.401C477.558 378.177 473.395 380.952 468.306 381.877C463.218 382.801 449.803 386.503 451.191 389.278C452.579 392.053 455.817 400.38 455.817 400.38C455.817 400.38 462.292 394.829 468.306 391.129C474.32 387.429 478.02 388.816 474.782 392.979C471.543 397.143 462.292 401.769 464.142 407.319C465.993 412.87 477.094 419.809 477.094 419.809C477.094 419.809 478.482 408.244 481.72 404.544C484.958 400.844 484.958 405.007 484.033 411.482C483.108 417.958 483.108 419.809 483.108 419.809L496.06 424.435C496.06 424.435 500.686 417.496 502.998 415.184C505.311 412.871 505.311 412.871 505.311 412.871C505.311 412.871 495.134 404.082 494.672 398.531C494.209 392.981 501.611 398.531 503.923 399.456C506.236 400.381 509.937 406.858 509.937 406.858C509.937 406.858 512.249 396.219 512.712 392.518C513.175 388.818 513.175 388.818 513.175 388.818C513.175 388.818 503.461 385.117 499.761 385.117C496.061 385.117 494.211 387.893 494.211 384.193C494.211 380.493 497.911 378.179 502.074 378.642C506.237 379.105 513.175 381.417 513.175 381.417C513.175 381.417 515.951 379.105 515.026 372.166C514.101 365.228 511.788 365.228 506.237 367.079C500.686 368.929 496.986 373.092 492.823 373.092C488.66 373.092 490.972 368.005 493.748 366.617C496.523 365.229 503.461 362.454 504.849 361.991C506.237 361.528 497.448 355.052 492.823 354.128C488.197 353.203 482.208 356.461 482.646 361.066C483.572 370.776 469.694 372.626 465.994 368.463Z" fill="#4F9ED9"/>
<path d="M495.77 416.091C495.908 417.483 496.007 418.879 496.06 420.271" stroke="#135789" stroke-miterlimit="10" stroke-linecap="round" stroke-linejoin="round"/>
<path d="M486.478 382.883C489.726 390.391 493.483 400.744 495.185 411.546" stroke="#135789" stroke-miterlimit="10" stroke-linecap="round" stroke-linejoin="round"/>
<path d="M484.813 379.171C482.522 374.243 480.797 371.239 480.797 371.239C480.797 371.239 484.96 369.388 486.811 365.688C488.662 361.988 491.437 360.137 491.437 360.137" stroke="#135789" stroke-miterlimit="10" stroke-linecap="round" stroke-linejoin="round"/>
<path d="M464.606 386.966C464.606 386.966 481.258 380.027 481.258 381.415" stroke="#135789" stroke-miterlimit="10" stroke-linecap="round" stroke-linejoin="round"/>
<path d="M490.51 378.177C490.51 378.177 497.911 374.477 504.387 374.477" stroke="#135789" stroke-miterlimit="10" stroke-linecap="round" stroke-linejoin="round"/>
<path d="M487.735 389.278C487.735 389.278 483.572 392.516 478.946 398.067C474.32 403.618 472.471 408.706 472.471 408.706" stroke="#135789" stroke-miterlimit="10" stroke-linecap="round" stroke-linejoin="round"/>
<path d="M492.823 391.128C492.823 391.128 502.537 388.353 507.624 392.979" stroke="#135789" stroke-miterlimit="10" stroke-linecap="round" stroke-linejoin="round"/>
<path d="M510.418 328.627C505.381 325.648 499.813 325.584 497.083 322.44C494.354 319.295 499.712 317.706 502.58 318.893C505.447 320.079 512.091 323.499 513.35 324.244C514.61 324.989 513.738 314.106 511.405 310.006C509.071 305.906 502.683 303.52 499.494 306.87C492.765 313.937 482.27 304.671 482.988 299.147C483.706 293.624 478.55 287.685 467.484 291.168C456.418 294.65 460.544 296.58 460.544 296.58C460.544 296.58 468.402 301.398 473.438 304.377C478.475 307.356 486.819 309.912 485.027 312.081C483.234 314.249 478.409 312.926 474.375 309.69C470.34 306.454 458.752 298.75 457.565 301.617C456.379 304.484 452.215 312.388 452.215 312.388C452.215 312.388 460.651 313.64 467.388 315.755C474.124 317.869 475.502 321.573 470.236 321.858C464.969 322.142 455.411 318.188 452.432 323.224C449.454 328.259 451.492 341.192 451.492 341.192C451.492 341.192 461.135 334.659 466.052 334.679C470.969 334.698 467.826 337.427 462.328 340.973C456.831 344.52 455.434 345.733 455.434 345.733L460.431 358.546C460.431 358.546 468.704 357.49 471.966 357.721C475.228 357.951 475.228 357.951 475.228 357.951C475.228 357.951 475.194 344.505 479.082 340.516C482.97 336.528 483.631 345.755 484.448 348.109C485.266 350.462 482.801 357.502 482.801 357.502C482.801 357.502 492.352 352.274 495.449 350.197C498.546 348.12 498.546 348.12 498.546 348.12C498.546 348.12 494.972 338.359 492.547 335.564C490.122 332.77 486.812 333.192 489.606 330.766C492.401 328.34 496.573 329.618 498.953 333.065C501.334 336.512 504.135 343.268 504.135 343.268C504.135 343.268 507.701 343.848 512.334 338.6C516.97 333.352 515.453 331.606 510.418 328.627ZM466.641 343.433C462.941 341.583 471.729 337.883 471.729 337.883C474.968 337.42 470.342 345.283 466.641 343.433ZM472.873 326.163C471.296 325.374 476.028 323.797 476.028 323.797C482.864 325.113 474.45 326.952 472.873 326.163Z" fill="#4F9ED9"/>
<path d="M466.542 352.856C465.581 353.874 464.592 354.863 463.575 355.816" stroke="#135789" stroke-miterlimit="10" stroke-linecap="round" stroke-linejoin="round"/>
<path d="M485.527 324.068C481.987 331.444 476.633 341.067 469.59 349.435" stroke="#135789" stroke-miterlimit="10" stroke-linecap="round" stroke-linejoin="round"/>
<path d="M487.24 320.377C489.458 315.417 490.596 312.144 490.596 312.144C490.596 312.144 494.722 314.074 498.729 313.046C502.736 312.018 505.953 312.901 505.953 312.901" stroke="#135789" stroke-miterlimit="10" stroke-linecap="round" stroke-linejoin="round"/>
<path d="M483.214 319.165C484.262 318.256 468.105 310.23 468.105 310.23" stroke="#135789" stroke-miterlimit="10" stroke-linecap="round" stroke-linejoin="round"/>
<path d="M491.725 324.028C491.725 324.028 499.371 327.191 503.616 332.081" stroke="#135789" stroke-miterlimit="10" stroke-linecap="round" stroke-linejoin="round"/>
<path d="M481.522 329.21C481.522 329.21 476.348 328.189 469.124 328.336C461.899 328.482 456.844 330.42 456.844 330.42" stroke="#135789" stroke-miterlimit="10" stroke-linecap="round" stroke-linejoin="round"/>
<path d="M483.46 334.266C483.46 334.266 491.924 339.782 491.766 346.657" stroke="#135789" stroke-miterlimit="10" stroke-linecap="round" stroke-linejoin="round"/>
<path d="M438.542 392.721C434.489 390.324 430.006 390.272 427.81 387.742C425.615 385.212 429.926 383.933 432.234 384.888C434.542 385.842 439.889 388.595 440.902 389.194C441.915 389.794 441.214 381.035 439.336 377.736C437.458 374.437 432.317 372.516 429.75 375.212C424.335 380.899 415.89 373.442 416.467 368.997C417.044 364.552 412.897 359.774 403.991 362.575C395.085 365.377 398.406 366.931 398.406 366.931C398.406 366.931 404.729 370.807 408.783 373.206C412.835 375.602 419.551 377.66 418.108 379.405C416.666 381.15 412.783 380.085 409.536 377.481C406.289 374.877 396.963 368.677 396.009 370.985C395.054 373.292 391.703 379.653 391.703 379.653C391.703 379.653 398.493 380.659 403.914 382.361C409.335 384.063 410.444 387.044 406.206 387.273C401.968 387.501 394.276 384.32 391.879 388.373C389.482 392.425 391.122 402.833 391.122 402.833C391.122 402.833 398.882 397.575 402.839 397.59C406.796 397.606 404.266 399.801 399.842 402.657C395.419 405.51 394.295 406.488 394.295 406.488L398.317 416.799C398.317 416.799 404.973 415.949 407.6 416.135C410.225 416.32 410.225 416.32 410.225 416.32C410.225 416.32 410.198 405.5 413.326 402.29C416.455 399.08 416.987 406.507 417.645 408.4C418.304 410.294 416.321 415.959 416.321 415.959C416.321 415.959 424.007 411.752 426.499 410.081C428.992 408.41 428.992 408.41 428.992 408.41C428.992 408.41 426.116 400.555 424.164 398.305C422.212 396.056 419.548 396.396 421.798 394.445C424.046 392.493 427.405 393.521 429.319 396.295C431.234 399.069 433.49 404.506 433.49 404.506C433.49 404.506 436.359 404.973 440.088 400.75C443.814 396.524 442.594 395.118 438.542 392.721ZM403.313 404.637C400.335 403.148 407.408 400.17 407.408 400.17C410.013 399.798 406.29 406.126 403.313 404.637ZM408.327 390.74C407.057 390.105 410.865 388.836 410.865 388.836C416.367 389.894 409.597 391.374 408.327 390.74Z" fill="#4F9ED9"/>
<path d="M403.233 412.22C402.459 413.039 401.663 413.835 400.845 414.602" stroke="#135789" stroke-miterlimit="10" stroke-linecap="round" stroke-linejoin="round"/>
<path d="M418.511 389.055C415.662 394.99 411.353 402.734 405.686 409.468" stroke="#135789" stroke-miterlimit="10" stroke-linecap="round" stroke-linejoin="round"/>
<path d="M419.888 386.082C421.673 382.09 422.589 379.457 422.589 379.457C422.589 379.457 425.91 381.01 429.135 380.183C432.36 379.355 434.949 380.065 434.949 380.065" stroke="#135789" stroke-miterlimit="10" stroke-linecap="round" stroke-linejoin="round"/>
<path d="M404.491 377.916C404.491 377.916 417.493 384.374 416.65 385.106" stroke="#135789" stroke-miterlimit="10" stroke-linecap="round" stroke-linejoin="round"/>
<path d="M423.498 389.021C423.498 389.021 429.651 391.567 433.067 395.501" stroke="#135789" stroke-miterlimit="10" stroke-linecap="round" stroke-linejoin="round"/>
<path d="M415.287 393.191C415.287 393.191 411.123 392.37 405.309 392.486C399.495 392.604 395.427 394.165 395.427 394.165" stroke="#135789" stroke-miterlimit="10" stroke-linecap="round" stroke-linejoin="round"/>
<path d="M416.847 397.259C416.847 397.259 423.658 401.698 423.532 407.23" stroke="#135789" stroke-miterlimit="10" stroke-linecap="round" stroke-linejoin="round"/>
<path d="M422.015 316.337C422.015 316.337 416.927 320.037 413.689 316.337C410.45 312.637 415.076 305.235 410.45 302.46C405.824 299.684 398.424 304.772 398.424 304.772C398.424 304.772 404.438 306.16 404.438 309.398C404.438 312.637 401.662 314.024 401.199 312.637C400.736 311.249 397.499 304.31 392.873 307.549C388.247 310.787 387.784 315.412 387.784 315.412C387.784 315.412 398.886 313.561 399.811 317.724C400.735 321.887 395.185 317.261 390.56 317.261C385.934 317.261 381.771 318.186 382.234 320.962C382.696 323.737 382.234 328.363 382.234 328.363C382.234 328.363 385.934 324.663 391.023 324.663C396.112 324.663 396.112 327.901 391.486 327.901C386.86 327.901 383.159 332.527 383.159 332.527C383.159 332.527 387.785 339.466 393.336 342.704C398.887 345.942 400.738 344.555 401.201 341.779C401.662 339.004 399.813 332.065 403.051 332.065C406.29 332.065 398.425 344.555 402.588 345.018C406.751 345.481 409.99 344.093 410.914 341.318C411.839 338.542 411.839 338.542 411.839 338.542C411.839 338.542 409.989 331.604 410.452 328.828C410.913 326.053 411.839 328.828 412.764 332.067C413.689 335.305 414.615 343.168 416.002 342.705C417.39 342.242 421.553 336.23 422.478 333.916C423.403 331.604 416.002 325.127 416.002 323.739C416.002 322.352 421.553 324.664 422.478 326.052C423.403 327.439 424.328 329.29 424.328 329.29C424.328 329.29 427.567 326.978 427.104 320.501C426.641 314.023 422.015 316.337 422.015 316.337Z" fill="#4F9ED9"/>
<path d="M396.102 333.114C399.299 328.648 404.041 322.579 408.138 319.575" stroke="#135789" stroke-miterlimit="10" stroke-linecap="round" stroke-linejoin="round"/>
<path d="M392.411 338.54C392.411 338.54 393.224 337.257 394.551 335.328" stroke="#135789" stroke-miterlimit="10" stroke-linecap="round" stroke-linejoin="round"/>
<path d="M410.45 320.5C410.45 320.5 416 327.438 417.388 334.84" stroke="#135789" stroke-miterlimit="10" stroke-linecap="round" stroke-linejoin="round"/>
<path d="M404.899 325.125C404.899 325.125 406.287 324.2 406.287 333.451" stroke="#135789" stroke-miterlimit="10" stroke-linecap="round" stroke-linejoin="round"/>
<path d="M408.138 316.336C408.138 316.336 410.914 313.561 409.063 308.473" stroke="#135789" stroke-miterlimit="10" stroke-linecap="round" stroke-linejoin="round"/>
<path d="M404.437 320.961L402.124 317.261" stroke="#135789" stroke-miterlimit="10" stroke-linecap="round" stroke-linejoin="round"/>
<path d="M400.273 325.125C400.273 325.125 393.335 320.499 389.172 320.499" stroke="#135789" stroke-miterlimit="10" stroke-linecap="round" stroke-linejoin="round"/>
<path d="M468.732 419.971H432.972V471.444H468.732V419.971Z" fill="#135789" stroke="#135789" stroke-width="2" stroke-miterlimit="10" stroke-linecap="round" stroke-linejoin="round"/>
</svg>
