<svg width="18" height="18" viewBox="0 0 18 18" fill="none" xmlns="http://www.w3.org/2000/svg">
<path d="M14.5493 0H3.45069C1.54807 0 0 1.54807 0 3.45069V14.5493C0 16.4519 1.54807 17.9994 3.45069 17.9994H14.5493C16.4513 17.9994 18 16.4513 18 14.5493V3.45069C17.9994 1.54807 16.4513 0 14.5493 0ZM16.9122 14.5493C16.9122 15.8522 15.8522 16.9128 14.5493 16.9128H3.45069C2.14785 16.9128 1.08782 15.8528 1.08782 14.5493V3.45069C1.08721 2.14724 2.14724 1.08721 3.45069 1.08721H14.5493C15.8522 1.08721 16.9122 2.14724 16.9122 3.45069V14.5493Z" fill="#66696F"/>
<path d="M11.0933 11.2871H6.90628C5.42526 11.2871 4.20577 12.445 4.12966 13.9242C4.11396 14.2244 4.34409 14.4793 4.64488 14.495C4.94689 14.5101 5.19996 14.28 5.21506 13.9798C5.26157 13.0792 6.0045 12.3737 6.90628 12.3737H11.0933C11.995 12.3737 12.738 13.0792 12.7845 13.9798C12.799 14.2697 13.0394 14.4956 13.3263 14.4956C13.3359 14.4956 13.345 14.4956 13.3547 14.495C13.6548 14.4793 13.8856 14.2238 13.8699 13.9242C13.7938 12.445 12.5743 11.2871 11.0933 11.2871Z" fill="#66696F"/>
<path d="M9.00032 10.0664C10.8093 10.0664 12.2819 8.59447 12.2819 6.78547C12.2819 4.97647 10.8093 3.50391 9.00032 3.50391C7.19132 3.50391 5.71875 4.97587 5.71875 6.78487C5.71875 8.59387 7.19132 10.0664 9.00032 10.0664ZM9.00032 4.59112C10.2101 4.59112 11.1941 5.57504 11.1941 6.78487C11.1941 7.9947 10.2101 8.97923 9.00032 8.97923C7.79049 8.97923 6.80657 7.9953 6.80657 6.78547C6.80657 5.57565 7.79049 4.59112 9.00032 4.59112Z" fill="#66696F"/>
</svg>
