<svg width="33" height="33" viewBox="0 0 33 33" fill="none" xmlns="http://www.w3.org/2000/svg">
<path d="M26.6746 0H6.32648C2.83822 0 0 2.83822 0 6.32648V26.6746C0 30.1629 2.83822 33 6.32648 33H26.6746C30.1618 33 33.0011 30.1618 33.0011 26.6746V6.32648C33 2.83822 30.1618 0 26.6746 0ZM31.0067 26.6746C31.0067 29.0633 29.0633 31.0078 26.6746 31.0078H6.32648C3.93785 31.0078 1.9944 29.0644 1.9944 26.6746V6.32648C1.99329 3.93675 3.93675 1.99329 6.32648 1.99329H26.6746C29.0633 1.99329 31.0067 3.93675 31.0067 6.32648V26.6746Z" fill="#1172BA"/>
<path d="M20.3387 20.6934H12.6623C9.94704 20.6934 7.71123 22.8162 7.5717 25.5282C7.54291 26.0786 7.96482 26.5459 8.5163 26.5747C9.06999 26.6024 9.53399 26.1804 9.56167 25.6301C9.64694 23.979 11.009 22.6855 12.6623 22.6855H20.3387C21.992 22.6855 23.3541 23.979 23.4394 25.6301C23.466 26.1616 23.9067 26.5758 24.4327 26.5758C24.4504 26.5758 24.467 26.5758 24.4848 26.5747C25.0351 26.5459 25.4581 26.0775 25.4294 25.5282C25.2898 22.8162 23.054 20.6934 20.3387 20.6934Z" fill="#1172BA"/>
<path d="M16.5008 18.4555C19.8174 18.4555 22.5172 15.7568 22.5172 12.4402C22.5172 9.12363 19.8174 6.42383 16.5008 6.42383C13.1842 6.42383 10.4844 9.12252 10.4844 12.4391C10.4844 15.7557 13.1842 18.4555 16.5008 18.4555ZM16.5008 8.41712C18.7189 8.41712 20.5228 10.221 20.5228 12.4391C20.5228 14.6572 18.7189 16.4623 16.5008 16.4623C14.2827 16.4623 12.4788 14.6583 12.4788 12.4402C12.4788 10.2222 14.2827 8.41712 16.5008 8.41712Z" fill="#1172BA"/>
</svg>
