<svg width="33" height="33" viewBox="0 0 33 33" fill="none" xmlns="http://www.w3.org/2000/svg">
<path d="M13.8799 31.7746C13.8388 32.7673 15.0423 33.2919 15.7521 32.5873L19.2289 29.1104C21.2296 27.1097 22.2788 24.4507 22.2891 21.7607C19.6095 23.8335 16.6933 25.7622 14.0599 27.1817L13.8799 31.7746Z" fill="#1172BA"/>
<path d="M1.14031 19.0347L5.73327 18.8547C7.15275 16.2162 9.08147 13.3051 11.1542 10.6255C8.46947 10.6358 5.81042 11.6747 3.80456 13.6806L0.322584 17.1625C-0.382091 17.8672 0.147663 19.0707 1.14031 19.0347Z" fill="#1172BA"/>
<path d="M16.262 6.32078C12.2863 10.2965 7.72425 16.6587 5.53837 21.5808C5.26578 22.2031 5.40464 22.9283 5.88811 23.4118L9.50381 27.0275C9.98727 27.5109 10.7125 27.6498 11.3348 27.3772C16.2569 25.1913 22.6191 20.6241 26.5948 16.6535C28.5492 14.694 30.0253 12.2252 31.0643 9.54044L23.3751 1.85645C20.9167 2.79766 18.3707 4.21205 16.262 6.32078ZM24.8615 13.079C23.4471 14.4934 21.1686 14.4111 19.8366 13.079C18.4479 11.6903 18.4479 9.44277 19.8366 8.05405C21.2252 6.66532 23.4728 6.66537 24.8615 8.05405C26.245 9.43758 26.2502 11.6904 24.8615 13.079Z" fill="#1172BA"/>
<path d="M31.702 0.00347493C30.1709 0.122284 27.4285 0.467395 24.4434 1.4693L26.0275 3.05342C26.2118 3.23775 31.5972 8.62318 31.4438 8.46976C32.4468 5.48514 32.7913 2.74276 32.9102 1.21162C32.9636 0.521348 32.3927 -0.0500148 31.702 0.00347493Z" fill="#1172BA"/>
<path d="M3.98931 29.3319L6.24199 27.0792C6.44289 26.8783 6.44289 26.5528 6.24199 26.3519C6.0411 26.1509 5.71563 26.151 5.51469 26.3519L3.262 28.6045C3.0611 28.8054 3.0611 29.1309 3.262 29.3319C3.46295 29.5328 3.78841 29.5328 3.98931 29.3319Z" fill="#1172BA"/>
<path d="M3.38472 25.6009C3.18382 25.4 2.85836 25.4 2.65741 25.6009L0.258093 27.9997C0.0571982 28.2004 0.0571982 28.5261 0.258093 28.727C0.458988 28.9279 0.784452 28.9279 0.985399 28.727L3.38472 26.3282C3.58567 26.1275 3.58567 25.8018 3.38472 25.6009Z" fill="#1172BA"/>
<path d="M6.44859 29.0257L3.35184 32.1219C3.15095 32.3225 3.15095 32.6483 3.35184 32.8492C3.55274 33.0501 3.8782 33.0501 4.07915 32.8492L7.17589 29.753C7.37679 29.5523 7.37679 29.2266 7.17589 29.0257C6.97495 28.8248 6.64948 28.8248 6.44859 29.0257Z" fill="#1172BA"/>
</svg>
