<svg width="64" height="64" viewBox="0 0 64 64" fill="none" xmlns="http://www.w3.org/2000/svg">
<path d="M26.92 61.6239C26.8402 63.549 29.1743 64.5664 30.5508 63.1999L37.2937 56.4569C41.1739 52.5768 43.2088 47.4198 43.2287 42.203C38.0319 46.2228 32.3762 49.9634 27.2691 52.7164L26.92 61.6239Z" fill="#71B5E7"/>
<path d="M2.21151 36.9164L11.1191 36.5672C13.872 31.4502 17.6125 25.8045 21.6325 20.6076C16.4256 20.6276 11.2687 22.6425 7.37853 26.5326L0.625617 33.2855C-0.741025 34.6522 0.286376 36.9862 2.21151 36.9164Z" fill="#71B5E7"/>
<path d="M31.5376 12.2587C23.8271 19.9692 14.9795 32.308 10.7402 41.8539C10.2116 43.0608 10.4809 44.4673 11.4185 45.4049L18.4308 52.4171C19.3684 53.3548 20.7749 53.6241 21.9818 53.0954C31.5277 48.8562 43.8664 39.9986 51.5769 32.298C55.3674 28.4977 58.2301 23.7098 60.245 18.5029L45.3327 3.60065C40.5648 5.42603 35.6273 8.16909 31.5376 12.2587ZM48.2154 25.3656C45.4724 28.1086 41.0535 27.949 38.4701 25.3656C35.7769 22.6724 35.7769 18.3135 38.4701 15.6202C41.1633 12.927 45.5223 12.9271 48.2154 15.6202C50.8987 18.3034 50.9086 22.6725 48.2154 25.3656Z" fill="#71B5E7"/>
<path d="M61.4836 0.00673926C58.5141 0.237156 53.1956 0.906464 47.4062 2.84955L50.4785 5.92178C50.836 6.27927 61.2805 16.7237 60.9829 16.4262C62.928 10.6378 63.5963 5.3193 63.8267 2.34981C63.9304 1.0111 62.8231 -0.0969983 61.4836 0.00673926Z" fill="#71B5E7"/>
<path d="M7.7379 56.8861L12.1067 52.5173C12.4964 52.1277 12.4964 51.4965 12.1067 51.1068C11.7171 50.717 11.0859 50.7171 10.6962 51.1068L6.32737 55.4756C5.93775 55.8652 5.93775 56.4964 6.32737 56.8861C6.71708 57.2759 7.34829 57.2759 7.7379 56.8861Z" fill="#71B5E7"/>
<path d="M6.56691 49.6511C6.17729 49.2614 5.54609 49.2614 5.15638 49.6511L0.503148 54.3034C0.113534 54.6925 0.113534 55.3242 0.503148 55.7139C0.892763 56.1035 1.52397 56.1035 1.91368 55.7139L6.56691 51.0616C6.95662 50.6725 6.95662 50.0407 6.56691 49.6511Z" fill="#71B5E7"/>
<path d="M12.509 56.2925L6.50315 62.2973C6.11353 62.6864 6.11353 63.3181 6.50315 63.7078C6.89276 64.0974 7.52397 64.0974 7.91368 63.7078L13.9195 57.703C14.3091 57.3139 14.3091 56.6822 13.9195 56.2925C13.5298 55.9028 12.8986 55.9028 12.509 56.2925Z" fill="#71B5E7"/>
</svg>
