<svg width="69" height="75" viewBox="0 0 69 75" fill="none" xmlns="http://www.w3.org/2000/svg">
<circle cx="31" cy="31" r="31" fill="#EDF6FD"/>
<path d="M64.4776 26.0855C67.5376 22.9212 71.1258 16.4232 67.4282 12.5921C66.1877 11.352 64.4803 10.7973 62.7516 11.0667C59.3888 11.5907 56.3395 13.1375 53.9331 15.5431L46.4913 22.9825L42.036 22.0131C43.9582 19.0701 39.9832 15.7805 37.4501 18.274L35.1998 20.5236L29.9202 19.3742C33.2096 16.6259 29.2906 12.0134 26.0812 14.803L23.0132 17.87L12.0859 15.4911C11.2269 15.3031 10.3398 15.5644 9.71421 16.1872L7.5146 18.3861C6.30475 19.5288 6.61021 21.7024 8.09085 22.4651L33.7538 36.6372L20.7629 50.8467L7.56929 51.5481L5.52575 53.5896C4.59602 54.4684 4.95484 56.1619 6.16602 56.5793L18.6554 61.3477L23.4267 73.8343C23.8483 75.0411 25.5343 75.4078 26.4187 74.4717L28.4596 72.4315L29.1612 59.2409L43.3753 46.2542L57.5427 71.8995C58.3057 73.3796 60.4786 73.6863 61.6231 72.4769C62.8543 71.058 64.9899 69.9099 64.5203 67.9084L62.1446 56.9953L65.2166 53.9256C65.7782 53.3643 66.0877 52.6175 66.0877 51.8228C66.0757 48.9131 62.3861 47.813 60.6413 50.0893L59.4928 44.8114L61.7445 42.5605C64.2362 40.0176 60.9828 36.1092 58.0055 37.9827L57.0345 33.5223L64.4776 26.0855Z" fill="#71B5E7"/>
</svg>
