<svg width="33" height="33" viewBox="0 0 33 33" fill="none" xmlns="http://www.w3.org/2000/svg">
<path d="M30.6682 7.77846C32.246 6.14686 34.0961 2.79633 32.1896 0.820946C31.5499 0.181507 30.6695 -0.104522 29.7782 0.0343668C28.0442 0.304582 26.4719 1.10216 25.2311 2.34254L21.3939 6.17849L19.0967 5.67862C20.0878 4.16116 18.0382 2.46493 16.7321 3.75068L15.5718 4.91061L12.8495 4.31792C14.5456 2.90084 12.5248 0.522541 10.87 1.96094L9.28807 3.54235L3.65366 2.31572C3.21072 2.21878 2.75334 2.35354 2.43076 2.67463L1.29659 3.80844C0.672761 4.39768 0.830266 5.51842 1.59372 5.91171L14.8262 13.2192L8.12776 20.5459L1.32479 20.9076L0.271089 21.9603C-0.208304 22.4134 -0.023287 23.2866 0.60123 23.5018L7.04105 25.9606L9.50129 32.399C9.71863 33.0212 10.588 33.2103 11.044 32.7276L12.0963 31.6756L12.4581 24.8742L19.7873 18.1779L27.0923 31.4013C27.4857 32.1645 28.6061 32.3226 29.1963 31.699C29.8311 30.9674 30.9323 30.3754 30.6902 29.3434L29.4652 23.7163L31.0492 22.1335C31.3388 21.8441 31.4983 21.459 31.4983 21.0492C31.4921 19.549 29.5897 18.9817 28.6901 20.1554L28.0979 17.434L29.2589 16.2734C30.5437 14.9622 28.8661 12.9469 27.331 13.913L26.8303 11.613L30.6682 7.77846Z" fill="#1172BA"/>
</svg>
