<svg width="18" height="17" viewBox="0 0 18 17" fill="none" xmlns="http://www.w3.org/2000/svg">
<path d="M17.6187 16.0714H0.381317C0.170734 16.0714 0 15.9009 0 15.6906C0 15.4804 0.170734 15.3099 0.381317 15.3099H17.6187C17.8293 15.3099 18 15.4804 18 15.6906C18 15.9009 17.8293 16.0714 17.6187 16.0714ZM16.9194 14.3359C16.7089 14.3359 16.5381 14.1654 16.5381 13.9551V5.54055H13.4633C13.2527 5.54055 13.082 5.37006 13.082 5.15977C13.082 4.94949 13.2527 4.77899 13.4633 4.77899H16.9194C17.13 4.77899 17.3008 4.94949 17.3008 5.15977V13.9551C17.3008 14.1654 17.13 14.3359 16.9194 14.3359ZM15.0189 14.3359H12.0095C11.7989 14.3359 11.6282 14.1654 11.6282 13.9551V8.54115C11.6282 8.33087 11.7989 8.16037 12.0095 8.16037H15.0189C15.2295 8.16037 15.4002 8.33087 15.4002 8.54115V13.9551C15.4002 14.1654 15.2295 14.3359 15.0189 14.3359ZM12.3908 13.5743H14.6376V8.92189H12.3908V13.5743ZM10.4351 14.3359C10.2245 14.3359 10.0537 14.1654 10.0537 13.9551V9.15488H7.94621V13.9551C7.94621 14.1654 7.77547 14.3359 7.56489 14.3359C7.35431 14.3359 7.18357 14.1654 7.18357 13.9551V8.77419C7.18357 8.56391 7.35431 8.39341 7.56489 8.39341C7.58048 8.39341 7.59587 8.39436 7.61098 8.39617C7.62628 8.39427 7.64182 8.39332 7.65765 8.39332H10.3423C10.3581 8.39332 10.3736 8.39427 10.3889 8.39617C10.404 8.39431 10.4194 8.39341 10.435 8.39341C10.6456 8.39341 10.8163 8.56391 10.8163 8.77419V13.9551C10.8164 14.1654 10.6456 14.3359 10.4351 14.3359ZM5.99058 14.3359H2.98109C2.7705 14.3359 2.59977 14.1654 2.59977 13.9551V8.54115C2.59977 8.33087 2.7705 8.16037 2.98109 8.16037H5.99058C6.20116 8.16037 6.3719 8.33087 6.3719 8.54115V13.9551C6.3719 14.1654 6.20116 14.3359 5.99058 14.3359ZM3.3624 13.5743H5.60926V8.92189H3.3624V13.5743ZM1.08056 14.3359C0.869974 14.3359 0.699239 14.1654 0.699239 13.9551V5.15977C0.699239 4.94949 0.869974 4.77899 1.08056 4.77899H4.53671C4.7473 4.77899 4.91803 4.94949 4.91803 5.15977C4.91803 5.37006 4.7473 5.54055 4.53671 5.54055H1.46187V13.9551C1.46187 14.1654 1.29114 14.3359 1.08056 14.3359ZM8.99998 12.3185C8.78939 12.3185 8.61866 12.1481 8.61866 11.9378V11.1951C8.61866 10.9849 8.78939 10.8144 8.99998 10.8144C9.21056 10.8144 9.38129 10.9849 9.38129 11.1951V11.9378C9.38129 12.1481 9.21056 12.3185 8.99998 12.3185ZM12.1424 7.03764H5.85755C5.64696 7.03764 5.47623 6.86715 5.47623 6.65686V0.380781C5.47623 0.170495 5.64696 0 5.85755 0H12.1424C12.353 0 12.5237 0.170495 12.5237 0.380781V6.65686C12.5237 6.86715 12.353 7.03764 12.1424 7.03764ZM6.23886 6.27608H11.7611V0.761562H6.23886V6.27608ZM9.65265 5.49686H8.34735C8.13677 5.49686 7.96604 5.32636 7.96604 5.11608V4.55128H7.40054C7.18996 4.55128 7.01923 4.38079 7.01923 4.1705V2.86704C7.01923 2.65676 7.18996 2.48626 7.40054 2.48626H7.96604V1.92156C7.96604 1.71128 8.13677 1.54078 8.34735 1.54078H9.65265C9.86323 1.54078 10.034 1.71128 10.034 1.92156V2.48626H10.5995C10.8101 2.48626 10.9808 2.65676 10.9808 2.86704V4.17055C10.9808 4.38084 10.8101 4.55133 10.5995 4.55133H10.034V5.11612C10.034 5.32641 9.86323 5.49686 9.65265 5.49686ZM8.72867 4.7353H9.27133V4.1705C9.27133 3.96022 9.44206 3.78972 9.65265 3.78972H10.2182V3.24782H9.65265C9.44206 3.24782 9.27133 3.07733 9.27133 2.86704V2.30234H8.72867V2.86704C8.72867 3.07733 8.55793 3.24782 8.34735 3.24782H7.78186V3.78977H8.34735C8.55793 3.78977 8.72867 3.96026 8.72867 4.17055V4.7353Z" fill="#66696F"/>
</svg>
