<svg width="18" height="20" viewBox="0 0 18 20" fill="none" xmlns="http://www.w3.org/2000/svg">
<path d="M12.8016 4.75255C12.2081 4.21803 11.5088 3.81421 10.7492 3.56729C9.98959 3.32037 9.18655 3.23585 8.39217 3.31922C7.59779 3.40259 6.8298 3.65198 6.138 4.05123C5.44619 4.45048 4.84602 4.99066 4.3764 5.63676C3.90678 6.28286 3.57819 7.02045 3.41194 7.8017C3.24569 8.58295 3.2455 9.39042 3.41136 10.1718C3.57723 10.9531 3.90546 11.6908 4.37477 12.3372C4.84407 12.9835 5.44398 13.524 6.13559 13.9236C6.18507 13.9485 6.22667 13.9866 6.25579 14.0338C6.28492 14.0809 6.30042 14.1352 6.30059 14.1906V14.7006C6.30164 14.9065 6.34506 15.1099 6.42815 15.2983C6.51125 15.4867 6.63224 15.656 6.78359 15.7956C6.6656 16.012 6.60274 16.2541 6.60059 16.5006V17.1006C6.60059 17.4984 6.75863 17.8799 7.03993 18.1612C7.32123 18.4425 7.70277 18.6006 8.10059 18.6006H8.40059C8.40059 18.7597 8.4638 18.9123 8.57633 19.0248C8.68885 19.1373 8.84146 19.2006 9.00059 19.2006C9.15972 19.2006 9.31233 19.1373 9.42485 19.0248C9.53738 18.9123 9.60059 18.7597 9.60059 18.6006H9.90059C10.2984 18.6006 10.6799 18.4425 10.9613 18.1612C11.2426 17.8799 11.4006 17.4984 11.4006 17.1006V16.5006C11.3984 16.2541 11.3356 16.012 11.2176 15.7956C11.3689 15.656 11.4899 15.4867 11.573 15.2983C11.6561 15.1099 11.6995 14.9065 11.7006 14.7006V14.1906C11.701 14.136 11.7163 14.0826 11.7449 14.036C11.7734 13.9895 11.8141 13.9517 11.8626 13.9266C12.6402 13.4746 13.2998 12.8451 13.7876 12.0895C14.2753 11.3338 14.5773 10.4735 14.6689 9.57874C14.7605 8.68402 14.639 7.78032 14.3145 6.94153C13.99 6.10273 13.4715 5.35263 12.8016 4.75255ZM10.2006 17.1006C10.2006 17.1801 10.169 17.2564 10.1127 17.3127C10.0565 17.3689 9.98015 17.4006 9.90059 17.4006H8.10059C8.02103 17.4006 7.94472 17.3689 7.88846 17.3127C7.8322 17.2564 7.80059 17.1801 7.80059 17.1006V16.5006C7.80059 16.421 7.8322 16.3447 7.88846 16.2884C7.94472 16.2322 8.02103 16.2006 8.10059 16.2006H9.90059C9.98015 16.2006 10.0565 16.2322 10.1127 16.2884C10.169 16.3447 10.2006 16.421 10.2006 16.5006V17.1006ZM11.2596 12.9006C11.0324 13.0317 10.8431 13.2194 10.7101 13.4455C10.577 13.6716 10.5049 13.9283 10.5006 14.1906V14.7006C10.5006 14.7801 10.469 14.8564 10.4127 14.9127C10.3565 14.9689 10.2802 15.0006 10.2006 15.0006H7.80059C7.72103 15.0006 7.64472 14.9689 7.58846 14.9127C7.5322 14.8564 7.50059 14.7801 7.50059 14.7006V14.1906C7.49632 13.9283 7.42415 13.6716 7.29113 13.4455C7.15811 13.2194 6.96878 13.0317 6.74159 12.9006C5.88159 12.4055 5.20933 11.6401 4.82942 10.7234C4.4495 9.8067 4.38324 8.79013 4.64095 7.83188C4.89865 6.87362 5.46586 6.02741 6.25433 5.42492C7.04279 4.82244 8.00829 4.49746 9.00059 4.50055C9.99237 4.49879 10.957 4.82472 11.7444 5.42768C12.5319 6.03064 13.0981 6.87686 13.355 7.83479C13.6119 8.79272 13.5452 9.80869 13.1652 10.7248C12.7852 11.6409 12.1131 12.4058 11.2536 12.9006H11.2596Z" fill="#66696F"/>
<path d="M11.6495 9.81039C11.5463 9.75149 11.428 9.72454 11.3095 9.73295C11.191 9.74136 11.0776 9.78476 10.9838 9.85764C10.89 9.93053 10.82 10.0296 10.7825 10.1424C10.7451 10.2551 10.742 10.3764 10.7735 10.4909C10.8051 10.6055 10.87 10.708 10.9599 10.7856C11.0498 10.8633 11.1608 10.9124 11.2787 10.927C11.3966 10.9415 11.5161 10.9206 11.6222 10.8671C11.7283 10.8136 11.8161 10.7298 11.8745 10.6264C11.9524 10.4883 11.9725 10.3249 11.9304 10.172C11.8882 10.019 11.7872 9.88904 11.6495 9.81039Z" fill="#66696F"/>
<path d="M8.61575 5.7214C8.45662 5.7389 8.31096 5.8189 8.21081 5.9438C8.11067 6.0687 8.06424 6.22827 8.08175 6.3874C8.09925 6.54653 8.17925 6.69219 8.30415 6.79233C8.42905 6.89248 8.58862 6.9389 8.74775 6.9214C9.20694 6.8656 9.6717 6.96298 10.0699 7.19841C10.468 7.43385 10.7773 7.79416 10.9497 8.2234C11.0124 8.36614 11.128 8.47891 11.2723 8.53785C11.4166 8.59679 11.5782 8.59727 11.7228 8.53918C11.8675 8.48109 11.9838 8.369 12.0473 8.22663C12.1107 8.08426 12.1163 7.92279 12.0627 7.7764C11.7939 7.10262 11.3106 6.53619 10.6875 6.16472C10.0644 5.79325 9.33629 5.63744 8.61575 5.7214Z" fill="#66696F"/>
<path d="M9.00039 2.1C9.15952 2.1 9.31213 2.03679 9.42466 1.92426C9.53718 1.81174 9.60039 1.65913 9.60039 1.5V0.6C9.60039 0.44087 9.53718 0.288258 9.42466 0.175736C9.31213 0.0632141 9.15952 0 9.00039 0C8.84126 0 8.68865 0.0632141 8.57613 0.175736C8.4636 0.288258 8.40039 0.44087 8.40039 0.6V1.5C8.40039 1.65913 8.4636 1.81174 8.57613 1.92426C8.68865 2.03679 8.84126 2.1 9.00039 2.1Z" fill="#66696F"/>
<path d="M14.5156 2.63677L13.8796 3.27277C13.796 3.35685 13.7392 3.46381 13.7163 3.58015C13.6935 3.69648 13.7056 3.81698 13.7512 3.92643C13.7968 4.03587 13.8737 4.12936 13.9724 4.1951C14.0711 4.26083 14.187 4.29587 14.3056 4.29577C14.464 4.2959 14.6161 4.23335 14.7286 4.12177L15.3646 3.48577C15.4203 3.43002 15.4645 3.36384 15.4947 3.29101C15.5249 3.21817 15.5404 3.14011 15.5404 3.06127C15.5404 2.98243 15.5249 2.90437 15.4947 2.83153C15.4645 2.7587 15.4203 2.69252 15.3646 2.63677C15.3088 2.58102 15.2426 2.5368 15.1698 2.50664C15.097 2.47647 15.0189 2.46094 14.9401 2.46094C14.8612 2.46094 14.7832 2.47647 14.7103 2.50664C14.6375 2.5368 14.5713 2.58102 14.5156 2.63677Z" fill="#66696F"/>
<path d="M17.4004 8.40039H16.5004C16.3413 8.40039 16.1886 8.4636 16.0761 8.57613C15.9636 8.68865 15.9004 8.84126 15.9004 9.00039C15.9004 9.15952 15.9636 9.31213 16.0761 9.42465C16.1886 9.53718 16.3413 9.60039 16.5004 9.60039H17.4004C17.5595 9.60039 17.7121 9.53718 17.8247 9.42465C17.9372 9.31213 18.0004 9.15952 18.0004 9.00039C18.0004 8.84126 17.9372 8.68865 17.8247 8.57613C17.7121 8.4636 17.5595 8.40039 17.4004 8.40039Z" fill="#66696F"/>
<path d="M14.728 13.878C14.6154 13.7654 14.4627 13.7021 14.3035 13.7021C14.1442 13.7021 13.9915 13.7654 13.879 13.878C13.7664 13.9906 13.7031 14.1433 13.7031 14.3025C13.7031 14.4617 13.7664 14.6144 13.879 14.727L14.515 15.363C14.5708 15.4191 14.6372 15.4637 14.7103 15.4941C14.7834 15.5244 14.8618 15.54 14.941 15.54C15.0599 15.5401 15.1761 15.5048 15.275 15.4387C15.3738 15.3726 15.4508 15.2786 15.4961 15.1687C15.5415 15.0587 15.5531 14.9378 15.5296 14.8212C15.506 14.7047 15.4484 14.5977 15.364 14.514L14.728 13.878Z" fill="#66696F"/>
<path d="M3.27277 13.878L2.63677 14.514C2.52419 14.6266 2.46094 14.7793 2.46094 14.9385C2.46094 15.0977 2.52419 15.2504 2.63677 15.363C2.74936 15.4756 2.90205 15.5388 3.06127 15.5388C3.22049 15.5388 3.37319 15.4756 3.48577 15.363L4.12177 14.727C4.17752 14.6712 4.22174 14.6051 4.25191 14.5322C4.28208 14.4594 4.29761 14.3813 4.29761 14.3025C4.29761 14.2236 4.28208 14.1456 4.25191 14.0727C4.22174 13.9999 4.17752 13.9337 4.12177 13.878C4.06603 13.8222 3.99984 13.778 3.92701 13.7478C3.85417 13.7177 3.77611 13.7021 3.69727 13.7021C3.61843 13.7021 3.54037 13.7177 3.46753 13.7478C3.3947 13.778 3.32852 13.8222 3.27277 13.878Z" fill="#66696F"/>
<path d="M1.5 8.40039H0.6C0.44087 8.40039 0.288258 8.4636 0.175736 8.57613C0.0632141 8.68865 0 8.84126 0 9.00039C0 9.15952 0.0632141 9.31213 0.175736 9.42465C0.288258 9.53718 0.44087 9.60039 0.6 9.60039H1.5C1.65913 9.60039 1.81174 9.53718 1.92426 9.42465C2.03679 9.31213 2.1 9.15952 2.1 9.00039C2.1 8.84126 2.03679 8.68865 1.92426 8.57613C1.81174 8.4636 1.65913 8.40039 1.5 8.40039Z" fill="#66696F"/>
<path d="M3.27277 4.12177C3.38527 4.23335 3.53733 4.2959 3.69577 4.29577C3.81433 4.29587 3.93026 4.26083 4.02892 4.1951C4.12759 4.12936 4.20456 4.03587 4.25014 3.92643C4.29572 3.81698 4.30785 3.69648 4.285 3.58015C4.26215 3.46381 4.20535 3.35685 4.12177 3.27277L3.48577 2.63677C3.43002 2.58102 3.36384 2.5368 3.29101 2.50664C3.21817 2.47647 3.14011 2.46094 3.06127 2.46094C2.98243 2.46094 2.90437 2.47647 2.83153 2.50664C2.7587 2.5368 2.69252 2.58102 2.63677 2.63677C2.58102 2.69252 2.5368 2.7587 2.50664 2.83153C2.47647 2.90437 2.46094 2.98243 2.46094 3.06127C2.46094 3.14011 2.47647 3.21817 2.50664 3.29101C2.5368 3.36384 2.58102 3.43002 2.63677 3.48577L3.27277 4.12177Z" fill="#66696F"/>
</svg>
