<svg width="33" height="33" viewBox="0 0 33 33" fill="none" xmlns="http://www.w3.org/2000/svg">
<g clip-path="url(#clip0_791_486)">
<path d="M31.35 27.39C28.0674 25.6493 25.5495 24.6732 23.3081 24.299L23.54 23.98C23.65 23.87 23.705 23.705 23.65 23.54L23.1346 21.4784C23.3214 21.2143 23.4976 20.9413 23.6627 20.6606C25.7123 19.963 26.7488 18.7838 26.9229 17.0477C27.8232 17.0008 28.6 16.1973 28.6 15.29V11.165C28.6 10.2619 27.8815 9.46159 26.9403 9.40803C26.8192 6.23075 25.4182 0 16.5 0C7.58156 0 6.18073 6.23101 6.05963 9.40822C5.16676 9.46095 4.40002 10.2106 4.40002 11.165V15.29C4.40002 16.225 5.22502 17.05 6.21502 17.05H7.04002C7.34321 17.05 7.6346 16.9628 7.88842 16.8137C8.20031 18.4692 8.8886 20.0975 9.86545 21.4783L9.35002 23.54C9.35002 23.65 9.35002 23.815 9.46004 23.98L9.69201 24.2989C7.45059 24.6732 4.93266 25.6492 1.65006 27.3899C0.605021 27.885 0 28.93 0 30.085V32.45C0 32.78 0.219979 33 0.549978 33H13.75H13.97H19.03H19.25H32.45C32.78 33 32.9999 32.78 32.9999 32.45V30.085C33 28.985 32.34 27.94 31.35 27.39ZM16.503 26.1319L17.82 29.15H15.1616L16.503 26.1319ZM14.762 30.25H18.2359L18.5578 31.9H14.432L14.762 30.25ZM22.275 22.55L22.495 23.54L21.9331 24.3115C21.8973 24.3408 21.8641 24.3763 21.835 24.42L19.5472 27.5877L18.8213 28.5844L17.3386 25.2482C19.147 25.0277 20.7575 24.106 22.0486 22.7853C22.125 22.7084 22.2005 22.6302 22.275 22.55ZM24.4226 19.1287C24.7329 18.3738 24.9667 17.5893 25.1145 16.7984C25.324 16.9253 25.5624 17.01 25.8194 17.0388C25.7241 17.8162 25.3787 18.5502 24.4226 19.1287ZM27.445 11.11V15.235C27.445 15.565 27.17 15.895 26.785 15.895H25.96C25.63 15.895 25.3 15.62 25.3 15.235V14.85V11.11C25.3 10.78 25.575 10.45 25.96 10.45H26.785C27.115 10.45 27.445 10.725 27.445 11.11ZM16.5 1.10002C19.89 1.10002 25.5955 2.20668 25.8408 9.41396C25.6103 9.43761 25.3896 9.50767 25.1899 9.61531C24.5206 5.42708 20.8691 2.19998 16.5 2.19998C12.1315 2.19998 8.48036 5.42618 7.81037 9.61351C7.61365 9.50729 7.394 9.4371 7.15913 9.41377C7.40457 2.20668 13.11 1.10002 16.5 1.10002ZM7.64498 15.235C7.64498 15.565 7.36996 15.895 6.98498 15.895H6.15998C5.82998 15.895 5.49998 15.62 5.49998 15.235V11.11C5.49998 10.78 5.775 10.45 6.15998 10.45H6.98498C7.31498 10.45 7.64498 10.725 7.64498 11.11V15.235ZM8.79998 11C8.79998 6.765 12.265 3.3 16.5 3.3C20.735 3.3 24.2 6.765 24.2 11V14.85C24.2 16.6696 23.7263 18.3356 22.9583 19.7412C21.6455 20.1219 19.7569 20.35 17.05 20.35C16.72 20.35 16.5001 20.57 16.5001 20.9C16.5001 21.23 16.72 21.4499 17.05 21.4499C19.0317 21.4499 20.6889 21.3282 22.0461 21.0739C22.0124 21.1076 21.9787 21.1413 21.945 21.175C21.6683 21.5439 21.3763 21.8803 21.0711 22.1836C19.7761 23.3901 18.2315 24.1209 16.743 24.1933C16.6681 24.1612 16.5841 24.145 16.5 24.145C16.4154 24.145 16.3393 24.1615 16.2709 24.194C15.3598 24.1523 14.4274 23.8634 13.5435 23.3695C12.6481 22.855 11.8057 22.1134 11.055 21.175C11 21.12 10.945 21.065 10.89 21.01L10.8579 20.9993C9.62272 19.3793 8.79998 17.2482 8.79998 14.85V11ZM15.6613 25.2482L14.1786 28.5844L13.4527 27.5877L11.165 24.42C11.1474 24.4025 11.1281 24.3851 11.108 24.3681L10.505 23.54L10.7249 22.55C10.7994 22.6302 10.8749 22.7083 10.9511 22.7852C12.2424 24.1059 13.8529 25.0276 15.6613 25.2482ZM1.10002 30.085C1.10002 29.37 1.485 28.71 2.145 28.38C5.6508 26.5176 8.17446 25.5828 10.4226 25.3036L13.7047 29.8165L13.288 31.9H1.10002V30.085ZM31.9 31.9H19.712L19.2953 29.8165L22.613 25.2547C24.8532 25.5927 27.4222 26.5268 30.8551 28.325C31.5151 28.7099 31.9 29.3699 31.9 30.085L31.9 31.9Z" fill="#1172BA"/>
</g>
<defs>
<clipPath id="clip0_791_486">
<rect width="33" height="33" fill="white"/>
</clipPath>
</defs>
</svg>
