<svg width="13" height="13" viewBox="0 0 13 13" fill="none" xmlns="http://www.w3.org/2000/svg">
<path d="M0.92904 12.8022C0.691206 12.8022 0.453371 12.7115 0.272023 12.5301C-0.0906743 12.1674 -0.0906743 11.5792 0.272023 11.2161L11.2165 0.272023C11.5792 -0.0906743 12.1674 -0.0906743 12.5305 0.272023C12.8932 0.63472 12.8932 1.22299 12.5305 1.58606L1.58569 12.5301C1.40434 12.7115 1.16687 12.8022 0.92904 12.8022Z" fill="white"/>
<path d="M11.8731 12.8025C11.6353 12.8025 11.3975 12.7119 11.2161 12.5305L0.272023 1.58606C-0.0906743 1.22336 -0.0906743 0.635092 0.272023 0.272023C0.63472 -0.0906743 1.22299 -0.0906743 1.58606 0.272023L12.5305 11.2165C12.8932 11.5792 12.8932 12.1674 12.5305 12.5305C12.3488 12.7119 12.111 12.8025 11.8731 12.8025Z" fill="white"/>
</svg>
