<svg width="23" height="25" viewBox="0 0 23 25" fill="none" xmlns="http://www.w3.org/2000/svg">
<path d="M21.5909 4.54545H18.1818V3.40909C18.1818 2.50494 17.8226 1.63783 17.1833 0.998499C16.544 0.359171 15.6769 0 14.7727 0H7.95454C7.0504 0 6.18328 0.359171 5.54395 0.998499C4.90462 1.63783 4.54545 2.50494 4.54545 3.40909V4.54545H1.13636C0.834981 4.54545 0.545942 4.66518 0.332833 4.87829C0.119724 5.0914 0 5.38043 0 5.68182C0 5.9832 0.119724 6.27224 0.332833 6.48535C0.545942 6.69845 0.834981 6.81818 1.13636 6.81818H1.20455L2.01136 19.6704C2.10113 21.1155 2.73914 22.4717 3.79512 23.4622C4.85109 24.4528 6.24536 25.0028 7.69318 25H15.0568C16.5046 25.0028 17.8989 24.4528 18.9549 23.4622C20.0108 22.4717 20.6489 21.1155 20.7386 19.6704L21.5227 6.81818H21.5909C21.8923 6.81818 22.1813 6.69845 22.3944 6.48535C22.6075 6.27224 22.7273 5.9832 22.7273 5.68182C22.7273 5.38043 22.6075 5.0914 22.3944 4.87829C22.1813 4.66518 21.8923 4.54545 21.5909 4.54545ZM6.81818 3.40909C6.81818 3.10771 6.9379 2.81867 7.15101 2.60556C7.36412 2.39245 7.65316 2.27273 7.95454 2.27273H14.7727C15.0741 2.27273 15.3631 2.39245 15.5763 2.60556C15.7894 2.81867 15.9091 3.10771 15.9091 3.40909V4.54545H6.81818V3.40909ZM18.4545 19.5341C18.3996 20.4003 18.0163 21.2129 17.3828 21.8063C16.7493 22.3996 15.9134 22.729 15.0454 22.7273H7.68182C6.81386 22.729 5.97793 22.3996 5.34446 21.8063C4.71099 21.2129 4.32769 20.4003 4.27273 19.5341L3.47727 6.81818H19.25L18.4545 19.5341Z" fill="#FF0000"/>
<path d="M9.09144 10.2273C8.79006 10.2273 8.50102 10.347 8.28791 10.5601C8.0748 10.7732 7.95508 11.0623 7.95508 11.3637V18.1818C7.95508 18.4832 8.0748 18.7723 8.28791 18.9854C8.50102 19.1985 8.79006 19.3182 9.09144 19.3182C9.39282 19.3182 9.68186 19.1985 9.89497 18.9854C10.1081 18.7723 10.2278 18.4832 10.2278 18.1818V11.3637C10.2278 11.0623 10.1081 10.7732 9.89497 10.5601C9.68186 10.347 9.39282 10.2273 9.09144 10.2273Z" fill="#FF0000"/>
<path d="M13.6364 10.2273C13.335 10.2273 13.0459 10.347 12.8328 10.5601C12.6197 10.7732 12.5 11.0623 12.5 11.3637V18.1818C12.5 18.4832 12.6197 18.7723 12.8328 18.9854C13.0459 19.1985 13.335 19.3182 13.6364 19.3182C13.9377 19.3182 14.2268 19.1985 14.4399 18.9854C14.653 18.7723 14.7727 18.4832 14.7727 18.1818V11.3637C14.7727 11.0623 14.653 10.7732 14.4399 10.5601C14.2268 10.347 13.9377 10.2273 13.6364 10.2273Z" fill="#FF0000"/>
</svg>
