<svg width="25" height="25" viewBox="0 0 25 25" fill="none" xmlns="http://www.w3.org/2000/svg">
<g clip-path="url(#clip0_1475_14755)">
<path d="M19.7916 12.548C19.2156 12.548 18.75 13.0147 18.75 13.5896V21.923C18.75 22.4969 18.2833 22.9646 17.7084 22.9646H3.125C2.54993 22.9646 2.0834 22.4969 2.0834 21.923V7.3396C2.0834 6.76568 2.54993 6.298 3.125 6.298H11.4584C12.0344 6.298 12.5 5.83127 12.5 5.25639C12.5 4.68133 12.0344 4.2146 11.4584 4.2146H3.125C1.40209 4.2146 0 5.61669 0 7.3396V21.923C0 23.6459 1.40209 25.048 3.125 25.048H17.7084C19.4313 25.048 20.8334 23.6459 20.8334 21.923V13.5896C20.8334 13.0136 20.3676 12.548 19.7916 12.548Z" fill="#5793CE"/>
<path d="M9.76619 11.5991C9.69333 11.6719 9.64431 11.7646 9.62352 11.8646L8.88709 15.548C8.85276 15.7188 8.90693 15.8948 9.02976 16.0188C9.12875 16.1178 9.26208 16.1708 9.39864 16.1708C9.43183 16.1708 9.46635 16.1677 9.50069 16.1605L13.183 15.4241C13.2851 15.4031 13.3778 15.3543 13.4497 15.2812L21.6913 7.03956L18.009 3.35742L9.76619 11.5991Z" fill="#5793CE"/>
<path d="M24.2372 0.810575C23.2217 -0.205088 21.5696 -0.205088 20.5549 0.810575L19.1133 2.25215L22.7956 5.93448L24.2372 4.49271C24.7289 4.00214 24.9997 3.34792 24.9997 2.65212C24.9997 1.95632 24.7289 1.3021 24.2372 0.810575Z" fill="#5793CE"/>
</g>
<defs>
<clipPath id="clip0_1475_14755">
<rect width="25" height="25" fill="white"/>
</clipPath>
</defs>
</svg>
