<svg width="32" height="33" viewBox="0 0 32 33" fill="none" xmlns="http://www.w3.org/2000/svg">
<path d="M7.8909 12.6621C7.3396 12.6621 6.89258 13.1084 6.89258 13.6588C6.89258 14.2091 7.3396 14.6554 7.8909 14.6554H18.5951C19.1464 14.6554 19.5934 14.2091 19.5934 13.6588C19.5934 13.1084 19.1464 12.6621 18.5951 12.6621H7.8909Z" fill="#1172BA"/>
<path d="M12.7039 18.3213H7.8909C7.3396 18.3213 6.89258 18.7676 6.89258 19.3179C6.89258 19.8683 7.3396 20.3146 7.8909 20.3146H12.7039C13.2552 20.3146 13.7022 19.8683 13.7022 19.3179C13.7022 18.7676 13.2552 18.3213 12.7039 18.3213Z" fill="#1172BA"/>
<path d="M12.5577 31.0067H4.95942C3.3255 31.0067 1.99774 29.6756 1.99774 28.0389V7.85134C1.99774 6.21463 3.3255 4.88356 4.95942 4.88356H7.02149V5.13383C7.02149 6.58782 8.20616 7.7694 9.6626 7.7694H19.2021C20.6585 7.7694 21.8432 6.58782 21.8432 5.13383V4.88356H23.8953C25.5558 4.88356 26.8558 6.18695 26.8558 7.85134V13.5322C26.8558 14.0826 27.3029 14.5289 27.8541 14.5289C28.4054 14.5289 28.8525 14.0826 28.8525 13.5322V7.85134C28.8525 5.11611 26.6284 2.89027 23.8942 2.89027H21.8421V2.63557C21.8421 1.18158 20.6574 0 19.201 0H9.66149C8.20505 0 7.02038 1.18158 7.02038 2.63557V2.89027H4.95942C2.22514 2.89027 0 5.11611 0 7.85134V28.0389C0 30.7742 2.22514 33 4.95942 33H12.5577C13.109 33 13.556 32.5537 13.556 32.0034C13.556 31.453 13.109 31.0067 12.5577 31.0067ZM9.01924 2.63557C9.01924 2.28121 9.30764 1.99329 9.6626 1.99329H19.2021C19.557 1.99329 19.8454 2.28121 19.8454 2.63557V5.13272C19.8454 5.48708 19.557 5.775 19.2021 5.775H9.6626C9.30764 5.775 9.01924 5.48708 9.01924 5.13272V2.63557Z" fill="#1172BA"/>
<path d="M30.9441 18.004C29.5775 16.6386 27.1915 16.6374 25.8238 18.004L16.9732 26.8398C16.6881 27.1244 16.5018 27.4854 16.4341 27.8829L15.9483 30.7499C15.8451 31.3645 16.0481 31.9957 16.4896 32.4354C16.8545 32.7997 17.3481 32.999 17.8551 32.999C17.9627 32.999 18.0691 32.9902 18.1756 32.9724L21.0464 32.4885C21.4446 32.421 21.8062 32.2349 22.0913 31.9503L30.9419 23.1145C32.354 21.7059 32.354 19.4137 30.9441 18.004ZM20.7147 30.524L17.9183 31.081L18.3864 28.2495L24.7301 21.9163L27.0274 24.2097L20.7147 30.524ZM29.5309 21.7048L28.4372 22.7989L26.1411 20.5066L27.2359 19.4137C27.5421 19.108 27.9503 18.9386 28.3829 18.9386C28.8177 18.9386 29.2248 19.1069 29.5309 19.4137C30.1643 20.046 30.1643 21.0725 29.5309 21.7048Z" fill="#1172BA"/>
</svg>
