<svg width="18" height="20" viewBox="0 0 18 20" fill="none" xmlns="http://www.w3.org/2000/svg">
<path d="M15.6818 20H2.31818C1.05682 20 0 19.0012 0 17.7362V7.64877C0 6.98294 0.306818 6.3504 0.852273 5.9176L7.53409 0.524345C8.38636 -0.174782 9.61364 -0.174782 10.4659 0.524345L17.1477 5.88431C17.6932 6.3171 18 6.94965 18 7.61548V17.7029C18 19.0012 16.9432 20 15.6818 20ZM9 1.35664C8.79545 1.35664 8.55682 1.42322 8.38636 1.55639L1.70455 6.94965C1.5 7.1161 1.36364 7.38244 1.36364 7.64877V17.7362C1.36364 18.2355 1.77273 18.6683 2.31818 18.6683H15.6818C16.1932 18.6683 16.6364 18.2688 16.6364 17.7362V7.64877C16.6364 7.38244 16.5 7.1161 16.2955 6.94965L9.61364 1.55639C9.44318 1.42322 9.20454 1.35664 9 1.35664Z" fill="#66696F"/>
<path d="M13.0882 17.0703H4.90643C4.53143 17.0703 4.22461 16.7707 4.22461 16.4045C4.22461 16.0383 4.53143 15.7386 4.90643 15.7386H13.0882C13.4632 15.7386 13.7701 16.0383 13.7701 16.4045C13.7701 16.7707 13.4632 17.0703 13.0882 17.0703Z" fill="#66696F"/>
</svg>
