<svg width="21" height="13" viewBox="0 0 21 13" fill="none" xmlns="http://www.w3.org/2000/svg">
<path d="M10.461 10.1679C8.47287 10.1679 6.79297 8.48836 6.79297 6.50021C6.79297 4.51207 8.47287 2.83252 10.461 2.83252C12.4492 2.83252 14.1291 4.51207 14.1291 6.50021C14.1291 8.48836 12.4492 10.1679 10.461 10.1679ZM10.461 4.25136C9.24153 4.25136 8.21181 5.28108 8.21181 6.50021C8.21181 7.71935 9.24153 8.74907 10.461 8.74907C11.6805 8.74907 12.7102 7.71935 12.7102 6.50021C12.7102 5.28108 11.6805 4.25136 10.461 4.25136Z" fill="white"/>
<path d="M1.23844 7.20953C1.13522 7.20953 1.03022 7.18683 0.931261 7.1393C0.578325 6.9694 0.429702 6.54552 0.599608 6.19223C1.14373 5.06177 1.87195 4.04127 2.76369 3.15911C5.31334 0.636772 9.07964 -0.495815 12.592 0.203317C15.9497 0.871944 18.8395 3.11087 20.3229 6.19223C20.4928 6.54552 20.3445 6.96904 19.9912 7.1393C19.639 7.30885 19.2144 7.16094 19.0445 6.80765C17.753 4.12569 15.2377 2.17692 12.3146 1.59484C9.25948 0.986515 5.9809 1.97154 3.76113 4.16755C2.98503 4.93514 2.35152 5.82333 1.87763 6.80765C1.75596 7.06162 1.50234 7.20953 1.23844 7.20953Z" fill="white"/>
<path d="M10.4095 13.0002C9.71428 13.0002 9.01763 12.9335 8.33091 12.7966C4.97288 12.1276 2.08306 9.88867 0.599668 6.80766C0.429762 6.45437 0.578031 6.03085 0.931321 5.86059C1.2839 5.69139 1.70849 5.83895 1.87804 6.19224C3.16954 8.8742 5.68478 10.823 8.60794 11.405C11.663 12.0137 14.9416 11.0283 17.1614 8.83234C17.9375 8.06475 18.571 7.17656 19.0449 6.19224C19.2148 5.83931 19.6394 5.69175 19.9916 5.86059C20.3446 6.0305 20.4932 6.45437 20.3233 6.80766C19.7792 7.93812 19.0509 8.95862 18.1592 9.84078C16.1079 11.8701 13.2692 13.0002 10.4095 13.0002Z" fill="white"/>
</svg>
