<svg width="33" height="33" viewBox="0 0 33 33" fill="none" xmlns="http://www.w3.org/2000/svg">
<path d="M29.7249 23.0898L30.5768 25.4066L27.2929 28.6919L25.7129 27.1035L29.7249 23.0898Z" fill="#1172BA"/>
<path d="M30.8329 19.1309C31.0265 19.5803 30.8174 20.0994 30.3759 20.2931L29.524 20.6573L28.9121 19.0069L29.6711 18.6737C29.7796 18.6272 29.9035 18.604 30.0197 18.604C30.3759 18.604 30.6935 18.8055 30.8329 19.1309Z" fill="#1172BA"/>
<path d="M29.2371 14.6909C29.33 14.9079 29.3377 15.1481 29.2526 15.365C29.1674 15.582 29.0047 15.7525 28.7878 15.8454L27.9049 16.2329L27.3008 14.5825L28.0908 14.2338C28.1992 14.1873 28.3231 14.1641 28.4393 14.1641C28.7801 14.1641 29.0976 14.3733 29.2371 14.6909Z" fill="#1172BA"/>
<path d="M18.1684 4.57895C18.1684 4.69517 18.1451 4.81915 18.0909 4.93537L17.8431 5.49325L16.1934 4.88113L16.4954 4.21478C16.6968 3.77313 17.2157 3.57167 17.6572 3.77313C17.967 3.9126 18.1684 4.22253 18.1684 4.57895Z" fill="#1172BA"/>
<path d="M13.7542 2.93656C13.7542 3.05278 13.731 3.17675 13.6768 3.29298L13.4212 3.8586L11.7715 3.25424L12.0735 2.58013C12.1665 2.37093 12.3446 2.20047 12.5615 2.11524C12.7783 2.03001 13.0184 2.03775 13.2353 2.13848C13.5451 2.27795 13.7542 2.58788 13.7542 2.93656Z" fill="#1172BA"/>
<path d="M9.66437 3.18456L5.72211 7.1207L4.3125 5.70276L7.59643 2.41748L9.66437 3.18456Z" fill="#1172BA"/>
<path d="M23.8068 9.18931C23.9307 9.31329 24.0004 9.476 24.0004 9.65421C24.0004 9.83242 23.9307 9.99514 23.8068 10.1191L19.3379 14.5899C19.214 14.7138 19.0513 14.7836 18.8732 14.7836C18.695 14.7836 18.5324 14.7138 18.4085 14.5899C18.2845 14.4659 18.2148 14.3032 18.2148 14.125C18.2148 13.9468 18.2845 13.7841 18.4085 13.6601L22.8774 9.18931C23.0013 9.06534 23.164 8.99561 23.3421 8.99561C23.5202 8.99561 23.6751 9.06534 23.8068 9.18931Z" fill="#1172BA"/>
<path d="M29.0569 21.2924L29.4674 22.4082L25.2386 26.6388L17.509 18.906L19.4685 16.9456C19.6002 16.8139 19.6002 16.6125 19.4685 16.4807C19.3368 16.349 19.1354 16.349 19.0038 16.4807L16.8661 18.6193C16.8429 18.6348 16.8197 18.6503 16.8042 18.6658C16.7887 18.6813 16.7654 18.7045 16.7577 18.7278L15.3403 20.1379C15.2706 20.1999 15.2397 20.2852 15.2397 20.3704V24.632L13.3731 26.4993L10.1743 23.2992L12.1416 21.3312C12.2733 21.1995 12.2733 20.998 12.1416 20.8663C12.0099 20.7346 11.8086 20.7346 11.6769 20.8663L9.70964 22.8266L6.51091 19.6343L8.37748 17.767H12.6373C12.7225 17.767 12.8077 17.7282 12.8696 17.6662L14.2947 16.2406C14.3102 16.2328 14.3257 16.2173 14.3335 16.2018L14.3722 16.1631L16.5331 14.0013C16.6648 13.8696 16.6648 13.6681 16.5331 13.5364C16.4014 13.4047 16.2 13.4047 16.0684 13.5364L14.1011 15.4967L6.19336 7.5857L10.3447 3.43262L11.1812 3.74255C11.1812 3.74255 11.189 3.74255 11.189 3.7503C11.2122 3.75805 11.2354 3.76579 11.2509 3.77354L13.4273 4.57936C13.435 4.58711 13.4428 4.58711 13.4505 4.58711C13.466 4.59486 13.4893 4.60261 13.5047 4.60261L15.5959 5.37744L17.8652 6.21426C17.8807 6.222 17.8885 6.22975 17.904 6.22975L21.2963 7.47723C21.4048 7.51597 21.5209 7.50047 21.6061 7.43849L24.0304 5.68737C25.3548 6.49319 26.4933 7.59345 27.3298 8.88742L25.5407 11.3591C25.4787 11.4521 25.4632 11.5606 25.5019 11.6691L26.5553 14.5282L27.3608 16.7209C27.3685 16.7442 27.3685 16.7752 27.384 16.7984C27.3917 16.8139 27.3995 16.8294 27.4072 16.8449L28.1662 18.8982C28.174 18.9137 28.174 18.9292 28.1817 18.9447C28.1817 18.9525 28.1895 18.9525 28.1895 18.9602L28.9872 21.1297C28.9872 21.1607 29.0027 21.1917 29.0105 21.2227C29.0414 21.2537 29.0492 21.2692 29.0569 21.2924ZM24.6577 9.6545C24.6577 9.29808 24.5183 8.9649 24.2705 8.71695C24.0226 8.46901 23.6896 8.32954 23.3333 8.32954C22.977 8.32954 22.644 8.46901 22.3961 8.71695L17.9272 13.1877C17.6794 13.4357 17.54 13.7688 17.54 14.1253C17.54 14.4817 17.6794 14.8149 17.9272 15.0628C18.175 15.3108 18.5081 15.4502 18.8644 15.4502C19.2206 15.4502 19.5537 15.3185 19.8015 15.0628L24.2705 10.592C24.5183 10.3363 24.6577 10.0109 24.6577 9.6545Z" fill="#1172BA"/>
<path d="M32.9994 1.06926L27.7559 8.32942C26.9272 7.11294 25.8584 6.06692 24.6191 5.27659L31.9305 0L32.9994 1.06926Z" fill="#1172BA"/>
<path d="M21.9789 27.1886C22.1105 27.3204 22.1105 27.5218 21.9789 27.6535L19.2138 30.4197C19.1441 30.4894 19.0589 30.5127 18.9815 30.5127C18.8963 30.5127 18.8111 30.4817 18.7491 30.4119C18.6175 30.2802 18.6175 30.0788 18.7491 29.947L21.5141 27.1809C21.6381 27.0569 21.8472 27.0569 21.9789 27.1886Z" fill="#1172BA"/>
<path d="M19.6253 24.841C19.7569 24.9727 19.7569 25.1742 19.6253 25.3059L16.8603 28.072C16.7906 28.1418 16.7054 28.1727 16.6202 28.1727C16.535 28.1727 16.4498 28.1418 16.3878 28.072C16.2561 27.9403 16.2561 27.7388 16.3878 27.6071L19.1528 24.841C19.2922 24.7093 19.4936 24.7093 19.6253 24.841Z" fill="#1172BA"/>
<path d="M13.5688 27.2277L9.6962 31.1019C9.6265 31.1716 9.5413 31.2026 9.4561 31.2026C9.37091 31.2026 9.28571 31.1716 9.22375 31.1019C9.09208 30.9702 9.09208 30.7687 9.22375 30.637L12.9027 26.9565L13.135 27.189C13.197 27.2587 13.2822 27.2897 13.3674 27.2897C13.4448 27.2897 13.5068 27.2665 13.5688 27.2277Z" fill="#1172BA"/>
<path d="M9.71034 23.7642L7.74308 25.7323C7.67337 25.7943 7.58817 25.8253 7.50298 25.8253C7.41778 25.8253 7.33259 25.7943 7.27063 25.7245C7.13896 25.5928 7.13896 25.3914 7.27063 25.2596L9.23788 23.2993L9.71034 23.7642Z" fill="#1172BA"/>
<path d="M7.81277 13.0246C7.94444 13.1563 7.94444 13.3577 7.81277 13.4895L5.04776 16.2556C4.97806 16.3253 4.89286 16.3563 4.80767 16.3563C4.72247 16.3563 4.63727 16.3253 4.57531 16.2556C4.44365 16.1239 4.44365 15.9224 4.57531 15.7907L7.34032 13.0246C7.47198 12.8929 7.6811 12.8929 7.81277 13.0246Z" fill="#1172BA"/>
<path d="M6.03151 26.9718C6.16317 27.1036 6.16317 27.305 6.03151 27.4367L0.571202 32.8993C0.501496 32.969 0.4163 33 0.331104 33C0.245907 33 0.160711 32.969 0.0987502 32.8993C-0.0329167 32.7676 -0.0329167 32.5661 0.0987502 32.4344L5.55905 26.9718C5.69847 26.8401 5.89984 26.8401 6.03151 26.9718Z" fill="#1172BA"/>
<path d="M6.04701 20.0991L2.36808 23.7796C2.29837 23.8493 2.21317 23.8803 2.12798 23.8803C2.04278 23.8803 1.95759 23.8493 1.89563 23.7796C1.76396 23.6479 1.76396 23.4464 1.89563 23.3147L5.81465 19.394C5.68299 19.5258 5.68299 19.7272 5.81465 19.8589L6.04701 20.0991Z" fill="#1172BA"/>
<path d="M5.46511 10.6769C5.59678 10.8086 5.59678 11.0101 5.46511 11.1418L2.70011 13.908C2.6304 13.9777 2.54521 14.0087 2.46001 14.0087C2.37481 14.0087 2.28962 13.9777 2.22766 13.908C2.09599 13.7762 2.09599 13.5748 2.22766 13.4431L4.99266 10.6769C5.12433 10.5452 5.33345 10.5452 5.46511 10.6769Z" fill="#1172BA"/>
</svg>
