<svg width="64" height="64" viewBox="0 0 64 64" fill="none" xmlns="http://www.w3.org/2000/svg">
<g clip-path="url(#clip0_659_884)">
<path d="M23.332 46.9653V59.3333C23.332 60.1973 23.8867 60.9627 24.708 61.2347C24.9134 61.3013 25.124 61.3333 25.332 61.3333C25.956 61.3333 26.5587 61.04 26.9427 60.5173L34.1774 50.672L23.332 46.9653Z" fill="#71B5E7"/>
<path d="M63.1601 0.370903C62.5468 -0.0637637 61.7415 -0.12243 61.0748 0.226903L1.07479 31.5602C0.365452 31.9309 -0.0532147 32.6882 0.00545194 33.4856C0.0667853 34.2856 0.597452 34.9682 1.35212 35.2269L18.0321 40.9282L53.5548 10.5549L26.0668 43.6722L54.0215 53.2269C54.2295 53.2962 54.4481 53.3336 54.6668 53.3336C55.0295 53.3336 55.3895 53.2349 55.7068 53.0429C56.2135 52.7336 56.5575 52.2136 56.6455 51.6296L63.9788 2.29624C64.0881 1.54957 63.7735 0.808236 63.1601 0.370903Z" fill="#71B5E7"/>
</g>
<defs>
<clipPath id="clip0_659_884">
<rect width="64" height="64" fill="white"/>
</clipPath>
</defs>
</svg>
