<svg width="33" height="33" viewBox="0 0 33 33" fill="none" xmlns="http://www.w3.org/2000/svg">
<g clip-path="url(#clip0_1475_14439)">
<path d="M12.0312 24.2163V30.5936C12.0312 31.0391 12.3172 31.4337 12.7407 31.5739C12.8466 31.6083 12.9553 31.6248 13.0625 31.6248C13.3843 31.6248 13.695 31.4736 13.893 31.2041L17.6234 26.1276L12.0312 24.2163Z" fill="#1172BA"/>
<path d="M32.5669 0.191247C32.2507 -0.0328782 31.8354 -0.0631282 31.4917 0.116997L0.554186 16.2732C0.188436 16.4644 -0.0274388 16.8549 0.00281116 17.266C0.0344362 17.6785 0.308061 18.0305 0.697186 18.1639L9.29781 21.1036L27.6142 5.44237L13.4407 22.5185L27.8548 27.4451C27.9621 27.4809 28.0748 27.5001 28.1876 27.5001C28.3746 27.5001 28.5602 27.4492 28.7238 27.3502C28.9851 27.1907 29.1624 26.9226 29.2078 26.6215L32.9891 1.184C33.0454 0.798997 32.8832 0.416747 32.5669 0.191247Z" fill="#1172BA"/>
</g>
<defs>
<clipPath id="clip0_1475_14439">
<rect width="33" height="33" fill="white"/>
</clipPath>
</defs>
</svg>
