<svg width="18" height="15" viewBox="0 0 18 15" fill="none" xmlns="http://www.w3.org/2000/svg">
<path d="M17.3598 11.4671V6.38542L17.5057 6.30098C17.8153 6.12231 18 5.80352 18 5.44801C18 5.0925 17.8153 4.7731 17.5057 4.59443L10.0216 0.273284C9.39184 -0.0914005 8.60816 -0.0907887 7.97839 0.273284L0.493724 4.59504C0.184685 4.77371 0 5.0925 0 5.44801C0 5.80352 0.184685 6.12231 0.493724 6.30159L2.76289 7.61225V10.6588C2.76289 11.3662 3.1458 12.024 3.76141 12.377L6.88505 14.1668C7.53699 14.54 8.26834 14.7273 8.99969 14.7273C9.73104 14.7273 10.4618 14.5406 11.1143 14.1668L14.2374 12.377C14.8536 12.0246 15.2365 11.3662 15.2365 10.6588V7.61164L16.2516 7.02545V11.4671C15.9912 11.6434 15.8201 11.9401 15.8201 12.2773C15.8201 12.8182 16.2615 13.2569 16.8057 13.2569C17.3499 13.2569 17.7913 12.8182 17.7913 12.2773C17.7913 11.9407 17.6202 11.644 17.3598 11.4671ZM14.129 10.6582H14.1284C14.1284 10.9727 13.9591 11.2652 13.6845 11.4219L10.5615 13.2116C9.59869 13.7629 8.40131 13.7629 7.43911 13.2116L4.31547 11.4219C4.04152 11.2652 3.87161 10.9727 3.87161 10.6582V8.25168L7.97839 10.6233C8.29358 10.8051 8.64694 10.8963 9.00031 10.8963C9.35367 10.8963 9.70703 10.8057 10.0222 10.6233L14.129 8.25168V10.6582ZM9.4651 9.67125C9.17822 9.83707 8.82178 9.83707 8.5349 9.67125L1.222 5.44801L8.53429 1.22477C8.82116 1.05895 9.17761 1.05895 9.46448 1.22477L16.7774 5.4474L9.4651 9.67125Z" fill="#66696F"/>
</svg>
