<svg width="30" height="33" viewBox="0 0 30 33" fill="none" xmlns="http://www.w3.org/2000/svg">
<path d="M8.82499 6.90699C8.19569 6.90699 7.67383 6.38513 7.67383 5.75582V1.15117C7.67383 0.521861 8.19569 0 8.82499 0C9.4543 0 9.97616 0.521861 9.97616 1.15117V5.75582C9.97616 6.38513 9.4543 6.90699 8.82499 6.90699Z" fill="#1172BA"/>
<path d="M21.1043 6.90699C20.475 6.90699 19.9531 6.38513 19.9531 5.75582V1.15117C19.9531 0.521861 20.475 0 21.1043 0C21.7336 0 22.2555 0.521861 22.2555 1.15117V5.75582C22.2555 6.38513 21.7336 6.90699 21.1043 6.90699Z" fill="#1172BA"/>
<path d="M9.59348 20.3376C9.39395 20.3376 9.19441 20.2916 9.01022 20.2148C8.81069 20.1381 8.6572 20.0306 8.50371 19.8925C8.22743 19.6009 8.05859 19.2171 8.05859 18.8027C8.05859 18.6032 8.10464 18.4037 8.18138 18.2195C8.25813 18.0353 8.36557 17.8664 8.50371 17.713C8.6572 17.5748 8.81069 17.4674 9.01022 17.3906C9.56278 17.1604 10.2535 17.2832 10.6832 17.713C10.9595 18.0046 11.1284 18.4037 11.1284 18.8027C11.1284 18.8948 11.113 19.0023 11.0977 19.1097C11.0823 19.2018 11.0516 19.2939 11.0056 19.386C10.9749 19.4781 10.9288 19.5702 10.8674 19.6623C10.8214 19.739 10.7446 19.8158 10.6832 19.8925C10.3916 20.1688 9.99255 20.3376 9.59348 20.3376Z" fill="#1172BA"/>
<path d="M14.9665 20.3366C14.767 20.3366 14.5675 20.2906 14.3833 20.2138C14.1837 20.1371 14.0302 20.0296 13.8768 19.8915C13.6005 19.5999 13.4316 19.2162 13.4316 18.8017C13.4316 18.6022 13.4777 18.4027 13.5544 18.2185C13.6312 18.0343 13.7386 17.8655 13.8768 17.712C14.0302 17.5738 14.1837 17.4664 14.3833 17.3896C14.9358 17.1441 15.6265 17.2822 16.0563 17.712C16.3326 18.0036 16.5014 18.4027 16.5014 18.8017C16.5014 18.8938 16.4861 19.0013 16.4707 19.1087C16.4554 19.2008 16.4247 19.2929 16.3786 19.385C16.3479 19.4771 16.3019 19.5692 16.2405 19.6613C16.1944 19.738 16.1177 19.8148 16.0563 19.8915C15.7647 20.1678 15.3656 20.3366 14.9665 20.3366Z" fill="#1172BA"/>
<path d="M20.3376 20.3366C20.1381 20.3366 19.9386 20.2906 19.7544 20.2138C19.5548 20.1371 19.4013 20.0296 19.2479 19.8915C19.1865 19.8148 19.1251 19.738 19.0637 19.6613C19.0023 19.5692 18.9562 19.4771 18.9255 19.385C18.8795 19.2929 18.8488 19.2008 18.8334 19.1087C18.8181 19.0013 18.8027 18.8938 18.8027 18.8017C18.8027 18.4027 18.9716 18.0036 19.2479 17.712C19.4013 17.5738 19.5548 17.4664 19.7544 17.3896C20.3223 17.1441 20.9976 17.2822 21.4274 17.712C21.7037 18.0036 21.8725 18.4027 21.8725 18.8017C21.8725 18.8938 21.8572 19.0013 21.8418 19.1087C21.8265 19.2008 21.7958 19.2929 21.7497 19.385C21.719 19.4771 21.673 19.5692 21.6116 19.6613C21.5655 19.738 21.4888 19.8148 21.4274 19.8915C21.1358 20.1678 20.7367 20.3366 20.3376 20.3366Z" fill="#1172BA"/>
<path d="M9.59348 25.7086C9.39395 25.7086 9.19441 25.6627 9.01022 25.586C8.82604 25.5093 8.6572 25.4017 8.50371 25.2635C8.22743 24.9719 8.05859 24.5728 8.05859 24.1737C8.05859 23.9742 8.10464 23.7747 8.18138 23.5905C8.25813 23.391 8.36557 23.2223 8.50371 23.0841C9.07162 22.5162 10.1153 22.5162 10.6832 23.0841C10.9595 23.3758 11.1284 23.7747 11.1284 24.1737C11.1284 24.5728 10.9595 24.9719 10.6832 25.2635C10.3916 25.5398 9.99255 25.7086 9.59348 25.7086Z" fill="#1172BA"/>
<path d="M14.9665 25.7086C14.5675 25.7086 14.1684 25.5398 13.8768 25.2635C13.6005 24.9719 13.4316 24.5728 13.4316 24.1737C13.4316 23.9742 13.4777 23.7747 13.5544 23.5905C13.6312 23.391 13.7386 23.2223 13.8768 23.0841C14.4447 22.5162 15.4884 22.5162 16.0563 23.0841C16.1944 23.2223 16.3019 23.391 16.3786 23.5905C16.4554 23.7747 16.5014 23.9742 16.5014 24.1737C16.5014 24.5728 16.3326 24.9719 16.0563 25.2635C15.7647 25.5398 15.3656 25.7086 14.9665 25.7086Z" fill="#1172BA"/>
<path d="M20.3376 25.7098C19.9386 25.7098 19.5395 25.541 19.2479 25.2647C19.1097 25.1265 19.0023 24.9577 18.9255 24.7582C18.8488 24.574 18.8027 24.3744 18.8027 24.1749C18.8027 23.9754 18.8488 23.7758 18.9255 23.5917C19.0023 23.3921 19.1097 23.2233 19.2479 23.0851C19.6009 22.7321 20.1381 22.5633 20.6292 22.6707C20.7367 22.6861 20.8288 22.7168 20.9209 22.7628C21.013 22.7935 21.1051 22.8396 21.1972 22.901C21.2739 22.947 21.3506 23.0237 21.4274 23.0851C21.7037 23.3768 21.8725 23.7758 21.8725 24.1749C21.8725 24.574 21.7037 24.9731 21.4274 25.2647C21.1358 25.541 20.7367 25.7098 20.3376 25.7098Z" fill="#1172BA"/>
<path d="M28.0118 13.1842H1.91874C1.28944 13.1842 0.767578 12.6623 0.767578 12.033C0.767578 11.4037 1.28944 10.8818 1.91874 10.8818H28.0118C28.6411 10.8818 29.163 11.4037 29.163 12.033C29.163 12.6623 28.6411 13.1842 28.0118 13.1842Z" fill="#1172BA"/>
<path d="M21.1047 33.0005H8.8256C3.22326 33.0005 0 29.7772 0 24.1749V11.1283C0 5.526 3.22326 2.30273 8.8256 2.30273H21.1047C26.707 2.30273 29.9303 5.526 29.9303 11.1283V24.1749C29.9303 29.7772 26.707 33.0005 21.1047 33.0005ZM8.8256 4.60506C4.43582 4.60506 2.30233 6.73856 2.30233 11.1283V24.1749C2.30233 28.5646 4.43582 30.6981 8.8256 30.6981H21.1047C25.4945 30.6981 27.628 28.5646 27.628 24.1749V11.1283C27.628 6.73856 25.4945 4.60506 21.1047 4.60506H8.8256Z" fill="#1172BA"/>
</svg>
