<svg width="32" height="33" viewBox="0 0 32 33" fill="none" xmlns="http://www.w3.org/2000/svg">
<path d="M19.9335 16.1162C19.2958 16.1137 18.747 15.9517 18.2873 15.6302C17.83 15.3088 17.4778 14.8432 17.2306 14.2335C16.9859 13.6238 16.8648 12.8904 16.8672 12.0332C16.8672 11.1786 16.9896 10.4503 17.2343 9.84825C17.4815 9.24619 17.8337 8.78828 18.291 8.4745C18.7507 8.15817 19.2982 8 19.9335 8C20.5687 8 21.115 8.15817 21.5723 8.4745C22.032 8.79083 22.3855 9.25002 22.6327 9.85207C22.8798 10.4516 23.0022 11.1786 22.9997 12.0332C22.9997 12.8929 22.8761 13.6276 22.629 14.2374C22.3843 14.8471 22.0333 15.3126 21.576 15.6341C21.1187 15.9555 20.5712 16.1162 19.9335 16.1162ZM19.9335 14.7425C20.3685 14.7425 20.7158 14.5167 20.9753 14.0652C21.2349 13.6136 21.3634 12.9363 21.3609 12.0332C21.3609 11.4388 21.3016 10.9439 21.183 10.5485C21.0668 10.1531 20.9012 9.8559 20.6861 9.65692C20.4736 9.45793 20.2227 9.35844 19.9335 9.35844C19.5009 9.35844 19.1549 9.58166 18.8953 10.0281C18.6358 10.4745 18.5048 11.1429 18.5023 12.0332C18.5023 12.6353 18.5604 13.1378 18.6766 13.5409C18.7952 13.9414 18.9621 14.2425 19.1771 14.444C19.3922 14.643 19.6443 14.7425 19.9335 14.7425Z" fill="#1172BA"/>
<path d="M12.8809 16.0512C12.3272 16.0512 11.8341 15.9529 11.4015 15.7565C10.9714 15.5575 10.6315 15.2846 10.3819 14.9376C10.1347 14.5881 10.0074 14.1851 10 13.7284H11.6165C11.6264 13.9197 11.687 14.0881 11.7982 14.2335C11.9119 14.3764 12.0627 14.4874 12.2506 14.5664C12.4384 14.6455 12.6498 14.6851 12.8846 14.6851C13.1293 14.6851 13.3456 14.6404 13.5334 14.5511C13.7213 14.4618 13.8683 14.3381 13.9746 14.18C14.0809 14.0218 14.1341 13.8394 14.1341 13.6327C14.1341 13.4236 14.0772 13.2386 13.9635 13.0779C13.8523 12.9146 13.6916 12.7871 13.4815 12.6952C13.2739 12.6034 13.0267 12.5575 12.74 12.5575H12.0318V11.3406H12.74C12.9822 11.3406 13.196 11.2973 13.3814 11.2105C13.5693 11.1238 13.7151 11.0039 13.8189 10.8508C13.9227 10.6952 13.9746 10.5141 13.9746 10.3074C13.9746 10.111 13.9289 9.93881 13.8374 9.79085C13.7485 9.64033 13.6224 9.52299 13.4593 9.4388C13.2986 9.35462 13.1107 9.31252 12.8957 9.31252C12.6782 9.31252 12.4792 9.35334 12.2988 9.43497C12.1183 9.51406 11.9737 9.62758 11.865 9.77554C11.7562 9.9235 11.6981 10.097 11.6907 10.296H10.152C10.1594 9.84442 10.2843 9.44645 10.5265 9.10206C10.7687 8.75767 11.095 8.48853 11.5053 8.29465C11.9181 8.09822 12.384 8 12.9031 8C13.4271 8 13.8856 8.09822 14.2787 8.29465C14.6717 8.49108 14.9769 8.75639 15.1945 9.09058C15.4144 9.42222 15.5232 9.79467 15.5207 10.2079C15.5232 10.6467 15.391 11.0128 15.124 11.3062C14.8595 11.5996 14.5147 11.7858 14.0896 11.8649V11.9261C14.6482 12.0001 15.0733 12.2003 15.365 12.5269C15.6592 12.8508 15.805 13.2565 15.8025 13.7437C15.805 14.1902 15.6802 14.5868 15.428 14.9338C15.1784 15.2807 14.8336 15.5537 14.3936 15.7527C13.9536 15.9517 13.4494 16.0512 12.8809 16.0512Z" fill="#1172BA"/>
<path d="M15.0891 18.17C15.0864 18.1627 15.0836 18.1554 15.0807 18.1482C14.9399 17.7952 14.6102 17.5674 14.2403 17.5674H14.2391C13.8666 17.5674 13.5323 17.8023 13.3953 18.1595C13.3942 18.1623 13.3931 18.1652 13.3921 18.168L11.2799 23.8871C11.1263 24.3029 11.3287 24.7684 11.7319 24.9268C12.1351 25.0851 12.5865 24.8764 12.7401 24.4606L13.0745 23.5551H15.3896L15.7201 24.4583C15.8725 24.8746 16.3233 25.0847 16.7269 24.9275C17.1306 24.7704 17.3344 24.3056 17.182 23.8893L15.0891 18.17ZM13.6696 21.9437L14.2374 20.4064L14.7999 21.9437H13.6696Z" fill="#1172BA"/>
<path d="M7.90556 17.5674H6.3125C6.10506 17.5674 5.90613 17.6525 5.7595 17.8039C5.61294 17.9553 5.53088 18.1606 5.53125 18.3745C5.53125 18.3746 5.54263 24.1557 5.54269 24.1767C5.54344 24.3904 5.6265 24.595 5.77356 24.7456C5.91994 24.8954 6.11775 24.9794 6.32394 24.9794H6.32694C6.37513 24.9792 7.5115 24.9747 7.96594 24.9665C9.69988 24.9353 10.9584 23.382 10.9584 21.2733C10.9584 19.0567 9.73156 17.5674 7.90556 17.5674ZM7.93856 23.3555C7.74494 23.3589 7.4145 23.3618 7.10256 23.3639C7.1005 22.6821 7.09631 19.8874 7.09519 19.1787H7.90563C9.28844 19.1787 9.39594 20.782 9.39594 21.2734C9.39588 22.2967 8.94525 23.3373 7.93856 23.3555Z" fill="#1172BA"/>
<path d="M21.3176 17.7127C20.956 17.47 20.472 17.5755 20.2367 17.9484L19.1084 19.7357L17.9668 17.9327C17.7308 17.5601 17.2467 17.4552 16.8855 17.6986C16.5242 17.9419 16.4225 18.4411 16.6584 18.8137L18.3275 21.4497L18.321 24.172C18.32 24.6169 18.6688 24.9786 19.1003 24.9797H19.1023C19.5329 24.9797 19.8825 24.6203 19.8835 24.176L19.89 21.4508L21.546 18.8274C21.7815 18.4545 21.6792 17.9555 21.3176 17.7127Z" fill="#1172BA"/>
<path d="M25.3814 20.5694C24.7055 20.3123 24.0753 20.0326 23.8679 19.9391C23.7591 19.8432 23.7572 19.7161 23.7672 19.6449C23.7792 19.5583 23.8414 19.3465 24.1577 19.2482C24.8817 19.0233 25.4162 19.4029 25.5126 19.4786C25.7422 19.7808 26.1557 19.8786 26.4953 19.6914C26.8758 19.4816 27.0194 18.9935 26.8161 18.601C26.5339 18.0568 25.1809 17.2475 23.7071 17.7053C22.9022 17.9553 22.3327 18.6108 22.2206 19.4159C22.1151 20.1732 22.4336 20.9019 23.0516 21.3175C23.0862 21.3407 23.1224 21.361 23.1601 21.3783C23.1926 21.3933 23.9678 21.7491 24.8407 22.0812C25.018 22.1486 25.5914 22.3981 25.5256 22.7775C25.4754 23.0677 25.1243 23.3678 24.6237 23.3678C24.088 23.3678 23.5732 23.1461 23.2469 22.7746C22.9571 22.4449 22.4631 22.4199 22.1434 22.7186C21.8237 23.0174 21.7993 23.5269 22.0891 23.8566C22.7159 24.57 23.6398 24.9792 24.6237 24.9792C25.8452 24.9792 26.8714 24.1723 27.0639 23.0607C27.2091 22.221 26.8435 21.1256 25.3814 20.5694Z" fill="#1172BA"/>
<path d="M27.3137 4.8327C24.2917 1.71632 20.2738 0 16 0C11.8576 0 7.95544 1.61255 4.96763 4.54955H0.9375C0.41975 4.54955 0 4.98242 0 5.51635C0 6.05028 0.41975 6.48315 0.9375 6.48315H3.28369C1.15419 9.34603 0 12.8313 0 16.5C0 20.9073 1.66431 25.0508 4.68625 28.1673C7.70831 31.2837 11.7262 33 16 33C20.2738 33 24.2917 31.2837 27.3137 28.1673C30.3357 25.0508 32 20.9073 32 16.5C32 12.0927 30.3357 7.9492 27.3137 4.8327ZM16 31.0664C8.21144 31.0664 1.875 24.532 1.875 16.5C1.875 13.4046 2.81681 10.5322 4.41944 8.16995V10.0739C4.41944 10.6078 4.83919 11.0407 5.35694 11.0407C5.87469 11.0407 6.29444 10.6078 6.29444 10.0739V5.92685C8.82712 3.45314 12.2446 1.93359 16 1.93359C23.7886 1.93359 30.125 8.46805 30.125 16.5C30.125 24.532 23.7886 31.0664 16 31.0664Z" fill="#1172BA"/>
</svg>
