<svg width="18" height="19" viewBox="0 0 18 19" fill="none" xmlns="http://www.w3.org/2000/svg">
<path d="M8.57236 0C5.61688 0 3.19931 2.4193 3.19931 5.37478C3.19931 7.18192 4.10588 8.78223 5.4841 9.75585C2.27587 11.042 0.00027937 14.1798 0.00027937 17.8402C-0.0253336 18.9942 1.71882 18.9942 1.6932 17.8402C1.6932 13.9549 4.82592 10.8238 8.71124 10.8238C10.0675 10.8238 11.3264 11.2104 12.398 11.8736C13.3613 12.4644 14.2474 11.0195 13.2841 10.4287C12.8017 10.1302 12.2789 9.89746 11.74 9.69629C13.0704 8.71768 13.9405 7.146 13.9405 5.37478C13.9405 2.4193 11.5279 0 8.57236 0ZM8.57236 1.69461C10.6129 1.69461 12.2475 3.33421 12.2475 5.37478C12.2475 7.41534 10.6129 9.0482 8.57236 9.0482C6.5318 9.0482 4.89224 7.41534 4.89224 5.37478C4.89224 3.33421 6.5318 1.69461 8.57236 1.69461ZM13.7652 16.0977V17.7906C13.7897 18.8945 15.4336 18.8945 15.4581 17.7906V16.0977H17.1527C18.2824 16.0977 18.2824 14.4032 17.1527 14.4032H15.4581V12.7102C15.4636 12.2356 15.078 11.8491 14.6034 11.8538C14.1353 11.857 13.7597 12.2421 13.7652 12.7102V14.4032H12.0318C10.8616 14.4572 10.9426 16.1517 12.0723 16.0977H13.7652Z" fill="#66696F"/>
</svg>
