<svg width="33" height="21" viewBox="0 0 33 21" fill="none" xmlns="http://www.w3.org/2000/svg">
<path d="M16.0464 16.4246C12.8348 16.4246 10.1211 13.7115 10.1211 10.4999C10.1211 7.28829 12.8348 4.5752 16.0464 4.5752C19.258 4.5752 21.9716 7.28829 21.9716 10.4999C21.9716 13.7115 19.258 16.4246 16.0464 16.4246ZM16.0464 6.86715C14.0764 6.86715 12.413 8.53053 12.413 10.4999C12.413 12.4693 14.0764 14.1326 16.0464 14.1326C18.0163 14.1326 19.6797 12.4693 19.6797 10.4999C19.6797 8.53053 18.0163 6.86715 16.0464 6.86715Z" fill="#1172BA"/>
<path d="M1.14553 11.6461C0.978791 11.6461 0.809186 11.6094 0.649322 11.5326C0.0791988 11.2582 -0.160883 10.5735 0.113578 10.0028C0.992542 8.17665 2.16889 6.52817 3.60938 5.10314C7.72802 1.02862 13.812 -0.800927 19.4857 0.328433C24.9096 1.40852 29.5778 5.02522 31.974 10.0028C32.2485 10.5735 32.009 11.2576 31.4383 11.5326C30.8693 11.8065 30.1834 11.5676 29.909 10.9969C27.8227 6.66454 23.7597 3.51654 19.0377 2.57627C14.1025 1.59359 8.80638 3.18478 5.22062 6.73215C3.96692 7.9721 2.94357 9.40686 2.17806 10.9969C1.98152 11.4072 1.57183 11.6461 1.14553 11.6461Z" fill="#1172BA"/>
<path d="M15.9602 20.9998C14.8372 20.9998 13.7118 20.8921 12.6025 20.6709C7.17805 19.5902 2.50991 15.9735 0.113676 10.9966C-0.160786 10.4259 0.0787234 9.74173 0.64942 9.46669C1.21897 9.19338 1.90484 9.43174 2.17873 10.0024C4.26498 14.3348 8.32804 17.4828 13.05 18.4231C17.9852 19.4063 23.2813 17.8146 26.8671 14.2672C28.1208 13.0272 29.1441 11.5925 29.9096 10.0024C30.1841 9.43231 30.87 9.19395 31.4389 9.46669C32.0091 9.74115 32.2491 10.4259 31.9747 10.9966C31.0957 12.8227 29.9194 14.4712 28.4789 15.8962C25.1653 19.1743 20.5797 20.9998 15.9602 20.9998Z" fill="#1172BA"/>
</svg>
